<?xml version="1.0" encoding="UTF-8" standalone="no"?>
<!DOCTYPE svg PUBLIC "-//W3C//DTD SVG 1.1//EN"
 "http://www.w3.org/Graphics/SVG/1.1/DTD/svg11.dtd">
<!-- Generated by graphviz version 13.1.2 (20250808.2320)
 -->
<!-- Pages: 1 -->
<svg width="2360pt" height="840pt"
 viewBox="0.00 0.00 2360.00 840.00" xmlns="http://www.w3.org/2000/svg" xmlns:xlink="http://www.w3.org/1999/xlink">
<g id="graph0" class="graph" transform="scale(1 1) rotate(0) translate(72 768.3)">
<polygon fill="#000000" stroke="none" points="-72,72 -72,-768.3 2288.02,-768.3 2288.02,72 -72,72"/>
<!-- 0 -->
<g id="node1" class="node">
<title>0</title>
<g id="a_node1"><a xlink:title="202.97 KiB">
<ellipse fill="#ff98a5" stroke="#ffffff" stroke-width="1.2" stroke-opacity="0.623529" cx="1049" cy="-623.91" rx="61.7" ry="61.7"/>
<text xml:space="preserve" text-anchor="middle" x="1049" y="-617.68" font-family="monospace" font-size="18.00" fill="#ffffff">hyperfine</text>
</a>
</g>
</g>
<!-- 1 -->
<g id="node2" class="node">
<title>1</title>
<g id="a_node2"><a xlink:title="13.15 KiB">
<ellipse fill="#8f2203" stroke="#ffffff" stroke-width="1.2" stroke-opacity="0.623529" cx="513" cy="-461.14" rx="22.76" ry="22.76"/>
<text xml:space="preserve" text-anchor="middle" x="513" y="-454.92" font-family="monospace" font-size="18.00" fill="#ffffff">anyhow</text>
</a>
</g>
</g>
<!-- 0&#45;&gt;1 -->
<g id="edge1" class="edge">
<title>0&#45;&gt;1</title>
<g id="a_edge1"><a xlink:title="hyperfine &#45;&gt; anyhow">
<path fill="none" stroke="#ffffff" stroke-width="1.6" stroke-opacity="0.623529" d="M988.27,-615.22C894.34,-601.69 709.79,-568.46 567,-501.52 557.29,-496.97 547.55,-490.57 539.07,-484.25"/>
<polygon fill="none" stroke="#ffffff" stroke-width="1.6" stroke-opacity="0.623529" points="541.38,-481.61 531.35,-478.21 537.07,-487.13 541.38,-481.61"/>
</a>
</g>
</g>
<!-- 2 -->
<g id="node3" class="node">
<title>2</title>
<g id="a_node3"><a xlink:title="0 B">
<ellipse fill="#e94347" stroke="#ffffff" stroke-width="1.2" stroke-opacity="0.623529" cx="610" cy="-461.14" rx="0.36" ry="0.36"/>
<text xml:space="preserve" text-anchor="middle" x="610" y="-454.92" font-family="monospace" font-size="18.00" fill="#ffffff">clap</text>
</a>
</g>
</g>
<!-- 0&#45;&gt;2 -->
<g id="edge2" class="edge">
<title>0&#45;&gt;2</title>
<g id="a_edge2"><a xlink:title="hyperfine &#45;&gt; clap">
<path fill="none" stroke="#ffffff" stroke-width="1.6" stroke-opacity="0.623529" d="M988.31,-612.97C907.59,-597.87 762.39,-564.08 653,-501.52 639.04,-493.54 625.84,-480.3 617.84,-471.4"/>
<polygon fill="none" stroke="#ffffff" stroke-width="1.6" stroke-opacity="0.623529" points="620.76,-469.43 611.63,-464.06 615.42,-473.96 620.76,-469.43"/>
</a>
</g>
</g>
<!-- 17 -->
<g id="node9" class="node">
<title>17</title>
<g id="a_node9"><a xlink:title="8.62 KiB">
<ellipse fill="#812103" stroke="#ffffff" stroke-width="1.2" stroke-opacity="0.623529" cx="713" cy="-461.14" rx="17.97" ry="17.97"/>
<text xml:space="preserve" text-anchor="middle" x="713" y="-454.92" font-family="monospace" font-size="18.00" fill="#ffffff">colored</text>
</a>
</g>
</g>
<!-- 0&#45;&gt;17 -->
<g id="edge9" class="edge">
<title>0&#45;&gt;17</title>
<g id="a_edge9"><a xlink:title="hyperfine &#45;&gt; colored">
<path fill="none" stroke="#ffffff" stroke-width="1.6" stroke-opacity="0.623529" d="M991.92,-601.05C935.17,-578.57 846.25,-541.31 773,-501.52 760.68,-494.83 747.6,-486.42 736.81,-479.08"/>
<polygon fill="none" stroke="#ffffff" stroke-width="1.6" stroke-opacity="0.623529" points="739.1,-476.41 728.89,-473.6 735.11,-482.17 739.1,-476.41"/>
</a>
</g>
</g>
<!-- 19 -->
<g id="node10" class="node">
<title>19</title>
<g id="a_node10"><a xlink:title="4.83 KiB">
<ellipse fill="#812103" stroke="#ffffff" stroke-width="1.2" stroke-opacity="0.623529" cx="1106" cy="-461.14" rx="12.39" ry="12.39"/>
<text xml:space="preserve" text-anchor="middle" x="1106" y="-454.92" font-family="monospace" font-size="18.00" fill="#ffffff">csv</text>
</a>
</g>
</g>
<!-- 0&#45;&gt;19 -->
<g id="edge10" class="edge">
<title>0&#45;&gt;19</title>
<g id="a_edge10"><a xlink:title="hyperfine &#45;&gt; csv">
<path fill="none" stroke="#ffffff" stroke-width="1.6" stroke-opacity="0.623529" d="M1069.26,-565.78C1079.27,-537.52 1090.78,-505.08 1098.2,-484.13"/>
<polygon fill="none" stroke="#ffffff" stroke-width="1.6" stroke-opacity="0.623529" points="1101.4,-485.59 1101.44,-474.99 1094.8,-483.25 1101.4,-485.59"/>
</a>
</g>
</g>
<!-- 25 -->
<g id="node14" class="node">
<title>25</title>
<g id="a_node14"><a xlink:title="48.93 KiB">
<ellipse fill="#c7220d" stroke="#ffffff" stroke-width="1.2" stroke-opacity="0.623529" cx="844" cy="-461.14" rx="40.38" ry="40.38"/>
<text xml:space="preserve" text-anchor="middle" x="844" y="-454.92" font-family="monospace" font-size="18.00" fill="#ffffff">indicatif</text>
</a>
</g>
</g>
<!-- 0&#45;&gt;25 -->
<g id="edge14" class="edge">
<title>0&#45;&gt;25</title>
<g id="a_edge14"><a xlink:title="hyperfine &#45;&gt; indicatif">
<path fill="none" stroke="#ffffff" stroke-width="1.6" stroke-opacity="0.623529" d="M1001.2,-585.42C965.88,-557.72 918.3,-520.41 884.77,-494.12"/>
<polygon fill="none" stroke="#ffffff" stroke-width="1.6" stroke-opacity="0.623529" points="887.21,-491.58 877.18,-488.16 882.89,-497.09 887.21,-491.58"/>
</a>
</g>
</g>
<!-- 35 -->
<g id="node20" class="node">
<title>35</title>
<g id="a_node20"><a xlink:title="3.83 KiB">
<ellipse fill="#962303" stroke="#ffffff" stroke-width="1.2" stroke-opacity="0.623529" cx="1186" cy="-461.14" rx="10.51" ry="10.51"/>
<text xml:space="preserve" text-anchor="middle" x="1186" y="-454.92" font-family="monospace" font-size="18.00" fill="#ffffff">rand</text>
</a>
</g>
</g>
<!-- 0&#45;&gt;35 -->
<g id="edge20" class="edge">
<title>0&#45;&gt;35</title>
<g id="a_edge20"><a xlink:title="hyperfine &#45;&gt; rand">
<path fill="none" stroke="#ffffff" stroke-width="1.6" stroke-opacity="0.623529" d="M1088.26,-576.84C1116.24,-544 1152.25,-501.75 1171.81,-478.79"/>
<polygon fill="none" stroke="#ffffff" stroke-width="1.6" stroke-opacity="0.623529" points="1174.38,-481.18 1178.2,-471.3 1169.05,-476.64 1174.38,-481.18"/>
</a>
</g>
</g>
<!-- 41 -->
<g id="node24" class="node">
<title>41</title>
<g id="a_node24"><a xlink:title="9.95 KiB">
<ellipse fill="#862203" stroke="#ffffff" stroke-width="1.2" stroke-opacity="0.623529" cx="1317" cy="-461.14" rx="19.53" ry="19.53"/>
<text xml:space="preserve" text-anchor="middle" x="1317" y="-454.92" font-family="monospace" font-size="18.00" fill="#ffffff">rust_decimal</text>
</a>
</g>
</g>
<!-- 0&#45;&gt;41 -->
<g id="edge25" class="edge">
<title>0&#45;&gt;41</title>
<g id="a_edge25"><a xlink:title="hyperfine &#45;&gt; rust_decimal">
<path fill="none" stroke="#ffffff" stroke-width="1.6" stroke-opacity="0.623529" d="M1090.3,-578.39C1100.44,-568.83 1111.65,-559.28 1123,-551.52 1130.37,-546.49 1236.35,-498.48 1288.48,-474.98"/>
<polygon fill="none" stroke="#ffffff" stroke-width="1.6" stroke-opacity="0.623529" points="1289.72,-478.26 1297.4,-470.96 1286.84,-471.88 1289.72,-478.26"/>
</a>
</g>
</g>
<!-- 45 -->
<g id="node26" class="node">
<title>45</title>
<g id="a_node26"><a xlink:title="3.04 KiB">
<ellipse fill="#731f03" stroke="#ffffff" stroke-width="1.2" stroke-opacity="0.623529" cx="992" cy="-461.14" rx="8.83" ry="8.83"/>
<text xml:space="preserve" text-anchor="middle" x="992" y="-454.92" font-family="monospace" font-size="18.00" fill="#ffffff">serde_json</text>
</a>
</g>
</g>
<!-- 0&#45;&gt;45 -->
<g id="edge27" class="edge">
<title>0&#45;&gt;45</title>
<g id="a_edge27"><a xlink:title="hyperfine &#45;&gt; serde_json">
<path fill="none" stroke="#ffffff" stroke-width="1.6" stroke-opacity="0.623529" d="M1028.74,-565.78C1018.19,-536.01 1005.98,-501.59 998.64,-480.86"/>
<polygon fill="none" stroke="#ffffff" stroke-width="1.6" stroke-opacity="0.623529" points="1001.94,-479.7 995.3,-471.44 995.34,-482.04 1001.94,-479.7"/>
</a>
</g>
</g>
<!-- 46 -->
<g id="node27" class="node">
<title>46</title>
<g id="a_node27"><a xlink:title="2.59 KiB">
<ellipse fill="#601c03" stroke="#ffffff" stroke-width="1.2" stroke-opacity="0.623529" cx="1487" cy="-461.14" rx="7.8" ry="7.8"/>
<text xml:space="preserve" text-anchor="middle" x="1487" y="-454.92" font-family="monospace" font-size="18.00" fill="#ffffff">shell_words</text>
</a>
</g>
</g>
<!-- 0&#45;&gt;46 -->
<g id="edge30" class="edge">
<title>0&#45;&gt;46</title>
<g id="a_edge30"><a xlink:title="hyperfine &#45;&gt; shell_words">
<path fill="none" stroke="#ffffff" stroke-width="1.6" stroke-opacity="0.623529" d="M1088.19,-576.91C1098.58,-567.18 1110.44,-557.93 1123,-551.52 1236.4,-493.71 1283.84,-540.54 1405,-501.52 1428.72,-493.88 1454.35,-480.7 1470.52,-471.71"/>
<polygon fill="none" stroke="#ffffff" stroke-width="1.6" stroke-opacity="0.623529" points="1471.81,-475.01 1478.76,-467.01 1468.34,-468.93 1471.81,-475.01"/>
</a>
</g>
</g>
<!-- 47 -->
<g id="node28" class="node">
<title>47</title>
<g id="a_node28"><a xlink:title="1022 B">
<ellipse fill="#a62304" stroke="#ffffff" stroke-width="1.2" stroke-opacity="0.623529" cx="1652" cy="-461.14" rx="3.48" ry="3.48"/>
<text xml:space="preserve" text-anchor="middle" x="1652" y="-454.92" font-family="monospace" font-size="18.00" fill="#ffffff">statistical</text>
</a>
</g>
</g>
<!-- 0&#45;&gt;47 -->
<g id="edge31" class="edge">
<title>0&#45;&gt;47</title>
<g id="a_edge31"><a xlink:title="hyperfine &#45;&gt; statistical">
<path fill="none" stroke="#ffffff" stroke-width="1.6" stroke-opacity="0.623529" d="M1087.91,-576.33C1098.31,-566.62 1110.24,-557.52 1123,-551.52 1303.5,-466.64 1377.16,-556.13 1569,-501.52 1595.34,-494.02 1623.68,-478.87 1639.5,-469.7"/>
<polygon fill="none" stroke="#ffffff" stroke-width="1.6" stroke-opacity="0.623529" points="1640.94,-472.91 1647.72,-464.77 1637.34,-466.91 1640.94,-472.91"/>
</a>
</g>
</g>
<!-- 3 -->
<g id="node4" class="node">
<title>3</title>
<g id="a_node4"><a xlink:title="237.25 KiB">
<ellipse fill="#e94347" stroke="#ffffff" stroke-width="1.2" stroke-opacity="0.623529" cx="235" cy="-306.67" rx="64.09" ry="64.09"/>
<text xml:space="preserve" text-anchor="middle" x="235" y="-300.44" font-family="monospace" font-size="18.00" fill="#ffffff">clap_builder</text>
</a>
</g>
</g>
<!-- 2&#45;&gt;3 -->
<g id="edge3" class="edge">
<title>2&#45;&gt;3</title>
<g id="a_edge3"><a xlink:title="clap &#45;&gt; clap_builder">
<path fill="none" stroke="#ffffff" stroke-width="1.6" stroke-opacity="0.623529" d="M609.94,-460.07C608.7,-458.52 588.6,-433.56 567,-420.76 522.58,-394.44 391.31,-353.36 307.76,-328.63"/>
<polygon fill="none" stroke="#ffffff" stroke-width="1.6" stroke-opacity="0.623529" points="308.95,-325.33 298.37,-325.86 306.97,-332.04 308.95,-325.33"/>
</a>
</g>
</g>
<!-- 4 -->
<g id="node5" class="node">
<title>4</title>
<g id="a_node5"><a xlink:title="2.58 KiB">
<ellipse fill="#671d03" stroke="#ffffff" stroke-width="1.2" stroke-opacity="0.623529" cx="53" cy="-176.04" rx="7.79" ry="7.79"/>
<text xml:space="preserve" text-anchor="middle" x="53" y="-169.81" font-family="monospace" font-size="18.00" fill="#ffffff">anstream</text>
</a>
</g>
</g>
<!-- 3&#45;&gt;4 -->
<g id="edge4" class="edge">
<title>3&#45;&gt;4</title>
<g id="a_edge4"><a xlink:title="clap_builder &#45;&gt; anstream">
<path fill="none" stroke="#ffffff" stroke-width="1.6" stroke-opacity="0.623529" d="M183.33,-269.15C144.5,-241.71 93.84,-205.9 68.65,-188.09"/>
<polygon fill="none" stroke="#ffffff" stroke-width="1.6" stroke-opacity="0.623529" points="70.91,-185.4 60.72,-182.49 66.86,-191.12 70.91,-185.4"/>
</a>
</g>
</g>
<!-- 5 -->
<g id="node6" class="node">
<title>5</title>
<g id="a_node6"><a xlink:title="1.59 KiB">
<ellipse fill="#551a02" stroke="#ffffff" stroke-width="1.2" stroke-opacity="0.623529" cx="99" cy="-94.62" rx="5.24" ry="5.24"/>
<text xml:space="preserve" text-anchor="middle" x="99" y="-88.4" font-family="monospace" font-size="18.00" fill="#ffffff">anstyle</text>
</a>
</g>
</g>
<!-- 3&#45;&gt;5 -->
<g id="edge6" class="edge">
<title>3&#45;&gt;5</title>
<g id="a_edge6"><a xlink:title="clap_builder &#45;&gt; anstyle">
<path fill="none" stroke="#ffffff" stroke-width="1.6" stroke-opacity="0.623529" d="M200.68,-252.66C169.7,-204.82 126.25,-137.72 107.82,-109.25"/>
<polygon fill="none" stroke="#ffffff" stroke-width="1.6" stroke-opacity="0.623529" points="110.78,-107.39 102.41,-100.89 104.91,-111.19 110.78,-107.39"/>
</a>
</g>
</g>
<!-- 11 -->
<g id="node7" class="node">
<title>11</title>
<g id="a_node7"><a xlink:title="716 B">
<ellipse fill="#451602" stroke="#ffffff" stroke-width="1.2" stroke-opacity="0.623529" cx="235" cy="-176.04" rx="2.52" ry="2.52"/>
<text xml:space="preserve" text-anchor="middle" x="235" y="-169.81" font-family="monospace" font-size="18.00" fill="#ffffff">clap_lex</text>
</a>
</g>
</g>
<!-- 3&#45;&gt;11 -->
<g id="edge7" class="edge">
<title>3&#45;&gt;11</title>
<g id="a_edge7"><a xlink:title="clap_builder &#45;&gt; clap_lex">
<path fill="none" stroke="#ffffff" stroke-width="1.6" stroke-opacity="0.623529" d="M235,-242.86C235,-223.22 235,-203.39 235,-190.7"/>
<polygon fill="none" stroke="#ffffff" stroke-width="1.6" stroke-opacity="0.623529" points="238.5,-190.95 235,-180.95 231.5,-190.95 238.5,-190.95"/>
</a>
</g>
</g>
<!-- 12 -->
<g id="node8" class="node">
<title>12</title>
<g id="a_node8"><a xlink:title="2.92 KiB">
<ellipse fill="#631d03" stroke="#ffffff" stroke-width="1.2" stroke-opacity="0.623529" cx="355" cy="-176.04" rx="8.57" ry="8.57"/>
<text xml:space="preserve" text-anchor="middle" x="355" y="-169.81" font-family="monospace" font-size="18.00" fill="#ffffff">strsim</text>
</a>
</g>
</g>
<!-- 3&#45;&gt;12 -->
<g id="edge8" class="edge">
<title>3&#45;&gt;12</title>
<g id="a_edge8"><a xlink:title="clap_builder &#45;&gt; strsim">
<path fill="none" stroke="#ffffff" stroke-width="1.6" stroke-opacity="0.623529" d="M277.98,-259.59C300.27,-235.7 325.97,-208.15 341.33,-191.69"/>
<polygon fill="none" stroke="#ffffff" stroke-width="1.6" stroke-opacity="0.623529" points="343.88,-194.09 348.14,-184.39 338.76,-189.31 343.88,-194.09"/>
</a>
</g>
</g>
<!-- 4&#45;&gt;5 -->
<g id="edge5" class="edge">
<title>4&#45;&gt;5</title>
<g id="a_edge5"><a xlink:title="anstream &#45;&gt; anstyle">
<path fill="none" stroke="#ffffff" stroke-width="1.6" stroke-opacity="0.623529" d="M56.46,-169.07C63.69,-156.59 80.57,-127.45 90.76,-109.85"/>
<polygon fill="none" stroke="#ffffff" stroke-width="1.6" stroke-opacity="0.623529" points="93.67,-111.81 95.66,-101.4 87.61,-108.3 93.67,-111.81"/>
</a>
</g>
</g>
<!-- 20 -->
<g id="node11" class="node">
<title>20</title>
<g id="a_node11"><a xlink:title="1.53 KiB">
<ellipse fill="#5f1c03" stroke="#ffffff" stroke-width="1.2" stroke-opacity="0.623529" cx="1129" cy="-306.67" rx="5.07" ry="5.07"/>
<text xml:space="preserve" text-anchor="middle" x="1129" y="-300.44" font-family="monospace" font-size="18.00" fill="#ffffff">csv_core</text>
</a>
</g>
</g>
<!-- 19&#45;&gt;20 -->
<g id="edge11" class="edge">
<title>19&#45;&gt;20</title>
<g id="a_edge11"><a xlink:title="csv &#45;&gt; csv_core">
<path fill="none" stroke="#ffffff" stroke-width="1.6" stroke-opacity="0.623529" d="M1107.65,-449.18C1111.67,-422.53 1121.96,-354.32 1126.63,-323.37"/>
<polygon fill="none" stroke="#ffffff" stroke-width="1.6" stroke-opacity="0.623529" points="1130.03,-324.31 1128.06,-313.9 1123.11,-323.27 1130.03,-324.31"/>
</a>
</g>
</g>
<!-- 23 -->
<g id="node13" class="node">
<title>23</title>
<g id="a_node13"><a xlink:title="2.69 KiB">
<ellipse fill="#611c03" stroke="#ffffff" stroke-width="1.2" stroke-opacity="0.623529" cx="1026" cy="-306.67" rx="8.03" ry="8.03"/>
<text xml:space="preserve" text-anchor="middle" x="1026" y="-300.44" font-family="monospace" font-size="18.00" fill="#ffffff">ryu</text>
</a>
</g>
</g>
<!-- 19&#45;&gt;23 -->
<g id="edge13" class="edge">
<title>19&#45;&gt;23</title>
<g id="a_edge13"><a xlink:title="csv &#45;&gt; ryu">
<path fill="none" stroke="#ffffff" stroke-width="1.6" stroke-opacity="0.623529" d="M1100.75,-450.14C1087.31,-424.52 1051.54,-356.34 1034.83,-324.49"/>
<polygon fill="none" stroke="#ffffff" stroke-width="1.6" stroke-opacity="0.623529" points="1038.15,-323.29 1030.4,-316.06 1031.95,-326.54 1038.15,-323.29"/>
</a>
</g>
</g>
<!-- 21 -->
<g id="node12" class="node">
<title>21</title>
<g id="a_node12"><a xlink:title="1.93 KiB">
<ellipse fill="#591b03" stroke="#ffffff" stroke-width="1.2" stroke-opacity="0.623529" cx="1046" cy="-176.04" rx="6.17" ry="6.17"/>
<text xml:space="preserve" text-anchor="middle" x="1046" y="-169.81" font-family="monospace" font-size="18.00" fill="#ffffff">memchr</text>
</a>
</g>
</g>
<!-- 20&#45;&gt;21 -->
<g id="edge12" class="edge">
<title>20&#45;&gt;21</title>
<g id="a_edge12"><a xlink:title="csv_core &#45;&gt; memchr">
<path fill="none" stroke="#ffffff" stroke-width="1.6" stroke-opacity="0.623529" d="M1126.78,-302.23C1116.63,-286.5 1074.32,-220.92 1055.31,-191.47"/>
<polygon fill="none" stroke="#ffffff" stroke-width="1.6" stroke-opacity="0.623529" points="1058.26,-189.59 1049.9,-183.08 1052.38,-193.38 1058.26,-189.59"/>
</a>
</g>
</g>
<!-- 26 -->
<g id="node15" class="node">
<title>26</title>
<g id="a_node15"><a xlink:title="16.87 KiB">
<ellipse fill="#9b2303" stroke="#ffffff" stroke-width="1.2" stroke-opacity="0.623529" cx="503" cy="-306.67" rx="25.83" ry="25.83"/>
<text xml:space="preserve" text-anchor="middle" x="503" y="-300.44" font-family="monospace" font-size="18.00" fill="#ffffff">console</text>
</a>
</g>
</g>
<!-- 25&#45;&gt;26 -->
<g id="edge15" class="edge">
<title>25&#45;&gt;26</title>
<g id="a_edge15"><a xlink:title="indicatif &#45;&gt; console">
<path fill="none" stroke="#ffffff" stroke-width="1.6" stroke-opacity="0.623529" d="M810.61,-439.16C799.03,-432.56 785.75,-425.71 773,-420.76 683.55,-386.06 646.16,-418.61 563,-370.76 548.42,-362.37 535.18,-349.36 524.87,-337.32"/>
<polygon fill="none" stroke="#ffffff" stroke-width="1.6" stroke-opacity="0.623529" points="527.82,-335.41 518.79,-329.87 522.4,-339.83 527.82,-335.41"/>
</a>
</g>
</g>
<!-- 30 -->
<g id="node18" class="node">
<title>30</title>
<g id="a_node18"><a xlink:title="135 B">
<ellipse fill="#2f0f01" stroke="#ffffff" stroke-width="1.2" stroke-opacity="0.623529" cx="657" cy="-306.67" rx="0.51" ry="0.51"/>
<text xml:space="preserve" text-anchor="middle" x="657" y="-300.44" font-family="monospace" font-size="18.00" fill="#ffffff">number_prefix</text>
</a>
</g>
</g>
<!-- 25&#45;&gt;30 -->
<g id="edge18" class="edge">
<title>25&#45;&gt;30</title>
<g id="a_edge18"><a xlink:title="indicatif &#45;&gt; number_prefix">
<path fill="none" stroke="#ffffff" stroke-width="1.6" stroke-opacity="0.623529" d="M813.54,-435.3C770.34,-400.08 693.55,-337.47 666.64,-315.53"/>
<polygon fill="none" stroke="#ffffff" stroke-width="1.6" stroke-opacity="0.623529" points="668.91,-312.87 658.95,-309.26 664.49,-318.29 668.91,-312.87"/>
</a>
</g>
</g>
<!-- 32 -->
<g id="node19" class="node">
<title>32</title>
<g id="a_node19"><a xlink:title="850 B">
<ellipse fill="#481602" stroke="#ffffff" stroke-width="1.2" stroke-opacity="0.623529" cx="844" cy="-306.67" rx="2.95" ry="2.95"/>
<text xml:space="preserve" text-anchor="middle" x="844" y="-300.44" font-family="monospace" font-size="18.00" fill="#ffffff">unicode_width</text>
</a>
</g>
</g>
<!-- 25&#45;&gt;32 -->
<g id="edge19" class="edge">
<title>25&#45;&gt;32</title>
<g id="a_edge19"><a xlink:title="indicatif &#45;&gt; unicode_width">
<path fill="none" stroke="#ffffff" stroke-width="1.6" stroke-opacity="0.623529" d="M844,-420.88C844,-388.41 844,-344.14 844,-321.8"/>
<polygon fill="none" stroke="#ffffff" stroke-width="1.6" stroke-opacity="0.623529" points="847.5,-321.81 844,-311.81 840.5,-321.81 847.5,-321.81"/>
</a>
</g>
</g>
<!-- 28 -->
<g id="node16" class="node">
<title>28</title>
<g id="a_node16"><a xlink:title="968 B">
<ellipse fill="#4a1702" stroke="#ffffff" stroke-width="1.2" stroke-opacity="0.623529" cx="668" cy="-176.04" rx="3.32" ry="3.32"/>
<text xml:space="preserve" text-anchor="middle" x="668" y="-169.81" font-family="monospace" font-size="18.00" fill="#ffffff">once_cell</text>
</a>
</g>
</g>
<!-- 26&#45;&gt;28 -->
<g id="edge16" class="edge">
<title>26&#45;&gt;28</title>
<g id="a_edge16"><a xlink:title="console &#45;&gt; once_cell">
<path fill="none" stroke="#ffffff" stroke-width="1.6" stroke-opacity="0.623529" d="M518.94,-286.5C530.43,-273.31 546.72,-255.85 563,-242.57 593.43,-217.75 633.92,-194.97 654.6,-183.97"/>
<polygon fill="none" stroke="#ffffff" stroke-width="1.6" stroke-opacity="0.623529" points="656.16,-187.1 663.41,-179.38 652.93,-180.89 656.16,-187.1"/>
</a>
</g>
</g>
<!-- 29 -->
<g id="node17" class="node">
<title>29</title>
<g id="a_node17"><a xlink:title="850 B">
<ellipse fill="#481602" stroke="#ffffff" stroke-width="1.2" stroke-opacity="0.623529" cx="503" cy="-176.04" rx="2.95" ry="2.95"/>
<text xml:space="preserve" text-anchor="middle" x="503" y="-169.81" font-family="monospace" font-size="18.00" fill="#ffffff">unicode_width</text>
</a>
</g>
</g>
<!-- 26&#45;&gt;29 -->
<g id="edge17" class="edge">
<title>26&#45;&gt;29</title>
<g id="a_edge17"><a xlink:title="console &#45;&gt; unicode_width">
<path fill="none" stroke="#ffffff" stroke-width="1.6" stroke-opacity="0.623529" d="M503,-280.87C503,-254.14 503,-212.54 503,-191.01"/>
<polygon fill="none" stroke="#ffffff" stroke-width="1.6" stroke-opacity="0.623529" points="506.5,-191.13 503,-181.13 499.5,-191.13 506.5,-191.13"/>
</a>
</g>
</g>
<!-- 36 -->
<g id="node21" class="node">
<title>36</title>
<g id="a_node21"><a xlink:title="7.52 KiB">
<ellipse fill="#862203" stroke="#ffffff" stroke-width="1.2" stroke-opacity="0.623529" cx="1277" cy="-306.67" rx="16.54" ry="16.54"/>
<text xml:space="preserve" text-anchor="middle" x="1277" y="-300.44" font-family="monospace" font-size="18.00" fill="#ffffff">rand_chacha</text>
</a>
</g>
</g>
<!-- 35&#45;&gt;36 -->
<g id="edge21" class="edge">
<title>35&#45;&gt;36</title>
<g id="a_edge21"><a xlink:title="rand &#45;&gt; rand_chacha">
<path fill="none" stroke="#ffffff" stroke-width="1.6" stroke-opacity="0.623529" d="M1190.89,-451.94C1204.29,-429.49 1241.97,-366.36 1262.77,-331.52"/>
<polygon fill="none" stroke="#ffffff" stroke-width="1.6" stroke-opacity="0.623529" points="1265.75,-333.34 1267.87,-322.96 1259.74,-329.75 1265.75,-333.34"/>
</a>
</g>
</g>
<!-- 39 -->
<g id="node22" class="node">
<title>39</title>
<g id="a_node22"><a xlink:title="2.00 KiB">
<ellipse fill="#701f03" stroke="#ffffff" stroke-width="1.2" stroke-opacity="0.623529" cx="1278" cy="-176.04" rx="6.35" ry="6.35"/>
<text xml:space="preserve" text-anchor="middle" x="1278" y="-169.81" font-family="monospace" font-size="18.00" fill="#ffffff">rand_core</text>
</a>
</g>
</g>
<!-- 35&#45;&gt;39 -->
<g id="edge24" class="edge">
<title>35&#45;&gt;39</title>
<g id="a_edge24"><a xlink:title="rand &#45;&gt; rand_core">
<path fill="none" stroke="#ffffff" stroke-width="1.6" stroke-opacity="0.623529" d="M1192.34,-452.86C1200.21,-444.21 1214.37,-429.82 1229,-420.76 1281.63,-388.18 1323.95,-421.79 1359,-370.76 1391.25,-323.8 1383.54,-293.99 1359,-242.57 1345.64,-214.58 1313.85,-194.69 1294.3,-184.6"/>
<polygon fill="none" stroke="#ffffff" stroke-width="1.6" stroke-opacity="0.623529" points="1296.03,-181.55 1285.5,-180.36 1292.99,-187.85 1296.03,-181.55"/>
</a>
</g>
</g>
<!-- 36&#45;&gt;39 -->
<g id="edge22" class="edge">
<title>36&#45;&gt;39</title>
<g id="a_edge22"><a xlink:title="rand_chacha &#45;&gt; rand_core">
<path fill="none" stroke="#ffffff" stroke-width="1.6" stroke-opacity="0.623529" d="M1277.12,-290.15C1277.31,-266.02 1277.67,-219.66 1277.86,-194.43"/>
<polygon fill="none" stroke="#ffffff" stroke-width="1.6" stroke-opacity="0.623529" points="1281.36,-194.79 1277.94,-184.77 1274.36,-194.74 1281.36,-194.79"/>
</a>
</g>
</g>
<!-- 40 -->
<g id="node23" class="node">
<title>40</title>
<g id="a_node23"><a xlink:title="2.82 KiB">
<ellipse fill="#621d03" stroke="#ffffff" stroke-width="1.2" stroke-opacity="0.623529" cx="1278" cy="-94.62" rx="8.35" ry="8.35"/>
<text xml:space="preserve" text-anchor="middle" x="1278" y="-88.4" font-family="monospace" font-size="18.00" fill="#ffffff">getrandom</text>
</a>
</g>
</g>
<!-- 39&#45;&gt;40 -->
<g id="edge23" class="edge">
<title>39&#45;&gt;40</title>
<g id="a_edge23"><a xlink:title="rand_core &#45;&gt; getrandom">
<path fill="none" stroke="#ffffff" stroke-width="1.6" stroke-opacity="0.623529" d="M1278,-169.83C1278,-158.88 1278,-133.02 1278,-114.92"/>
<polygon fill="none" stroke="#ffffff" stroke-width="1.6" stroke-opacity="0.623529" points="1281.5,-115.16 1278,-105.16 1274.5,-115.16 1281.5,-115.16"/>
</a>
</g>
</g>
<!-- 42 -->
<g id="node25" class="node">
<title>42</title>
<g id="a_node25"><a xlink:title="99 B">
<ellipse fill="#2c0e01" stroke="#ffffff" stroke-width="1.2" stroke-opacity="0.623529" cx="1476" cy="-306.67" rx="0.37" ry="0.37"/>
<text xml:space="preserve" text-anchor="middle" x="1476" y="-300.44" font-family="monospace" font-size="18.00" fill="#ffffff">arrayvec</text>
</a>
</g>
</g>
<!-- 41&#45;&gt;42 -->
<g id="edge26" class="edge">
<title>41&#45;&gt;42</title>
<g id="a_edge26"><a xlink:title="rust_decimal &#45;&gt; arrayvec">
<path fill="none" stroke="#ffffff" stroke-width="1.6" stroke-opacity="0.623529" d="M1330.56,-447.14C1362.34,-416.66 1440.98,-341.25 1467.28,-316.03"/>
<polygon fill="none" stroke="#ffffff" stroke-width="1.6" stroke-opacity="0.623529" points="1469.38,-318.87 1474.17,-309.42 1464.53,-313.81 1469.38,-318.87"/>
</a>
</g>
</g>
<!-- 45&#45;&gt;21 -->
<g id="edge28" class="edge">
<title>45&#45;&gt;21</title>
<g id="a_edge28"><a xlink:title="serde_json &#45;&gt; memchr">
<path fill="none" stroke="#ffffff" stroke-width="1.6" stroke-opacity="0.623529" d="M990.01,-452.68C982.82,-424.19 960.02,-320.06 989,-242.57 997.59,-219.61 1018.25,-199.39 1032.19,-187.68"/>
<polygon fill="none" stroke="#ffffff" stroke-width="1.6" stroke-opacity="0.623529" points="1034.02,-190.7 1039.68,-181.74 1029.67,-185.22 1034.02,-190.7"/>
</a>
</g>
</g>
<!-- 45&#45;&gt;23 -->
<g id="edge29" class="edge">
<title>45&#45;&gt;23</title>
<g id="a_edge29"><a xlink:title="serde_json &#45;&gt; ryu">
<path fill="none" stroke="#ffffff" stroke-width="1.6" stroke-opacity="0.623529" d="M993.64,-452.79C998.72,-429.99 1014.33,-360.01 1021.85,-326.26"/>
<polygon fill="none" stroke="#ffffff" stroke-width="1.6" stroke-opacity="0.623529" points="1025.24,-327.14 1024,-316.62 1018.41,-325.61 1025.24,-327.14"/>
</a>
</g>
</g>
<!-- 54 -->
<g id="node29" class="node">
<title>54</title>
<g id="a_node29"><a xlink:title="3.83 KiB">
<ellipse fill="#a42304" stroke="#ffffff" stroke-width="1.2" stroke-opacity="0.623529" cx="1652" cy="-306.67" rx="10.51" ry="10.51"/>
<text xml:space="preserve" text-anchor="middle" x="1652" y="-300.44" font-family="monospace" font-size="18.00" fill="#ffffff">rand</text>
</a>
</g>
</g>
<!-- 47&#45;&gt;54 -->
<g id="edge32" class="edge">
<title>47&#45;&gt;54</title>
<g id="a_edge32"><a xlink:title="statistical &#45;&gt; rand">
<path fill="none" stroke="#ffffff" stroke-width="1.6" stroke-opacity="0.623529" d="M1652,-457.99C1652,-444.15 1652,-367.24 1652,-329.11"/>
<polygon fill="none" stroke="#ffffff" stroke-width="1.6" stroke-opacity="0.623529" points="1655.5,-329.22 1652,-319.22 1648.5,-329.22 1655.5,-329.22"/>
</a>
</g>
</g>
<!-- 55 -->
<g id="node30" class="node">
<title>55</title>
<g id="a_node30"><a xlink:title="7.52 KiB">
<ellipse fill="#7f2103" stroke="#ffffff" stroke-width="1.2" stroke-opacity="0.623529" cx="1651" cy="-176.04" rx="16.54" ry="16.54"/>
<text xml:space="preserve" text-anchor="middle" x="1651" y="-169.81" font-family="monospace" font-size="18.00" fill="#ffffff">rand_chacha</text>
</a>
</g>
</g>
<!-- 54&#45;&gt;55 -->
<g id="edge33" class="edge">
<title>54&#45;&gt;55</title>
<g id="a_edge33"><a xlink:title="rand &#45;&gt; rand_chacha">
<path fill="none" stroke="#ffffff" stroke-width="1.6" stroke-opacity="0.623529" d="M1651.93,-296.42C1651.78,-277.43 1651.44,-233.43 1651.21,-204.48"/>
<polygon fill="none" stroke="#ffffff" stroke-width="1.6" stroke-opacity="0.623529" points="1654.72,-204.78 1651.14,-194.81 1647.72,-204.83 1654.72,-204.78"/>
</a>
</g>
</g>
<!-- 57 -->
<g id="node32" class="node">
<title>57</title>
<g id="a_node32"><a xlink:title="2.00 KiB">
<ellipse fill="#5a1b03" stroke="#ffffff" stroke-width="1.2" stroke-opacity="0.623529" cx="1702" cy="-14.88" rx="6.35" ry="6.35"/>
<text xml:space="preserve" text-anchor="middle" x="1702" y="-8.65" font-family="monospace" font-size="18.00" fill="#ffffff">rand_core</text>
</a>
</g>
</g>
<!-- 54&#45;&gt;57 -->
<g id="edge36" class="edge">
<title>54&#45;&gt;57</title>
<g id="a_edge36"><a xlink:title="rand &#45;&gt; rand_core">
<path fill="none" stroke="#ffffff" stroke-width="1.6" stroke-opacity="0.623529" d="M1662.18,-305.22C1730.64,-301.97 2123.21,-279.66 2194,-192.57 2325.77,-30.47 1822.82,-17.02 1720.03,-15.96"/>
<polygon fill="none" stroke="#ffffff" stroke-width="1.6" stroke-opacity="0.623529" points="1720.33,-12.46 1710.31,-15.89 1720.28,-19.46 1720.33,-12.46"/>
</a>
</g>
</g>
<!-- 58 -->
<g id="node33" class="node">
<title>58</title>
<g id="a_node33"><a xlink:title="5.68 KiB">
<ellipse fill="#782003" stroke="#ffffff" stroke-width="1.2" stroke-opacity="0.623529" cx="1793" cy="-176.04" rx="13.82" ry="13.82"/>
<text xml:space="preserve" text-anchor="middle" x="1793" y="-169.81" font-family="monospace" font-size="18.00" fill="#ffffff">rand_hc</text>
</a>
</g>
</g>
<!-- 54&#45;&gt;58 -->
<g id="edge37" class="edge">
<title>54&#45;&gt;58</title>
<g id="a_edge37"><a xlink:title="rand &#45;&gt; rand_hc">
<path fill="none" stroke="#ffffff" stroke-width="1.6" stroke-opacity="0.623529" d="M1659.19,-299.11C1680.35,-279.8 1742.95,-222.69 1774.45,-193.95"/>
<polygon fill="none" stroke="#ffffff" stroke-width="1.6" stroke-opacity="0.623529" points="1776.68,-196.66 1781.71,-187.34 1771.96,-191.49 1776.68,-196.66"/>
</a>
</g>
</g>
<!-- 59 -->
<g id="node34" class="node">
<title>59</title>
<g id="a_node34"><a xlink:title="0 B">
<ellipse fill="#421502" stroke="#ffffff" stroke-width="1.2" stroke-opacity="0.623529" cx="1930" cy="-176.04" rx="0.36" ry="0.36"/>
<text xml:space="preserve" text-anchor="middle" x="1930" y="-169.81" font-family="monospace" font-size="18.00" fill="#ffffff">rand_isaac</text>
</a>
</g>
</g>
<!-- 54&#45;&gt;59 -->
<g id="edge39" class="edge">
<title>54&#45;&gt;59</title>
<g id="a_edge39"><a xlink:title="rand &#45;&gt; rand_isaac">
<path fill="none" stroke="#ffffff" stroke-width="1.6" stroke-opacity="0.623529" d="M1660.93,-301.53C1702.01,-282.53 1872.68,-203.56 1918.59,-182.32"/>
<polygon fill="none" stroke="#ffffff" stroke-width="1.6" stroke-opacity="0.623529" points="1920.04,-185.5 1927.64,-178.13 1917.1,-179.15 1920.04,-185.5"/>
</a>
</g>
</g>
<!-- 60 -->
<g id="node35" class="node">
<title>60</title>
<g id="a_node35"><a xlink:title="1.42 KiB">
<ellipse fill="#581a03" stroke="#ffffff" stroke-width="1.2" stroke-opacity="0.623529" cx="1435" cy="-94.62" rx="4.75" ry="4.75"/>
<text xml:space="preserve" text-anchor="middle" x="1435" y="-88.4" font-family="monospace" font-size="18.00" fill="#ffffff">rand_jitter</text>
</a>
</g>
</g>
<!-- 54&#45;&gt;60 -->
<g id="edge41" class="edge">
<title>54&#45;&gt;60</title>
<g id="a_edge41"><a xlink:title="rand &#45;&gt; rand_jitter">
<path fill="none" stroke="#ffffff" stroke-width="1.6" stroke-opacity="0.623529" d="M1645.27,-299.15C1614.34,-269.21 1485.72,-144.71 1446.44,-106.7"/>
<polygon fill="none" stroke="#ffffff" stroke-width="1.6" stroke-opacity="0.623529" points="1449.1,-104.4 1439.48,-99.96 1444.23,-109.43 1449.1,-104.4"/>
</a>
</g>
</g>
<!-- 61 -->
<g id="node36" class="node">
<title>61</title>
<g id="a_node36"><a xlink:title="2.22 KiB">
<ellipse fill="#601c03" stroke="#ffffff" stroke-width="1.2" stroke-opacity="0.623529" cx="1577" cy="-94.62" rx="6.91" ry="6.91"/>
<text xml:space="preserve" text-anchor="middle" x="1577" y="-88.4" font-family="monospace" font-size="18.00" fill="#ffffff">rand_os</text>
</a>
</g>
</g>
<!-- 54&#45;&gt;61 -->
<g id="edge43" class="edge">
<title>54&#45;&gt;61</title>
<g id="a_edge43"><a xlink:title="rand &#45;&gt; rand_os">
<path fill="none" stroke="#ffffff" stroke-width="1.6" stroke-opacity="0.623529" d="M1644.18,-299.91C1624.53,-284.91 1573.41,-242.3 1555,-192.57 1544.73,-164.82 1558.08,-130.76 1568.02,-111.29"/>
<polygon fill="none" stroke="#ffffff" stroke-width="1.6" stroke-opacity="0.623529" points="1570.98,-113.17 1572.74,-102.72 1564.85,-109.79 1570.98,-113.17"/>
</a>
</g>
</g>
<!-- 62 -->
<g id="node37" class="node">
<title>62</title>
<g id="a_node37"><a xlink:title="0 B">
<ellipse fill="#3c1302" stroke="#ffffff" stroke-width="1.2" stroke-opacity="0.623529" cx="1702" cy="-94.62" rx="0.36" ry="0.36"/>
<text xml:space="preserve" text-anchor="middle" x="1702" y="-88.4" font-family="monospace" font-size="18.00" fill="#ffffff">rand_pcg</text>
</a>
</g>
</g>
<!-- 54&#45;&gt;62 -->
<g id="edge45" class="edge">
<title>54&#45;&gt;62</title>
<g id="a_edge45"><a xlink:title="rand &#45;&gt; rand_pcg">
<path fill="none" stroke="#ffffff" stroke-width="1.6" stroke-opacity="0.623529" d="M1644.1,-299.98C1617.6,-280.23 1535.44,-212.85 1569,-159.5 1596.39,-115.96 1662.65,-101.42 1689.94,-97.18"/>
<polygon fill="none" stroke="#ffffff" stroke-width="1.6" stroke-opacity="0.623529" points="1690.06,-100.69 1699.53,-95.94 1689.16,-93.75 1690.06,-100.69"/>
</a>
</g>
</g>
<!-- 63 -->
<g id="node38" class="node">
<title>63</title>
<g id="a_node38"><a xlink:title="0 B">
<ellipse fill="#421502" stroke="#ffffff" stroke-width="1.2" stroke-opacity="0.623529" cx="2100" cy="-176.04" rx="0.36" ry="0.36"/>
<text xml:space="preserve" text-anchor="middle" x="2100" y="-169.81" font-family="monospace" font-size="18.00" fill="#ffffff">rand_xorshift</text>
</a>
</g>
</g>
<!-- 54&#45;&gt;63 -->
<g id="edge47" class="edge">
<title>54&#45;&gt;63</title>
<g id="a_edge47"><a xlink:title="rand &#45;&gt; rand_xorshift">
<path fill="none" stroke="#ffffff" stroke-width="1.6" stroke-opacity="0.623529" d="M1661.77,-302.86C1720.3,-286.06 2024,-198.86 2088.11,-180.45"/>
<polygon fill="none" stroke="#ffffff" stroke-width="1.6" stroke-opacity="0.623529" points="2088.96,-183.85 2097.6,-177.72 2087.03,-177.12 2088.96,-183.85"/>
</a>
</g>
</g>
<!-- 56 -->
<g id="node31" class="node">
<title>56</title>
<g id="a_node31"><a xlink:title="2.00 KiB">
<ellipse fill="#5e1c03" stroke="#ffffff" stroke-width="1.2" stroke-opacity="0.623529" cx="1839" cy="-94.62" rx="6.35" ry="6.35"/>
<text xml:space="preserve" text-anchor="middle" x="1839" y="-88.4" font-family="monospace" font-size="18.00" fill="#ffffff">rand_core</text>
</a>
</g>
</g>
<!-- 55&#45;&gt;56 -->
<g id="edge34" class="edge">
<title>55&#45;&gt;56</title>
<g id="a_edge34"><a xlink:title="rand_chacha &#45;&gt; rand_core">
<path fill="none" stroke="#ffffff" stroke-width="1.6" stroke-opacity="0.623529" d="M1665.75,-168.8C1700.29,-154.22 1786.22,-117.92 1822.46,-102.61"/>
<polygon fill="none" stroke="#ffffff" stroke-width="1.6" stroke-opacity="0.623529" points="1823.63,-105.92 1831.48,-98.8 1820.9,-99.47 1823.63,-105.92"/>
</a>
</g>
</g>
<!-- 56&#45;&gt;57 -->
<g id="edge35" class="edge">
<title>56&#45;&gt;57</title>
<g id="a_edge35"><a xlink:title="rand_core &#45;&gt; rand_core">
<path fill="none" stroke="#ffffff" stroke-width="1.6" stroke-opacity="0.623529" d="M1834.12,-90.86C1815.52,-80.3 1748.52,-42.28 1717.7,-24.79"/>
<polygon fill="none" stroke="#ffffff" stroke-width="1.6" stroke-opacity="0.623529" points="1719.49,-21.78 1709.07,-19.89 1716.04,-27.87 1719.49,-21.78"/>
</a>
</g>
</g>
<!-- 58&#45;&gt;56 -->
<g id="edge38" class="edge">
<title>58&#45;&gt;56</title>
<g id="a_edge38"><a xlink:title="rand_hc &#45;&gt; rand_core">
<path fill="none" stroke="#ffffff" stroke-width="1.6" stroke-opacity="0.623529" d="M1799.4,-163.99C1807.42,-150.14 1821.21,-126.33 1830.22,-110.78"/>
<polygon fill="none" stroke="#ffffff" stroke-width="1.6" stroke-opacity="0.623529" points="1833.23,-112.57 1835.21,-102.16 1827.17,-109.06 1833.23,-112.57"/>
</a>
</g>
</g>
<!-- 59&#45;&gt;56 -->
<g id="edge40" class="edge">
<title>59&#45;&gt;56</title>
<g id="a_edge40"><a xlink:title="rand_isaac &#45;&gt; rand_core">
<path fill="none" stroke="#ffffff" stroke-width="1.6" stroke-opacity="0.623529" d="M1929.93,-174.98C1927.84,-173.15 1876.57,-128.41 1851.96,-106.93"/>
<polygon fill="none" stroke="#ffffff" stroke-width="1.6" stroke-opacity="0.623529" points="1854.45,-104.47 1844.62,-100.53 1849.85,-109.74 1854.45,-104.47"/>
</a>
</g>
</g>
<!-- 60&#45;&gt;57 -->
<g id="edge42" class="edge">
<title>60&#45;&gt;57</title>
<g id="a_edge42"><a xlink:title="rand_jitter &#45;&gt; rand_core">
<path fill="none" stroke="#ffffff" stroke-width="1.6" stroke-opacity="0.623529" d="M1439.19,-92.4C1467.45,-84.17 1630.57,-36.67 1684.62,-20.94"/>
<polygon fill="none" stroke="#ffffff" stroke-width="1.6" stroke-opacity="0.623529" points="1685.37,-24.36 1693.99,-18.21 1683.41,-17.64 1685.37,-24.36"/>
</a>
</g>
</g>
<!-- 61&#45;&gt;57 -->
<g id="edge44" class="edge">
<title>61&#45;&gt;57</title>
<g id="a_edge44"><a xlink:title="rand_os &#45;&gt; rand_core">
<path fill="none" stroke="#ffffff" stroke-width="1.6" stroke-opacity="0.623529" d="M1582.37,-90.28C1600.36,-79.09 1658.95,-42.65 1686.9,-25.27"/>
<polygon fill="none" stroke="#ffffff" stroke-width="1.6" stroke-opacity="0.623529" points="1688.63,-28.31 1695.27,-20.06 1684.93,-22.37 1688.63,-28.31"/>
</a>
</g>
</g>
<!-- 62&#45;&gt;57 -->
<g id="edge46" class="edge">
<title>62&#45;&gt;57</title>
<g id="a_edge46"><a xlink:title="rand_pcg &#45;&gt; rand_core">
<path fill="none" stroke="#ffffff" stroke-width="1.6" stroke-opacity="0.623529" d="M1702,-93.57C1702,-91.94 1702,-55.35 1702,-32.97"/>
<polygon fill="none" stroke="#ffffff" stroke-width="1.6" stroke-opacity="0.623529" points="1705.5,-33.25 1702,-23.25 1698.5,-33.25 1705.5,-33.25"/>
</a>
</g>
</g>
<!-- 63&#45;&gt;56 -->
<g id="edge48" class="edge">
<title>63&#45;&gt;56</title>
<g id="a_edge48"><a xlink:title="rand_xorshift &#45;&gt; rand_core">
<path fill="none" stroke="#ffffff" stroke-width="1.6" stroke-opacity="0.623529" d="M2099.95,-175.02C2096.57,-173.99 1913.6,-118.32 1856.1,-100.83"/>
<polygon fill="none" stroke="#ffffff" stroke-width="1.6" stroke-opacity="0.623529" points="1857.27,-97.53 1846.69,-97.96 1855.23,-104.22 1857.27,-97.53"/>
</a>
</g>
</g>
<!-- 65 -->
<g id="node39" class="node">
<title>65</title>
<g id="a_node39"><a xlink:title="406.04 KiB">
<ellipse fill="#f46a72" stroke="#ffffff" stroke-width="1.2" stroke-opacity="0.623529" cx="1208" cy="-623.91" rx="72.39" ry="72.39"/>
<text xml:space="preserve" text-anchor="middle" x="1208" y="-617.68" font-family="monospace" font-size="18.00" fill="#ffffff">std</text>
</a>
</g>
</g>
</g>
</svg>
