<?xml version="1.0" encoding="UTF-8" standalone="no"?>
<!DOCTYPE svg PUBLIC "-//W3C//DTD SVG 1.1//EN"
 "http://www.w3.org/Graphics/SVG/1.1/DTD/svg11.dtd">
<!-- Generated by graphviz version 13.1.2 (20250808.2320)
 -->
<!-- Pages: 1 -->
<svg width="1184pt" height="672pt"
 viewBox="0.00 0.00 1184.00 672.00" xmlns="http://www.w3.org/2000/svg" xmlns:xlink="http://www.w3.org/1999/xlink">
<g id="graph0" class="graph" transform="scale(1 1) rotate(0) translate(72 600.4)">
<polygon fill="white" stroke="none" points="-72,72 -72,-600.4 1111.5,-600.4 1111.5,72 -72,72"/>
<!-- 0 -->
<g id="node1" class="node">
<title>0</title>
<g id="a_node1"><a xlink:title="46.53 KiB">
<ellipse fill="#08306b" stroke="#000000" stroke-width="0.9" stroke-opacity="0.623529" cx="487.5" cy="-488.75" rx="39.65" ry="39.65"/>
<text xml:space="preserve" text-anchor="middle" x="487.5" y="-483.5" font-family="monospace" font-size="15.00">pugio</text>
</a>
</g>
</g>
<!-- 1 -->
<g id="node2" class="node">
<title>1</title>
<g id="a_node2"><a xlink:title="7.09 KiB">
<ellipse fill="#a5cce4" stroke="#000000" stroke-width="0.9" stroke-opacity="0.623529" cx="214.5" cy="-373.46" rx="15.94" ry="15.94"/>
<text xml:space="preserve" text-anchor="middle" x="214.5" y="-368.21" font-family="monospace" font-size="15.00">anyhow</text>
</a>
</g>
</g>
<!-- 0&#45;&gt;1 -->
<g id="edge1" class="edge">
<title>0&#45;&gt;1</title>
<g id="a_edge1"><a xlink:title="pugio &#45;&gt; anyhow">
<path fill="none" stroke="#000000" stroke-width="1.2" stroke-opacity="0.623529" d="M450.59,-474.68C405.41,-458.36 326.87,-428.94 261.5,-399.1 253.19,-395.3 244.26,-390.75 236.44,-386.59"/>
<polygon fill="none" stroke="#000000" stroke-width="1.2" stroke-opacity="0.623529" points="237.85,-384.17 229.48,-382.83 235.19,-389.1 237.85,-384.17"/>
</a>
</g>
</g>
<!-- 2 -->
<g id="node3" class="node">
<title>2</title>
<g id="a_node3"><a xlink:title="0 B">
<ellipse fill="#0a488e" stroke="#000000" stroke-width="0.9" stroke-opacity="0.623529" cx="300.5" cy="-373.46" rx="0.36" ry="0.36"/>
<text xml:space="preserve" text-anchor="middle" x="300.5" y="-368.21" font-family="monospace" font-size="15.00">clap</text>
</a>
</g>
</g>
<!-- 0&#45;&gt;2 -->
<g id="edge2" class="edge">
<title>0&#45;&gt;2</title>
<g id="a_edge2"><a xlink:title="pugio &#45;&gt; clap">
<path fill="none" stroke="#000000" stroke-width="1.2" stroke-opacity="0.623529" d="M453.86,-467.91C423.77,-450.09 378.53,-423.11 339.5,-399.1 328.8,-392.51 316.56,-384.74 308.69,-379.71"/>
<polygon fill="none" stroke="#000000" stroke-width="1.2" stroke-opacity="0.623529" points="310.34,-377.44 302.09,-375.48 307.31,-382.15 310.34,-377.44"/>
</a>
</g>
</g>
<!-- 6 -->
<g id="node7" class="node">
<title>6</title>
<g id="a_node7"><a xlink:title="15.28 KiB">
<ellipse fill="#59a1cf" stroke="#000000" stroke-width="0.9" stroke-opacity="0.623529" cx="400.5" cy="-373.46" rx="24.59" ry="24.59"/>
<text xml:space="preserve" text-anchor="middle" x="400.5" y="-368.21" font-family="monospace" font-size="15.00">colorgrad</text>
</a>
</g>
</g>
<!-- 0&#45;&gt;6 -->
<g id="edge6" class="edge">
<title>0&#45;&gt;6</title>
<g id="a_edge6"><a xlink:title="pugio &#45;&gt; colorgrad">
<path fill="none" stroke="#000000" stroke-width="1.2" stroke-opacity="0.623529" d="M463.96,-457.09C450.34,-439.36 433.4,-417.29 420.44,-400.42"/>
<polygon fill="none" stroke="#000000" stroke-width="1.2" stroke-opacity="0.623529" points="423,-399.15 415.9,-394.51 418.55,-402.57 423,-399.15"/>
</a>
</g>
</g>
<!-- 10 -->
<g id="node11" class="node">
<title>10</title>
<g id="a_node11"><a xlink:title="1.23 KiB">
<ellipse fill="#b4d3e9" stroke="#000000" stroke-width="0.9" stroke-opacity="0.623529" cx="487.5" cy="-98.32" rx="4.18" ry="4.18"/>
<text xml:space="preserve" text-anchor="middle" x="487.5" y="-93.07" font-family="monospace" font-size="15.00">humansize</text>
</a>
</g>
</g>
<!-- 0&#45;&gt;10 -->
<g id="edge11" class="edge">
<title>0&#45;&gt;10</title>
<g id="a_edge11"><a xlink:title="pugio &#45;&gt; humansize">
<path fill="none" stroke="#000000" stroke-width="1.2" stroke-opacity="0.623529" d="M487.5,-449.44C487.5,-364.57 487.5,-164.09 487.5,-111.91"/>
<polygon fill="none" stroke="#000000" stroke-width="1.2" stroke-opacity="0.623529" points="490.3,-112 487.5,-104 484.7,-112 490.3,-112"/>
</a>
</g>
</g>
<!-- 11 -->
<g id="node12" class="node">
<title>11</title>
<g id="a_node12"><a xlink:title="2.40 KiB">
<ellipse fill="#9bc8e1" stroke="#000000" stroke-width="0.9" stroke-opacity="0.623529" cx="560.5" cy="-373.46" rx="7.35" ry="7.35"/>
<text xml:space="preserve" text-anchor="middle" x="560.5" y="-368.21" font-family="monospace" font-size="15.00">open</text>
</a>
</g>
</g>
<!-- 0&#45;&gt;11 -->
<g id="edge13" class="edge">
<title>0&#45;&gt;11</title>
<g id="a_edge13"><a xlink:title="pugio &#45;&gt; open">
<path fill="none" stroke="#000000" stroke-width="1.2" stroke-opacity="0.623529" d="M508.42,-455.28C522.79,-432.98 541.12,-404.53 551.77,-388.01"/>
<polygon fill="none" stroke="#000000" stroke-width="1.2" stroke-opacity="0.623529" points="554.09,-389.57 556.07,-381.33 549.38,-386.54 554.09,-389.57"/>
</a>
</g>
</g>
<!-- 17 -->
<g id="node17" class="node">
<title>17</title>
<g id="a_node17"><a xlink:title="5.79 KiB">
<ellipse fill="#86bddc" stroke="#000000" stroke-width="0.9" stroke-opacity="0.623529" cx="782.5" cy="-373.46" rx="14" ry="14"/>
<text xml:space="preserve" text-anchor="middle" x="782.5" y="-368.21" font-family="monospace" font-size="15.00">petgraph</text>
</a>
</g>
</g>
<!-- 0&#45;&gt;17 -->
<g id="edge19" class="edge">
<title>0&#45;&gt;17</title>
<g id="a_edge19"><a xlink:title="pugio &#45;&gt; petgraph">
<path fill="none" stroke="#000000" stroke-width="1.2" stroke-opacity="0.623529" d="M523.97,-473.74C586.11,-449.88 710.67,-402.04 760.83,-382.78"/>
<polygon fill="none" stroke="#000000" stroke-width="1.2" stroke-opacity="0.623529" points="761.67,-385.46 768.14,-379.97 759.66,-380.23 761.67,-385.46"/>
</a>
</g>
</g>
<!-- 24 -->
<g id="node21" class="node">
<title>24</title>
<g id="a_node21"><a xlink:title="16.62 KiB">
<ellipse fill="#7ab6d9" stroke="#000000" stroke-width="0.9" stroke-opacity="0.623529" cx="954.5" cy="-373.46" rx="25.64" ry="25.64"/>
<text xml:space="preserve" text-anchor="middle" x="954.5" y="-368.21" font-family="monospace" font-size="15.00">serde_json</text>
</a>
</g>
</g>
<!-- 0&#45;&gt;24 -->
<g id="edge23" class="edge">
<title>0&#45;&gt;24</title>
<g id="a_edge23"><a xlink:title="pugio &#45;&gt; serde_json">
<path fill="none" stroke="#000000" stroke-width="1.2" stroke-opacity="0.623529" d="M525.72,-478.48C614.88,-456.85 835.5,-403.33 920.42,-382.72"/>
<polygon fill="none" stroke="#000000" stroke-width="1.2" stroke-opacity="0.623529" points="920.98,-385.47 928.09,-380.86 919.66,-380.03 920.98,-385.47"/>
</a>
</g>
</g>
<!-- 3 -->
<g id="node4" class="node">
<title>3</title>
<g id="a_node4"><a xlink:title="310.64 KiB">
<ellipse fill="#0a488e" stroke="#000000" stroke-width="0.9" stroke-opacity="0.623529" cx="127.5" cy="-229.57" rx="68.25" ry="68.25"/>
<text xml:space="preserve" text-anchor="middle" x="127.5" y="-224.32" font-family="monospace" font-size="15.00">clap_builder</text>
</a>
</g>
</g>
<!-- 2&#45;&gt;3 -->
<g id="edge3" class="edge">
<title>2&#45;&gt;3</title>
<g id="a_edge3"><a xlink:title="clap &#45;&gt; clap_builder">
<path fill="none" stroke="#000000" stroke-width="1.2" stroke-opacity="0.623529" d="M300.35,-372.34C297.26,-369.9 247.17,-330.41 207.5,-297.82 200.56,-292.12 193.31,-286.11 186.14,-280.12"/>
<polygon fill="none" stroke="#000000" stroke-width="1.2" stroke-opacity="0.623529" points="188.33,-278.3 180.39,-275.32 184.73,-282.6 188.33,-278.3"/>
</a>
</g>
</g>
<!-- 4 -->
<g id="node5" class="node">
<title>4</title>
<g id="a_node5"><a xlink:title="2.10 KiB">
<ellipse fill="#c1daed" stroke="#000000" stroke-width="0.9" stroke-opacity="0.623529" cx="39.5" cy="-98.32" rx="6.61" ry="6.61"/>
<text xml:space="preserve" text-anchor="middle" x="39.5" y="-93.07" font-family="monospace" font-size="15.00">anstyle</text>
</a>
</g>
</g>
<!-- 3&#45;&gt;4 -->
<g id="edge4" class="edge">
<title>3&#45;&gt;4</title>
<g id="a_edge4"><a xlink:title="clap_builder &#45;&gt; anstyle">
<path fill="none" stroke="#000000" stroke-width="1.2" stroke-opacity="0.623529" d="M89.67,-173.01C74.08,-150.11 57.43,-125.66 47.77,-111.48"/>
<polygon fill="none" stroke="#000000" stroke-width="1.2" stroke-opacity="0.623529" points="50.36,-110.29 43.54,-105.26 45.73,-113.44 50.36,-110.29"/>
</a>
</g>
</g>
<!-- 5 -->
<g id="node6" class="node">
<title>5</title>
<g id="a_node6"><a xlink:title="3.94 KiB">
<ellipse fill="#b4d4e9" stroke="#000000" stroke-width="0.9" stroke-opacity="0.623529" cx="148.5" cy="-98.32" rx="10.73" ry="10.73"/>
<text xml:space="preserve" text-anchor="middle" x="148.5" y="-93.07" font-family="monospace" font-size="15.00">clap_lex</text>
</a>
</g>
</g>
<!-- 3&#45;&gt;5 -->
<g id="edge5" class="edge">
<title>3&#45;&gt;5</title>
<g id="a_edge5"><a xlink:title="clap_builder &#45;&gt; clap_lex">
<path fill="none" stroke="#000000" stroke-width="1.2" stroke-opacity="0.623529" d="M138.25,-162.43C140.87,-146.27 143.48,-130.23 145.41,-118.36"/>
<polygon fill="none" stroke="#000000" stroke-width="1.2" stroke-opacity="0.623529" points="148.16,-118.89 146.68,-110.55 142.63,-118 148.16,-118.89"/>
</a>
</g>
</g>
<!-- 7 -->
<g id="node8" class="node">
<title>7</title>
<g id="a_node8"><a xlink:title="24.18 KiB">
<ellipse fill="#70b0d6" stroke="#000000" stroke-width="0.9" stroke-opacity="0.623529" cx="291.5" cy="-229.57" rx="30.53" ry="30.53"/>
<text xml:space="preserve" text-anchor="middle" x="291.5" y="-224.32" font-family="monospace" font-size="15.00">csscolorparser</text>
</a>
</g>
</g>
<!-- 6&#45;&gt;7 -->
<g id="edge7" class="edge">
<title>6&#45;&gt;7</title>
<g id="a_edge7"><a xlink:title="colorgrad &#45;&gt; csscolorparser">
<path fill="none" stroke="#000000" stroke-width="1.2" stroke-opacity="0.623529" d="M386.03,-353.62C367.92,-330.05 336.69,-289.39 315.1,-261.3"/>
<polygon fill="none" stroke="#000000" stroke-width="1.2" stroke-opacity="0.623529" points="317.49,-259.81 310.4,-255.17 313.05,-263.22 317.49,-259.81"/>
</a>
</g>
</g>
<!-- 9 -->
<g id="node10" class="node">
<title>9</title>
<g id="a_node10"><a xlink:title="8.38 KiB">
<ellipse fill="#9fcae2" stroke="#000000" stroke-width="0.9" stroke-opacity="0.623529" cx="400.5" cy="-17.66" rx="17.66" ry="17.66"/>
<text xml:space="preserve" text-anchor="middle" x="400.5" y="-12.41" font-family="monospace" font-size="15.00">libm</text>
</a>
</g>
</g>
<!-- 6&#45;&gt;9 -->
<g id="edge10" class="edge">
<title>6&#45;&gt;9</title>
<g id="a_edge10"><a xlink:title="colorgrad &#45;&gt; libm">
<path fill="none" stroke="#000000" stroke-width="1.2" stroke-opacity="0.623529" d="M400.5,-348.97C400.5,-285.54 400.5,-111.09 400.5,-44.74"/>
<polygon fill="none" stroke="#000000" stroke-width="1.2" stroke-opacity="0.623529" points="403.3,-44.87 400.5,-36.87 397.7,-44.87 403.3,-44.87"/>
</a>
</g>
</g>
<!-- 8 -->
<g id="node9" class="node">
<title>8</title>
<g id="a_node9"><a xlink:title="0 B">
<ellipse fill="#bcd7eb" stroke="#000000" stroke-width="0.9" stroke-opacity="0.623529" cx="300.5" cy="-98.32" rx="0.36" ry="0.36"/>
<text xml:space="preserve" text-anchor="middle" x="300.5" y="-93.07" font-family="monospace" font-size="15.00">num_traits</text>
</a>
</g>
</g>
<!-- 7&#45;&gt;8 -->
<g id="edge8" class="edge">
<title>7&#45;&gt;8</title>
<g id="a_edge8"><a xlink:title="csscolorparser &#45;&gt; num_traits">
<path fill="none" stroke="#000000" stroke-width="1.2" stroke-opacity="0.623529" d="M293.54,-199.24C295.55,-170.36 298.51,-127.9 299.83,-109.01"/>
<polygon fill="none" stroke="#000000" stroke-width="1.2" stroke-opacity="0.623529" points="302.61,-109.36 300.37,-101.18 297.02,-108.97 302.61,-109.36"/>
</a>
</g>
</g>
<!-- 8&#45;&gt;9 -->
<g id="edge9" class="edge">
<title>8&#45;&gt;9</title>
<g id="a_edge9"><a xlink:title="num_traits &#45;&gt; libm">
<path fill="none" stroke="#000000" stroke-width="1.2" stroke-opacity="0.623529" d="M300.57,-97.27C302.7,-95.59 351.28,-57.38 379.9,-34.86"/>
<polygon fill="none" stroke="#000000" stroke-width="1.2" stroke-opacity="0.623529" points="381.41,-37.24 385.97,-30.09 377.95,-32.84 381.41,-37.24"/>
</a>
</g>
</g>
<!-- 10&#45;&gt;9 -->
<g id="edge12" class="edge">
<title>10&#45;&gt;9</title>
<g id="a_edge12"><a xlink:title="humansize &#45;&gt; libm">
<path fill="none" stroke="#000000" stroke-width="1.2" stroke-opacity="0.623529" d="M484.99,-95.06C475.62,-86.58 442.1,-56.27 420.2,-36.48"/>
<polygon fill="none" stroke="#000000" stroke-width="1.2" stroke-opacity="0.623529" points="422.16,-34.47 414.35,-31.18 418.4,-38.62 422.16,-34.47"/>
</a>
</g>
</g>
<!-- 12 -->
<g id="node13" class="node">
<title>12</title>
<g id="a_node13"><a xlink:title="3.12 KiB">
<ellipse fill="#add0e6" stroke="#000000" stroke-width="0.9" stroke-opacity="0.623529" cx="560.5" cy="-229.57" rx="9.02" ry="9.02"/>
<text xml:space="preserve" text-anchor="middle" x="560.5" y="-224.32" font-family="monospace" font-size="15.00">is_wsl</text>
</a>
</g>
</g>
<!-- 11&#45;&gt;12 -->
<g id="edge14" class="edge">
<title>11&#45;&gt;12</title>
<g id="a_edge14"><a xlink:title="open &#45;&gt; is_wsl">
<path fill="none" stroke="#000000" stroke-width="1.2" stroke-opacity="0.623529" d="M560.5,-366.36C560.5,-346.05 560.5,-280.19 560.5,-248.25"/>
<polygon fill="none" stroke="#000000" stroke-width="1.2" stroke-opacity="0.623529" points="563.3,-248.32 560.5,-240.32 557.7,-248.32 563.3,-248.32"/>
</a>
</g>
</g>
<!-- 16 -->
<g id="node16" class="node">
<title>16</title>
<g id="a_node16"><a xlink:title="1.72 KiB">
<ellipse fill="#c4dbee" stroke="#000000" stroke-width="0.9" stroke-opacity="0.623529" cx="664.5" cy="-229.57" rx="5.59" ry="5.59"/>
<text xml:space="preserve" text-anchor="middle" x="664.5" y="-224.32" font-family="monospace" font-size="15.00">pathdiff</text>
</a>
</g>
</g>
<!-- 11&#45;&gt;16 -->
<g id="edge18" class="edge">
<title>11&#45;&gt;16</title>
<g id="a_edge18"><a xlink:title="open &#45;&gt; pathdiff">
<path fill="none" stroke="#000000" stroke-width="1.2" stroke-opacity="0.623529" d="M564.2,-367.41C579.09,-347.1 634.83,-271.06 656.14,-241.98"/>
<polygon fill="none" stroke="#000000" stroke-width="1.2" stroke-opacity="0.623529" points="658.21,-243.89 660.68,-235.78 653.69,-240.58 658.21,-243.89"/>
</a>
</g>
</g>
<!-- 13 -->
<g id="node14" class="node">
<title>13</title>
<g id="a_node14"><a xlink:title="39 B">
<ellipse fill="#cadff0" stroke="#000000" stroke-width="0.9" stroke-opacity="0.623529" cx="609.5" cy="-98.32" rx="0.36" ry="0.36"/>
<text xml:space="preserve" text-anchor="middle" x="609.5" y="-93.07" font-family="monospace" font-size="15.00">is_docker</text>
</a>
</g>
</g>
<!-- 12&#45;&gt;13 -->
<g id="edge15" class="edge">
<title>12&#45;&gt;13</title>
<g id="a_edge15"><a xlink:title="is_wsl &#45;&gt; is_docker">
<path fill="none" stroke="#000000" stroke-width="1.2" stroke-opacity="0.623529" d="M563.27,-221.25C571.68,-199.07 596.88,-132.62 606.08,-108.34"/>
<polygon fill="none" stroke="#000000" stroke-width="1.2" stroke-opacity="0.623529" points="608.61,-109.56 608.83,-101.09 603.38,-107.58 608.61,-109.56"/>
</a>
</g>
</g>
<!-- 14 -->
<g id="node15" class="node">
<title>14</title>
<g id="a_node15"><a xlink:title="2.16 KiB">
<ellipse fill="#c1d9ed" stroke="#000000" stroke-width="0.9" stroke-opacity="0.623529" cx="652.5" cy="-17.66" rx="6.75" ry="6.75"/>
<text xml:space="preserve" text-anchor="middle" x="652.5" y="-12.41" font-family="monospace" font-size="15.00">once_cell</text>
</a>
</g>
</g>
<!-- 12&#45;&gt;14 -->
<g id="edge17" class="edge">
<title>12&#45;&gt;14</title>
<g id="a_edge17"><a xlink:title="is_wsl &#45;&gt; once_cell">
<path fill="none" stroke="#000000" stroke-width="1.2" stroke-opacity="0.623529" d="M564.46,-221.82C572.05,-209.17 589.61,-181.36 608.5,-161.32 632.79,-135.57 655.23,-143.26 670.5,-111.32 683.03,-85.13 669.59,-50.8 660.13,-32.15"/>
<polygon fill="none" stroke="#000000" stroke-width="1.2" stroke-opacity="0.623529" points="662.61,-30.85 656.34,-25.15 657.69,-33.52 662.61,-30.85"/>
</a>
</g>
</g>
<!-- 13&#45;&gt;14 -->
<g id="edge16" class="edge">
<title>13&#45;&gt;14</title>
<g id="a_edge16"><a xlink:title="is_docker &#45;&gt; once_cell">
<path fill="none" stroke="#000000" stroke-width="1.2" stroke-opacity="0.623529" d="M609.53,-97.27C610.48,-95.52 633.05,-54.25 645.09,-32.23"/>
<polygon fill="none" stroke="#000000" stroke-width="1.2" stroke-opacity="0.623529" points="647.51,-33.63 648.89,-25.27 642.6,-30.94 647.51,-33.63"/>
</a>
</g>
</g>
<!-- 19 -->
<g id="node18" class="node">
<title>19</title>
<g id="a_node18"><a xlink:title="5.18 KiB">
<ellipse fill="#aed0e7" stroke="#000000" stroke-width="0.9" stroke-opacity="0.623529" cx="782.5" cy="-229.57" rx="12.98" ry="12.98"/>
<text xml:space="preserve" text-anchor="middle" x="782.5" y="-224.32" font-family="monospace" font-size="15.00">hashbrown</text>
</a>
</g>
</g>
<!-- 17&#45;&gt;19 -->
<g id="edge20" class="edge">
<title>17&#45;&gt;19</title>
<g id="a_edge20"><a xlink:title="petgraph &#45;&gt; hashbrown">
<path fill="none" stroke="#000000" stroke-width="1.2" stroke-opacity="0.623529" d="M782.5,-359.87C782.5,-335.6 782.5,-282.1 782.5,-252.08"/>
<polygon fill="none" stroke="#000000" stroke-width="1.2" stroke-opacity="0.623529" points="785.3,-252.35 782.5,-244.35 779.7,-252.35 785.3,-252.35"/>
</a>
</g>
</g>
<!-- 21 -->
<g id="node19" class="node">
<title>21</title>
<g id="a_node19"><a xlink:title="0 B">
<ellipse fill="#aed0e7" stroke="#000000" stroke-width="0.9" stroke-opacity="0.623529" cx="900.5" cy="-229.57" rx="0.36" ry="0.36"/>
<text xml:space="preserve" text-anchor="middle" x="900.5" y="-224.32" font-family="monospace" font-size="15.00">indexmap</text>
</a>
</g>
</g>
<!-- 17&#45;&gt;21 -->
<g id="edge21" class="edge">
<title>17&#45;&gt;21</title>
<g id="a_edge21"><a xlink:title="petgraph &#45;&gt; indexmap">
<path fill="none" stroke="#000000" stroke-width="1.2" stroke-opacity="0.623529" d="M790.61,-362.71C812.86,-335.96 874.49,-261.85 894.29,-238.04"/>
<polygon fill="none" stroke="#000000" stroke-width="1.2" stroke-opacity="0.623529" points="896.32,-239.98 899.28,-232.04 892.01,-236.4 896.32,-239.98"/>
</a>
</g>
</g>
<!-- 23 -->
<g id="node20" class="node">
<title>23</title>
<g id="a_node20"><a xlink:title="5.18 KiB">
<ellipse fill="#aed0e7" stroke="#000000" stroke-width="0.9" stroke-opacity="0.623529" cx="900.5" cy="-98.32" rx="12.98" ry="12.98"/>
<text xml:space="preserve" text-anchor="middle" x="900.5" y="-93.07" font-family="monospace" font-size="15.00">hashbrown</text>
</a>
</g>
</g>
<!-- 21&#45;&gt;23 -->
<g id="edge22" class="edge">
<title>21&#45;&gt;23</title>
<g id="a_edge22"><a xlink:title="indexmap &#45;&gt; hashbrown">
<path fill="none" stroke="#000000" stroke-width="1.2" stroke-opacity="0.623529" d="M900.5,-228.48C900.5,-225.58 900.5,-156.34 900.5,-120.46"/>
<polygon fill="none" stroke="#000000" stroke-width="1.2" stroke-opacity="0.623529" points="903.3,-120.72 900.5,-112.72 897.7,-120.72 903.3,-120.72"/>
</a>
</g>
</g>
<!-- 26 -->
<g id="node22" class="node">
<title>26</title>
<g id="a_node22"><a xlink:title="5.31 KiB">
<ellipse fill="#add0e6" stroke="#000000" stroke-width="0.9" stroke-opacity="0.623529" cx="1004.5" cy="-229.57" rx="13.21" ry="13.21"/>
<text xml:space="preserve" text-anchor="middle" x="1004.5" y="-224.32" font-family="monospace" font-size="15.00">memchr</text>
</a>
</g>
</g>
<!-- 24&#45;&gt;26 -->
<g id="edge24" class="edge">
<title>24&#45;&gt;26</title>
<g id="a_edge24"><a xlink:title="serde_json &#45;&gt; memchr">
<path fill="none" stroke="#000000" stroke-width="1.2" stroke-opacity="0.623529" d="M962.64,-349.35C972.26,-322.05 988.11,-277.07 997.3,-251"/>
<polygon fill="none" stroke="#000000" stroke-width="1.2" stroke-opacity="0.623529" points="999.85,-252.2 999.86,-243.73 994.56,-250.34 999.85,-252.2"/>
</a>
</g>
</g>
</g>
</svg>
