<?xml version="1.0" encoding="UTF-8" standalone="no"?>
<!DOCTYPE svg PUBLIC "-//W3C//DTD SVG 1.1//EN"
 "http://www.w3.org/Graphics/SVG/1.1/DTD/svg11.dtd">
<!-- Generated by graphviz version 13.1.2 (20250808.2320)
 -->
<!-- Pages: 1 -->
<svg width="2276pt" height="914pt"
 viewBox="0.00 0.00 2276.00 914.00" xmlns="http://www.w3.org/2000/svg" xmlns:xlink="http://www.w3.org/1999/xlink">
<g id="graph0" class="graph" transform="scale(1 1) rotate(0) translate(72 841.78)">
<polygon fill="#000000" stroke="none" points="-72,72 -72,-841.78 2203.62,-841.78 2203.62,72 -72,72"/>
<!-- 0 -->
<g id="node1" class="node">
<title>0</title>
<g id="a_node1"><a xlink:title="hyperfine v1.20.0 (/home/my4ng/Programming/hyperfine)&#10;202.97 KiB&#10;">
<ellipse fill="#dd95ff" stroke="#ffffff" stroke-width="1.2" cx="830.62" cy="-697.4" rx="61.7" ry="61.7"/>
<text xml:space="preserve" text-anchor="middle" x="830.62" y="-702.05" font-family="monospace" font-size="18.00" fill="#ffffff">hyperfine</text>
<text xml:space="preserve" text-anchor="middle" x="830.62" y="-680.3" font-family="monospace" font-size="18.00" fill="#ffffff">590.65 KiB</text>
</a>
</g>
</g>
<!-- 1 -->
<g id="node2" class="node">
<title>1</title>
<g id="a_node2"><a xlink:title="anyhow v1.0.100&#10;13.15 KiB&#10;default(std),std">
<ellipse fill="#670620" stroke="#ffffff" stroke-width="1.2" cx="256.62" cy="-533.63" rx="22.76" ry="22.76"/>
<text xml:space="preserve" text-anchor="middle" x="256.62" y="-538.28" font-family="monospace" font-size="18.00" fill="#ffffff">anyhow</text>
<text xml:space="preserve" text-anchor="middle" x="256.62" y="-516.53" font-family="monospace" font-size="18.00" fill="#ffffff">13.15 KiB</text>
</a>
</g>
</g>
<!-- 0&#45;&gt;1 -->
<g id="edge1" class="edge">
<title>0&#45;&gt;1</title>
<g id="a_edge1"><a xlink:title="hyperfine &#45;&gt; anyhow">
<path fill="none" stroke="#ffffff" stroke-width="1.6" stroke-opacity="0.623529" d="M770.19,-687.08C674.11,-671.09 481.65,-634.2 327.62,-574.01 312.52,-568.11 296.65,-559.55 283.75,-551.92"/>
<polygon fill="none" stroke="#ffffff" stroke-width="1.6" stroke-opacity="0.623529" points="285.3,-549.59 277.01,-547.84 282.4,-554.38 285.3,-549.59"/>
</a>
</g>
</g>
<!-- 17 -->
<g id="node3" class="node">
<title>17</title>
<g id="a_node3"><a xlink:title="colored v2.2.0&#10;8.62 KiB&#10;default">
<ellipse fill="#590516" stroke="#ffffff" stroke-width="1.2" cx="393.62" cy="-533.63" rx="17.97" ry="17.97"/>
<text xml:space="preserve" text-anchor="middle" x="393.62" y="-538.28" font-family="monospace" font-size="18.00" fill="#ffffff">colored</text>
<text xml:space="preserve" text-anchor="middle" x="393.62" y="-516.53" font-family="monospace" font-size="18.00" fill="#ffffff">8.62 KiB</text>
</a>
</g>
</g>
<!-- 0&#45;&gt;17 -->
<g id="edge2" class="edge">
<title>0&#45;&gt;17</title>
<g id="a_edge2"><a xlink:title="hyperfine &#45;&gt; colored">
<path fill="none" stroke="#ffffff" stroke-width="1.6" stroke-opacity="0.623529" d="M771.28,-681.16C696.74,-661.05 565.74,-622.46 459.62,-574.01 444.58,-567.14 428.64,-557.69 416.19,-549.78"/>
<polygon fill="none" stroke="#ffffff" stroke-width="1.6" stroke-opacity="0.623529" points="418.07,-547.66 409.84,-545.66 415.03,-552.36 418.07,-547.66"/>
</a>
</g>
</g>
<!-- 19 -->
<g id="node4" class="node">
<title>19</title>
<g id="a_node4"><a xlink:title="csv v1.4.0&#10;4.83 KiB&#10;default">
<ellipse fill="#590516" stroke="#ffffff" stroke-width="1.2" cx="688.62" cy="-533.63" rx="12.39" ry="12.39"/>
<text xml:space="preserve" text-anchor="middle" x="688.62" y="-538.28" font-family="monospace" font-size="18.00" fill="#ffffff">csv</text>
<text xml:space="preserve" text-anchor="middle" x="688.62" y="-516.53" font-family="monospace" font-size="18.00" fill="#ffffff">8.68 KiB</text>
</a>
</g>
</g>
<!-- 0&#45;&gt;19 -->
<g id="edge3" class="edge">
<title>0&#45;&gt;19</title>
<g id="a_edge3"><a xlink:title="hyperfine &#45;&gt; csv">
<path fill="none" stroke="#ffffff" stroke-width="1.6" stroke-opacity="0.623529" d="M790.69,-650.9C761.32,-617.45 723.12,-573.92 702.8,-550.77"/>
<polygon fill="none" stroke="#ffffff" stroke-width="1.6" stroke-opacity="0.623529" points="705.15,-549.21 697.77,-545.04 700.94,-552.9 705.15,-549.21"/>
</a>
</g>
</g>
<!-- 25 -->
<g id="node8" class="node">
<title>25</title>
<g id="a_node8"><a xlink:title="indicatif v0.17.4&#10;48.93 KiB&#10;default(unicode&#45;width),unicode&#45;width">
<ellipse fill="#b91a6d" stroke="#ffffff" stroke-width="1.2" cx="530.62" cy="-533.63" rx="40.38" ry="40.38"/>
<text xml:space="preserve" text-anchor="middle" x="530.62" y="-538.28" font-family="monospace" font-size="18.00" fill="#ffffff">indicatif</text>
<text xml:space="preserve" text-anchor="middle" x="530.62" y="-516.53" font-family="monospace" font-size="18.00" fill="#ffffff">67.71 KiB</text>
</a>
</g>
</g>
<!-- 0&#45;&gt;25 -->
<g id="edge7" class="edge">
<title>0&#45;&gt;25</title>
<g id="a_edge7"><a xlink:title="hyperfine &#45;&gt; indicatif">
<path fill="none" stroke="#ffffff" stroke-width="1.6" stroke-opacity="0.623529" d="M776.99,-667.48C719.16,-636.29 628.18,-587.23 574.47,-558.27"/>
<polygon fill="none" stroke="#ffffff" stroke-width="1.6" stroke-opacity="0.623529" points="576.03,-555.93 567.66,-554.6 573.38,-560.86 576.03,-555.93"/>
</a>
</g>
</g>
<!-- 35 -->
<g id="node14" class="node">
<title>35</title>
<g id="a_node14"><a xlink:title="rand v0.8.5&#10;1.92 KiB&#10;alloc,default(std,std_rng),getrandom,libc,rand_chacha,std(alloc,getrandom,libc,rand_chacha),std_rng">
<ellipse fill="#5b0517" stroke="#ffffff" stroke-width="1.2" cx="1149.62" cy="-533.63" rx="6.12" ry="6.12"/>
<text xml:space="preserve" text-anchor="middle" x="1149.62" y="-538.28" font-family="monospace" font-size="18.00" fill="#ffffff">rand</text>
<text xml:space="preserve" text-anchor="middle" x="1149.62" y="-516.53" font-family="monospace" font-size="18.00" fill="#ffffff">9.16 KiB</text>
</a>
</g>
</g>
<!-- 0&#45;&gt;35 -->
<g id="edge13" class="edge">
<title>0&#45;&gt;35</title>
<g id="a_edge13"><a xlink:title="hyperfine &#45;&gt; rand">
<path fill="none" stroke="#ffffff" stroke-width="1.6" stroke-opacity="0.623529" d="M871.77,-651.75C882.65,-641.85 894.93,-632.19 907.62,-625.01 978.51,-584.91 1008.93,-606.47 1083.62,-574.01 1103.13,-565.53 1123.93,-552.34 1136.85,-543.6"/>
<polygon fill="none" stroke="#ffffff" stroke-width="1.6" stroke-opacity="0.623529" points="1138.38,-545.95 1143.36,-539.09 1135.19,-541.34 1138.38,-545.95"/>
</a>
</g>
</g>
<!-- 41 -->
<g id="node18" class="node">
<title>41</title>
<g id="a_node18"><a xlink:title="rust_decimal v1.39.0&#10;9.95 KiB&#10;default(serde,std),serde,std">
<ellipse fill="#5d0418" stroke="#ffffff" stroke-width="1.2" cx="995.62" cy="-533.63" rx="19.53" ry="19.53"/>
<text xml:space="preserve" text-anchor="middle" x="995.62" y="-538.28" font-family="monospace" font-size="18.00" fill="#ffffff">rust_decimal</text>
<text xml:space="preserve" text-anchor="middle" x="995.62" y="-516.53" font-family="monospace" font-size="18.00" fill="#ffffff">10.05 KiB</text>
</a>
</g>
</g>
<!-- 0&#45;&gt;41 -->
<g id="edge18" class="edge">
<title>0&#45;&gt;41</title>
<g id="a_edge18"><a xlink:title="hyperfine &#45;&gt; rust_decimal">
<path fill="none" stroke="#ffffff" stroke-width="1.6" stroke-opacity="0.623529" d="M873.98,-653.89C906.69,-621.83 950.08,-579.28 975.22,-554.63"/>
<polygon fill="none" stroke="#ffffff" stroke-width="1.6" stroke-opacity="0.623529" points="976.92,-556.89 980.68,-549.29 973,-552.89 976.92,-556.89"/>
</a>
</g>
</g>
<!-- 45 -->
<g id="node20" class="node">
<title>45</title>
<g id="a_node20"><a xlink:title="serde_json v1.0.145&#10;3.04 KiB&#10;default(std),std">
<ellipse fill="#4d040d" stroke="#ffffff" stroke-width="1.2" cx="830.62" cy="-533.63" rx="8.83" ry="8.83"/>
<text xml:space="preserve" text-anchor="middle" x="830.62" y="-538.28" font-family="monospace" font-size="18.00" fill="#ffffff">serde_json</text>
<text xml:space="preserve" text-anchor="middle" x="830.62" y="-516.53" font-family="monospace" font-size="18.00" fill="#ffffff">5.34 KiB</text>
</a>
</g>
</g>
<!-- 0&#45;&gt;45 -->
<g id="edge20" class="edge">
<title>0&#45;&gt;45</title>
<g id="a_edge20"><a xlink:title="hyperfine &#45;&gt; serde_json">
<path fill="none" stroke="#ffffff" stroke-width="1.6" stroke-opacity="0.623529" d="M830.62,-635.7C830.62,-606.16 830.62,-572.78 830.62,-552.74"/>
<polygon fill="none" stroke="#ffffff" stroke-width="1.6" stroke-opacity="0.623529" points="833.43,-552.8 830.63,-544.8 827.83,-552.8 833.43,-552.8"/>
</a>
</g>
</g>
<!-- 46 -->
<g id="node21" class="node">
<title>46</title>
<g id="a_node21"><a xlink:title="shell_words v1.1.0&#10;2.59 KiB&#10;default(std),std">
<ellipse fill="#3d0303" stroke="#ffffff" stroke-width="1.2" cx="1297.62" cy="-533.63" rx="7.8" ry="7.8"/>
<text xml:space="preserve" text-anchor="middle" x="1297.62" y="-538.28" font-family="monospace" font-size="18.00" fill="#ffffff">shell_words</text>
<text xml:space="preserve" text-anchor="middle" x="1297.62" y="-516.53" font-family="monospace" font-size="18.00" fill="#ffffff">2.59 KiB</text>
</a>
</g>
</g>
<!-- 0&#45;&gt;46 -->
<g id="edge23" class="edge">
<title>0&#45;&gt;46</title>
<g id="a_edge23"><a xlink:title="hyperfine &#45;&gt; shell_words">
<path fill="none" stroke="#ffffff" stroke-width="1.6" stroke-opacity="0.623529" d="M870.79,-651.04C881.79,-641.05 894.37,-631.51 907.62,-625.01 969.71,-594.55 1148.63,-594.7 1214.62,-574.01 1239.34,-566.26 1266.11,-552.49 1282.37,-543.46"/>
<polygon fill="none" stroke="#ffffff" stroke-width="1.6" stroke-opacity="0.623529" points="1283.74,-545.91 1289.31,-539.52 1280.97,-541.04 1283.74,-545.91"/>
</a>
</g>
</g>
<!-- 47 -->
<g id="node22" class="node">
<title>47</title>
<g id="a_node22"><a xlink:title="statistical v1.0.0&#10;1022 B&#10;default">
<ellipse fill="#720729" stroke="#ffffff" stroke-width="1.2" cx="1518.62" cy="-533.63" rx="3.48" ry="3.48"/>
<text xml:space="preserve" text-anchor="middle" x="1518.62" y="-538.28" font-family="monospace" font-size="18.00" fill="#ffffff">statistical</text>
<text xml:space="preserve" text-anchor="middle" x="1518.62" y="-516.53" font-family="monospace" font-size="18.00" fill="#ffffff">17.33 KiB</text>
</a>
</g>
</g>
<!-- 0&#45;&gt;47 -->
<g id="edge24" class="edge">
<title>0&#45;&gt;47</title>
<g id="a_edge24"><a xlink:title="hyperfine &#45;&gt; statistical">
<path fill="none" stroke="#ffffff" stroke-width="1.6" stroke-opacity="0.623529" d="M870.54,-650.51C881.55,-640.53 894.19,-631.13 907.62,-625.01 955.63,-603.13 1327.84,-584.07 1379.62,-574.01 1427.21,-564.77 1482.17,-547.03 1506.25,-538.9"/>
<polygon fill="none" stroke="#ffffff" stroke-width="1.6" stroke-opacity="0.623529" points="1507.07,-541.58 1513.72,-536.33 1505.25,-536.28 1507.07,-541.58"/>
</a>
</g>
</g>
<!-- 20 -->
<g id="node5" class="node">
<title>20</title>
<g id="a_node5"><a xlink:title="csv_core v0.1.13&#10;1.53 KiB&#10;default">
<ellipse fill="#3d0305" stroke="#ffffff" stroke-width="1.2" cx="668.62" cy="-400.12" rx="5.07" ry="5.07"/>
<text xml:space="preserve" text-anchor="middle" x="668.62" y="-404.77" font-family="monospace" font-size="18.00" fill="#ffffff">csv_core</text>
<text xml:space="preserve" text-anchor="middle" x="668.62" y="-383.02" font-family="monospace" font-size="18.00" fill="#ffffff">2.50 KiB</text>
</a>
</g>
</g>
<!-- 19&#45;&gt;20 -->
<g id="edge4" class="edge">
<title>19&#45;&gt;20</title>
<g id="a_edge4"><a xlink:title="csv &#45;&gt; csv_core">
<path fill="none" stroke="#ffffff" stroke-width="1.6" stroke-opacity="0.623529" d="M686.92,-521.42C683.28,-497.5 674.77,-441.54 670.77,-415.24"/>
<polygon fill="none" stroke="#ffffff" stroke-width="1.6" stroke-opacity="0.623529" points="673.55,-414.87 669.58,-407.38 668.01,-415.71 673.55,-414.87"/>
</a>
</g>
</g>
<!-- 23 -->
<g id="node7" class="node">
<title>23</title>
<g id="a_node7"><a xlink:title="ryu v1.0.20&#10;2.69 KiB&#10;default">
<ellipse fill="#3f0405" stroke="#ffffff" stroke-width="1.2" cx="799.62" cy="-400.12" rx="8.03" ry="8.03"/>
<text xml:space="preserve" text-anchor="middle" x="799.62" y="-404.77" font-family="monospace" font-size="18.00" fill="#ffffff">ryu</text>
<text xml:space="preserve" text-anchor="middle" x="799.62" y="-383.02" font-family="monospace" font-size="18.00" fill="#ffffff">2.69 KiB</text>
</a>
</g>
</g>
<!-- 19&#45;&gt;23 -->
<g id="edge6" class="edge">
<title>19&#45;&gt;23</title>
<g id="a_edge6"><a xlink:title="csv &#45;&gt; ryu">
<path fill="none" stroke="#ffffff" stroke-width="1.6" stroke-opacity="0.623529" d="M695.91,-524C714.89,-501.52 765.96,-441.01 788.58,-414.21"/>
<polygon fill="none" stroke="#ffffff" stroke-width="1.6" stroke-opacity="0.623529" points="790.49,-416.28 793.51,-408.37 786.21,-412.67 790.49,-416.28"/>
</a>
</g>
</g>
<!-- 21 -->
<g id="node6" class="node">
<title>21</title>
<g id="a_node6"><a xlink:title="memchr v2.7.6&#10;1.93 KiB&#10;alloc,std(alloc)">
<ellipse fill="#3b0504" stroke="#ffffff" stroke-width="1.2" cx="836.62" cy="-281.25" rx="6.17" ry="6.17"/>
<text xml:space="preserve" text-anchor="middle" x="836.62" y="-285.9" font-family="monospace" font-size="18.00" fill="#ffffff">memchr</text>
<text xml:space="preserve" text-anchor="middle" x="836.62" y="-264.15" font-family="monospace" font-size="18.00" fill="#ffffff">1.93 KiB</text>
</a>
</g>
</g>
<!-- 20&#45;&gt;21 -->
<g id="edge5" class="edge">
<title>20&#45;&gt;21</title>
<g id="a_edge5"><a xlink:title="csv_core &#45;&gt; memchr">
<path fill="none" stroke="#ffffff" stroke-width="1.6" stroke-opacity="0.623529" d="M672.13,-396.68C691.78,-383.02 788.47,-315.75 823.73,-291.22"/>
<polygon fill="none" stroke="#ffffff" stroke-width="1.6" stroke-opacity="0.623529" points="825.29,-293.55 830.25,-286.68 822.09,-288.95 825.29,-293.55"/>
</a>
</g>
</g>
<!-- 26 -->
<g id="node9" class="node">
<title>26</title>
<g id="a_node9"><a xlink:title="console v0.15.11&#10;16.87 KiB&#10;ansi&#45;parsing,unicode&#45;width">
<ellipse fill="#75062a" stroke="#ffffff" stroke-width="1.2" cx="140.62" cy="-400.12" rx="25.83" ry="25.83"/>
<text xml:space="preserve" text-anchor="middle" x="140.62" y="-404.77" font-family="monospace" font-size="18.00" fill="#ffffff">console</text>
<text xml:space="preserve" text-anchor="middle" x="140.62" y="-383.02" font-family="monospace" font-size="18.00" fill="#ffffff">18.23 KiB</text>
</a>
</g>
</g>
<!-- 25&#45;&gt;26 -->
<g id="edge8" class="edge">
<title>25&#45;&gt;26</title>
<g id="a_edge8"><a xlink:title="indicatif &#45;&gt; console">
<path fill="none" stroke="#ffffff" stroke-width="1.6" stroke-opacity="0.623529" d="M497.44,-510.88C485.64,-504.13 471.96,-497.39 458.62,-493.25 354.31,-460.85 313.82,-512.89 214.12,-468.25 194.16,-459.31 175.97,-442.81 162.68,-428.4"/>
<polygon fill="none" stroke="#ffffff" stroke-width="1.6" stroke-opacity="0.623529" points="164.84,-426.61 157.43,-422.48 160.65,-430.32 164.84,-426.61"/>
</a>
</g>
<g id="a_edge8&#45;label"><a xlink:title="indicatif &#45;&gt; console">
<text xml:space="preserve" text-anchor="middle" x="304.88" y="-455.43" font-family="monospace" font-size="13.50" fill="#ffffff">default(unicode&#45;width)</text>
</a>
</g>
</g>
<!-- 30 -->
<g id="node12" class="node">
<title>30</title>
<g id="a_node12"><a xlink:title="number_prefix v0.4.0&#10;135 B&#10;default(std),std">
<ellipse fill="#220401" stroke="#ffffff" stroke-width="1.2" cx="509.62" cy="-400.12" rx="0.51" ry="0.51"/>
<text xml:space="preserve" text-anchor="middle" x="509.62" y="-404.77" font-family="monospace" font-size="18.00" fill="#ffffff">number_prefix</text>
<text xml:space="preserve" text-anchor="middle" x="509.62" y="-383.02" font-family="monospace" font-size="18.00" fill="#ffffff">135 B</text>
</a>
</g>
</g>
<!-- 25&#45;&gt;30 -->
<g id="edge11" class="edge">
<title>25&#45;&gt;30</title>
<g id="a_edge11"><a xlink:title="indicatif &#45;&gt; number_prefix">
<path fill="none" stroke="#ffffff" stroke-width="1.6" stroke-opacity="0.623529" d="M524.44,-493.88C519.91,-465.55 514.1,-429.13 511.29,-411.54"/>
<polygon fill="none" stroke="#ffffff" stroke-width="1.6" stroke-opacity="0.623529" points="514.06,-411.13 510.03,-403.67 508.53,-412.01 514.06,-411.13"/>
</a>
</g>
</g>
<!-- 32 -->
<g id="node13" class="node">
<title>32</title>
<g id="a_node13"><a xlink:title="unicode_width v0.1.14&#10;425 B&#10;cjk,default(cjk)">
<ellipse fill="#2c0702" stroke="#ffffff" stroke-width="1.2" cx="322.62" cy="-400.12" rx="1.54" ry="1.54"/>
<text xml:space="preserve" text-anchor="middle" x="322.62" y="-404.77" font-family="monospace" font-size="18.00" fill="#ffffff">unicode_width</text>
<text xml:space="preserve" text-anchor="middle" x="322.62" y="-383.02" font-family="monospace" font-size="18.00" fill="#ffffff">425 B</text>
</a>
</g>
</g>
<!-- 25&#45;&gt;32 -->
<g id="edge12" class="edge">
<title>25&#45;&gt;32</title>
<g id="a_edge12"><a xlink:title="indicatif &#45;&gt; unicode_width">
<path fill="none" stroke="#ffffff" stroke-width="1.6" stroke-opacity="0.623529" d="M497.21,-511.5C448.26,-480.55 359.81,-424.63 331.56,-406.77"/>
<polygon fill="none" stroke="#ffffff" stroke-width="1.6" stroke-opacity="0.623529" points="333.26,-404.54 325.01,-402.63 330.27,-409.27 333.26,-404.54"/>
</a>
</g>
</g>
<!-- 28 -->
<g id="node10" class="node">
<title>28</title>
<g id="a_node10"><a xlink:title="once_cell v1.21.3&#10;968 B&#10;alloc(race),default(std),race,std(alloc)">
<ellipse fill="#320502" stroke="#ffffff" stroke-width="1.2" cx="58.62" cy="-281.25" rx="3.32" ry="3.32"/>
<text xml:space="preserve" text-anchor="middle" x="58.62" y="-285.9" font-family="monospace" font-size="18.00" fill="#ffffff">once_cell</text>
<text xml:space="preserve" text-anchor="middle" x="58.62" y="-264.15" font-family="monospace" font-size="18.00" fill="#ffffff">968 B</text>
</a>
</g>
</g>
<!-- 26&#45;&gt;28 -->
<g id="edge9" class="edge">
<title>26&#45;&gt;28</title>
<g id="a_edge9"><a xlink:title="console &#45;&gt; once_cell">
<path fill="none" stroke="#ffffff" stroke-width="1.6" stroke-opacity="0.623529" d="M126.34,-378.77C108.7,-353.62 79.36,-311.8 65.85,-292.54"/>
<polygon fill="none" stroke="#ffffff" stroke-width="1.6" stroke-opacity="0.623529" points="68.2,-291.03 61.32,-286.09 63.62,-294.24 68.2,-291.03"/>
</a>
</g>
</g>
<!-- 29 -->
<g id="node11" class="node">
<title>29</title>
<g id="a_node11"><a xlink:title="unicode_width v0.2.2&#10;425 B&#10;cjk,default(cjk)">
<ellipse fill="#2c0702" stroke="#ffffff" stroke-width="1.2" cx="223.62" cy="-281.25" rx="1.54" ry="1.54"/>
<text xml:space="preserve" text-anchor="middle" x="223.62" y="-285.9" font-family="monospace" font-size="18.00" fill="#ffffff">unicode_width</text>
<text xml:space="preserve" text-anchor="middle" x="223.62" y="-264.15" font-family="monospace" font-size="18.00" fill="#ffffff">425 B</text>
</a>
</g>
</g>
<!-- 26&#45;&gt;29 -->
<g id="edge10" class="edge">
<title>26&#45;&gt;29</title>
<g id="a_edge10"><a xlink:title="console &#45;&gt; unicode_width">
<path fill="none" stroke="#ffffff" stroke-width="1.6" stroke-opacity="0.623529" d="M155.08,-378.77C173.41,-352.96 204.2,-309.6 217.36,-291.08"/>
<polygon fill="none" stroke="#ffffff" stroke-width="1.6" stroke-opacity="0.623529" points="219.59,-292.77 221.93,-284.63 215.02,-289.53 219.59,-292.77"/>
</a>
</g>
</g>
<!-- 36 -->
<g id="node15" class="node">
<title>36</title>
<g id="a_node15"><a xlink:title="rand_chacha v0.3.1&#10;3.76 KiB&#10;std">
<ellipse fill="#4e050e" stroke="#ffffff" stroke-width="1.2" cx="1417.62" cy="-400.12" rx="10.36" ry="10.36"/>
<text xml:space="preserve" text-anchor="middle" x="1417.62" y="-404.77" font-family="monospace" font-size="18.00" fill="#ffffff">rand_chacha</text>
<text xml:space="preserve" text-anchor="middle" x="1417.62" y="-383.02" font-family="monospace" font-size="18.00" fill="#ffffff">5.50 KiB</text>
</a>
</g>
</g>
<!-- 35&#45;&gt;36 -->
<g id="edge14" class="edge">
<title>35&#45;&gt;36</title>
<g id="a_edge14"><a xlink:title="rand &#45;&gt; rand_chacha">
<path fill="none" stroke="#ffffff" stroke-width="1.6" stroke-opacity="0.623529" d="M1154.01,-529.78C1164.46,-523.05 1191.75,-505.77 1215.62,-493.25 1281.8,-458.55 1363.59,-423.57 1399.4,-408.64"/>
<polygon fill="none" stroke="#ffffff" stroke-width="1.6" stroke-opacity="0.623529" points="1400.04,-411.4 1406.36,-405.75 1397.9,-406.23 1400.04,-411.4"/>
</a>
</g>
<g id="a_edge14&#45;label"><a xlink:title="rand &#45;&gt; rand_chacha">
<text xml:space="preserve" text-anchor="middle" x="1330.8" y="-455.43" font-family="monospace" font-size="13.50" fill="#ffffff">std(std)</text>
</a>
</g>
</g>
<!-- 39 -->
<g id="node16" class="node">
<title>39</title>
<g id="a_node16"><a xlink:title="rand_core v0.6.4&#10;684 B&#10;alloc,default,getrandom,std">
<ellipse fill="#440408" stroke="#ffffff" stroke-width="1.2" cx="1149.62" cy="-281.25" rx="2.41" ry="2.41"/>
<text xml:space="preserve" text-anchor="middle" x="1149.62" y="-285.9" font-family="monospace" font-size="18.00" fill="#ffffff">rand_core</text>
<text xml:space="preserve" text-anchor="middle" x="1149.62" y="-264.15" font-family="monospace" font-size="18.00" fill="#ffffff">3.49 KiB</text>
</a>
</g>
</g>
<!-- 35&#45;&gt;39 -->
<g id="edge17" class="edge">
<title>35&#45;&gt;39</title>
<g id="a_edge17"><a xlink:title="rand &#45;&gt; rand_core">
<path fill="none" stroke="#ffffff" stroke-width="1.6" stroke-opacity="0.623529" d="M1149.62,-527.85C1149.62,-498.15 1149.62,-338.55 1149.62,-293.87"/>
<polygon fill="none" stroke="#ffffff" stroke-width="1.6" stroke-opacity="0.623529" points="1152.43,-294.02 1149.63,-286.02 1146.83,-294.02 1152.43,-294.02"/>
</a>
</g>
<g id="a_edge17&#45;label"><a xlink:title="rand &#45;&gt; rand_core">
<text xml:space="preserve" text-anchor="middle" x="1236.25" y="-413.18" font-family="monospace" font-size="13.50" fill="#ffffff">alloc(alloc),</text>
<text xml:space="preserve" text-anchor="middle" x="1236.25" y="-395.93" font-family="monospace" font-size="13.50" fill="#ffffff">getrandom(getrandom),</text>
<text xml:space="preserve" text-anchor="middle" x="1236.25" y="-378.68" font-family="monospace" font-size="13.50" fill="#ffffff">std(std)</text>
</a>
</g>
</g>
<!-- 36&#45;&gt;39 -->
<g id="edge15" class="edge">
<title>36&#45;&gt;39</title>
<g id="a_edge15"><a xlink:title="rand_chacha &#45;&gt; rand_core">
<path fill="none" stroke="#ffffff" stroke-width="1.6" stroke-opacity="0.623529" d="M1408.01,-396.43C1391.69,-391.86 1357.53,-382.3 1328.62,-374.25 1288.63,-363.11 1275.86,-367.61 1238.62,-349.25 1205.68,-333.01 1172.64,-303.99 1157.77,-290.09"/>
<polygon fill="none" stroke="#ffffff" stroke-width="1.6" stroke-opacity="0.623529" points="1159.88,-288.24 1152.17,-284.72 1156,-292.28 1159.88,-288.24"/>
</a>
</g>
</g>
<!-- 40 -->
<g id="node17" class="node">
<title>40</title>
<g id="a_node17"><a xlink:title="getrandom v0.2.16&#10;2.82 KiB&#10;default,std">
<ellipse fill="#3f0405" stroke="#ffffff" stroke-width="1.2" cx="1123.62" cy="-128.25" rx="8.35" ry="8.35"/>
<text xml:space="preserve" text-anchor="middle" x="1123.62" y="-132.9" font-family="monospace" font-size="18.00" fill="#ffffff">getrandom</text>
<text xml:space="preserve" text-anchor="middle" x="1123.62" y="-111.15" font-family="monospace" font-size="18.00" fill="#ffffff">2.82 KiB</text>
</a>
</g>
</g>
<!-- 39&#45;&gt;40 -->
<g id="edge16" class="edge">
<title>39&#45;&gt;40</title>
<g id="a_edge16"><a xlink:title="rand_core &#45;&gt; getrandom">
<path fill="none" stroke="#ffffff" stroke-width="1.6" stroke-opacity="0.623529" d="M1148.49,-279.16C1143.39,-274.19 1122.54,-252.89 1115.62,-230.5 1106.7,-201.64 1113.31,-166.06 1118.65,-145.68"/>
<polygon fill="none" stroke="#ffffff" stroke-width="1.6" stroke-opacity="0.623529" points="1121.29,-146.62 1120.79,-138.16 1115.91,-145.09 1121.29,-146.62"/>
</a>
</g>
<g id="a_edge16&#45;label"><a xlink:title="rand_core &#45;&gt; getrandom">
<text xml:space="preserve" text-anchor="middle" x="1148.62" y="-200.55" font-family="monospace" font-size="13.50" fill="#ffffff">std(std)</text>
</a>
</g>
</g>
<!-- 42 -->
<g id="node19" class="node">
<title>42</title>
<g id="a_node19"><a xlink:title="arrayvec v0.7.6&#10;99 B&#10;std">
<ellipse fill="#200401" stroke="#ffffff" stroke-width="1.2" cx="1046.62" cy="-400.12" rx="0.37" ry="0.37"/>
<text xml:space="preserve" text-anchor="middle" x="1046.62" y="-404.77" font-family="monospace" font-size="18.00" fill="#ffffff">arrayvec</text>
<text xml:space="preserve" text-anchor="middle" x="1046.62" y="-383.02" font-family="monospace" font-size="18.00" fill="#ffffff">99 B</text>
</a>
</g>
</g>
<!-- 41&#45;&gt;42 -->
<g id="edge19" class="edge">
<title>41&#45;&gt;42</title>
<g id="a_edge19"><a xlink:title="rust_decimal &#45;&gt; arrayvec">
<path fill="none" stroke="#ffffff" stroke-width="1.6" stroke-opacity="0.623529" d="M1002.29,-515.44C1013.14,-487.48 1034.25,-433.04 1042.84,-410.87"/>
<polygon fill="none" stroke="#ffffff" stroke-width="1.6" stroke-opacity="0.623529" points="1045.45,-411.91 1045.73,-403.44 1040.22,-409.89 1045.45,-411.91"/>
</a>
</g>
<g id="a_edge19&#45;label"><a xlink:title="rust_decimal &#45;&gt; arrayvec">
<text xml:space="preserve" text-anchor="middle" x="1060.19" y="-455.43" font-family="monospace" font-size="13.50" fill="#ffffff">std(std)</text>
</a>
</g>
</g>
<!-- 45&#45;&gt;21 -->
<g id="edge21" class="edge">
<title>45&#45;&gt;21</title>
<g id="a_edge21"><a xlink:title="serde_json &#45;&gt; memchr">
<path fill="none" stroke="#ffffff" stroke-width="1.6" stroke-opacity="0.623529" d="M833.72,-525.57C840.91,-508.75 858.59,-464.78 864.62,-426 868.16,-403.27 868.01,-397 864.62,-374.25 860.39,-345.8 849.18,-313.98 842.29,-296.21"/>
<polygon fill="none" stroke="#ffffff" stroke-width="1.6" stroke-opacity="0.623529" points="844.98,-295.38 839.41,-288.98 839.77,-297.45 844.98,-295.38"/>
</a>
</g>
<g id="a_edge21&#45;label"><a xlink:title="serde_json &#45;&gt; memchr">
<text xml:space="preserve" text-anchor="middle" x="900.22" y="-395.93" font-family="monospace" font-size="13.50" fill="#ffffff">std(std)</text>
</a>
</g>
</g>
<!-- 45&#45;&gt;23 -->
<g id="edge22" class="edge">
<title>45&#45;&gt;23</title>
<g id="a_edge22"><a xlink:title="serde_json &#45;&gt; ryu">
<path fill="none" stroke="#ffffff" stroke-width="1.6" stroke-opacity="0.623529" d="M828.87,-525.18C824.03,-504.65 810.4,-446.83 803.59,-417.97"/>
<polygon fill="none" stroke="#ffffff" stroke-width="1.6" stroke-opacity="0.623529" points="806.33,-417.36 801.77,-410.21 800.88,-418.64 806.33,-417.36"/>
</a>
</g>
</g>
<!-- 54 -->
<g id="node23" class="node">
<title>54</title>
<g id="a_node23"><a xlink:title="rand v0.6.5&#10;1.92 KiB&#10;alloc,default(std),rand_os,std(alloc,rand_os)">
<ellipse fill="#700625" stroke="#ffffff" stroke-width="1.2" cx="1575.62" cy="-400.12" rx="6.12" ry="6.12"/>
<text xml:space="preserve" text-anchor="middle" x="1575.62" y="-404.77" font-family="monospace" font-size="18.00" fill="#ffffff">rand</text>
<text xml:space="preserve" text-anchor="middle" x="1575.62" y="-383.02" font-family="monospace" font-size="18.00" fill="#ffffff">16.34 KiB</text>
</a>
</g>
</g>
<!-- 47&#45;&gt;54 -->
<g id="edge25" class="edge">
<title>47&#45;&gt;54</title>
<g id="a_edge25"><a xlink:title="statistical &#45;&gt; rand">
<path fill="none" stroke="#ffffff" stroke-width="1.6" stroke-opacity="0.623529" d="M1519.61,-530.35C1525.51,-516.74 1556.24,-445.85 1569.51,-415.24"/>
<polygon fill="none" stroke="#ffffff" stroke-width="1.6" stroke-opacity="0.623529" points="1572.08,-416.35 1572.69,-407.9 1566.94,-414.12 1572.08,-416.35"/>
</a>
</g>
</g>
<!-- 55 -->
<g id="node24" class="node">
<title>55</title>
<g id="a_node24"><a xlink:title="rand_chacha v0.1.1&#10;3.76 KiB&#10;default">
<ellipse fill="#460407" stroke="#ffffff" stroke-width="1.2" cx="1427.62" cy="-281.25" rx="10.36" ry="10.36"/>
<text xml:space="preserve" text-anchor="middle" x="1427.62" y="-285.9" font-family="monospace" font-size="18.00" fill="#ffffff">rand_chacha</text>
<text xml:space="preserve" text-anchor="middle" x="1427.62" y="-264.15" font-family="monospace" font-size="18.00" fill="#ffffff">3.96 KiB</text>
</a>
</g>
</g>
<!-- 54&#45;&gt;55 -->
<g id="edge26" class="edge">
<title>54&#45;&gt;55</title>
<g id="a_edge26"><a xlink:title="rand &#45;&gt; rand_chacha">
<path fill="none" stroke="#ffffff" stroke-width="1.6" stroke-opacity="0.623529" d="M1571.36,-395.75C1552.55,-380.91 1476.6,-320.93 1443.35,-294.67"/>
<polygon fill="none" stroke="#ffffff" stroke-width="1.6" stroke-opacity="0.623529" points="1445.1,-292.48 1437.08,-289.72 1441.63,-296.88 1445.1,-292.48"/>
</a>
</g>
</g>
<!-- 57 -->
<g id="node26" class="node">
<title>57</title>
<g id="a_node26"><a xlink:title="rand_core v0.4.2&#10;684 B&#10;alloc,default,std(alloc)">
<ellipse fill="#300602" stroke="#ffffff" stroke-width="1.2" cx="1627.62" cy="-25.75" rx="2.41" ry="2.41"/>
<text xml:space="preserve" text-anchor="middle" x="1627.62" y="-30.4" font-family="monospace" font-size="18.00" fill="#ffffff">rand_core</text>
<text xml:space="preserve" text-anchor="middle" x="1627.62" y="-8.65" font-family="monospace" font-size="18.00" fill="#ffffff">684 B</text>
</a>
</g>
</g>
<!-- 54&#45;&gt;57 -->
<g id="edge29" class="edge">
<title>54&#45;&gt;57</title>
<g id="a_edge29"><a xlink:title="rand &#45;&gt; rand_core">
<path fill="none" stroke="#ffffff" stroke-width="1.6" stroke-opacity="0.623529" d="M1570.31,-397.39C1537.14,-386.54 1359.61,-327.66 1345.62,-307 1332.8,-288.04 1340.31,-277.76 1345.62,-255.5 1378.22,-119.02 1567.33,-46.94 1616.14,-30.45"/>
<polygon fill="none" stroke="#ffffff" stroke-width="1.6" stroke-opacity="0.623529" points="1616.75,-33.19 1623.49,-28.06 1615.02,-27.87 1616.75,-33.19"/>
</a>
</g>
<g id="a_edge29&#45;label"><a xlink:title="rand &#45;&gt; rand_core">
<text xml:space="preserve" text-anchor="middle" x="1436.09" y="-209.18" font-family="monospace" font-size="13.50" fill="#ffffff">alloc(alloc),</text>
<text xml:space="preserve" text-anchor="middle" x="1436.09" y="-191.93" font-family="monospace" font-size="13.50" fill="#ffffff">std(std)</text>
</a>
</g>
</g>
<!-- 58 -->
<g id="node27" class="node">
<title>58</title>
<g id="a_node27"><a xlink:title="rand_hc v0.1.0&#10;5.68 KiB&#10;default">
<ellipse fill="#4f050f" stroke="#ffffff" stroke-width="1.2" cx="1575.62" cy="-281.25" rx="13.82" ry="13.82"/>
<text xml:space="preserve" text-anchor="middle" x="1575.62" y="-285.9" font-family="monospace" font-size="18.00" fill="#ffffff">rand_hc</text>
<text xml:space="preserve" text-anchor="middle" x="1575.62" y="-264.15" font-family="monospace" font-size="18.00" fill="#ffffff">5.88 KiB</text>
</a>
</g>
</g>
<!-- 54&#45;&gt;58 -->
<g id="edge30" class="edge">
<title>54&#45;&gt;58</title>
<g id="a_edge30"><a xlink:title="rand &#45;&gt; rand_hc">
<path fill="none" stroke="#ffffff" stroke-width="1.6" stroke-opacity="0.623529" d="M1575.62,-394.1C1575.62,-378.98 1575.62,-333.2 1575.62,-305.12"/>
<polygon fill="none" stroke="#ffffff" stroke-width="1.6" stroke-opacity="0.623529" points="1578.43,-305.4 1575.63,-297.4 1572.83,-305.4 1578.43,-305.4"/>
</a>
</g>
</g>
<!-- 59 -->
<g id="node28" class="node">
<title>59</title>
<g id="a_node28"><a xlink:title="rand_isaac v0.1.1&#10;0 B&#10;default">
<ellipse fill="#260501" stroke="#ffffff" stroke-width="1.2" cx="1717.62" cy="-281.25" rx="0.36" ry="0.36"/>
<text xml:space="preserve" text-anchor="middle" x="1717.62" y="-285.9" font-family="monospace" font-size="18.00" fill="#ffffff">rand_isaac</text>
<text xml:space="preserve" text-anchor="middle" x="1717.62" y="-264.15" font-family="monospace" font-size="18.00" fill="#ffffff">205 B</text>
</a>
</g>
</g>
<!-- 54&#45;&gt;59 -->
<g id="edge32" class="edge">
<title>54&#45;&gt;59</title>
<g id="a_edge32"><a xlink:title="rand &#45;&gt; rand_isaac">
<path fill="none" stroke="#ffffff" stroke-width="1.6" stroke-opacity="0.623529" d="M1579.72,-395.75C1599.24,-379.69 1682.94,-310.8 1709.5,-288.94"/>
<polygon fill="none" stroke="#ffffff" stroke-width="1.6" stroke-opacity="0.623529" points="1711.27,-291.1 1715.67,-283.86 1707.72,-286.78 1711.27,-291.1"/>
</a>
</g>
</g>
<!-- 60 -->
<g id="node29" class="node">
<title>60</title>
<g id="a_node29"><a xlink:title="rand_jitter v0.1.4&#10;1.42 KiB&#10;default,std">
<ellipse fill="#380503" stroke="#ffffff" stroke-width="1.2" cx="1927.62" cy="-204.75" rx="4.75" ry="4.75"/>
<text xml:space="preserve" text-anchor="middle" x="1927.62" y="-209.4" font-family="monospace" font-size="18.00" fill="#ffffff">rand_jitter</text>
<text xml:space="preserve" text-anchor="middle" x="1927.62" y="-187.65" font-family="monospace" font-size="18.00" fill="#ffffff">1.55 KiB</text>
</a>
</g>
</g>
<!-- 54&#45;&gt;60 -->
<g id="edge34" class="edge">
<title>54&#45;&gt;60</title>
<g id="a_edge34"><a xlink:title="rand &#45;&gt; rand_jitter">
<path fill="none" stroke="#ffffff" stroke-width="1.6" stroke-opacity="0.623529" d="M1581.4,-398.77C1627,-395.8 1928.29,-373.79 1981.62,-307 1995.91,-289.11 1990.82,-276.46 1981.62,-255.5 1973.14,-236.15 1953.02,-221.01 1939.88,-212.73"/>
<polygon fill="none" stroke="#ffffff" stroke-width="1.6" stroke-opacity="0.623529" points="1941.59,-210.49 1933.27,-208.85 1938.75,-215.32 1941.59,-210.49"/>
</a>
</g>
<g id="a_edge34&#45;label"><a xlink:title="rand &#45;&gt; rand_jitter">
<text xml:space="preserve" text-anchor="middle" x="1979.31" y="-336.43" font-family="monospace" font-size="13.50" fill="#ffffff">std(std)</text>
</a>
</g>
</g>
<!-- 61 -->
<g id="node30" class="node">
<title>61</title>
<g id="a_node30"><a xlink:title="rand_os v0.1.3&#10;2.22 KiB&#10;default">
<ellipse fill="#3d0404" stroke="#ffffff" stroke-width="1.2" cx="2078.62" cy="-204.75" rx="6.91" ry="6.91"/>
<text xml:space="preserve" text-anchor="middle" x="2078.62" y="-209.4" font-family="monospace" font-size="18.00" fill="#ffffff">rand_os</text>
<text xml:space="preserve" text-anchor="middle" x="2078.62" y="-187.65" font-family="monospace" font-size="18.00" fill="#ffffff">2.36 KiB</text>
</a>
</g>
</g>
<!-- 54&#45;&gt;61 -->
<g id="edge36" class="edge">
<title>54&#45;&gt;61</title>
<g id="a_edge36"><a xlink:title="rand &#45;&gt; rand_os">
<path fill="none" stroke="#ffffff" stroke-width="1.6" stroke-opacity="0.623529" d="M1581.67,-399.26C1629.39,-400.18 1945.41,-404.16 2018.62,-349.25 2060.4,-317.92 2073.3,-252.05 2077.11,-221.69"/>
<polygon fill="none" stroke="#ffffff" stroke-width="1.6" stroke-opacity="0.623529" points="2079.89,-222.01 2077.96,-213.76 2074.32,-221.41 2079.89,-222.01"/>
</a>
</g>
</g>
<!-- 62 -->
<g id="node31" class="node">
<title>62</title>
<g id="a_node31"><a xlink:title="rand_pcg v0.1.2&#10;0 B&#10;default">
<ellipse fill="#220401" stroke="#ffffff" stroke-width="1.2" cx="1247.62" cy="-204.75" rx="0.36" ry="0.36"/>
<text xml:space="preserve" text-anchor="middle" x="1247.62" y="-209.4" font-family="monospace" font-size="18.00" fill="#ffffff">rand_pcg</text>
<text xml:space="preserve" text-anchor="middle" x="1247.62" y="-187.65" font-family="monospace" font-size="18.00" fill="#ffffff">136 B</text>
</a>
</g>
</g>
<!-- 54&#45;&gt;62 -->
<g id="edge38" class="edge">
<title>54&#45;&gt;62</title>
<g id="a_edge38"><a xlink:title="rand &#45;&gt; rand_pcg">
<path fill="none" stroke="#ffffff" stroke-width="1.6" stroke-opacity="0.623529" d="M1570.56,-397.09C1558.49,-392.33 1526.99,-380.39 1499.62,-374.25 1456.14,-364.5 1335.53,-376.96 1300.62,-349.25 1257.63,-315.12 1249.51,-242.54 1247.98,-215.86"/>
<polygon fill="none" stroke="#ffffff" stroke-width="1.6" stroke-opacity="0.623529" points="1250.79,-216.14 1247.71,-208.24 1245.2,-216.34 1250.79,-216.14"/>
</a>
</g>
</g>
<!-- 63 -->
<g id="node32" class="node">
<title>63</title>
<g id="a_node32"><a xlink:title="rand_xorshift v0.1.1&#10;0 B&#10;default">
<ellipse fill="#260501" stroke="#ffffff" stroke-width="1.2" cx="1887.62" cy="-281.25" rx="0.36" ry="0.36"/>
<text xml:space="preserve" text-anchor="middle" x="1887.62" y="-285.9" font-family="monospace" font-size="18.00" fill="#ffffff">rand_xorshift</text>
<text xml:space="preserve" text-anchor="middle" x="1887.62" y="-264.15" font-family="monospace" font-size="18.00" fill="#ffffff">205 B</text>
</a>
</g>
</g>
<!-- 54&#45;&gt;63 -->
<g id="edge40" class="edge">
<title>54&#45;&gt;63</title>
<g id="a_edge40"><a xlink:title="rand &#45;&gt; rand_xorshift">
<path fill="none" stroke="#ffffff" stroke-width="1.6" stroke-opacity="0.623529" d="M1580.53,-397.29C1615.68,-384.12 1829.42,-304.05 1877.87,-285.9"/>
<polygon fill="none" stroke="#ffffff" stroke-width="1.6" stroke-opacity="0.623529" points="1878.8,-288.55 1885.31,-283.12 1876.83,-283.3 1878.8,-288.55"/>
</a>
</g>
</g>
<!-- 56 -->
<g id="node25" class="node">
<title>56</title>
<g id="a_node25"><a xlink:title="rand_core v0.3.1&#10;684 B&#10;">
<ellipse fill="#320602" stroke="#ffffff" stroke-width="1.2" cx="1627.62" cy="-128.25" rx="2.41" ry="2.41"/>
<text xml:space="preserve" text-anchor="middle" x="1627.62" y="-132.9" font-family="monospace" font-size="18.00" fill="#ffffff">rand_core</text>
<text xml:space="preserve" text-anchor="middle" x="1627.62" y="-111.15" font-family="monospace" font-size="18.00" fill="#ffffff">820 B</text>
</a>
</g>
</g>
<!-- 55&#45;&gt;56 -->
<g id="edge27" class="edge">
<title>55&#45;&gt;56</title>
<g id="a_edge27"><a xlink:title="rand_chacha &#45;&gt; rand_core">
<path fill="none" stroke="#ffffff" stroke-width="1.6" stroke-opacity="0.623529" d="M1435.22,-274.52C1466.37,-251 1584.27,-161.99 1618.35,-136.26"/>
<polygon fill="none" stroke="#ffffff" stroke-width="1.6" stroke-opacity="0.623529" points="1620,-138.52 1624.69,-131.46 1616.62,-134.05 1620,-138.52"/>
</a>
</g>
</g>
<!-- 56&#45;&gt;57 -->
<g id="edge28" class="edge">
<title>56&#45;&gt;57</title>
<g id="a_edge28"><a xlink:title="rand_core &#45;&gt; rand_core">
<path fill="none" stroke="#ffffff" stroke-width="1.6" stroke-opacity="0.623529" d="M1627.62,-126.12C1627.62,-117.58 1627.62,-62.79 1627.62,-38.42"/>
<polygon fill="none" stroke="#ffffff" stroke-width="1.6" stroke-opacity="0.623529" points="1630.43,-38.42 1627.63,-30.42 1624.83,-38.42 1630.43,-38.42"/>
</a>
</g>
</g>
<!-- 58&#45;&gt;56 -->
<g id="edge31" class="edge">
<title>58&#45;&gt;56</title>
<g id="a_edge31"><a xlink:title="rand_hc &#45;&gt; rand_core">
<path fill="none" stroke="#ffffff" stroke-width="1.6" stroke-opacity="0.623529" d="M1579.79,-268.15C1589.69,-239.41 1614.48,-167.43 1623.91,-140.05"/>
<polygon fill="none" stroke="#ffffff" stroke-width="1.6" stroke-opacity="0.623529" points="1626.48,-141.18 1626.43,-132.71 1621.18,-139.36 1626.48,-141.18"/>
</a>
</g>
</g>
<!-- 59&#45;&gt;56 -->
<g id="edge33" class="edge">
<title>59&#45;&gt;56</title>
<g id="a_edge33"><a xlink:title="rand_isaac &#45;&gt; rand_core">
<path fill="none" stroke="#ffffff" stroke-width="1.6" stroke-opacity="0.623529" d="M1717.56,-280.14C1715.27,-276.29 1653.09,-171.97 1633.48,-139.08"/>
<polygon fill="none" stroke="#ffffff" stroke-width="1.6" stroke-opacity="0.623529" points="1636.12,-138.03 1629.62,-132.6 1631.31,-140.9 1636.12,-138.03"/>
</a>
</g>
</g>
<!-- 60&#45;&gt;57 -->
<g id="edge35" class="edge">
<title>60&#45;&gt;57</title>
<g id="a_edge35"><a xlink:title="rand_jitter &#45;&gt; rand_core">
<path fill="none" stroke="#ffffff" stroke-width="1.6" stroke-opacity="0.623529" d="M1924.26,-201.76C1895.18,-184.61 1686.51,-61.49 1637.78,-32.74"/>
<polygon fill="none" stroke="#ffffff" stroke-width="1.6" stroke-opacity="0.623529" points="1639.44,-30.47 1631.13,-28.82 1636.6,-35.3 1639.44,-30.47"/>
</a>
</g>
<g id="a_edge35&#45;label"><a xlink:title="rand_jitter &#45;&gt; rand_core">
<text xml:space="preserve" text-anchor="middle" x="1876.1" y="-124.05" font-family="monospace" font-size="13.50" fill="#ffffff">std(std)</text>
</a>
</g>
</g>
<!-- 61&#45;&gt;57 -->
<g id="edge37" class="edge">
<title>61&#45;&gt;57</title>
<g id="a_edge37"><a xlink:title="rand_os &#45;&gt; rand_core">
<path fill="none" stroke="#ffffff" stroke-width="1.6" stroke-opacity="0.623529" d="M2073.82,-200.03C2054.77,-185.44 1982.27,-131.54 1914.62,-102.5 1812.97,-58.85 1679.97,-35.14 1639.69,-28.62"/>
<polygon fill="none" stroke="#ffffff" stroke-width="1.6" stroke-opacity="0.623529" points="1640.25,-25.87 1631.91,-27.4 1639.38,-31.41 1640.25,-25.87"/>
</a>
</g>
</g>
<!-- 62&#45;&gt;57 -->
<g id="edge39" class="edge">
<title>62&#45;&gt;57</title>
<g id="a_edge39"><a xlink:title="rand_pcg &#45;&gt; rand_core">
<path fill="none" stroke="#ffffff" stroke-width="1.6" stroke-opacity="0.623529" d="M1247.63,-203.68C1248.04,-200.95 1261.29,-113.24 1311.62,-76.5 1361.55,-40.06 1563.56,-29.38 1615.44,-27.21"/>
<polygon fill="none" stroke="#ffffff" stroke-width="1.6" stroke-opacity="0.623529" points="1615.38,-30.01 1623.26,-26.91 1615.16,-24.42 1615.38,-30.01"/>
</a>
</g>
</g>
<!-- 63&#45;&gt;56 -->
<g id="edge41" class="edge">
<title>63&#45;&gt;56</title>
<g id="a_edge41"><a xlink:title="rand_xorshift &#45;&gt; rand_core">
<path fill="none" stroke="#ffffff" stroke-width="1.6" stroke-opacity="0.623529" d="M1887.58,-280.22C1884.06,-278.18 1685.32,-162.76 1637.77,-135.14"/>
<polygon fill="none" stroke="#ffffff" stroke-width="1.6" stroke-opacity="0.623529" points="1639.18,-132.73 1630.86,-131.13 1636.37,-137.57 1639.18,-132.73"/>
</a>
</g>
</g>
<!-- 65 -->
<g id="node33" class="node">
<title>65</title>
<g id="a_node33"><a xlink:title="std &#10;406.04 KiB&#10;">
<ellipse fill="#f98cff" stroke="#ffffff" stroke-width="1.2" cx="992.62" cy="-697.4" rx="72.39" ry="72.39"/>
<text xml:space="preserve" text-anchor="middle" x="992.62" y="-702.05" font-family="monospace" font-size="18.00" fill="#ffffff">std</text>
<text xml:space="preserve" text-anchor="middle" x="992.62" y="-680.3" font-family="monospace" font-size="18.00" fill="#ffffff">406.04 KiB</text>
</a>
</g>
</g>
</g>
</svg>
