<?xml version="1.0" encoding="UTF-8" standalone="no"?>
<!DOCTYPE svg PUBLIC "-//W3C//DTD SVG 1.1//EN"
 "http://www.w3.org/Graphics/SVG/1.1/DTD/svg11.dtd">
<!-- Generated by graphviz version 13.1.2 (20250808.2320)
 -->
<!-- Pages: 1 -->
<svg width="2175pt" height="914pt"
 viewBox="0.00 0.00 2175.00 914.00" xmlns="http://www.w3.org/2000/svg" xmlns:xlink="http://www.w3.org/1999/xlink">
<g id="graph0" class="graph" transform="scale(1 1) rotate(0) translate(72 841.69)">
<polygon fill="#000000" stroke="none" points="-72,72 -72,-841.69 2102.62,-841.69 2102.62,72 -72,72"/>
<!-- 0 -->
<g id="node1" class="node">
<title>0</title>
<g id="a_node1"><a xlink:title="hyperfine v1.20.0 (/home/my4ng/Programming/hyperfine)&#10;202.97 KiB&#10;">
<ellipse fill="#dd95ff" stroke="#ffffff" stroke-width="1.2" cx="793.62" cy="-697.3" rx="61.7" ry="61.7"/>
<text xml:space="preserve" text-anchor="middle" x="793.62" y="-701.95" font-family="monospace" font-size="18.00" fill="#ffffff">hyperfine</text>
<text xml:space="preserve" text-anchor="middle" x="793.62" y="-680.2" font-family="monospace" font-size="18.00" fill="#ffffff">590.65 KiB</text>
</a>
</g>
</g>
<!-- 1 -->
<g id="node2" class="node">
<title>1</title>
<g id="a_node2"><a xlink:title="anyhow v1.0.100&#10;13.15 KiB&#10;default(std),std">
<ellipse fill="#670620" stroke="#ffffff" stroke-width="1.2" cx="229.62" cy="-533.54" rx="22.76" ry="22.76"/>
<text xml:space="preserve" text-anchor="middle" x="229.62" y="-538.19" font-family="monospace" font-size="18.00" fill="#ffffff">anyhow</text>
<text xml:space="preserve" text-anchor="middle" x="229.62" y="-516.44" font-family="monospace" font-size="18.00" fill="#ffffff">13.15 KiB</text>
</a>
</g>
</g>
<!-- 0&#45;&gt;1 -->
<g id="edge1" class="edge">
<title>0&#45;&gt;1</title>
<g id="a_edge1"><a xlink:title="hyperfine &#45;&gt; anyhow">
<path fill="none" stroke="#ffffff" stroke-width="1.6" stroke-opacity="0.623529" d="M733.25,-686.6C638.71,-670.26 451.01,-633.09 300.62,-573.91 285.53,-567.98 269.66,-559.42 256.76,-551.8"/>
<polygon fill="none" stroke="#ffffff" stroke-width="1.6" stroke-opacity="0.623529" points="258.32,-549.47 250.02,-547.72 255.42,-554.26 258.32,-549.47"/>
</a>
</g>
</g>
<!-- 17 -->
<g id="node3" class="node">
<title>17</title>
<g id="a_node3"><a xlink:title="colored v2.2.0&#10;8.62 KiB&#10;default">
<ellipse fill="#590516" stroke="#ffffff" stroke-width="1.2" cx="366.62" cy="-533.54" rx="17.97" ry="17.97"/>
<text xml:space="preserve" text-anchor="middle" x="366.62" y="-538.19" font-family="monospace" font-size="18.00" fill="#ffffff">colored</text>
<text xml:space="preserve" text-anchor="middle" x="366.62" y="-516.44" font-family="monospace" font-size="18.00" fill="#ffffff">8.62 KiB</text>
</a>
</g>
</g>
<!-- 0&#45;&gt;17 -->
<g id="edge2" class="edge">
<title>0&#45;&gt;17</title>
<g id="a_edge2"><a xlink:title="hyperfine &#45;&gt; colored">
<path fill="none" stroke="#ffffff" stroke-width="1.6" stroke-opacity="0.623529" d="M734.32,-680.38C661.56,-659.9 535.22,-621.27 432.62,-573.91 417.61,-566.99 401.67,-557.54 389.21,-549.63"/>
<polygon fill="none" stroke="#ffffff" stroke-width="1.6" stroke-opacity="0.623529" points="391.09,-547.52 382.86,-545.52 388.05,-552.22 391.09,-547.52"/>
</a>
</g>
</g>
<!-- 19 -->
<g id="node4" class="node">
<title>19</title>
<g id="a_node4"><a xlink:title="csv v1.4.0&#10;4.83 KiB&#10;default">
<ellipse fill="#590516" stroke="#ffffff" stroke-width="1.2" cx="651.62" cy="-533.54" rx="12.39" ry="12.39"/>
<text xml:space="preserve" text-anchor="middle" x="651.62" y="-538.19" font-family="monospace" font-size="18.00" fill="#ffffff">csv</text>
<text xml:space="preserve" text-anchor="middle" x="651.62" y="-516.44" font-family="monospace" font-size="18.00" fill="#ffffff">8.68 KiB</text>
</a>
</g>
</g>
<!-- 0&#45;&gt;19 -->
<g id="edge3" class="edge">
<title>0&#45;&gt;19</title>
<g id="a_edge3"><a xlink:title="hyperfine &#45;&gt; csv">
<path fill="none" stroke="#ffffff" stroke-width="1.6" stroke-opacity="0.623529" d="M753.69,-650.81C724.32,-617.35 686.12,-573.83 665.8,-550.68"/>
<polygon fill="none" stroke="#ffffff" stroke-width="1.6" stroke-opacity="0.623529" points="668.15,-549.11 660.77,-544.95 663.94,-552.81 668.15,-549.11"/>
</a>
</g>
</g>
<!-- 25 -->
<g id="node8" class="node">
<title>25</title>
<g id="a_node8"><a xlink:title="indicatif v0.17.4&#10;48.93 KiB&#10;default(unicode&#45;width),unicode&#45;width">
<ellipse fill="#b91a6d" stroke="#ffffff" stroke-width="1.2" cx="503.62" cy="-533.54" rx="40.38" ry="40.38"/>
<text xml:space="preserve" text-anchor="middle" x="503.62" y="-538.19" font-family="monospace" font-size="18.00" fill="#ffffff">indicatif</text>
<text xml:space="preserve" text-anchor="middle" x="503.62" y="-516.44" font-family="monospace" font-size="18.00" fill="#ffffff">67.71 KiB</text>
</a>
</g>
</g>
<!-- 0&#45;&gt;25 -->
<g id="edge7" class="edge">
<title>0&#45;&gt;25</title>
<g id="a_edge7"><a xlink:title="hyperfine &#45;&gt; indicatif">
<path fill="none" stroke="#ffffff" stroke-width="1.6" stroke-opacity="0.623529" d="M740.43,-666.63C684.9,-635.66 598.85,-587.65 547.2,-558.84"/>
<polygon fill="none" stroke="#ffffff" stroke-width="1.6" stroke-opacity="0.623529" points="548.75,-556.5 540.4,-555.05 546.02,-561.39 548.75,-556.5"/>
</a>
</g>
</g>
<!-- 35 -->
<g id="node14" class="node">
<title>35</title>
<g id="a_node14"><a xlink:title="rand v0.8.5&#10;1.92 KiB&#10;alloc,default(std,std_rng),getrandom,libc,rand_chacha,std(alloc,getrandom,libc,rand_chacha),std_rng">
<ellipse fill="#5b0517" stroke="#ffffff" stroke-width="1.2" cx="1112.62" cy="-533.54" rx="6.12" ry="6.12"/>
<text xml:space="preserve" text-anchor="middle" x="1112.62" y="-538.19" font-family="monospace" font-size="18.00" fill="#ffffff">rand</text>
<text xml:space="preserve" text-anchor="middle" x="1112.62" y="-516.44" font-family="monospace" font-size="18.00" fill="#ffffff">9.16 KiB</text>
</a>
</g>
</g>
<!-- 0&#45;&gt;35 -->
<g id="edge13" class="edge">
<title>0&#45;&gt;35</title>
<g id="a_edge13"><a xlink:title="hyperfine &#45;&gt; rand">
<path fill="none" stroke="#ffffff" stroke-width="1.6" stroke-opacity="0.623529" d="M834.77,-651.65C845.65,-641.76 857.93,-632.1 870.62,-624.91 941.51,-584.82 971.93,-606.38 1046.62,-573.91 1066.13,-565.44 1086.93,-552.25 1099.85,-543.51"/>
<polygon fill="none" stroke="#ffffff" stroke-width="1.6" stroke-opacity="0.623529" points="1101.38,-545.85 1106.36,-539 1098.19,-541.25 1101.38,-545.85"/>
</a>
</g>
</g>
<!-- 41 -->
<g id="node18" class="node">
<title>41</title>
<g id="a_node18"><a xlink:title="rust_decimal v1.39.0&#10;9.95 KiB&#10;default(serde,std),serde,std">
<ellipse fill="#5d0418" stroke="#ffffff" stroke-width="1.2" cx="958.62" cy="-533.54" rx="19.53" ry="19.53"/>
<text xml:space="preserve" text-anchor="middle" x="958.62" y="-538.19" font-family="monospace" font-size="18.00" fill="#ffffff">rust_decimal</text>
<text xml:space="preserve" text-anchor="middle" x="958.62" y="-516.44" font-family="monospace" font-size="18.00" fill="#ffffff">10.05 KiB</text>
</a>
</g>
</g>
<!-- 0&#45;&gt;41 -->
<g id="edge18" class="edge">
<title>0&#45;&gt;41</title>
<g id="a_edge18"><a xlink:title="hyperfine &#45;&gt; rust_decimal">
<path fill="none" stroke="#ffffff" stroke-width="1.6" stroke-opacity="0.623529" d="M836.98,-653.8C869.69,-621.73 913.08,-579.19 938.22,-554.54"/>
<polygon fill="none" stroke="#ffffff" stroke-width="1.6" stroke-opacity="0.623529" points="939.92,-556.79 943.68,-549.19 936,-552.79 939.92,-556.79"/>
</a>
</g>
</g>
<!-- 45 -->
<g id="node20" class="node">
<title>45</title>
<g id="a_node20"><a xlink:title="serde_json v1.0.145&#10;3.04 KiB&#10;default(std),std">
<ellipse fill="#4d040d" stroke="#ffffff" stroke-width="1.2" cx="793.62" cy="-533.54" rx="8.83" ry="8.83"/>
<text xml:space="preserve" text-anchor="middle" x="793.62" y="-538.19" font-family="monospace" font-size="18.00" fill="#ffffff">serde_json</text>
<text xml:space="preserve" text-anchor="middle" x="793.62" y="-516.44" font-family="monospace" font-size="18.00" fill="#ffffff">5.34 KiB</text>
</a>
</g>
</g>
<!-- 0&#45;&gt;45 -->
<g id="edge20" class="edge">
<title>0&#45;&gt;45</title>
<g id="a_edge20"><a xlink:title="hyperfine &#45;&gt; serde_json">
<path fill="none" stroke="#ffffff" stroke-width="1.6" stroke-opacity="0.623529" d="M793.62,-635.61C793.62,-606.07 793.62,-572.69 793.62,-552.65"/>
<polygon fill="none" stroke="#ffffff" stroke-width="1.6" stroke-opacity="0.623529" points="796.43,-552.7 793.63,-544.7 790.83,-552.7 796.43,-552.7"/>
</a>
</g>
</g>
<!-- 46 -->
<g id="node21" class="node">
<title>46</title>
<g id="a_node21"><a xlink:title="shell_words v1.1.0&#10;2.59 KiB&#10;default(std),std">
<ellipse fill="#3d0303" stroke="#ffffff" stroke-width="1.2" cx="1260.62" cy="-533.54" rx="7.8" ry="7.8"/>
<text xml:space="preserve" text-anchor="middle" x="1260.62" y="-538.19" font-family="monospace" font-size="18.00" fill="#ffffff">shell_words</text>
<text xml:space="preserve" text-anchor="middle" x="1260.62" y="-516.44" font-family="monospace" font-size="18.00" fill="#ffffff">2.59 KiB</text>
</a>
</g>
</g>
<!-- 0&#45;&gt;46 -->
<g id="edge23" class="edge">
<title>0&#45;&gt;46</title>
<g id="a_edge23"><a xlink:title="hyperfine &#45;&gt; shell_words">
<path fill="none" stroke="#ffffff" stroke-width="1.6" stroke-opacity="0.623529" d="M833.79,-650.95C844.79,-640.95 857.37,-631.42 870.62,-624.91 932.71,-594.45 1111.63,-594.6 1177.62,-573.91 1202.34,-566.16 1229.11,-552.4 1245.37,-543.37"/>
<polygon fill="none" stroke="#ffffff" stroke-width="1.6" stroke-opacity="0.623529" points="1246.74,-545.81 1252.31,-539.43 1243.97,-540.94 1246.74,-545.81"/>
</a>
</g>
</g>
<!-- 47 -->
<g id="node22" class="node">
<title>47</title>
<g id="a_node22"><a xlink:title="statistical v1.0.0&#10;1022 B&#10;default">
<ellipse fill="#720729" stroke="#ffffff" stroke-width="1.2" cx="1465.62" cy="-533.54" rx="3.48" ry="3.48"/>
<text xml:space="preserve" text-anchor="middle" x="1465.62" y="-538.19" font-family="monospace" font-size="18.00" fill="#ffffff">statistical</text>
<text xml:space="preserve" text-anchor="middle" x="1465.62" y="-516.44" font-family="monospace" font-size="18.00" fill="#ffffff">17.33 KiB</text>
</a>
</g>
</g>
<!-- 0&#45;&gt;47 -->
<g id="edge24" class="edge">
<title>0&#45;&gt;47</title>
<g id="a_edge24"><a xlink:title="hyperfine &#45;&gt; statistical">
<path fill="none" stroke="#ffffff" stroke-width="1.6" stroke-opacity="0.623529" d="M833.54,-650.42C844.55,-640.43 857.19,-631.04 870.62,-624.91 918.63,-603.04 1291.02,-584.85 1342.62,-573.91 1384.26,-565.1 1431.77,-547.71 1453.56,-539.3"/>
<polygon fill="none" stroke="#ffffff" stroke-width="1.6" stroke-opacity="0.623529" points="1454.32,-542.01 1460.74,-536.48 1452.27,-536.8 1454.32,-542.01"/>
</a>
</g>
</g>
<!-- 20 -->
<g id="node5" class="node">
<title>20</title>
<g id="a_node5"><a xlink:title="csv_core v0.1.13&#10;1.53 KiB&#10;default">
<ellipse fill="#3d0305" stroke="#ffffff" stroke-width="1.2" cx="651.62" cy="-400.08" rx="5.07" ry="5.07"/>
<text xml:space="preserve" text-anchor="middle" x="651.62" y="-404.73" font-family="monospace" font-size="18.00" fill="#ffffff">csv_core</text>
<text xml:space="preserve" text-anchor="middle" x="651.62" y="-382.98" font-family="monospace" font-size="18.00" fill="#ffffff">2.50 KiB</text>
</a>
</g>
</g>
<!-- 19&#45;&gt;20 -->
<g id="edge4" class="edge">
<title>19&#45;&gt;20</title>
<g id="a_edge4"><a xlink:title="csv &#45;&gt; csv_core">
<path fill="none" stroke="#ffffff" stroke-width="1.6" stroke-opacity="0.623529" d="M651.62,-521.33C651.62,-497.42 651.62,-441.48 651.62,-415.19"/>
<polygon fill="none" stroke="#ffffff" stroke-width="1.6" stroke-opacity="0.623529" points="654.43,-415.36 651.63,-407.36 648.83,-415.36 654.43,-415.36"/>
</a>
</g>
</g>
<!-- 23 -->
<g id="node7" class="node">
<title>23</title>
<g id="a_node7"><a xlink:title="ryu v1.0.20&#10;2.69 KiB&#10;default">
<ellipse fill="#3f0405" stroke="#ffffff" stroke-width="1.2" cx="782.62" cy="-400.08" rx="8.03" ry="8.03"/>
<text xml:space="preserve" text-anchor="middle" x="782.62" y="-404.73" font-family="monospace" font-size="18.00" fill="#ffffff">ryu</text>
<text xml:space="preserve" text-anchor="middle" x="782.62" y="-382.98" font-family="monospace" font-size="18.00" fill="#ffffff">2.69 KiB</text>
</a>
</g>
</g>
<!-- 19&#45;&gt;23 -->
<g id="edge6" class="edge">
<title>19&#45;&gt;23</title>
<g id="a_edge6"><a xlink:title="csv &#45;&gt; ryu">
<path fill="none" stroke="#ffffff" stroke-width="1.6" stroke-opacity="0.623529" d="M659.82,-524.31C682.06,-502 743.65,-440.19 770.19,-413.55"/>
<polygon fill="none" stroke="#ffffff" stroke-width="1.6" stroke-opacity="0.623529" points="772.11,-415.59 775.78,-407.95 768.14,-411.64 772.11,-415.59"/>
</a>
</g>
</g>
<!-- 21 -->
<g id="node6" class="node">
<title>21</title>
<g id="a_node6"><a xlink:title="memchr v2.7.6&#10;1.93 KiB&#10;alloc,std(alloc)">
<ellipse fill="#3b0504" stroke="#ffffff" stroke-width="1.2" cx="819.62" cy="-281.25" rx="6.17" ry="6.17"/>
<text xml:space="preserve" text-anchor="middle" x="819.62" y="-285.9" font-family="monospace" font-size="18.00" fill="#ffffff">memchr</text>
<text xml:space="preserve" text-anchor="middle" x="819.62" y="-264.15" font-family="monospace" font-size="18.00" fill="#ffffff">1.93 KiB</text>
</a>
</g>
</g>
<!-- 20&#45;&gt;21 -->
<g id="edge5" class="edge">
<title>20&#45;&gt;21</title>
<g id="a_edge5"><a xlink:title="csv_core &#45;&gt; memchr">
<path fill="none" stroke="#ffffff" stroke-width="1.6" stroke-opacity="0.623529" d="M655.13,-396.64C674.78,-382.98 771.47,-315.74 806.73,-291.22"/>
<polygon fill="none" stroke="#ffffff" stroke-width="1.6" stroke-opacity="0.623529" points="808.28,-293.55 813.25,-286.68 805.09,-288.95 808.28,-293.55"/>
</a>
</g>
</g>
<!-- 26 -->
<g id="node9" class="node">
<title>26</title>
<g id="a_node9"><a xlink:title="console v0.15.11&#10;16.87 KiB&#10;ansi&#45;parsing,unicode&#45;width">
<ellipse fill="#75062a" stroke="#ffffff" stroke-width="1.2" cx="140.62" cy="-400.08" rx="25.83" ry="25.83"/>
<text xml:space="preserve" text-anchor="middle" x="140.62" y="-404.73" font-family="monospace" font-size="18.00" fill="#ffffff">console</text>
<text xml:space="preserve" text-anchor="middle" x="140.62" y="-382.98" font-family="monospace" font-size="18.00" fill="#ffffff">18.23 KiB</text>
</a>
</g>
</g>
<!-- 25&#45;&gt;26 -->
<g id="edge8" class="edge">
<title>25&#45;&gt;26</title>
<g id="a_edge8"><a xlink:title="indicatif &#45;&gt; console">
<path fill="none" stroke="#ffffff" stroke-width="1.6" stroke-opacity="0.623529" d="M470.15,-511.63C458.32,-504.96 444.7,-498.04 431.62,-493.16 382.73,-474.89 366.91,-483.04 316.88,-468.16 265.67,-452.93 208.14,-429.86 173.15,-415.14"/>
<polygon fill="none" stroke="#ffffff" stroke-width="1.6" stroke-opacity="0.623529" points="174.59,-412.71 166.13,-412.16 172.41,-417.86 174.59,-412.71"/>
</a>
</g>
<g id="a_edge8&#45;label"><a xlink:title="indicatif &#45;&gt; console">
<text xml:space="preserve" text-anchor="middle" x="345.75" y="-455.33" font-family="monospace" font-size="13.50" fill="#ffffff">default</text>
</a>
</g>
</g>
<!-- 30 -->
<g id="node12" class="node">
<title>30</title>
<g id="a_node12"><a xlink:title="number_prefix v0.4.0&#10;135 B&#10;default(std),std">
<ellipse fill="#220401" stroke="#ffffff" stroke-width="1.2" cx="492.62" cy="-400.08" rx="0.51" ry="0.51"/>
<text xml:space="preserve" text-anchor="middle" x="492.62" y="-404.73" font-family="monospace" font-size="18.00" fill="#ffffff">number_prefix</text>
<text xml:space="preserve" text-anchor="middle" x="492.62" y="-382.98" font-family="monospace" font-size="18.00" fill="#ffffff">135 B</text>
</a>
</g>
</g>
<!-- 25&#45;&gt;30 -->
<g id="edge11" class="edge">
<title>25&#45;&gt;30</title>
<g id="a_edge11"><a xlink:title="indicatif &#45;&gt; number_prefix">
<path fill="none" stroke="#ffffff" stroke-width="1.6" stroke-opacity="0.623529" d="M500.35,-493.45C497.99,-465.15 494.95,-428.92 493.49,-411.43"/>
<polygon fill="none" stroke="#ffffff" stroke-width="1.6" stroke-opacity="0.623529" points="496.3,-411.38 492.84,-403.65 490.72,-411.85 496.3,-411.38"/>
</a>
</g>
</g>
<!-- 32 -->
<g id="node13" class="node">
<title>32</title>
<g id="a_node13"><a xlink:title="unicode_width v0.1.14&#10;425 B&#10;cjk,default(cjk)">
<ellipse fill="#2c0702" stroke="#ffffff" stroke-width="1.2" cx="305.62" cy="-400.08" rx="1.54" ry="1.54"/>
<text xml:space="preserve" text-anchor="middle" x="305.62" y="-404.73" font-family="monospace" font-size="18.00" fill="#ffffff">unicode_width</text>
<text xml:space="preserve" text-anchor="middle" x="305.62" y="-382.98" font-family="monospace" font-size="18.00" fill="#ffffff">425 B</text>
</a>
</g>
</g>
<!-- 25&#45;&gt;32 -->
<g id="edge12" class="edge">
<title>25&#45;&gt;32</title>
<g id="a_edge12"><a xlink:title="indicatif &#45;&gt; unicode_width">
<path fill="none" stroke="#ffffff" stroke-width="1.6" stroke-opacity="0.623529" d="M470.48,-510.53C423.77,-479.52 341.26,-424.74 314.36,-406.88"/>
<polygon fill="none" stroke="#ffffff" stroke-width="1.6" stroke-opacity="0.623529" points="316.17,-404.72 307.96,-402.63 313.07,-409.38 316.17,-404.72"/>
</a>
</g>
</g>
<!-- 28 -->
<g id="node10" class="node">
<title>28</title>
<g id="a_node10"><a xlink:title="once_cell v1.21.3&#10;968 B&#10;alloc(race),default(std),race,std(alloc)">
<ellipse fill="#320502" stroke="#ffffff" stroke-width="1.2" cx="58.62" cy="-281.25" rx="3.32" ry="3.32"/>
<text xml:space="preserve" text-anchor="middle" x="58.62" y="-285.9" font-family="monospace" font-size="18.00" fill="#ffffff">once_cell</text>
<text xml:space="preserve" text-anchor="middle" x="58.62" y="-264.15" font-family="monospace" font-size="18.00" fill="#ffffff">968 B</text>
</a>
</g>
</g>
<!-- 26&#45;&gt;28 -->
<g id="edge9" class="edge">
<title>26&#45;&gt;28</title>
<g id="a_edge9"><a xlink:title="console &#45;&gt; once_cell">
<path fill="none" stroke="#ffffff" stroke-width="1.6" stroke-opacity="0.623529" d="M126.34,-378.73C108.7,-353.59 79.36,-311.79 65.85,-292.54"/>
<polygon fill="none" stroke="#ffffff" stroke-width="1.6" stroke-opacity="0.623529" points="68.2,-291.02 61.32,-286.08 63.62,-294.24 68.2,-291.02"/>
</a>
</g>
</g>
<!-- 29 -->
<g id="node11" class="node">
<title>29</title>
<g id="a_node11"><a xlink:title="unicode_width v0.2.2&#10;425 B&#10;cjk,default(cjk)">
<ellipse fill="#2c0702" stroke="#ffffff" stroke-width="1.2" cx="223.62" cy="-281.25" rx="1.54" ry="1.54"/>
<text xml:space="preserve" text-anchor="middle" x="223.62" y="-285.9" font-family="monospace" font-size="18.00" fill="#ffffff">unicode_width</text>
<text xml:space="preserve" text-anchor="middle" x="223.62" y="-264.15" font-family="monospace" font-size="18.00" fill="#ffffff">425 B</text>
</a>
</g>
</g>
<!-- 26&#45;&gt;29 -->
<g id="edge10" class="edge">
<title>26&#45;&gt;29</title>
<g id="a_edge10"><a xlink:title="console &#45;&gt; unicode_width">
<path fill="none" stroke="#ffffff" stroke-width="1.6" stroke-opacity="0.623529" d="M155.08,-378.73C173.41,-352.93 204.2,-309.59 217.36,-291.07"/>
<polygon fill="none" stroke="#ffffff" stroke-width="1.6" stroke-opacity="0.623529" points="219.58,-292.77 221.93,-284.63 215.02,-289.53 219.58,-292.77"/>
</a>
</g>
</g>
<!-- 36 -->
<g id="node15" class="node">
<title>36</title>
<g id="a_node15"><a xlink:title="rand_chacha v0.3.1&#10;3.76 KiB&#10;std">
<ellipse fill="#4e050e" stroke="#ffffff" stroke-width="1.2" cx="1343.62" cy="-400.08" rx="10.36" ry="10.36"/>
<text xml:space="preserve" text-anchor="middle" x="1343.62" y="-404.73" font-family="monospace" font-size="18.00" fill="#ffffff">rand_chacha</text>
<text xml:space="preserve" text-anchor="middle" x="1343.62" y="-382.98" font-family="monospace" font-size="18.00" fill="#ffffff">5.50 KiB</text>
</a>
</g>
</g>
<!-- 35&#45;&gt;36 -->
<g id="edge14" class="edge">
<title>35&#45;&gt;36</title>
<g id="a_edge14"><a xlink:title="rand &#45;&gt; rand_chacha">
<path fill="none" stroke="#ffffff" stroke-width="1.6" stroke-opacity="0.623529" d="M1117.08,-529.82C1127.68,-523.36 1155.28,-506.63 1178.62,-493.16 1231.97,-462.36 1295.83,-427.2 1326.08,-410.65"/>
<polygon fill="none" stroke="#ffffff" stroke-width="1.6" stroke-opacity="0.623529" points="1327.18,-413.24 1332.86,-406.94 1324.5,-408.32 1327.18,-413.24"/>
</a>
</g>
<g id="a_edge14&#45;label"><a xlink:title="rand &#45;&gt; rand_chacha">
<text xml:space="preserve" text-anchor="middle" x="1263.16" y="-455.33" font-family="monospace" font-size="13.50" fill="#ffffff">std</text>
</a>
</g>
</g>
<!-- 39 -->
<g id="node16" class="node">
<title>39</title>
<g id="a_node16"><a xlink:title="rand_core v0.6.4&#10;684 B&#10;alloc,default,getrandom,std">
<ellipse fill="#440408" stroke="#ffffff" stroke-width="1.2" cx="1091.62" cy="-281.25" rx="2.41" ry="2.41"/>
<text xml:space="preserve" text-anchor="middle" x="1091.62" y="-285.9" font-family="monospace" font-size="18.00" fill="#ffffff">rand_core</text>
<text xml:space="preserve" text-anchor="middle" x="1091.62" y="-264.15" font-family="monospace" font-size="18.00" fill="#ffffff">3.49 KiB</text>
</a>
</g>
</g>
<!-- 35&#45;&gt;39 -->
<g id="edge17" class="edge">
<title>35&#45;&gt;39</title>
<g id="a_edge17"><a xlink:title="rand &#45;&gt; rand_core">
<path fill="none" stroke="#ffffff" stroke-width="1.6" stroke-opacity="0.623529" d="M1112.22,-527.76C1109.73,-498.06 1096.35,-338.52 1092.6,-293.87"/>
<polygon fill="none" stroke="#ffffff" stroke-width="1.6" stroke-opacity="0.623529" points="1095.4,-293.75 1091.94,-286.01 1089.82,-294.22 1095.4,-293.75"/>
</a>
</g>
<g id="a_edge17&#45;label"><a xlink:title="rand &#45;&gt; rand_core">
<text xml:space="preserve" text-anchor="middle" x="1181.9" y="-395.88" font-family="monospace" font-size="13.50" fill="#ffffff">alloc,getrandom,std</text>
</a>
</g>
</g>
<!-- 36&#45;&gt;39 -->
<g id="edge15" class="edge">
<title>36&#45;&gt;39</title>
<g id="a_edge15"><a xlink:title="rand_chacha &#45;&gt; rand_core">
<path fill="none" stroke="#ffffff" stroke-width="1.6" stroke-opacity="0.623529" d="M1334.05,-396.37C1299.37,-386.53 1182.01,-353.12 1174.62,-349.25 1144.01,-333.2 1113.91,-304.93 1099.85,-290.79"/>
<polygon fill="none" stroke="#ffffff" stroke-width="1.6" stroke-opacity="0.623529" points="1101.93,-288.92 1094.36,-285.12 1097.91,-292.82 1101.93,-288.92"/>
</a>
</g>
</g>
<!-- 40 -->
<g id="node17" class="node">
<title>40</title>
<g id="a_node17"><a xlink:title="getrandom v0.2.16&#10;2.82 KiB&#10;default,std">
<ellipse fill="#3f0405" stroke="#ffffff" stroke-width="1.2" cx="1087.62" cy="-128.25" rx="8.35" ry="8.35"/>
<text xml:space="preserve" text-anchor="middle" x="1087.62" y="-132.9" font-family="monospace" font-size="18.00" fill="#ffffff">getrandom</text>
<text xml:space="preserve" text-anchor="middle" x="1087.62" y="-111.15" font-family="monospace" font-size="18.00" fill="#ffffff">2.82 KiB</text>
</a>
</g>
</g>
<!-- 39&#45;&gt;40 -->
<g id="edge16" class="edge">
<title>39&#45;&gt;40</title>
<g id="a_edge16"><a xlink:title="rand_core &#45;&gt; getrandom">
<path fill="none" stroke="#ffffff" stroke-width="1.6" stroke-opacity="0.623529" d="M1091.23,-279.04C1089.45,-273.53 1082.18,-250.25 1079.88,-230.5 1077.23,-207.76 1078.11,-201.82 1079.88,-179 1080.72,-168.1 1082.59,-155.97 1084.28,-146.41"/>
<polygon fill="none" stroke="#ffffff" stroke-width="1.6" stroke-opacity="0.623529" points="1087.01,-147.05 1085.73,-138.68 1081.51,-146.02 1087.01,-147.05"/>
</a>
</g>
<g id="a_edge16&#45;label"><a xlink:title="rand_core &#45;&gt; getrandom">
<text xml:space="preserve" text-anchor="middle" x="1092.25" y="-200.55" font-family="monospace" font-size="13.50" fill="#ffffff">std</text>
</a>
</g>
</g>
<!-- 42 -->
<g id="node19" class="node">
<title>42</title>
<g id="a_node19"><a xlink:title="arrayvec v0.7.6&#10;99 B&#10;std">
<ellipse fill="#200401" stroke="#ffffff" stroke-width="1.2" cx="988.62" cy="-400.08" rx="0.37" ry="0.37"/>
<text xml:space="preserve" text-anchor="middle" x="988.62" y="-404.73" font-family="monospace" font-size="18.00" fill="#ffffff">arrayvec</text>
<text xml:space="preserve" text-anchor="middle" x="988.62" y="-382.98" font-family="monospace" font-size="18.00" fill="#ffffff">99 B</text>
</a>
</g>
</g>
<!-- 41&#45;&gt;42 -->
<g id="edge19" class="edge">
<title>41&#45;&gt;42</title>
<g id="a_edge19"><a xlink:title="rust_decimal &#45;&gt; arrayvec">
<path fill="none" stroke="#ffffff" stroke-width="1.6" stroke-opacity="0.623529" d="M962.73,-514.53C969.15,-486.43 981.32,-433.07 986.36,-411.01"/>
<polygon fill="none" stroke="#ffffff" stroke-width="1.6" stroke-opacity="0.623529" points="989.02,-411.92 988.07,-403.5 983.56,-410.67 989.02,-411.92"/>
</a>
</g>
<g id="a_edge19&#45;label"><a xlink:title="rust_decimal &#45;&gt; arrayvec">
<text xml:space="preserve" text-anchor="middle" x="989.57" y="-455.33" font-family="monospace" font-size="13.50" fill="#ffffff">std</text>
</a>
</g>
</g>
<!-- 45&#45;&gt;21 -->
<g id="edge21" class="edge">
<title>45&#45;&gt;21</title>
<g id="a_edge21"><a xlink:title="serde_json &#45;&gt; memchr">
<path fill="none" stroke="#ffffff" stroke-width="1.6" stroke-opacity="0.623529" d="M798.19,-526.22C809.34,-510.34 837.79,-467.08 847.62,-425.91 858.93,-378.54 837.62,-321.59 826.19,-295.94"/>
<polygon fill="none" stroke="#ffffff" stroke-width="1.6" stroke-opacity="0.623529" points="828.84,-295.01 822.92,-288.94 823.77,-297.38 828.84,-295.01"/>
</a>
</g>
<g id="a_edge21&#45;label"><a xlink:title="serde_json &#45;&gt; memchr">
<text xml:space="preserve" text-anchor="middle" x="863.21" y="-395.88" font-family="monospace" font-size="13.50" fill="#ffffff">std</text>
</a>
</g>
</g>
<!-- 45&#45;&gt;23 -->
<g id="edge22" class="edge">
<title>45&#45;&gt;23</title>
<g id="a_edge22"><a xlink:title="serde_json &#45;&gt; ryu">
<path fill="none" stroke="#ffffff" stroke-width="1.6" stroke-opacity="0.623529" d="M793,-525.09C791.28,-504.56 786.45,-446.77 784.03,-417.91"/>
<polygon fill="none" stroke="#ffffff" stroke-width="1.6" stroke-opacity="0.623529" points="786.85,-417.96 783.39,-410.22 781.27,-418.42 786.85,-417.96"/>
</a>
</g>
</g>
<!-- 54 -->
<g id="node23" class="node">
<title>54</title>
<g id="a_node23"><a xlink:title="rand v0.6.5&#10;1.92 KiB&#10;alloc,default(std),rand_os,std(alloc,rand_os)">
<ellipse fill="#700625" stroke="#ffffff" stroke-width="1.2" cx="1505.62" cy="-400.08" rx="6.12" ry="6.12"/>
<text xml:space="preserve" text-anchor="middle" x="1505.62" y="-404.73" font-family="monospace" font-size="18.00" fill="#ffffff">rand</text>
<text xml:space="preserve" text-anchor="middle" x="1505.62" y="-382.98" font-family="monospace" font-size="18.00" fill="#ffffff">16.34 KiB</text>
</a>
</g>
</g>
<!-- 47&#45;&gt;54 -->
<g id="edge25" class="edge">
<title>47&#45;&gt;54</title>
<g id="a_edge25"><a xlink:title="statistical &#45;&gt; rand">
<path fill="none" stroke="#ffffff" stroke-width="1.6" stroke-opacity="0.623529" d="M1466.32,-530.25C1470.44,-516.71 1491.83,-446.42 1501.21,-415.59"/>
<polygon fill="none" stroke="#ffffff" stroke-width="1.6" stroke-opacity="0.623529" points="1503.8,-416.7 1503.45,-408.23 1498.44,-415.07 1503.8,-416.7"/>
</a>
</g>
</g>
<!-- 55 -->
<g id="node24" class="node">
<title>55</title>
<g id="a_node24"><a xlink:title="rand_chacha v0.1.1&#10;3.76 KiB&#10;default">
<ellipse fill="#460407" stroke="#ffffff" stroke-width="1.2" cx="1357.62" cy="-281.25" rx="10.36" ry="10.36"/>
<text xml:space="preserve" text-anchor="middle" x="1357.62" y="-285.9" font-family="monospace" font-size="18.00" fill="#ffffff">rand_chacha</text>
<text xml:space="preserve" text-anchor="middle" x="1357.62" y="-264.15" font-family="monospace" font-size="18.00" fill="#ffffff">3.96 KiB</text>
</a>
</g>
</g>
<!-- 54&#45;&gt;55 -->
<g id="edge26" class="edge">
<title>54&#45;&gt;55</title>
<g id="a_edge26"><a xlink:title="rand &#45;&gt; rand_chacha">
<path fill="none" stroke="#ffffff" stroke-width="1.6" stroke-opacity="0.623529" d="M1501.36,-395.71C1482.55,-380.87 1406.6,-320.91 1373.35,-294.66"/>
<polygon fill="none" stroke="#ffffff" stroke-width="1.6" stroke-opacity="0.623529" points="1375.1,-292.48 1367.08,-289.72 1371.63,-296.87 1375.1,-292.48"/>
</a>
</g>
</g>
<!-- 57 -->
<g id="node26" class="node">
<title>57</title>
<g id="a_node26"><a xlink:title="rand_core v0.4.2&#10;684 B&#10;alloc,default,std(alloc)">
<ellipse fill="#300602" stroke="#ffffff" stroke-width="1.2" cx="1557.62" cy="-25.75" rx="2.41" ry="2.41"/>
<text xml:space="preserve" text-anchor="middle" x="1557.62" y="-30.4" font-family="monospace" font-size="18.00" fill="#ffffff">rand_core</text>
<text xml:space="preserve" text-anchor="middle" x="1557.62" y="-8.65" font-family="monospace" font-size="18.00" fill="#ffffff">684 B</text>
</a>
</g>
</g>
<!-- 54&#45;&gt;57 -->
<g id="edge29" class="edge">
<title>54&#45;&gt;57</title>
<g id="a_edge29"><a xlink:title="rand &#45;&gt; rand_core">
<path fill="none" stroke="#ffffff" stroke-width="1.6" stroke-opacity="0.623529" d="M1500.31,-397.35C1467.14,-386.5 1289.61,-327.66 1275.62,-307 1262.8,-288.04 1267.21,-276.78 1275.62,-255.5 1326.91,-125.85 1500.06,-49.48 1546.23,-31.1"/>
<polygon fill="none" stroke="#ffffff" stroke-width="1.6" stroke-opacity="0.623529" points="1547.23,-33.72 1553.69,-28.23 1545.22,-28.49 1547.23,-33.72"/>
</a>
</g>
<g id="a_edge29&#45;label"><a xlink:title="rand &#45;&gt; rand_core">
<text xml:space="preserve" text-anchor="middle" x="1359.89" y="-200.55" font-family="monospace" font-size="13.50" fill="#ffffff">alloc,std</text>
</a>
</g>
</g>
<!-- 58 -->
<g id="node27" class="node">
<title>58</title>
<g id="a_node27"><a xlink:title="rand_hc v0.1.0&#10;5.68 KiB&#10;default">
<ellipse fill="#4f050f" stroke="#ffffff" stroke-width="1.2" cx="1505.62" cy="-281.25" rx="13.82" ry="13.82"/>
<text xml:space="preserve" text-anchor="middle" x="1505.62" y="-285.9" font-family="monospace" font-size="18.00" fill="#ffffff">rand_hc</text>
<text xml:space="preserve" text-anchor="middle" x="1505.62" y="-264.15" font-family="monospace" font-size="18.00" fill="#ffffff">5.88 KiB</text>
</a>
</g>
</g>
<!-- 54&#45;&gt;58 -->
<g id="edge30" class="edge">
<title>54&#45;&gt;58</title>
<g id="a_edge30"><a xlink:title="rand &#45;&gt; rand_hc">
<path fill="none" stroke="#ffffff" stroke-width="1.6" stroke-opacity="0.623529" d="M1505.62,-394.06C1505.62,-378.94 1505.62,-333.18 1505.62,-305.11"/>
<polygon fill="none" stroke="#ffffff" stroke-width="1.6" stroke-opacity="0.623529" points="1508.43,-305.4 1505.63,-297.4 1502.83,-305.4 1508.43,-305.4"/>
</a>
</g>
</g>
<!-- 59 -->
<g id="node28" class="node">
<title>59</title>
<g id="a_node28"><a xlink:title="rand_isaac v0.1.1&#10;0 B&#10;default">
<ellipse fill="#260501" stroke="#ffffff" stroke-width="1.2" cx="1647.62" cy="-281.25" rx="0.36" ry="0.36"/>
<text xml:space="preserve" text-anchor="middle" x="1647.62" y="-285.9" font-family="monospace" font-size="18.00" fill="#ffffff">rand_isaac</text>
<text xml:space="preserve" text-anchor="middle" x="1647.62" y="-264.15" font-family="monospace" font-size="18.00" fill="#ffffff">205 B</text>
</a>
</g>
</g>
<!-- 54&#45;&gt;59 -->
<g id="edge32" class="edge">
<title>54&#45;&gt;59</title>
<g id="a_edge32"><a xlink:title="rand &#45;&gt; rand_isaac">
<path fill="none" stroke="#ffffff" stroke-width="1.6" stroke-opacity="0.623529" d="M1509.72,-395.71C1529.24,-379.65 1612.94,-310.79 1639.5,-288.93"/>
<polygon fill="none" stroke="#ffffff" stroke-width="1.6" stroke-opacity="0.623529" points="1641.27,-291.1 1645.67,-283.86 1637.71,-286.78 1641.27,-291.1"/>
</a>
</g>
</g>
<!-- 60 -->
<g id="node29" class="node">
<title>60</title>
<g id="a_node29"><a xlink:title="rand_jitter v0.1.4&#10;1.42 KiB&#10;default,std">
<ellipse fill="#380503" stroke="#ffffff" stroke-width="1.2" cx="1830.62" cy="-204.75" rx="4.75" ry="4.75"/>
<text xml:space="preserve" text-anchor="middle" x="1830.62" y="-209.4" font-family="monospace" font-size="18.00" fill="#ffffff">rand_jitter</text>
<text xml:space="preserve" text-anchor="middle" x="1830.62" y="-187.65" font-family="monospace" font-size="18.00" fill="#ffffff">1.55 KiB</text>
</a>
</g>
</g>
<!-- 54&#45;&gt;60 -->
<g id="edge34" class="edge">
<title>54&#45;&gt;60</title>
<g id="a_edge34"><a xlink:title="rand &#45;&gt; rand_jitter">
<path fill="none" stroke="#ffffff" stroke-width="1.6" stroke-opacity="0.623529" d="M1511.4,-398.72C1557,-395.76 1858.29,-373.78 1911.62,-307 1925.91,-289.11 1922.8,-275.48 1911.62,-255.5 1897.28,-229.86 1863.71,-215.82 1844.6,-209.65"/>
<polygon fill="none" stroke="#ffffff" stroke-width="1.6" stroke-opacity="0.623529" points="1845.45,-206.98 1836.99,-207.42 1843.88,-212.35 1845.45,-206.98"/>
</a>
</g>
<g id="a_edge34&#45;label"><a xlink:title="rand &#45;&gt; rand_jitter">
<text xml:space="preserve" text-anchor="middle" x="1888.68" y="-336.43" font-family="monospace" font-size="13.50" fill="#ffffff">std</text>
</a>
</g>
</g>
<!-- 61 -->
<g id="node30" class="node">
<title>61</title>
<g id="a_node30"><a xlink:title="rand_os v0.1.3&#10;2.22 KiB&#10;default">
<ellipse fill="#3d0404" stroke="#ffffff" stroke-width="1.2" cx="1977.62" cy="-204.75" rx="6.91" ry="6.91"/>
<text xml:space="preserve" text-anchor="middle" x="1977.62" y="-209.4" font-family="monospace" font-size="18.00" fill="#ffffff">rand_os</text>
<text xml:space="preserve" text-anchor="middle" x="1977.62" y="-187.65" font-family="monospace" font-size="18.00" fill="#ffffff">2.36 KiB</text>
</a>
</g>
</g>
<!-- 54&#45;&gt;61 -->
<g id="edge36" class="edge">
<title>54&#45;&gt;61</title>
<g id="a_edge36"><a xlink:title="rand &#45;&gt; rand_os">
<path fill="none" stroke="#ffffff" stroke-width="1.6" stroke-opacity="0.623529" d="M1511.57,-399C1555.97,-398.29 1836.05,-392.18 1906.62,-349.25 1952.95,-321.07 1969.9,-252.51 1975.35,-221.48"/>
<polygon fill="none" stroke="#ffffff" stroke-width="1.6" stroke-opacity="0.623529" points="1978.05,-222.31 1976.53,-213.97 1972.52,-221.44 1978.05,-222.31"/>
</a>
</g>
</g>
<!-- 62 -->
<g id="node31" class="node">
<title>62</title>
<g id="a_node31"><a xlink:title="rand_pcg v0.1.2&#10;0 B&#10;default">
<ellipse fill="#220401" stroke="#ffffff" stroke-width="1.2" cx="1170.62" cy="-204.75" rx="0.36" ry="0.36"/>
<text xml:space="preserve" text-anchor="middle" x="1170.62" y="-209.4" font-family="monospace" font-size="18.00" fill="#ffffff">rand_pcg</text>
<text xml:space="preserve" text-anchor="middle" x="1170.62" y="-187.65" font-family="monospace" font-size="18.00" fill="#ffffff">136 B</text>
</a>
</g>
</g>
<!-- 54&#45;&gt;62 -->
<g id="edge38" class="edge">
<title>54&#45;&gt;62</title>
<g id="a_edge38"><a xlink:title="rand &#45;&gt; rand_pcg">
<path fill="none" stroke="#ffffff" stroke-width="1.6" stroke-opacity="0.623529" d="M1500.65,-397.2C1488.2,-392.58 1454.61,-380.56 1425.62,-374.25 1382.94,-364.96 1265.37,-375.73 1230.62,-349.25 1186.23,-315.42 1174.41,-242.66 1171.5,-215.89"/>
<polygon fill="none" stroke="#ffffff" stroke-width="1.6" stroke-opacity="0.623529" points="1174.32,-215.96 1170.84,-208.24 1168.74,-216.45 1174.32,-215.96"/>
</a>
</g>
</g>
<!-- 63 -->
<g id="node32" class="node">
<title>63</title>
<g id="a_node32"><a xlink:title="rand_xorshift v0.1.1&#10;0 B&#10;default">
<ellipse fill="#260501" stroke="#ffffff" stroke-width="1.2" cx="1817.62" cy="-281.25" rx="0.36" ry="0.36"/>
<text xml:space="preserve" text-anchor="middle" x="1817.62" y="-285.9" font-family="monospace" font-size="18.00" fill="#ffffff">rand_xorshift</text>
<text xml:space="preserve" text-anchor="middle" x="1817.62" y="-264.15" font-family="monospace" font-size="18.00" fill="#ffffff">205 B</text>
</a>
</g>
</g>
<!-- 54&#45;&gt;63 -->
<g id="edge40" class="edge">
<title>54&#45;&gt;63</title>
<g id="a_edge40"><a xlink:title="rand &#45;&gt; rand_xorshift">
<path fill="none" stroke="#ffffff" stroke-width="1.6" stroke-opacity="0.623529" d="M1510.53,-397.24C1545.68,-384.08 1759.42,-304.04 1807.87,-285.9"/>
<polygon fill="none" stroke="#ffffff" stroke-width="1.6" stroke-opacity="0.623529" points="1808.8,-288.55 1815.31,-283.12 1806.83,-283.3 1808.8,-288.55"/>
</a>
</g>
</g>
<!-- 56 -->
<g id="node25" class="node">
<title>56</title>
<g id="a_node25"><a xlink:title="rand_core v0.3.1&#10;684 B&#10;">
<ellipse fill="#320602" stroke="#ffffff" stroke-width="1.2" cx="1557.62" cy="-128.25" rx="2.41" ry="2.41"/>
<text xml:space="preserve" text-anchor="middle" x="1557.62" y="-132.9" font-family="monospace" font-size="18.00" fill="#ffffff">rand_core</text>
<text xml:space="preserve" text-anchor="middle" x="1557.62" y="-111.15" font-family="monospace" font-size="18.00" fill="#ffffff">820 B</text>
</a>
</g>
</g>
<!-- 55&#45;&gt;56 -->
<g id="edge27" class="edge">
<title>55&#45;&gt;56</title>
<g id="a_edge27"><a xlink:title="rand_chacha &#45;&gt; rand_core">
<path fill="none" stroke="#ffffff" stroke-width="1.6" stroke-opacity="0.623529" d="M1365.22,-274.52C1396.37,-251 1514.27,-161.99 1548.35,-136.26"/>
<polygon fill="none" stroke="#ffffff" stroke-width="1.6" stroke-opacity="0.623529" points="1550,-138.52 1554.69,-131.46 1546.62,-134.05 1550,-138.52"/>
</a>
</g>
</g>
<!-- 56&#45;&gt;57 -->
<g id="edge28" class="edge">
<title>56&#45;&gt;57</title>
<g id="a_edge28"><a xlink:title="rand_core &#45;&gt; rand_core">
<path fill="none" stroke="#ffffff" stroke-width="1.6" stroke-opacity="0.623529" d="M1557.62,-126.12C1557.62,-117.58 1557.62,-62.79 1557.62,-38.42"/>
<polygon fill="none" stroke="#ffffff" stroke-width="1.6" stroke-opacity="0.623529" points="1560.43,-38.42 1557.63,-30.42 1554.83,-38.42 1560.43,-38.42"/>
</a>
</g>
</g>
<!-- 58&#45;&gt;56 -->
<g id="edge31" class="edge">
<title>58&#45;&gt;56</title>
<g id="a_edge31"><a xlink:title="rand_hc &#45;&gt; rand_core">
<path fill="none" stroke="#ffffff" stroke-width="1.6" stroke-opacity="0.623529" d="M1509.79,-268.15C1519.69,-239.41 1544.48,-167.43 1553.91,-140.05"/>
<polygon fill="none" stroke="#ffffff" stroke-width="1.6" stroke-opacity="0.623529" points="1556.48,-141.18 1556.43,-132.71 1551.18,-139.36 1556.48,-141.18"/>
</a>
</g>
</g>
<!-- 59&#45;&gt;56 -->
<g id="edge33" class="edge">
<title>59&#45;&gt;56</title>
<g id="a_edge33"><a xlink:title="rand_isaac &#45;&gt; rand_core">
<path fill="none" stroke="#ffffff" stroke-width="1.6" stroke-opacity="0.623529" d="M1647.56,-280.14C1645.27,-276.29 1583.09,-171.97 1563.48,-139.08"/>
<polygon fill="none" stroke="#ffffff" stroke-width="1.6" stroke-opacity="0.623529" points="1566.12,-138.03 1559.62,-132.6 1561.31,-140.9 1566.12,-138.03"/>
</a>
</g>
</g>
<!-- 60&#45;&gt;57 -->
<g id="edge35" class="edge">
<title>60&#45;&gt;57</title>
<g id="a_edge35"><a xlink:title="rand_jitter &#45;&gt; rand_core">
<path fill="none" stroke="#ffffff" stroke-width="1.6" stroke-opacity="0.623529" d="M1827.17,-201.51C1799.42,-183.52 1612.46,-62.3 1567.39,-33.08"/>
<polygon fill="none" stroke="#ffffff" stroke-width="1.6" stroke-opacity="0.623529" points="1568.96,-30.76 1560.72,-28.76 1565.91,-35.46 1568.96,-30.76"/>
</a>
</g>
<g id="a_edge35&#45;label"><a xlink:title="rand_jitter &#45;&gt; rand_core">
<text xml:space="preserve" text-anchor="middle" x="1766.08" y="-124.05" font-family="monospace" font-size="13.50" fill="#ffffff">std</text>
</a>
</g>
</g>
<!-- 61&#45;&gt;57 -->
<g id="edge37" class="edge">
<title>61&#45;&gt;57</title>
<g id="a_edge37"><a xlink:title="rand_os &#45;&gt; rand_core">
<path fill="none" stroke="#ffffff" stroke-width="1.6" stroke-opacity="0.623529" d="M1972.41,-200.61C1950.29,-187.38 1861.91,-135.41 1784.62,-102.5 1704.31,-68.3 1602.92,-39.21 1569.15,-29.88"/>
<polygon fill="none" stroke="#ffffff" stroke-width="1.6" stroke-opacity="0.623529" points="1570.28,-27.29 1561.82,-27.88 1568.8,-32.69 1570.28,-27.29"/>
</a>
</g>
</g>
<!-- 62&#45;&gt;57 -->
<g id="edge39" class="edge">
<title>62&#45;&gt;57</title>
<g id="a_edge39"><a xlink:title="rand_pcg &#45;&gt; rand_core">
<path fill="none" stroke="#ffffff" stroke-width="1.6" stroke-opacity="0.623529" d="M1170.63,-203.68C1171.03,-200.95 1184.23,-113.15 1234.62,-76.5 1285.8,-39.28 1493.03,-29.15 1545.5,-27.16"/>
<polygon fill="none" stroke="#ffffff" stroke-width="1.6" stroke-opacity="0.623529" points="1545.32,-29.97 1553.22,-26.89 1545.13,-24.37 1545.32,-29.97"/>
</a>
</g>
</g>
<!-- 63&#45;&gt;56 -->
<g id="edge41" class="edge">
<title>63&#45;&gt;56</title>
<g id="a_edge41"><a xlink:title="rand_xorshift &#45;&gt; rand_core">
<path fill="none" stroke="#ffffff" stroke-width="1.6" stroke-opacity="0.623529" d="M1817.58,-280.22C1814.06,-278.18 1615.32,-162.76 1567.77,-135.14"/>
<polygon fill="none" stroke="#ffffff" stroke-width="1.6" stroke-opacity="0.623529" points="1569.18,-132.73 1560.86,-131.13 1566.37,-137.57 1569.18,-132.73"/>
</a>
</g>
</g>
<!-- 65 -->
<g id="node33" class="node">
<title>65</title>
<g id="a_node33"><a xlink:title="std &#10;406.04 KiB&#10;">
<ellipse fill="#f98cff" stroke="#ffffff" stroke-width="1.2" cx="955.62" cy="-697.3" rx="72.39" ry="72.39"/>
<text xml:space="preserve" text-anchor="middle" x="955.62" y="-701.95" font-family="monospace" font-size="18.00" fill="#ffffff">std</text>
<text xml:space="preserve" text-anchor="middle" x="955.62" y="-680.2" font-family="monospace" font-size="18.00" fill="#ffffff">406.04 KiB</text>
</a>
</g>
</g>
</g>
</svg>
