<?xml version="1.0" encoding="UTF-8" standalone="no"?>
<!DOCTYPE svg PUBLIC "-//W3C//DTD SVG 1.1//EN"
 "http://www.w3.org/Graphics/SVG/1.1/DTD/svg11.dtd">
<!-- Generated by graphviz version 13.1.2 (20250808.2320)
 -->
<!-- Pages: 1 -->
<svg width="2343pt" height="714pt"
 viewBox="0.00 0.00 2343.00 714.00" xmlns="http://www.w3.org/2000/svg" xmlns:xlink="http://www.w3.org/1999/xlink">
<style>
.graph:has(.node0:hover) > :not(.node0) { opacity: 0.5 }
.graph:has(.node1:hover) > :not(.node1) { opacity: 0.5 }
.graph:has(.node3:hover) > :not(.node3) { opacity: 0.5 }
.graph:has(.node4:hover) > :not(.node4) { opacity: 0.5 }
.graph:has(.node5:hover) > :not(.node5) { opacity: 0.5 }
.graph:has(.node6:hover) > :not(.node6) { opacity: 0.5 }
.graph:has(.node7:hover) > :not(.node7) { opacity: 0.5 }
.graph:has(.node8:hover) > :not(.node8) { opacity: 0.5 }
.graph:has(.node9:hover) > :not(.node9) { opacity: 0.5 }
.graph:has(.node10:hover) > :not(.node10) { opacity: 0.5 }
.graph:has(.node11:hover) > :not(.node11) { opacity: 0.5 }
.graph:has(.node12:hover) > :not(.node12) { opacity: 0.5 }
.graph:has(.node13:hover) > :not(.node13) { opacity: 0.5 }
.graph:has(.node14:hover) > :not(.node14) { opacity: 0.5 }
.graph:has(.node15:hover) > :not(.node15) { opacity: 0.5 }
.graph:has(.node18:hover) > :not(.node18) { opacity: 0.5 }
.graph:has(.node19:hover) > :not(.node19) { opacity: 0.5 }
.graph:has(.node20:hover) > :not(.node20) { opacity: 0.5 }
.graph:has(.node21:hover) > :not(.node21) { opacity: 0.5 }
.graph:has(.node23:hover) > :not(.node23) { opacity: 0.5 }
.graph:has(.node25:hover) > :not(.node25) { opacity: 0.5 }
.graph:has(.node26:hover) > :not(.node26) { opacity: 0.5 }
.graph:has(.node27:hover) > :not(.node27) { opacity: 0.5 }
.graph:has(.node28:hover) > :not(.node28) { opacity: 0.5 }
.graph:has(.node29:hover) > :not(.node29) { opacity: 0.5 }
.graph:has(.node31:hover) > :not(.node31) { opacity: 0.5 }
.graph:has(.node32:hover) > :not(.node32) { opacity: 0.5 }
.graph:has(.node33:hover) > :not(.node33) { opacity: 0.5 }
.graph:has(.node34:hover) > :not(.node34) { opacity: 0.5 }
.graph:has(.node36:hover) > :not(.node36) { opacity: 0.5 }
.graph:has(.node37:hover) > :not(.node37) { opacity: 0.5 }
.graph:has(.node38:hover) > :not(.node38) { opacity: 0.5 }
.graph:has(.node39:hover) > :not(.node39) { opacity: 0.5 }
.graph:has(.node40:hover) > :not(.node40) { opacity: 0.5 }
.graph:has(.node41:hover) > :not(.node41) { opacity: 0.5 }
</style>
<g id="graph0" class="graph" transform="scale(1 1) rotate(0) translate(72 642.4)">
<polygon fill="white" stroke="none" points="-72,72 -72,-642.4 2270.5,-642.4 2270.5,72 -72,72"/>
<!-- 0 -->
<g id="node1" class="node node0">
<title>0</title>
<g id="a_node1"><a xlink:title="pugio v0.1.4 (/home/my4ng/Programming/pugio)&#10;114.34 KiB">
<ellipse fill="#08306b" stroke="#000000" stroke-width="1.44" stroke-opacity="0.623529" cx="1003.25" cy="-517.44" rx="52.96" ry="52.96"/>
<text xml:space="preserve" text-anchor="middle" x="1003.25" y="-510.42" font-family="monospace" font-size="21.60">pugio</text>
</a>
</g>
</g>
<!-- 1 -->
<g id="node2" class="node node0 node1">
<title>1</title>
<g id="a_node2"><a xlink:title="anyhow v1.0.100&#10;10.54 KiB">
<ellipse fill="#a3cce4" stroke="#000000" stroke-width="1.44" stroke-opacity="0.623529" cx="224.25" cy="-380.84" rx="20.18" ry="20.18"/>
<text xml:space="preserve" text-anchor="middle" x="224.25" y="-373.82" font-family="monospace" font-size="21.60">anyhow</text>
</a>
</g>
</g>
<!-- 0&#45;&gt;1 -->
<g id="edge1" class="edge node0">
<title>0&#45;&gt;1</title>
<g id="a_edge1"><a xlink:title="pugio &#45;&gt; anyhow">
<path fill="none" stroke="#000000" stroke-width="1.92" stroke-opacity="0.623529" d="M950.7,-513.1C806.19,-503.4 405.42,-472.77 283.25,-424.48 271.18,-419.71 259.31,-411.91 249.41,-404.27"/>
<polygon fill="none" stroke="#000000" stroke-width="1.92" stroke-opacity="0.623529" points="252.24,-401.16 240.31,-396.78 246.9,-407.65 252.24,-401.16"/>
</a>
</g>
</g>
<!-- 3 -->
<g id="node3" class="node node0 node3">
<title>3</title>
<g id="a_node3"><a xlink:title="clap v4.5.53&#10;0 B">
<ellipse fill="#1e6cb0" stroke="#000000" stroke-width="1.44" stroke-opacity="0.623529" cx="328.25" cy="-380.84" rx="0.36" ry="0.36"/>
<text xml:space="preserve" text-anchor="middle" x="328.25" y="-373.82" font-family="monospace" font-size="21.60">clap</text>
</a>
</g>
</g>
<!-- 0&#45;&gt;3 -->
<g id="edge2" class="edge node0">
<title>0&#45;&gt;3</title>
<g id="a_edge2"><a xlink:title="pugio &#45;&gt; clap">
<path fill="none" stroke="#000000" stroke-width="1.92" stroke-opacity="0.623529" d="M950.82,-512.87C818.69,-503.23 475.31,-474 373.25,-424.48 358.43,-417.29 345.24,-403.45 337.04,-393.49"/>
<polygon fill="none" stroke="#000000" stroke-width="1.92" stroke-opacity="0.623529" points="340.64,-391.29 330.06,-384.24 333.94,-396.35 340.64,-391.29"/>
</a>
</g>
</g>
<!-- 7 -->
<g id="node7" class="node node0 node7">
<title>7</title>
<g id="a_node7"><a xlink:title="colorgrad v0.8.0&#10;12.57 KiB">
<ellipse fill="#70b0d6" stroke="#000000" stroke-width="1.44" stroke-opacity="0.623529" cx="452.25" cy="-380.84" rx="22.22" ry="22.22"/>
<text xml:space="preserve" text-anchor="middle" x="452.25" y="-373.82" font-family="monospace" font-size="21.60">colorgrad</text>
</a>
</g>
</g>
<!-- 0&#45;&gt;7 -->
<g id="edge6" class="edge node0">
<title>0&#45;&gt;7</title>
<g id="a_edge6"><a xlink:title="pugio &#45;&gt; colorgrad">
<path fill="none" stroke="#000000" stroke-width="1.92" stroke-opacity="0.623529" d="M951.12,-509.22C866.41,-496.73 694.16,-468.15 553.25,-424.48 529.81,-417.22 504.36,-406.45 484.88,-397.56"/>
<polygon fill="none" stroke="#000000" stroke-width="1.92" stroke-opacity="0.623529" points="486.85,-393.84 474.19,-392.58 483.29,-401.45 486.85,-393.84"/>
</a>
</g>
</g>
<!-- 11 -->
<g id="node11" class="node node0 node11">
<title>11</title>
<g id="a_node11"><a xlink:title="humansize v2.1.3&#10;1.23 KiB">
<ellipse fill="#bed8ec" stroke="#000000" stroke-width="1.44" stroke-opacity="0.623529" cx="569.25" cy="-102.41" rx="4.18" ry="4.18"/>
<text xml:space="preserve" text-anchor="middle" x="569.25" y="-95.39" font-family="monospace" font-size="21.60">humansize</text>
</a>
</g>
</g>
<!-- 0&#45;&gt;11 -->
<g id="edge11" class="edge node0">
<title>0&#45;&gt;11</title>
<g id="a_edge11"><a xlink:title="pugio &#45;&gt; humansize">
<path fill="none" stroke="#000000" stroke-width="1.92" stroke-opacity="0.623529" d="M950.86,-512.42C850.44,-503.56 636.67,-478.65 590.25,-424.48 550.98,-378.65 563.04,-181.42 567.76,-121.05"/>
<polygon fill="none" stroke="#000000" stroke-width="1.92" stroke-opacity="0.623529" points="571.93,-121.63 568.73,-109.32 563.55,-120.93 571.93,-121.63"/>
</a>
</g>
</g>
<!-- 12 -->
<g id="node12" class="node node0 node12">
<title>12</title>
<g id="a_node12"><a xlink:title="open v5.3.3&#10;6.16 KiB">
<ellipse fill="#a5cde4" stroke="#000000" stroke-width="1.44" stroke-opacity="0.623529" cx="635.25" cy="-380.84" rx="14.57" ry="14.57"/>
<text xml:space="preserve" text-anchor="middle" x="635.25" y="-373.82" font-family="monospace" font-size="21.60">open</text>
</a>
</g>
</g>
<!-- 0&#45;&gt;12 -->
<g id="edge13" class="edge node0">
<title>0&#45;&gt;12</title>
<g id="a_edge13"><a xlink:title="pugio &#45;&gt; open">
<path fill="none" stroke="#000000" stroke-width="1.92" stroke-opacity="0.623529" d="M951,-509.22C884.79,-498.41 768.76,-473.76 681.25,-424.48 671.18,-418.81 661.55,-410.51 653.73,-402.73"/>
<polygon fill="none" stroke="#000000" stroke-width="1.92" stroke-opacity="0.623529" points="656.99,-400.07 645.71,-394.21 650.87,-405.83 656.99,-400.07"/>
</a>
</g>
</g>
<!-- 18 -->
<g id="node16" class="node node0 node18">
<title>18</title>
<g id="a_node16"><a xlink:title="parse_size v1.1.0&#10;1.17 KiB">
<ellipse fill="#cee1f2" stroke="#000000" stroke-width="1.44" stroke-opacity="0.623529" cx="766.25" cy="-380.84" rx="4.01" ry="4.01"/>
<text xml:space="preserve" text-anchor="middle" x="766.25" y="-373.82" font-family="monospace" font-size="21.60">parse_size</text>
</a>
</g>
</g>
<!-- 0&#45;&gt;18 -->
<g id="edge18" class="edge node0">
<title>0&#45;&gt;18</title>
<g id="a_edge18"><a xlink:title="pugio &#45;&gt; parse_size">
<path fill="none" stroke="#000000" stroke-width="1.92" stroke-opacity="0.623529" d="M957.83,-490.65C903.78,-459.94 816.43,-410.34 781.45,-390.47"/>
<polygon fill="none" stroke="#000000" stroke-width="1.92" stroke-opacity="0.623529" points="783.89,-387.03 771.38,-384.75 779.75,-394.33 783.89,-387.03"/>
</a>
</g>
</g>
<!-- 19 -->
<g id="node17" class="node node0 node19">
<title>19</title>
<g id="a_node17"><a xlink:title="petgraph v0.8.3&#10;5.95 KiB">
<ellipse fill="#9cc8e1" stroke="#000000" stroke-width="1.44" stroke-opacity="0.623529" cx="924.25" cy="-380.84" rx="14.24" ry="14.24"/>
<text xml:space="preserve" text-anchor="middle" x="924.25" y="-373.82" font-family="monospace" font-size="21.60">petgraph</text>
</a>
</g>
</g>
<!-- 0&#45;&gt;19 -->
<g id="edge19" class="edge node0">
<title>0&#45;&gt;19</title>
<g id="a_edge19"><a xlink:title="pugio &#45;&gt; petgraph">
<path fill="none" stroke="#000000" stroke-width="1.92" stroke-opacity="0.623529" d="M976.94,-471.62C964.12,-449.77 949.21,-424.36 938.52,-406.16"/>
<polygon fill="none" stroke="#000000" stroke-width="1.92" stroke-opacity="0.623529" points="942.15,-404.04 932.46,-395.82 934.91,-408.29 942.15,-404.04"/>
</a>
</g>
</g>
<!-- 26 -->
<g id="node22" class="node node0 node26">
<title>26</title>
<g id="a_node22"><a xlink:title="regex_lite v0.1.8&#10;46.25 KiB">
<ellipse fill="#68abd4" stroke="#000000" stroke-width="1.44" stroke-opacity="0.623529" cx="1082.25" cy="-380.84" rx="39.57" ry="39.57"/>
<text xml:space="preserve" text-anchor="middle" x="1082.25" y="-373.82" font-family="monospace" font-size="21.60">regex_lite</text>
</a>
</g>
</g>
<!-- 0&#45;&gt;26 -->
<g id="edge24" class="edge node0">
<title>0&#45;&gt;26</title>
<g id="a_edge24"><a xlink:title="pugio &#45;&gt; regex_lite">
<path fill="none" stroke="#000000" stroke-width="1.92" stroke-opacity="0.623529" d="M1029.56,-471.62C1037.87,-457.45 1047.07,-441.78 1055.42,-427.55"/>
<polygon fill="none" stroke="#000000" stroke-width="1.92" stroke-opacity="0.623529" points="1058.88,-429.95 1061.33,-417.47 1051.64,-425.7 1058.88,-429.95"/>
</a>
</g>
</g>
<!-- 27 -->
<g id="node23" class="node node0 node0 node36 node27">
<title>27</title>
<g id="a_node23"><a xlink:title="serde v1.0.228&#10;318 B">
<ellipse fill="#bed8ec" stroke="#000000" stroke-width="1.44" stroke-opacity="0.623529" cx="1422.25" cy="-233.51" rx="1.17" ry="1.17"/>
<text xml:space="preserve" text-anchor="middle" x="1422.25" y="-226.49" font-family="monospace" font-size="21.60">serde</text>
</a>
</g>
</g>
<!-- 0&#45;&gt;27 -->
<g id="edge25" class="edge node0">
<title>0&#45;&gt;27</title>
<g id="a_edge25"><a xlink:title="pugio &#45;&gt; serde">
<path fill="none" stroke="#000000" stroke-width="1.92" stroke-opacity="0.623529" d="M1055.75,-512.13C1154.65,-502.84 1362.75,-477.36 1408.25,-424.48 1452.1,-373.52 1435.14,-283.72 1426.29,-248.88"/>
<polygon fill="none" stroke="#000000" stroke-width="1.92" stroke-opacity="0.623529" points="1430.36,-247.82 1423.07,-237.4 1422.27,-250.09 1430.36,-247.82"/>
</a>
</g>
</g>
<!-- 29 -->
<g id="node25" class="node node0 node0 node36 node29">
<title>29</title>
<g id="a_node25"><a xlink:title="serde_json v1.0.145&#10;15.99 KiB">
<ellipse fill="#80b9da" stroke="#000000" stroke-width="1.44" stroke-opacity="0.623529" cx="1285.25" cy="-233.51" rx="25.16" ry="25.16"/>
<text xml:space="preserve" text-anchor="middle" x="1285.25" y="-226.49" font-family="monospace" font-size="21.60">serde_json</text>
</a>
</g>
</g>
<!-- 0&#45;&gt;29 -->
<g id="edge27" class="edge node0">
<title>0&#45;&gt;29</title>
<g id="a_edge27"><a xlink:title="pugio &#45;&gt; serde_json">
<path fill="none" stroke="#000000" stroke-width="1.92" stroke-opacity="0.623529" d="M1052.52,-498.46C1088.38,-483.31 1136.1,-458.62 1168.25,-424.48 1197.77,-393.14 1188.13,-374.13 1210.25,-337.19 1225.49,-311.75 1245.39,-284.73 1260.86,-264.8"/>
<polygon fill="none" stroke="#000000" stroke-width="1.92" stroke-opacity="0.623529" points="1264.15,-267.41 1268.27,-255.38 1257.55,-262.22 1264.15,-267.41"/>
</a>
</g>
</g>
<!-- 33 -->
<g id="node28" class="node node0 node33">
<title>33</title>
<g id="a_node28"><a xlink:title="serde_with v3.16.0&#10;0 B">
<ellipse fill="#c0d9ed" stroke="#000000" stroke-width="1.44" stroke-opacity="0.623529" cx="1536.25" cy="-380.84" rx="0.36" ry="0.36"/>
<text xml:space="preserve" text-anchor="middle" x="1536.25" y="-373.82" font-family="monospace" font-size="21.60">serde_with</text>
</a>
</g>
</g>
<!-- 0&#45;&gt;33 -->
<g id="edge31" class="edge node0">
<title>0&#45;&gt;33</title>
<g id="a_edge31"><a xlink:title="pugio &#45;&gt; serde_with">
<path fill="none" stroke="#000000" stroke-width="1.92" stroke-opacity="0.623529" d="M1055.32,-509.62C1139.03,-497.78 1308.06,-470.2 1445.25,-424.48 1474.11,-414.86 1505.88,-398.56 1523.2,-389.14"/>
<polygon fill="none" stroke="#000000" stroke-width="1.92" stroke-opacity="0.623529" points="1525.15,-392.86 1533.57,-383.34 1521.05,-385.53 1525.15,-392.86"/>
</a>
</g>
</g>
<!-- 34 -->
<g id="node29" class="node node0 node34">
<title>34</title>
<g id="a_node29"><a xlink:title="strum v0.27.2&#10;63 B">
<ellipse fill="#e3eef9" stroke="#000000" stroke-width="1.44" stroke-opacity="0.623529" cx="1854.25" cy="-380.84" rx="0.36" ry="0.36"/>
<text xml:space="preserve" text-anchor="middle" x="1854.25" y="-373.82" font-family="monospace" font-size="21.60">strum</text>
</a>
</g>
</g>
<!-- 0&#45;&gt;34 -->
<g id="edge33" class="edge node0">
<title>0&#45;&gt;34</title>
<g id="a_edge33"><a xlink:title="pugio &#45;&gt; strum">
<path fill="none" stroke="#000000" stroke-width="1.92" stroke-opacity="0.623529" d="M1055.88,-514.32C1211.59,-507.43 1667.63,-482.69 1803.25,-424.48 1819.89,-417.34 1835.3,-402.93 1844.73,-392.84"/>
<polygon fill="none" stroke="#000000" stroke-width="1.92" stroke-opacity="0.623529" points="1847.6,-395.94 1852.28,-384.12 1841.25,-390.44 1847.6,-395.94"/>
</a>
</g>
</g>
<!-- 36 -->
<g id="node30" class="node node0 node36">
<title>36</title>
<g id="a_node30"><a xlink:title="tinytemplate v1.2.1&#10;35.75 KiB">
<ellipse fill="#63a8d2" stroke="#000000" stroke-width="1.44" stroke-opacity="0.623529" cx="1309.25" cy="-380.84" rx="35.9" ry="35.9"/>
<text xml:space="preserve" text-anchor="middle" x="1309.25" y="-373.82" font-family="monospace" font-size="21.60">tinytemplate</text>
</a>
</g>
</g>
<!-- 0&#45;&gt;36 -->
<g id="edge34" class="edge node0">
<title>0&#45;&gt;36</title>
<g id="a_edge34"><a xlink:title="pugio &#45;&gt; tinytemplate">
<path fill="none" stroke="#000000" stroke-width="1.92" stroke-opacity="0.623529" d="M1051.06,-495.41C1109.02,-469.91 1206,-427.25 1263.16,-402.11"/>
<polygon fill="none" stroke="#000000" stroke-width="1.92" stroke-opacity="0.623529" points="1264.84,-405.96 1274.13,-397.28 1261.46,-398.27 1264.84,-405.96"/>
</a>
</g>
</g>
<!-- 37 -->
<g id="node31" class="node node0 node37">
<title>37</title>
<g id="a_node31"><a xlink:title="toml v0.9.8&#10;61.22 KiB">
<ellipse fill="#3b8ac2" stroke="#000000" stroke-width="1.44" stroke-opacity="0.623529" cx="1749.25" cy="-380.84" rx="43.64" ry="43.64"/>
<text xml:space="preserve" text-anchor="middle" x="1749.25" y="-373.82" font-family="monospace" font-size="21.60">toml</text>
</a>
</g>
</g>
<!-- 0&#45;&gt;37 -->
<g id="edge37" class="edge node0">
<title>0&#45;&gt;37</title>
<g id="a_edge37"><a xlink:title="pugio &#45;&gt; toml">
<path fill="none" stroke="#000000" stroke-width="1.92" stroke-opacity="0.623529" d="M1055.61,-511.81C1162.99,-501.63 1415.46,-474.15 1622.25,-424.48 1646.46,-418.67 1672.63,-410.26 1694.89,-402.44"/>
<polygon fill="none" stroke="#000000" stroke-width="1.92" stroke-opacity="0.623529" points="1696.27,-406.41 1706.15,-398.4 1693.44,-398.5 1696.27,-406.41"/>
</a>
</g>
</g>
<!-- 4 -->
<g id="node4" class="node node0 node3 node4">
<title>4</title>
<g id="a_node4"><a xlink:title="clap_builder v4.5.53&#10;230.96 KiB">
<ellipse fill="#1e6cb0" stroke="#000000" stroke-width="1.44" stroke-opacity="0.623529" cx="178.25" cy="-233.51" rx="63.68" ry="63.68"/>
<text xml:space="preserve" text-anchor="middle" x="178.25" y="-226.49" font-family="monospace" font-size="21.60">clap_builder</text>
</a>
</g>
</g>
<!-- 3&#45;&gt;4 -->
<g id="edge3" class="edge node0 node3">
<title>3&#45;&gt;4</title>
<g id="a_edge3"><a xlink:title="clap &#45;&gt; clap_builder">
<path fill="none" stroke="#000000" stroke-width="1.92" stroke-opacity="0.623529" d="M328.14,-379.73C325.51,-377.18 275.45,-328.68 233.89,-288.42"/>
<polygon fill="none" stroke="#000000" stroke-width="1.92" stroke-opacity="0.623529" points="236.9,-285.49 225.36,-280.15 231.06,-291.52 236.9,-285.49"/>
</a>
</g>
</g>
<!-- 5 -->
<g id="node5" class="node node0 node3 node4 node5">
<title>5</title>
<g id="a_node5"><a xlink:title="anstyle v1.0.13&#10;2.06 KiB">
<ellipse fill="#c7ddef" stroke="#000000" stroke-width="1.44" stroke-opacity="0.623529" cx="55.25" cy="-102.41" rx="6.5" ry="6.5"/>
<text xml:space="preserve" text-anchor="middle" x="55.25" y="-95.39" font-family="monospace" font-size="21.60">anstyle</text>
</a>
</g>
</g>
<!-- 4&#45;&gt;5 -->
<g id="edge4" class="edge node0 node3 node4">
<title>4&#45;&gt;5</title>
<g id="a_edge4"><a xlink:title="clap_builder &#45;&gt; anstyle">
<path fill="none" stroke="#000000" stroke-width="1.92" stroke-opacity="0.623529" d="M134.88,-187C111.74,-162.71 84.84,-134.47 68.98,-117.82"/>
<polygon fill="none" stroke="#000000" stroke-width="1.92" stroke-opacity="0.623529" points="72.22,-115.14 60.9,-109.35 66.14,-120.93 72.22,-115.14"/>
</a>
</g>
</g>
<!-- 6 -->
<g id="node6" class="node node0 node3 node4 node6">
<title>6</title>
<g id="a_node6"><a xlink:title="clap_lex v0.7.6&#10;1.08 KiB">
<ellipse fill="#cfe1f2" stroke="#000000" stroke-width="1.44" stroke-opacity="0.623529" cx="192.25" cy="-102.41" rx="3.72" ry="3.72"/>
<text xml:space="preserve" text-anchor="middle" x="192.25" y="-95.39" font-family="monospace" font-size="21.60">clap_lex</text>
</a>
</g>
</g>
<!-- 4&#45;&gt;6 -->
<g id="edge5" class="edge node0 node3 node4">
<title>4&#45;&gt;6</title>
<g id="a_edge5"><a xlink:title="clap_builder &#45;&gt; clap_lex">
<path fill="none" stroke="#000000" stroke-width="1.92" stroke-opacity="0.623529" d="M185,-170.23C186.99,-151.95 188.99,-133.43 190.39,-120.54"/>
<polygon fill="none" stroke="#000000" stroke-width="1.92" stroke-opacity="0.623529" points="194.56,-121.03 191.68,-108.65 186.21,-120.13 194.56,-121.03"/>
</a>
</g>
</g>
<!-- 8 -->
<g id="node8" class="node node0 node7 node8">
<title>8</title>
<g id="a_node8"><a xlink:title="csscolorparser v0.8.0&#10;21.41 KiB">
<ellipse fill="#85bcdc" stroke="#000000" stroke-width="1.44" stroke-opacity="0.623529" cx="434.25" cy="-233.51" rx="28.91" ry="28.91"/>
<text xml:space="preserve" text-anchor="middle" x="434.25" y="-226.49" font-family="monospace" font-size="21.60">csscolorparser</text>
</a>
</g>
</g>
<!-- 7&#45;&gt;8 -->
<g id="edge7" class="edge node0 node7">
<title>7&#45;&gt;8</title>
<g id="a_edge7"><a xlink:title="colorgrad &#45;&gt; csscolorparser">
<path fill="none" stroke="#000000" stroke-width="1.92" stroke-opacity="0.623529" d="M449.67,-359.01C447.02,-337.59 442.81,-303.63 439.46,-276.58"/>
<polygon fill="none" stroke="#000000" stroke-width="1.92" stroke-opacity="0.623529" points="443.65,-276.27 438.01,-264.88 435.32,-277.31 443.65,-276.27"/>
</a>
</g>
</g>
<!-- 10 -->
<g id="node10" class="node node0 node7 node0 node7 node8 node9 node0 node11 node10">
<title>10</title>
<g id="a_node10"><a xlink:title="libm v0.2.15&#10;7.04 KiB">
<ellipse fill="#afd1e7" stroke="#000000" stroke-width="1.44" stroke-opacity="0.623529" cx="405.25" cy="-17.5" rx="15.88" ry="15.88"/>
<text xml:space="preserve" text-anchor="middle" x="405.25" y="-10.48" font-family="monospace" font-size="21.60">libm</text>
</a>
</g>
</g>
<!-- 7&#45;&gt;10 -->
<g id="edge10" class="edge node0 node7">
<title>7&#45;&gt;10</title>
<g id="a_edge10"><a xlink:title="colorgrad &#45;&gt; libm">
<path fill="none" stroke="#000000" stroke-width="1.92" stroke-opacity="0.623529" d="M433.5,-369.34C398.82,-349.74 327.58,-308.52 321.25,-297.19 273.04,-211 272.36,-161.91 319.25,-75 331.41,-52.46 356.91,-37.45 377.01,-28.6"/>
<polygon fill="none" stroke="#000000" stroke-width="1.92" stroke-opacity="0.623529" points="378.43,-32.56 388.01,-24.2 375.31,-24.76 378.43,-32.56"/>
</a>
</g>
</g>
<!-- 9 -->
<g id="node9" class="node node0 node7 node8 node9">
<title>9</title>
<g id="a_node9"><a xlink:title="num_traits v0.2.19&#10;0 B">
<ellipse fill="#c5dcef" stroke="#000000" stroke-width="1.44" stroke-opacity="0.623529" cx="405.25" cy="-102.41" rx="0.36" ry="0.36"/>
<text xml:space="preserve" text-anchor="middle" x="405.25" y="-95.39" font-family="monospace" font-size="21.60">num_traits</text>
</a>
</g>
</g>
<!-- 8&#45;&gt;9 -->
<g id="edge8" class="edge node0 node7 node8">
<title>8&#45;&gt;9</title>
<g id="a_edge8"><a xlink:title="csscolorparser &#45;&gt; num_traits">
<path fill="none" stroke="#000000" stroke-width="1.92" stroke-opacity="0.623529" d="M428.17,-205.45C422.19,-178.81 413.27,-139.14 408.52,-117.97"/>
<polygon fill="none" stroke="#000000" stroke-width="1.92" stroke-opacity="0.623529" points="412.63,-117.08 405.9,-106.3 404.43,-118.93 412.63,-117.08"/>
</a>
</g>
</g>
<!-- 9&#45;&gt;10 -->
<g id="edge9" class="edge node0 node7 node8 node9">
<title>9&#45;&gt;10</title>
<g id="a_edge9"><a xlink:title="num_traits &#45;&gt; libm">
<path fill="none" stroke="#000000" stroke-width="1.92" stroke-opacity="0.623529" d="M405.25,-101.35C405.25,-99.87 405.25,-71.27 405.25,-48.08"/>
<polygon fill="none" stroke="#000000" stroke-width="1.92" stroke-opacity="0.623529" points="409.45,-48.19 405.25,-36.19 401.05,-48.19 409.45,-48.19"/>
</a>
</g>
</g>
<!-- 11&#45;&gt;10 -->
<g id="edge12" class="edge node0 node11">
<title>11&#45;&gt;10</title>
<g id="a_edge12"><a xlink:title="humansize &#45;&gt; libm">
<path fill="none" stroke="#000000" stroke-width="1.92" stroke-opacity="0.623529" d="M566.12,-99.83C549.8,-91.58 473.59,-53.05 432.19,-32.12"/>
<polygon fill="none" stroke="#000000" stroke-width="1.92" stroke-opacity="0.623529" points="434.11,-28.39 421.51,-26.72 430.32,-35.88 434.11,-28.39"/>
</a>
</g>
</g>
<!-- 13 -->
<g id="node13" class="node node0 node12 node13">
<title>13</title>
<g id="a_node13"><a xlink:title="is_wsl v0.4.0&#10;0 B">
<ellipse fill="#bdd8ec" stroke="#000000" stroke-width="1.44" stroke-opacity="0.623529" cx="655.25" cy="-233.51" rx="0.36" ry="0.36"/>
<text xml:space="preserve" text-anchor="middle" x="655.25" y="-226.49" font-family="monospace" font-size="21.60">is_wsl</text>
</a>
</g>
</g>
<!-- 12&#45;&gt;13 -->
<g id="edge14" class="edge node0 node12">
<title>12&#45;&gt;13</title>
<g id="a_edge14"><a xlink:title="open &#45;&gt; is_wsl">
<path fill="none" stroke="#000000" stroke-width="1.92" stroke-opacity="0.623529" d="M637.1,-366.43C640.85,-339.17 649.33,-277.51 653.23,-249.21"/>
<polygon fill="none" stroke="#000000" stroke-width="1.92" stroke-opacity="0.623529" points="657.37,-249.92 654.84,-237.46 649.05,-248.78 657.37,-249.92"/>
</a>
</g>
</g>
<!-- 14 -->
<g id="node14" class="node node0 node12 node13 node14">
<title>14</title>
<g id="a_node14"><a xlink:title="is_docker v0.2.0&#10;0 B">
<ellipse fill="#c8def0" stroke="#000000" stroke-width="1.44" stroke-opacity="0.623529" cx="769.25" cy="-102.41" rx="0.36" ry="0.36"/>
<text xml:space="preserve" text-anchor="middle" x="769.25" y="-95.39" font-family="monospace" font-size="21.60">is_docker</text>
</a>
</g>
</g>
<!-- 13&#45;&gt;14 -->
<g id="edge15" class="edge node0 node12 node13">
<title>13&#45;&gt;14</title>
<g id="a_edge15"><a xlink:title="is_wsl &#45;&gt; is_docker">
<path fill="none" stroke="#000000" stroke-width="1.92" stroke-opacity="0.623529" d="M655.33,-232.42C658.15,-229.23 732.07,-145.51 759.3,-114.68"/>
<polygon fill="none" stroke="#000000" stroke-width="1.92" stroke-opacity="0.623529" points="762.45,-117.46 767.25,-105.68 756.16,-111.9 762.45,-117.46"/>
</a>
</g>
</g>
<!-- 15 -->
<g id="node15" class="node node0 node12 node13 node0 node12 node13 node14 node15">
<title>15</title>
<g id="a_node15"><a xlink:title="once_cell v1.21.3&#10;3.68 KiB">
<ellipse fill="#bdd8ec" stroke="#000000" stroke-width="1.44" stroke-opacity="0.623529" cx="719.25" cy="-17.5" rx="10.21" ry="10.21"/>
<text xml:space="preserve" text-anchor="middle" x="719.25" y="-10.48" font-family="monospace" font-size="21.60">once_cell</text>
</a>
</g>
</g>
<!-- 13&#45;&gt;15 -->
<g id="edge17" class="edge node0 node12 node13">
<title>13&#45;&gt;15</title>
<g id="a_edge17"><a xlink:title="is_wsl &#45;&gt; once_cell">
<path fill="none" stroke="#000000" stroke-width="1.92" stroke-opacity="0.623529" d="M655.26,-232.45C655.59,-229.7 666.28,-141.4 690.25,-75 694.73,-62.59 701.35,-49.45 707.14,-38.96"/>
<polygon fill="none" stroke="#000000" stroke-width="1.92" stroke-opacity="0.623529" points="710.66,-41.27 713,-28.78 703.38,-37.08 710.66,-41.27"/>
</a>
</g>
</g>
<!-- 14&#45;&gt;15 -->
<g id="edge16" class="edge node0 node12 node13 node14">
<title>14&#45;&gt;15</title>
<g id="a_edge16"><a xlink:title="is_docker &#45;&gt; once_cell">
<path fill="none" stroke="#000000" stroke-width="1.92" stroke-opacity="0.623529" d="M769.21,-101.35C768.2,-99.67 745.93,-62.75 731.47,-38.77"/>
<polygon fill="none" stroke="#000000" stroke-width="1.92" stroke-opacity="0.623529" points="735.2,-36.82 725.41,-28.71 728.01,-41.15 735.2,-36.82"/>
</a>
</g>
</g>
<!-- 20 -->
<g id="node18" class="node node0 node19 node20">
<title>20</title>
<g id="a_node18"><a xlink:title="fixedbitset v0.5.7&#10;147 B">
<ellipse fill="#dfebf7" stroke="#000000" stroke-width="1.44" stroke-opacity="0.623529" cx="950.25" cy="-233.51" rx="0.55" ry="0.55"/>
<text xml:space="preserve" text-anchor="middle" x="950.25" y="-226.49" font-family="monospace" font-size="21.60">fixedbitset</text>
</a>
</g>
</g>
<!-- 19&#45;&gt;20 -->
<g id="edge20" class="edge node0 node19">
<title>19&#45;&gt;20</title>
<g id="a_edge20"><a xlink:title="petgraph &#45;&gt; fixedbitset">
<path fill="none" stroke="#000000" stroke-width="1.92" stroke-opacity="0.623529" d="M926.56,-366.94C931.4,-339.86 942.6,-277.25 947.67,-248.91"/>
<polygon fill="none" stroke="#000000" stroke-width="1.92" stroke-opacity="0.623529" points="951.75,-249.99 949.73,-237.44 943.48,-248.52 951.75,-249.99"/>
</a>
</g>
</g>
<!-- 21 -->
<g id="node19" class="node node0 node19 node21">
<title>21</title>
<g id="a_node19"><a xlink:title="hashbrown v0.15.5&#10;3.57 KiB">
<ellipse fill="#bed8ec" stroke="#000000" stroke-width="1.44" stroke-opacity="0.623529" cx="1121.25" cy="-233.51" rx="9.97" ry="9.97"/>
<text xml:space="preserve" text-anchor="middle" x="1121.25" y="-226.49" font-family="monospace" font-size="21.60">hashbrown</text>
</a>
</g>
</g>
<!-- 19&#45;&gt;21 -->
<g id="edge21" class="edge node0 node19">
<title>19&#45;&gt;21</title>
<g id="a_edge21"><a xlink:title="petgraph &#45;&gt; hashbrown">
<path fill="none" stroke="#000000" stroke-width="1.92" stroke-opacity="0.623529" d="M935.47,-372.31C956.63,-358.04 1003.76,-325.9 1042.25,-297.19 1063.52,-281.33 1087.3,-262.28 1103.15,-249.37"/>
<polygon fill="none" stroke="#000000" stroke-width="1.92" stroke-opacity="0.623529" points="1105.51,-252.88 1112.13,-242.03 1100.19,-246.38 1105.51,-252.88"/>
</a>
</g>
</g>
<!-- 23 -->
<g id="node20" class="node node0 node19 node23">
<title>23</title>
<g id="a_node20"><a xlink:title="indexmap v2.12.1&#10;0 B">
<ellipse fill="#bed8ec" stroke="#000000" stroke-width="1.44" stroke-opacity="0.623529" cx="786.25" cy="-233.51" rx="0.36" ry="0.36"/>
<text xml:space="preserve" text-anchor="middle" x="786.25" y="-226.49" font-family="monospace" font-size="21.60">indexmap</text>
</a>
</g>
</g>
<!-- 19&#45;&gt;23 -->
<g id="edge22" class="edge node0 node19">
<title>19&#45;&gt;23</title>
<g id="a_edge22"><a xlink:title="petgraph &#45;&gt; indexmap">
<path fill="none" stroke="#000000" stroke-width="1.92" stroke-opacity="0.623529" d="M915.2,-370.3C890.52,-344.32 822.23,-272.4 796.36,-245.16"/>
<polygon fill="none" stroke="#000000" stroke-width="1.92" stroke-opacity="0.623529" points="799.63,-242.5 788.32,-236.69 793.54,-248.29 799.63,-242.5"/>
</a>
</g>
</g>
<!-- 25 -->
<g id="node21" class="node node0 node19 node23 node25">
<title>25</title>
<g id="a_node21"><a xlink:title="hashbrown v0.16.1&#10;3.57 KiB">
<ellipse fill="#bed8ec" stroke="#000000" stroke-width="1.44" stroke-opacity="0.623529" cx="927.25" cy="-102.41" rx="9.97" ry="9.97"/>
<text xml:space="preserve" text-anchor="middle" x="927.25" y="-95.39" font-family="monospace" font-size="21.60">hashbrown</text>
</a>
</g>
</g>
<!-- 23&#45;&gt;25 -->
<g id="edge23" class="edge node0 node19 node23">
<title>23&#45;&gt;25</title>
<g id="a_edge23"><a xlink:title="indexmap &#45;&gt; hashbrown">
<path fill="none" stroke="#000000" stroke-width="1.92" stroke-opacity="0.623529" d="M786.35,-232.42C789.66,-229.39 872.62,-153.43 909.67,-119.51"/>
<polygon fill="none" stroke="#000000" stroke-width="1.92" stroke-opacity="0.623529" points="912.49,-122.62 918.51,-111.42 906.82,-116.43 912.49,-122.62"/>
</a>
</g>
</g>
<!-- 28 -->
<g id="node24" class="node node0 node33 node0 node0 node36 node27 node0 node0 node36 node29 node0 node37 node0 node37 node38 node0 node37 node39 node28">
<title>28</title>
<g id="a_node24"><a xlink:title="serde_core v1.0.228&#10;19.10 KiB">
<ellipse fill="#8ec1de" stroke="#000000" stroke-width="1.44" stroke-opacity="0.623529" cx="1558.25" cy="-102.41" rx="27.41" ry="27.41"/>
<text xml:space="preserve" text-anchor="middle" x="1558.25" y="-95.39" font-family="monospace" font-size="21.60">serde_core</text>
</a>
</g>
</g>
<!-- 27&#45;&gt;28 -->
<g id="edge26" class="edge node0 node0 node36 node27">
<title>27&#45;&gt;28</title>
<g id="a_edge26"><a xlink:title="serde &#45;&gt; serde_core">
<path fill="none" stroke="#000000" stroke-width="1.92" stroke-opacity="0.623529" d="M1422.34,-232.41C1424.11,-230.24 1452.96,-195.12 1479.25,-169.83 1493.88,-155.76 1511.03,-141.14 1525.61,-129.21"/>
<polygon fill="none" stroke="#000000" stroke-width="1.92" stroke-opacity="0.623529" points="1528.18,-132.52 1534.87,-121.71 1522.9,-125.99 1528.18,-132.52"/>
</a>
</g>
</g>
<!-- 29&#45;&gt;28 -->
<g id="edge30" class="edge node0 node0 node36 node29">
<title>29&#45;&gt;28</title>
<g id="a_edge30"><a xlink:title="serde_json &#45;&gt; serde_core">
<path fill="none" stroke="#000000" stroke-width="1.92" stroke-opacity="0.623529" d="M1303.42,-216.62C1319.94,-202.79 1345.46,-182.97 1370.25,-169.83 1418.55,-144.22 1478.81,-124.93 1517.88,-113.91"/>
<polygon fill="none" stroke="#000000" stroke-width="1.92" stroke-opacity="0.623529" points="1518.74,-118.03 1529.2,-110.8 1516.52,-109.93 1518.74,-118.03"/>
</a>
</g>
</g>
<!-- 31 -->
<g id="node26" class="node node0 node0 node36 node29 node31">
<title>31</title>
<g id="a_node26"><a xlink:title="memchr v2.7.6&#10;5.31 KiB">
<ellipse fill="#b6d4e9" stroke="#000000" stroke-width="1.44" stroke-opacity="0.623529" cx="1231.25" cy="-102.41" rx="13.21" ry="13.21"/>
<text xml:space="preserve" text-anchor="middle" x="1231.25" y="-95.39" font-family="monospace" font-size="21.60">memchr</text>
</a>
</g>
</g>
<!-- 29&#45;&gt;31 -->
<g id="edge28" class="edge node0 node0 node36 node29">
<title>29&#45;&gt;31</title>
<g id="a_edge28"><a xlink:title="serde_json &#45;&gt; memchr">
<path fill="none" stroke="#000000" stroke-width="1.92" stroke-opacity="0.623529" d="M1275.97,-210.32C1266.42,-187.49 1251.58,-152.01 1241.64,-128.26"/>
<polygon fill="none" stroke="#000000" stroke-width="1.92" stroke-opacity="0.623529" points="1245.55,-126.73 1237.05,-117.28 1237.8,-129.97 1245.55,-126.73"/>
</a>
</g>
</g>
<!-- 32 -->
<g id="node27" class="node node0 node0 node36 node29 node32">
<title>32</title>
<g id="a_node27"><a xlink:title="ryu v1.0.20&#10;2.69 KiB">
<ellipse fill="#c3dbee" stroke="#000000" stroke-width="1.44" stroke-opacity="0.623529" cx="1328.25" cy="-102.41" rx="8.03" ry="8.03"/>
<text xml:space="preserve" text-anchor="middle" x="1328.25" y="-95.39" font-family="monospace" font-size="21.60">ryu</text>
</a>
</g>
</g>
<!-- 29&#45;&gt;32 -->
<g id="edge29" class="edge node0 node0 node36 node29">
<title>29&#45;&gt;32</title>
<g id="a_edge29"><a xlink:title="serde_json &#45;&gt; ryu">
<path fill="none" stroke="#000000" stroke-width="1.92" stroke-opacity="0.623529" d="M1292.84,-209.73C1300.91,-185.5 1313.56,-147.51 1321.36,-124.11"/>
<polygon fill="none" stroke="#000000" stroke-width="1.92" stroke-opacity="0.623529" points="1325.31,-125.52 1325.12,-112.81 1317.34,-122.87 1325.31,-125.52"/>
</a>
</g>
</g>
<!-- 33&#45;&gt;28 -->
<g id="edge32" class="edge node0 node33">
<title>33&#45;&gt;28</title>
<g id="a_edge32"><a xlink:title="serde_with &#45;&gt; serde_core">
<path fill="none" stroke="#000000" stroke-width="1.92" stroke-opacity="0.623529" d="M1536.22,-379.75C1534.83,-376.1 1490.57,-258.48 1516.25,-169.83 1519.69,-157.94 1525.97,-146.14 1532.64,-135.86"/>
<polygon fill="none" stroke="#000000" stroke-width="1.92" stroke-opacity="0.623529" points="1536,-138.37 1539.44,-126.13 1529.12,-133.56 1536,-138.37"/>
</a>
</g>
</g>
<!-- 36&#45;&gt;27 -->
<g id="edge35" class="edge node0 node36">
<title>36&#45;&gt;27</title>
<g id="a_edge35"><a xlink:title="tinytemplate &#45;&gt; serde">
<path fill="none" stroke="#000000" stroke-width="1.92" stroke-opacity="0.623529" d="M1330.77,-352.16C1355.61,-320.22 1395.31,-269.16 1413.1,-246.28"/>
<polygon fill="none" stroke="#000000" stroke-width="1.92" stroke-opacity="0.623529" points="1416.37,-248.91 1420.42,-236.86 1409.74,-243.76 1416.37,-248.91"/>
</a>
</g>
</g>
<!-- 36&#45;&gt;29 -->
<g id="edge36" class="edge node0 node36">
<title>36&#45;&gt;29</title>
<g id="a_edge36"><a xlink:title="tinytemplate &#45;&gt; serde_json">
<path fill="none" stroke="#000000" stroke-width="1.92" stroke-opacity="0.623529" d="M1303.56,-345.4C1299.96,-323.57 1295.29,-295.32 1291.57,-272.79"/>
<polygon fill="none" stroke="#000000" stroke-width="1.92" stroke-opacity="0.623529" points="1295.75,-272.29 1289.65,-261.13 1287.46,-273.66 1295.75,-272.29"/>
</a>
</g>
</g>
<!-- 37&#45;&gt;28 -->
<g id="edge38" class="edge node0 node37">
<title>37&#45;&gt;28</title>
<g id="a_edge38"><a xlink:title="toml &#45;&gt; serde_core">
<path fill="none" stroke="#000000" stroke-width="1.92" stroke-opacity="0.623529" d="M1756.92,-338.19C1762.93,-292.2 1765.01,-218.29 1728.25,-169.83 1697.82,-129.72 1639.66,-113.81 1599.93,-107.52"/>
<polygon fill="none" stroke="#000000" stroke-width="1.92" stroke-opacity="0.623529" points="1600.53,-103.36 1588.07,-105.88 1599.38,-111.68 1600.53,-103.36"/>
</a>
</g>
</g>
<!-- 38 -->
<g id="node32" class="node node0 node37 node38">
<title>38</title>
<g id="a_node32"><a xlink:title="serde_spanned v1.0.3&#10;0 B">
<ellipse fill="#c0d9ed" stroke="#000000" stroke-width="1.44" stroke-opacity="0.623529" cx="1876.25" cy="-233.51" rx="0.36" ry="0.36"/>
<text xml:space="preserve" text-anchor="middle" x="1876.25" y="-226.49" font-family="monospace" font-size="21.60">serde_spanned</text>
</a>
</g>
</g>
<!-- 37&#45;&gt;38 -->
<g id="edge39" class="edge node0 node37">
<title>37&#45;&gt;38</title>
<g id="a_edge39"><a xlink:title="toml &#45;&gt; serde_spanned">
<path fill="none" stroke="#000000" stroke-width="1.92" stroke-opacity="0.623529" d="M1777.44,-347.58C1805.78,-315.15 1847.88,-266.97 1866.64,-245.51"/>
<polygon fill="none" stroke="#000000" stroke-width="1.92" stroke-opacity="0.623529" points="1869.56,-248.55 1874.29,-236.75 1863.23,-243.02 1869.56,-248.55"/>
</a>
</g>
</g>
<!-- 39 -->
<g id="node33" class="node node0 node37 node39">
<title>39</title>
<g id="a_node33"><a xlink:title="toml_datetime v0.7.3&#10;5.74 KiB">
<ellipse fill="#a8cee5" stroke="#000000" stroke-width="1.44" stroke-opacity="0.623529" cx="1622.25" cy="-233.51" rx="13.91" ry="13.91"/>
<text xml:space="preserve" text-anchor="middle" x="1622.25" y="-226.49" font-family="monospace" font-size="21.60">toml_datetime</text>
</a>
</g>
</g>
<!-- 37&#45;&gt;39 -->
<g id="edge41" class="edge node0 node37">
<title>37&#45;&gt;39</title>
<g id="a_edge41"><a xlink:title="toml &#45;&gt; toml_datetime">
<path fill="none" stroke="#000000" stroke-width="1.92" stroke-opacity="0.623529" d="M1721.06,-347.58C1696.42,-319.39 1661.37,-279.28 1640.32,-255.19"/>
<polygon fill="none" stroke="#000000" stroke-width="1.92" stroke-opacity="0.623529" points="1643.68,-252.65 1632.62,-246.38 1637.36,-258.18 1643.68,-252.65"/>
</a>
</g>
</g>
<!-- 40 -->
<g id="node34" class="node node0 node37 node40">
<title>40</title>
<g id="a_node34"><a xlink:title="toml_parser v1.0.4&#10;44.80 KiB">
<ellipse fill="#69acd4" stroke="#000000" stroke-width="1.44" stroke-opacity="0.623529" cx="2116.25" cy="-233.51" rx="39.11" ry="39.11"/>
<text xml:space="preserve" text-anchor="middle" x="2116.25" y="-226.49" font-family="monospace" font-size="21.60">toml_parser</text>
</a>
</g>
</g>
<!-- 37&#45;&gt;40 -->
<g id="edge43" class="edge node0 node37">
<title>37&#45;&gt;40</title>
<g id="a_edge43"><a xlink:title="toml &#45;&gt; toml_parser">
<path fill="none" stroke="#000000" stroke-width="1.92" stroke-opacity="0.623529" d="M1780.34,-350.69C1787.16,-345.52 1794.63,-340.69 1802.25,-337.19 1891.4,-296.32 1928.1,-333.39 2019.25,-297.19 2038.55,-289.53 2058.12,-277.8 2074.57,-266.56"/>
<polygon fill="none" stroke="#000000" stroke-width="1.92" stroke-opacity="0.623529" points="2076.75,-270.16 2084.12,-259.8 2071.9,-263.3 2076.75,-270.16"/>
</a>
</g>
</g>
<!-- 41 -->
<g id="node35" class="node node0 node37 node0 node37 node40 node41">
<title>41</title>
<g id="a_node35"><a xlink:title="winnow v0.7.13&#10;349 B">
<ellipse fill="#d9e8f5" stroke="#000000" stroke-width="1.44" stroke-opacity="0.623529" cx="2059.25" cy="-102.41" rx="1.28" ry="1.28"/>
<text xml:space="preserve" text-anchor="middle" x="2059.25" y="-95.39" font-family="monospace" font-size="21.60">winnow</text>
</a>
</g>
</g>
<!-- 37&#45;&gt;41 -->
<g id="edge45" class="edge node0 node37">
<title>37&#45;&gt;41</title>
<g id="a_edge45"><a xlink:title="toml &#45;&gt; winnow">
<path fill="none" stroke="#000000" stroke-width="1.92" stroke-opacity="0.623529" d="M1780.73,-350.69C1787.46,-345.59 1794.8,-340.77 1802.25,-337.19 1876.11,-301.69 1921.48,-352.18 1982.25,-297.19 2026.45,-257.2 2000.94,-224.69 2024.25,-169.83 2032.45,-150.54 2044.16,-129.28 2051.73,-116.13"/>
<polygon fill="none" stroke="#000000" stroke-width="1.92" stroke-opacity="0.623529" points="2055.22,-118.49 2057.71,-106.02 2047.99,-114.21 2055.22,-118.49"/>
</a>
</g>
</g>
<!-- 38&#45;&gt;28 -->
<g id="edge40" class="edge node0 node37 node38">
<title>38&#45;&gt;28</title>
<g id="a_edge40"><a xlink:title="serde_spanned &#45;&gt; serde_core">
<path fill="none" stroke="#000000" stroke-width="1.92" stroke-opacity="0.623529" d="M1876.21,-232.48C1874.41,-231.27 1816.35,-192.18 1765.25,-169.83 1709.2,-145.32 1641.14,-125.22 1598.75,-113.77"/>
<polygon fill="none" stroke="#000000" stroke-width="1.92" stroke-opacity="0.623529" points="1599.85,-109.72 1587.17,-110.7 1597.69,-117.84 1599.85,-109.72"/>
</a>
</g>
</g>
<!-- 39&#45;&gt;28 -->
<g id="edge42" class="edge node0 node37 node39">
<title>39&#45;&gt;28</title>
<g id="a_edge42"><a xlink:title="toml_datetime &#45;&gt; serde_core">
<path fill="none" stroke="#000000" stroke-width="1.92" stroke-opacity="0.623529" d="M1616.57,-221.06C1607.62,-203 1589.86,-167.17 1576.27,-139.77"/>
<polygon fill="none" stroke="#000000" stroke-width="1.92" stroke-opacity="0.623529" points="1580.19,-138.22 1571.1,-129.33 1572.67,-141.95 1580.19,-138.22"/>
</a>
</g>
</g>
<!-- 40&#45;&gt;41 -->
<g id="edge44" class="edge node0 node37 node40">
<title>40&#45;&gt;41</title>
<g id="a_edge44"><a xlink:title="toml_parser &#45;&gt; winnow">
<path fill="none" stroke="#000000" stroke-width="1.92" stroke-opacity="0.623529" d="M2100.82,-197.58C2089.13,-171.1 2073.7,-136.14 2065.31,-117.14"/>
<polygon fill="none" stroke="#000000" stroke-width="1.92" stroke-opacity="0.623529" points="2069.18,-115.52 2060.5,-106.23 2061.5,-118.91 2069.18,-115.52"/>
</a>
</g>
</g>
</g>
</svg>
