<?xml version="1.0" encoding="UTF-8" standalone="no"?>
<!DOCTYPE svg PUBLIC "-//W3C//DTD SVG 1.1//EN"
 "http://www.w3.org/Graphics/SVG/1.1/DTD/svg11.dtd">
<!-- Generated by graphviz version 13.1.2 (20250808.2320)
 -->
<!-- Pages: 1 -->
<svg width="2325pt" height="852pt"
 viewBox="0.00 0.00 2325.00 852.00" xmlns="http://www.w3.org/2000/svg" xmlns:xlink="http://www.w3.org/1999/xlink">
<style>
.graph:has(.node0:hover) > g:not(.node0) { opacity: 0.5 }
.graph:has(.node1:hover) > g:not(.node1) { opacity: 0.5 }
.graph:has(.node2:hover) > g:not(.node2) { opacity: 0.5 }
.graph:has(.node3:hover) > g:not(.node3) { opacity: 0.5 }
.graph:has(.node4:hover) > g:not(.node4) { opacity: 0.5 }
.graph:has(.node5:hover) > g:not(.node5) { opacity: 0.5 }
.graph:has(.node6:hover) > g:not(.node6) { opacity: 0.5 }
.graph:has(.node7:hover) > g:not(.node7) { opacity: 0.5 }
.graph:has(.node8:hover) > g:not(.node8) { opacity: 0.5 }
.graph:has(.node9:hover) > g:not(.node9) { opacity: 0.5 }
.graph:has(.node10:hover) > g:not(.node10) { opacity: 0.5 }
.graph:has(.node11:hover) > g:not(.node11) { opacity: 0.5 }
.graph:has(.node12:hover) > g:not(.node12) { opacity: 0.5 }
.graph:has(.node13:hover) > g:not(.node13) { opacity: 0.5 }
.graph:has(.node14:hover) > g:not(.node14) { opacity: 0.5 }
.graph:has(.node15:hover) > g:not(.node15) { opacity: 0.5 }
.graph:has(.node16:hover) > g:not(.node16) { opacity: 0.5 }
.graph:has(.node17:hover) > g:not(.node17) { opacity: 0.5 }
.graph:has(.node18:hover) > g:not(.node18) { opacity: 0.5 }
.graph:has(.node19:hover) > g:not(.node19) { opacity: 0.5 }
.graph:has(.node20:hover) > g:not(.node20) { opacity: 0.5 }
.graph:has(.node21:hover) > g:not(.node21) { opacity: 0.5 }
.graph:has(.node22:hover) > g:not(.node22) { opacity: 0.5 }
.graph:has(.node23:hover) > g:not(.node23) { opacity: 0.5 }
.graph:has(.node24:hover) > g:not(.node24) { opacity: 0.5 }
.graph:has(.node25:hover) > g:not(.node25) { opacity: 0.5 }
.graph:has(.node26:hover) > g:not(.node26) { opacity: 0.5 }
.graph:has(.node27:hover) > g:not(.node27) { opacity: 0.5 }
.graph:has(.node28:hover) > g:not(.node28) { opacity: 0.5 }
.graph:has(.node29:hover) > g:not(.node29) { opacity: 0.5 }
.graph:has(.node30:hover) > g:not(.node30) { opacity: 0.5 }
.graph:has(.node31:hover) > g:not(.node31) { opacity: 0.5 }
.graph:has(.node32:hover) > g:not(.node32) { opacity: 0.5 }
.graph:has(.node33:hover) > g:not(.node33) { opacity: 0.5 }
.graph:has(.node34:hover) > g:not(.node34) { opacity: 0.5 }
.graph:has(.node35:hover) > g:not(.node35) { opacity: 0.5 }
.graph:has(.node36:hover) > g:not(.node36) { opacity: 0.5 }
.graph:has(.node37:hover) > g:not(.node37) { opacity: 0.5 }
.graph:has(.node38:hover) > g:not(.node38) { opacity: 0.5 }
.graph:has(.node39:hover) > g:not(.node39) { opacity: 0.5 }
.graph:has(.node40:hover) > g:not(.node40) { opacity: 0.5 }
</style>
<g id="graph0" class="graph" transform="scale(1 1) rotate(0) translate(36 816.42)">
<polygon fill="#000000" stroke="none" points="-36,36 -36,-816.42 2289.25,-816.42 2289.25,36 -36,36"/>
<!-- 0 -->
<g id="node1" class="node node0">
<title>0</title>
<g id="a_node1"><a xlink:title="pugio v0.2.0 (/home/my4ng/Programming/pugio)&#10;95.72 KiB&#10;">
<ellipse fill="#d4dd06" stroke="#ffffff" stroke-width="1.2" cx="822.38" cy="-730.13" rx="50.28" ry="50.28"/>
<text xml:space="preserve" text-anchor="middle" x="822.38" y="-723.91" font-family="monospace" font-size="18.00" fill="#ffffff">pugio</text>
</a>
</g>
</g>
<!-- 1 -->
<g id="node2" class="node node0 node1">
<title>1</title>
<g id="a_node2"><a xlink:title="anyhow v1.0.100&#10;8.97 KiB&#10;default(std),&#10;std">
<ellipse fill="#e560e2" stroke="#ffffff" stroke-width="1.2" cx="290.38" cy="-589.28" rx="18.39" ry="18.39"/>
<text xml:space="preserve" text-anchor="middle" x="290.38" y="-583.06" font-family="monospace" font-size="18.00" fill="#ffffff">anyhow</text>
</a>
</g>
</g>
<!-- 0&#45;&gt;1 -->
<g id="edge1" class="edge node0">
<title>0&#45;&gt;1</title>
<g id="a_edge1"><a xlink:title="pugio &#45;&gt; anyhow">
<path fill="none" stroke="#ffffff" stroke-width="1.6" stroke-opacity="0.623529" d="M772.67,-725.3C683.68,-717.03 492.68,-692.77 345.38,-628.85 333.29,-623.61 321.17,-615.49 311.39,-608.05"/>
<polygon fill="none" stroke="#ffffff" stroke-width="1.6" stroke-opacity="0.623529" points="313.37,-606.04 305.36,-603.28 309.9,-610.44 313.37,-606.04"/>
</a>
</g>
</g>
<!-- 2 -->
<g id="node3" class="node node0 node2">
<title>2</title>
<g id="a_node3"><a xlink:title="cfg_if v1.0.4&#10;0 B&#10;default">
<ellipse fill="#7d78f7" stroke="#ffffff" stroke-width="1.2" cx="399.38" cy="-589.28" rx="0.36" ry="0.36"/>
<text xml:space="preserve" text-anchor="middle" x="399.38" y="-583.06" font-family="monospace" font-size="18.00" fill="#ffffff">cfg_if</text>
</a>
</g>
</g>
<!-- 0&#45;&gt;2 -->
<g id="edge2" class="edge node0">
<title>0&#45;&gt;2</title>
<g id="a_edge2"><a xlink:title="pugio &#45;&gt; cfg_if">
<path fill="none" stroke="#ffffff" stroke-width="1.6" stroke-opacity="0.623529" d="M772.97,-721.46C700.3,-708.91 561.5,-680.12 453.38,-628.85 435.43,-620.34 417.16,-605.8 407.14,-597.21"/>
<polygon fill="none" stroke="#ffffff" stroke-width="1.6" stroke-opacity="0.623529" points="409.1,-595.2 401.26,-591.97 405.37,-599.38 409.1,-595.2"/>
</a>
</g>
</g>
<!-- 3 -->
<g id="node4" class="node node0 node3">
<title>3</title>
<g id="a_node4"><a xlink:title="clap v4.5.53&#10;0 B&#10;derive,&#10;error&#45;context,&#10;help,&#10;std,&#10;usage">
<ellipse fill="#c56805" stroke="#ffffff" stroke-width="1.2" cx="496.38" cy="-589.28" rx="0.36" ry="0.36"/>
<text xml:space="preserve" text-anchor="middle" x="496.38" y="-583.06" font-family="monospace" font-size="18.00" fill="#ffffff">clap</text>
</a>
</g>
</g>
<!-- 0&#45;&gt;3 -->
<g id="edge3" class="edge node0">
<title>0&#45;&gt;3</title>
<g id="a_edge3"><a xlink:title="pugio &#45;&gt; clap">
<path fill="none" stroke="#ffffff" stroke-width="1.6" stroke-opacity="0.623529" d="M773.82,-718.1C715.36,-703.47 615.57,-674.09 539.38,-628.85 525.01,-620.32 511.13,-606.56 503.19,-597.98"/>
<polygon fill="none" stroke="#ffffff" stroke-width="1.6" stroke-opacity="0.623529" points="505.44,-596.31 498.04,-592.17 501.25,-600.02 505.44,-596.31"/>
</a>
</g>
</g>
<!-- 7 -->
<g id="node8" class="node node0 node7">
<title>7</title>
<g id="a_node8"><a xlink:title="open v5.3.3&#10;6.02 KiB&#10;default">
<ellipse fill="#e45ddd" stroke="#ffffff" stroke-width="1.2" cx="582.38" cy="-589.28" rx="14.35" ry="14.35"/>
<text xml:space="preserve" text-anchor="middle" x="582.38" y="-583.06" font-family="monospace" font-size="18.00" fill="#ffffff">open</text>
</a>
</g>
</g>
<!-- 0&#45;&gt;7 -->
<g id="edge7" class="edge node0">
<title>0&#45;&gt;7</title>
<g id="a_edge7"><a xlink:title="pugio &#45;&gt; open">
<path fill="none" stroke="#ffffff" stroke-width="1.6" stroke-opacity="0.623529" d="M779.47,-704.31C727.51,-674.25 642.12,-624.85 603.05,-602.25"/>
<polygon fill="none" stroke="#ffffff" stroke-width="1.6" stroke-opacity="0.623529" points="604.59,-599.9 596.26,-598.32 601.79,-604.75 604.59,-599.9"/>
</a>
</g>
</g>
<!-- 13 -->
<g id="node14" class="node node0 node13">
<title>13</title>
<g id="a_node14"><a xlink:title="parse_size v1.1.0&#10;1.17 KiB&#10;default">
<ellipse fill="#c457ff" stroke="#ffffff" stroke-width="1.2" cx="822.38" cy="-589.28" rx="4.01" ry="4.01"/>
<text xml:space="preserve" text-anchor="middle" x="822.38" y="-583.06" font-family="monospace" font-size="18.00" fill="#ffffff">parse_size</text>
</a>
</g>
</g>
<!-- 0&#45;&gt;13 -->
<g id="edge14" class="edge node0">
<title>0&#45;&gt;13</title>
<g id="a_edge14"><a xlink:title="pugio &#45;&gt; parse_size">
<path fill="none" stroke="#ffffff" stroke-width="1.6" stroke-opacity="0.623529" d="M822.38,-680.18C822.38,-652.8 822.38,-620.76 822.38,-603.29"/>
<polygon fill="none" stroke="#ffffff" stroke-width="1.6" stroke-opacity="0.623529" points="825.18,-603.5 822.38,-595.5 819.58,-603.5 825.18,-603.5"/>
</a>
</g>
</g>
<!-- 14 -->
<g id="node15" class="node node0 node14">
<title>14</title>
<g id="a_node15"><a xlink:title="pugio_lib v0.2.0 (/home/my4ng/Programming/pugio/pugio&#45;lib)&#10;40.83 KiB&#10;default">
<ellipse fill="#aa3414" stroke="#ffffff" stroke-width="1.2" cx="1030.38" cy="-589.28" rx="37.78" ry="37.78"/>
<text xml:space="preserve" text-anchor="middle" x="1030.38" y="-583.06" font-family="monospace" font-size="18.00" fill="#ffffff">pugio_lib</text>
</a>
</g>
</g>
<!-- 0&#45;&gt;14 -->
<g id="edge15" class="edge node0">
<title>0&#45;&gt;14</title>
<g id="a_edge15"><a xlink:title="pugio &#45;&gt; pugio_lib">
<path fill="none" stroke="#ffffff" stroke-width="1.6" stroke-opacity="0.623529" d="M863.47,-701.7C900.52,-676.97 954.62,-640.85 991.1,-616.5"/>
<polygon fill="none" stroke="#ffffff" stroke-width="1.6" stroke-opacity="0.623529" points="992.4,-619 997.5,-612.23 989.29,-614.34 992.4,-619"/>
</a>
</g>
</g>
<!-- 26 -->
<g id="node27" class="node node0 node0 node14 node0 node14 node34 node26">
<title>26</title>
<g id="a_node27"><a xlink:title="serde v1.0.228&#10;318 B&#10;default(std),&#10;derive(serde_derive),&#10;serde_derive,&#10;std">
<ellipse fill="#db59f6" stroke="#ffffff" stroke-width="1.2" cx="1511.38" cy="-179.67" rx="1.17" ry="1.17"/>
<text xml:space="preserve" text-anchor="middle" x="1511.38" y="-173.44" font-family="monospace" font-size="18.00" fill="#ffffff">serde</text>
</a>
</g>
</g>
<!-- 0&#45;&gt;26 -->
<g id="edge39" class="edge node0">
<title>0&#45;&gt;26</title>
<g id="a_edge39"><a xlink:title="pugio &#45;&gt; serde">
<path fill="none" stroke="#ffffff" stroke-width="1.6" stroke-opacity="0.623529" d="M871.36,-719.64C1033.63,-686.97 1547.32,-573.27 1616.38,-430.72 1653.03,-355.05 1639.3,-309.9 1587.38,-243.77 1582.03,-236.97 1537.89,-201.68 1519.43,-187.04"/>
<polygon fill="none" stroke="#ffffff" stroke-width="1.6" stroke-opacity="0.623529" points="1521.34,-184.97 1513.32,-182.21 1517.86,-189.37 1521.34,-184.97"/>
</a>
</g>
</g>
<!-- 35 -->
<g id="node36" class="node node0 node35">
<title>35</title>
<g id="a_node36"><a xlink:title="regex_lite v0.1.8&#10;46.25 KiB&#10;default(std,string),&#10;std,&#10;string">
<ellipse fill="#b33059" stroke="#ffffff" stroke-width="1.2" cx="1768.38" cy="-589.28" rx="39.57" ry="39.57"/>
<text xml:space="preserve" text-anchor="middle" x="1768.38" y="-583.06" font-family="monospace" font-size="18.00" fill="#ffffff">regex_lite</text>
</a>
</g>
</g>
<!-- 0&#45;&gt;35 -->
<g id="edge40" class="edge node0">
<title>0&#45;&gt;35</title>
<g id="a_edge40"><a xlink:title="pugio &#45;&gt; regex_lite">
<path fill="none" stroke="#ffffff" stroke-width="1.6" stroke-opacity="0.623529" d="M872.62,-728.53C1033.75,-726.01 1535.65,-713.53 1685.38,-654.85 1702.85,-648 1719.68,-636.24 1733.56,-624.61"/>
<polygon fill="none" stroke="#ffffff" stroke-width="1.6" stroke-opacity="0.623529" points="1735.34,-626.77 1739.55,-619.41 1731.67,-622.55 1735.34,-626.77"/>
</a>
</g>
</g>
<!-- 36 -->
<g id="node37" class="node node0 node36">
<title>36</title>
<g id="a_node37"><a xlink:title="toml v0.9.8&#10;63.90 KiB&#10;parse,&#10;serde,&#10;std">
<ellipse fill="#ac3712" stroke="#ffffff" stroke-width="1.2" cx="1946.38" cy="-367" rx="44.27" ry="44.27"/>
<text xml:space="preserve" text-anchor="middle" x="1946.38" y="-360.77" font-family="monospace" font-size="18.00" fill="#ffffff">toml</text>
</a>
</g>
</g>
<!-- 0&#45;&gt;36 -->
<g id="edge41" class="edge node0">
<title>0&#45;&gt;36</title>
<g id="a_edge41"><a xlink:title="pugio &#45;&gt; toml">
<path fill="none" stroke="#ffffff" stroke-width="1.6" stroke-opacity="0.623529" d="M872.56,-727.47C1067.81,-720.56 1769.75,-691.5 1845.38,-628.85 1908.12,-576.87 1932.01,-480.96 1941.01,-421.05"/>
<polygon fill="none" stroke="#ffffff" stroke-width="1.6" stroke-opacity="0.623529" points="1943.74,-421.73 1942.09,-413.42 1938.2,-420.95 1943.74,-421.73"/>
</a>
</g>
</g>
<!-- 4 -->
<g id="node5" class="node node0 node3 node4">
<title>4</title>
<g id="a_node5"><a xlink:title="clap_builder v4.5.53&#10;231.56 KiB&#10;error&#45;context,&#10;help,&#10;std,&#10;usage">
<ellipse fill="#c56805" stroke="#ffffff" stroke-width="1.2" cx="149.38" cy="-367" rx="63.72" ry="63.72"/>
<text xml:space="preserve" text-anchor="middle" x="149.38" y="-360.77" font-family="monospace" font-size="18.00" fill="#ffffff">clap_builder</text>
</a>
</g>
</g>
<!-- 3&#45;&gt;4 -->
<g id="edge4" class="edge node0 node3">
<title>3&#45;&gt;4</title>
<g id="a_edge4"><a xlink:title="clap &#45;&gt; clap_builder">
<path fill="none" stroke="#ffffff" stroke-width="1.6" stroke-opacity="0.623529" d="M496.32,-588.2C495.16,-586.53 476.22,-559.55 453.38,-549.72 390.65,-522.73 193.4,-574.93 147.12,-524.72 126,-501.8 124.23,-468.01 128.72,-437.67"/>
<polygon fill="none" stroke="#ffffff" stroke-width="1.6" stroke-opacity="0.623529" points="131.46,-438.28 130.06,-429.92 125.94,-437.33 131.46,-438.28"/>
</a>
</g>
<g id="a_edge4&#45;label"><a xlink:title="clap &#45;&gt; clap_builder">
<text xml:space="preserve" text-anchor="middle" x="266.75" y="-511.89" font-family="monospace" font-size="13.50" fill="#ffffff">error&#45;context(error&#45;context),</text>
<text xml:space="preserve" text-anchor="middle" x="266.75" y="-494.64" font-family="monospace" font-size="13.50" fill="#ffffff">help(help),</text>
<text xml:space="preserve" text-anchor="middle" x="266.75" y="-477.39" font-family="monospace" font-size="13.50" fill="#ffffff">std(std),</text>
<text xml:space="preserve" text-anchor="middle" x="266.75" y="-460.14" font-family="monospace" font-size="13.50" fill="#ffffff">usage(usage)</text>
</a>
</g>
</g>
<!-- 5 -->
<g id="node6" class="node node0 node3 node4 node5">
<title>5</title>
<g id="a_node6"><a xlink:title="anstyle v1.0.13&#10;2.06 KiB&#10;default(std),&#10;std">
<ellipse fill="#cf57fe" stroke="#ffffff" stroke-width="1.2" cx="47.38" cy="-179.67" rx="6.5" ry="6.5"/>
<text xml:space="preserve" text-anchor="middle" x="47.38" y="-173.44" font-family="monospace" font-size="18.00" fill="#ffffff">anstyle</text>
</a>
</g>
</g>
<!-- 4&#45;&gt;5 -->
<g id="edge5" class="edge node0 node3 node4">
<title>4&#45;&gt;5</title>
<g id="a_edge5"><a xlink:title="clap_builder &#45;&gt; anstyle">
<path fill="none" stroke="#ffffff" stroke-width="1.6" stroke-opacity="0.623529" d="M111.7,-315.67C103.52,-303.71 95.26,-290.79 88.38,-278.27 72.9,-250.13 59.45,-214.93 52.47,-195.42"/>
<polygon fill="none" stroke="#ffffff" stroke-width="1.6" stroke-opacity="0.623529" points="55.16,-194.62 49.87,-188 49.87,-196.47 55.16,-194.62"/>
</a>
</g>
<g id="a_edge5&#45;label"><a xlink:title="clap_builder &#45;&gt; anstyle">
<text xml:space="preserve" text-anchor="middle" x="121.38" y="-256.82" font-family="monospace" font-size="13.50" fill="#ffffff">std(std)</text>
</a>
</g>
</g>
<!-- 6 -->
<g id="node7" class="node node0 node3 node4 node6">
<title>6</title>
<g id="a_node7"><a xlink:title="clap_lex v0.7.6&#10;1.08 KiB&#10;default">
<ellipse fill="#c257ff" stroke="#ffffff" stroke-width="1.2" cx="172.38" cy="-179.67" rx="3.72" ry="3.72"/>
<text xml:space="preserve" text-anchor="middle" x="172.38" y="-173.44" font-family="monospace" font-size="18.00" fill="#ffffff">clap_lex</text>
</a>
</g>
</g>
<!-- 4&#45;&gt;6 -->
<g id="edge6" class="edge node0 node3 node4">
<title>4&#45;&gt;6</title>
<g id="a_edge6"><a xlink:title="clap_builder &#45;&gt; clap_lex">
<path fill="none" stroke="#ffffff" stroke-width="1.6" stroke-opacity="0.623529" d="M157.1,-303.77C162.05,-263.87 168.05,-215.51 170.83,-193.13"/>
<polygon fill="none" stroke="#ffffff" stroke-width="1.6" stroke-opacity="0.623529" points="173.58,-193.73 171.78,-185.44 168.02,-193.04 173.58,-193.73"/>
</a>
</g>
</g>
<!-- 8 -->
<g id="node9" class="node node0 node7 node8">
<title>8</title>
<g id="a_node9"><a xlink:title="is_wsl v0.4.0&#10;0 B&#10;default">
<ellipse fill="#d95af8" stroke="#ffffff" stroke-width="1.2" cx="315.38" cy="-367" rx="0.36" ry="0.36"/>
<text xml:space="preserve" text-anchor="middle" x="315.38" y="-360.77" font-family="monospace" font-size="18.00" fill="#ffffff">is_wsl</text>
</a>
</g>
</g>
<!-- 7&#45;&gt;8 -->
<g id="edge8" class="edge node0 node7">
<title>7&#45;&gt;8</title>
<g id="a_edge8"><a xlink:title="open &#45;&gt; is_wsl">
<path fill="none" stroke="#ffffff" stroke-width="1.6" stroke-opacity="0.623529" d="M573.34,-578.22C565.18,-569.65 552.47,-557.52 539.38,-549.72 510.99,-532.81 497.56,-541.95 469.38,-524.72 417.33,-492.9 411.55,-474.78 369.38,-430.72 351.28,-411.81 331.6,-388.06 321.75,-375.93"/>
<polygon fill="none" stroke="#ffffff" stroke-width="1.6" stroke-opacity="0.623529" points="324.17,-374.47 316.97,-369.99 319.8,-377.98 324.17,-374.47"/>
</a>
</g>
</g>
<!-- 11 -->
<g id="node12" class="node node0 node7 node11">
<title>11</title>
<g id="a_node12"><a xlink:title="libc v0.2.177&#10;0 B&#10;default(std),&#10;std">
<ellipse fill="#7d78f7" stroke="#ffffff" stroke-width="1.2" cx="412.38" cy="-367" rx="0.36" ry="0.36"/>
<text xml:space="preserve" text-anchor="middle" x="412.38" y="-360.77" font-family="monospace" font-size="18.00" fill="#ffffff">libc</text>
</a>
</g>
</g>
<!-- 7&#45;&gt;11 -->
<g id="edge12" class="edge node0 node7">
<title>7&#45;&gt;11</title>
<g id="a_edge12"><a xlink:title="open &#45;&gt; libc">
<path fill="none" stroke="#ffffff" stroke-width="1.6" stroke-opacity="0.623529" d="M573.77,-578.18C552.86,-553.49 497.95,-487.94 455.38,-430.72 441.33,-411.84 425.99,-388.84 417.98,-376.61"/>
<polygon fill="none" stroke="#ffffff" stroke-width="1.6" stroke-opacity="0.623529" points="420.47,-375.31 413.76,-370.13 415.77,-378.36 420.47,-375.31"/>
</a>
</g>
</g>
<!-- 12 -->
<g id="node13" class="node node0 node7 node12">
<title>12</title>
<g id="a_node13"><a xlink:title="pathdiff v0.2.3&#10;0 B&#10;default">
<ellipse fill="#7d78f7" stroke="#ffffff" stroke-width="1.2" cx="521.38" cy="-367" rx="0.36" ry="0.36"/>
<text xml:space="preserve" text-anchor="middle" x="521.38" y="-360.77" font-family="monospace" font-size="18.00" fill="#ffffff">pathdiff</text>
</a>
</g>
</g>
<!-- 7&#45;&gt;12 -->
<g id="edge13" class="edge node0 node7">
<title>7&#45;&gt;12</title>
<g id="a_edge13"><a xlink:title="open &#45;&gt; pathdiff">
<path fill="none" stroke="#ffffff" stroke-width="1.6" stroke-opacity="0.623529" d="M578.83,-575.49C567.77,-535.54 534.02,-413.65 524.13,-377.93"/>
<polygon fill="none" stroke="#ffffff" stroke-width="1.6" stroke-opacity="0.623529" points="526.89,-377.41 522.05,-370.45 521.49,-378.9 526.89,-377.41"/>
</a>
</g>
</g>
<!-- 9 -->
<g id="node10" class="node node0 node7 node8 node9">
<title>9</title>
<g id="a_node10"><a xlink:title="is_docker v0.2.0&#10;0 B&#10;default">
<ellipse fill="#cb57fe" stroke="#ffffff" stroke-width="1.2" cx="383.38" cy="-179.67" rx="0.36" ry="0.36"/>
<text xml:space="preserve" text-anchor="middle" x="383.38" y="-173.44" font-family="monospace" font-size="18.00" fill="#ffffff">is_docker</text>
</a>
</g>
</g>
<!-- 8&#45;&gt;9 -->
<g id="edge9" class="edge node0 node7 node8">
<title>8&#45;&gt;9</title>
<g id="a_edge9"><a xlink:title="is_wsl &#45;&gt; is_docker">
<path fill="none" stroke="#ffffff" stroke-width="1.6" stroke-opacity="0.623529" d="M315.42,-365.86C317.19,-361.04 366.11,-227.72 379.83,-190.33"/>
<polygon fill="none" stroke="#ffffff" stroke-width="1.6" stroke-opacity="0.623529" points="382.37,-191.54 382.49,-183.07 377.11,-189.62 382.37,-191.54"/>
</a>
</g>
</g>
<!-- 10 -->
<g id="node11" class="node node0 node7 node8 node0 node7 node8 node9 node10">
<title>10</title>
<g id="a_node11"><a xlink:title="once_cell v1.21.3&#10;3.68 KiB&#10;alloc(race),&#10;default(std),&#10;race,&#10;std(alloc)">
<ellipse fill="#d95af8" stroke="#ffffff" stroke-width="1.2" cx="352.38" cy="-28.03" rx="10.21" ry="10.21"/>
<text xml:space="preserve" text-anchor="middle" x="352.38" y="-21.8" font-family="monospace" font-size="18.00" fill="#ffffff">once_cell</text>
</a>
</g>
</g>
<!-- 8&#45;&gt;10 -->
<g id="edge11" class="edge node0 node7 node8">
<title>8&#45;&gt;10</title>
<g id="a_edge11"><a xlink:title="is_wsl &#45;&gt; once_cell">
<path fill="none" stroke="#ffffff" stroke-width="1.6" stroke-opacity="0.623529" d="M315.36,-365.9C314.75,-362.04 295.48,-237.74 312.38,-140.56 318.37,-106.06 334.08,-68.12 343.94,-46.58"/>
<polygon fill="none" stroke="#ffffff" stroke-width="1.6" stroke-opacity="0.623529" points="346.46,-47.78 347.32,-39.35 341.39,-45.4 346.46,-47.78"/>
</a>
</g>
</g>
<!-- 9&#45;&gt;10 -->
<g id="edge10" class="edge node0 node7 node8 node9">
<title>9&#45;&gt;10</title>
<g id="a_edge10"><a xlink:title="is_docker &#45;&gt; once_cell">
<path fill="none" stroke="#ffffff" stroke-width="1.6" stroke-opacity="0.623529" d="M383.35,-178.56C382.62,-175.05 364.42,-87.15 356.26,-47.79"/>
<polygon fill="none" stroke="#ffffff" stroke-width="1.6" stroke-opacity="0.623529" points="359.02,-47.32 354.66,-40.05 353.54,-48.45 359.02,-47.32"/>
</a>
</g>
</g>
<!-- 15 -->
<g id="node16" class="node node0 node14 node15">
<title>15</title>
<g id="a_node16"><a xlink:title="colorous v1.0.16&#10;2.44 KiB&#10;default(std),&#10;std">
<ellipse fill="#d257fd" stroke="#ffffff" stroke-width="1.2" cx="652.38" cy="-367" rx="7.45" ry="7.45"/>
<text xml:space="preserve" text-anchor="middle" x="652.38" y="-360.77" font-family="monospace" font-size="18.00" fill="#ffffff">colorous</text>
</a>
</g>
</g>
<!-- 14&#45;&gt;15 -->
<g id="edge16" class="edge node0 node14">
<title>14&#45;&gt;15</title>
<g id="a_edge16"><a xlink:title="pugio_lib &#45;&gt; colorous">
<path fill="none" stroke="#ffffff" stroke-width="1.6" stroke-opacity="0.623529" d="M995.13,-576.56C961.76,-564.97 910.63,-545.94 868.38,-524.72 797.73,-489.24 779.72,-479.32 717.38,-430.72 697.08,-414.9 676.1,-393.59 663.65,-380.33"/>
<polygon fill="none" stroke="#ffffff" stroke-width="1.6" stroke-opacity="0.623529" points="665.93,-378.67 658.44,-374.7 661.82,-382.47 665.93,-378.67"/>
</a>
</g>
</g>
<!-- 16 -->
<g id="node17" class="node node0 node14 node16">
<title>16</title>
<g id="a_node17"><a xlink:title="colorsys v0.7.3&#10;2.09 KiB&#10;default(std),&#10;std">
<ellipse fill="#cf57fe" stroke="#ffffff" stroke-width="1.2" cx="783.38" cy="-367" rx="6.57" ry="6.57"/>
<text xml:space="preserve" text-anchor="middle" x="783.38" y="-360.77" font-family="monospace" font-size="18.00" fill="#ffffff">colorsys</text>
</a>
</g>
</g>
<!-- 14&#45;&gt;16 -->
<g id="edge17" class="edge node0 node14">
<title>14&#45;&gt;16</title>
<g id="a_edge17"><a xlink:title="pugio_lib &#45;&gt; colorsys">
<path fill="none" stroke="#ffffff" stroke-width="1.6" stroke-opacity="0.623529" d="M1000.17,-566.75C983.88,-554.81 963.63,-539.43 946.38,-524.72 900.46,-485.55 891.87,-472.56 848.38,-430.72 829.64,-412.7 807.92,-391.72 794.93,-379.17"/>
<polygon fill="none" stroke="#ffffff" stroke-width="1.6" stroke-opacity="0.623529" points="796.92,-377.19 789.22,-373.65 793.03,-381.22 796.92,-377.19"/>
</a>
</g>
</g>
<!-- 17 -->
<g id="node18" class="node node0 node14 node17">
<title>17</title>
<g id="a_node18"><a xlink:title="humansize v2.1.3&#10;1.23 KiB&#10;default">
<ellipse fill="#c557ff" stroke="#ffffff" stroke-width="1.2" cx="1102.38" cy="-367" rx="4.18" ry="4.18"/>
<text xml:space="preserve" text-anchor="middle" x="1102.38" y="-360.77" font-family="monospace" font-size="18.00" fill="#ffffff">humansize</text>
</a>
</g>
</g>
<!-- 14&#45;&gt;17 -->
<g id="edge18" class="edge node0 node14">
<title>14&#45;&gt;17</title>
<g id="a_edge18"><a xlink:title="pugio_lib &#45;&gt; humansize">
<path fill="none" stroke="#ffffff" stroke-width="1.6" stroke-opacity="0.623529" d="M1041.78,-553.38C1058.17,-503.25 1087.56,-413.31 1098.3,-380.45"/>
<polygon fill="none" stroke="#ffffff" stroke-width="1.6" stroke-opacity="0.623529" points="1100.94,-381.39 1100.77,-372.91 1095.62,-379.65 1100.94,-381.39"/>
</a>
</g>
</g>
<!-- 19 -->
<g id="node20" class="node node0 node14 node19">
<title>19</title>
<g id="a_node20"><a xlink:title="petgraph v0.8.3&#10;6.57 KiB&#10;stable_graph,&#10;std">
<ellipse fill="#e561ea" stroke="#ffffff" stroke-width="1.2" cx="914.38" cy="-367" rx="15.19" ry="15.19"/>
<text xml:space="preserve" text-anchor="middle" x="914.38" y="-360.77" font-family="monospace" font-size="18.00" fill="#ffffff">petgraph</text>
</a>
</g>
</g>
<!-- 14&#45;&gt;19 -->
<g id="edge20" class="edge node0 node14">
<title>14&#45;&gt;19</title>
<g id="a_edge20"><a xlink:title="pugio_lib &#45;&gt; petgraph">
<path fill="none" stroke="#ffffff" stroke-width="1.6" stroke-opacity="0.623529" d="M1008.45,-558.91C1001.03,-548.38 992.95,-536.26 986.38,-524.72 960.13,-478.67 935.76,-421.38 923.22,-390.41"/>
<polygon fill="none" stroke="#ffffff" stroke-width="1.6" stroke-opacity="0.623529" points="925.91,-389.6 920.33,-383.21 920.71,-391.68 925.91,-389.6"/>
</a>
</g>
</g>
<!-- 14&#45;&gt;26 -->
<g id="edge27" class="edge node0 node14">
<title>14&#45;&gt;26</title>
<g id="a_edge27"><a xlink:title="pugio_lib &#45;&gt; serde">
<path fill="none" stroke="#ffffff" stroke-width="1.6" stroke-opacity="0.623529" d="M1067.74,-583.94C1183.14,-569.66 1529.71,-519.85 1589.38,-430.72 1645.4,-347.02 1546.1,-220.98 1518.3,-188.51"/>
<polygon fill="none" stroke="#ffffff" stroke-width="1.6" stroke-opacity="0.623529" points="1520.47,-186.74 1513.08,-182.59 1516.27,-190.44 1520.47,-186.74"/>
</a>
</g>
</g>
<!-- 28 -->
<g id="node29" class="node node0 node14 node0 node14 node34 node28">
<title>28</title>
<g id="a_node29"><a xlink:title="serde_json v1.0.145&#10;15.73 KiB&#10;default(std),&#10;std">
<ellipse fill="#c43f86" stroke="#ffffff" stroke-width="1.2" cx="1261.38" cy="-179.67" rx="24.95" ry="24.95"/>
<text xml:space="preserve" text-anchor="middle" x="1261.38" y="-173.44" font-family="monospace" font-size="18.00" fill="#ffffff">serde_json</text>
</a>
</g>
</g>
<!-- 14&#45;&gt;28 -->
<g id="edge29" class="edge node0 node14">
<title>14&#45;&gt;28</title>
<g id="a_edge29"><a xlink:title="pugio_lib &#45;&gt; serde_json">
<path fill="none" stroke="#ffffff" stroke-width="1.6" stroke-opacity="0.623529" d="M1019.78,-553.23C1004.76,-496.22 984,-381.89 1031.38,-303.27 1053.73,-266.18 1171.25,-216 1229.12,-193.05"/>
<polygon fill="none" stroke="#ffffff" stroke-width="1.6" stroke-opacity="0.623529" points="1229.86,-195.77 1236.28,-190.24 1227.81,-190.56 1229.86,-195.77"/>
</a>
</g>
</g>
<!-- 32 -->
<g id="node33" class="node node0 node14 node32">
<title>32</title>
<g id="a_node33"><a xlink:title="strum v0.27.2&#10;63 B&#10;default(std),&#10;derive(strum_macros),&#10;std,&#10;strum_macros">
<ellipse fill="#a061fc" stroke="#ffffff" stroke-width="1.2" cx="1398.38" cy="-367" rx="0.36" ry="0.36"/>
<text xml:space="preserve" text-anchor="middle" x="1398.38" y="-360.77" font-family="monospace" font-size="18.00" fill="#ffffff">strum</text>
</a>
</g>
</g>
<!-- 14&#45;&gt;32 -->
<g id="edge34" class="edge node0 node14">
<title>14&#45;&gt;32</title>
<g id="a_edge34"><a xlink:title="pugio_lib &#45;&gt; strum">
<path fill="none" stroke="#ffffff" stroke-width="1.6" stroke-opacity="0.623529" d="M1065.88,-576.7C1128.11,-555.18 1258.83,-504.41 1349.38,-430.72 1368.69,-415 1385.09,-390.33 1393.11,-377.1"/>
<polygon fill="none" stroke="#ffffff" stroke-width="1.6" stroke-opacity="0.623529" points="1395.52,-378.53 1397.1,-370.21 1390.67,-375.73 1395.52,-378.53"/>
</a>
</g>
</g>
<!-- 33 -->
<g id="node34" class="node node0 node14 node33">
<title>33</title>
<g id="a_node34"><a xlink:title="thiserror v2.0.17&#10;0 B&#10;default(std),&#10;std">
<ellipse fill="#7d78f7" stroke="#ffffff" stroke-width="1.2" cx="1518.38" cy="-367" rx="0.36" ry="0.36"/>
<text xml:space="preserve" text-anchor="middle" x="1518.38" y="-360.77" font-family="monospace" font-size="18.00" fill="#ffffff">thiserror</text>
</a>
</g>
</g>
<!-- 14&#45;&gt;33 -->
<g id="edge35" class="edge node0 node14">
<title>14&#45;&gt;33</title>
<g id="a_edge35"><a xlink:title="pugio_lib &#45;&gt; thiserror">
<path fill="none" stroke="#ffffff" stroke-width="1.6" stroke-opacity="0.623529" d="M1067.22,-581.59C1115.77,-572.13 1203.33,-552.79 1274.38,-524.72 1355.76,-492.56 1375.68,-480.89 1447.38,-430.72 1472.7,-412.99 1499.11,-387.49 1511.36,-375.18"/>
<polygon fill="none" stroke="#ffffff" stroke-width="1.6" stroke-opacity="0.623529" points="1512.99,-377.52 1516.58,-369.84 1508.98,-373.6 1512.99,-377.52"/>
</a>
</g>
</g>
<!-- 34 -->
<g id="node35" class="node node0 node14 node34">
<title>34</title>
<g id="a_node35"><a xlink:title="tinytemplate v1.2.1&#10;35.84 KiB&#10;default">
<ellipse fill="#b02d4f" stroke="#ffffff" stroke-width="1.2" cx="1261.38" cy="-367" rx="35.94" ry="35.94"/>
<text xml:space="preserve" text-anchor="middle" x="1261.38" y="-360.77" font-family="monospace" font-size="18.00" fill="#ffffff">tinytemplate</text>
</a>
</g>
</g>
<!-- 14&#45;&gt;34 -->
<g id="edge36" class="edge node0 node14">
<title>14&#45;&gt;34</title>
<g id="a_edge36"><a xlink:title="pugio_lib &#45;&gt; tinytemplate">
<path fill="none" stroke="#ffffff" stroke-width="1.6" stroke-opacity="0.623529" d="M1056.87,-563.01C1099.31,-522.55 1182.41,-443.3 1228.54,-399.31"/>
<polygon fill="none" stroke="#ffffff" stroke-width="1.6" stroke-opacity="0.623529" points="1230.28,-401.52 1234.14,-393.97 1226.41,-397.47 1230.28,-401.52"/>
</a>
</g>
</g>
<!-- 18 -->
<g id="node19" class="node node0 node14 node17 node18">
<title>18</title>
<g id="a_node19"><a xlink:title="libm v0.2.15&#10;0 B&#10;arch,&#10;default(arch)">
<ellipse fill="#7d78f7" stroke="#ffffff" stroke-width="1.2" cx="1102.38" cy="-179.67" rx="0.36" ry="0.36"/>
<text xml:space="preserve" text-anchor="middle" x="1102.38" y="-173.44" font-family="monospace" font-size="18.00" fill="#ffffff">libm</text>
</a>
</g>
</g>
<!-- 17&#45;&gt;18 -->
<g id="edge19" class="edge node0 node14 node17">
<title>17&#45;&gt;18</title>
<g id="a_edge19"><a xlink:title="humansize &#45;&gt; libm">
<path fill="none" stroke="#ffffff" stroke-width="1.6" stroke-opacity="0.623529" d="M1102.38,-363.08C1102.38,-343.14 1102.38,-226.4 1102.38,-190.9"/>
<polygon fill="none" stroke="#ffffff" stroke-width="1.6" stroke-opacity="0.623529" points="1105.18,-191.2 1102.38,-183.2 1099.58,-191.2 1105.18,-191.2"/>
</a>
</g>
</g>
<!-- 20 -->
<g id="node21" class="node node0 node14 node19 node20">
<title>20</title>
<g id="a_node21"><a xlink:title="fixedbitset v0.5.7&#10;0 B&#10;">
<ellipse fill="#7d78f7" stroke="#ffffff" stroke-width="1.2" cx="976.38" cy="-179.67" rx="0.36" ry="0.36"/>
<text xml:space="preserve" text-anchor="middle" x="976.38" y="-173.44" font-family="monospace" font-size="18.00" fill="#ffffff">fixedbitset</text>
</a>
</g>
</g>
<!-- 19&#45;&gt;20 -->
<g id="edge21" class="edge node0 node14 node19">
<title>19&#45;&gt;20</title>
<g id="a_edge21"><a xlink:title="petgraph &#45;&gt; fixedbitset">
<path fill="none" stroke="#ffffff" stroke-width="1.6" stroke-opacity="0.623529" d="M918.83,-352.67C930.7,-317.21 962.82,-221.17 973.14,-190.34"/>
<polygon fill="none" stroke="#ffffff" stroke-width="1.6" stroke-opacity="0.623529" points="975.69,-191.53 975.58,-183.06 970.38,-189.75 975.69,-191.53"/>
</a>
</g>
</g>
<!-- 21 -->
<g id="node22" class="node node0 node14 node19 node21">
<title>21</title>
<g id="a_node22"><a xlink:title="indexmap v2.12.1&#10;0 B&#10;std">
<ellipse fill="#b45afe" stroke="#ffffff" stroke-width="1.2" cx="685.38" cy="-179.67" rx="0.36" ry="0.36"/>
<text xml:space="preserve" text-anchor="middle" x="685.38" y="-173.44" font-family="monospace" font-size="18.00" fill="#ffffff">indexmap</text>
</a>
</g>
</g>
<!-- 19&#45;&gt;21 -->
<g id="edge22" class="edge node0 node14 node19">
<title>19&#45;&gt;21</title>
<g id="a_edge22"><a xlink:title="petgraph &#45;&gt; indexmap">
<path fill="none" stroke="#ffffff" stroke-width="1.6" stroke-opacity="0.623529" d="M905.57,-355.32C893.78,-341.62 871.66,-317.91 848.38,-303.27 821.82,-286.59 808.69,-295.34 782.38,-278.27 742.32,-252.3 705.69,-207.4 691.55,-188.95"/>
<polygon fill="none" stroke="#ffffff" stroke-width="1.6" stroke-opacity="0.623529" points="693.88,-187.39 686.86,-182.65 689.39,-190.74 693.88,-187.39"/>
</a>
</g>
<g id="a_edge22&#45;label"><a xlink:title="petgraph &#45;&gt; indexmap">
<text xml:space="preserve" text-anchor="middle" x="815.38" y="-256.82" font-family="monospace" font-size="13.50" fill="#ffffff">std(std)</text>
</a>
</g>
</g>
<!-- 24 -->
<g id="node25" class="node node0 node14 node19 node24">
<title>24</title>
<g id="a_node25"><a xlink:title="hashbrown v0.15.5&#10;493 B&#10;default&#45;hasher,&#10;inline&#45;more">
<ellipse fill="#b45afe" stroke="#ffffff" stroke-width="1.2" cx="822.38" cy="-179.67" rx="1.78" ry="1.78"/>
<text xml:space="preserve" text-anchor="middle" x="822.38" y="-173.44" font-family="monospace" font-size="18.00" fill="#ffffff">hashbrown</text>
</a>
</g>
</g>
<!-- 19&#45;&gt;24 -->
<g id="edge25" class="edge node0 node14 node19">
<title>19&#45;&gt;24</title>
<g id="a_edge25"><a xlink:title="petgraph &#45;&gt; hashbrown">
<path fill="none" stroke="#ffffff" stroke-width="1.6" stroke-opacity="0.623529" d="M908.05,-353.26C890.67,-318.24 842.44,-221.08 827.11,-190.21"/>
<polygon fill="none" stroke="#ffffff" stroke-width="1.6" stroke-opacity="0.623529" points="829.7,-189.13 823.64,-183.21 824.69,-191.62 829.7,-189.13"/>
</a>
</g>
</g>
<!-- 22 -->
<g id="node23" class="node node0 node14 node19 node21 node22">
<title>22</title>
<g id="a_node23"><a xlink:title="equivalent v1.0.2&#10;0 B&#10;">
<ellipse fill="#7d78f7" stroke="#ffffff" stroke-width="1.2" cx="537.38" cy="-28.03" rx="0.36" ry="0.36"/>
<text xml:space="preserve" text-anchor="middle" x="537.38" y="-21.8" font-family="monospace" font-size="18.00" fill="#ffffff">equivalent</text>
</a>
</g>
</g>
<!-- 21&#45;&gt;22 -->
<g id="edge23" class="edge node0 node14 node19 node21">
<title>21&#45;&gt;22</title>
<g id="a_edge23"><a xlink:title="indexmap &#45;&gt; equivalent">
<path fill="none" stroke="#ffffff" stroke-width="1.6" stroke-opacity="0.623529" d="M685.27,-178.56C681.39,-174.64 573.52,-65.57 544.5,-36.24"/>
<polygon fill="none" stroke="#ffffff" stroke-width="1.6" stroke-opacity="0.623529" points="546.8,-34.57 539.18,-30.86 542.82,-38.51 546.8,-34.57"/>
</a>
</g>
</g>
<!-- 23 -->
<g id="node24" class="node node0 node14 node19 node21 node23">
<title>23</title>
<g id="a_node24"><a xlink:title="hashbrown v0.16.1&#10;493 B&#10;">
<ellipse fill="#b45afe" stroke="#ffffff" stroke-width="1.2" cx="685.38" cy="-28.03" rx="1.78" ry="1.78"/>
<text xml:space="preserve" text-anchor="middle" x="685.38" y="-21.8" font-family="monospace" font-size="18.00" fill="#ffffff">hashbrown</text>
</a>
</g>
</g>
<!-- 21&#45;&gt;23 -->
<g id="edge24" class="edge node0 node14 node19 node21">
<title>21&#45;&gt;23</title>
<g id="a_edge24"><a xlink:title="indexmap &#45;&gt; hashbrown">
<path fill="none" stroke="#ffffff" stroke-width="1.6" stroke-opacity="0.623529" d="M685.38,-178.56C685.38,-174.78 685.38,-73.46 685.38,-39.79"/>
<polygon fill="none" stroke="#ffffff" stroke-width="1.6" stroke-opacity="0.623529" points="688.18,-40.1 685.38,-32.1 682.58,-40.1 688.18,-40.1"/>
</a>
</g>
</g>
<!-- 25 -->
<g id="node26" class="node node0 node14 node19 node24 node25">
<title>25</title>
<g id="a_node26"><a xlink:title="foldhash v0.1.5&#10;0 B&#10;">
<ellipse fill="#7d78f7" stroke="#ffffff" stroke-width="1.2" cx="822.38" cy="-28.03" rx="0.36" ry="0.36"/>
<text xml:space="preserve" text-anchor="middle" x="822.38" y="-21.8" font-family="monospace" font-size="18.00" fill="#ffffff">foldhash</text>
</a>
</g>
</g>
<!-- 24&#45;&gt;25 -->
<g id="edge26" class="edge node0 node14 node19 node24">
<title>24&#45;&gt;25</title>
<g id="a_edge26"><a xlink:title="hashbrown &#45;&gt; foldhash">
<path fill="none" stroke="#ffffff" stroke-width="1.6" stroke-opacity="0.623529" d="M822.38,-178C822.38,-168.99 822.38,-71.3 822.38,-39.19"/>
<polygon fill="none" stroke="#ffffff" stroke-width="1.6" stroke-opacity="0.623529" points="825.18,-39.55 822.38,-31.55 819.58,-39.55 825.18,-39.55"/>
</a>
</g>
</g>
<!-- 27 -->
<g id="node28" class="node node0 node0 node14 node0 node14 node34 node26 node0 node14 node0 node14 node34 node28 node0 node36 node0 node36 node38 node0 node36 node39 node27">
<title>27</title>
<g id="a_node28"><a xlink:title="serde_core v1.0.228&#10;20.02 KiB&#10;alloc,&#10;result,&#10;std">
<ellipse fill="#cf48a2" stroke="#ffffff" stroke-width="1.2" cx="1653.38" cy="-28.03" rx="28.03" ry="28.03"/>
<text xml:space="preserve" text-anchor="middle" x="1653.38" y="-21.8" font-family="monospace" font-size="18.00" fill="#ffffff">serde_core</text>
</a>
</g>
</g>
<!-- 26&#45;&gt;27 -->
<g id="edge28" class="edge node0 node0 node14 node0 node14 node34 node26">
<title>26&#45;&gt;27</title>
<g id="a_edge28"><a xlink:title="serde &#45;&gt; serde_core">
<path fill="none" stroke="#ffffff" stroke-width="1.6" stroke-opacity="0.623529" d="M1511.4,-178.62C1512.39,-176.8 1544.28,-118.28 1581.38,-81.06 1593.34,-69.05 1608.3,-57.76 1621.49,-48.79"/>
<polygon fill="none" stroke="#ffffff" stroke-width="1.6" stroke-opacity="0.623529" points="1622.71,-51.34 1627.83,-44.58 1619.61,-46.67 1622.71,-51.34"/>
</a>
</g>
<g id="a_edge28&#45;label"><a xlink:title="serde &#45;&gt; serde_core">
<text xml:space="preserve" text-anchor="middle" x="1614.38" y="-94.11" font-family="monospace" font-size="13.50" fill="#ffffff">std(std)</text>
</a>
</g>
</g>
<!-- 28&#45;&gt;27 -->
<g id="edge31" class="edge node0 node14 node0 node14 node34 node28">
<title>28&#45;&gt;27</title>
<g id="a_edge31"><a xlink:title="serde_json &#45;&gt; serde_core">
<path fill="none" stroke="#ffffff" stroke-width="1.6" stroke-opacity="0.623529" d="M1283.17,-167.91C1322.26,-148.87 1407.15,-108.63 1481.38,-81.06 1527.29,-64 1581.58,-48.3 1616.7,-38.7"/>
<polygon fill="none" stroke="#ffffff" stroke-width="1.6" stroke-opacity="0.623529" points="1617.19,-41.47 1624.18,-36.68 1615.73,-36.07 1617.19,-41.47"/>
</a>
</g>
<g id="a_edge31&#45;label"><a xlink:title="serde_json &#45;&gt; serde_core">
<text xml:space="preserve" text-anchor="middle" x="1514.38" y="-94.11" font-family="monospace" font-size="13.50" fill="#ffffff">std(std)</text>
</a>
</g>
</g>
<!-- 29 -->
<g id="node30" class="node node0 node14 node0 node14 node34 node28 node29">
<title>29</title>
<g id="a_node30"><a xlink:title="memchr v2.7.6&#10;5.31 KiB&#10;alloc,&#10;std(alloc)">
<ellipse fill="#de5cf2" stroke="#ffffff" stroke-width="1.2" cx="1164.38" cy="-28.03" rx="13.21" ry="13.21"/>
<text xml:space="preserve" text-anchor="middle" x="1164.38" y="-21.8" font-family="monospace" font-size="18.00" fill="#ffffff">memchr</text>
</a>
</g>
</g>
<!-- 28&#45;&gt;29 -->
<g id="edge30" class="edge node0 node14 node0 node14 node34 node28">
<title>28&#45;&gt;29</title>
<g id="a_edge30"><a xlink:title="serde_json &#45;&gt; memchr">
<path fill="none" stroke="#ffffff" stroke-width="1.6" stroke-opacity="0.623529" d="M1241.12,-165.76C1224.87,-154.41 1202.66,-136.46 1189.38,-115.56 1176.81,-95.79 1170.39,-69.54 1167.23,-51.15"/>
<polygon fill="none" stroke="#ffffff" stroke-width="1.6" stroke-opacity="0.623529" points="1170.03,-50.98 1166.05,-43.49 1164.5,-51.82 1170.03,-50.98"/>
</a>
</g>
<g id="a_edge30&#45;label"><a xlink:title="serde_json &#45;&gt; memchr">
<text xml:space="preserve" text-anchor="middle" x="1222.38" y="-94.11" font-family="monospace" font-size="13.50" fill="#ffffff">std(std)</text>
</a>
</g>
</g>
<!-- 30 -->
<g id="node31" class="node node0 node14 node0 node14 node34 node28 node30">
<title>30</title>
<g id="a_node31"><a xlink:title="itoa v1.0.15&#10;0 B&#10;default">
<ellipse fill="#7d78f7" stroke="#ffffff" stroke-width="1.2" cx="1261.38" cy="-28.03" rx="0.36" ry="0.36"/>
<text xml:space="preserve" text-anchor="middle" x="1261.38" y="-21.8" font-family="monospace" font-size="18.00" fill="#ffffff">itoa</text>
</a>
</g>
</g>
<!-- 28&#45;&gt;30 -->
<g id="edge32" class="edge node0 node14 node0 node14 node34 node28">
<title>28&#45;&gt;30</title>
<g id="a_edge32"><a xlink:title="serde_json &#45;&gt; itoa">
<path fill="none" stroke="#ffffff" stroke-width="1.6" stroke-opacity="0.623529" d="M1261.38,-154.96C1261.38,-121.86 1261.38,-63.2 1261.38,-39.45"/>
<polygon fill="none" stroke="#ffffff" stroke-width="1.6" stroke-opacity="0.623529" points="1264.18,-39.51 1261.38,-31.51 1258.58,-39.51 1264.18,-39.51"/>
</a>
</g>
</g>
<!-- 31 -->
<g id="node32" class="node node0 node14 node0 node14 node34 node28 node31">
<title>31</title>
<g id="a_node32"><a xlink:title="ryu v1.0.20&#10;2.69 KiB&#10;default">
<ellipse fill="#d358fc" stroke="#ffffff" stroke-width="1.2" cx="1341.38" cy="-28.03" rx="8.03" ry="8.03"/>
<text xml:space="preserve" text-anchor="middle" x="1341.38" y="-21.8" font-family="monospace" font-size="18.00" fill="#ffffff">ryu</text>
</a>
</g>
</g>
<!-- 28&#45;&gt;31 -->
<g id="edge33" class="edge node0 node14 node0 node14 node34 node28">
<title>28&#45;&gt;31</title>
<g id="a_edge33"><a xlink:title="serde_json &#45;&gt; ryu">
<path fill="none" stroke="#ffffff" stroke-width="1.6" stroke-opacity="0.623529" d="M1272.67,-157.54C1289.02,-126.96 1318.89,-71.08 1333.25,-44.23"/>
<polygon fill="none" stroke="#ffffff" stroke-width="1.6" stroke-opacity="0.623529" points="1335.63,-45.71 1336.94,-37.33 1330.69,-43.07 1335.63,-45.71"/>
</a>
</g>
</g>
<!-- 34&#45;&gt;26 -->
<g id="edge37" class="edge node0 node14 node34">
<title>34&#45;&gt;26</title>
<g id="a_edge37"><a xlink:title="tinytemplate &#45;&gt; serde">
<path fill="none" stroke="#ffffff" stroke-width="1.6" stroke-opacity="0.623529" d="M1289.57,-345.1C1345.88,-303.35 1469.74,-211.53 1503.01,-186.87"/>
<polygon fill="none" stroke="#ffffff" stroke-width="1.6" stroke-opacity="0.623529" points="1504.56,-189.21 1509.32,-182.19 1501.22,-184.71 1504.56,-189.21"/>
</a>
</g>
</g>
<!-- 34&#45;&gt;28 -->
<g id="edge38" class="edge node0 node14 node34">
<title>34&#45;&gt;28</title>
<g id="a_edge38"><a xlink:title="tinytemplate &#45;&gt; serde_json">
<path fill="none" stroke="#ffffff" stroke-width="1.6" stroke-opacity="0.623529" d="M1261.38,-331.14C1261.38,-297.74 1261.38,-247.66 1261.38,-214.58"/>
<polygon fill="none" stroke="#ffffff" stroke-width="1.6" stroke-opacity="0.623529" points="1264.18,-214.9 1261.38,-206.9 1258.58,-214.9 1264.18,-214.9"/>
</a>
</g>
</g>
<!-- 36&#45;&gt;27 -->
<g id="edge43" class="edge node0 node36">
<title>36&#45;&gt;27</title>
<g id="a_edge43"><a xlink:title="toml &#45;&gt; serde_core">
<path fill="none" stroke="#ffffff" stroke-width="1.6" stroke-opacity="0.623529" d="M1956.56,-324.15C1969.27,-260.45 1981.67,-140.31 1912.38,-81.06 1879.52,-52.96 1754.62,-38.03 1691.04,-32.11"/>
<polygon fill="none" stroke="#ffffff" stroke-width="1.6" stroke-opacity="0.623529" points="1691.65,-29.36 1683.43,-31.43 1691.15,-34.93 1691.65,-29.36"/>
</a>
</g>
<g id="a_edge43&#45;label"><a xlink:title="toml &#45;&gt; serde_core">
<text xml:space="preserve" text-anchor="middle" x="1999.22" y="-175.47" font-family="monospace" font-size="13.50" fill="#ffffff">std(std)</text>
</a>
</g>
</g>
<!-- 37 -->
<g id="node38" class="node node0 node36 node0 node36 node40 node37">
<title>37</title>
<g id="a_node38"><a xlink:title="winnow v0.7.14&#10;349 B&#10;">
<ellipse fill="#b05afe" stroke="#ffffff" stroke-width="1.2" cx="2109.38" cy="-28.03" rx="1.28" ry="1.28"/>
<text xml:space="preserve" text-anchor="middle" x="2109.38" y="-21.8" font-family="monospace" font-size="18.00" fill="#ffffff">winnow</text>
</a>
</g>
</g>
<!-- 36&#45;&gt;37 -->
<g id="edge42" class="edge node0 node36">
<title>36&#45;&gt;37</title>
<g id="a_edge42"><a xlink:title="toml &#45;&gt; winnow">
<path fill="none" stroke="#ffffff" stroke-width="1.6" stroke-opacity="0.623529" d="M1972.68,-331.48C1993.83,-302.54 2023.25,-259.53 2043.38,-218.77 2075.75,-153.2 2099.37,-67.76 2106.85,-38.98"/>
<polygon fill="none" stroke="#ffffff" stroke-width="1.6" stroke-opacity="0.623529" points="2109.51,-39.9 2108.76,-31.46 2104.08,-38.52 2109.51,-39.9"/>
</a>
</g>
</g>
<!-- 38 -->
<g id="node39" class="node node0 node36 node38">
<title>38</title>
<g id="a_node39"><a xlink:title="serde_spanned v1.0.3&#10;0 B&#10;alloc,&#10;serde,&#10;std">
<ellipse fill="#db5af6" stroke="#ffffff" stroke-width="1.2" cx="1653.38" cy="-179.67" rx="0.36" ry="0.36"/>
<text xml:space="preserve" text-anchor="middle" x="1653.38" y="-173.44" font-family="monospace" font-size="18.00" fill="#ffffff">serde_spanned</text>
</a>
</g>
</g>
<!-- 36&#45;&gt;38 -->
<g id="edge44" class="edge node0 node36">
<title>36&#45;&gt;38</title>
<g id="a_edge44"><a xlink:title="toml &#45;&gt; serde_spanned">
<path fill="none" stroke="#ffffff" stroke-width="1.6" stroke-opacity="0.623529" d="M1903.64,-356.96C1855.79,-345.2 1777.8,-320.91 1723.12,-278.27 1690.95,-253.18 1667.18,-209.34 1657.78,-190.13"/>
<polygon fill="none" stroke="#ffffff" stroke-width="1.6" stroke-opacity="0.623529" points="1660.33,-188.98 1654.42,-182.91 1655.26,-191.34 1660.33,-188.98"/>
</a>
</g>
<g id="a_edge44&#45;label"><a xlink:title="toml &#45;&gt; serde_spanned">
<text xml:space="preserve" text-anchor="middle" x="1776.75" y="-265.45" font-family="monospace" font-size="13.50" fill="#ffffff">serde(serde),</text>
<text xml:space="preserve" text-anchor="middle" x="1776.75" y="-248.2" font-family="monospace" font-size="13.50" fill="#ffffff">std(std)</text>
</a>
</g>
</g>
<!-- 39 -->
<g id="node40" class="node node0 node36 node39">
<title>39</title>
<g id="a_node40"><a xlink:title="toml_datetime v0.7.3&#10;5.74 KiB&#10;alloc,&#10;serde,&#10;std">
<ellipse fill="#e45ddd" stroke="#ffffff" stroke-width="1.2" cx="1840.38" cy="-179.67" rx="13.91" ry="13.91"/>
<text xml:space="preserve" text-anchor="middle" x="1840.38" y="-173.44" font-family="monospace" font-size="18.00" fill="#ffffff">toml_datetime</text>
</a>
</g>
</g>
<!-- 36&#45;&gt;39 -->
<g id="edge46" class="edge node0 node36">
<title>36&#45;&gt;39</title>
<g id="a_edge46"><a xlink:title="toml &#45;&gt; toml_datetime">
<path fill="none" stroke="#ffffff" stroke-width="1.6" stroke-opacity="0.623529" d="M1908.6,-344.31C1885.86,-329.02 1858.76,-306.3 1845.12,-278.27 1833.67,-254.72 1834.3,-224.07 1836.61,-203.45"/>
<polygon fill="none" stroke="#ffffff" stroke-width="1.6" stroke-opacity="0.623529" points="1839.38,-203.84 1837.68,-195.54 1833.83,-203.09 1839.38,-203.84"/>
</a>
</g>
<g id="a_edge46&#45;label"><a xlink:title="toml &#45;&gt; toml_datetime">
<text xml:space="preserve" text-anchor="middle" x="1898.75" y="-265.45" font-family="monospace" font-size="13.50" fill="#ffffff">serde(serde),</text>
<text xml:space="preserve" text-anchor="middle" x="1898.75" y="-248.2" font-family="monospace" font-size="13.50" fill="#ffffff">std(std)</text>
</a>
</g>
</g>
<!-- 40 -->
<g id="node41" class="node node0 node36 node40">
<title>40</title>
<g id="a_node41"><a xlink:title="toml_parser v1.0.4&#10;44.80 KiB&#10;alloc,&#10;std">
<ellipse fill="#b33059" stroke="#ffffff" stroke-width="1.2" cx="2183.38" cy="-179.67" rx="39.11" ry="39.11"/>
<text xml:space="preserve" text-anchor="middle" x="2183.38" y="-173.44" font-family="monospace" font-size="18.00" fill="#ffffff">toml_parser</text>
</a>
</g>
</g>
<!-- 36&#45;&gt;40 -->
<g id="edge48" class="edge node0 node36">
<title>36&#45;&gt;40</title>
<g id="a_edge48"><a xlink:title="toml &#45;&gt; toml_parser">
<path fill="none" stroke="#ffffff" stroke-width="1.6" stroke-opacity="0.623529" d="M1985.5,-346.9C2016.58,-330.8 2060.32,-305.99 2094.38,-278.27 2116.01,-260.66 2137.17,-237.76 2153.43,-218.56"/>
<polygon fill="none" stroke="#ffffff" stroke-width="1.6" stroke-opacity="0.623529" points="2155.56,-220.38 2158.54,-212.44 2151.26,-216.79 2155.56,-220.38"/>
</a>
</g>
<g id="a_edge48&#45;label"><a xlink:title="toml &#45;&gt; toml_parser">
<text xml:space="preserve" text-anchor="middle" x="2161.74" y="-256.82" font-family="monospace" font-size="13.50" fill="#ffffff">std(std)</text>
</a>
</g>
</g>
<!-- 38&#45;&gt;27 -->
<g id="edge45" class="edge node0 node36 node38">
<title>38&#45;&gt;27</title>
<g id="a_edge45"><a xlink:title="serde_spanned &#45;&gt; serde_core">
<path fill="none" stroke="#ffffff" stroke-width="1.6" stroke-opacity="0.623529" d="M1653.38,-178.56C1653.38,-175.52 1653.38,-109.55 1653.38,-66.25"/>
<polygon fill="none" stroke="#ffffff" stroke-width="1.6" stroke-opacity="0.623529" points="1656.18,-66.48 1653.38,-58.48 1650.58,-66.48 1656.18,-66.48"/>
</a>
</g>
<g id="a_edge45&#45;label"><a xlink:title="serde_spanned &#45;&gt; serde_core">
<text xml:space="preserve" text-anchor="middle" x="1707" y="-102.73" font-family="monospace" font-size="13.50" fill="#ffffff">alloc(alloc),</text>
<text xml:space="preserve" text-anchor="middle" x="1707" y="-85.48" font-family="monospace" font-size="13.50" fill="#ffffff">std(std)</text>
</a>
</g>
</g>
<!-- 39&#45;&gt;27 -->
<g id="edge47" class="edge node0 node36 node39">
<title>39&#45;&gt;27</title>
<g id="a_edge47"><a xlink:title="toml_datetime &#45;&gt; serde_core">
<path fill="none" stroke="#ffffff" stroke-width="1.6" stroke-opacity="0.623529" d="M1834.26,-167.28C1823.11,-147.44 1797.71,-106.23 1766.38,-81.06 1743.39,-62.59 1712.79,-49.03 1689.23,-40.39"/>
<polygon fill="none" stroke="#ffffff" stroke-width="1.6" stroke-opacity="0.623529" points="1690.37,-37.82 1681.89,-37.79 1688.5,-43.1 1690.37,-37.82"/>
</a>
</g>
<g id="a_edge47&#45;label"><a xlink:title="toml_datetime &#45;&gt; serde_core">
<text xml:space="preserve" text-anchor="middle" x="1852.64" y="-102.73" font-family="monospace" font-size="13.50" fill="#ffffff">alloc(alloc),</text>
<text xml:space="preserve" text-anchor="middle" x="1852.64" y="-85.48" font-family="monospace" font-size="13.50" fill="#ffffff">std(std)</text>
</a>
</g>
</g>
<!-- 40&#45;&gt;37 -->
<g id="edge49" class="edge node0 node36 node40">
<title>40&#45;&gt;37</title>
<g id="a_edge49"><a xlink:title="toml_parser &#45;&gt; winnow">
<path fill="none" stroke="#ffffff" stroke-width="1.6" stroke-opacity="0.623529" d="M2166.58,-144.71C2149.56,-110.29 2124.31,-59.24 2114.01,-38.4"/>
<polygon fill="none" stroke="#ffffff" stroke-width="1.6" stroke-opacity="0.623529" points="2116.61,-37.34 2110.55,-31.41 2111.59,-39.82 2116.61,-37.34"/>
</a>
</g>
</g>
</g>
</svg>
