<?xml version="1.0" encoding="UTF-8" standalone="no"?>
<!DOCTYPE svg PUBLIC "-//W3C//DTD SVG 1.1//EN"
 "http://www.w3.org/Graphics/SVG/1.1/DTD/svg11.dtd">
<!-- Generated by graphviz version 13.1.2 (20250808.2320)
 -->
<!-- Pages: 1 -->
<svg width="2350pt" height="764pt"
 viewBox="0.00 0.00 2350.00 764.00" xmlns="http://www.w3.org/2000/svg" xmlns:xlink="http://www.w3.org/1999/xlink">
<style>
.graph:has(.node0:hover) > g:not(.node0) { opacity: 0.5 }
.graph:has(.node1:hover) > g:not(.node1) { opacity: 0.5 }
.graph:has(.node2:hover) > g:not(.node2) { opacity: 0.5 }
.graph:has(.node3:hover) > g:not(.node3) { opacity: 0.5 }
.graph:has(.node4:hover) > g:not(.node4) { opacity: 0.5 }
.graph:has(.node5:hover) > g:not(.node5) { opacity: 0.5 }
.graph:has(.node6:hover) > g:not(.node6) { opacity: 0.5 }
.graph:has(.node7:hover) > g:not(.node7) { opacity: 0.5 }
.graph:has(.node8:hover) > g:not(.node8) { opacity: 0.5 }
.graph:has(.node9:hover) > g:not(.node9) { opacity: 0.5 }
.graph:has(.node10:hover) > g:not(.node10) { opacity: 0.5 }
.graph:has(.node11:hover) > g:not(.node11) { opacity: 0.5 }
.graph:has(.node12:hover) > g:not(.node12) { opacity: 0.5 }
.graph:has(.node13:hover) > g:not(.node13) { opacity: 0.5 }
.graph:has(.node14:hover) > g:not(.node14) { opacity: 0.5 }
.graph:has(.node15:hover) > g:not(.node15) { opacity: 0.5 }
.graph:has(.node16:hover) > g:not(.node16) { opacity: 0.5 }
.graph:has(.node17:hover) > g:not(.node17) { opacity: 0.5 }
.graph:has(.node18:hover) > g:not(.node18) { opacity: 0.5 }
.graph:has(.node19:hover) > g:not(.node19) { opacity: 0.5 }
.graph:has(.node20:hover) > g:not(.node20) { opacity: 0.5 }
.graph:has(.node21:hover) > g:not(.node21) { opacity: 0.5 }
.graph:has(.node22:hover) > g:not(.node22) { opacity: 0.5 }
.graph:has(.node23:hover) > g:not(.node23) { opacity: 0.5 }
.graph:has(.node24:hover) > g:not(.node24) { opacity: 0.5 }
.graph:has(.node25:hover) > g:not(.node25) { opacity: 0.5 }
.graph:has(.node26:hover) > g:not(.node26) { opacity: 0.5 }
.graph:has(.node27:hover) > g:not(.node27) { opacity: 0.5 }
.graph:has(.node28:hover) > g:not(.node28) { opacity: 0.5 }
.graph:has(.node29:hover) > g:not(.node29) { opacity: 0.5 }
.graph:has(.node30:hover) > g:not(.node30) { opacity: 0.5 }
.graph:has(.node31:hover) > g:not(.node31) { opacity: 0.5 }
.graph:has(.node32:hover) > g:not(.node32) { opacity: 0.5 }
.graph:has(.node33:hover) > g:not(.node33) { opacity: 0.5 }
.graph:has(.node34:hover) > g:not(.node34) { opacity: 0.5 }
.graph:has(.node35:hover) > g:not(.node35) { opacity: 0.5 }
.graph:has(.node36:hover) > g:not(.node36) { opacity: 0.5 }
.graph:has(.node37:hover) > g:not(.node37) { opacity: 0.5 }
.graph:has(.node38:hover) > g:not(.node38) { opacity: 0.5 }
.graph:has(.node39:hover) > g:not(.node39) { opacity: 0.5 }
</style>
<g id="graph0" class="graph" transform="scale(1 1) rotate(0) translate(72 692.46)">
<polygon fill="#000000" stroke="none" points="-72,72 -72,-692.46 2278,-692.46 2278,72 -72,72"/>
<!-- 0 -->
<g id="node1" class="node node0">
<title>0</title>
<g id="a_node1"><a xlink:title="pugio v0.1.5 (/home/my4ng/Programming/pugio)&#10;128.86 KiB&#10;">
<ellipse fill="#d4dd06" stroke="#ffffff" stroke-width="1.2" cx="891.75" cy="-565.69" rx="54.77" ry="54.77"/>
<text xml:space="preserve" text-anchor="middle" x="891.75" y="-559.46" font-family="monospace" font-size="18.00" fill="#ffffff">pugio</text>
</a>
</g>
</g>
<!-- 1 -->
<g id="node2" class="node node0 node1">
<title>1</title>
<g id="a_node2"><a xlink:title="anyhow v1.0.100&#10;10.54 KiB&#10;default(std),std">
<ellipse fill="#e05cd6" stroke="#ffffff" stroke-width="1.2" cx="41.75" cy="-425.88" rx="20.18" ry="20.18"/>
<text xml:space="preserve" text-anchor="middle" x="41.75" y="-419.66" font-family="monospace" font-size="18.00" fill="#ffffff">anyhow</text>
</a>
</g>
</g>
<!-- 0&#45;&gt;1 -->
<g id="edge1" class="edge node0">
<title>0&#45;&gt;1</title>
<g id="a_edge1"><a xlink:title="pugio &#45;&gt; anyhow">
<path fill="none" stroke="#ffffff" stroke-width="1.6" stroke-opacity="0.623529" d="M837.32,-562.23C680.2,-554.49 228.56,-527.68 93.75,-469.92 81.92,-464.85 70.67,-456.21 61.68,-448"/>
<polygon fill="none" stroke="#ffffff" stroke-width="1.6" stroke-opacity="0.623529" points="63.85,-446.2 56.15,-442.67 59.97,-450.23 63.85,-446.2"/>
</a>
</g>
</g>
<!-- 2 -->
<g id="node3" class="node node0 node2">
<title>2</title>
<g id="a_node3"><a xlink:title="cfg_if v1.0.4&#10;0 B&#10;default">
<ellipse fill="#7d78f7" stroke="#ffffff" stroke-width="1.2" cx="145.75" cy="-425.88" rx="0.36" ry="0.36"/>
<text xml:space="preserve" text-anchor="middle" x="145.75" y="-419.66" font-family="monospace" font-size="18.00" fill="#ffffff">cfg_if</text>
</a>
</g>
</g>
<!-- 0&#45;&gt;2 -->
<g id="edge2" class="edge node0">
<title>0&#45;&gt;2</title>
<g id="a_edge2"><a xlink:title="pugio &#45;&gt; cfg_if">
<path fill="none" stroke="#ffffff" stroke-width="1.6" stroke-opacity="0.623529" d="M837.73,-558.11C737.35,-545.78 515.33,-517.98 328.75,-490.92 269.96,-482.4 250.76,-494.65 196.75,-469.92 178.38,-461.51 161.37,-444.59 152.4,-434.66"/>
<polygon fill="none" stroke="#ffffff" stroke-width="1.6" stroke-opacity="0.623529" points="154.72,-433.07 147.39,-428.81 150.47,-436.71 154.72,-433.07"/>
</a>
</g>
</g>
<!-- 3 -->
<g id="node4" class="node node0 node3">
<title>3</title>
<g id="a_node4"><a xlink:title="clap v4.5.53&#10;0 B&#10;derive,error&#45;context,help,std,usage">
<ellipse fill="#c56805" stroke="#ffffff" stroke-width="1.2" cx="237.75" cy="-425.88" rx="0.36" ry="0.36"/>
<text xml:space="preserve" text-anchor="middle" x="237.75" y="-419.66" font-family="monospace" font-size="18.00" fill="#ffffff">clap</text>
</a>
</g>
</g>
<!-- 0&#45;&gt;3 -->
<g id="edge3" class="edge node0">
<title>0&#45;&gt;3</title>
<g id="a_edge3"><a xlink:title="pugio &#45;&gt; clap">
<path fill="none" stroke="#ffffff" stroke-width="1.6" stroke-opacity="0.623529" d="M837.23,-560.77C705.94,-550.62 375.86,-520.67 278.75,-469.92 263.33,-461.87 250.44,-445.76 243.44,-435.7"/>
<polygon fill="none" stroke="#ffffff" stroke-width="1.6" stroke-opacity="0.623529" points="245.81,-434.21 239.12,-429.01 241.1,-437.25 245.81,-434.21"/>
</a>
</g>
</g>
<!-- 7 -->
<g id="node8" class="node node0 node7">
<title>7</title>
<g id="a_node8"><a xlink:title="colorous v1.0.16&#10;2.44 KiB&#10;default(std),std">
<ellipse fill="#d258fd" stroke="#ffffff" stroke-width="1.2" cx="341.75" cy="-425.88" rx="7.45" ry="7.45"/>
<text xml:space="preserve" text-anchor="middle" x="341.75" y="-419.66" font-family="monospace" font-size="18.00" fill="#ffffff">colorous</text>
</a>
</g>
</g>
<!-- 0&#45;&gt;7 -->
<g id="edge7" class="edge node0">
<title>0&#45;&gt;7</title>
<g id="a_edge7"><a xlink:title="pugio &#45;&gt; colorous">
<path fill="none" stroke="#ffffff" stroke-width="1.6" stroke-opacity="0.623529" d="M837.44,-561.31C745.23,-554.02 553.57,-532.1 404.75,-469.92 385.66,-461.95 366.41,-447.68 354.31,-437.77"/>
<polygon fill="none" stroke="#ffffff" stroke-width="1.6" stroke-opacity="0.623529" points="356.33,-435.81 348.41,-432.78 352.71,-440.09 356.33,-435.81"/>
</a>
</g>
</g>
<!-- 8 -->
<g id="node9" class="node node0 node8">
<title>8</title>
<g id="a_node9"><a xlink:title="colorsys v0.7.3&#10;2.09 KiB&#10;default(std),std">
<ellipse fill="#cf57fe" stroke="#ffffff" stroke-width="1.2" cx="467.75" cy="-425.88" rx="6.57" ry="6.57"/>
<text xml:space="preserve" text-anchor="middle" x="467.75" y="-419.66" font-family="monospace" font-size="18.00" fill="#ffffff">colorsys</text>
</a>
</g>
</g>
<!-- 0&#45;&gt;8 -->
<g id="edge8" class="edge node0">
<title>0&#45;&gt;8</title>
<g id="a_edge8"><a xlink:title="pugio &#45;&gt; colorsys">
<path fill="none" stroke="#ffffff" stroke-width="1.6" stroke-opacity="0.623529" d="M837.8,-556.47C765.48,-544.15 634.21,-517.12 530.75,-469.92 511.73,-461.25 492.22,-446.91 480.05,-437.19"/>
<polygon fill="none" stroke="#ffffff" stroke-width="1.6" stroke-opacity="0.623529" points="481.84,-435.04 473.89,-432.12 478.29,-439.37 481.84,-435.04"/>
</a>
</g>
</g>
<!-- 9 -->
<g id="node10" class="node node0 node9">
<title>9</title>
<g id="a_node10"><a xlink:title="humansize v2.1.3&#10;1.23 KiB&#10;default">
<ellipse fill="#c557ff" stroke="#ffffff" stroke-width="1.2" cx="599.75" cy="-425.88" rx="4.18" ry="4.18"/>
<text xml:space="preserve" text-anchor="middle" x="599.75" y="-419.66" font-family="monospace" font-size="18.00" fill="#ffffff">humansize</text>
</a>
</g>
</g>
<!-- 0&#45;&gt;9 -->
<g id="edge9" class="edge node0">
<title>0&#45;&gt;9</title>
<g id="a_edge9"><a xlink:title="pugio &#45;&gt; humansize">
<path fill="none" stroke="#ffffff" stroke-width="1.6" stroke-opacity="0.623529" d="M840.84,-545.91C794.72,-528.25 725.36,-500.08 667.75,-469.92 646.85,-458.98 623.94,-443.75 610.76,-434.65"/>
<polygon fill="none" stroke="#ffffff" stroke-width="1.6" stroke-opacity="0.623529" points="612.64,-432.55 604.48,-430.25 609.43,-437.13 612.64,-432.55"/>
</a>
</g>
</g>
<!-- 11 -->
<g id="node12" class="node node0 node11">
<title>11</title>
<g id="a_node12"><a xlink:title="open v5.3.3&#10;6.16 KiB&#10;default">
<ellipse fill="#e35edb" stroke="#ffffff" stroke-width="1.2" cx="708.75" cy="-425.88" rx="14.57" ry="14.57"/>
<text xml:space="preserve" text-anchor="middle" x="708.75" y="-419.66" font-family="monospace" font-size="18.00" fill="#ffffff">open</text>
</a>
</g>
</g>
<!-- 0&#45;&gt;11 -->
<g id="edge11" class="edge node0">
<title>0&#45;&gt;11</title>
<g id="a_edge11"><a xlink:title="pugio &#45;&gt; open">
<path fill="none" stroke="#ffffff" stroke-width="1.6" stroke-opacity="0.623529" d="M845.16,-537.25C816.51,-519.51 779.7,-495.1 749.75,-469.92 740.84,-462.43 731.82,-453.18 724.52,-445.18"/>
<polygon fill="none" stroke="#ffffff" stroke-width="1.6" stroke-opacity="0.623529" points="726.63,-443.34 719.22,-439.23 722.45,-447.07 726.63,-443.34"/>
</a>
</g>
</g>
<!-- 17 -->
<g id="node18" class="node node0 node17">
<title>17</title>
<g id="a_node18"><a xlink:title="parse_size v1.1.0&#10;1.17 KiB&#10;default">
<ellipse fill="#c457ff" stroke="#ffffff" stroke-width="1.2" cx="823.75" cy="-425.88" rx="4.01" ry="4.01"/>
<text xml:space="preserve" text-anchor="middle" x="823.75" y="-419.66" font-family="monospace" font-size="18.00" fill="#ffffff">parse_size</text>
</a>
</g>
</g>
<!-- 0&#45;&gt;17 -->
<g id="edge18" class="edge node0">
<title>0&#45;&gt;17</title>
<g id="a_edge18"><a xlink:title="pugio &#45;&gt; parse_size">
<path fill="none" stroke="#ffffff" stroke-width="1.6" stroke-opacity="0.623529" d="M867.97,-516.49C854.22,-488.63 838.01,-455.78 829.55,-438.64"/>
<polygon fill="none" stroke="#ffffff" stroke-width="1.6" stroke-opacity="0.623529" points="832.11,-437.49 826.05,-431.55 827.08,-439.97 832.11,-437.49"/>
</a>
</g>
</g>
<!-- 18 -->
<g id="node19" class="node node0 node18">
<title>18</title>
<g id="a_node19"><a xlink:title="petgraph v0.8.3&#10;6.66 KiB&#10;stable_graph,std">
<ellipse fill="#db55c5" stroke="#ffffff" stroke-width="1.2" cx="960.75" cy="-425.88" rx="15.32" ry="15.32"/>
<text xml:space="preserve" text-anchor="middle" x="960.75" y="-419.66" font-family="monospace" font-size="18.00" fill="#ffffff">petgraph</text>
</a>
</g>
</g>
<!-- 0&#45;&gt;18 -->
<g id="edge19" class="edge node0">
<title>0&#45;&gt;18</title>
<g id="a_edge19"><a xlink:title="pugio &#45;&gt; petgraph">
<path fill="none" stroke="#ffffff" stroke-width="1.6" stroke-opacity="0.623529" d="M915.69,-516.88C927.25,-493.79 940.56,-467.21 949.7,-448.95"/>
<polygon fill="none" stroke="#ffffff" stroke-width="1.6" stroke-opacity="0.623529" points="952.15,-450.31 953.23,-441.91 947.14,-447.81 952.15,-450.31"/>
</a>
</g>
</g>
<!-- 25 -->
<g id="node26" class="node node0 node25">
<title>25</title>
<g id="a_node26"><a xlink:title="regex_lite v0.1.8&#10;46.25 KiB&#10;default(std,string),std,string">
<ellipse fill="#b33059" stroke="#ffffff" stroke-width="1.2" cx="1097.75" cy="-425.88" rx="39.57" ry="39.57"/>
<text xml:space="preserve" text-anchor="middle" x="1097.75" y="-419.66" font-family="monospace" font-size="18.00" fill="#ffffff">regex_lite</text>
</a>
</g>
</g>
<!-- 0&#45;&gt;25 -->
<g id="edge26" class="edge node0">
<title>0&#45;&gt;25</title>
<g id="a_edge26"><a xlink:title="pugio &#45;&gt; regex_lite">
<path fill="none" stroke="#ffffff" stroke-width="1.6" stroke-opacity="0.623529" d="M936.7,-534.62C972.5,-510.67 1022.19,-477.43 1056.87,-454.23"/>
<polygon fill="none" stroke="#ffffff" stroke-width="1.6" stroke-opacity="0.623529" points="1058.24,-456.68 1063.33,-449.91 1055.13,-452.03 1058.24,-456.68"/>
</a>
</g>
</g>
<!-- 26 -->
<g id="node27" class="node node0 node0 node34 node26">
<title>26</title>
<g id="a_node27"><a xlink:title="serde v1.0.228&#10;318 B&#10;default(std),derive(serde_derive),serde_derive,std">
<ellipse fill="#d95af8" stroke="#ffffff" stroke-width="1.2" cx="1405.75" cy="-248.38" rx="1.17" ry="1.17"/>
<text xml:space="preserve" text-anchor="middle" x="1405.75" y="-242.15" font-family="monospace" font-size="18.00" fill="#ffffff">serde</text>
</a>
</g>
</g>
<!-- 0&#45;&gt;26 -->
<g id="edge27" class="edge node0">
<title>0&#45;&gt;26</title>
<g id="a_edge27"><a xlink:title="pugio &#45;&gt; serde">
<path fill="none" stroke="#ffffff" stroke-width="1.6" stroke-opacity="0.623529" d="M946.08,-562.24C1061.94,-555.81 1327.5,-534.25 1385.75,-469.92 1441.64,-408.2 1417.28,-293.08 1408.45,-259.07"/>
<polygon fill="none" stroke="#ffffff" stroke-width="1.6" stroke-opacity="0.623529" points="1411.27,-258.77 1406.43,-251.82 1405.88,-260.27 1411.27,-258.77"/>
</a>
</g>
</g>
<!-- 28 -->
<g id="node29" class="node node0 node0 node34 node28">
<title>28</title>
<g id="a_node29"><a xlink:title="serde_json v1.0.145&#10;15.99 KiB&#10;default(std),std">
<ellipse fill="#c6408a" stroke="#ffffff" stroke-width="1.2" cx="1285.75" cy="-248.38" rx="25.16" ry="25.16"/>
<text xml:space="preserve" text-anchor="middle" x="1285.75" y="-242.15" font-family="monospace" font-size="18.00" fill="#ffffff">serde_json</text>
</a>
</g>
</g>
<!-- 0&#45;&gt;28 -->
<g id="edge29" class="edge node0">
<title>0&#45;&gt;28</title>
<g id="a_edge29"><a xlink:title="pugio &#45;&gt; serde_json">
<path fill="none" stroke="#ffffff" stroke-width="1.6" stroke-opacity="0.623529" d="M945.96,-559.01C1007.44,-549.95 1107.47,-527 1171.75,-469.92 1204.18,-441.13 1194.06,-420.48 1213.75,-381.85 1231.93,-346.17 1254.09,-305.84 1268.99,-279.14"/>
<polygon fill="none" stroke="#ffffff" stroke-width="1.6" stroke-opacity="0.623529" points="1271.29,-280.76 1272.75,-272.41 1266.4,-278.03 1271.29,-280.76"/>
</a>
</g>
</g>
<!-- 32 -->
<g id="node33" class="node node0 node32">
<title>32</title>
<g id="a_node33"><a xlink:title="serde_with v3.16.0&#10;0 B&#10;alloc,default(macros,std),macros,std(alloc)">
<ellipse fill="#d858fa" stroke="#ffffff" stroke-width="1.2" cx="2141.75" cy="-346.97" rx="0.36" ry="0.36"/>
<text xml:space="preserve" text-anchor="middle" x="2141.75" y="-340.75" font-family="monospace" font-size="18.00" fill="#ffffff">serde_with</text>
</a>
</g>
</g>
<!-- 0&#45;&gt;32 -->
<g id="edge34" class="edge node0">
<title>0&#45;&gt;32</title>
<g id="a_edge34"><a xlink:title="pugio &#45;&gt; serde_with">
<path fill="none" stroke="#ffffff" stroke-width="1.6" stroke-opacity="0.623529" d="M946.22,-562.37C1083.13,-555.73 1452.13,-532.96 1752.75,-469.92 1907.53,-437.46 2088.48,-368.76 2131.99,-351.81"/>
<polygon fill="none" stroke="#ffffff" stroke-width="1.6" stroke-opacity="0.623529" points="2132.92,-354.45 2139.34,-348.92 2130.87,-349.24 2132.92,-354.45"/>
</a>
</g>
</g>
<!-- 33 -->
<g id="node34" class="node node0 node33">
<title>33</title>
<g id="a_node34"><a xlink:title="strum v0.27.2&#10;63 B&#10;default(std),derive(strum_macros),std,strum_macros">
<ellipse fill="#a061fc" stroke="#ffffff" stroke-width="1.2" cx="1473.75" cy="-425.88" rx="0.36" ry="0.36"/>
<text xml:space="preserve" text-anchor="middle" x="1473.75" y="-419.66" font-family="monospace" font-size="18.00" fill="#ffffff">strum</text>
</a>
</g>
</g>
<!-- 0&#45;&gt;33 -->
<g id="edge36" class="edge node0">
<title>0&#45;&gt;33</title>
<g id="a_edge36"><a xlink:title="pugio &#45;&gt; strum">
<path fill="none" stroke="#ffffff" stroke-width="1.6" stroke-opacity="0.623529" d="M946.14,-562.21C1064.67,-556.02 1342.1,-536.9 1422.75,-490.92 1445.48,-477.97 1461.89,-450.54 1469.32,-436.14"/>
<polygon fill="none" stroke="#ffffff" stroke-width="1.6" stroke-opacity="0.623529" points="1471.71,-437.62 1472.65,-429.2 1466.66,-435.2 1471.71,-437.62"/>
</a>
</g>
</g>
<!-- 34 -->
<g id="node35" class="node node0 node34">
<title>34</title>
<g id="a_node35"><a xlink:title="tinytemplate v1.2.1&#10;35.83 KiB&#10;default">
<ellipse fill="#b02d4f" stroke="#ffffff" stroke-width="1.2" cx="1299.75" cy="-425.88" rx="35.93" ry="35.93"/>
<text xml:space="preserve" text-anchor="middle" x="1299.75" y="-419.66" font-family="monospace" font-size="18.00" fill="#ffffff">tinytemplate</text>
</a>
</g>
</g>
<!-- 0&#45;&gt;34 -->
<g id="edge37" class="edge node0">
<title>0&#45;&gt;34</title>
<g id="a_edge37"><a xlink:title="pugio &#45;&gt; tinytemplate">
<path fill="none" stroke="#ffffff" stroke-width="1.6" stroke-opacity="0.623529" d="M945.93,-558.52C1010.71,-549.71 1121.33,-530.06 1208.75,-490.92 1228.72,-481.98 1248.83,-468.42 1265.05,-456.07"/>
<polygon fill="none" stroke="#ffffff" stroke-width="1.6" stroke-opacity="0.623529" points="1266.65,-458.37 1271.25,-451.25 1263.21,-453.95 1266.65,-458.37"/>
</a>
</g>
</g>
<!-- 35 -->
<g id="node36" class="node node0 node35">
<title>35</title>
<g id="a_node36"><a xlink:title="toml v0.9.8&#10;62.88 KiB&#10;parse,serde,std">
<ellipse fill="#ab3614" stroke="#ffffff" stroke-width="1.2" cx="1698.75" cy="-425.88" rx="44.04" ry="44.04"/>
<text xml:space="preserve" text-anchor="middle" x="1698.75" y="-419.66" font-family="monospace" font-size="18.00" fill="#ffffff">toml</text>
</a>
</g>
</g>
<!-- 0&#45;&gt;35 -->
<g id="edge40" class="edge node0">
<title>0&#45;&gt;35</title>
<g id="a_edge40"><a xlink:title="pugio &#45;&gt; toml">
<path fill="none" stroke="#ffffff" stroke-width="1.6" stroke-opacity="0.623529" d="M946.02,-559.33C1044.65,-549.14 1259.65,-524.95 1438.75,-490.92 1511.54,-477.09 1594.47,-455.66 1646.7,-441.46"/>
<polygon fill="none" stroke="#ffffff" stroke-width="1.6" stroke-opacity="0.623529" points="1647.41,-444.16 1654.39,-439.35 1645.93,-438.76 1647.41,-444.16"/>
</a>
</g>
</g>
<!-- 4 -->
<g id="node5" class="node node0 node3 node4">
<title>4</title>
<g id="a_node5"><a xlink:title="clap_builder v4.5.53&#10;231.56 KiB&#10;error&#45;context,help,std,usage">
<ellipse fill="#c56805" stroke="#ffffff" stroke-width="1.2" cx="206.75" cy="-248.38" rx="63.72" ry="63.72"/>
<text xml:space="preserve" text-anchor="middle" x="206.75" y="-242.15" font-family="monospace" font-size="18.00" fill="#ffffff">clap_builder</text>
</a>
</g>
</g>
<!-- 3&#45;&gt;4 -->
<g id="edge4" class="edge node0 node3">
<title>3&#45;&gt;4</title>
<g id="a_edge4"><a xlink:title="clap &#45;&gt; clap_builder">
<path fill="none" stroke="#ffffff" stroke-width="1.6" stroke-opacity="0.623529" d="M237.68,-424.79C236.27,-422.85 213.6,-391.31 206.75,-361.85 203.79,-349.12 202.38,-335.35 201.91,-321.97"/>
<polygon fill="none" stroke="#ffffff" stroke-width="1.6" stroke-opacity="0.623529" points="204.71,-322.2 201.76,-314.25 199.11,-322.3 204.71,-322.2"/>
</a>
</g>
<g id="a_edge4&#45;label"><a xlink:title="clap &#45;&gt; clap_builder">
<text xml:space="preserve" text-anchor="middle" x="322.25" y="-342.77" font-family="monospace" font-size="13.50" fill="#ffffff">error&#45;context,help,std,usage</text>
</a>
</g>
</g>
<!-- 5 -->
<g id="node6" class="node node0 node3 node4 node5">
<title>5</title>
<g id="a_node6"><a xlink:title="anstyle v1.0.13&#10;2.06 KiB&#10;default(std),std">
<ellipse fill="#cf57fe" stroke="#ffffff" stroke-width="1.2" cx="146.75" cy="-99.08" rx="6.5" ry="6.5"/>
<text xml:space="preserve" text-anchor="middle" x="146.75" y="-92.85" font-family="monospace" font-size="18.00" fill="#ffffff">anstyle</text>
</a>
</g>
</g>
<!-- 4&#45;&gt;5 -->
<g id="edge5" class="edge node0 node3 node4">
<title>4&#45;&gt;5</title>
<g id="a_edge5"><a xlink:title="clap_builder &#45;&gt; anstyle">
<path fill="none" stroke="#ffffff" stroke-width="1.6" stroke-opacity="0.623529" d="M183.21,-189.58C172.11,-162.34 159.78,-132.06 152.68,-114.63"/>
<polygon fill="none" stroke="#ffffff" stroke-width="1.6" stroke-opacity="0.623529" points="155.36,-113.78 149.74,-107.43 150.17,-115.89 155.36,-113.78"/>
</a>
</g>
<g id="a_edge5&#45;label"><a xlink:title="clap_builder &#45;&gt; anstyle">
<text xml:space="preserve" text-anchor="middle" x="183.75" y="-151.83" font-family="monospace" font-size="13.50" fill="#ffffff">std</text>
</a>
</g>
</g>
<!-- 6 -->
<g id="node7" class="node node0 node3 node4 node6">
<title>6</title>
<g id="a_node7"><a xlink:title="clap_lex v0.7.6&#10;1.08 KiB&#10;default">
<ellipse fill="#c257ff" stroke="#ffffff" stroke-width="1.2" cx="266.75" cy="-99.08" rx="3.72" ry="3.72"/>
<text xml:space="preserve" text-anchor="middle" x="266.75" y="-92.85" font-family="monospace" font-size="18.00" fill="#ffffff">clap_lex</text>
</a>
</g>
</g>
<!-- 4&#45;&gt;6 -->
<g id="edge6" class="edge node0 node3 node4">
<title>4&#45;&gt;6</title>
<g id="a_edge6"><a xlink:title="clap_builder &#45;&gt; clap_lex">
<path fill="none" stroke="#ffffff" stroke-width="1.6" stroke-opacity="0.623529" d="M230.29,-189.58C242.02,-160.79 255.13,-128.59 261.99,-111.77"/>
<polygon fill="none" stroke="#ffffff" stroke-width="1.6" stroke-opacity="0.623529" points="264.42,-113.21 264.85,-104.74 259.24,-111.1 264.42,-113.21"/>
</a>
</g>
</g>
<!-- 10 -->
<g id="node11" class="node node0 node9 node10">
<title>10</title>
<g id="a_node11"><a xlink:title="libm v0.2.15&#10;0 B&#10;arch,default(arch)">
<ellipse fill="#7d78f7" stroke="#ffffff" stroke-width="1.2" cx="421.75" cy="-248.38" rx="0.36" ry="0.36"/>
<text xml:space="preserve" text-anchor="middle" x="421.75" y="-242.15" font-family="monospace" font-size="18.00" fill="#ffffff">libm</text>
</a>
</g>
</g>
<!-- 9&#45;&gt;10 -->
<g id="edge10" class="edge node0 node9">
<title>9&#45;&gt;10</title>
<g id="a_edge10"><a xlink:title="humansize &#45;&gt; libm">
<path fill="none" stroke="#ffffff" stroke-width="1.6" stroke-opacity="0.623529" d="M596.84,-423.02C581.47,-413.1 508.62,-364.82 461.75,-312.1 446.46,-294.89 433.07,-271.24 426.35,-258.46"/>
<polygon fill="none" stroke="#ffffff" stroke-width="1.6" stroke-opacity="0.623529" points="429.01,-257.52 422.9,-251.65 424.01,-260.05 429.01,-257.52"/>
</a>
</g>
</g>
<!-- 12 -->
<g id="node13" class="node node0 node11 node12">
<title>12</title>
<g id="a_node13"><a xlink:title="is_wsl v0.4.0&#10;0 B&#10;default">
<ellipse fill="#d95af8" stroke="#ffffff" stroke-width="1.2" cx="513.75" cy="-248.38" rx="0.36" ry="0.36"/>
<text xml:space="preserve" text-anchor="middle" x="513.75" y="-242.15" font-family="monospace" font-size="18.00" fill="#ffffff">is_wsl</text>
</a>
</g>
</g>
<!-- 11&#45;&gt;12 -->
<g id="edge12" class="edge node0 node11">
<title>11&#45;&gt;12</title>
<g id="a_edge12"><a xlink:title="open &#45;&gt; is_wsl">
<path fill="none" stroke="#ffffff" stroke-width="1.6" stroke-opacity="0.623529" d="M700.15,-414.33C692.44,-405.2 680.55,-391.91 668.75,-381.85 626.41,-345.72 605.87,-349.6 564.75,-312.1 546.07,-295.06 528.42,-270.93 519.6,-258.14"/>
<polygon fill="none" stroke="#ffffff" stroke-width="1.6" stroke-opacity="0.623529" points="521.94,-256.59 515.17,-251.5 517.29,-259.71 521.94,-256.59"/>
</a>
</g>
</g>
<!-- 15 -->
<g id="node16" class="node node0 node11 node15">
<title>15</title>
<g id="a_node16"><a xlink:title="libc v0.2.177&#10;0 B&#10;default(std),std">
<ellipse fill="#7d78f7" stroke="#ffffff" stroke-width="1.2" cx="605.75" cy="-248.38" rx="0.36" ry="0.36"/>
<text xml:space="preserve" text-anchor="middle" x="605.75" y="-242.15" font-family="monospace" font-size="18.00" fill="#ffffff">libc</text>
</a>
</g>
</g>
<!-- 11&#45;&gt;15 -->
<g id="edge16" class="edge node0 node11">
<title>11&#45;&gt;15</title>
<g id="a_edge16"><a xlink:title="open &#45;&gt; libc">
<path fill="none" stroke="#ffffff" stroke-width="1.6" stroke-opacity="0.623529" d="M701.83,-413.1C682.47,-380.11 628.06,-287.38 610.96,-258.25"/>
<polygon fill="none" stroke="#ffffff" stroke-width="1.6" stroke-opacity="0.623529" points="613.49,-257.04 607.03,-251.55 608.66,-259.87 613.49,-257.04"/>
</a>
</g>
</g>
<!-- 16 -->
<g id="node17" class="node node0 node11 node16">
<title>16</title>
<g id="a_node17"><a xlink:title="pathdiff v0.2.3&#10;0 B&#10;default">
<ellipse fill="#7d78f7" stroke="#ffffff" stroke-width="1.2" cx="709.75" cy="-248.38" rx="0.36" ry="0.36"/>
<text xml:space="preserve" text-anchor="middle" x="709.75" y="-242.15" font-family="monospace" font-size="18.00" fill="#ffffff">pathdiff</text>
</a>
</g>
</g>
<!-- 11&#45;&gt;16 -->
<g id="edge17" class="edge node0 node11">
<title>11&#45;&gt;16</title>
<g id="a_edge17"><a xlink:title="open &#45;&gt; pathdiff">
<path fill="none" stroke="#ffffff" stroke-width="1.6" stroke-opacity="0.623529" d="M708.83,-411.4C709.02,-377.59 709.52,-289.71 709.69,-259.64"/>
<polygon fill="none" stroke="#ffffff" stroke-width="1.6" stroke-opacity="0.623529" points="712.49,-259.9 709.74,-251.88 706.89,-259.87 712.49,-259.9"/>
</a>
</g>
</g>
<!-- 13 -->
<g id="node14" class="node node0 node11 node12 node13">
<title>13</title>
<g id="a_node14"><a xlink:title="is_docker v0.2.0&#10;0 B&#10;default">
<ellipse fill="#cb57fe" stroke="#ffffff" stroke-width="1.2" cx="450.75" cy="-99.08" rx="0.36" ry="0.36"/>
<text xml:space="preserve" text-anchor="middle" x="450.75" y="-92.85" font-family="monospace" font-size="18.00" fill="#ffffff">is_docker</text>
</a>
</g>
</g>
<!-- 12&#45;&gt;13 -->
<g id="edge13" class="edge node0 node11 node12">
<title>12&#45;&gt;13</title>
<g id="a_edge13"><a xlink:title="is_wsl &#45;&gt; is_docker">
<path fill="none" stroke="#ffffff" stroke-width="1.6" stroke-opacity="0.623529" d="M513.7,-247.27C512.1,-243.51 468.55,-141.7 454.84,-109.65"/>
<polygon fill="none" stroke="#ffffff" stroke-width="1.6" stroke-opacity="0.623529" points="457.47,-108.66 451.75,-102.41 452.32,-110.86 457.47,-108.66"/>
</a>
</g>
</g>
<!-- 14 -->
<g id="node15" class="node node0 node11 node12 node0 node11 node12 node13 node14">
<title>14</title>
<g id="a_node15"><a xlink:title="once_cell v1.21.3&#10;3.68 KiB&#10;alloc(race),default(std),race,std(alloc)">
<ellipse fill="#d95af8" stroke="#ffffff" stroke-width="1.2" cx="495.75" cy="-14.88" rx="10.21" ry="10.21"/>
<text xml:space="preserve" text-anchor="middle" x="495.75" y="-8.65" font-family="monospace" font-size="18.00" fill="#ffffff">once_cell</text>
</a>
</g>
</g>
<!-- 12&#45;&gt;14 -->
<g id="edge15" class="edge node0 node11 node12">
<title>12&#45;&gt;14</title>
<g id="a_edge15"><a xlink:title="is_wsl &#45;&gt; once_cell">
<path fill="none" stroke="#ffffff" stroke-width="1.6" stroke-opacity="0.623529" d="M513.77,-247.3C514.43,-244.26 535.58,-146.43 519.75,-70.75 516.94,-57.33 510.66,-43.18 505.23,-32.6"/>
<polygon fill="none" stroke="#ffffff" stroke-width="1.6" stroke-opacity="0.623529" points="507.84,-31.54 501.57,-25.84 502.91,-34.21 507.84,-31.54"/>
</a>
</g>
</g>
<!-- 13&#45;&gt;14 -->
<g id="edge14" class="edge node0 node11 node12 node13">
<title>13&#45;&gt;14</title>
<g id="a_edge14"><a xlink:title="is_docker &#45;&gt; once_cell">
<path fill="none" stroke="#ffffff" stroke-width="1.6" stroke-opacity="0.623529" d="M450.78,-98.02C451.74,-96.26 473.64,-56.26 486.52,-32.73"/>
<polygon fill="none" stroke="#ffffff" stroke-width="1.6" stroke-opacity="0.623529" points="488.85,-34.31 490.24,-25.95 483.94,-31.62 488.85,-34.31"/>
</a>
</g>
</g>
<!-- 19 -->
<g id="node20" class="node node0 node18 node19">
<title>19</title>
<g id="a_node20"><a xlink:title="fixedbitset v0.5.7&#10;147 B&#10;">
<ellipse fill="#a75ffd" stroke="#ffffff" stroke-width="1.2" cx="852.75" cy="-248.38" rx="0.55" ry="0.55"/>
<text xml:space="preserve" text-anchor="middle" x="852.75" y="-242.15" font-family="monospace" font-size="18.00" fill="#ffffff">fixedbitset</text>
</a>
</g>
</g>
<!-- 18&#45;&gt;19 -->
<g id="edge20" class="edge node0 node18">
<title>18&#45;&gt;19</title>
<g id="a_edge20"><a xlink:title="petgraph &#45;&gt; fixedbitset">
<path fill="none" stroke="#ffffff" stroke-width="1.6" stroke-opacity="0.623529" d="M953.33,-412.82C932.87,-379.58 876.04,-287.22 858.19,-258.21"/>
<polygon fill="none" stroke="#ffffff" stroke-width="1.6" stroke-opacity="0.623529" points="860.65,-256.87 854.07,-251.53 855.88,-259.81 860.65,-256.87"/>
</a>
</g>
</g>
<!-- 20 -->
<g id="node21" class="node node0 node18 node20">
<title>20</title>
<g id="a_node21"><a xlink:title="indexmap v2.12.1&#10;0 B&#10;std">
<ellipse fill="#d658fa" stroke="#ffffff" stroke-width="1.2" cx="995.75" cy="-248.38" rx="0.36" ry="0.36"/>
<text xml:space="preserve" text-anchor="middle" x="995.75" y="-242.15" font-family="monospace" font-size="18.00" fill="#ffffff">indexmap</text>
</a>
</g>
</g>
<!-- 18&#45;&gt;20 -->
<g id="edge21" class="edge node0 node18">
<title>18&#45;&gt;20</title>
<g id="a_edge21"><a xlink:title="petgraph &#45;&gt; indexmap">
<path fill="none" stroke="#ffffff" stroke-width="1.6" stroke-opacity="0.623529" d="M963.5,-411.11C970.29,-377.07 987.74,-289.54 993.71,-259.6"/>
<polygon fill="none" stroke="#ffffff" stroke-width="1.6" stroke-opacity="0.623529" points="996.44,-260.23 995.26,-251.84 990.95,-259.14 996.44,-260.23"/>
</a>
</g>
<g id="a_edge21&#45;label"><a xlink:title="petgraph &#45;&gt; indexmap">
<text xml:space="preserve" text-anchor="middle" x="990.62" y="-342.77" font-family="monospace" font-size="13.50" fill="#ffffff">std</text>
</a>
</g>
</g>
<!-- 23 -->
<g id="node24" class="node node0 node18 node23">
<title>23</title>
<g id="a_node24"><a xlink:title="hashbrown v0.15.5&#10;3.20 KiB&#10;default&#45;hasher,inline&#45;more">
<ellipse fill="#d658fa" stroke="#ffffff" stroke-width="1.2" cx="1127.75" cy="-248.38" rx="9.19" ry="9.19"/>
<text xml:space="preserve" text-anchor="middle" x="1127.75" y="-242.15" font-family="monospace" font-size="18.00" fill="#ffffff">hashbrown</text>
</a>
</g>
</g>
<!-- 18&#45;&gt;23 -->
<g id="edge24" class="edge node0 node18">
<title>18&#45;&gt;23</title>
<g id="a_edge24"><a xlink:title="petgraph &#45;&gt; hashbrown">
<path fill="none" stroke="#ffffff" stroke-width="1.6" stroke-opacity="0.623529" d="M970.7,-414.43C999.57,-384.09 1083.35,-296.04 1115.23,-262.53"/>
<polygon fill="none" stroke="#ffffff" stroke-width="1.6" stroke-opacity="0.623529" points="1117,-264.74 1120.49,-257.01 1112.94,-260.88 1117,-264.74"/>
</a>
</g>
</g>
<!-- 21 -->
<g id="node22" class="node node0 node18 node20 node21">
<title>21</title>
<g id="a_node22"><a xlink:title="equivalent v1.0.2&#10;0 B&#10;">
<ellipse fill="#7d78f7" stroke="#ffffff" stroke-width="1.2" cx="852.75" cy="-99.08" rx="0.36" ry="0.36"/>
<text xml:space="preserve" text-anchor="middle" x="852.75" y="-92.85" font-family="monospace" font-size="18.00" fill="#ffffff">equivalent</text>
</a>
</g>
</g>
<!-- 20&#45;&gt;21 -->
<g id="edge22" class="edge node0 node18 node20">
<title>20&#45;&gt;21</title>
<g id="a_edge22"><a xlink:title="indexmap &#45;&gt; equivalent">
<path fill="none" stroke="#ffffff" stroke-width="1.6" stroke-opacity="0.623529" d="M995.65,-247.27C991.92,-243.43 888.6,-137 860.02,-107.56"/>
<polygon fill="none" stroke="#ffffff" stroke-width="1.6" stroke-opacity="0.623529" points="862.12,-105.71 854.54,-101.92 858.1,-109.61 862.12,-105.71"/>
</a>
</g>
</g>
<!-- 22 -->
<g id="node23" class="node node0 node18 node20 node22">
<title>22</title>
<g id="a_node23"><a xlink:title="hashbrown v0.16.1&#10;3.20 KiB&#10;">
<ellipse fill="#d658fa" stroke="#ffffff" stroke-width="1.2" cx="995.75" cy="-99.08" rx="9.19" ry="9.19"/>
<text xml:space="preserve" text-anchor="middle" x="995.75" y="-92.85" font-family="monospace" font-size="18.00" fill="#ffffff">hashbrown</text>
</a>
</g>
</g>
<!-- 20&#45;&gt;22 -->
<g id="edge23" class="edge node0 node18 node20">
<title>20&#45;&gt;22</title>
<g id="a_edge23"><a xlink:title="indexmap &#45;&gt; hashbrown">
<path fill="none" stroke="#ffffff" stroke-width="1.6" stroke-opacity="0.623529" d="M995.75,-247.27C995.75,-243.81 995.75,-157.25 995.75,-118.51"/>
<polygon fill="none" stroke="#ffffff" stroke-width="1.6" stroke-opacity="0.623529" points="998.55,-118.6 995.75,-110.6 992.95,-118.6 998.55,-118.6"/>
</a>
</g>
</g>
<!-- 24 -->
<g id="node25" class="node node0 node18 node23 node24">
<title>24</title>
<g id="a_node25"><a xlink:title="foldhash v0.1.5&#10;0 B&#10;">
<ellipse fill="#7d78f7" stroke="#ffffff" stroke-width="1.2" cx="1127.75" cy="-99.08" rx="0.36" ry="0.36"/>
<text xml:space="preserve" text-anchor="middle" x="1127.75" y="-92.85" font-family="monospace" font-size="18.00" fill="#ffffff">foldhash</text>
</a>
</g>
</g>
<!-- 23&#45;&gt;24 -->
<g id="edge25" class="edge node0 node18 node23">
<title>23&#45;&gt;24</title>
<g id="a_edge25"><a xlink:title="hashbrown &#45;&gt; foldhash">
<path fill="none" stroke="#ffffff" stroke-width="1.6" stroke-opacity="0.623529" d="M1127.75,-239.46C1127.75,-214.63 1127.75,-138.34 1127.75,-110.44"/>
<polygon fill="none" stroke="#ffffff" stroke-width="1.6" stroke-opacity="0.623529" points="1130.55,-110.58 1127.75,-102.58 1124.95,-110.58 1130.55,-110.58"/>
</a>
</g>
</g>
<!-- 27 -->
<g id="node28" class="node node0 node32 node0 node0 node34 node26 node0 node0 node34 node28 node0 node35 node0 node35 node37 node0 node35 node38 node27">
<title>27</title>
<g id="a_node28"><a xlink:title="serde_core v1.0.228&#10;20.49 KiB&#10;alloc,result,std">
<ellipse fill="#cf48a2" stroke="#ffffff" stroke-width="1.2" cx="1541.75" cy="-99.08" rx="28.33" ry="28.33"/>
<text xml:space="preserve" text-anchor="middle" x="1541.75" y="-92.85" font-family="monospace" font-size="18.00" fill="#ffffff">serde_core</text>
</a>
</g>
</g>
<!-- 26&#45;&gt;27 -->
<g id="edge28" class="edge node0 node0 node34 node26">
<title>26&#45;&gt;27</title>
<g id="a_edge28"><a xlink:title="serde &#45;&gt; serde_core">
<path fill="none" stroke="#ffffff" stroke-width="1.6" stroke-opacity="0.623529" d="M1405.75,-247.33C1405.87,-245.35 1409.89,-181.8 1441,-147.4 1457.9,-128.72 1483.71,-116.79 1504.98,-109.59"/>
<polygon fill="none" stroke="#ffffff" stroke-width="1.6" stroke-opacity="0.623529" points="1505.6,-112.33 1512.38,-107.24 1503.91,-106.99 1505.6,-112.33"/>
</a>
</g>
<g id="a_edge28&#45;label"><a xlink:title="serde &#45;&gt; serde_core">
<text xml:space="preserve" text-anchor="middle" x="1453.38" y="-151.83" font-family="monospace" font-size="13.50" fill="#ffffff">std</text>
</a>
</g>
</g>
<!-- 28&#45;&gt;27 -->
<g id="edge31" class="edge node0 node0 node34 node28">
<title>28&#45;&gt;27</title>
<g id="a_edge31"><a xlink:title="serde_json &#45;&gt; serde_core">
<path fill="none" stroke="#ffffff" stroke-width="1.6" stroke-opacity="0.623529" d="M1301.88,-229.43C1322.62,-207.33 1360.67,-169.95 1400,-147.4 1418.16,-137 1469.73,-120.91 1505.38,-110.44"/>
<polygon fill="none" stroke="#ffffff" stroke-width="1.6" stroke-opacity="0.623529" points="1505.75,-113.24 1512.65,-108.32 1504.19,-107.87 1505.75,-113.24"/>
</a>
</g>
<g id="a_edge31&#45;label"><a xlink:title="serde_json &#45;&gt; serde_core">
<text xml:space="preserve" text-anchor="middle" x="1412.38" y="-151.83" font-family="monospace" font-size="13.50" fill="#ffffff">std</text>
</a>
</g>
</g>
<!-- 29 -->
<g id="node30" class="node node0 node0 node34 node28 node29">
<title>29</title>
<g id="a_node30"><a xlink:title="memchr v2.7.6&#10;5.31 KiB&#10;alloc,std(alloc)">
<ellipse fill="#de5cf2" stroke="#ffffff" stroke-width="1.2" cx="1312.75" cy="-99.08" rx="13.21" ry="13.21"/>
<text xml:space="preserve" text-anchor="middle" x="1312.75" y="-92.85" font-family="monospace" font-size="18.00" fill="#ffffff">memchr</text>
</a>
</g>
</g>
<!-- 28&#45;&gt;29 -->
<g id="edge30" class="edge node0 node0 node34 node28">
<title>28&#45;&gt;29</title>
<g id="a_edge30"><a xlink:title="serde_json &#45;&gt; memchr">
<path fill="none" stroke="#ffffff" stroke-width="1.6" stroke-opacity="0.623529" d="M1290.09,-223.71C1295.22,-195.69 1303.71,-149.4 1308.71,-122.11"/>
<polygon fill="none" stroke="#ffffff" stroke-width="1.6" stroke-opacity="0.623529" points="1311.44,-122.77 1310.13,-114.4 1305.93,-121.76 1311.44,-122.77"/>
</a>
</g>
<g id="a_edge30&#45;label"><a xlink:title="serde_json &#45;&gt; memchr">
<text xml:space="preserve" text-anchor="middle" x="1316.39" y="-151.83" font-family="monospace" font-size="13.50" fill="#ffffff">std</text>
</a>
</g>
</g>
<!-- 30 -->
<g id="node31" class="node node0 node0 node34 node28 node30">
<title>30</title>
<g id="a_node31"><a xlink:title="itoa v1.0.15&#10;0 B&#10;default">
<ellipse fill="#7d78f7" stroke="#ffffff" stroke-width="1.2" cx="1404.75" cy="-99.08" rx="0.36" ry="0.36"/>
<text xml:space="preserve" text-anchor="middle" x="1404.75" y="-92.85" font-family="monospace" font-size="18.00" fill="#ffffff">itoa</text>
</a>
</g>
</g>
<!-- 28&#45;&gt;30 -->
<g id="edge32" class="edge node0 node0 node34 node28">
<title>28&#45;&gt;30</title>
<g id="a_edge32"><a xlink:title="serde_json &#45;&gt; itoa">
<path fill="none" stroke="#ffffff" stroke-width="1.6" stroke-opacity="0.623529" d="M1301.06,-228.42C1327.39,-195.84 1380.15,-130.53 1398.38,-107.96"/>
<polygon fill="none" stroke="#ffffff" stroke-width="1.6" stroke-opacity="0.623529" points="1400.33,-110.01 1403.18,-102.03 1395.97,-106.49 1400.33,-110.01"/>
</a>
</g>
</g>
<!-- 31 -->
<g id="node32" class="node node0 node0 node34 node28 node31">
<title>31</title>
<g id="a_node32"><a xlink:title="ryu v1.0.20&#10;2.69 KiB&#10;default">
<ellipse fill="#d358fc" stroke="#ffffff" stroke-width="1.2" cx="1225.75" cy="-99.08" rx="8.03" ry="8.03"/>
<text xml:space="preserve" text-anchor="middle" x="1225.75" y="-92.85" font-family="monospace" font-size="18.00" fill="#ffffff">ryu</text>
</a>
</g>
</g>
<!-- 28&#45;&gt;31 -->
<g id="edge33" class="edge node0 node0 node34 node28">
<title>28&#45;&gt;31</title>
<g id="a_edge33"><a xlink:title="serde_json &#45;&gt; ryu">
<path fill="none" stroke="#ffffff" stroke-width="1.6" stroke-opacity="0.623529" d="M1276.64,-225C1264.42,-195 1243.02,-142.47 1232.28,-116.12"/>
<polygon fill="none" stroke="#ffffff" stroke-width="1.6" stroke-opacity="0.623529" points="1234.92,-115.16 1229.31,-108.81 1229.73,-117.27 1234.92,-115.16"/>
</a>
</g>
</g>
<!-- 32&#45;&gt;27 -->
<g id="edge35" class="edge node0 node32">
<title>32&#45;&gt;27</title>
<g id="a_edge35"><a xlink:title="serde_with &#45;&gt; serde_core">
<path fill="none" stroke="#ffffff" stroke-width="1.6" stroke-opacity="0.623529" d="M2141.73,-345.89C2140.78,-342.42 2109.96,-230.96 2040.75,-184.65 1964.84,-133.87 1683.14,-109.79 1579.95,-102.53"/>
<polygon fill="none" stroke="#ffffff" stroke-width="1.6" stroke-opacity="0.623529" points="1580.27,-99.75 1572.1,-101.99 1579.89,-105.34 1580.27,-99.75"/>
</a>
</g>
<g id="a_edge35&#45;label"><a xlink:title="serde_with &#45;&gt; serde_core">
<text xml:space="preserve" text-anchor="middle" x="2166.72" y="-244.18" font-family="monospace" font-size="13.50" fill="#ffffff">alloc,std</text>
</a>
</g>
</g>
<!-- 34&#45;&gt;26 -->
<g id="edge38" class="edge node0 node34">
<title>34&#45;&gt;26</title>
<g id="a_edge38"><a xlink:title="tinytemplate &#45;&gt; serde">
<path fill="none" stroke="#ffffff" stroke-width="1.6" stroke-opacity="0.623529" d="M1317.73,-395.11C1342.38,-354.29 1385.33,-283.18 1400.37,-258.29"/>
<polygon fill="none" stroke="#ffffff" stroke-width="1.6" stroke-opacity="0.623529" points="1402.72,-259.81 1404.46,-251.52 1397.92,-256.92 1402.72,-259.81"/>
</a>
</g>
</g>
<!-- 34&#45;&gt;28 -->
<g id="edge39" class="edge node0 node34">
<title>34&#45;&gt;28</title>
<g id="a_edge39"><a xlink:title="tinytemplate &#45;&gt; serde_json">
<path fill="none" stroke="#ffffff" stroke-width="1.6" stroke-opacity="0.623529" d="M1296.98,-390.21C1294.52,-359.29 1290.93,-314.29 1288.47,-283.53"/>
<polygon fill="none" stroke="#ffffff" stroke-width="1.6" stroke-opacity="0.623529" points="1291.28,-283.45 1287.85,-275.7 1285.7,-283.9 1291.28,-283.45"/>
</a>
</g>
</g>
<!-- 35&#45;&gt;27 -->
<g id="edge42" class="edge node0 node35">
<title>35&#45;&gt;27</title>
<g id="a_edge42"><a xlink:title="toml &#45;&gt; serde_core">
<path fill="none" stroke="#ffffff" stroke-width="1.6" stroke-opacity="0.623529" d="M1656,-415.37C1606.54,-401.82 1527.38,-371.69 1492,-312.1 1463.09,-263.39 1477.12,-239.31 1492,-184.65 1497.36,-164.96 1508.6,-145.18 1519.04,-129.7"/>
<polygon fill="none" stroke="#ffffff" stroke-width="1.6" stroke-opacity="0.623529" points="1521.05,-131.72 1523.33,-123.56 1516.46,-128.51 1521.05,-131.72"/>
</a>
</g>
<g id="a_edge42&#45;label"><a xlink:title="toml &#45;&gt; serde_core">
<text xml:space="preserve" text-anchor="middle" x="1504.38" y="-244.18" font-family="monospace" font-size="13.50" fill="#ffffff">std</text>
</a>
</g>
</g>
<!-- 36 -->
<g id="node37" class="node node0 node35 node0 node35 node39 node36">
<title>36</title>
<g id="a_node37"><a xlink:title="winnow v0.7.13&#10;349 B&#10;">
<ellipse fill="#b05afe" stroke="#ffffff" stroke-width="1.2" cx="2029.75" cy="-99.08" rx="1.28" ry="1.28"/>
<text xml:space="preserve" text-anchor="middle" x="2029.75" y="-92.85" font-family="monospace" font-size="18.00" fill="#ffffff">winnow</text>
</a>
</g>
</g>
<!-- 35&#45;&gt;36 -->
<g id="edge41" class="edge node0 node35">
<title>35&#45;&gt;36</title>
<g id="a_edge41"><a xlink:title="toml &#45;&gt; winnow">
<path fill="none" stroke="#ffffff" stroke-width="1.6" stroke-opacity="0.623529" d="M1728.7,-393.87C1734.6,-389.19 1741.06,-384.91 1747.75,-381.85 1869.49,-326.18 1962.62,-420.79 2040.75,-312.1 2087.13,-247.58 2047.6,-141.37 2033.96,-109.44"/>
<polygon fill="none" stroke="#ffffff" stroke-width="1.6" stroke-opacity="0.623529" points="2036.62,-108.54 2030.79,-102.38 2031.51,-110.83 2036.62,-108.54"/>
</a>
</g>
</g>
<!-- 37 -->
<g id="node38" class="node node0 node35 node37">
<title>37</title>
<g id="a_node38"><a xlink:title="serde_spanned v1.0.3&#10;0 B&#10;alloc,serde,std">
<ellipse fill="#d858fa" stroke="#ffffff" stroke-width="1.2" cx="1607.75" cy="-248.38" rx="0.36" ry="0.36"/>
<text xml:space="preserve" text-anchor="middle" x="1607.75" y="-242.15" font-family="monospace" font-size="18.00" fill="#ffffff">serde_spanned</text>
</a>
</g>
</g>
<!-- 35&#45;&gt;37 -->
<g id="edge43" class="edge node0 node35">
<title>35&#45;&gt;37</title>
<g id="a_edge43"><a xlink:title="toml &#45;&gt; serde_spanned">
<path fill="none" stroke="#ffffff" stroke-width="1.6" stroke-opacity="0.623529" d="M1670.4,-392.53C1662.97,-383.06 1655.39,-372.4 1649.5,-361.85 1629.71,-326.4 1615.85,-279.74 1610.37,-259.48"/>
<polygon fill="none" stroke="#ffffff" stroke-width="1.6" stroke-opacity="0.623529" points="1613.09,-258.81 1608.37,-251.77 1607.66,-260.21 1613.09,-258.81"/>
</a>
</g>
<g id="a_edge43&#45;label"><a xlink:title="toml &#45;&gt; serde_spanned">
<text xml:space="preserve" text-anchor="middle" x="1686.62" y="-342.77" font-family="monospace" font-size="13.50" fill="#ffffff">serde,std</text>
</a>
</g>
</g>
<!-- 38 -->
<g id="node39" class="node node0 node35 node38">
<title>38</title>
<g id="a_node39"><a xlink:title="toml_datetime v0.7.3&#10;5.74 KiB&#10;alloc,serde,std">
<ellipse fill="#e55fe0" stroke="#ffffff" stroke-width="1.2" cx="1789.75" cy="-248.38" rx="13.91" ry="13.91"/>
<text xml:space="preserve" text-anchor="middle" x="1789.75" y="-242.15" font-family="monospace" font-size="18.00" fill="#ffffff">toml_datetime</text>
</a>
</g>
</g>
<!-- 35&#45;&gt;38 -->
<g id="edge45" class="edge node0 node35">
<title>35&#45;&gt;38</title>
<g id="a_edge45"><a xlink:title="toml &#45;&gt; toml_datetime">
<path fill="none" stroke="#ffffff" stroke-width="1.6" stroke-opacity="0.623529" d="M1718.5,-386.8C1737.11,-350.91 1764.29,-298.48 1779.12,-269.87"/>
<polygon fill="none" stroke="#ffffff" stroke-width="1.6" stroke-opacity="0.623529" points="1781.51,-271.35 1782.71,-262.96 1776.54,-268.78 1781.51,-271.35"/>
</a>
</g>
<g id="a_edge45&#45;label"><a xlink:title="toml &#45;&gt; toml_datetime">
<text xml:space="preserve" text-anchor="middle" x="1781.38" y="-342.77" font-family="monospace" font-size="13.50" fill="#ffffff">serde,std</text>
</a>
</g>
</g>
<!-- 39 -->
<g id="node40" class="node node0 node35 node39">
<title>39</title>
<g id="a_node40"><a xlink:title="toml_parser v1.0.4&#10;44.80 KiB&#10;alloc,std">
<ellipse fill="#b33059" stroke="#ffffff" stroke-width="1.2" cx="1960.75" cy="-248.38" rx="39.11" ry="39.11"/>
<text xml:space="preserve" text-anchor="middle" x="1960.75" y="-242.15" font-family="monospace" font-size="18.00" fill="#ffffff">toml_parser</text>
</a>
</g>
</g>
<!-- 35&#45;&gt;39 -->
<g id="edge47" class="edge node0 node35">
<title>35&#45;&gt;39</title>
<g id="a_edge47"><a xlink:title="toml &#45;&gt; toml_parser">
<path fill="none" stroke="#ffffff" stroke-width="1.6" stroke-opacity="0.623529" d="M1738.55,-407.56C1763.74,-395.94 1796.56,-379.55 1823.75,-361.85 1860.36,-338 1898.51,-306.01 1925.22,-282.24"/>
<polygon fill="none" stroke="#ffffff" stroke-width="1.6" stroke-opacity="0.623529" points="1926.89,-284.5 1930.98,-277.08 1923.15,-280.33 1926.89,-284.5"/>
</a>
</g>
<g id="a_edge47&#45;label"><a xlink:title="toml &#45;&gt; toml_parser">
<text xml:space="preserve" text-anchor="middle" x="1875.72" y="-342.77" font-family="monospace" font-size="13.50" fill="#ffffff">std</text>
</a>
</g>
</g>
<!-- 37&#45;&gt;27 -->
<g id="edge44" class="edge node0 node35 node37">
<title>37&#45;&gt;27</title>
<g id="a_edge44"><a xlink:title="serde_spanned &#45;&gt; serde_core">
<path fill="none" stroke="#ffffff" stroke-width="1.6" stroke-opacity="0.623529" d="M1607.7,-247.27C1606.34,-244.23 1576.22,-177.01 1557.16,-134.47"/>
<polygon fill="none" stroke="#ffffff" stroke-width="1.6" stroke-opacity="0.623529" points="1559.74,-133.39 1553.92,-127.23 1554.63,-135.68 1559.74,-133.39"/>
</a>
</g>
<g id="a_edge44&#45;label"><a xlink:title="serde_spanned &#45;&gt; serde_core">
<text xml:space="preserve" text-anchor="middle" x="1605.96" y="-151.83" font-family="monospace" font-size="13.50" fill="#ffffff">alloc,std</text>
</a>
</g>
</g>
<!-- 38&#45;&gt;27 -->
<g id="edge46" class="edge node0 node35 node38">
<title>38&#45;&gt;27</title>
<g id="a_edge46"><a xlink:title="toml_datetime &#45;&gt; serde_core">
<path fill="none" stroke="#ffffff" stroke-width="1.6" stroke-opacity="0.623529" d="M1779.52,-239.12C1756.79,-221.01 1699.92,-177.04 1647.75,-147.4 1625.06,-134.51 1598.2,-122.55 1577.2,-113.88"/>
<polygon fill="none" stroke="#ffffff" stroke-width="1.6" stroke-opacity="0.623529" points="1578.41,-111.35 1569.94,-110.93 1576.3,-116.54 1578.41,-111.35"/>
</a>
</g>
<g id="a_edge46&#45;label"><a xlink:title="toml_datetime &#45;&gt; serde_core">
<text xml:space="preserve" text-anchor="middle" x="1713.29" y="-151.83" font-family="monospace" font-size="13.50" fill="#ffffff">alloc,std</text>
</a>
</g>
</g>
<!-- 39&#45;&gt;36 -->
<g id="edge48" class="edge node0 node35 node39">
<title>39&#45;&gt;36</title>
<g id="a_edge48"><a xlink:title="toml_parser &#45;&gt; winnow">
<path fill="none" stroke="#ffffff" stroke-width="1.6" stroke-opacity="0.623529" d="M1976.93,-212.84C1992.75,-179.07 2015.81,-129.83 2025.36,-109.45"/>
<polygon fill="none" stroke="#ffffff" stroke-width="1.6" stroke-opacity="0.623529" points="2027.77,-110.9 2028.63,-102.47 2022.7,-108.53 2027.77,-110.9"/>
</a>
</g>
</g>
</g>
</svg>
