<?xml version="1.0" encoding="UTF-8" standalone="no"?>
<!DOCTYPE svg PUBLIC "-//W3C//DTD SVG 1.1//EN"
 "http://www.w3.org/Graphics/SVG/1.1/DTD/svg11.dtd">
<!-- Generated by graphviz version 13.1.2 (20250808.2320)
 -->
<!-- Pages: 1 -->
<svg width="2318pt" height="851pt"
 viewBox="0.00 0.00 2318.00 851.00" xmlns="http://www.w3.org/2000/svg" xmlns:xlink="http://www.w3.org/1999/xlink">
<style>
.graph:has(.node0:hover) > g:not(.node0) { opacity: 0.5 }
.graph:has(.node1:hover) > g:not(.node1) { opacity: 0.5 }
.graph:has(.node2:hover) > g:not(.node2) { opacity: 0.5 }
.graph:has(.node3:hover) > g:not(.node3) { opacity: 0.5 }
.graph:has(.node4:hover) > g:not(.node4) { opacity: 0.5 }
.graph:has(.node5:hover) > g:not(.node5) { opacity: 0.5 }
.graph:has(.node6:hover) > g:not(.node6) { opacity: 0.5 }
.graph:has(.node7:hover) > g:not(.node7) { opacity: 0.5 }
.graph:has(.node8:hover) > g:not(.node8) { opacity: 0.5 }
.graph:has(.node9:hover) > g:not(.node9) { opacity: 0.5 }
.graph:has(.node10:hover) > g:not(.node10) { opacity: 0.5 }
.graph:has(.node11:hover) > g:not(.node11) { opacity: 0.5 }
.graph:has(.node12:hover) > g:not(.node12) { opacity: 0.5 }
.graph:has(.node13:hover) > g:not(.node13) { opacity: 0.5 }
.graph:has(.node14:hover) > g:not(.node14) { opacity: 0.5 }
.graph:has(.node15:hover) > g:not(.node15) { opacity: 0.5 }
.graph:has(.node16:hover) > g:not(.node16) { opacity: 0.5 }
.graph:has(.node17:hover) > g:not(.node17) { opacity: 0.5 }
.graph:has(.node18:hover) > g:not(.node18) { opacity: 0.5 }
.graph:has(.node19:hover) > g:not(.node19) { opacity: 0.5 }
.graph:has(.node20:hover) > g:not(.node20) { opacity: 0.5 }
.graph:has(.node21:hover) > g:not(.node21) { opacity: 0.5 }
.graph:has(.node22:hover) > g:not(.node22) { opacity: 0.5 }
.graph:has(.node23:hover) > g:not(.node23) { opacity: 0.5 }
.graph:has(.node24:hover) > g:not(.node24) { opacity: 0.5 }
.graph:has(.node25:hover) > g:not(.node25) { opacity: 0.5 }
.graph:has(.node26:hover) > g:not(.node26) { opacity: 0.5 }
.graph:has(.node27:hover) > g:not(.node27) { opacity: 0.5 }
.graph:has(.node28:hover) > g:not(.node28) { opacity: 0.5 }
.graph:has(.node29:hover) > g:not(.node29) { opacity: 0.5 }
.graph:has(.node30:hover) > g:not(.node30) { opacity: 0.5 }
.graph:has(.node31:hover) > g:not(.node31) { opacity: 0.5 }
.graph:has(.node32:hover) > g:not(.node32) { opacity: 0.5 }
.graph:has(.node33:hover) > g:not(.node33) { opacity: 0.5 }
.graph:has(.node34:hover) > g:not(.node34) { opacity: 0.5 }
.graph:has(.node35:hover) > g:not(.node35) { opacity: 0.5 }
.graph:has(.node36:hover) > g:not(.node36) { opacity: 0.5 }
.graph:has(.node37:hover) > g:not(.node37) { opacity: 0.5 }
.graph:has(.node38:hover) > g:not(.node38) { opacity: 0.5 }
.graph:has(.node39:hover) > g:not(.node39) { opacity: 0.5 }
.graph:has(.node40:hover) > g:not(.node40) { opacity: 0.5 }
</style>
<g id="graph0" class="graph" transform="scale(1 1) rotate(0) translate(36 814.91)">
<polygon fill="#000000" stroke="none" points="-36,36 -36,-814.91 2282.25,-814.91 2282.25,36 -36,36"/>
<!-- 0 -->
<g id="node1" class="node node0">
<title>0</title>
<g id="a_node1"><a xlink:title="pugio v0.2.0 (/home/my4ng/Programming/pugio)&#10;95.37 KiB&#10;">
<ellipse fill="#d4dd06" stroke="#ffffff" stroke-width="1.2" cx="815.38" cy="-728.68" rx="50.23" ry="50.23"/>
<text xml:space="preserve" text-anchor="middle" x="815.38" y="-722.46" font-family="monospace" font-size="18.00" fill="#ffffff">pugio</text>
</a>
</g>
</g>
<!-- 1 -->
<g id="node2" class="node node0 node1">
<title>1</title>
<g id="a_node2"><a xlink:title="anyhow v1.0.100&#10;8.92 KiB&#10;default(std),&#10;std">
<ellipse fill="#e560e2" stroke="#ffffff" stroke-width="1.2" cx="283.38" cy="-588.16" rx="18.33" ry="18.33"/>
<text xml:space="preserve" text-anchor="middle" x="283.38" y="-581.94" font-family="monospace" font-size="18.00" fill="#ffffff">anyhow</text>
</a>
</g>
</g>
<!-- 0&#45;&gt;1 -->
<g id="edge1" class="edge node0">
<title>0&#45;&gt;1</title>
<g id="a_edge1"><a xlink:title="pugio &#45;&gt; anyhow">
<path fill="none" stroke="#ffffff" stroke-width="1.6" stroke-opacity="0.623529" d="M765.69,-723.81C676.73,-715.47 485.78,-691.11 338.38,-627.46 326.31,-622.25 314.19,-614.18 304.41,-606.79"/>
<polygon fill="none" stroke="#ffffff" stroke-width="1.6" stroke-opacity="0.623529" points="306.4,-604.8 298.38,-602.06 302.94,-609.2 306.4,-604.8"/>
</a>
</g>
</g>
<!-- 2 -->
<g id="node3" class="node node0 node2">
<title>2</title>
<g id="a_node3"><a xlink:title="cfg_if v1.0.4&#10;0 B&#10;default">
<ellipse fill="#7d78f7" stroke="#ffffff" stroke-width="1.2" cx="392.38" cy="-588.16" rx="0.36" ry="0.36"/>
<text xml:space="preserve" text-anchor="middle" x="392.38" y="-581.94" font-family="monospace" font-size="18.00" fill="#ffffff">cfg_if</text>
</a>
</g>
</g>
<!-- 0&#45;&gt;2 -->
<g id="edge2" class="edge node0">
<title>0&#45;&gt;2</title>
<g id="a_edge2"><a xlink:title="pugio &#45;&gt; cfg_if">
<path fill="none" stroke="#ffffff" stroke-width="1.6" stroke-opacity="0.623529" d="M765.99,-719.97C693.35,-707.37 554.58,-678.53 446.38,-627.46 428.45,-619 410.17,-604.56 400.15,-596.03"/>
<polygon fill="none" stroke="#ffffff" stroke-width="1.6" stroke-opacity="0.623529" points="402.12,-594.04 394.27,-590.84 398.41,-598.23 402.12,-594.04"/>
</a>
</g>
</g>
<!-- 3 -->
<g id="node4" class="node node0 node3">
<title>3</title>
<g id="a_node4"><a xlink:title="clap v4.5.54&#10;0 B&#10;derive,&#10;error&#45;context,&#10;help,&#10;std,&#10;usage">
<ellipse fill="#c46705" stroke="#ffffff" stroke-width="1.2" cx="489.38" cy="-588.16" rx="0.36" ry="0.36"/>
<text xml:space="preserve" text-anchor="middle" x="489.38" y="-581.94" font-family="monospace" font-size="18.00" fill="#ffffff">clap</text>
</a>
</g>
</g>
<!-- 0&#45;&gt;3 -->
<g id="edge3" class="edge node0">
<title>0&#45;&gt;3</title>
<g id="a_edge3"><a xlink:title="pugio &#45;&gt; clap">
<path fill="none" stroke="#ffffff" stroke-width="1.6" stroke-opacity="0.623529" d="M766.84,-716.62C708.42,-701.95 608.65,-672.55 532.38,-627.46 518.04,-618.98 504.15,-605.31 496.2,-596.8"/>
<polygon fill="none" stroke="#ffffff" stroke-width="1.6" stroke-opacity="0.623529" points="498.47,-595.14 491.05,-591.04 494.29,-598.87 498.47,-595.14"/>
</a>
</g>
</g>
<!-- 7 -->
<g id="node8" class="node node0 node7">
<title>7</title>
<g id="a_node8"><a xlink:title="open v5.3.3&#10;5.92 KiB&#10;default">
<ellipse fill="#e45ddd" stroke="#ffffff" stroke-width="1.2" cx="575.38" cy="-588.16" rx="14.21" ry="14.21"/>
<text xml:space="preserve" text-anchor="middle" x="575.38" y="-581.94" font-family="monospace" font-size="18.00" fill="#ffffff">open</text>
</a>
</g>
</g>
<!-- 0&#45;&gt;7 -->
<g id="edge7" class="edge node0">
<title>0&#45;&gt;7</title>
<g id="a_edge7"><a xlink:title="pugio &#45;&gt; open">
<path fill="none" stroke="#ffffff" stroke-width="1.6" stroke-opacity="0.623529" d="M772.47,-702.92C720.51,-672.93 635.12,-623.64 596.05,-601.1"/>
<polygon fill="none" stroke="#ffffff" stroke-width="1.6" stroke-opacity="0.623529" points="597.59,-598.75 589.26,-597.18 594.79,-603.6 597.59,-598.75"/>
</a>
</g>
</g>
<!-- 13 -->
<g id="node14" class="node node0 node13">
<title>13</title>
<g id="a_node14"><a xlink:title="parse_size v1.1.0&#10;1.17 KiB&#10;default">
<ellipse fill="#c558fe" stroke="#ffffff" stroke-width="1.2" cx="815.38" cy="-588.16" rx="4.01" ry="4.01"/>
<text xml:space="preserve" text-anchor="middle" x="815.38" y="-581.94" font-family="monospace" font-size="18.00" fill="#ffffff">parse_size</text>
</a>
</g>
</g>
<!-- 0&#45;&gt;13 -->
<g id="edge14" class="edge node0">
<title>0&#45;&gt;13</title>
<g id="a_edge14"><a xlink:title="pugio &#45;&gt; parse_size">
<path fill="none" stroke="#ffffff" stroke-width="1.6" stroke-opacity="0.623529" d="M815.38,-678.84C815.38,-651.53 815.38,-619.57 815.38,-602.13"/>
<polygon fill="none" stroke="#ffffff" stroke-width="1.6" stroke-opacity="0.623529" points="818.18,-602.37 815.38,-594.37 812.58,-602.37 818.18,-602.37"/>
</a>
</g>
</g>
<!-- 14 -->
<g id="node15" class="node node0 node14">
<title>14</title>
<g id="a_node15"><a xlink:title="pugio_lib v0.2.0 (/home/my4ng/Programming/pugio/pugio&#45;lib)&#10;41.84 KiB&#10;default">
<ellipse fill="#ab3614" stroke="#ffffff" stroke-width="1.2" cx="1023.38" cy="-588.16" rx="38.13" ry="38.13"/>
<text xml:space="preserve" text-anchor="middle" x="1023.38" y="-581.94" font-family="monospace" font-size="18.00" fill="#ffffff">pugio_lib</text>
</a>
</g>
</g>
<!-- 0&#45;&gt;14 -->
<g id="edge15" class="edge node0">
<title>0&#45;&gt;14</title>
<g id="a_edge15"><a xlink:title="pugio &#45;&gt; pugio_lib">
<path fill="none" stroke="#ffffff" stroke-width="1.6" stroke-opacity="0.623529" d="M856.47,-700.31C893.41,-675.72 947.3,-639.82 983.77,-615.53"/>
<polygon fill="none" stroke="#ffffff" stroke-width="1.6" stroke-opacity="0.623529" points="985.07,-618.04 990.18,-611.27 981.97,-613.37 985.07,-618.04"/>
</a>
</g>
</g>
<!-- 26 -->
<g id="node27" class="node node0 node0 node14 node0 node14 node34 node26">
<title>26</title>
<g id="a_node27"><a xlink:title="serde v1.0.228&#10;318 B&#10;default(std),&#10;derive(serde_derive),&#10;serde_derive,&#10;std">
<ellipse fill="#da59f6" stroke="#ffffff" stroke-width="1.2" cx="1504.38" cy="-179.3" rx="1.17" ry="1.17"/>
<text xml:space="preserve" text-anchor="middle" x="1504.38" y="-173.08" font-family="monospace" font-size="18.00" fill="#ffffff">serde</text>
</a>
</g>
</g>
<!-- 0&#45;&gt;26 -->
<g id="edge39" class="edge node0">
<title>0&#45;&gt;26</title>
<g id="a_edge39"><a xlink:title="pugio &#45;&gt; serde">
<path fill="none" stroke="#ffffff" stroke-width="1.6" stroke-opacity="0.623529" d="M864.36,-718.23C1026.64,-685.68 1540.34,-572.38 1609.38,-429.87 1645.87,-354.52 1632.79,-309.66 1581.38,-243.59 1578.67,-240.11 1531.49,-202.08 1512.35,-186.7"/>
<polygon fill="none" stroke="#ffffff" stroke-width="1.6" stroke-opacity="0.623529" points="1514.31,-184.69 1506.32,-181.86 1510.8,-189.05 1514.31,-184.69"/>
</a>
</g>
</g>
<!-- 35 -->
<g id="node36" class="node node0 node35">
<title>35</title>
<g id="a_node36"><a xlink:title="regex_lite v0.1.8&#10;45.38 KiB&#10;default(std,string),&#10;std,&#10;string">
<ellipse fill="#b33059" stroke="#ffffff" stroke-width="1.2" cx="1761.38" cy="-588.16" rx="39.29" ry="39.29"/>
<text xml:space="preserve" text-anchor="middle" x="1761.38" y="-581.94" font-family="monospace" font-size="18.00" fill="#ffffff">regex_lite</text>
</a>
</g>
</g>
<!-- 0&#45;&gt;35 -->
<g id="edge40" class="edge node0">
<title>0&#45;&gt;35</title>
<g id="a_edge40"><a xlink:title="pugio &#45;&gt; regex_lite">
<path fill="none" stroke="#ffffff" stroke-width="1.6" stroke-opacity="0.623529" d="M865.34,-727.07C1026.14,-724.54 1528.5,-712.01 1678.38,-653.46 1695.83,-646.64 1712.65,-634.92 1726.54,-623.35"/>
<polygon fill="none" stroke="#ffffff" stroke-width="1.6" stroke-opacity="0.623529" points="1728.3,-625.52 1732.52,-618.17 1724.64,-621.29 1728.3,-625.52"/>
</a>
</g>
</g>
<!-- 36 -->
<g id="node37" class="node node0 node36">
<title>36</title>
<g id="a_node37"><a xlink:title="toml v0.9.11+spec&#45;1.1.0&#10;62.94 KiB&#10;parse,&#10;serde,&#10;std">
<ellipse fill="#ad3812" stroke="#ffffff" stroke-width="1.2" cx="1938.38" cy="-366.48" rx="44.05" ry="44.05"/>
<text xml:space="preserve" text-anchor="middle" x="1938.38" y="-360.25" font-family="monospace" font-size="18.00" fill="#ffffff">toml</text>
</a>
</g>
</g>
<!-- 0&#45;&gt;36 -->
<g id="edge41" class="edge node0">
<title>0&#45;&gt;36</title>
<g id="a_edge41"><a xlink:title="pugio &#45;&gt; toml">
<path fill="none" stroke="#ffffff" stroke-width="1.6" stroke-opacity="0.623529" d="M865.23,-726.04C1060.03,-719.18 1762.78,-690.23 1838.38,-627.46 1900.8,-575.62 1924.35,-480.05 1933.17,-420.34"/>
<polygon fill="none" stroke="#ffffff" stroke-width="1.6" stroke-opacity="0.623529" points="1935.9,-421.06 1934.23,-412.75 1930.35,-420.29 1935.9,-421.06"/>
</a>
</g>
</g>
<!-- 4 -->
<g id="node5" class="node node0 node3 node4">
<title>4</title>
<g id="a_node5"><a xlink:title="clap_builder v4.5.54&#10;226.57 KiB&#10;error&#45;context,&#10;help,&#10;std,&#10;usage">
<ellipse fill="#c46705" stroke="#ffffff" stroke-width="1.2" cx="142.38" cy="-366.48" rx="63.39" ry="63.39"/>
<text xml:space="preserve" text-anchor="middle" x="142.38" y="-360.25" font-family="monospace" font-size="18.00" fill="#ffffff">clap_builder</text>
</a>
</g>
</g>
<!-- 3&#45;&gt;4 -->
<g id="edge4" class="edge node0 node3">
<title>3&#45;&gt;4</title>
<g id="a_edge4"><a xlink:title="clap &#45;&gt; clap_builder">
<path fill="none" stroke="#ffffff" stroke-width="1.6" stroke-opacity="0.623529" d="M489.32,-587.08C488.15,-585.41 469.17,-558.62 446.38,-548.87 383.6,-521.99 186.4,-574.08 140.12,-523.87 119.04,-501 117.28,-467.28 121.77,-437"/>
<polygon fill="none" stroke="#ffffff" stroke-width="1.6" stroke-opacity="0.623529" points="124.5,-437.64 123.1,-429.28 118.98,-436.68 124.5,-437.64"/>
</a>
</g>
<g id="a_edge4&#45;label"><a xlink:title="clap &#45;&gt; clap_builder">
<text xml:space="preserve" text-anchor="middle" x="259.75" y="-511.04" font-family="monospace" font-size="13.50" fill="#ffffff">error&#45;context(error&#45;context),</text>
<text xml:space="preserve" text-anchor="middle" x="259.75" y="-493.79" font-family="monospace" font-size="13.50" fill="#ffffff">help(help),</text>
<text xml:space="preserve" text-anchor="middle" x="259.75" y="-476.54" font-family="monospace" font-size="13.50" fill="#ffffff">std(std),</text>
<text xml:space="preserve" text-anchor="middle" x="259.75" y="-459.29" font-family="monospace" font-size="13.50" fill="#ffffff">usage(usage)</text>
</a>
</g>
</g>
<!-- 5 -->
<g id="node6" class="node node0 node3 node4 node5">
<title>5</title>
<g id="a_node6"><a xlink:title="anstyle v1.0.13&#10;2.06 KiB&#10;default(std),&#10;std">
<ellipse fill="#cf57fe" stroke="#ffffff" stroke-width="1.2" cx="47.38" cy="-179.3" rx="6.5" ry="6.5"/>
<text xml:space="preserve" text-anchor="middle" x="47.38" y="-173.08" font-family="monospace" font-size="18.00" fill="#ffffff">anstyle</text>
</a>
</g>
</g>
<!-- 4&#45;&gt;5 -->
<g id="edge5" class="edge node0 node3 node4">
<title>4&#45;&gt;5</title>
<g id="a_edge5"><a xlink:title="clap_builder &#45;&gt; anstyle">
<path fill="none" stroke="#ffffff" stroke-width="1.6" stroke-opacity="0.623529" d="M106.49,-314.32C99.04,-302.68 91.58,-290.18 85.38,-278.09 70.84,-249.78 58.44,-214.56 52.04,-195.05"/>
<polygon fill="none" stroke="#ffffff" stroke-width="1.6" stroke-opacity="0.623529" points="54.77,-194.41 49.66,-187.65 49.44,-196.12 54.77,-194.41"/>
</a>
</g>
<g id="a_edge5&#45;label"><a xlink:title="clap_builder &#45;&gt; anstyle">
<text xml:space="preserve" text-anchor="middle" x="118.38" y="-256.64" font-family="monospace" font-size="13.50" fill="#ffffff">std(std)</text>
</a>
</g>
</g>
<!-- 6 -->
<g id="node7" class="node node0 node3 node4 node6">
<title>6</title>
<g id="a_node7"><a xlink:title="clap_lex v0.7.7&#10;1.09 KiB&#10;default">
<ellipse fill="#c257ff" stroke="#ffffff" stroke-width="1.2" cx="172.38" cy="-179.3" rx="3.77" ry="3.77"/>
<text xml:space="preserve" text-anchor="middle" x="172.38" y="-173.08" font-family="monospace" font-size="18.00" fill="#ffffff">clap_lex</text>
</a>
</g>
</g>
<!-- 4&#45;&gt;6 -->
<g id="edge6" class="edge node0 node3 node4">
<title>4&#45;&gt;6</title>
<g id="a_edge6"><a xlink:title="clap_builder &#45;&gt; clap_lex">
<path fill="none" stroke="#ffffff" stroke-width="1.6" stroke-opacity="0.623529" d="M152.32,-304.08C158.77,-264.3 166.62,-215.82 170.29,-193.15"/>
<polygon fill="none" stroke="#ffffff" stroke-width="1.6" stroke-opacity="0.623529" points="173.03,-193.78 171.54,-185.44 167.5,-192.88 173.03,-193.78"/>
</a>
</g>
</g>
<!-- 8 -->
<g id="node9" class="node node0 node7 node8">
<title>8</title>
<g id="a_node9"><a xlink:title="is_wsl v0.4.0&#10;0 B&#10;default">
<ellipse fill="#d95af8" stroke="#ffffff" stroke-width="1.2" cx="308.38" cy="-366.48" rx="0.36" ry="0.36"/>
<text xml:space="preserve" text-anchor="middle" x="308.38" y="-360.25" font-family="monospace" font-size="18.00" fill="#ffffff">is_wsl</text>
</a>
</g>
</g>
<!-- 7&#45;&gt;8 -->
<g id="edge8" class="edge node0 node7">
<title>7&#45;&gt;8</title>
<g id="a_edge8"><a xlink:title="open &#45;&gt; is_wsl">
<path fill="none" stroke="#ffffff" stroke-width="1.6" stroke-opacity="0.623529" d="M566.64,-577.51C558.49,-568.98 545.62,-556.72 532.38,-548.87 503.96,-532.02 490.56,-541.1 462.38,-523.87 410.33,-492.05 404.61,-473.87 362.38,-429.87 344.31,-411.04 324.62,-387.43 314.76,-375.36"/>
<polygon fill="none" stroke="#ffffff" stroke-width="1.6" stroke-opacity="0.623529" points="317.19,-373.92 309.98,-369.47 312.84,-377.45 317.19,-373.92"/>
</a>
</g>
</g>
<!-- 11 -->
<g id="node12" class="node node0 node7 node11">
<title>11</title>
<g id="a_node12"><a xlink:title="libc v0.2.180&#10;0 B&#10;default(std),&#10;std">
<ellipse fill="#7d78f7" stroke="#ffffff" stroke-width="1.2" cx="405.38" cy="-366.48" rx="0.36" ry="0.36"/>
<text xml:space="preserve" text-anchor="middle" x="405.38" y="-360.25" font-family="monospace" font-size="18.00" fill="#ffffff">libc</text>
</a>
</g>
</g>
<!-- 7&#45;&gt;11 -->
<g id="edge12" class="edge node0 node7">
<title>7&#45;&gt;11</title>
<g id="a_edge12"><a xlink:title="open &#45;&gt; libc">
<path fill="none" stroke="#ffffff" stroke-width="1.6" stroke-opacity="0.623529" d="M566.78,-577.07C545.88,-552.41 491,-486.96 448.38,-429.87 434.35,-411.08 419.01,-388.21 410.98,-376.05"/>
<polygon fill="none" stroke="#ffffff" stroke-width="1.6" stroke-opacity="0.623529" points="413.49,-374.77 406.77,-369.61 408.81,-377.84 413.49,-374.77"/>
</a>
</g>
</g>
<!-- 12 -->
<g id="node13" class="node node0 node7 node12">
<title>12</title>
<g id="a_node13"><a xlink:title="pathdiff v0.2.3&#10;0 B&#10;default">
<ellipse fill="#7d78f7" stroke="#ffffff" stroke-width="1.2" cx="514.38" cy="-366.48" rx="0.36" ry="0.36"/>
<text xml:space="preserve" text-anchor="middle" x="514.38" y="-360.25" font-family="monospace" font-size="18.00" fill="#ffffff">pathdiff</text>
</a>
</g>
</g>
<!-- 7&#45;&gt;12 -->
<g id="edge13" class="edge node0 node7">
<title>7&#45;&gt;12</title>
<g id="a_edge13"><a xlink:title="open &#45;&gt; pathdiff">
<path fill="none" stroke="#ffffff" stroke-width="1.6" stroke-opacity="0.623529" d="M571.92,-574.72C560.95,-535.23 527.07,-413.2 517.14,-377.43"/>
<polygon fill="none" stroke="#ffffff" stroke-width="1.6" stroke-opacity="0.623529" points="519.89,-376.89 515.06,-369.93 514.5,-378.39 519.89,-376.89"/>
</a>
</g>
</g>
<!-- 9 -->
<g id="node10" class="node node0 node7 node8 node9">
<title>9</title>
<g id="a_node10"><a xlink:title="is_docker v0.2.0&#10;0 B&#10;default">
<ellipse fill="#cb57fe" stroke="#ffffff" stroke-width="1.2" cx="390.38" cy="-179.3" rx="0.36" ry="0.36"/>
<text xml:space="preserve" text-anchor="middle" x="390.38" y="-173.08" font-family="monospace" font-size="18.00" fill="#ffffff">is_docker</text>
</a>
</g>
</g>
<!-- 8&#45;&gt;9 -->
<g id="edge9" class="edge node0 node7 node8">
<title>8&#45;&gt;9</title>
<g id="a_edge9"><a xlink:title="is_wsl &#45;&gt; is_docker">
<path fill="none" stroke="#ffffff" stroke-width="1.6" stroke-opacity="0.623529" d="M308.43,-365.35C310.57,-360.53 369.55,-227.32 386.1,-189.96"/>
<polygon fill="none" stroke="#ffffff" stroke-width="1.6" stroke-opacity="0.623529" points="388.66,-191.1 389.34,-182.65 383.54,-188.83 388.66,-191.1"/>
</a>
</g>
</g>
<!-- 10 -->
<g id="node11" class="node node0 node7 node8 node0 node7 node8 node9 node10">
<title>10</title>
<g id="a_node11"><a xlink:title="once_cell v1.21.3&#10;3.68 KiB&#10;alloc(race),&#10;default(std),&#10;race,&#10;std(alloc)">
<ellipse fill="#d95af8" stroke="#ffffff" stroke-width="1.2" cx="345.38" cy="-27.76" rx="10.21" ry="10.21"/>
<text xml:space="preserve" text-anchor="middle" x="345.38" y="-21.53" font-family="monospace" font-size="18.00" fill="#ffffff">once_cell</text>
</a>
</g>
</g>
<!-- 8&#45;&gt;10 -->
<g id="edge11" class="edge node0 node7 node8">
<title>8&#45;&gt;10</title>
<g id="a_edge11"><a xlink:title="is_wsl &#45;&gt; once_cell">
<path fill="none" stroke="#ffffff" stroke-width="1.6" stroke-opacity="0.623529" d="M308.37,-365.39C308.29,-361.55 305.68,-237.82 319.38,-140.02 323.99,-107.06 333.72,-69.52 339.88,-47.56"/>
<polygon fill="none" stroke="#ffffff" stroke-width="1.6" stroke-opacity="0.623529" points="342.56,-48.39 342.07,-39.92 337.17,-46.85 342.56,-48.39"/>
</a>
</g>
</g>
<!-- 9&#45;&gt;10 -->
<g id="edge10" class="edge node0 node7 node8 node9">
<title>9&#45;&gt;10</title>
<g id="a_edge10"><a xlink:title="is_docker &#45;&gt; once_cell">
<path fill="none" stroke="#ffffff" stroke-width="1.6" stroke-opacity="0.623529" d="M390.34,-178.2C389.28,-174.68 362.74,-86.47 350.94,-47.26"/>
<polygon fill="none" stroke="#ffffff" stroke-width="1.6" stroke-opacity="0.623529" points="353.66,-46.58 348.67,-39.72 348.3,-48.19 353.66,-46.58"/>
</a>
</g>
</g>
<!-- 15 -->
<g id="node16" class="node node0 node14 node15">
<title>15</title>
<g id="a_node16"><a xlink:title="colorous v1.0.16&#10;2.44 KiB&#10;default(std),&#10;std">
<ellipse fill="#d257fd" stroke="#ffffff" stroke-width="1.2" cx="645.38" cy="-366.48" rx="7.45" ry="7.45"/>
<text xml:space="preserve" text-anchor="middle" x="645.38" y="-360.25" font-family="monospace" font-size="18.00" fill="#ffffff">colorous</text>
</a>
</g>
</g>
<!-- 14&#45;&gt;15 -->
<g id="edge16" class="edge node0 node14">
<title>14&#45;&gt;15</title>
<g id="a_edge16"><a xlink:title="pugio_lib &#45;&gt; colorous">
<path fill="none" stroke="#ffffff" stroke-width="1.6" stroke-opacity="0.623529" d="M987.81,-575.39C954.43,-563.86 903.49,-544.97 861.38,-523.87 790.7,-488.44 772.78,-478.39 710.38,-429.87 690.12,-414.12 669.13,-392.93 656.66,-379.75"/>
<polygon fill="none" stroke="#ffffff" stroke-width="1.6" stroke-opacity="0.623529" points="658.95,-378.09 651.45,-374.15 654.85,-381.91 658.95,-378.09"/>
</a>
</g>
</g>
<!-- 16 -->
<g id="node17" class="node node0 node14 node16">
<title>16</title>
<g id="a_node17"><a xlink:title="colorsys v0.7.3&#10;2.11 KiB&#10;default(std),&#10;std">
<ellipse fill="#d057fe" stroke="#ffffff" stroke-width="1.2" cx="776.38" cy="-366.48" rx="6.63" ry="6.63"/>
<text xml:space="preserve" text-anchor="middle" x="776.38" y="-360.25" font-family="monospace" font-size="18.00" fill="#ffffff">colorsys</text>
</a>
</g>
</g>
<!-- 14&#45;&gt;16 -->
<g id="edge17" class="edge node0 node14">
<title>14&#45;&gt;16</title>
<g id="a_edge17"><a xlink:title="pugio_lib &#45;&gt; colorsys">
<path fill="none" stroke="#ffffff" stroke-width="1.6" stroke-opacity="0.623529" d="M992.76,-565.45C976.54,-553.6 956.48,-538.42 939.38,-523.87 893.42,-484.75 884.92,-471.65 841.38,-429.87 822.67,-411.92 800.94,-391.06 787.94,-378.58"/>
<polygon fill="none" stroke="#ffffff" stroke-width="1.6" stroke-opacity="0.623529" points="789.94,-376.62 782.23,-373.1 786.06,-380.66 789.94,-376.62"/>
</a>
</g>
</g>
<!-- 17 -->
<g id="node18" class="node node0 node14 node17">
<title>17</title>
<g id="a_node18"><a xlink:title="humansize v2.1.3&#10;1.23 KiB&#10;default">
<ellipse fill="#c558fe" stroke="#ffffff" stroke-width="1.2" cx="1095.38" cy="-366.48" rx="4.18" ry="4.18"/>
<text xml:space="preserve" text-anchor="middle" x="1095.38" y="-360.25" font-family="monospace" font-size="18.00" fill="#ffffff">humansize</text>
</a>
</g>
</g>
<!-- 14&#45;&gt;17 -->
<g id="edge18" class="edge node0 node14">
<title>14&#45;&gt;17</title>
<g id="a_edge18"><a xlink:title="pugio_lib &#45;&gt; humansize">
<path fill="none" stroke="#ffffff" stroke-width="1.6" stroke-opacity="0.623529" d="M1034.94,-551.87C1051.37,-501.76 1080.64,-412.45 1091.32,-379.84"/>
<polygon fill="none" stroke="#ffffff" stroke-width="1.6" stroke-opacity="0.623529" points="1093.94,-380.85 1093.77,-372.37 1088.62,-379.1 1093.94,-380.85"/>
</a>
</g>
</g>
<!-- 19 -->
<g id="node20" class="node node0 node14 node19">
<title>19</title>
<g id="a_node20"><a xlink:title="petgraph v0.8.3&#10;6.61 KiB&#10;stable_graph,&#10;std">
<ellipse fill="#e560e9" stroke="#ffffff" stroke-width="1.2" cx="907.38" cy="-366.48" rx="15.25" ry="15.25"/>
<text xml:space="preserve" text-anchor="middle" x="907.38" y="-360.25" font-family="monospace" font-size="18.00" fill="#ffffff">petgraph</text>
</a>
</g>
</g>
<!-- 14&#45;&gt;19 -->
<g id="edge20" class="edge node0 node14">
<title>14&#45;&gt;19</title>
<g id="a_edge20"><a xlink:title="pugio_lib &#45;&gt; petgraph">
<path fill="none" stroke="#ffffff" stroke-width="1.6" stroke-opacity="0.623529" d="M1001.22,-557.6C993.86,-547.2 985.89,-535.25 979.38,-523.87 953.11,-477.94 928.75,-420.77 916.21,-389.85"/>
<polygon fill="none" stroke="#ffffff" stroke-width="1.6" stroke-opacity="0.623529" points="918.91,-389.05 913.33,-382.67 913.71,-391.14 918.91,-389.05"/>
</a>
</g>
</g>
<!-- 14&#45;&gt;26 -->
<g id="edge27" class="edge node0 node14">
<title>14&#45;&gt;26</title>
<g id="a_edge27"><a xlink:title="pugio_lib &#45;&gt; serde">
<path fill="none" stroke="#ffffff" stroke-width="1.6" stroke-opacity="0.623529" d="M1060.74,-582.84C1176.14,-568.62 1522.72,-518.99 1582.38,-429.87 1638.3,-346.32 1539.07,-220.53 1511.3,-188.13"/>
<polygon fill="none" stroke="#ffffff" stroke-width="1.6" stroke-opacity="0.623529" points="1513.48,-186.37 1506.08,-182.23 1509.28,-190.08 1513.48,-186.37"/>
</a>
</g>
</g>
<!-- 28 -->
<g id="node29" class="node node0 node14 node0 node14 node34 node28">
<title>28</title>
<g id="a_node29"><a xlink:title="serde_json v1.0.149&#10;15.12 KiB&#10;default(std),&#10;std">
<ellipse fill="#c6408a" stroke="#ffffff" stroke-width="1.2" cx="1254.38" cy="-179.3" rx="24.46" ry="24.46"/>
<text xml:space="preserve" text-anchor="middle" x="1254.38" y="-173.08" font-family="monospace" font-size="18.00" fill="#ffffff">serde_json</text>
</a>
</g>
</g>
<!-- 14&#45;&gt;28 -->
<g id="edge29" class="edge node0 node14">
<title>14&#45;&gt;28</title>
<g id="a_edge29"><a xlink:title="pugio_lib &#45;&gt; serde_json">
<path fill="none" stroke="#ffffff" stroke-width="1.6" stroke-opacity="0.623529" d="M1012.7,-551.77C997.75,-494.8 977.31,-381.26 1024.38,-303.09 1046.78,-265.89 1164.83,-215.46 1222.55,-192.55"/>
<polygon fill="none" stroke="#ffffff" stroke-width="1.6" stroke-opacity="0.623529" points="1223.26,-195.28 1229.68,-189.74 1221.21,-190.07 1223.26,-195.28"/>
</a>
</g>
</g>
<!-- 32 -->
<g id="node33" class="node node0 node14 node32">
<title>32</title>
<g id="a_node33"><a xlink:title="strum v0.27.2&#10;63 B&#10;default(std),&#10;derive(strum_macros),&#10;std,&#10;strum_macros">
<ellipse fill="#a061fc" stroke="#ffffff" stroke-width="1.2" cx="1391.38" cy="-366.48" rx="0.36" ry="0.36"/>
<text xml:space="preserve" text-anchor="middle" x="1391.38" y="-360.25" font-family="monospace" font-size="18.00" fill="#ffffff">strum</text>
</a>
</g>
</g>
<!-- 14&#45;&gt;32 -->
<g id="edge34" class="edge node0 node14">
<title>14&#45;&gt;32</title>
<g id="a_edge34"><a xlink:title="pugio_lib &#45;&gt; strum">
<path fill="none" stroke="#ffffff" stroke-width="1.6" stroke-opacity="0.623529" d="M1058.86,-575.59C1121.06,-554.09 1251.74,-503.39 1342.38,-429.87 1361.65,-414.23 1378.06,-389.7 1386.1,-376.54"/>
<polygon fill="none" stroke="#ffffff" stroke-width="1.6" stroke-opacity="0.623529" points="1388.48,-378.01 1390.09,-369.69 1383.64,-375.19 1388.48,-378.01"/>
</a>
</g>
</g>
<!-- 33 -->
<g id="node34" class="node node0 node14 node33">
<title>33</title>
<g id="a_node34"><a xlink:title="thiserror v2.0.18&#10;0 B&#10;default(std),&#10;std">
<ellipse fill="#7d78f7" stroke="#ffffff" stroke-width="1.2" cx="1511.38" cy="-366.48" rx="0.36" ry="0.36"/>
<text xml:space="preserve" text-anchor="middle" x="1511.38" y="-360.25" font-family="monospace" font-size="18.00" fill="#ffffff">thiserror</text>
</a>
</g>
</g>
<!-- 14&#45;&gt;33 -->
<g id="edge35" class="edge node0 node14">
<title>14&#45;&gt;33</title>
<g id="a_edge35"><a xlink:title="pugio_lib &#45;&gt; thiserror">
<path fill="none" stroke="#ffffff" stroke-width="1.6" stroke-opacity="0.623529" d="M1060.64,-580.44C1109.27,-571.01 1196.54,-551.81 1267.38,-523.87 1348.78,-491.75 1368.62,-479.95 1440.38,-429.87 1465.4,-412.4 1491.54,-387.38 1503.97,-375"/>
<polygon fill="none" stroke="#ffffff" stroke-width="1.6" stroke-opacity="0.623529" points="1505.95,-376.98 1509.57,-369.32 1501.96,-373.05 1505.95,-376.98"/>
</a>
</g>
</g>
<!-- 34 -->
<g id="node35" class="node node0 node14 node34">
<title>34</title>
<g id="a_node35"><a xlink:title="tinytemplate v1.2.1&#10;35.49 KiB&#10;default">
<ellipse fill="#b02d4f" stroke="#ffffff" stroke-width="1.2" cx="1254.38" cy="-366.48" rx="35.8" ry="35.8"/>
<text xml:space="preserve" text-anchor="middle" x="1254.38" y="-360.25" font-family="monospace" font-size="18.00" fill="#ffffff">tinytemplate</text>
</a>
</g>
</g>
<!-- 14&#45;&gt;34 -->
<g id="edge36" class="edge node0 node14">
<title>14&#45;&gt;34</title>
<g id="a_edge36"><a xlink:title="pugio_lib &#45;&gt; tinytemplate">
<path fill="none" stroke="#ffffff" stroke-width="1.6" stroke-opacity="0.623529" d="M1050.33,-561.53C1092.94,-521 1175.75,-442.25 1221.69,-398.56"/>
<polygon fill="none" stroke="#ffffff" stroke-width="1.6" stroke-opacity="0.623529" points="1223.38,-400.82 1227.25,-393.28 1219.52,-396.76 1223.38,-400.82"/>
</a>
</g>
</g>
<!-- 18 -->
<g id="node19" class="node node0 node14 node17 node18">
<title>18</title>
<g id="a_node19"><a xlink:title="libm v0.2.15&#10;0 B&#10;arch,&#10;default(arch)">
<ellipse fill="#7d78f7" stroke="#ffffff" stroke-width="1.2" cx="1095.38" cy="-179.3" rx="0.36" ry="0.36"/>
<text xml:space="preserve" text-anchor="middle" x="1095.38" y="-173.08" font-family="monospace" font-size="18.00" fill="#ffffff">libm</text>
</a>
</g>
</g>
<!-- 17&#45;&gt;18 -->
<g id="edge19" class="edge node0 node14 node17">
<title>17&#45;&gt;18</title>
<g id="a_edge19"><a xlink:title="humansize &#45;&gt; libm">
<path fill="none" stroke="#ffffff" stroke-width="1.6" stroke-opacity="0.623529" d="M1095.38,-362.57C1095.38,-342.64 1095.38,-226 1095.38,-190.53"/>
<polygon fill="none" stroke="#ffffff" stroke-width="1.6" stroke-opacity="0.623529" points="1098.18,-190.84 1095.38,-182.84 1092.58,-190.84 1098.18,-190.84"/>
</a>
</g>
</g>
<!-- 20 -->
<g id="node21" class="node node0 node14 node19 node20">
<title>20</title>
<g id="a_node21"><a xlink:title="fixedbitset v0.5.7&#10;0 B&#10;">
<ellipse fill="#7d78f7" stroke="#ffffff" stroke-width="1.2" cx="969.38" cy="-179.3" rx="0.36" ry="0.36"/>
<text xml:space="preserve" text-anchor="middle" x="969.38" y="-173.08" font-family="monospace" font-size="18.00" fill="#ffffff">fixedbitset</text>
</a>
</g>
</g>
<!-- 19&#45;&gt;20 -->
<g id="edge21" class="edge node0 node14 node19">
<title>19&#45;&gt;20</title>
<g id="a_edge21"><a xlink:title="petgraph &#45;&gt; fixedbitset">
<path fill="none" stroke="#ffffff" stroke-width="1.6" stroke-opacity="0.623529" d="M911.83,-352.16C923.7,-316.73 955.82,-220.77 966.14,-189.97"/>
<polygon fill="none" stroke="#ffffff" stroke-width="1.6" stroke-opacity="0.623529" points="968.69,-191.17 968.57,-182.7 963.38,-189.39 968.69,-191.17"/>
</a>
</g>
</g>
<!-- 21 -->
<g id="node22" class="node node0 node14 node19 node21">
<title>21</title>
<g id="a_node22"><a xlink:title="indexmap v2.13.0&#10;0 B&#10;std">
<ellipse fill="#b45afe" stroke="#ffffff" stroke-width="1.2" cx="678.38" cy="-179.3" rx="0.36" ry="0.36"/>
<text xml:space="preserve" text-anchor="middle" x="678.38" y="-173.08" font-family="monospace" font-size="18.00" fill="#ffffff">indexmap</text>
</a>
</g>
</g>
<!-- 19&#45;&gt;21 -->
<g id="edge22" class="edge node0 node14 node19">
<title>19&#45;&gt;21</title>
<g id="a_edge22"><a xlink:title="petgraph &#45;&gt; indexmap">
<path fill="none" stroke="#ffffff" stroke-width="1.6" stroke-opacity="0.623529" d="M898.14,-354.39C886.25,-340.7 864.36,-317.49 841.38,-303.09 814.79,-286.44 801.69,-295.17 775.38,-278.09 735.29,-252.08 698.68,-207.09 684.55,-188.61"/>
<polygon fill="none" stroke="#ffffff" stroke-width="1.6" stroke-opacity="0.623529" points="686.87,-187.04 679.85,-182.29 682.38,-190.38 686.87,-187.04"/>
</a>
</g>
<g id="a_edge22&#45;label"><a xlink:title="petgraph &#45;&gt; indexmap">
<text xml:space="preserve" text-anchor="middle" x="808.38" y="-256.64" font-family="monospace" font-size="13.50" fill="#ffffff">std(std)</text>
</a>
</g>
</g>
<!-- 24 -->
<g id="node25" class="node node0 node14 node19 node24">
<title>24</title>
<g id="a_node25"><a xlink:title="hashbrown v0.15.5&#10;497 B&#10;default&#45;hasher,&#10;inline&#45;more">
<ellipse fill="#b45afe" stroke="#ffffff" stroke-width="1.2" cx="815.38" cy="-179.3" rx="1.79" ry="1.79"/>
<text xml:space="preserve" text-anchor="middle" x="815.38" y="-173.08" font-family="monospace" font-size="18.00" fill="#ffffff">hashbrown</text>
</a>
</g>
</g>
<!-- 19&#45;&gt;24 -->
<g id="edge25" class="edge node0 node14 node19">
<title>19&#45;&gt;24</title>
<g id="a_edge25"><a xlink:title="petgraph &#45;&gt; hashbrown">
<path fill="none" stroke="#ffffff" stroke-width="1.6" stroke-opacity="0.623529" d="M901.05,-352.75C883.67,-317.76 835.44,-220.69 820.11,-189.84"/>
<polygon fill="none" stroke="#ffffff" stroke-width="1.6" stroke-opacity="0.623529" points="822.71,-188.77 816.64,-182.85 817.69,-191.26 822.71,-188.77"/>
</a>
</g>
</g>
<!-- 22 -->
<g id="node23" class="node node0 node14 node19 node21 node22">
<title>22</title>
<g id="a_node23"><a xlink:title="equivalent v1.0.2&#10;0 B&#10;">
<ellipse fill="#7d78f7" stroke="#ffffff" stroke-width="1.2" cx="530.38" cy="-27.76" rx="0.36" ry="0.36"/>
<text xml:space="preserve" text-anchor="middle" x="530.38" y="-21.53" font-family="monospace" font-size="18.00" fill="#ffffff">equivalent</text>
</a>
</g>
</g>
<!-- 21&#45;&gt;22 -->
<g id="edge23" class="edge node0 node14 node19 node21">
<title>21&#45;&gt;22</title>
<g id="a_edge23"><a xlink:title="indexmap &#45;&gt; equivalent">
<path fill="none" stroke="#ffffff" stroke-width="1.6" stroke-opacity="0.623529" d="M678.27,-178.2C674.39,-174.28 566.52,-65.28 537.5,-35.96"/>
<polygon fill="none" stroke="#ffffff" stroke-width="1.6" stroke-opacity="0.623529" points="539.8,-34.3 532.18,-30.58 535.82,-38.24 539.8,-34.3"/>
</a>
</g>
</g>
<!-- 23 -->
<g id="node24" class="node node0 node14 node19 node21 node23">
<title>23</title>
<g id="a_node24"><a xlink:title="hashbrown v0.16.1&#10;497 B&#10;">
<ellipse fill="#b45afe" stroke="#ffffff" stroke-width="1.2" cx="678.38" cy="-27.76" rx="1.79" ry="1.79"/>
<text xml:space="preserve" text-anchor="middle" x="678.38" y="-21.53" font-family="monospace" font-size="18.00" fill="#ffffff">hashbrown</text>
</a>
</g>
</g>
<!-- 21&#45;&gt;23 -->
<g id="edge24" class="edge node0 node14 node19 node21">
<title>21&#45;&gt;23</title>
<g id="a_edge24"><a xlink:title="indexmap &#45;&gt; hashbrown">
<path fill="none" stroke="#ffffff" stroke-width="1.6" stroke-opacity="0.623529" d="M678.38,-178.2C678.38,-174.42 678.38,-73.17 678.38,-39.52"/>
<polygon fill="none" stroke="#ffffff" stroke-width="1.6" stroke-opacity="0.623529" points="681.18,-39.83 678.38,-31.83 675.58,-39.83 681.18,-39.83"/>
</a>
</g>
</g>
<!-- 25 -->
<g id="node26" class="node node0 node14 node19 node24 node25">
<title>25</title>
<g id="a_node26"><a xlink:title="foldhash v0.1.5&#10;0 B&#10;">
<ellipse fill="#7d78f7" stroke="#ffffff" stroke-width="1.2" cx="815.38" cy="-27.76" rx="0.36" ry="0.36"/>
<text xml:space="preserve" text-anchor="middle" x="815.38" y="-21.53" font-family="monospace" font-size="18.00" fill="#ffffff">foldhash</text>
</a>
</g>
</g>
<!-- 24&#45;&gt;25 -->
<g id="edge26" class="edge node0 node14 node19 node24">
<title>24&#45;&gt;25</title>
<g id="a_edge26"><a xlink:title="hashbrown &#45;&gt; foldhash">
<path fill="none" stroke="#ffffff" stroke-width="1.6" stroke-opacity="0.623529" d="M815.38,-177.64C815.38,-168.64 815.38,-71 815.38,-38.91"/>
<polygon fill="none" stroke="#ffffff" stroke-width="1.6" stroke-opacity="0.623529" points="818.18,-39.28 815.38,-31.28 812.58,-39.28 818.18,-39.28"/>
</a>
</g>
</g>
<!-- 27 -->
<g id="node28" class="node node0 node0 node14 node0 node14 node34 node26 node0 node14 node0 node14 node34 node28 node0 node36 node0 node36 node38 node0 node36 node39 node27">
<title>27</title>
<g id="a_node28"><a xlink:title="serde_core v1.0.228&#10;19.61 KiB&#10;alloc,&#10;result,&#10;std">
<ellipse fill="#d049a5" stroke="#ffffff" stroke-width="1.2" cx="1646.38" cy="-27.76" rx="27.76" ry="27.76"/>
<text xml:space="preserve" text-anchor="middle" x="1646.38" y="-21.53" font-family="monospace" font-size="18.00" fill="#ffffff">serde_core</text>
</a>
</g>
</g>
<!-- 26&#45;&gt;27 -->
<g id="edge28" class="edge node0 node0 node14 node0 node14 node34 node26">
<title>26&#45;&gt;27</title>
<g id="a_edge28"><a xlink:title="serde &#45;&gt; serde_core">
<path fill="none" stroke="#ffffff" stroke-width="1.6" stroke-opacity="0.623529" d="M1504.4,-178.26C1505.38,-176.44 1537.21,-117.76 1574.38,-80.52 1586.42,-68.45 1601.52,-57.14 1614.77,-48.18"/>
<polygon fill="none" stroke="#ffffff" stroke-width="1.6" stroke-opacity="0.623529" points="1616,-50.73 1621.14,-43.99 1612.92,-46.05 1616,-50.73"/>
</a>
</g>
<g id="a_edge28&#45;label"><a xlink:title="serde &#45;&gt; serde_core">
<text xml:space="preserve" text-anchor="middle" x="1607.38" y="-93.57" font-family="monospace" font-size="13.50" fill="#ffffff">std(std)</text>
</a>
</g>
</g>
<!-- 28&#45;&gt;27 -->
<g id="edge31" class="edge node0 node14 node0 node14 node34 node28">
<title>28&#45;&gt;27</title>
<g id="a_edge31"><a xlink:title="serde_json &#45;&gt; serde_core">
<path fill="none" stroke="#ffffff" stroke-width="1.6" stroke-opacity="0.623529" d="M1275.86,-167.67C1314.8,-148.63 1399.92,-108.14 1474.38,-80.52 1520.41,-63.44 1574.88,-47.79 1610,-38.27"/>
<polygon fill="none" stroke="#ffffff" stroke-width="1.6" stroke-opacity="0.623529" points="1610.47,-41.04 1617.47,-36.26 1609.02,-35.63 1610.47,-41.04"/>
</a>
</g>
<g id="a_edge31&#45;label"><a xlink:title="serde_json &#45;&gt; serde_core">
<text xml:space="preserve" text-anchor="middle" x="1507.38" y="-93.57" font-family="monospace" font-size="13.50" fill="#ffffff">std(std)</text>
</a>
</g>
</g>
<!-- 29 -->
<g id="node30" class="node node0 node14 node0 node14 node34 node28 node29">
<title>29</title>
<g id="a_node30"><a xlink:title="memchr v2.7.6&#10;5.31 KiB&#10;alloc,&#10;std(alloc)">
<ellipse fill="#de5bf1" stroke="#ffffff" stroke-width="1.2" cx="1157.38" cy="-27.76" rx="13.21" ry="13.21"/>
<text xml:space="preserve" text-anchor="middle" x="1157.38" y="-21.53" font-family="monospace" font-size="18.00" fill="#ffffff">memchr</text>
</a>
</g>
</g>
<!-- 28&#45;&gt;29 -->
<g id="edge30" class="edge node0 node14 node0 node14 node34 node28">
<title>28&#45;&gt;29</title>
<g id="a_edge30"><a xlink:title="serde_json &#45;&gt; memchr">
<path fill="none" stroke="#ffffff" stroke-width="1.6" stroke-opacity="0.623529" d="M1234.45,-165.58C1218.18,-154.2 1195.76,-136.09 1182.38,-115.02 1169.91,-95.4 1163.49,-69.38 1160.29,-51.07"/>
<polygon fill="none" stroke="#ffffff" stroke-width="1.6" stroke-opacity="0.623529" points="1163.06,-50.66 1159.07,-43.18 1157.53,-51.52 1163.06,-50.66"/>
</a>
</g>
<g id="a_edge30&#45;label"><a xlink:title="serde_json &#45;&gt; memchr">
<text xml:space="preserve" text-anchor="middle" x="1215.38" y="-93.57" font-family="monospace" font-size="13.50" fill="#ffffff">std(std)</text>
</a>
</g>
</g>
<!-- 30 -->
<g id="node31" class="node node0 node14 node0 node14 node34 node28 node30">
<title>30</title>
<g id="a_node31"><a xlink:title="itoa v1.0.17&#10;577 B&#10;default">
<ellipse fill="#b759ff" stroke="#ffffff" stroke-width="1.2" cx="1254.38" cy="-27.76" rx="2.06" ry="2.06"/>
<text xml:space="preserve" text-anchor="middle" x="1254.38" y="-21.53" font-family="monospace" font-size="18.00" fill="#ffffff">itoa</text>
</a>
</g>
</g>
<!-- 28&#45;&gt;30 -->
<g id="edge32" class="edge node0 node14 node0 node14 node34 node28">
<title>28&#45;&gt;30</title>
<g id="a_edge32"><a xlink:title="serde_json &#45;&gt; itoa">
<path fill="none" stroke="#ffffff" stroke-width="1.6" stroke-opacity="0.623529" d="M1254.38,-154.94C1254.38,-122.28 1254.38,-64.28 1254.38,-39.97"/>
<polygon fill="none" stroke="#ffffff" stroke-width="1.6" stroke-opacity="0.623529" points="1257.18,-40.13 1254.38,-32.13 1251.58,-40.13 1257.18,-40.13"/>
</a>
</g>
</g>
<!-- 31 -->
<g id="node32" class="node node0 node14 node0 node14 node34 node28 node31">
<title>31</title>
<g id="a_node32"><a xlink:title="zmij v1.0.16&#10;1.70 KiB&#10;default">
<ellipse fill="#ca57fe" stroke="#ffffff" stroke-width="1.2" cx="1340.38" cy="-27.76" rx="5.53" ry="5.53"/>
<text xml:space="preserve" text-anchor="middle" x="1340.38" y="-21.53" font-family="monospace" font-size="18.00" fill="#ffffff">zmij</text>
</a>
</g>
</g>
<!-- 28&#45;&gt;31 -->
<g id="edge33" class="edge node0 node14 node0 node14 node34 node28">
<title>28&#45;&gt;31</title>
<g id="a_edge33"><a xlink:title="serde_json &#45;&gt; zmij">
<path fill="none" stroke="#ffffff" stroke-width="1.6" stroke-opacity="0.623529" d="M1265.97,-158.14C1283.95,-126.88 1318.01,-67.65 1332.99,-41.6"/>
<polygon fill="none" stroke="#ffffff" stroke-width="1.6" stroke-opacity="0.623529" points="1335.37,-43.07 1336.93,-34.74 1330.52,-40.28 1335.37,-43.07"/>
</a>
</g>
</g>
<!-- 34&#45;&gt;26 -->
<g id="edge37" class="edge node0 node14 node34">
<title>34&#45;&gt;26</title>
<g id="a_edge37"><a xlink:title="tinytemplate &#45;&gt; serde">
<path fill="none" stroke="#ffffff" stroke-width="1.6" stroke-opacity="0.623529" d="M1282.57,-344.6C1338.88,-302.89 1462.74,-211.14 1496.01,-186.5"/>
<polygon fill="none" stroke="#ffffff" stroke-width="1.6" stroke-opacity="0.623529" points="1497.55,-188.84 1502.32,-181.83 1494.22,-184.34 1497.55,-188.84"/>
</a>
</g>
</g>
<!-- 34&#45;&gt;28 -->
<g id="edge38" class="edge node0 node14 node34">
<title>34&#45;&gt;28</title>
<g id="a_edge38"><a xlink:title="tinytemplate &#45;&gt; serde_json">
<path fill="none" stroke="#ffffff" stroke-width="1.6" stroke-opacity="0.623529" d="M1254.38,-331.08C1254.38,-297.58 1254.38,-246.98 1254.38,-213.79"/>
<polygon fill="none" stroke="#ffffff" stroke-width="1.6" stroke-opacity="0.623529" points="1257.18,-214.09 1254.38,-206.09 1251.58,-214.09 1257.18,-214.09"/>
</a>
</g>
</g>
<!-- 36&#45;&gt;27 -->
<g id="edge43" class="edge node0 node36">
<title>36&#45;&gt;27</title>
<g id="a_edge43"><a xlink:title="toml &#45;&gt; serde_core">
<path fill="none" stroke="#ffffff" stroke-width="1.6" stroke-opacity="0.623529" d="M1948.71,-323.88C1961.72,-260.22 1974.77,-139.79 1905.38,-80.52 1872.43,-52.37 1746.99,-37.58 1683.56,-31.76"/>
<polygon fill="none" stroke="#ffffff" stroke-width="1.6" stroke-opacity="0.623529" points="1684.2,-29 1675.98,-31.08 1683.7,-34.58 1684.2,-29"/>
</a>
</g>
<g id="a_edge43&#45;label"><a xlink:title="toml &#45;&gt; serde_core">
<text xml:space="preserve" text-anchor="middle" x="1991.87" y="-175.1" font-family="monospace" font-size="13.50" fill="#ffffff">std(std)</text>
</a>
</g>
</g>
<!-- 37 -->
<g id="node38" class="node node0 node36 node0 node36 node40 node37">
<title>37</title>
<g id="a_node38"><a xlink:title="winnow v0.7.14&#10;349 B&#10;">
<ellipse fill="#b05afe" stroke="#ffffff" stroke-width="1.2" cx="2102.38" cy="-27.76" rx="1.28" ry="1.28"/>
<text xml:space="preserve" text-anchor="middle" x="2102.38" y="-21.53" font-family="monospace" font-size="18.00" fill="#ffffff">winnow</text>
</a>
</g>
</g>
<!-- 36&#45;&gt;37 -->
<g id="edge42" class="edge node0 node36">
<title>36&#45;&gt;37</title>
<g id="a_edge42"><a xlink:title="toml &#45;&gt; winnow">
<path fill="none" stroke="#ffffff" stroke-width="1.6" stroke-opacity="0.623529" d="M1964.77,-331.38C1986.17,-302.54 2016.04,-259.49 2036.38,-218.59 2068.95,-153.09 2092.44,-67.54 2099.87,-38.72"/>
<polygon fill="none" stroke="#ffffff" stroke-width="1.6" stroke-opacity="0.623529" points="2102.53,-39.63 2101.77,-31.19 2097.1,-38.26 2102.53,-39.63"/>
</a>
</g>
</g>
<!-- 38 -->
<g id="node39" class="node node0 node36 node38">
<title>38</title>
<g id="a_node39"><a xlink:title="serde_spanned v1.0.4&#10;0 B&#10;alloc,&#10;serde,&#10;std">
<ellipse fill="#d95af6" stroke="#ffffff" stroke-width="1.2" cx="1646.38" cy="-179.3" rx="0.36" ry="0.36"/>
<text xml:space="preserve" text-anchor="middle" x="1646.38" y="-173.08" font-family="monospace" font-size="18.00" fill="#ffffff">serde_spanned</text>
</a>
</g>
</g>
<!-- 36&#45;&gt;38 -->
<g id="edge44" class="edge node0 node36">
<title>36&#45;&gt;38</title>
<g id="a_edge44"><a xlink:title="toml &#45;&gt; serde_spanned">
<path fill="none" stroke="#ffffff" stroke-width="1.6" stroke-opacity="0.623529" d="M1895.83,-356.48C1848.18,-344.76 1770.54,-320.58 1716.12,-278.09 1683.93,-252.95 1660.16,-209.03 1650.78,-189.79"/>
<polygon fill="none" stroke="#ffffff" stroke-width="1.6" stroke-opacity="0.623529" points="1653.33,-188.62 1647.42,-182.55 1648.25,-190.98 1653.33,-188.62"/>
</a>
</g>
<g id="a_edge44&#45;label"><a xlink:title="toml &#45;&gt; serde_spanned">
<text xml:space="preserve" text-anchor="middle" x="1769.75" y="-265.27" font-family="monospace" font-size="13.50" fill="#ffffff">serde(serde),</text>
<text xml:space="preserve" text-anchor="middle" x="1769.75" y="-248.02" font-family="monospace" font-size="13.50" fill="#ffffff">std(std)</text>
</a>
</g>
</g>
<!-- 39 -->
<g id="node40" class="node node0 node36 node39">
<title>39</title>
<g id="a_node40"><a xlink:title="toml_datetime v0.7.5+spec&#45;1.1.0&#10;5.71 KiB&#10;alloc,&#10;serde,&#10;std">
<ellipse fill="#e45ddd" stroke="#ffffff" stroke-width="1.2" cx="1833.38" cy="-179.3" rx="13.86" ry="13.86"/>
<text xml:space="preserve" text-anchor="middle" x="1833.38" y="-173.08" font-family="monospace" font-size="18.00" fill="#ffffff">toml_datetime</text>
</a>
</g>
</g>
<!-- 36&#45;&gt;39 -->
<g id="edge46" class="edge node0 node36">
<title>36&#45;&gt;39</title>
<g id="a_edge46"><a xlink:title="toml &#45;&gt; toml_datetime">
<path fill="none" stroke="#ffffff" stroke-width="1.6" stroke-opacity="0.623529" d="M1900.71,-343.66C1878.25,-328.4 1851.57,-305.83 1838.12,-278.09 1826.68,-254.47 1827.31,-223.77 1829.62,-203.12"/>
<polygon fill="none" stroke="#ffffff" stroke-width="1.6" stroke-opacity="0.623529" points="1832.39,-203.5 1830.68,-195.2 1826.84,-202.75 1832.39,-203.5"/>
</a>
</g>
<g id="a_edge46&#45;label"><a xlink:title="toml &#45;&gt; toml_datetime">
<text xml:space="preserve" text-anchor="middle" x="1891.75" y="-265.27" font-family="monospace" font-size="13.50" fill="#ffffff">serde(serde),</text>
<text xml:space="preserve" text-anchor="middle" x="1891.75" y="-248.02" font-family="monospace" font-size="13.50" fill="#ffffff">std(std)</text>
</a>
</g>
</g>
<!-- 40 -->
<g id="node41" class="node node0 node36 node40">
<title>40</title>
<g id="a_node41"><a xlink:title="toml_parser v1.0.6+spec&#45;1.1.0&#10;45.36 KiB&#10;alloc,&#10;std">
<ellipse fill="#b33059" stroke="#ffffff" stroke-width="1.2" cx="2176.38" cy="-179.3" rx="39.29" ry="39.29"/>
<text xml:space="preserve" text-anchor="middle" x="2176.38" y="-173.08" font-family="monospace" font-size="18.00" fill="#ffffff">toml_parser</text>
</a>
</g>
</g>
<!-- 36&#45;&gt;40 -->
<g id="edge48" class="edge node0 node36">
<title>36&#45;&gt;40</title>
<g id="a_edge48"><a xlink:title="toml &#45;&gt; toml_parser">
<path fill="none" stroke="#ffffff" stroke-width="1.6" stroke-opacity="0.623529" d="M1977.47,-346.71C2008.79,-330.72 2053.02,-305.96 2087.38,-278.09 2109.06,-260.51 2130.23,-237.56 2146.48,-218.31"/>
<polygon fill="none" stroke="#ffffff" stroke-width="1.6" stroke-opacity="0.623529" points="2148.62,-220.12 2151.58,-212.18 2144.31,-216.54 2148.62,-220.12"/>
</a>
</g>
<g id="a_edge48&#45;label"><a xlink:title="toml &#45;&gt; toml_parser">
<text xml:space="preserve" text-anchor="middle" x="2154.79" y="-256.64" font-family="monospace" font-size="13.50" fill="#ffffff">std(std)</text>
</a>
</g>
</g>
<!-- 38&#45;&gt;27 -->
<g id="edge45" class="edge node0 node36 node38">
<title>38&#45;&gt;27</title>
<g id="a_edge45"><a xlink:title="serde_spanned &#45;&gt; serde_core">
<path fill="none" stroke="#ffffff" stroke-width="1.6" stroke-opacity="0.623529" d="M1646.38,-178.2C1646.38,-175.16 1646.38,-108.87 1646.38,-65.61"/>
<polygon fill="none" stroke="#ffffff" stroke-width="1.6" stroke-opacity="0.623529" points="1649.18,-65.85 1646.38,-57.85 1643.58,-65.85 1649.18,-65.85"/>
</a>
</g>
<g id="a_edge45&#45;label"><a xlink:title="serde_spanned &#45;&gt; serde_core">
<text xml:space="preserve" text-anchor="middle" x="1700" y="-102.19" font-family="monospace" font-size="13.50" fill="#ffffff">alloc(alloc),</text>
<text xml:space="preserve" text-anchor="middle" x="1700" y="-84.94" font-family="monospace" font-size="13.50" fill="#ffffff">std(std)</text>
</a>
</g>
</g>
<!-- 39&#45;&gt;27 -->
<g id="edge47" class="edge node0 node36 node39">
<title>39&#45;&gt;27</title>
<g id="a_edge47"><a xlink:title="toml_datetime &#45;&gt; serde_core">
<path fill="none" stroke="#ffffff" stroke-width="1.6" stroke-opacity="0.623529" d="M1827.27,-166.89C1816.14,-147 1790.76,-105.7 1759.38,-80.52 1736.4,-62.08 1705.8,-48.59 1682.24,-40.01"/>
<polygon fill="none" stroke="#ffffff" stroke-width="1.6" stroke-opacity="0.623529" points="1683.37,-37.44 1674.9,-37.44 1681.52,-42.73 1683.37,-37.44"/>
</a>
</g>
<g id="a_edge47&#45;label"><a xlink:title="toml_datetime &#45;&gt; serde_core">
<text xml:space="preserve" text-anchor="middle" x="1845.67" y="-102.19" font-family="monospace" font-size="13.50" fill="#ffffff">alloc(alloc),</text>
<text xml:space="preserve" text-anchor="middle" x="1845.67" y="-84.94" font-family="monospace" font-size="13.50" fill="#ffffff">std(std)</text>
</a>
</g>
</g>
<!-- 40&#45;&gt;37 -->
<g id="edge49" class="edge node0 node36 node40">
<title>40&#45;&gt;37</title>
<g id="a_edge49"><a xlink:title="toml_parser &#45;&gt; winnow">
<path fill="none" stroke="#ffffff" stroke-width="1.6" stroke-opacity="0.623529" d="M2159.4,-144C2142.37,-109.58 2117.24,-58.79 2106.98,-38.07"/>
<polygon fill="none" stroke="#ffffff" stroke-width="1.6" stroke-opacity="0.623529" points="2109.61,-37.06 2103.55,-31.13 2104.59,-39.55 2109.61,-37.06"/>
</a>
</g>
</g>
</g>
</svg>
