<?xml version="1.0" encoding="UTF-8" standalone="no"?>
<!DOCTYPE svg PUBLIC "-//W3C//DTD SVG 1.1//EN"
 "http://www.w3.org/Graphics/SVG/1.1/DTD/svg11.dtd">
<!-- Generated by graphviz version 13.1.2 (20250808.2320)
 -->
<!-- Pages: 1 -->
<svg width="2343pt" height="713pt"
 viewBox="0.00 0.00 2343.00 713.00" xmlns="http://www.w3.org/2000/svg" xmlns:xlink="http://www.w3.org/1999/xlink">
<g id="graph0" class="graph" transform="scale(1 1) rotate(0) translate(72 641.1)">
<polygon fill="white" stroke="none" points="-72,72 -72,-641.1 2270.5,-641.1 2270.5,72 -72,72"/>
<!-- 0 -->
<g id="node1" class="node">
<title>0</title>
<g id="a_node1"><a xlink:title="pugio v0.1.3 (/home/my4ng/Programming/pugio)&#10;113.14 KiB">
<ellipse fill="#08306b" stroke="#000000" stroke-width="1.44" stroke-opacity="0.623529" cx="1003.25" cy="-516.3" rx="52.8" ry="52.8"/>
<text xml:space="preserve" text-anchor="middle" x="1003.25" y="-509.28" font-family="monospace" font-size="21.60">pugio</text>
</a>
</g>
</g>
<!-- 1 -->
<g id="node2" class="node">
<title>1</title>
<g id="a_node2"><a xlink:title="anyhow v1.0.100&#10;9.63 KiB">
<ellipse fill="#a6cde4" stroke="#000000" stroke-width="1.44" stroke-opacity="0.623529" cx="224.25" cy="-380.11" rx="19.17" ry="19.17"/>
<text xml:space="preserve" text-anchor="middle" x="224.25" y="-373.09" font-family="monospace" font-size="21.60">anyhow</text>
</a>
</g>
</g>
<!-- 0&#45;&gt;1 -->
<g id="edge1" class="edge">
<title>0&#45;&gt;1</title>
<g id="a_edge1"><a xlink:title="pugio &#45;&gt; anyhow">
<path fill="none" stroke="#000000" stroke-width="1.92" stroke-opacity="0.623529" d="M950.71,-511.96C806.21,-502.24 405.49,-471.6 283.25,-423.5 271.04,-418.69 259,-410.79 249.02,-403.1"/>
<polygon fill="none" stroke="#000000" stroke-width="1.92" stroke-opacity="0.623529" points="251.8,-399.95 239.86,-395.58 246.47,-406.44 251.8,-399.95"/>
</a>
</g>
</g>
<!-- 3 -->
<g id="node3" class="node">
<title>3</title>
<g id="a_node3"><a xlink:title="clap v4.5.53&#10;0 B">
<ellipse fill="#1d6bb0" stroke="#000000" stroke-width="1.44" stroke-opacity="0.623529" cx="328.25" cy="-380.11" rx="0.36" ry="0.36"/>
<text xml:space="preserve" text-anchor="middle" x="328.25" y="-373.09" font-family="monospace" font-size="21.60">clap</text>
</a>
</g>
</g>
<!-- 0&#45;&gt;3 -->
<g id="edge2" class="edge">
<title>0&#45;&gt;3</title>
<g id="a_edge2"><a xlink:title="pugio &#45;&gt; clap">
<path fill="none" stroke="#000000" stroke-width="1.92" stroke-opacity="0.623529" d="M950.83,-511.72C818.72,-502.08 475.38,-472.85 373.25,-423.5 358.46,-416.35 345.27,-402.6 337.05,-392.7"/>
<polygon fill="none" stroke="#000000" stroke-width="1.92" stroke-opacity="0.623529" points="340.68,-390.52 330.07,-383.52 333.99,-395.61 340.68,-390.52"/>
</a>
</g>
</g>
<!-- 7 -->
<g id="node7" class="node">
<title>7</title>
<g id="a_node7"><a xlink:title="colorgrad v0.8.0&#10;12.57 KiB">
<ellipse fill="#6fafd6" stroke="#000000" stroke-width="1.44" stroke-opacity="0.623529" cx="452.25" cy="-380.11" rx="22.22" ry="22.22"/>
<text xml:space="preserve" text-anchor="middle" x="452.25" y="-373.09" font-family="monospace" font-size="21.60">colorgrad</text>
</a>
</g>
</g>
<!-- 0&#45;&gt;7 -->
<g id="edge6" class="edge">
<title>0&#45;&gt;7</title>
<g id="a_edge6"><a xlink:title="pugio &#45;&gt; colorgrad">
<path fill="none" stroke="#000000" stroke-width="1.92" stroke-opacity="0.623529" d="M951.13,-508.07C866.44,-495.56 694.2,-466.99 553.25,-423.5 529.82,-416.27 504.38,-405.57 484.89,-396.73"/>
<polygon fill="none" stroke="#000000" stroke-width="1.92" stroke-opacity="0.623529" points="486.86,-393.02 474.2,-391.79 483.33,-400.64 486.86,-393.02"/>
</a>
</g>
</g>
<!-- 11 -->
<g id="node11" class="node">
<title>11</title>
<g id="a_node11"><a xlink:title="humansize v2.1.3&#10;1.23 KiB">
<ellipse fill="#bdd8ec" stroke="#000000" stroke-width="1.44" stroke-opacity="0.623529" cx="569.25" cy="-102.27" rx="4.18" ry="4.18"/>
<text xml:space="preserve" text-anchor="middle" x="569.25" y="-95.25" font-family="monospace" font-size="21.60">humansize</text>
</a>
</g>
</g>
<!-- 0&#45;&gt;11 -->
<g id="edge11" class="edge">
<title>0&#45;&gt;11</title>
<g id="a_edge11"><a xlink:title="pugio &#45;&gt; humansize">
<path fill="none" stroke="#000000" stroke-width="1.92" stroke-opacity="0.623529" d="M950.86,-511.31C850.44,-502.48 636.69,-477.66 590.25,-423.5 551.07,-377.8 563.07,-181.08 567.77,-120.86"/>
<polygon fill="none" stroke="#000000" stroke-width="1.92" stroke-opacity="0.623529" points="571.93,-121.47 568.74,-109.17 563.56,-120.78 571.93,-121.47"/>
</a>
</g>
</g>
<!-- 12 -->
<g id="node12" class="node">
<title>12</title>
<g id="a_node12"><a xlink:title="open v5.3.3&#10;332 B">
<ellipse fill="#bbd7eb" stroke="#000000" stroke-width="1.44" stroke-opacity="0.623529" cx="635.25" cy="-380.11" rx="1.22" ry="1.22"/>
<text xml:space="preserve" text-anchor="middle" x="635.25" y="-373.09" font-family="monospace" font-size="21.60">open</text>
</a>
</g>
</g>
<!-- 0&#45;&gt;12 -->
<g id="edge13" class="edge">
<title>0&#45;&gt;12</title>
<g id="a_edge13"><a xlink:title="pugio &#45;&gt; open">
<path fill="none" stroke="#000000" stroke-width="1.92" stroke-opacity="0.623529" d="M951.31,-508.12C885.18,-497.32 768.96,-472.69 681.25,-423.5 666.94,-415.47 653.49,-402.15 644.88,-392.58"/>
<polygon fill="none" stroke="#000000" stroke-width="1.92" stroke-opacity="0.623529" points="648.12,-389.91 637.18,-383.42 641.68,-395.31 648.12,-389.91"/>
</a>
</g>
</g>
<!-- 18 -->
<g id="node16" class="node">
<title>18</title>
<g id="a_node16"><a xlink:title="parse_size v1.1.0&#10;1.17 KiB">
<ellipse fill="#cee1f2" stroke="#000000" stroke-width="1.44" stroke-opacity="0.623529" cx="766.25" cy="-380.11" rx="4.01" ry="4.01"/>
<text xml:space="preserve" text-anchor="middle" x="766.25" y="-373.09" font-family="monospace" font-size="21.60">parse_size</text>
</a>
</g>
</g>
<!-- 0&#45;&gt;18 -->
<g id="edge18" class="edge">
<title>0&#45;&gt;18</title>
<g id="a_edge18"><a xlink:title="pugio &#45;&gt; parse_size">
<path fill="none" stroke="#000000" stroke-width="1.92" stroke-opacity="0.623529" d="M957.83,-489.59C903.78,-458.98 816.43,-409.53 781.45,-389.72"/>
<polygon fill="none" stroke="#000000" stroke-width="1.92" stroke-opacity="0.623529" points="783.9,-386.28 771.39,-384.02 779.76,-393.59 783.9,-386.28"/>
</a>
</g>
</g>
<!-- 19 -->
<g id="node17" class="node">
<title>19</title>
<g id="a_node17"><a xlink:title="petgraph v0.8.3&#10;5.95 KiB">
<ellipse fill="#9bc8e1" stroke="#000000" stroke-width="1.44" stroke-opacity="0.623529" cx="924.25" cy="-380.11" rx="14.24" ry="14.24"/>
<text xml:space="preserve" text-anchor="middle" x="924.25" y="-373.09" font-family="monospace" font-size="21.60">petgraph</text>
</a>
</g>
</g>
<!-- 0&#45;&gt;19 -->
<g id="edge19" class="edge">
<title>0&#45;&gt;19</title>
<g id="a_edge19"><a xlink:title="pugio &#45;&gt; petgraph">
<path fill="none" stroke="#000000" stroke-width="1.92" stroke-opacity="0.623529" d="M976.94,-470.62C964.12,-448.84 949.21,-423.5 938.52,-405.36"/>
<polygon fill="none" stroke="#000000" stroke-width="1.92" stroke-opacity="0.623529" points="942.17,-403.27 932.46,-395.06 934.93,-407.53 942.17,-403.27"/>
</a>
</g>
</g>
<!-- 26 -->
<g id="node22" class="node">
<title>26</title>
<g id="a_node22"><a xlink:title="regex_lite v0.1.8&#10;46.25 KiB">
<ellipse fill="#67aad3" stroke="#000000" stroke-width="1.44" stroke-opacity="0.623529" cx="1082.25" cy="-380.11" rx="39.57" ry="39.57"/>
<text xml:space="preserve" text-anchor="middle" x="1082.25" y="-373.09" font-family="monospace" font-size="21.60">regex_lite</text>
</a>
</g>
</g>
<!-- 0&#45;&gt;26 -->
<g id="edge24" class="edge">
<title>0&#45;&gt;26</title>
<g id="a_edge24"><a xlink:title="pugio &#45;&gt; regex_lite">
<path fill="none" stroke="#000000" stroke-width="1.92" stroke-opacity="0.623529" d="M1029.56,-470.62C1037.87,-456.49 1047.07,-440.87 1055.42,-426.68"/>
<polygon fill="none" stroke="#000000" stroke-width="1.92" stroke-opacity="0.623529" points="1058.86,-429.12 1061.33,-416.65 1051.62,-424.86 1058.86,-429.12"/>
</a>
</g>
</g>
<!-- 27 -->
<g id="node23" class="node">
<title>27</title>
<g id="a_node23"><a xlink:title="serde v1.0.228&#10;318 B">
<ellipse fill="#bed8ec" stroke="#000000" stroke-width="1.44" stroke-opacity="0.623529" cx="1422.25" cy="-233.14" rx="1.17" ry="1.17"/>
<text xml:space="preserve" text-anchor="middle" x="1422.25" y="-226.12" font-family="monospace" font-size="21.60">serde</text>
</a>
</g>
</g>
<!-- 0&#45;&gt;27 -->
<g id="edge25" class="edge">
<title>0&#45;&gt;27</title>
<g id="a_edge25"><a xlink:title="pugio &#45;&gt; serde">
<path fill="none" stroke="#000000" stroke-width="1.92" stroke-opacity="0.623529" d="M1055.74,-511.01C1154.64,-501.76 1362.74,-476.36 1408.25,-423.5 1451.97,-372.72 1435.09,-283.19 1426.28,-248.46"/>
<polygon fill="none" stroke="#000000" stroke-width="1.92" stroke-opacity="0.623529" points="1430.35,-247.44 1423.07,-237.02 1422.27,-249.71 1430.35,-247.44"/>
</a>
</g>
</g>
<!-- 29 -->
<g id="node25" class="node">
<title>29</title>
<g id="a_node25"><a xlink:title="serde_json v1.0.145&#10;15.99 KiB">
<ellipse fill="#7fb9da" stroke="#000000" stroke-width="1.44" stroke-opacity="0.623529" cx="1285.25" cy="-233.14" rx="25.16" ry="25.16"/>
<text xml:space="preserve" text-anchor="middle" x="1285.25" y="-226.12" font-family="monospace" font-size="21.60">serde_json</text>
</a>
</g>
</g>
<!-- 0&#45;&gt;29 -->
<g id="edge27" class="edge">
<title>0&#45;&gt;29</title>
<g id="a_edge27"><a xlink:title="pugio &#45;&gt; serde_json">
<path fill="none" stroke="#000000" stroke-width="1.92" stroke-opacity="0.623529" d="M1052.5,-497.35C1088.35,-482.23 1136.06,-457.58 1168.25,-423.5 1197.67,-392.35 1188.18,-373.46 1210.25,-336.73 1225.52,-311.32 1245.41,-284.33 1260.88,-264.41"/>
<polygon fill="none" stroke="#000000" stroke-width="1.92" stroke-opacity="0.623529" points="1264.16,-267.02 1268.28,-255 1257.56,-261.83 1264.16,-267.02"/>
</a>
</g>
</g>
<!-- 33 -->
<g id="node28" class="node">
<title>33</title>
<g id="a_node28"><a xlink:title="serde_with v3.16.0&#10;0 B">
<ellipse fill="#c0d9ed" stroke="#000000" stroke-width="1.44" stroke-opacity="0.623529" cx="1536.25" cy="-380.11" rx="0.36" ry="0.36"/>
<text xml:space="preserve" text-anchor="middle" x="1536.25" y="-373.09" font-family="monospace" font-size="21.60">serde_with</text>
</a>
</g>
</g>
<!-- 0&#45;&gt;33 -->
<g id="edge31" class="edge">
<title>0&#45;&gt;33</title>
<g id="a_edge31"><a xlink:title="pugio &#45;&gt; serde_with">
<path fill="none" stroke="#000000" stroke-width="1.92" stroke-opacity="0.623529" d="M1055.31,-508.47C1139.01,-496.62 1308.01,-469.03 1445.25,-423.5 1474.09,-413.93 1505.87,-397.73 1523.19,-388.38"/>
<polygon fill="none" stroke="#000000" stroke-width="1.92" stroke-opacity="0.623529" points="1525.12,-392.11 1533.57,-382.61 1521.04,-384.77 1525.12,-392.11"/>
</a>
</g>
</g>
<!-- 34 -->
<g id="node29" class="node">
<title>34</title>
<g id="a_node29"><a xlink:title="strum v0.27.2&#10;63 B">
<ellipse fill="#e3eef9" stroke="#000000" stroke-width="1.44" stroke-opacity="0.623529" cx="1854.25" cy="-380.11" rx="0.36" ry="0.36"/>
<text xml:space="preserve" text-anchor="middle" x="1854.25" y="-373.09" font-family="monospace" font-size="21.60">strum</text>
</a>
</g>
</g>
<!-- 0&#45;&gt;34 -->
<g id="edge33" class="edge">
<title>0&#45;&gt;34</title>
<g id="a_edge33"><a xlink:title="pugio &#45;&gt; strum">
<path fill="none" stroke="#000000" stroke-width="1.92" stroke-opacity="0.623529" d="M1055.78,-513.11C1211.2,-506.02 1666.44,-480.78 1802.25,-423.5 1819.09,-416.4 1834.83,-402.07 1844.48,-392.05"/>
<polygon fill="none" stroke="#000000" stroke-width="1.92" stroke-opacity="0.623529" points="1847.38,-395.12 1852.24,-383.37 1841.11,-389.52 1847.38,-395.12"/>
</a>
</g>
</g>
<!-- 35 -->
<g id="node30" class="node">
<title>35</title>
<g id="a_node30"><a xlink:title="tinytemplate v1.2.1&#10;35.75 KiB">
<ellipse fill="#62a8d2" stroke="#000000" stroke-width="1.44" stroke-opacity="0.623529" cx="1309.25" cy="-380.11" rx="35.9" ry="35.9"/>
<text xml:space="preserve" text-anchor="middle" x="1309.25" y="-373.09" font-family="monospace" font-size="21.60">tinytemplate</text>
</a>
</g>
</g>
<!-- 0&#45;&gt;35 -->
<g id="edge34" class="edge">
<title>0&#45;&gt;35</title>
<g id="a_edge34"><a xlink:title="pugio &#45;&gt; tinytemplate">
<path fill="none" stroke="#000000" stroke-width="1.92" stroke-opacity="0.623529" d="M1051.06,-494.33C1109.02,-468.92 1206,-426.39 1263.16,-401.32"/>
<polygon fill="none" stroke="#000000" stroke-width="1.92" stroke-opacity="0.623529" points="1264.83,-405.18 1274.13,-396.51 1261.45,-397.49 1264.83,-405.18"/>
</a>
</g>
</g>
<!-- 36 -->
<g id="node31" class="node">
<title>36</title>
<g id="a_node31"><a xlink:title="toml v0.9.8&#10;60.15 KiB">
<ellipse fill="#3b8ac2" stroke="#000000" stroke-width="1.44" stroke-opacity="0.623529" cx="1749.25" cy="-380.11" rx="43.39" ry="43.39"/>
<text xml:space="preserve" text-anchor="middle" x="1749.25" y="-373.09" font-family="monospace" font-size="21.60">toml</text>
</a>
</g>
</g>
<!-- 0&#45;&gt;36 -->
<g id="edge37" class="edge">
<title>0&#45;&gt;36</title>
<g id="a_edge37"><a xlink:title="pugio &#45;&gt; toml">
<path fill="none" stroke="#000000" stroke-width="1.92" stroke-opacity="0.623529" d="M1055.6,-510.65C1162.97,-500.45 1415.42,-472.95 1622.25,-423.5 1646.54,-417.69 1672.82,-409.29 1695.13,-401.5"/>
<polygon fill="none" stroke="#000000" stroke-width="1.92" stroke-opacity="0.623529" points="1696.53,-405.46 1706.43,-397.47 1693.71,-397.55 1696.53,-405.46"/>
</a>
</g>
</g>
<!-- 4 -->
<g id="node4" class="node">
<title>4</title>
<g id="a_node4"><a xlink:title="clap_builder v4.5.53&#10;229.66 KiB">
<ellipse fill="#1d6bb0" stroke="#000000" stroke-width="1.44" stroke-opacity="0.623529" cx="178.25" cy="-233.14" rx="63.59" ry="63.59"/>
<text xml:space="preserve" text-anchor="middle" x="178.25" y="-226.12" font-family="monospace" font-size="21.60">clap_builder</text>
</a>
</g>
</g>
<!-- 3&#45;&gt;4 -->
<g id="edge3" class="edge">
<title>3&#45;&gt;4</title>
<g id="a_edge3"><a xlink:title="clap &#45;&gt; clap_builder">
<path fill="none" stroke="#000000" stroke-width="1.92" stroke-opacity="0.623529" d="M328.14,-379.01C325.51,-376.46 275.45,-328.08 233.89,-287.92"/>
<polygon fill="none" stroke="#000000" stroke-width="1.92" stroke-opacity="0.623529" points="236.91,-284.99 225.36,-279.67 231.07,-291.03 236.91,-284.99"/>
</a>
</g>
</g>
<!-- 5 -->
<g id="node5" class="node">
<title>5</title>
<g id="a_node5"><a xlink:title="anstyle v1.0.13&#10;2.06 KiB">
<ellipse fill="#c7ddef" stroke="#000000" stroke-width="1.44" stroke-opacity="0.623529" cx="55.25" cy="-102.27" rx="6.5" ry="6.5"/>
<text xml:space="preserve" text-anchor="middle" x="55.25" y="-95.25" font-family="monospace" font-size="21.60">anstyle</text>
</a>
</g>
</g>
<!-- 4&#45;&gt;5 -->
<g id="edge4" class="edge">
<title>4&#45;&gt;5</title>
<g id="a_edge4"><a xlink:title="clap_builder &#45;&gt; anstyle">
<path fill="none" stroke="#000000" stroke-width="1.92" stroke-opacity="0.623529" d="M134.88,-186.7C111.74,-162.46 84.84,-134.27 68.98,-117.65"/>
<polygon fill="none" stroke="#000000" stroke-width="1.92" stroke-opacity="0.623529" points="72.23,-114.98 60.91,-109.2 66.15,-120.78 72.23,-114.98"/>
</a>
</g>
</g>
<!-- 6 -->
<g id="node6" class="node">
<title>6</title>
<g id="a_node6"><a xlink:title="clap_lex v0.7.6&#10;1.08 KiB">
<ellipse fill="#cfe1f2" stroke="#000000" stroke-width="1.44" stroke-opacity="0.623529" cx="192.25" cy="-102.27" rx="3.72" ry="3.72"/>
<text xml:space="preserve" text-anchor="middle" x="192.25" y="-95.25" font-family="monospace" font-size="21.60">clap_lex</text>
</a>
</g>
</g>
<!-- 4&#45;&gt;6 -->
<g id="edge5" class="edge">
<title>4&#45;&gt;6</title>
<g id="a_edge5"><a xlink:title="clap_builder &#45;&gt; clap_lex">
<path fill="none" stroke="#000000" stroke-width="1.92" stroke-opacity="0.623529" d="M185,-169.97C186.99,-151.72 188.99,-133.23 190.39,-120.36"/>
<polygon fill="none" stroke="#000000" stroke-width="1.92" stroke-opacity="0.623529" points="194.56,-120.88 191.68,-108.5 186.21,-119.98 194.56,-120.88"/>
</a>
</g>
</g>
<!-- 8 -->
<g id="node8" class="node">
<title>8</title>
<g id="a_node8"><a xlink:title="csscolorparser v0.8.0&#10;21.41 KiB">
<ellipse fill="#85bcdc" stroke="#000000" stroke-width="1.44" stroke-opacity="0.623529" cx="434.25" cy="-233.14" rx="28.91" ry="28.91"/>
<text xml:space="preserve" text-anchor="middle" x="434.25" y="-226.12" font-family="monospace" font-size="21.60">csscolorparser</text>
</a>
</g>
</g>
<!-- 7&#45;&gt;8 -->
<g id="edge7" class="edge">
<title>7&#45;&gt;8</title>
<g id="a_edge7"><a xlink:title="colorgrad &#45;&gt; csscolorparser">
<path fill="none" stroke="#000000" stroke-width="1.92" stroke-opacity="0.623529" d="M449.67,-358.34C447.03,-337.04 442.84,-303.3 439.49,-276.35"/>
<polygon fill="none" stroke="#000000" stroke-width="1.92" stroke-opacity="0.623529" points="443.69,-276.09 438.04,-264.7 435.36,-277.13 443.69,-276.09"/>
</a>
</g>
</g>
<!-- 10 -->
<g id="node10" class="node">
<title>10</title>
<g id="a_node10"><a xlink:title="libm v0.2.15&#10;7.04 KiB">
<ellipse fill="#aed1e7" stroke="#000000" stroke-width="1.44" stroke-opacity="0.623529" cx="405.25" cy="-17.5" rx="15.88" ry="15.88"/>
<text xml:space="preserve" text-anchor="middle" x="405.25" y="-10.48" font-family="monospace" font-size="21.60">libm</text>
</a>
</g>
</g>
<!-- 7&#45;&gt;10 -->
<g id="edge10" class="edge">
<title>7&#45;&gt;10</title>
<g id="a_edge10"><a xlink:title="colorgrad &#45;&gt; libm">
<path fill="none" stroke="#000000" stroke-width="1.92" stroke-opacity="0.623529" d="M433.51,-368.66C398.83,-349.12 327.59,-308.04 321.25,-296.73 273.08,-210.75 272.46,-161.73 319.25,-75 331.41,-52.46 356.91,-37.45 377.01,-28.6"/>
<polygon fill="none" stroke="#000000" stroke-width="1.92" stroke-opacity="0.623529" points="378.43,-32.56 388.01,-24.2 375.31,-24.76 378.43,-32.56"/>
</a>
</g>
</g>
<!-- 9 -->
<g id="node9" class="node">
<title>9</title>
<g id="a_node9"><a xlink:title="num_traits v0.2.19&#10;0 B">
<ellipse fill="#c5dcee" stroke="#000000" stroke-width="1.44" stroke-opacity="0.623529" cx="405.25" cy="-102.27" rx="0.36" ry="0.36"/>
<text xml:space="preserve" text-anchor="middle" x="405.25" y="-95.25" font-family="monospace" font-size="21.60">num_traits</text>
</a>
</g>
</g>
<!-- 8&#45;&gt;9 -->
<g id="edge8" class="edge">
<title>8&#45;&gt;9</title>
<g id="a_edge8"><a xlink:title="csscolorparser &#45;&gt; num_traits">
<path fill="none" stroke="#000000" stroke-width="1.92" stroke-opacity="0.623529" d="M428.17,-205.12C422.19,-178.53 413.27,-138.93 408.52,-117.8"/>
<polygon fill="none" stroke="#000000" stroke-width="1.92" stroke-opacity="0.623529" points="412.63,-116.94 405.9,-106.15 404.44,-118.78 412.63,-116.94"/>
</a>
</g>
</g>
<!-- 9&#45;&gt;10 -->
<g id="edge9" class="edge">
<title>9&#45;&gt;10</title>
<g id="a_edge9"><a xlink:title="num_traits &#45;&gt; libm">
<path fill="none" stroke="#000000" stroke-width="1.92" stroke-opacity="0.623529" d="M405.25,-101.21C405.25,-99.73 405.25,-71.17 405.25,-48.03"/>
<polygon fill="none" stroke="#000000" stroke-width="1.92" stroke-opacity="0.623529" points="409.45,-48.17 405.25,-36.17 401.05,-48.17 409.45,-48.17"/>
</a>
</g>
</g>
<!-- 11&#45;&gt;10 -->
<g id="edge12" class="edge">
<title>11&#45;&gt;10</title>
<g id="a_edge12"><a xlink:title="humansize &#45;&gt; libm">
<path fill="none" stroke="#000000" stroke-width="1.92" stroke-opacity="0.623529" d="M566.12,-99.69C549.8,-91.45 473.59,-52.99 432.19,-32.09"/>
<polygon fill="none" stroke="#000000" stroke-width="1.92" stroke-opacity="0.623529" points="434.12,-28.36 421.51,-26.71 430.33,-35.86 434.12,-28.36"/>
</a>
</g>
</g>
<!-- 13 -->
<g id="node13" class="node">
<title>13</title>
<g id="a_node13"><a xlink:title="is_wsl v0.4.0&#10;0 B">
<ellipse fill="#bdd8ec" stroke="#000000" stroke-width="1.44" stroke-opacity="0.623529" cx="655.25" cy="-233.14" rx="0.36" ry="0.36"/>
<text xml:space="preserve" text-anchor="middle" x="655.25" y="-226.12" font-family="monospace" font-size="21.60">is_wsl</text>
</a>
</g>
</g>
<!-- 12&#45;&gt;13 -->
<g id="edge14" class="edge">
<title>12&#45;&gt;13</title>
<g id="a_edge14"><a xlink:title="open &#45;&gt; is_wsl">
<path fill="none" stroke="#000000" stroke-width="1.92" stroke-opacity="0.623529" d="M635.26,-379.01C635.75,-375.5 648.24,-284.93 653.23,-248.81"/>
<polygon fill="none" stroke="#000000" stroke-width="1.92" stroke-opacity="0.623529" points="657.36,-249.58 654.84,-237.12 649.04,-248.43 657.36,-249.58"/>
</a>
</g>
</g>
<!-- 14 -->
<g id="node14" class="node">
<title>14</title>
<g id="a_node14"><a xlink:title="is_docker v0.2.0&#10;0 B">
<ellipse fill="#c8ddf0" stroke="#000000" stroke-width="1.44" stroke-opacity="0.623529" cx="769.25" cy="-102.27" rx="0.36" ry="0.36"/>
<text xml:space="preserve" text-anchor="middle" x="769.25" y="-95.25" font-family="monospace" font-size="21.60">is_docker</text>
</a>
</g>
</g>
<!-- 13&#45;&gt;14 -->
<g id="edge15" class="edge">
<title>13&#45;&gt;14</title>
<g id="a_edge15"><a xlink:title="is_wsl &#45;&gt; is_docker">
<path fill="none" stroke="#000000" stroke-width="1.92" stroke-opacity="0.623529" d="M655.33,-232.04C658.15,-228.86 732.07,-145.29 759.3,-114.51"/>
<polygon fill="none" stroke="#000000" stroke-width="1.92" stroke-opacity="0.623529" points="762.44,-117.31 767.24,-105.54 756.15,-111.74 762.44,-117.31"/>
</a>
</g>
</g>
<!-- 15 -->
<g id="node15" class="node">
<title>15</title>
<g id="a_node15"><a xlink:title="once_cell v1.21.3&#10;3.68 KiB">
<ellipse fill="#bdd8ec" stroke="#000000" stroke-width="1.44" stroke-opacity="0.623529" cx="719.25" cy="-17.5" rx="10.21" ry="10.21"/>
<text xml:space="preserve" text-anchor="middle" x="719.25" y="-10.48" font-family="monospace" font-size="21.60">once_cell</text>
</a>
</g>
</g>
<!-- 13&#45;&gt;15 -->
<g id="edge17" class="edge">
<title>13&#45;&gt;15</title>
<g id="a_edge17"><a xlink:title="is_wsl &#45;&gt; once_cell">
<path fill="none" stroke="#000000" stroke-width="1.92" stroke-opacity="0.623529" d="M655.26,-232.07C655.59,-229.33 666.32,-141.24 690.25,-75 694.73,-62.6 701.36,-49.45 707.14,-38.96"/>
<polygon fill="none" stroke="#000000" stroke-width="1.92" stroke-opacity="0.623529" points="710.66,-41.27 713.01,-28.78 703.38,-37.08 710.66,-41.27"/>
</a>
</g>
</g>
<!-- 14&#45;&gt;15 -->
<g id="edge16" class="edge">
<title>14&#45;&gt;15</title>
<g id="a_edge16"><a xlink:title="is_docker &#45;&gt; once_cell">
<path fill="none" stroke="#000000" stroke-width="1.92" stroke-opacity="0.623529" d="M769.21,-101.21C768.2,-99.52 745.93,-62.67 731.47,-38.73"/>
<polygon fill="none" stroke="#000000" stroke-width="1.92" stroke-opacity="0.623529" points="735.21,-36.79 725.41,-28.7 728.02,-41.14 735.21,-36.79"/>
</a>
</g>
</g>
<!-- 20 -->
<g id="node18" class="node">
<title>20</title>
<g id="a_node18"><a xlink:title="fixedbitset v0.5.7&#10;147 B">
<ellipse fill="#dfebf7" stroke="#000000" stroke-width="1.44" stroke-opacity="0.623529" cx="950.25" cy="-233.14" rx="0.55" ry="0.55"/>
<text xml:space="preserve" text-anchor="middle" x="950.25" y="-226.12" font-family="monospace" font-size="21.60">fixedbitset</text>
</a>
</g>
</g>
<!-- 19&#45;&gt;20 -->
<g id="edge20" class="edge">
<title>19&#45;&gt;20</title>
<g id="a_edge20"><a xlink:title="petgraph &#45;&gt; fixedbitset">
<path fill="none" stroke="#000000" stroke-width="1.92" stroke-opacity="0.623529" d="M926.56,-366.25C931.4,-339.23 942.6,-276.77 947.67,-248.5"/>
<polygon fill="none" stroke="#000000" stroke-width="1.92" stroke-opacity="0.623529" points="951.74,-249.62 949.72,-237.07 943.47,-248.14 951.74,-249.62"/>
</a>
</g>
</g>
<!-- 21 -->
<g id="node19" class="node">
<title>21</title>
<g id="a_node19"><a xlink:title="hashbrown v0.15.5&#10;3.57 KiB">
<ellipse fill="#bdd8ec" stroke="#000000" stroke-width="1.44" stroke-opacity="0.623529" cx="1121.25" cy="-233.14" rx="9.97" ry="9.97"/>
<text xml:space="preserve" text-anchor="middle" x="1121.25" y="-226.12" font-family="monospace" font-size="21.60">hashbrown</text>
</a>
</g>
</g>
<!-- 19&#45;&gt;21 -->
<g id="edge21" class="edge">
<title>19&#45;&gt;21</title>
<g id="a_edge21"><a xlink:title="petgraph &#45;&gt; hashbrown">
<path fill="none" stroke="#000000" stroke-width="1.92" stroke-opacity="0.623529" d="M935.47,-371.61C956.63,-357.39 1003.77,-325.37 1042.25,-296.73 1063.53,-280.9 1087.3,-261.87 1103.16,-248.98"/>
<polygon fill="none" stroke="#000000" stroke-width="1.92" stroke-opacity="0.623529" points="1105.5,-252.49 1112.14,-241.64 1100.19,-245.99 1105.5,-252.49"/>
</a>
</g>
</g>
<!-- 23 -->
<g id="node20" class="node">
<title>23</title>
<g id="a_node20"><a xlink:title="indexmap v2.12.1&#10;0 B">
<ellipse fill="#bdd8ec" stroke="#000000" stroke-width="1.44" stroke-opacity="0.623529" cx="786.25" cy="-233.14" rx="0.36" ry="0.36"/>
<text xml:space="preserve" text-anchor="middle" x="786.25" y="-226.12" font-family="monospace" font-size="21.60">indexmap</text>
</a>
</g>
</g>
<!-- 19&#45;&gt;23 -->
<g id="edge22" class="edge">
<title>19&#45;&gt;23</title>
<g id="a_edge22"><a xlink:title="petgraph &#45;&gt; indexmap">
<path fill="none" stroke="#000000" stroke-width="1.92" stroke-opacity="0.623529" d="M915.2,-369.6C890.52,-343.68 822.23,-271.93 796.36,-244.75"/>
<polygon fill="none" stroke="#000000" stroke-width="1.92" stroke-opacity="0.623529" points="799.64,-242.11 788.32,-236.31 793.56,-247.9 799.64,-242.11"/>
</a>
</g>
</g>
<!-- 25 -->
<g id="node21" class="node">
<title>25</title>
<g id="a_node21"><a xlink:title="hashbrown v0.16.1&#10;3.57 KiB">
<ellipse fill="#bdd8ec" stroke="#000000" stroke-width="1.44" stroke-opacity="0.623529" cx="927.25" cy="-102.27" rx="9.97" ry="9.97"/>
<text xml:space="preserve" text-anchor="middle" x="927.25" y="-95.25" font-family="monospace" font-size="21.60">hashbrown</text>
</a>
</g>
</g>
<!-- 23&#45;&gt;25 -->
<g id="edge23" class="edge">
<title>23&#45;&gt;25</title>
<g id="a_edge23"><a xlink:title="indexmap &#45;&gt; hashbrown">
<path fill="none" stroke="#000000" stroke-width="1.92" stroke-opacity="0.623529" d="M786.35,-232.04C789.66,-229.01 872.62,-153.2 909.67,-119.34"/>
<polygon fill="none" stroke="#000000" stroke-width="1.92" stroke-opacity="0.623529" points="912.48,-122.46 918.51,-111.26 906.81,-116.26 912.48,-122.46"/>
</a>
</g>
</g>
<!-- 28 -->
<g id="node24" class="node">
<title>28</title>
<g id="a_node24"><a xlink:title="serde_core v1.0.228&#10;18.89 KiB">
<ellipse fill="#8ec1de" stroke="#000000" stroke-width="1.44" stroke-opacity="0.623529" cx="1558.25" cy="-102.27" rx="27.27" ry="27.27"/>
<text xml:space="preserve" text-anchor="middle" x="1558.25" y="-95.25" font-family="monospace" font-size="21.60">serde_core</text>
</a>
</g>
</g>
<!-- 27&#45;&gt;28 -->
<g id="edge26" class="edge">
<title>27&#45;&gt;28</title>
<g id="a_edge26"><a xlink:title="serde &#45;&gt; serde_core">
<path fill="none" stroke="#000000" stroke-width="1.92" stroke-opacity="0.623529" d="M1422.34,-232.03C1424.11,-229.86 1452.96,-194.79 1479.25,-169.54 1493.98,-155.4 1511.27,-140.7 1525.91,-128.75"/>
<polygon fill="none" stroke="#000000" stroke-width="1.92" stroke-opacity="0.623529" points="1528.5,-132.06 1535.21,-121.26 1523.23,-125.52 1528.5,-132.06"/>
</a>
</g>
</g>
<!-- 29&#45;&gt;28 -->
<g id="edge30" class="edge">
<title>29&#45;&gt;28</title>
<g id="a_edge30"><a xlink:title="serde_json &#45;&gt; serde_core">
<path fill="none" stroke="#000000" stroke-width="1.92" stroke-opacity="0.623529" d="M1303.42,-216.26C1319.95,-202.45 1345.47,-182.66 1370.25,-169.54 1418.58,-143.96 1478.88,-124.71 1517.96,-113.72"/>
<polygon fill="none" stroke="#000000" stroke-width="1.92" stroke-opacity="0.623529" points="1519.05,-117.77 1529.51,-110.55 1516.83,-109.67 1519.05,-117.77"/>
</a>
</g>
</g>
<!-- 31 -->
<g id="node26" class="node">
<title>31</title>
<g id="a_node26"><a xlink:title="memchr v2.7.6&#10;5.31 KiB">
<ellipse fill="#b5d4e9" stroke="#000000" stroke-width="1.44" stroke-opacity="0.623529" cx="1231.25" cy="-102.27" rx="13.21" ry="13.21"/>
<text xml:space="preserve" text-anchor="middle" x="1231.25" y="-95.25" font-family="monospace" font-size="21.60">memchr</text>
</a>
</g>
</g>
<!-- 29&#45;&gt;31 -->
<g id="edge28" class="edge">
<title>29&#45;&gt;31</title>
<g id="a_edge28"><a xlink:title="serde_json &#45;&gt; memchr">
<path fill="none" stroke="#000000" stroke-width="1.92" stroke-opacity="0.623529" d="M1275.97,-209.98C1266.42,-187.2 1251.58,-151.78 1241.64,-128.07"/>
<polygon fill="none" stroke="#000000" stroke-width="1.92" stroke-opacity="0.623529" points="1245.56,-126.56 1237.05,-117.11 1237.81,-129.8 1245.56,-126.56"/>
</a>
</g>
</g>
<!-- 32 -->
<g id="node27" class="node">
<title>32</title>
<g id="a_node27"><a xlink:title="ryu v1.0.20&#10;2.69 KiB">
<ellipse fill="#c2daee" stroke="#000000" stroke-width="1.44" stroke-opacity="0.623529" cx="1328.25" cy="-102.27" rx="8.03" ry="8.03"/>
<text xml:space="preserve" text-anchor="middle" x="1328.25" y="-95.25" font-family="monospace" font-size="21.60">ryu</text>
</a>
</g>
</g>
<!-- 29&#45;&gt;32 -->
<g id="edge29" class="edge">
<title>29&#45;&gt;32</title>
<g id="a_edge29"><a xlink:title="serde_json &#45;&gt; ryu">
<path fill="none" stroke="#000000" stroke-width="1.92" stroke-opacity="0.623529" d="M1292.84,-209.39C1300.91,-185.21 1313.56,-147.28 1321.36,-123.92"/>
<polygon fill="none" stroke="#000000" stroke-width="1.92" stroke-opacity="0.623529" points="1325.31,-125.36 1325.12,-112.65 1317.34,-122.7 1325.31,-125.36"/>
</a>
</g>
</g>
<!-- 33&#45;&gt;28 -->
<g id="edge32" class="edge">
<title>33&#45;&gt;28</title>
<g id="a_edge32"><a xlink:title="serde_with &#45;&gt; serde_core">
<path fill="none" stroke="#000000" stroke-width="1.92" stroke-opacity="0.623529" d="M1536.22,-379.03C1534.83,-375.38 1490.58,-258 1516.25,-169.54 1519.72,-157.58 1526.07,-145.72 1532.79,-135.4"/>
<polygon fill="none" stroke="#000000" stroke-width="1.92" stroke-opacity="0.623529" points="1536.18,-137.88 1539.66,-125.65 1529.32,-133.04 1536.18,-137.88"/>
</a>
</g>
</g>
<!-- 35&#45;&gt;27 -->
<g id="edge35" class="edge">
<title>35&#45;&gt;27</title>
<g id="a_edge35"><a xlink:title="tinytemplate &#45;&gt; serde">
<path fill="none" stroke="#000000" stroke-width="1.92" stroke-opacity="0.623529" d="M1330.77,-351.5C1355.61,-319.64 1395.31,-268.7 1413.1,-245.87"/>
<polygon fill="none" stroke="#000000" stroke-width="1.92" stroke-opacity="0.623529" points="1416.36,-248.53 1420.42,-236.48 1409.73,-243.36 1416.36,-248.53"/>
</a>
</g>
</g>
<!-- 35&#45;&gt;29 -->
<g id="edge36" class="edge">
<title>35&#45;&gt;29</title>
<g id="a_edge36"><a xlink:title="tinytemplate &#45;&gt; serde_json">
<path fill="none" stroke="#000000" stroke-width="1.92" stroke-opacity="0.623529" d="M1303.56,-344.76C1299.96,-322.99 1295.29,-294.8 1291.57,-272.33"/>
<polygon fill="none" stroke="#000000" stroke-width="1.92" stroke-opacity="0.623529" points="1295.75,-271.85 1289.65,-260.7 1287.46,-273.22 1295.75,-271.85"/>
</a>
</g>
</g>
<!-- 36&#45;&gt;28 -->
<g id="edge38" class="edge">
<title>36&#45;&gt;28</title>
<g id="a_edge38"><a xlink:title="toml &#45;&gt; serde_core">
<path fill="none" stroke="#000000" stroke-width="1.92" stroke-opacity="0.623529" d="M1756.9,-337.54C1762.89,-291.65 1764.96,-217.88 1728.25,-169.54 1697.81,-129.45 1639.66,-113.6 1599.93,-107.34"/>
<polygon fill="none" stroke="#000000" stroke-width="1.92" stroke-opacity="0.623529" points="1600.52,-103.18 1588.06,-105.71 1599.38,-111.5 1600.52,-103.18"/>
</a>
</g>
</g>
<!-- 37 -->
<g id="node32" class="node">
<title>37</title>
<g id="a_node32"><a xlink:title="serde_spanned v1.0.3&#10;0 B">
<ellipse fill="#c0d9ed" stroke="#000000" stroke-width="1.44" stroke-opacity="0.623529" cx="1876.25" cy="-233.14" rx="0.36" ry="0.36"/>
<text xml:space="preserve" text-anchor="middle" x="1876.25" y="-226.12" font-family="monospace" font-size="21.60">serde_spanned</text>
</a>
</g>
</g>
<!-- 36&#45;&gt;37 -->
<g id="edge39" class="edge">
<title>36&#45;&gt;37</title>
<g id="a_edge39"><a xlink:title="toml &#45;&gt; serde_spanned">
<path fill="none" stroke="#000000" stroke-width="1.92" stroke-opacity="0.623529" d="M1777.12,-347.3C1805.44,-314.97 1847.74,-266.68 1866.59,-245.17"/>
<polygon fill="none" stroke="#000000" stroke-width="1.92" stroke-opacity="0.623529" points="1869.54,-248.17 1874.29,-236.37 1863.22,-242.63 1869.54,-248.17"/>
</a>
</g>
</g>
<!-- 38 -->
<g id="node33" class="node">
<title>38</title>
<g id="a_node33"><a xlink:title="toml_datetime v0.7.3&#10;5.74 KiB">
<ellipse fill="#a8cee5" stroke="#000000" stroke-width="1.44" stroke-opacity="0.623529" cx="1622.25" cy="-233.14" rx="13.91" ry="13.91"/>
<text xml:space="preserve" text-anchor="middle" x="1622.25" y="-226.12" font-family="monospace" font-size="21.60">toml_datetime</text>
</a>
</g>
</g>
<!-- 36&#45;&gt;38 -->
<g id="edge41" class="edge">
<title>36&#45;&gt;38</title>
<g id="a_edge41"><a xlink:title="toml &#45;&gt; toml_datetime">
<path fill="none" stroke="#000000" stroke-width="1.92" stroke-opacity="0.623529" d="M1721.38,-347.3C1696.76,-319.19 1661.57,-279.02 1640.41,-254.87"/>
<polygon fill="none" stroke="#000000" stroke-width="1.92" stroke-opacity="0.623529" points="1643.74,-252.29 1632.67,-246.03 1637.42,-257.83 1643.74,-252.29"/>
</a>
</g>
</g>
<!-- 39 -->
<g id="node34" class="node">
<title>39</title>
<g id="a_node34"><a xlink:title="toml_parser v1.0.4&#10;44.80 KiB">
<ellipse fill="#68abd4" stroke="#000000" stroke-width="1.44" stroke-opacity="0.623529" cx="2116.25" cy="-233.14" rx="39.11" ry="39.11"/>
<text xml:space="preserve" text-anchor="middle" x="2116.25" y="-226.12" font-family="monospace" font-size="21.60">toml_parser</text>
</a>
</g>
</g>
<!-- 36&#45;&gt;39 -->
<g id="edge43" class="edge">
<title>36&#45;&gt;39</title>
<g id="a_edge43"><a xlink:title="toml &#45;&gt; toml_parser">
<path fill="none" stroke="#000000" stroke-width="1.92" stroke-opacity="0.623529" d="M1780.36,-350.15C1787.18,-345.01 1794.64,-340.2 1802.25,-336.73 1891.46,-295.99 1928.09,-332.89 2019.25,-296.73 2038.55,-289.07 2058.11,-277.36 2074.57,-266.13"/>
<polygon fill="none" stroke="#000000" stroke-width="1.92" stroke-opacity="0.623529" points="2076.73,-269.75 2084.11,-259.39 2071.89,-262.88 2076.73,-269.75"/>
</a>
</g>
</g>
<!-- 40 -->
<g id="node35" class="node">
<title>40</title>
<g id="a_node35"><a xlink:title="winnow v0.7.13&#10;349 B">
<ellipse fill="#d9e8f5" stroke="#000000" stroke-width="1.44" stroke-opacity="0.623529" cx="2059.25" cy="-102.27" rx="1.28" ry="1.28"/>
<text xml:space="preserve" text-anchor="middle" x="2059.25" y="-95.25" font-family="monospace" font-size="21.60">winnow</text>
</a>
</g>
</g>
<!-- 36&#45;&gt;40 -->
<g id="edge45" class="edge">
<title>36&#45;&gt;40</title>
<g id="a_edge45"><a xlink:title="toml &#45;&gt; winnow">
<path fill="none" stroke="#000000" stroke-width="1.92" stroke-opacity="0.623529" d="M1780.46,-350.36C1787.27,-345.21 1794.71,-340.34 1802.25,-336.73 1876.16,-301.33 1921.47,-351.7 1982.25,-296.73 2026.4,-256.8 2000.93,-224.32 2024.25,-169.54 2032.44,-150.29 2044.16,-129.07 2051.73,-115.96"/>
<polygon fill="none" stroke="#000000" stroke-width="1.92" stroke-opacity="0.623529" points="2055.2,-118.34 2057.71,-105.87 2047.98,-114.06 2055.2,-118.34"/>
</a>
</g>
</g>
<!-- 37&#45;&gt;28 -->
<g id="edge40" class="edge">
<title>37&#45;&gt;28</title>
<g id="a_edge40"><a xlink:title="serde_spanned &#45;&gt; serde_core">
<path fill="none" stroke="#000000" stroke-width="1.92" stroke-opacity="0.623529" d="M1876.21,-232.11C1874.41,-230.89 1816.34,-191.85 1765.25,-169.54 1709.19,-145.07 1641.14,-125.02 1598.75,-113.6"/>
<polygon fill="none" stroke="#000000" stroke-width="1.92" stroke-opacity="0.623529" points="1599.85,-109.55 1587.17,-110.54 1597.7,-117.67 1599.85,-109.55"/>
</a>
</g>
</g>
<!-- 38&#45;&gt;28 -->
<g id="edge42" class="edge">
<title>38&#45;&gt;28</title>
<g id="a_edge42"><a xlink:title="toml_datetime &#45;&gt; serde_core">
<path fill="none" stroke="#000000" stroke-width="1.92" stroke-opacity="0.623529" d="M1616.57,-220.7C1607.62,-202.68 1589.86,-166.91 1576.27,-139.56"/>
<polygon fill="none" stroke="#000000" stroke-width="1.92" stroke-opacity="0.623529" points="1580.2,-138.03 1571.1,-129.15 1572.68,-141.76 1580.2,-138.03"/>
</a>
</g>
</g>
<!-- 39&#45;&gt;40 -->
<g id="edge44" class="edge">
<title>39&#45;&gt;40</title>
<g id="a_edge44"><a xlink:title="toml_parser &#45;&gt; winnow">
<path fill="none" stroke="#000000" stroke-width="1.92" stroke-opacity="0.623529" d="M2100.82,-197.26C2089.13,-170.83 2073.7,-135.93 2065.31,-116.97"/>
<polygon fill="none" stroke="#000000" stroke-width="1.92" stroke-opacity="0.623529" points="2069.19,-115.36 2060.5,-106.09 2061.51,-118.76 2069.19,-115.36"/>
</a>
</g>
</g>
</g>
</svg>
