<?xml version="1.0" encoding="UTF-8" standalone="no"?>
<!DOCTYPE svg PUBLIC "-//W3C//DTD SVG 1.1//EN"
 "http://www.w3.org/Graphics/SVG/1.1/DTD/svg11.dtd">
<!-- Generated by graphviz version 13.1.2 (20250808.2320)
 -->
<!-- Pages: 1 -->
<svg width="2442pt" height="788pt"
 viewBox="0.00 0.00 2442.00 788.00" xmlns="http://www.w3.org/2000/svg" xmlns:xlink="http://www.w3.org/1999/xlink">
<style>
.graph:has(.node0:hover) > g:not(.node0) { opacity: 0.5 }
.graph:has(.node1:hover) > g:not(.node1) { opacity: 0.5 }
.graph:has(.node2:hover) > g:not(.node2) { opacity: 0.5 }
.graph:has(.node3:hover) > g:not(.node3) { opacity: 0.5 }
.graph:has(.node4:hover) > g:not(.node4) { opacity: 0.5 }
.graph:has(.node5:hover) > g:not(.node5) { opacity: 0.5 }
.graph:has(.node6:hover) > g:not(.node6) { opacity: 0.5 }
.graph:has(.node7:hover) > g:not(.node7) { opacity: 0.5 }
.graph:has(.node8:hover) > g:not(.node8) { opacity: 0.5 }
.graph:has(.node9:hover) > g:not(.node9) { opacity: 0.5 }
.graph:has(.node10:hover) > g:not(.node10) { opacity: 0.5 }
.graph:has(.node11:hover) > g:not(.node11) { opacity: 0.5 }
.graph:has(.node12:hover) > g:not(.node12) { opacity: 0.5 }
.graph:has(.node13:hover) > g:not(.node13) { opacity: 0.5 }
.graph:has(.node14:hover) > g:not(.node14) { opacity: 0.5 }
.graph:has(.node15:hover) > g:not(.node15) { opacity: 0.5 }
.graph:has(.node16:hover) > g:not(.node16) { opacity: 0.5 }
.graph:has(.node17:hover) > g:not(.node17) { opacity: 0.5 }
.graph:has(.node18:hover) > g:not(.node18) { opacity: 0.5 }
.graph:has(.node19:hover) > g:not(.node19) { opacity: 0.5 }
.graph:has(.node20:hover) > g:not(.node20) { opacity: 0.5 }
.graph:has(.node21:hover) > g:not(.node21) { opacity: 0.5 }
.graph:has(.node22:hover) > g:not(.node22) { opacity: 0.5 }
.graph:has(.node23:hover) > g:not(.node23) { opacity: 0.5 }
.graph:has(.node24:hover) > g:not(.node24) { opacity: 0.5 }
.graph:has(.node25:hover) > g:not(.node25) { opacity: 0.5 }
.graph:has(.node26:hover) > g:not(.node26) { opacity: 0.5 }
.graph:has(.node27:hover) > g:not(.node27) { opacity: 0.5 }
.graph:has(.node28:hover) > g:not(.node28) { opacity: 0.5 }
.graph:has(.node29:hover) > g:not(.node29) { opacity: 0.5 }
.graph:has(.node30:hover) > g:not(.node30) { opacity: 0.5 }
.graph:has(.node31:hover) > g:not(.node31) { opacity: 0.5 }
.graph:has(.node32:hover) > g:not(.node32) { opacity: 0.5 }
.graph:has(.node33:hover) > g:not(.node33) { opacity: 0.5 }
.graph:has(.node34:hover) > g:not(.node34) { opacity: 0.5 }
.graph:has(.node35:hover) > g:not(.node35) { opacity: 0.5 }
.graph:has(.node36:hover) > g:not(.node36) { opacity: 0.5 }
.graph:has(.node37:hover) > g:not(.node37) { opacity: 0.5 }
.graph:has(.node38:hover) > g:not(.node38) { opacity: 0.5 }
.graph:has(.node39:hover) > g:not(.node39) { opacity: 0.5 }
</style>
<g id="graph0" class="graph" transform="scale(1 1) rotate(0) translate(36 752.1)">
<polygon fill="#000000" stroke="none" points="-36,36 -36,-752.1 2405.59,-752.1 2405.59,36 -36,36"/>
<!-- 0 -->
<g id="node1" class="node node0">
<title>0</title>
<g id="a_node1"><a xlink:title="pugio v0.2.0 (/home/my4ng/Programming/pugio)&#10;124.11 KiB&#10;">
<ellipse fill="#d4dd06" stroke="#ffffff" stroke-width="1.2" cx="929.75" cy="-661.9" rx="54.2" ry="54.2"/>
<text xml:space="preserve" text-anchor="middle" x="929.75" y="-655.67" font-family="monospace" font-size="18.00" fill="#ffffff">pugio</text>
</a>
</g>
</g>
<!-- 1 -->
<g id="node2" class="node node0 node1">
<title>1</title>
<g id="a_node2"><a xlink:title="anyhow v1.0.100&#10;10.54 KiB&#10;default(std),&#10;std">
<ellipse fill="#e05cd6" stroke="#ffffff" stroke-width="1.2" cx="41.75" cy="-512.52" rx="20.18" ry="20.18"/>
<text xml:space="preserve" text-anchor="middle" x="41.75" y="-506.3" font-family="monospace" font-size="18.00" fill="#ffffff">anyhow</text>
</a>
</g>
</g>
<!-- 0&#45;&gt;1 -->
<g id="edge1" class="edge node0">
<title>0&#45;&gt;1</title>
<g id="a_edge1"><a xlink:title="pugio &#45;&gt; anyhow">
<path fill="none" stroke="#ffffff" stroke-width="1.6" stroke-opacity="0.623529" d="M875.89,-657.92C714.78,-648.44 239.01,-616.01 96.75,-556.7 84.14,-551.44 72,-542.47 62.34,-534.06"/>
<polygon fill="none" stroke="#ffffff" stroke-width="1.6" stroke-opacity="0.623529" points="64.44,-532.18 56.64,-528.85 60.66,-536.32 64.44,-532.18"/>
</a>
</g>
</g>
<!-- 2 -->
<g id="node3" class="node node0 node2">
<title>2</title>
<g id="a_node3"><a xlink:title="cfg_if v1.0.4&#10;0 B&#10;default">
<ellipse fill="#7d78f7" stroke="#ffffff" stroke-width="1.2" cx="150.75" cy="-512.52" rx="0.36" ry="0.36"/>
<text xml:space="preserve" text-anchor="middle" x="150.75" y="-506.3" font-family="monospace" font-size="18.00" fill="#ffffff">cfg_if</text>
</a>
</g>
</g>
<!-- 0&#45;&gt;2 -->
<g id="edge2" class="edge node0">
<title>0&#45;&gt;2</title>
<g id="a_edge2"><a xlink:title="pugio &#45;&gt; cfg_if">
<path fill="none" stroke="#ffffff" stroke-width="1.6" stroke-opacity="0.623529" d="M876.14,-654.12C774.89,-641.2 548.65,-611.73 358.75,-582.7 290.13,-572.21 268.11,-585.06 204.75,-556.7 185.43,-548.05 167.11,-530.84 157.57,-520.96"/>
<polygon fill="none" stroke="#ffffff" stroke-width="1.6" stroke-opacity="0.623529" points="159.94,-519.39 152.46,-515.39 155.82,-523.18 159.94,-519.39"/>
</a>
</g>
</g>
<!-- 3 -->
<g id="node4" class="node node0 node3">
<title>3</title>
<g id="a_node4"><a xlink:title="clap v4.5.53&#10;0 B&#10;derive,&#10;error&#45;context,&#10;help,&#10;std,&#10;usage">
<ellipse fill="#c56905" stroke="#ffffff" stroke-width="1.2" cx="247.75" cy="-512.52" rx="0.36" ry="0.36"/>
<text xml:space="preserve" text-anchor="middle" x="247.75" y="-506.3" font-family="monospace" font-size="18.00" fill="#ffffff">clap</text>
</a>
</g>
</g>
<!-- 0&#45;&gt;3 -->
<g id="edge3" class="edge node0">
<title>0&#45;&gt;3</title>
<g id="a_edge3"><a xlink:title="pugio &#45;&gt; clap">
<path fill="none" stroke="#ffffff" stroke-width="1.6" stroke-opacity="0.623529" d="M875.97,-656.41C741.34,-644.49 393.23,-609.34 290.75,-556.7 274.71,-548.46 260.96,-532.04 253.57,-522"/>
<polygon fill="none" stroke="#ffffff" stroke-width="1.6" stroke-opacity="0.623529" points="256.01,-520.61 249.18,-515.61 251.4,-523.79 256.01,-520.61"/>
</a>
</g>
</g>
<!-- 7 -->
<g id="node8" class="node node0 node7">
<title>7</title>
<g id="a_node8"><a xlink:title="colorous v1.0.16&#10;2.44 KiB&#10;default(std),&#10;std">
<ellipse fill="#d258fd" stroke="#ffffff" stroke-width="1.2" cx="356.75" cy="-512.52" rx="7.45" ry="7.45"/>
<text xml:space="preserve" text-anchor="middle" x="356.75" y="-506.3" font-family="monospace" font-size="18.00" fill="#ffffff">colorous</text>
</a>
</g>
</g>
<!-- 0&#45;&gt;7 -->
<g id="edge7" class="edge node0">
<title>0&#45;&gt;7</title>
<g id="a_edge7"><a xlink:title="pugio &#45;&gt; colorous">
<path fill="none" stroke="#ffffff" stroke-width="1.6" stroke-opacity="0.623529" d="M875.86,-656.65C780.87,-647.71 578.85,-622.07 421.75,-556.7 402.21,-548.57 382.32,-534.29 369.78,-524.39"/>
<polygon fill="none" stroke="#ffffff" stroke-width="1.6" stroke-opacity="0.623529" points="371.6,-522.26 363.63,-519.37 368.06,-526.6 371.6,-522.26"/>
</a>
</g>
</g>
<!-- 8 -->
<g id="node9" class="node node0 node8">
<title>8</title>
<g id="a_node9"><a xlink:title="colorsys v0.7.3&#10;2.09 KiB&#10;default(std),&#10;std">
<ellipse fill="#cf57fe" stroke="#ffffff" stroke-width="1.2" cx="487.75" cy="-512.52" rx="6.57" ry="6.57"/>
<text xml:space="preserve" text-anchor="middle" x="487.75" y="-506.3" font-family="monospace" font-size="18.00" fill="#ffffff">colorsys</text>
</a>
</g>
</g>
<!-- 0&#45;&gt;8 -->
<g id="edge8" class="edge node0">
<title>0&#45;&gt;8</title>
<g id="a_edge8"><a xlink:title="pugio &#45;&gt; colorsys">
<path fill="none" stroke="#ffffff" stroke-width="1.6" stroke-opacity="0.623529" d="M876.58,-651.55C802.08,-637.27 663.45,-606.32 553.75,-556.7 533.87,-547.7 513.16,-533.17 500.36,-523.49"/>
<polygon fill="none" stroke="#ffffff" stroke-width="1.6" stroke-opacity="0.623529" points="502.21,-521.38 494.17,-518.68 498.77,-525.8 502.21,-521.38"/>
</a>
</g>
</g>
<!-- 9 -->
<g id="node10" class="node node0 node9">
<title>9</title>
<g id="a_node10"><a xlink:title="humansize v2.1.3&#10;1.23 KiB&#10;default">
<ellipse fill="#c557ff" stroke="#ffffff" stroke-width="1.2" cx="624.75" cy="-512.52" rx="4.18" ry="4.18"/>
<text xml:space="preserve" text-anchor="middle" x="624.75" y="-506.3" font-family="monospace" font-size="18.00" fill="#ffffff">humansize</text>
</a>
</g>
</g>
<!-- 0&#45;&gt;9 -->
<g id="edge9" class="edge node0">
<title>0&#45;&gt;9</title>
<g id="a_edge9"><a xlink:title="pugio &#45;&gt; humansize">
<path fill="none" stroke="#ffffff" stroke-width="1.6" stroke-opacity="0.623529" d="M880.04,-640.93C832.06,-621.15 757.79,-589.21 695.75,-556.7 674.17,-545.39 650.17,-530.22 636.33,-521.19"/>
<polygon fill="none" stroke="#ffffff" stroke-width="1.6" stroke-opacity="0.623529" points="637.89,-518.87 629.67,-516.8 634.81,-523.55 637.89,-518.87"/>
</a>
</g>
</g>
<!-- 11 -->
<g id="node12" class="node node0 node11">
<title>11</title>
<g id="a_node12"><a xlink:title="open v5.3.3&#10;6.16 KiB&#10;default">
<ellipse fill="#e35edb" stroke="#ffffff" stroke-width="1.2" cx="738.75" cy="-512.52" rx="14.57" ry="14.57"/>
<text xml:space="preserve" text-anchor="middle" x="738.75" y="-506.3" font-family="monospace" font-size="18.00" fill="#ffffff">open</text>
</a>
</g>
</g>
<!-- 0&#45;&gt;11 -->
<g id="edge11" class="edge node0">
<title>0&#45;&gt;11</title>
<g id="a_edge11"><a xlink:title="pugio &#45;&gt; open">
<path fill="none" stroke="#ffffff" stroke-width="1.6" stroke-opacity="0.623529" d="M884.55,-632.05C854.44,-612.13 814.54,-584.35 781.75,-556.7 772.41,-548.82 762.74,-539.26 754.95,-531.15"/>
<polygon fill="none" stroke="#ffffff" stroke-width="1.6" stroke-opacity="0.623529" points="757.04,-529.29 749.52,-525.38 752.97,-533.13 757.04,-529.29"/>
</a>
</g>
</g>
<!-- 17 -->
<g id="node18" class="node node0 node17">
<title>17</title>
<g id="a_node18"><a xlink:title="parse_size v1.1.0&#10;1.17 KiB&#10;default">
<ellipse fill="#c457ff" stroke="#ffffff" stroke-width="1.2" cx="858.75" cy="-512.52" rx="4.01" ry="4.01"/>
<text xml:space="preserve" text-anchor="middle" x="858.75" y="-506.3" font-family="monospace" font-size="18.00" fill="#ffffff">parse_size</text>
</a>
</g>
</g>
<!-- 0&#45;&gt;17 -->
<g id="edge18" class="edge node0">
<title>0&#45;&gt;17</title>
<g id="a_edge18"><a xlink:title="pugio &#45;&gt; parse_size">
<path fill="none" stroke="#ffffff" stroke-width="1.6" stroke-opacity="0.623529" d="M906.7,-613.05C891.75,-582.01 873.42,-543.98 864.37,-525.18"/>
<polygon fill="none" stroke="#ffffff" stroke-width="1.6" stroke-opacity="0.623529" points="867.01,-524.21 861.01,-518.22 861.96,-526.64 867.01,-524.21"/>
</a>
</g>
</g>
<!-- 18 -->
<g id="node19" class="node node0 node18">
<title>18</title>
<g id="a_node19"><a xlink:title="petgraph v0.8.3&#10;6.82 KiB&#10;stable_graph,&#10;std">
<ellipse fill="#db55c5" stroke="#ffffff" stroke-width="1.2" cx="1000.75" cy="-512.52" rx="15.56" ry="15.56"/>
<text xml:space="preserve" text-anchor="middle" x="1000.75" y="-506.3" font-family="monospace" font-size="18.00" fill="#ffffff">petgraph</text>
</a>
</g>
</g>
<!-- 0&#45;&gt;18 -->
<g id="edge19" class="edge node0">
<title>0&#45;&gt;18</title>
<g id="a_edge19"><a xlink:title="pugio &#45;&gt; petgraph">
<path fill="none" stroke="#ffffff" stroke-width="1.6" stroke-opacity="0.623529" d="M952.8,-613.05C965.27,-587.16 980.09,-556.41 989.92,-536.01"/>
<polygon fill="none" stroke="#ffffff" stroke-width="1.6" stroke-opacity="0.623529" points="992.43,-537.23 993.38,-528.81 987.39,-534.8 992.43,-537.23"/>
</a>
</g>
</g>
<!-- 25 -->
<g id="node26" class="node node0 node25">
<title>25</title>
<g id="a_node26"><a xlink:title="regex_lite v0.1.8&#10;46.25 KiB&#10;default(std,string),&#10;std,&#10;string">
<ellipse fill="#b23057" stroke="#ffffff" stroke-width="1.2" cx="1142.75" cy="-512.52" rx="39.57" ry="39.57"/>
<text xml:space="preserve" text-anchor="middle" x="1142.75" y="-506.3" font-family="monospace" font-size="18.00" fill="#ffffff">regex_lite</text>
</a>
</g>
</g>
<!-- 0&#45;&gt;25 -->
<g id="edge26" class="edge node0">
<title>0&#45;&gt;25</title>
<g id="a_edge26"><a xlink:title="pugio &#45;&gt; regex_lite">
<path fill="none" stroke="#ffffff" stroke-width="1.6" stroke-opacity="0.623529" d="M973.63,-630.54C1011.39,-604.41 1065.46,-567 1102.22,-541.56"/>
<polygon fill="none" stroke="#ffffff" stroke-width="1.6" stroke-opacity="0.623529" points="1103.74,-543.92 1108.72,-537.07 1100.55,-539.31 1103.74,-543.92"/>
</a>
</g>
</g>
<!-- 26 -->
<g id="node27" class="node node0 node0 node34 node26">
<title>26</title>
<g id="a_node27"><a xlink:title="serde v1.0.228&#10;318 B&#10;default(std),&#10;derive(serde_derive),&#10;serde_derive,&#10;std">
<ellipse fill="#d95af8" stroke="#ffffff" stroke-width="1.2" cx="1472.75" cy="-285.63" rx="1.17" ry="1.17"/>
<text xml:space="preserve" text-anchor="middle" x="1472.75" y="-279.4" font-family="monospace" font-size="18.00" fill="#ffffff">serde</text>
</a>
</g>
</g>
<!-- 0&#45;&gt;26 -->
<g id="edge27" class="edge node0">
<title>0&#45;&gt;26</title>
<g id="a_edge27"><a xlink:title="pugio &#45;&gt; serde">
<path fill="none" stroke="#ffffff" stroke-width="1.6" stroke-opacity="0.623529" d="M983.44,-657.94C1102.96,-650.17 1385.27,-624.86 1446.75,-556.7 1516.16,-479.75 1485.47,-335.59 1475.47,-296.58"/>
<polygon fill="none" stroke="#ffffff" stroke-width="1.6" stroke-opacity="0.623529" points="1478.23,-296.07 1473.43,-289.09 1472.83,-297.55 1478.23,-296.07"/>
</a>
</g>
</g>
<!-- 28 -->
<g id="node29" class="node node0 node0 node34 node28">
<title>28</title>
<g id="a_node29"><a xlink:title="serde_json v1.0.145&#10;15.99 KiB&#10;default(std),&#10;std">
<ellipse fill="#c6408a" stroke="#ffffff" stroke-width="1.2" cx="1347.75" cy="-285.63" rx="25.16" ry="25.16"/>
<text xml:space="preserve" text-anchor="middle" x="1347.75" y="-279.4" font-family="monospace" font-size="18.00" fill="#ffffff">serde_json</text>
</a>
</g>
</g>
<!-- 0&#45;&gt;28 -->
<g id="edge29" class="edge node0">
<title>0&#45;&gt;28</title>
<g id="a_edge29"><a xlink:title="pugio &#45;&gt; serde_json">
<path fill="none" stroke="#ffffff" stroke-width="1.6" stroke-opacity="0.623529" d="M983.13,-654.2C1046.6,-643.7 1152.38,-617.79 1219.75,-556.7 1238.89,-539.34 1305.75,-385.47 1334.47,-318.04"/>
<polygon fill="none" stroke="#ffffff" stroke-width="1.6" stroke-opacity="0.623529" points="1336.92,-319.44 1337.47,-310.98 1331.77,-317.25 1336.92,-319.44"/>
</a>
</g>
</g>
<!-- 32 -->
<g id="node33" class="node node0 node32">
<title>32</title>
<g id="a_node33"><a xlink:title="serde_with v3.16.0&#10;0 B&#10;alloc,&#10;default(macros,std),&#10;macros,&#10;std(alloc)">
<ellipse fill="#d858fa" stroke="#ffffff" stroke-width="1.2" cx="2283.75" cy="-408.85" rx="0.36" ry="0.36"/>
<text xml:space="preserve" text-anchor="middle" x="2283.75" y="-402.62" font-family="monospace" font-size="18.00" fill="#ffffff">serde_with</text>
</a>
</g>
</g>
<!-- 0&#45;&gt;32 -->
<g id="edge34" class="edge node0">
<title>0&#45;&gt;32</title>
<g id="a_edge34"><a xlink:title="pugio &#45;&gt; serde_with">
<path fill="none" stroke="#ffffff" stroke-width="1.6" stroke-opacity="0.623529" d="M983.7,-659.39C1131.12,-654.35 1552.42,-633.75 1892.75,-556.7 2041.13,-523.1 2075.48,-502.26 2215.75,-443.35 2237.38,-434.26 2261.86,-421.59 2274.73,-414.73"/>
<polygon fill="none" stroke="#ffffff" stroke-width="1.6" stroke-opacity="0.623529" points="2275.81,-417.33 2281.51,-411.06 2273.14,-412.4 2275.81,-417.33"/>
</a>
</g>
</g>
<!-- 33 -->
<g id="node34" class="node node0 node33">
<title>33</title>
<g id="a_node34"><a xlink:title="strum v0.27.2&#10;63 B&#10;default(std),&#10;derive(strum_macros),&#10;std,&#10;strum_macros">
<ellipse fill="#a061fc" stroke="#ffffff" stroke-width="1.2" cx="1546.75" cy="-512.52" rx="0.36" ry="0.36"/>
<text xml:space="preserve" text-anchor="middle" x="1546.75" y="-506.3" font-family="monospace" font-size="18.00" fill="#ffffff">strum</text>
</a>
</g>
</g>
<!-- 0&#45;&gt;33 -->
<g id="edge36" class="edge node0">
<title>0&#45;&gt;33</title>
<g id="a_edge36"><a xlink:title="pugio &#45;&gt; strum">
<path fill="none" stroke="#ffffff" stroke-width="1.6" stroke-opacity="0.623529" d="M983.6,-658.46C1106.87,-652.09 1405.55,-631.9 1491.75,-582.7 1516.53,-568.55 1534.34,-538.44 1542.22,-523.04"/>
<polygon fill="none" stroke="#ffffff" stroke-width="1.6" stroke-opacity="0.623529" points="1544.73,-524.28 1545.65,-515.85 1539.68,-521.87 1544.73,-524.28"/>
</a>
</g>
</g>
<!-- 34 -->
<g id="node35" class="node node0 node34">
<title>34</title>
<g id="a_node35"><a xlink:title="tinytemplate v1.2.1&#10;35.83 KiB&#10;default">
<ellipse fill="#af2d4c" stroke="#ffffff" stroke-width="1.2" cx="1358.75" cy="-512.52" rx="35.93" ry="35.93"/>
<text xml:space="preserve" text-anchor="middle" x="1358.75" y="-506.3" font-family="monospace" font-size="18.00" fill="#ffffff">tinytemplate</text>
</a>
</g>
</g>
<!-- 0&#45;&gt;34 -->
<g id="edge37" class="edge node0">
<title>0&#45;&gt;34</title>
<g id="a_edge37"><a xlink:title="pugio &#45;&gt; tinytemplate">
<path fill="none" stroke="#ffffff" stroke-width="1.6" stroke-opacity="0.623529" d="M983.36,-655.02C1051.18,-646.12 1170.36,-625.49 1263.75,-582.7 1285.59,-572.69 1307.43,-557.26 1324.66,-543.51"/>
<polygon fill="none" stroke="#ffffff" stroke-width="1.6" stroke-opacity="0.623529" points="1326.42,-545.68 1330.85,-538.45 1322.88,-541.34 1326.42,-545.68"/>
</a>
</g>
</g>
<!-- 35 -->
<g id="node36" class="node node0 node35">
<title>35</title>
<g id="a_node36"><a xlink:title="toml v0.9.8&#10;63.48 KiB&#10;parse,&#10;serde,&#10;std">
<ellipse fill="#ac3612" stroke="#ffffff" stroke-width="1.2" cx="1835.75" cy="-512.52" rx="44.18" ry="44.18"/>
<text xml:space="preserve" text-anchor="middle" x="1835.75" y="-506.3" font-family="monospace" font-size="18.00" fill="#ffffff">toml</text>
</a>
</g>
</g>
<!-- 0&#45;&gt;35 -->
<g id="edge40" class="edge node0">
<title>0&#45;&gt;35</title>
<g id="a_edge40"><a xlink:title="pugio &#45;&gt; toml">
<path fill="none" stroke="#ffffff" stroke-width="1.6" stroke-opacity="0.623529" d="M983.23,-655.08C1085.87,-643.6 1317.46,-616.23 1510.75,-582.7 1607.46,-565.92 1719.18,-540.89 1783.24,-525.98"/>
<polygon fill="none" stroke="#ffffff" stroke-width="1.6" stroke-opacity="0.623529" points="1783.59,-528.78 1790.74,-524.23 1782.32,-523.32 1783.59,-528.78"/>
</a>
</g>
</g>
<!-- 4 -->
<g id="node5" class="node node0 node3 node4">
<title>4</title>
<g id="a_node5"><a xlink:title="clap_builder v4.5.53&#10;231.56 KiB&#10;error&#45;context,&#10;help,&#10;std,&#10;usage">
<ellipse fill="#c56905" stroke="#ffffff" stroke-width="1.2" cx="213.75" cy="-285.63" rx="63.72" ry="63.72"/>
<text xml:space="preserve" text-anchor="middle" x="213.75" y="-279.4" font-family="monospace" font-size="18.00" fill="#ffffff">clap_builder</text>
</a>
</g>
</g>
<!-- 3&#45;&gt;4 -->
<g id="edge4" class="edge node0 node3">
<title>3&#45;&gt;4</title>
<g id="a_edge4"><a xlink:title="clap &#45;&gt; clap_builder">
<path fill="none" stroke="#ffffff" stroke-width="1.6" stroke-opacity="0.623529" d="M247.67,-511.42C246.07,-509.33 220.31,-475.46 212.5,-443.35 205.91,-416.27 204.8,-385.77 205.83,-358.93"/>
<polygon fill="none" stroke="#ffffff" stroke-width="1.6" stroke-opacity="0.623529" points="208.61,-359.38 206.2,-351.25 203.02,-359.11 208.61,-359.38"/>
</a>
</g>
<g id="a_edge4&#45;label"><a xlink:title="clap &#45;&gt; clap_builder">
<text xml:space="preserve" text-anchor="middle" x="332.12" y="-430.52" font-family="monospace" font-size="13.50" fill="#ffffff">error&#45;context(error&#45;context),</text>
<text xml:space="preserve" text-anchor="middle" x="332.12" y="-413.27" font-family="monospace" font-size="13.50" fill="#ffffff">help(help),</text>
<text xml:space="preserve" text-anchor="middle" x="332.12" y="-396.02" font-family="monospace" font-size="13.50" fill="#ffffff">std(std),</text>
<text xml:space="preserve" text-anchor="middle" x="332.12" y="-378.77" font-family="monospace" font-size="13.50" fill="#ffffff">usage(usage)</text>
</a>
</g>
</g>
<!-- 5 -->
<g id="node6" class="node node0 node3 node4 node5">
<title>5</title>
<g id="a_node6"><a xlink:title="anstyle v1.0.13&#10;2.06 KiB&#10;default(std),&#10;std">
<ellipse fill="#cf58fe" stroke="#ffffff" stroke-width="1.2" cx="151.75" cy="-109.08" rx="6.5" ry="6.5"/>
<text xml:space="preserve" text-anchor="middle" x="151.75" y="-102.85" font-family="monospace" font-size="18.00" fill="#ffffff">anstyle</text>
</a>
</g>
</g>
<!-- 4&#45;&gt;5 -->
<g id="edge5" class="edge node0 node3 node4">
<title>4&#45;&gt;5</title>
<g id="a_edge5"><a xlink:title="clap_builder &#45;&gt; anstyle">
<path fill="none" stroke="#ffffff" stroke-width="1.6" stroke-opacity="0.623529" d="M192.76,-225.53C180.01,-189.65 164.74,-146.65 156.92,-124.64"/>
<polygon fill="none" stroke="#ffffff" stroke-width="1.6" stroke-opacity="0.623529" points="159.61,-123.85 154.3,-117.24 154.34,-125.72 159.61,-123.85"/>
</a>
</g>
<g id="a_edge5&#45;label"><a xlink:title="clap_builder &#45;&gt; anstyle">
<text xml:space="preserve" text-anchor="middle" x="213.89" y="-175.45" font-family="monospace" font-size="13.50" fill="#ffffff">std(std)</text>
</a>
</g>
</g>
<!-- 6 -->
<g id="node7" class="node node0 node3 node4 node6">
<title>6</title>
<g id="a_node7"><a xlink:title="clap_lex v0.7.6&#10;1.08 KiB&#10;default">
<ellipse fill="#c257ff" stroke="#ffffff" stroke-width="1.2" cx="276.75" cy="-109.08" rx="3.72" ry="3.72"/>
<text xml:space="preserve" text-anchor="middle" x="276.75" y="-102.85" font-family="monospace" font-size="18.00" fill="#ffffff">clap_lex</text>
</a>
</g>
</g>
<!-- 4&#45;&gt;6 -->
<g id="edge6" class="edge node0 node3 node4">
<title>4&#45;&gt;6</title>
<g id="a_edge6"><a xlink:title="clap_builder &#45;&gt; clap_lex">
<path fill="none" stroke="#ffffff" stroke-width="1.6" stroke-opacity="0.623529" d="M240.38,-228.03C244.78,-217.78 249.1,-207.1 252.75,-196.9 262.04,-170.99 269.9,-139.66 273.91,-122.61"/>
<polygon fill="none" stroke="#ffffff" stroke-width="1.6" stroke-opacity="0.623529" points="276.62,-123.32 275.67,-114.9 271.16,-122.07 276.62,-123.32"/>
</a>
</g>
</g>
<!-- 10 -->
<g id="node11" class="node node0 node9 node10">
<title>10</title>
<g id="a_node11"><a xlink:title="libm v0.2.15&#10;0 B&#10;arch,&#10;default(arch)">
<ellipse fill="#7d78f7" stroke="#ffffff" stroke-width="1.2" cx="435.75" cy="-285.63" rx="0.36" ry="0.36"/>
<text xml:space="preserve" text-anchor="middle" x="435.75" y="-279.4" font-family="monospace" font-size="18.00" fill="#ffffff">libm</text>
</a>
</g>
</g>
<!-- 9&#45;&gt;10 -->
<g id="edge10" class="edge node0 node9">
<title>9&#45;&gt;10</title>
<g id="a_edge10"><a xlink:title="humansize &#45;&gt; libm">
<path fill="none" stroke="#ffffff" stroke-width="1.6" stroke-opacity="0.623529" d="M622.22,-509.57C612.27,-501.8 575.04,-472.15 548.75,-443.35 513.63,-404.88 509.04,-391.73 478.75,-349.35 465.07,-330.2 449.59,-307.31 441.45,-295.17"/>
<polygon fill="none" stroke="#ffffff" stroke-width="1.6" stroke-opacity="0.623529" points="443.93,-293.84 437.16,-288.74 439.28,-296.95 443.93,-293.84"/>
</a>
</g>
</g>
<!-- 12 -->
<g id="node13" class="node node0 node11 node12">
<title>12</title>
<g id="a_node13"><a xlink:title="is_wsl v0.4.0&#10;0 B&#10;default">
<ellipse fill="#d95af8" stroke="#ffffff" stroke-width="1.2" cx="532.75" cy="-285.63" rx="0.36" ry="0.36"/>
<text xml:space="preserve" text-anchor="middle" x="532.75" y="-279.4" font-family="monospace" font-size="18.00" fill="#ffffff">is_wsl</text>
</a>
</g>
</g>
<!-- 11&#45;&gt;12 -->
<g id="edge12" class="edge node0 node11">
<title>11&#45;&gt;12</title>
<g id="a_edge12"><a xlink:title="open &#45;&gt; is_wsl">
<path fill="none" stroke="#ffffff" stroke-width="1.6" stroke-opacity="0.623529" d="M729.3,-501.81C720.66,-492.98 707.48,-479.66 695.75,-468.35 683.98,-457 680.14,-455.08 668.75,-443.35 630.13,-403.57 623.06,-391.24 586.75,-349.35 569.61,-329.57 549.53,-306.19 539.36,-294.34"/>
<polygon fill="none" stroke="#ffffff" stroke-width="1.6" stroke-opacity="0.623529" points="541.75,-292.82 534.41,-288.57 537.49,-296.46 541.75,-292.82"/>
</a>
</g>
</g>
<!-- 15 -->
<g id="node16" class="node node0 node11 node15">
<title>15</title>
<g id="a_node16"><a xlink:title="libc v0.2.177&#10;0 B&#10;default(std),&#10;std">
<ellipse fill="#7d78f7" stroke="#ffffff" stroke-width="1.2" cx="629.75" cy="-285.63" rx="0.36" ry="0.36"/>
<text xml:space="preserve" text-anchor="middle" x="629.75" y="-279.4" font-family="monospace" font-size="18.00" fill="#ffffff">libc</text>
</a>
</g>
</g>
<!-- 11&#45;&gt;15 -->
<g id="edge16" class="edge node0 node11">
<title>11&#45;&gt;15</title>
<g id="a_edge16"><a xlink:title="open &#45;&gt; libc">
<path fill="none" stroke="#ffffff" stroke-width="1.6" stroke-opacity="0.623529" d="M732.89,-499.43C713.48,-459.38 651.52,-331.54 634.25,-295.92"/>
<polygon fill="none" stroke="#ffffff" stroke-width="1.6" stroke-opacity="0.623529" points="636.87,-294.9 630.86,-288.93 631.83,-297.35 636.87,-294.9"/>
</a>
</g>
</g>
<!-- 16 -->
<g id="node17" class="node node0 node11 node16">
<title>16</title>
<g id="a_node17"><a xlink:title="pathdiff v0.2.3&#10;0 B&#10;default">
<ellipse fill="#7d78f7" stroke="#ffffff" stroke-width="1.2" cx="738.75" cy="-285.63" rx="0.36" ry="0.36"/>
<text xml:space="preserve" text-anchor="middle" x="738.75" y="-279.4" font-family="monospace" font-size="18.00" fill="#ffffff">pathdiff</text>
</a>
</g>
</g>
<!-- 11&#45;&gt;16 -->
<g id="edge17" class="edge node0 node11">
<title>11&#45;&gt;16</title>
<g id="a_edge17"><a xlink:title="open &#45;&gt; pathdiff">
<path fill="none" stroke="#ffffff" stroke-width="1.6" stroke-opacity="0.623529" d="M738.75,-498.13C738.75,-456.98 738.75,-333.03 738.75,-296.72"/>
<polygon fill="none" stroke="#ffffff" stroke-width="1.6" stroke-opacity="0.623529" points="741.55,-297.17 738.75,-289.17 735.95,-297.17 741.55,-297.17"/>
</a>
</g>
</g>
<!-- 13 -->
<g id="node14" class="node node0 node11 node12 node13">
<title>13</title>
<g id="a_node14"><a xlink:title="is_docker v0.2.0&#10;0 B&#10;default">
<ellipse fill="#cb57fe" stroke="#ffffff" stroke-width="1.2" cx="469.75" cy="-109.08" rx="0.36" ry="0.36"/>
<text xml:space="preserve" text-anchor="middle" x="469.75" y="-102.85" font-family="monospace" font-size="18.00" fill="#ffffff">is_docker</text>
</a>
</g>
</g>
<!-- 12&#45;&gt;13 -->
<g id="edge13" class="edge node0 node11 node12">
<title>12&#45;&gt;13</title>
<g id="a_edge13"><a xlink:title="is_wsl &#45;&gt; is_docker">
<path fill="none" stroke="#ffffff" stroke-width="1.6" stroke-opacity="0.623529" d="M532.7,-284.5C531.08,-279.99 486.35,-156.08 473.3,-119.9"/>
<polygon fill="none" stroke="#ffffff" stroke-width="1.6" stroke-opacity="0.623529" points="475.97,-119.05 470.62,-112.48 470.7,-120.95 475.97,-119.05"/>
</a>
</g>
</g>
<!-- 14 -->
<g id="node15" class="node node0 node11 node12 node0 node11 node12 node13 node14">
<title>14</title>
<g id="a_node15"><a xlink:title="once_cell v1.21.3&#10;3.68 KiB&#10;alloc(race),&#10;default(std),&#10;race,&#10;std(alloc)">
<ellipse fill="#d95af8" stroke="#ffffff" stroke-width="1.2" cx="517.75" cy="-14.88" rx="10.21" ry="10.21"/>
<text xml:space="preserve" text-anchor="middle" x="517.75" y="-8.65" font-family="monospace" font-size="18.00" fill="#ffffff">once_cell</text>
</a>
</g>
</g>
<!-- 12&#45;&gt;14 -->
<g id="edge15" class="edge node0 node11 node12">
<title>12&#45;&gt;14</title>
<g id="a_edge15"><a xlink:title="is_wsl &#45;&gt; once_cell">
<path fill="none" stroke="#ffffff" stroke-width="1.6" stroke-opacity="0.623529" d="M532.77,-284.54C533.47,-281.05 555.88,-168.72 540.75,-80.75 537.9,-64.19 531.24,-46.25 525.82,-33.44"/>
<polygon fill="none" stroke="#ffffff" stroke-width="1.6" stroke-opacity="0.623529" points="528.43,-32.43 522.64,-26.24 523.31,-34.69 528.43,-32.43"/>
</a>
</g>
</g>
<!-- 13&#45;&gt;14 -->
<g id="edge14" class="edge node0 node11 node12 node13">
<title>13&#45;&gt;14</title>
<g id="a_edge14"><a xlink:title="is_docker &#45;&gt; once_cell">
<path fill="none" stroke="#ffffff" stroke-width="1.6" stroke-opacity="0.623529" d="M469.78,-108.01C470.83,-106 495.29,-59.03 508.86,-32.95"/>
<polygon fill="none" stroke="#ffffff" stroke-width="1.6" stroke-opacity="0.623529" points="511.28,-34.36 512.5,-25.97 506.32,-31.77 511.28,-34.36"/>
</a>
</g>
</g>
<!-- 19 -->
<g id="node20" class="node node0 node18 node19">
<title>19</title>
<g id="a_node20"><a xlink:title="fixedbitset v0.5.7&#10;147 B&#10;">
<ellipse fill="#a75ffd" stroke="#ffffff" stroke-width="1.2" cx="886.75" cy="-285.63" rx="0.55" ry="0.55"/>
<text xml:space="preserve" text-anchor="middle" x="886.75" y="-279.4" font-family="monospace" font-size="18.00" fill="#ffffff">fixedbitset</text>
</a>
</g>
</g>
<!-- 18&#45;&gt;19 -->
<g id="edge20" class="edge node0 node18">
<title>18&#45;&gt;19</title>
<g id="a_edge20"><a xlink:title="petgraph &#45;&gt; fixedbitset">
<path fill="none" stroke="#ffffff" stroke-width="1.6" stroke-opacity="0.623529" d="M994.13,-498.46C973.27,-457.3 909.23,-330.97 891.4,-295.8"/>
<polygon fill="none" stroke="#ffffff" stroke-width="1.6" stroke-opacity="0.623529" points="894.02,-294.77 887.91,-288.9 889.02,-297.31 894.02,-294.77"/>
</a>
</g>
</g>
<!-- 20 -->
<g id="node21" class="node node0 node18 node20">
<title>20</title>
<g id="a_node21"><a xlink:title="indexmap v2.12.1&#10;0 B&#10;std">
<ellipse fill="#d658fa" stroke="#ffffff" stroke-width="1.2" cx="1034.75" cy="-285.63" rx="0.36" ry="0.36"/>
<text xml:space="preserve" text-anchor="middle" x="1034.75" y="-279.4" font-family="monospace" font-size="18.00" fill="#ffffff">indexmap</text>
</a>
</g>
</g>
<!-- 18&#45;&gt;20 -->
<g id="edge21" class="edge node0 node18">
<title>18&#45;&gt;20</title>
<g id="a_edge21"><a xlink:title="petgraph &#45;&gt; indexmap">
<path fill="none" stroke="#ffffff" stroke-width="1.6" stroke-opacity="0.623529" d="M1002.88,-497.45C1009.2,-455.61 1027.79,-332.64 1033.24,-296.63"/>
<polygon fill="none" stroke="#ffffff" stroke-width="1.6" stroke-opacity="0.623529" points="1035.94,-297.47 1034.37,-289.14 1030.41,-296.63 1035.94,-297.47"/>
</a>
</g>
<g id="a_edge21&#45;label"><a xlink:title="petgraph &#45;&gt; indexmap">
<text xml:space="preserve" text-anchor="middle" x="1053.8" y="-404.65" font-family="monospace" font-size="13.50" fill="#ffffff">std(std)</text>
</a>
</g>
</g>
<!-- 23 -->
<g id="node24" class="node node0 node18 node23">
<title>23</title>
<g id="a_node24"><a xlink:title="hashbrown v0.15.5&#10;3.20 KiB&#10;default&#45;hasher,&#10;inline&#45;more">
<ellipse fill="#d658fa" stroke="#ffffff" stroke-width="1.2" cx="1171.75" cy="-285.63" rx="9.19" ry="9.19"/>
<text xml:space="preserve" text-anchor="middle" x="1171.75" y="-279.4" font-family="monospace" font-size="18.00" fill="#ffffff">hashbrown</text>
</a>
</g>
</g>
<!-- 18&#45;&gt;23 -->
<g id="edge24" class="edge node0 node18">
<title>18&#45;&gt;23</title>
<g id="a_edge24"><a xlink:title="petgraph &#45;&gt; hashbrown">
<path fill="none" stroke="#ffffff" stroke-width="1.6" stroke-opacity="0.623529" d="M1013.17,-503.38C1035.33,-488.67 1080.52,-457.87 1092.75,-443.35 1129.99,-399.14 1155.42,-334.39 1166.09,-303.82"/>
<polygon fill="none" stroke="#ffffff" stroke-width="1.6" stroke-opacity="0.623529" points="1168.66,-304.97 1168.57,-296.5 1163.35,-303.17 1168.66,-304.97"/>
</a>
</g>
</g>
<!-- 21 -->
<g id="node22" class="node node0 node18 node20 node21">
<title>21</title>
<g id="a_node22"><a xlink:title="equivalent v1.0.2&#10;0 B&#10;">
<ellipse fill="#7d78f7" stroke="#ffffff" stroke-width="1.2" cx="876.75" cy="-109.08" rx="0.36" ry="0.36"/>
<text xml:space="preserve" text-anchor="middle" x="876.75" y="-102.85" font-family="monospace" font-size="18.00" fill="#ffffff">equivalent</text>
</a>
</g>
</g>
<!-- 20&#45;&gt;21 -->
<g id="edge22" class="edge node0 node18 node20">
<title>20&#45;&gt;21</title>
<g id="a_edge22"><a xlink:title="indexmap &#45;&gt; equivalent">
<path fill="none" stroke="#ffffff" stroke-width="1.6" stroke-opacity="0.623529" d="M1034.64,-284.5C1030.46,-279.89 913.28,-150.44 883.55,-117.59"/>
<polygon fill="none" stroke="#ffffff" stroke-width="1.6" stroke-opacity="0.623529" points="885.93,-116.05 878.49,-112 881.78,-119.81 885.93,-116.05"/>
</a>
</g>
</g>
<!-- 22 -->
<g id="node23" class="node node0 node18 node20 node22">
<title>22</title>
<g id="a_node23"><a xlink:title="hashbrown v0.16.1&#10;3.20 KiB&#10;">
<ellipse fill="#d658fa" stroke="#ffffff" stroke-width="1.2" cx="1024.75" cy="-109.08" rx="9.19" ry="9.19"/>
<text xml:space="preserve" text-anchor="middle" x="1024.75" y="-102.85" font-family="monospace" font-size="18.00" fill="#ffffff">hashbrown</text>
</a>
</g>
</g>
<!-- 20&#45;&gt;22 -->
<g id="edge23" class="edge node0 node18 node20">
<title>20&#45;&gt;22</title>
<g id="a_edge23"><a xlink:title="indexmap &#45;&gt; hashbrown">
<path fill="none" stroke="#ffffff" stroke-width="1.6" stroke-opacity="0.623529" d="M1034.74,-284.5C1034.5,-280.3 1028.34,-172.71 1025.81,-128.64"/>
<polygon fill="none" stroke="#ffffff" stroke-width="1.6" stroke-opacity="0.623529" points="1028.61,-128.49 1025.36,-120.66 1023.02,-128.81 1028.61,-128.49"/>
</a>
</g>
</g>
<!-- 24 -->
<g id="node25" class="node node0 node18 node23 node24">
<title>24</title>
<g id="a_node25"><a xlink:title="foldhash v0.1.5&#10;0 B&#10;">
<ellipse fill="#7d78f7" stroke="#ffffff" stroke-width="1.2" cx="1161.75" cy="-109.08" rx="0.36" ry="0.36"/>
<text xml:space="preserve" text-anchor="middle" x="1161.75" y="-102.85" font-family="monospace" font-size="18.00" fill="#ffffff">foldhash</text>
</a>
</g>
</g>
<!-- 23&#45;&gt;24 -->
<g id="edge25" class="edge node0 node18 node23">
<title>23&#45;&gt;24</title>
<g id="a_edge25"><a xlink:title="hashbrown &#45;&gt; foldhash">
<path fill="none" stroke="#ffffff" stroke-width="1.6" stroke-opacity="0.623529" d="M1171.29,-276.67C1169.67,-248.31 1164.16,-152.14 1162.34,-120.36"/>
<polygon fill="none" stroke="#ffffff" stroke-width="1.6" stroke-opacity="0.623529" points="1165.15,-120.42 1161.89,-112.59 1159.56,-120.74 1165.15,-120.42"/>
</a>
</g>
</g>
<!-- 27 -->
<g id="node28" class="node node0 node32 node0 node0 node34 node26 node0 node0 node34 node28 node0 node35 node0 node35 node37 node0 node35 node38 node27">
<title>27</title>
<g id="a_node28"><a xlink:title="serde_core v1.0.228&#10;20.49 KiB&#10;alloc,&#10;result,&#10;std">
<ellipse fill="#cf48a2" stroke="#ffffff" stroke-width="1.2" cx="1684.75" cy="-109.08" rx="28.33" ry="28.33"/>
<text xml:space="preserve" text-anchor="middle" x="1684.75" y="-102.85" font-family="monospace" font-size="18.00" fill="#ffffff">serde_core</text>
</a>
</g>
</g>
<!-- 26&#45;&gt;27 -->
<g id="edge28" class="edge node0 node0 node34 node26">
<title>26&#45;&gt;27</title>
<g id="a_edge28"><a xlink:title="serde &#45;&gt; serde_core">
<path fill="none" stroke="#ffffff" stroke-width="1.6" stroke-opacity="0.623529" d="M1472.82,-284.54C1475.65,-280.92 1566.39,-165.03 1569.75,-162.4 1593.34,-143.96 1624.47,-130.31 1648.39,-121.58"/>
<polygon fill="none" stroke="#ffffff" stroke-width="1.6" stroke-opacity="0.623529" points="1649.26,-124.25 1655.87,-118.95 1647.4,-118.97 1649.26,-124.25"/>
</a>
</g>
<g id="a_edge28&#45;label"><a xlink:title="serde &#45;&gt; serde_core">
<text xml:space="preserve" text-anchor="middle" x="1602.75" y="-175.45" font-family="monospace" font-size="13.50" fill="#ffffff">std(std)</text>
</a>
</g>
</g>
<!-- 28&#45;&gt;27 -->
<g id="edge31" class="edge node0 node0 node34 node28">
<title>28&#45;&gt;27</title>
<g id="a_edge31"><a xlink:title="serde_json &#45;&gt; serde_core">
<path fill="none" stroke="#ffffff" stroke-width="1.6" stroke-opacity="0.623529" d="M1366.12,-268.84C1385.61,-251.79 1416.93,-223.51 1441.75,-196.9 1455.22,-182.47 1453.06,-172.96 1469.75,-162.4 1524.76,-127.62 1601.12,-115.96 1646.48,-112.05"/>
<polygon fill="none" stroke="#ffffff" stroke-width="1.6" stroke-opacity="0.623529" points="1646.59,-114.85 1654.35,-111.44 1646.16,-109.26 1646.59,-114.85"/>
</a>
</g>
<g id="a_edge31&#45;label"><a xlink:title="serde_json &#45;&gt; serde_core">
<text xml:space="preserve" text-anchor="middle" x="1502.75" y="-175.45" font-family="monospace" font-size="13.50" fill="#ffffff">std(std)</text>
</a>
</g>
</g>
<!-- 29 -->
<g id="node30" class="node node0 node0 node34 node28 node29">
<title>29</title>
<g id="a_node30"><a xlink:title="memchr v2.7.6&#10;5.31 KiB&#10;alloc,&#10;std(alloc)">
<ellipse fill="#de5cf2" stroke="#ffffff" stroke-width="1.2" cx="1356.75" cy="-109.08" rx="13.21" ry="13.21"/>
<text xml:space="preserve" text-anchor="middle" x="1356.75" y="-102.85" font-family="monospace" font-size="18.00" fill="#ffffff">memchr</text>
</a>
</g>
</g>
<!-- 28&#45;&gt;29 -->
<g id="edge30" class="edge node0 node0 node34 node28">
<title>28&#45;&gt;29</title>
<g id="a_edge30"><a xlink:title="serde_json &#45;&gt; memchr">
<path fill="none" stroke="#ffffff" stroke-width="1.6" stroke-opacity="0.623529" d="M1346.11,-260.68C1344.76,-235.99 1343.53,-196.42 1346.75,-162.4 1347.72,-152.21 1349.72,-141.05 1351.67,-131.66"/>
<polygon fill="none" stroke="#ffffff" stroke-width="1.6" stroke-opacity="0.623529" points="1354.38,-132.41 1353.37,-123.99 1348.91,-131.2 1354.38,-132.41"/>
</a>
</g>
<g id="a_edge30&#45;label"><a xlink:title="serde_json &#45;&gt; memchr">
<text xml:space="preserve" text-anchor="middle" x="1379.75" y="-175.45" font-family="monospace" font-size="13.50" fill="#ffffff">std(std)</text>
</a>
</g>
</g>
<!-- 30 -->
<g id="node31" class="node node0 node0 node34 node28 node30">
<title>30</title>
<g id="a_node31"><a xlink:title="itoa v1.0.15&#10;0 B&#10;default">
<ellipse fill="#7d78f7" stroke="#ffffff" stroke-width="1.2" cx="1453.75" cy="-109.08" rx="0.36" ry="0.36"/>
<text xml:space="preserve" text-anchor="middle" x="1453.75" y="-102.85" font-family="monospace" font-size="18.00" fill="#ffffff">itoa</text>
</a>
</g>
</g>
<!-- 28&#45;&gt;30 -->
<g id="edge32" class="edge node0 node0 node34 node28">
<title>28&#45;&gt;30</title>
<g id="a_edge32"><a xlink:title="serde_json &#45;&gt; itoa">
<path fill="none" stroke="#ffffff" stroke-width="1.6" stroke-opacity="0.623529" d="M1363.71,-266.35C1378.19,-249.2 1399.55,-222.42 1414.75,-196.9 1430.56,-170.36 1444.08,-136.27 1450.22,-119.82"/>
<polygon fill="none" stroke="#ffffff" stroke-width="1.6" stroke-opacity="0.623529" points="1452.78,-120.98 1452.87,-112.5 1447.52,-119.07 1452.78,-120.98"/>
</a>
</g>
</g>
<!-- 31 -->
<g id="node32" class="node node0 node0 node34 node28 node31">
<title>31</title>
<g id="a_node32"><a xlink:title="ryu v1.0.20&#10;2.69 KiB&#10;default">
<ellipse fill="#d358fc" stroke="#ffffff" stroke-width="1.2" cx="1264.75" cy="-109.08" rx="8.03" ry="8.03"/>
<text xml:space="preserve" text-anchor="middle" x="1264.75" y="-102.85" font-family="monospace" font-size="18.00" fill="#ffffff">ryu</text>
</a>
</g>
</g>
<!-- 28&#45;&gt;31 -->
<g id="edge33" class="edge node0 node0 node34 node28">
<title>28&#45;&gt;31</title>
<g id="a_edge33"><a xlink:title="serde_json &#45;&gt; ryu">
<path fill="none" stroke="#ffffff" stroke-width="1.6" stroke-opacity="0.623529" d="M1337.41,-262.87C1320.38,-227.07 1286.86,-156.58 1272.07,-125.47"/>
<polygon fill="none" stroke="#ffffff" stroke-width="1.6" stroke-opacity="0.623529" points="1274.68,-124.43 1268.71,-118.41 1269.62,-126.84 1274.68,-124.43"/>
</a>
</g>
</g>
<!-- 32&#45;&gt;27 -->
<g id="edge35" class="edge node0 node32">
<title>32&#45;&gt;27</title>
<g id="a_edge35"><a xlink:title="serde_with &#45;&gt; serde_core">
<path fill="none" stroke="#ffffff" stroke-width="1.6" stroke-opacity="0.623529" d="M2283.73,-407.75C2282.72,-403.89 2249.98,-279.7 2175.75,-221.9 2104.05,-166.07 1825,-127.17 1722.65,-114.52"/>
<polygon fill="none" stroke="#ffffff" stroke-width="1.6" stroke-opacity="0.623529" points="1723.15,-111.77 1714.87,-113.57 1722.47,-117.32 1723.15,-111.77"/>
</a>
</g>
<g id="a_edge35&#45;label"><a xlink:title="serde_with &#45;&gt; serde_core">
<text xml:space="preserve" text-anchor="middle" x="2315.96" y="-290.05" font-family="monospace" font-size="13.50" fill="#ffffff">alloc(alloc),</text>
<text xml:space="preserve" text-anchor="middle" x="2315.96" y="-272.8" font-family="monospace" font-size="13.50" fill="#ffffff">std(std)</text>
</a>
</g>
</g>
<!-- 34&#45;&gt;26 -->
<g id="edge38" class="edge node0 node34">
<title>34&#45;&gt;26</title>
<g id="a_edge38"><a xlink:title="tinytemplate &#45;&gt; serde">
<path fill="none" stroke="#ffffff" stroke-width="1.6" stroke-opacity="0.623529" d="M1374.36,-480.72C1400.65,-428.85 1452.44,-326.7 1468.13,-295.74"/>
<polygon fill="none" stroke="#ffffff" stroke-width="1.6" stroke-opacity="0.623529" points="1470.49,-297.28 1471.61,-288.88 1465.49,-294.75 1470.49,-297.28"/>
</a>
</g>
</g>
<!-- 34&#45;&gt;28 -->
<g id="edge39" class="edge node0 node34">
<title>34&#45;&gt;28</title>
<g id="a_edge39"><a xlink:title="tinytemplate &#45;&gt; serde_json">
<path fill="none" stroke="#ffffff" stroke-width="1.6" stroke-opacity="0.623529" d="M1357.06,-476.88C1354.98,-434.48 1351.49,-363.16 1349.43,-320.92"/>
<polygon fill="none" stroke="#ffffff" stroke-width="1.6" stroke-opacity="0.623529" points="1352.23,-320.87 1349.04,-313.01 1346.63,-321.14 1352.23,-320.87"/>
</a>
</g>
</g>
<!-- 35&#45;&gt;27 -->
<g id="edge42" class="edge node0 node35">
<title>35&#45;&gt;27</title>
<g id="a_edge42"><a xlink:title="toml &#45;&gt; serde_core">
<path fill="none" stroke="#ffffff" stroke-width="1.6" stroke-opacity="0.623529" d="M1793.62,-500.02C1731.77,-480.6 1618.54,-434.79 1570.75,-349.35 1543.1,-299.91 1538.45,-268.43 1570.75,-221.9 1588.87,-195.8 1613.77,-217.76 1637.75,-196.9 1653.46,-183.24 1664.85,-162.98 1672.47,-145.48"/>
<polygon fill="none" stroke="#ffffff" stroke-width="1.6" stroke-opacity="0.623529" points="1674.96,-146.8 1675.41,-138.33 1669.78,-144.67 1674.96,-146.8"/>
</a>
</g>
<g id="a_edge42&#45;label"><a xlink:title="toml &#45;&gt; serde_core">
<text xml:space="preserve" text-anchor="middle" x="1603.75" y="-281.43" font-family="monospace" font-size="13.50" fill="#ffffff">std(std)</text>
</a>
</g>
</g>
<!-- 36 -->
<g id="node37" class="node node0 node35 node0 node35 node39 node36">
<title>36</title>
<g id="a_node37"><a xlink:title="winnow v0.7.14&#10;349 B&#10;">
<ellipse fill="#b05afe" stroke="#ffffff" stroke-width="1.2" cx="2167.75" cy="-109.08" rx="1.28" ry="1.28"/>
<text xml:space="preserve" text-anchor="middle" x="2167.75" y="-102.85" font-family="monospace" font-size="18.00" fill="#ffffff">winnow</text>
</a>
</g>
</g>
<!-- 35&#45;&gt;36 -->
<g id="edge41" class="edge node0 node35">
<title>35&#45;&gt;36</title>
<g id="a_edge41"><a xlink:title="toml &#45;&gt; winnow">
<path fill="none" stroke="#ffffff" stroke-width="1.6" stroke-opacity="0.623529" d="M1866.13,-480.88C1872.5,-475.95 1879.5,-471.45 1886.75,-468.35 1983.73,-426.88 2034.61,-501.28 2122.75,-443.35 2232.73,-371.06 2183.92,-167.67 2170.68,-120.11"/>
<polygon fill="none" stroke="#ffffff" stroke-width="1.6" stroke-opacity="0.623529" points="2173.42,-119.48 2168.49,-112.58 2168.04,-121.05 2173.42,-119.48"/>
</a>
</g>
</g>
<!-- 37 -->
<g id="node38" class="node node0 node35 node37">
<title>37</title>
<g id="a_node38"><a xlink:title="serde_spanned v1.0.3&#10;0 B&#10;alloc,&#10;serde,&#10;std">
<ellipse fill="#d858fa" stroke="#ffffff" stroke-width="1.2" cx="1730.75" cy="-285.63" rx="0.36" ry="0.36"/>
<text xml:space="preserve" text-anchor="middle" x="1730.75" y="-279.4" font-family="monospace" font-size="18.00" fill="#ffffff">serde_spanned</text>
</a>
</g>
</g>
<!-- 35&#45;&gt;37 -->
<g id="edge43" class="edge node0 node35">
<title>35&#45;&gt;37</title>
<g id="a_edge43"><a xlink:title="toml &#45;&gt; serde_spanned">
<path fill="none" stroke="#ffffff" stroke-width="1.6" stroke-opacity="0.623529" d="M1797.62,-490.87C1780.02,-479.29 1760.6,-463.16 1749.5,-443.35 1721.95,-394.16 1726.57,-322.81 1729.45,-296.69"/>
<polygon fill="none" stroke="#ffffff" stroke-width="1.6" stroke-opacity="0.623529" points="1732.18,-297.39 1730.43,-289.1 1726.63,-296.67 1732.18,-297.39"/>
</a>
</g>
<g id="a_edge43&#45;label"><a xlink:title="toml &#45;&gt; serde_spanned">
<text xml:space="preserve" text-anchor="middle" x="1803.12" y="-413.27" font-family="monospace" font-size="13.50" fill="#ffffff">serde(serde),</text>
<text xml:space="preserve" text-anchor="middle" x="1803.12" y="-396.02" font-family="monospace" font-size="13.50" fill="#ffffff">std(std)</text>
</a>
</g>
</g>
<!-- 38 -->
<g id="node39" class="node node0 node35 node38">
<title>38</title>
<g id="a_node39"><a xlink:title="toml_datetime v0.7.3&#10;5.74 KiB&#10;alloc,&#10;serde,&#10;std">
<ellipse fill="#e45fdf" stroke="#ffffff" stroke-width="1.2" cx="1917.75" cy="-285.63" rx="13.91" ry="13.91"/>
<text xml:space="preserve" text-anchor="middle" x="1917.75" y="-279.4" font-family="monospace" font-size="18.00" fill="#ffffff">toml_datetime</text>
</a>
</g>
</g>
<!-- 35&#45;&gt;38 -->
<g id="edge45" class="edge node0 node35">
<title>35&#45;&gt;38</title>
<g id="a_edge45"><a xlink:title="toml &#45;&gt; toml_datetime">
<path fill="none" stroke="#ffffff" stroke-width="1.6" stroke-opacity="0.623529" d="M1850.5,-471.06C1867.95,-423.2 1896.34,-345.33 1909.97,-307.96"/>
<polygon fill="none" stroke="#ffffff" stroke-width="1.6" stroke-opacity="0.623529" points="1912.46,-309.31 1912.57,-300.83 1907.2,-307.39 1912.46,-309.31"/>
</a>
</g>
<g id="a_edge45&#45;label"><a xlink:title="toml &#45;&gt; toml_datetime">
<text xml:space="preserve" text-anchor="middle" x="1937.72" y="-413.27" font-family="monospace" font-size="13.50" fill="#ffffff">serde(serde),</text>
<text xml:space="preserve" text-anchor="middle" x="1937.72" y="-396.02" font-family="monospace" font-size="13.50" fill="#ffffff">std(std)</text>
</a>
</g>
</g>
<!-- 39 -->
<g id="node40" class="node node0 node35 node39">
<title>39</title>
<g id="a_node40"><a xlink:title="toml_parser v1.0.4&#10;44.80 KiB&#10;alloc,&#10;std">
<ellipse fill="#b33059" stroke="#ffffff" stroke-width="1.2" cx="2093.75" cy="-285.63" rx="39.11" ry="39.11"/>
<text xml:space="preserve" text-anchor="middle" x="2093.75" y="-279.4" font-family="monospace" font-size="18.00" fill="#ffffff">toml_parser</text>
</a>
</g>
</g>
<!-- 35&#45;&gt;39 -->
<g id="edge47" class="edge node0 node35">
<title>35&#45;&gt;39</title>
<g id="a_edge47"><a xlink:title="toml &#45;&gt; toml_parser">
<path fill="none" stroke="#ffffff" stroke-width="1.6" stroke-opacity="0.623529" d="M1878.22,-501.48C1913.38,-491.45 1963.03,-473.17 1997.75,-443.35 2033.26,-412.84 2059.59,-365.83 2075.61,-331.25"/>
<polygon fill="none" stroke="#ffffff" stroke-width="1.6" stroke-opacity="0.623529" points="2078.12,-332.5 2078.86,-324.06 2073.02,-330.2 2078.12,-332.5"/>
</a>
</g>
<g id="a_edge47&#45;label"><a xlink:title="toml &#45;&gt; toml_parser">
<text xml:space="preserve" text-anchor="middle" x="2084.02" y="-404.65" font-family="monospace" font-size="13.50" fill="#ffffff">std(std)</text>
</a>
</g>
</g>
<!-- 37&#45;&gt;27 -->
<g id="edge44" class="edge node0 node35 node37">
<title>37&#45;&gt;27</title>
<g id="a_edge44"><a xlink:title="serde_spanned &#45;&gt; serde_core">
<path fill="none" stroke="#ffffff" stroke-width="1.6" stroke-opacity="0.623529" d="M1730.72,-284.5C1729.74,-280.78 1707.39,-195.97 1694.22,-146.01"/>
<polygon fill="none" stroke="#ffffff" stroke-width="1.6" stroke-opacity="0.623529" points="1697,-145.58 1692.26,-138.56 1691.59,-147.01 1697,-145.58"/>
</a>
</g>
<g id="a_edge44&#45;label"><a xlink:title="serde_spanned &#45;&gt; serde_core">
<text xml:space="preserve" text-anchor="middle" x="1760" y="-184.08" font-family="monospace" font-size="13.50" fill="#ffffff">alloc(alloc),</text>
<text xml:space="preserve" text-anchor="middle" x="1760" y="-166.83" font-family="monospace" font-size="13.50" fill="#ffffff">std(std)</text>
</a>
</g>
</g>
<!-- 38&#45;&gt;27 -->
<g id="edge46" class="edge node0 node35 node38">
<title>38&#45;&gt;27</title>
<g id="a_edge46"><a xlink:title="toml_datetime &#45;&gt; serde_core">
<path fill="none" stroke="#ffffff" stroke-width="1.6" stroke-opacity="0.623529" d="M1911.63,-273.55C1898.06,-249.94 1863.19,-194.23 1819.75,-162.4 1790.31,-140.84 1750.85,-126.9 1722.2,-118.88"/>
<polygon fill="none" stroke="#ffffff" stroke-width="1.6" stroke-opacity="0.623529" points="1722.96,-116.19 1714.51,-116.82 1721.51,-121.59 1722.96,-116.19"/>
</a>
</g>
<g id="a_edge46&#45;label"><a xlink:title="toml_datetime &#45;&gt; serde_core">
<text xml:space="preserve" text-anchor="middle" x="1908.07" y="-184.08" font-family="monospace" font-size="13.50" fill="#ffffff">alloc(alloc),</text>
<text xml:space="preserve" text-anchor="middle" x="1908.07" y="-166.83" font-family="monospace" font-size="13.50" fill="#ffffff">std(std)</text>
</a>
</g>
</g>
<!-- 39&#45;&gt;36 -->
<g id="edge48" class="edge node0 node35 node39">
<title>39&#45;&gt;36</title>
<g id="a_edge48"><a xlink:title="toml_parser &#45;&gt; winnow">
<path fill="none" stroke="#ffffff" stroke-width="1.6" stroke-opacity="0.623529" d="M2108.55,-249.72C2125.79,-209.05 2153.24,-144.3 2163.61,-119.85"/>
<polygon fill="none" stroke="#ffffff" stroke-width="1.6" stroke-opacity="0.623529" points="2166.15,-121.02 2166.7,-112.56 2161,-118.84 2166.15,-121.02"/>
</a>
</g>
</g>
</g>
</svg>
