<?xml version="1.0" encoding="UTF-8" standalone="no"?>
<!DOCTYPE svg PUBLIC "-//W3C//DTD SVG 1.1//EN"
 "http://www.w3.org/Graphics/SVG/1.1/DTD/svg11.dtd">
<!-- Generated by graphviz version 13.1.2 (20250808.2320)
 -->
<!-- Pages: 1 -->
<svg width="2343pt" height="715pt"
 viewBox="0.00 0.00 2343.00 715.00" xmlns="http://www.w3.org/2000/svg" xmlns:xlink="http://www.w3.org/1999/xlink">
<style>
.graph:has(.node0:hover) > g:not(.node0) { opacity: 0.39999998 }
.graph:has(.node1:hover) > g:not(.node1) { opacity: 0.39999998 }
.graph:has(.node3:hover) > g:not(.node3) { opacity: 0.39999998 }
.graph:has(.node4:hover) > g:not(.node4) { opacity: 0.39999998 }
.graph:has(.node5:hover) > g:not(.node5) { opacity: 0.39999998 }
.graph:has(.node6:hover) > g:not(.node6) { opacity: 0.39999998 }
.graph:has(.node7:hover) > g:not(.node7) { opacity: 0.39999998 }
.graph:has(.node8:hover) > g:not(.node8) { opacity: 0.39999998 }
.graph:has(.node9:hover) > g:not(.node9) { opacity: 0.39999998 }
.graph:has(.node10:hover) > g:not(.node10) { opacity: 0.39999998 }
.graph:has(.node11:hover) > g:not(.node11) { opacity: 0.39999998 }
.graph:has(.node12:hover) > g:not(.node12) { opacity: 0.39999998 }
.graph:has(.node13:hover) > g:not(.node13) { opacity: 0.39999998 }
.graph:has(.node14:hover) > g:not(.node14) { opacity: 0.39999998 }
.graph:has(.node15:hover) > g:not(.node15) { opacity: 0.39999998 }
.graph:has(.node18:hover) > g:not(.node18) { opacity: 0.39999998 }
.graph:has(.node19:hover) > g:not(.node19) { opacity: 0.39999998 }
.graph:has(.node20:hover) > g:not(.node20) { opacity: 0.39999998 }
.graph:has(.node21:hover) > g:not(.node21) { opacity: 0.39999998 }
.graph:has(.node23:hover) > g:not(.node23) { opacity: 0.39999998 }
.graph:has(.node25:hover) > g:not(.node25) { opacity: 0.39999998 }
.graph:has(.node26:hover) > g:not(.node26) { opacity: 0.39999998 }
.graph:has(.node27:hover) > g:not(.node27) { opacity: 0.39999998 }
.graph:has(.node28:hover) > g:not(.node28) { opacity: 0.39999998 }
.graph:has(.node29:hover) > g:not(.node29) { opacity: 0.39999998 }
.graph:has(.node31:hover) > g:not(.node31) { opacity: 0.39999998 }
.graph:has(.node32:hover) > g:not(.node32) { opacity: 0.39999998 }
.graph:has(.node33:hover) > g:not(.node33) { opacity: 0.39999998 }
.graph:has(.node34:hover) > g:not(.node34) { opacity: 0.39999998 }
.graph:has(.node35:hover) > g:not(.node35) { opacity: 0.39999998 }
.graph:has(.node36:hover) > g:not(.node36) { opacity: 0.39999998 }
.graph:has(.node37:hover) > g:not(.node37) { opacity: 0.39999998 }
.graph:has(.node38:hover) > g:not(.node38) { opacity: 0.39999998 }
.graph:has(.node39:hover) > g:not(.node39) { opacity: 0.39999998 }
.graph:has(.node40:hover) > g:not(.node40) { opacity: 0.39999998 }
</style>
<g id="graph0" class="graph" transform="scale(1 1) rotate(0) translate(72 643.23)">
<polygon fill="white" stroke="none" points="-72,72 -72,-643.23 2270.5,-643.23 2270.5,72 -72,72"/>
<!-- 0 -->
<g id="node1" class="node node0">
<title>0</title>
<g id="a_node1"><a xlink:title="pugio v0.1.4 (/home/my4ng/Programming/pugio)&#10;116.50 KiB">
<ellipse fill="#08306b" stroke="#000000" stroke-width="1.44" stroke-opacity="0.623529" cx="1003.25" cy="-517.99" rx="53.24" ry="53.24"/>
<text xml:space="preserve" text-anchor="middle" x="1003.25" y="-510.97" font-family="monospace" font-size="21.60">pugio</text>
</a>
</g>
</g>
<!-- 1 -->
<g id="node2" class="node node0 node1">
<title>1</title>
<g id="a_node2"><a xlink:title="anyhow v1.0.100&#10;10.54 KiB">
<ellipse fill="#a3cce4" stroke="#000000" stroke-width="1.44" stroke-opacity="0.623529" cx="224.25" cy="-380.97" rx="20.18" ry="20.18"/>
<text xml:space="preserve" text-anchor="middle" x="224.25" y="-373.95" font-family="monospace" font-size="21.60">anyhow</text>
</a>
</g>
</g>
<!-- 0&#45;&gt;1 -->
<g id="edge1" class="edge node0">
<title>0&#45;&gt;1</title>
<g id="a_edge1"><a xlink:title="pugio &#45;&gt; anyhow">
<path fill="none" stroke="#000000" stroke-width="1.92" stroke-opacity="0.623529" d="M950.44,-513.62C805.69,-503.86 405.31,-473.13 283.25,-424.75 271.18,-419.96 259.3,-412.14 249.4,-404.48"/>
<polygon fill="none" stroke="#000000" stroke-width="1.92" stroke-opacity="0.623529" points="252.22,-401.36 240.3,-396.96 246.87,-407.84 252.22,-401.36"/>
</a>
</g>
</g>
<!-- 3 -->
<g id="node3" class="node node0 node3">
<title>3</title>
<g id="a_node3"><a xlink:title="clap v4.5.53&#10;0 B">
<ellipse fill="#1e6cb0" stroke="#000000" stroke-width="1.44" stroke-opacity="0.623529" cx="328.25" cy="-380.97" rx="0.36" ry="0.36"/>
<text xml:space="preserve" text-anchor="middle" x="328.25" y="-373.95" font-family="monospace" font-size="21.60">clap</text>
</a>
</g>
</g>
<!-- 0&#45;&gt;3 -->
<g id="edge2" class="edge node0">
<title>0&#45;&gt;3</title>
<g id="a_edge2"><a xlink:title="pugio &#45;&gt; clap">
<path fill="none" stroke="#000000" stroke-width="1.92" stroke-opacity="0.623529" d="M950.33,-513.37C817.83,-503.65 475.14,-474.31 373.25,-424.75 358.41,-417.53 345.23,-403.65 337.03,-393.66"/>
<polygon fill="none" stroke="#000000" stroke-width="1.92" stroke-opacity="0.623529" points="340.62,-391.45 330.06,-384.38 333.91,-396.5 340.62,-391.45"/>
</a>
</g>
</g>
<!-- 7 -->
<g id="node7" class="node node0 node7">
<title>7</title>
<g id="a_node7"><a xlink:title="colorgrad v0.8.0&#10;12.57 KiB">
<ellipse fill="#70b0d6" stroke="#000000" stroke-width="1.44" stroke-opacity="0.623529" cx="452.25" cy="-380.97" rx="22.22" ry="22.22"/>
<text xml:space="preserve" text-anchor="middle" x="452.25" y="-373.95" font-family="monospace" font-size="21.60">colorgrad</text>
</a>
</g>
</g>
<!-- 0&#45;&gt;7 -->
<g id="edge6" class="edge node0">
<title>0&#45;&gt;7</title>
<g id="a_edge6"><a xlink:title="pugio &#45;&gt; colorgrad">
<path fill="none" stroke="#000000" stroke-width="1.92" stroke-opacity="0.623529" d="M950.78,-509.7C865.94,-497.14 693.95,-468.49 553.25,-424.75 529.81,-417.46 504.36,-406.66 484.87,-397.74"/>
<polygon fill="none" stroke="#000000" stroke-width="1.92" stroke-opacity="0.623529" points="486.84,-394.02 474.19,-392.74 483.28,-401.63 486.84,-394.02"/>
</a>
</g>
</g>
<!-- 11 -->
<g id="node11" class="node node0 node11">
<title>11</title>
<g id="a_node11"><a xlink:title="humansize v2.1.3&#10;1.23 KiB">
<ellipse fill="#bed8ec" stroke="#000000" stroke-width="1.44" stroke-opacity="0.623529" cx="569.25" cy="-102.41" rx="4.18" ry="4.18"/>
<text xml:space="preserve" text-anchor="middle" x="569.25" y="-95.39" font-family="monospace" font-size="21.60">humansize</text>
</a>
</g>
</g>
<!-- 0&#45;&gt;11 -->
<g id="edge11" class="edge node0">
<title>0&#45;&gt;11</title>
<g id="a_edge11"><a xlink:title="pugio &#45;&gt; humansize">
<path fill="none" stroke="#000000" stroke-width="1.92" stroke-opacity="0.623529" d="M950.47,-512.9C849.88,-503.94 636.6,-478.88 590.25,-424.75 550.96,-378.87 563.04,-181.48 567.76,-121.06"/>
<polygon fill="none" stroke="#000000" stroke-width="1.92" stroke-opacity="0.623529" points="571.92,-121.63 568.73,-109.32 563.55,-120.93 571.92,-121.63"/>
</a>
</g>
</g>
<!-- 12 -->
<g id="node12" class="node node0 node12">
<title>12</title>
<g id="a_node12"><a xlink:title="open v5.3.3&#10;6.16 KiB">
<ellipse fill="#a5cde4" stroke="#000000" stroke-width="1.44" stroke-opacity="0.623529" cx="635.25" cy="-380.97" rx="14.57" ry="14.57"/>
<text xml:space="preserve" text-anchor="middle" x="635.25" y="-373.95" font-family="monospace" font-size="21.60">open</text>
</a>
</g>
</g>
<!-- 0&#45;&gt;12 -->
<g id="edge13" class="edge node0">
<title>0&#45;&gt;12</title>
<g id="a_edge13"><a xlink:title="pugio &#45;&gt; open">
<path fill="none" stroke="#000000" stroke-width="1.92" stroke-opacity="0.623529" d="M950.7,-509.69C884.43,-498.81 768.6,-474.07 681.25,-424.75 671.17,-419.06 661.54,-410.73 653.72,-402.93"/>
<polygon fill="none" stroke="#000000" stroke-width="1.92" stroke-opacity="0.623529" points="656.97,-400.26 645.7,-394.37 650.84,-406 656.97,-400.26"/>
</a>
</g>
</g>
<!-- 18 -->
<g id="node16" class="node node0 node18">
<title>18</title>
<g id="a_node16"><a xlink:title="parse_size v1.1.0&#10;1.17 KiB">
<ellipse fill="#cee1f2" stroke="#000000" stroke-width="1.44" stroke-opacity="0.623529" cx="766.25" cy="-380.97" rx="4.01" ry="4.01"/>
<text xml:space="preserve" text-anchor="middle" x="766.25" y="-373.95" font-family="monospace" font-size="21.60">parse_size</text>
</a>
</g>
</g>
<!-- 0&#45;&gt;18 -->
<g id="edge18" class="edge node0">
<title>0&#45;&gt;18</title>
<g id="a_edge18"><a xlink:title="pugio &#45;&gt; parse_size">
<path fill="none" stroke="#000000" stroke-width="1.92" stroke-opacity="0.623529" d="M957.55,-490.96C903.46,-460.14 816.3,-410.49 781.41,-390.61"/>
<polygon fill="none" stroke="#000000" stroke-width="1.92" stroke-opacity="0.623529" points="783.88,-387.18 771.38,-384.89 779.72,-394.48 783.88,-387.18"/>
</a>
</g>
</g>
<!-- 19 -->
<g id="node17" class="node node0 node19">
<title>19</title>
<g id="a_node17"><a xlink:title="petgraph v0.8.3&#10;5.95 KiB">
<ellipse fill="#9cc8e1" stroke="#000000" stroke-width="1.44" stroke-opacity="0.623529" cx="924.25" cy="-380.97" rx="14.24" ry="14.24"/>
<text xml:space="preserve" text-anchor="middle" x="924.25" y="-373.95" font-family="monospace" font-size="21.60">petgraph</text>
</a>
</g>
</g>
<!-- 0&#45;&gt;19 -->
<g id="edge19" class="edge node0">
<title>0&#45;&gt;19</title>
<g id="a_edge19"><a xlink:title="pugio &#45;&gt; petgraph">
<path fill="none" stroke="#000000" stroke-width="1.92" stroke-opacity="0.623529" d="M976.94,-472.03C964.06,-450.01 949.06,-424.37 938.37,-406.1"/>
<polygon fill="none" stroke="#000000" stroke-width="1.92" stroke-opacity="0.623529" points="942.14,-404.23 932.45,-395.99 934.89,-408.47 942.14,-404.23"/>
</a>
</g>
</g>
<!-- 26 -->
<g id="node22" class="node node0 node26">
<title>26</title>
<g id="a_node22"><a xlink:title="regex_lite v0.1.8&#10;46.25 KiB">
<ellipse fill="#68abd4" stroke="#000000" stroke-width="1.44" stroke-opacity="0.623529" cx="1082.25" cy="-380.97" rx="39.57" ry="39.57"/>
<text xml:space="preserve" text-anchor="middle" x="1082.25" y="-373.95" font-family="monospace" font-size="21.60">regex_lite</text>
</a>
</g>
</g>
<!-- 0&#45;&gt;26 -->
<g id="edge24" class="edge node0">
<title>0&#45;&gt;26</title>
<g id="a_edge24"><a xlink:title="pugio &#45;&gt; regex_lite">
<path fill="none" stroke="#000000" stroke-width="1.92" stroke-opacity="0.623529" d="M1029.56,-472.03C1037.87,-457.82 1047.07,-442.1 1055.42,-427.82"/>
<polygon fill="none" stroke="#000000" stroke-width="1.92" stroke-opacity="0.623529" points="1058.9,-430.19 1061.34,-417.71 1051.65,-425.95 1058.9,-430.19"/>
</a>
</g>
</g>
<!-- 27 -->
<g id="node23" class="node node0 node0 node35 node27">
<title>27</title>
<g id="a_node23"><a xlink:title="serde v1.0.228&#10;318 B">
<ellipse fill="#bed8ec" stroke="#000000" stroke-width="1.44" stroke-opacity="0.623529" cx="1422.25" cy="-233.51" rx="1.17" ry="1.17"/>
<text xml:space="preserve" text-anchor="middle" x="1422.25" y="-226.49" font-family="monospace" font-size="21.60">serde</text>
</a>
</g>
</g>
<!-- 0&#45;&gt;27 -->
<g id="edge25" class="edge node0">
<title>0&#45;&gt;27</title>
<g id="a_edge25"><a xlink:title="pugio &#45;&gt; serde">
<path fill="none" stroke="#000000" stroke-width="1.92" stroke-opacity="0.623529" d="M1056.13,-512.6C1155.19,-503.21 1362.82,-477.58 1408.25,-424.75 1452.14,-373.7 1435.16,-283.78 1426.3,-248.9"/>
<polygon fill="none" stroke="#000000" stroke-width="1.92" stroke-opacity="0.623529" points="1430.36,-247.82 1423.07,-237.4 1422.27,-250.09 1430.36,-247.82"/>
</a>
</g>
</g>
<!-- 29 -->
<g id="node25" class="node node0 node0 node35 node29">
<title>29</title>
<g id="a_node25"><a xlink:title="serde_json v1.0.145&#10;15.99 KiB">
<ellipse fill="#80b9da" stroke="#000000" stroke-width="1.44" stroke-opacity="0.623529" cx="1285.25" cy="-233.51" rx="25.16" ry="25.16"/>
<text xml:space="preserve" text-anchor="middle" x="1285.25" y="-226.49" font-family="monospace" font-size="21.60">serde_json</text>
</a>
</g>
</g>
<!-- 0&#45;&gt;29 -->
<g id="edge27" class="edge node0">
<title>0&#45;&gt;29</title>
<g id="a_edge27"><a xlink:title="pugio &#45;&gt; serde_json">
<path fill="none" stroke="#000000" stroke-width="1.92" stroke-opacity="0.623529" d="M1052.53,-498.93C1088.4,-483.73 1136.12,-458.95 1168.25,-424.75 1197.8,-393.29 1188.1,-374.23 1210.25,-337.19 1225.47,-311.74 1245.38,-284.72 1260.85,-264.79"/>
<polygon fill="none" stroke="#000000" stroke-width="1.92" stroke-opacity="0.623529" points="1264.14,-267.4 1268.26,-255.38 1257.54,-262.21 1264.14,-267.4"/>
</a>
</g>
</g>
<!-- 33 -->
<g id="node28" class="node node0 node33">
<title>33</title>
<g id="a_node28"><a xlink:title="serde_with v3.16.0&#10;0 B">
<ellipse fill="#c0d9ed" stroke="#000000" stroke-width="1.44" stroke-opacity="0.623529" cx="1536.25" cy="-380.97" rx="0.36" ry="0.36"/>
<text xml:space="preserve" text-anchor="middle" x="1536.25" y="-373.95" font-family="monospace" font-size="21.60">serde_with</text>
</a>
</g>
</g>
<!-- 0&#45;&gt;33 -->
<g id="edge31" class="edge node0">
<title>0&#45;&gt;33</title>
<g id="a_edge31"><a xlink:title="pugio &#45;&gt; serde_with">
<path fill="none" stroke="#000000" stroke-width="1.92" stroke-opacity="0.623529" d="M1055.67,-510.1C1139.51,-498.2 1308.27,-470.54 1445.25,-424.75 1474.12,-415.1 1505.88,-398.75 1523.2,-389.3"/>
<polygon fill="none" stroke="#000000" stroke-width="1.92" stroke-opacity="0.623529" points="1525.17,-393.01 1533.58,-383.48 1521.06,-385.69 1525.17,-393.01"/>
</a>
</g>
</g>
<!-- 34 -->
<g id="node29" class="node node0 node34">
<title>34</title>
<g id="a_node29"><a xlink:title="strum v0.27.2&#10;63 B">
<ellipse fill="#e3eef9" stroke="#000000" stroke-width="1.44" stroke-opacity="0.623529" cx="1855.25" cy="-380.97" rx="0.36" ry="0.36"/>
<text xml:space="preserve" text-anchor="middle" x="1855.25" y="-373.95" font-family="monospace" font-size="21.60">strum</text>
</a>
</g>
</g>
<!-- 0&#45;&gt;34 -->
<g id="edge33" class="edge node0">
<title>0&#45;&gt;34</title>
<g id="a_edge33"><a xlink:title="pugio &#45;&gt; strum">
<path fill="none" stroke="#000000" stroke-width="1.92" stroke-opacity="0.623529" d="M1056.13,-514.79C1212.05,-507.68 1667.49,-482.4 1803.25,-424.75 1820.14,-417.58 1835.86,-403.12 1845.5,-393.01"/>
<polygon fill="none" stroke="#000000" stroke-width="1.92" stroke-opacity="0.623529" points="1848.45,-396.01 1853.25,-384.24 1842.16,-390.45 1848.45,-396.01"/>
</a>
</g>
</g>
<!-- 35 -->
<g id="node30" class="node node0 node35">
<title>35</title>
<g id="a_node30"><a xlink:title="tinytemplate v1.2.1&#10;35.75 KiB">
<ellipse fill="#63a8d2" stroke="#000000" stroke-width="1.44" stroke-opacity="0.623529" cx="1309.25" cy="-380.97" rx="35.9" ry="35.9"/>
<text xml:space="preserve" text-anchor="middle" x="1309.25" y="-373.95" font-family="monospace" font-size="21.60">tinytemplate</text>
</a>
</g>
</g>
<!-- 0&#45;&gt;35 -->
<g id="edge34" class="edge node0">
<title>0&#45;&gt;35</title>
<g id="a_edge34"><a xlink:title="pugio &#45;&gt; tinytemplate">
<path fill="none" stroke="#000000" stroke-width="1.92" stroke-opacity="0.623529" d="M1051.4,-495.74C1109.43,-470.14 1206.23,-427.43 1263.27,-402.26"/>
<polygon fill="none" stroke="#000000" stroke-width="1.92" stroke-opacity="0.623529" points="1264.93,-406.12 1274.21,-397.43 1261.54,-398.43 1264.93,-406.12"/>
</a>
</g>
</g>
<!-- 36 -->
<g id="node31" class="node node0 node36">
<title>36</title>
<g id="a_node31"><a xlink:title="toml v0.9.8&#10;61.78 KiB">
<ellipse fill="#3b8ac2" stroke="#000000" stroke-width="1.44" stroke-opacity="0.623529" cx="1749.25" cy="-380.97" rx="43.78" ry="43.78"/>
<text xml:space="preserve" text-anchor="middle" x="1749.25" y="-373.95" font-family="monospace" font-size="21.60">toml</text>
</a>
</g>
</g>
<!-- 0&#45;&gt;36 -->
<g id="edge37" class="edge node0">
<title>0&#45;&gt;36</title>
<g id="a_edge37"><a xlink:title="pugio &#45;&gt; toml">
<path fill="none" stroke="#000000" stroke-width="1.92" stroke-opacity="0.623529" d="M1056.02,-512.31C1163.65,-502.06 1415.74,-474.5 1622.25,-424.75 1646.46,-418.91 1672.63,-410.48 1694.89,-402.64"/>
<polygon fill="none" stroke="#000000" stroke-width="1.92" stroke-opacity="0.623529" points="1696.29,-406.6 1706.16,-398.59 1693.44,-398.7 1696.29,-406.6"/>
</a>
</g>
</g>
<!-- 4 -->
<g id="node4" class="node node0 node3 node4">
<title>4</title>
<g id="a_node4"><a xlink:title="clap_builder v4.5.53&#10;230.96 KiB">
<ellipse fill="#1e6cb0" stroke="#000000" stroke-width="1.44" stroke-opacity="0.623529" cx="178.25" cy="-233.51" rx="63.68" ry="63.68"/>
<text xml:space="preserve" text-anchor="middle" x="178.25" y="-226.49" font-family="monospace" font-size="21.60">clap_builder</text>
</a>
</g>
</g>
<!-- 3&#45;&gt;4 -->
<g id="edge3" class="edge node0 node3">
<title>3&#45;&gt;4</title>
<g id="a_edge3"><a xlink:title="clap &#45;&gt; clap_builder">
<path fill="none" stroke="#000000" stroke-width="1.92" stroke-opacity="0.623529" d="M328.14,-379.87C325.51,-377.31 275.45,-328.77 233.89,-288.47"/>
<polygon fill="none" stroke="#000000" stroke-width="1.92" stroke-opacity="0.623529" points="236.9,-285.53 225.36,-280.2 231.05,-291.56 236.9,-285.53"/>
</a>
</g>
</g>
<!-- 5 -->
<g id="node5" class="node node0 node3 node4 node5">
<title>5</title>
<g id="a_node5"><a xlink:title="anstyle v1.0.13&#10;2.06 KiB">
<ellipse fill="#c7ddef" stroke="#000000" stroke-width="1.44" stroke-opacity="0.623529" cx="55.25" cy="-102.41" rx="6.5" ry="6.5"/>
<text xml:space="preserve" text-anchor="middle" x="55.25" y="-95.39" font-family="monospace" font-size="21.60">anstyle</text>
</a>
</g>
</g>
<!-- 4&#45;&gt;5 -->
<g id="edge4" class="edge node0 node3 node4">
<title>4&#45;&gt;5</title>
<g id="a_edge4"><a xlink:title="clap_builder &#45;&gt; anstyle">
<path fill="none" stroke="#000000" stroke-width="1.92" stroke-opacity="0.623529" d="M134.88,-187C111.74,-162.71 84.84,-134.47 68.98,-117.82"/>
<polygon fill="none" stroke="#000000" stroke-width="1.92" stroke-opacity="0.623529" points="72.22,-115.14 60.9,-109.35 66.14,-120.93 72.22,-115.14"/>
</a>
</g>
</g>
<!-- 6 -->
<g id="node6" class="node node0 node3 node4 node6">
<title>6</title>
<g id="a_node6"><a xlink:title="clap_lex v0.7.6&#10;1.08 KiB">
<ellipse fill="#cfe1f2" stroke="#000000" stroke-width="1.44" stroke-opacity="0.623529" cx="192.25" cy="-102.41" rx="3.72" ry="3.72"/>
<text xml:space="preserve" text-anchor="middle" x="192.25" y="-95.39" font-family="monospace" font-size="21.60">clap_lex</text>
</a>
</g>
</g>
<!-- 4&#45;&gt;6 -->
<g id="edge5" class="edge node0 node3 node4">
<title>4&#45;&gt;6</title>
<g id="a_edge5"><a xlink:title="clap_builder &#45;&gt; clap_lex">
<path fill="none" stroke="#000000" stroke-width="1.92" stroke-opacity="0.623529" d="M185,-170.23C186.99,-151.95 188.99,-133.43 190.39,-120.54"/>
<polygon fill="none" stroke="#000000" stroke-width="1.92" stroke-opacity="0.623529" points="194.56,-121.03 191.68,-108.65 186.21,-120.13 194.56,-121.03"/>
</a>
</g>
</g>
<!-- 8 -->
<g id="node8" class="node node0 node7 node8">
<title>8</title>
<g id="a_node8"><a xlink:title="csscolorparser v0.8.0&#10;21.41 KiB">
<ellipse fill="#86bcdc" stroke="#000000" stroke-width="1.44" stroke-opacity="0.623529" cx="434.25" cy="-233.51" rx="28.91" ry="28.91"/>
<text xml:space="preserve" text-anchor="middle" x="434.25" y="-226.49" font-family="monospace" font-size="21.60">csscolorparser</text>
</a>
</g>
</g>
<!-- 7&#45;&gt;8 -->
<g id="edge7" class="edge node0 node7">
<title>7&#45;&gt;8</title>
<g id="a_edge7"><a xlink:title="colorgrad &#45;&gt; csscolorparser">
<path fill="none" stroke="#000000" stroke-width="1.92" stroke-opacity="0.623529" d="M449.67,-359.13C447.02,-337.69 442.81,-303.69 439.46,-276.62"/>
<polygon fill="none" stroke="#000000" stroke-width="1.92" stroke-opacity="0.623529" points="443.65,-276.3 438.01,-264.91 435.32,-277.33 443.65,-276.3"/>
</a>
</g>
</g>
<!-- 10 -->
<g id="node10" class="node node0 node7 node0 node7 node8 node9 node0 node11 node10">
<title>10</title>
<g id="a_node10"><a xlink:title="libm v0.2.15&#10;7.04 KiB">
<ellipse fill="#afd1e7" stroke="#000000" stroke-width="1.44" stroke-opacity="0.623529" cx="405.25" cy="-17.5" rx="15.88" ry="15.88"/>
<text xml:space="preserve" text-anchor="middle" x="405.25" y="-10.48" font-family="monospace" font-size="21.60">libm</text>
</a>
</g>
</g>
<!-- 7&#45;&gt;10 -->
<g id="edge10" class="edge node0 node7">
<title>7&#45;&gt;10</title>
<g id="a_edge10"><a xlink:title="colorgrad &#45;&gt; libm">
<path fill="none" stroke="#000000" stroke-width="1.92" stroke-opacity="0.623529" d="M433.5,-369.46C398.82,-349.82 327.58,-308.52 321.25,-297.19 273.07,-210.98 272.36,-161.91 319.25,-75 331.41,-52.46 356.91,-37.45 377.01,-28.6"/>
<polygon fill="none" stroke="#000000" stroke-width="1.92" stroke-opacity="0.623529" points="378.43,-32.56 388.01,-24.2 375.31,-24.76 378.43,-32.56"/>
</a>
</g>
</g>
<!-- 9 -->
<g id="node9" class="node node0 node7 node8 node9">
<title>9</title>
<g id="a_node9"><a xlink:title="num_traits v0.2.19&#10;0 B">
<ellipse fill="#c5dcef" stroke="#000000" stroke-width="1.44" stroke-opacity="0.623529" cx="405.25" cy="-102.41" rx="0.36" ry="0.36"/>
<text xml:space="preserve" text-anchor="middle" x="405.25" y="-95.39" font-family="monospace" font-size="21.60">num_traits</text>
</a>
</g>
</g>
<!-- 8&#45;&gt;9 -->
<g id="edge8" class="edge node0 node7 node8">
<title>8&#45;&gt;9</title>
<g id="a_edge8"><a xlink:title="csscolorparser &#45;&gt; num_traits">
<path fill="none" stroke="#000000" stroke-width="1.92" stroke-opacity="0.623529" d="M428.17,-205.45C422.19,-178.81 413.27,-139.14 408.52,-117.97"/>
<polygon fill="none" stroke="#000000" stroke-width="1.92" stroke-opacity="0.623529" points="412.63,-117.08 405.9,-106.3 404.43,-118.93 412.63,-117.08"/>
</a>
</g>
</g>
<!-- 9&#45;&gt;10 -->
<g id="edge9" class="edge node0 node7 node8 node9">
<title>9&#45;&gt;10</title>
<g id="a_edge9"><a xlink:title="num_traits &#45;&gt; libm">
<path fill="none" stroke="#000000" stroke-width="1.92" stroke-opacity="0.623529" d="M405.25,-101.35C405.25,-99.87 405.25,-71.27 405.25,-48.08"/>
<polygon fill="none" stroke="#000000" stroke-width="1.92" stroke-opacity="0.623529" points="409.45,-48.19 405.25,-36.19 401.05,-48.19 409.45,-48.19"/>
</a>
</g>
</g>
<!-- 11&#45;&gt;10 -->
<g id="edge12" class="edge node0 node11">
<title>11&#45;&gt;10</title>
<g id="a_edge12"><a xlink:title="humansize &#45;&gt; libm">
<path fill="none" stroke="#000000" stroke-width="1.92" stroke-opacity="0.623529" d="M566.12,-99.83C549.8,-91.58 473.59,-53.05 432.19,-32.12"/>
<polygon fill="none" stroke="#000000" stroke-width="1.92" stroke-opacity="0.623529" points="434.11,-28.39 421.51,-26.72 430.32,-35.88 434.11,-28.39"/>
</a>
</g>
</g>
<!-- 13 -->
<g id="node13" class="node node0 node12 node13">
<title>13</title>
<g id="a_node13"><a xlink:title="is_wsl v0.4.0&#10;0 B">
<ellipse fill="#bdd8ec" stroke="#000000" stroke-width="1.44" stroke-opacity="0.623529" cx="655.25" cy="-233.51" rx="0.36" ry="0.36"/>
<text xml:space="preserve" text-anchor="middle" x="655.25" y="-226.49" font-family="monospace" font-size="21.60">is_wsl</text>
</a>
</g>
</g>
<!-- 12&#45;&gt;13 -->
<g id="edge14" class="edge node0 node12">
<title>12&#45;&gt;13</title>
<g id="a_edge14"><a xlink:title="open &#45;&gt; is_wsl">
<path fill="none" stroke="#000000" stroke-width="1.92" stroke-opacity="0.623529" d="M637.1,-366.55C640.85,-339.27 649.33,-277.55 653.23,-249.23"/>
<polygon fill="none" stroke="#000000" stroke-width="1.92" stroke-opacity="0.623529" points="657.37,-249.92 654.84,-237.46 649.05,-248.78 657.37,-249.92"/>
</a>
</g>
</g>
<!-- 14 -->
<g id="node14" class="node node0 node12 node13 node14">
<title>14</title>
<g id="a_node14"><a xlink:title="is_docker v0.2.0&#10;0 B">
<ellipse fill="#c8def0" stroke="#000000" stroke-width="1.44" stroke-opacity="0.623529" cx="769.25" cy="-102.41" rx="0.36" ry="0.36"/>
<text xml:space="preserve" text-anchor="middle" x="769.25" y="-95.39" font-family="monospace" font-size="21.60">is_docker</text>
</a>
</g>
</g>
<!-- 13&#45;&gt;14 -->
<g id="edge15" class="edge node0 node12 node13">
<title>13&#45;&gt;14</title>
<g id="a_edge15"><a xlink:title="is_wsl &#45;&gt; is_docker">
<path fill="none" stroke="#000000" stroke-width="1.92" stroke-opacity="0.623529" d="M655.33,-232.42C658.15,-229.23 732.07,-145.51 759.3,-114.68"/>
<polygon fill="none" stroke="#000000" stroke-width="1.92" stroke-opacity="0.623529" points="762.45,-117.46 767.25,-105.68 756.16,-111.9 762.45,-117.46"/>
</a>
</g>
</g>
<!-- 15 -->
<g id="node15" class="node node0 node12 node13 node0 node12 node13 node14 node15">
<title>15</title>
<g id="a_node15"><a xlink:title="once_cell v1.21.3&#10;3.68 KiB">
<ellipse fill="#bdd8ec" stroke="#000000" stroke-width="1.44" stroke-opacity="0.623529" cx="719.25" cy="-17.5" rx="10.21" ry="10.21"/>
<text xml:space="preserve" text-anchor="middle" x="719.25" y="-10.48" font-family="monospace" font-size="21.60">once_cell</text>
</a>
</g>
</g>
<!-- 13&#45;&gt;15 -->
<g id="edge17" class="edge node0 node12 node13">
<title>13&#45;&gt;15</title>
<g id="a_edge17"><a xlink:title="is_wsl &#45;&gt; once_cell">
<path fill="none" stroke="#000000" stroke-width="1.92" stroke-opacity="0.623529" d="M655.26,-232.45C655.59,-229.7 666.28,-141.4 690.25,-75 694.73,-62.59 701.35,-49.45 707.14,-38.96"/>
<polygon fill="none" stroke="#000000" stroke-width="1.92" stroke-opacity="0.623529" points="710.66,-41.27 713,-28.78 703.38,-37.08 710.66,-41.27"/>
</a>
</g>
</g>
<!-- 14&#45;&gt;15 -->
<g id="edge16" class="edge node0 node12 node13 node14">
<title>14&#45;&gt;15</title>
<g id="a_edge16"><a xlink:title="is_docker &#45;&gt; once_cell">
<path fill="none" stroke="#000000" stroke-width="1.92" stroke-opacity="0.623529" d="M769.21,-101.35C768.2,-99.67 745.93,-62.75 731.47,-38.77"/>
<polygon fill="none" stroke="#000000" stroke-width="1.92" stroke-opacity="0.623529" points="735.2,-36.82 725.41,-28.71 728.01,-41.15 735.2,-36.82"/>
</a>
</g>
</g>
<!-- 20 -->
<g id="node18" class="node node0 node19 node20">
<title>20</title>
<g id="a_node18"><a xlink:title="fixedbitset v0.5.7&#10;147 B">
<ellipse fill="#dfebf7" stroke="#000000" stroke-width="1.44" stroke-opacity="0.623529" cx="950.25" cy="-233.51" rx="0.55" ry="0.55"/>
<text xml:space="preserve" text-anchor="middle" x="950.25" y="-226.49" font-family="monospace" font-size="21.60">fixedbitset</text>
</a>
</g>
</g>
<!-- 19&#45;&gt;20 -->
<g id="edge20" class="edge node0 node19">
<title>19&#45;&gt;20</title>
<g id="a_edge20"><a xlink:title="petgraph &#45;&gt; fixedbitset">
<path fill="none" stroke="#000000" stroke-width="1.92" stroke-opacity="0.623529" d="M926.56,-367.06C931.4,-339.96 942.6,-277.29 947.67,-248.92"/>
<polygon fill="none" stroke="#000000" stroke-width="1.92" stroke-opacity="0.623529" points="951.75,-249.99 949.73,-237.44 943.48,-248.52 951.75,-249.99"/>
</a>
</g>
</g>
<!-- 21 -->
<g id="node19" class="node node0 node19 node21">
<title>21</title>
<g id="a_node19"><a xlink:title="hashbrown v0.15.5&#10;3.57 KiB">
<ellipse fill="#bed8ec" stroke="#000000" stroke-width="1.44" stroke-opacity="0.623529" cx="1121.25" cy="-233.51" rx="9.97" ry="9.97"/>
<text xml:space="preserve" text-anchor="middle" x="1121.25" y="-226.49" font-family="monospace" font-size="21.60">hashbrown</text>
</a>
</g>
</g>
<!-- 19&#45;&gt;21 -->
<g id="edge21" class="edge node0 node19">
<title>19&#45;&gt;21</title>
<g id="a_edge21"><a xlink:title="petgraph &#45;&gt; hashbrown">
<path fill="none" stroke="#000000" stroke-width="1.92" stroke-opacity="0.623529" d="M935.47,-372.43C956.62,-358.13 1003.75,-325.93 1042.25,-297.19 1063.51,-281.32 1087.29,-262.27 1103.15,-249.37"/>
<polygon fill="none" stroke="#000000" stroke-width="1.92" stroke-opacity="0.623529" points="1105.5,-252.87 1112.13,-242.02 1100.19,-246.37 1105.5,-252.87"/>
</a>
</g>
</g>
<!-- 23 -->
<g id="node20" class="node node0 node19 node23">
<title>23</title>
<g id="a_node20"><a xlink:title="indexmap v2.12.1&#10;0 B">
<ellipse fill="#bed8ec" stroke="#000000" stroke-width="1.44" stroke-opacity="0.623529" cx="786.25" cy="-233.51" rx="0.36" ry="0.36"/>
<text xml:space="preserve" text-anchor="middle" x="786.25" y="-226.49" font-family="monospace" font-size="21.60">indexmap</text>
</a>
</g>
</g>
<!-- 19&#45;&gt;23 -->
<g id="edge22" class="edge node0 node19">
<title>19&#45;&gt;23</title>
<g id="a_edge22"><a xlink:title="petgraph &#45;&gt; indexmap">
<path fill="none" stroke="#000000" stroke-width="1.92" stroke-opacity="0.623529" d="M915.2,-370.43C890.52,-344.42 822.23,-272.43 796.36,-245.17"/>
<polygon fill="none" stroke="#000000" stroke-width="1.92" stroke-opacity="0.623529" points="799.63,-242.51 788.32,-236.69 793.53,-248.29 799.63,-242.51"/>
</a>
</g>
</g>
<!-- 25 -->
<g id="node21" class="node node0 node19 node23 node25">
<title>25</title>
<g id="a_node21"><a xlink:title="hashbrown v0.16.1&#10;3.57 KiB">
<ellipse fill="#bed8ec" stroke="#000000" stroke-width="1.44" stroke-opacity="0.623529" cx="927.25" cy="-102.41" rx="9.97" ry="9.97"/>
<text xml:space="preserve" text-anchor="middle" x="927.25" y="-95.39" font-family="monospace" font-size="21.60">hashbrown</text>
</a>
</g>
</g>
<!-- 23&#45;&gt;25 -->
<g id="edge23" class="edge node0 node19 node23">
<title>23&#45;&gt;25</title>
<g id="a_edge23"><a xlink:title="indexmap &#45;&gt; hashbrown">
<path fill="none" stroke="#000000" stroke-width="1.92" stroke-opacity="0.623529" d="M786.35,-232.42C789.66,-229.39 872.62,-153.43 909.67,-119.51"/>
<polygon fill="none" stroke="#000000" stroke-width="1.92" stroke-opacity="0.623529" points="912.49,-122.62 918.51,-111.42 906.82,-116.43 912.49,-122.62"/>
</a>
</g>
</g>
<!-- 28 -->
<g id="node24" class="node node0 node33 node0 node0 node35 node27 node0 node0 node35 node29 node0 node36 node0 node36 node37 node0 node36 node38 node28">
<title>28</title>
<g id="a_node24"><a xlink:title="serde_core v1.0.228&#10;19.10 KiB">
<ellipse fill="#8ec1de" stroke="#000000" stroke-width="1.44" stroke-opacity="0.623529" cx="1558.25" cy="-102.41" rx="27.41" ry="27.41"/>
<text xml:space="preserve" text-anchor="middle" x="1558.25" y="-95.39" font-family="monospace" font-size="21.60">serde_core</text>
</a>
</g>
</g>
<!-- 27&#45;&gt;28 -->
<g id="edge26" class="edge node0 node0 node35 node27">
<title>27&#45;&gt;28</title>
<g id="a_edge26"><a xlink:title="serde &#45;&gt; serde_core">
<path fill="none" stroke="#000000" stroke-width="1.92" stroke-opacity="0.623529" d="M1422.34,-232.41C1424.11,-230.24 1452.96,-195.12 1479.25,-169.83 1493.88,-155.76 1511.03,-141.14 1525.61,-129.21"/>
<polygon fill="none" stroke="#000000" stroke-width="1.92" stroke-opacity="0.623529" points="1528.18,-132.52 1534.87,-121.71 1522.9,-125.99 1528.18,-132.52"/>
</a>
</g>
</g>
<!-- 29&#45;&gt;28 -->
<g id="edge30" class="edge node0 node0 node35 node29">
<title>29&#45;&gt;28</title>
<g id="a_edge30"><a xlink:title="serde_json &#45;&gt; serde_core">
<path fill="none" stroke="#000000" stroke-width="1.92" stroke-opacity="0.623529" d="M1303.42,-216.62C1319.94,-202.79 1345.46,-182.97 1370.25,-169.83 1418.55,-144.22 1478.81,-124.93 1517.88,-113.91"/>
<polygon fill="none" stroke="#000000" stroke-width="1.92" stroke-opacity="0.623529" points="1518.74,-118.03 1529.2,-110.8 1516.52,-109.93 1518.74,-118.03"/>
</a>
</g>
</g>
<!-- 31 -->
<g id="node26" class="node node0 node0 node35 node29 node31">
<title>31</title>
<g id="a_node26"><a xlink:title="memchr v2.7.6&#10;5.31 KiB">
<ellipse fill="#b6d4e9" stroke="#000000" stroke-width="1.44" stroke-opacity="0.623529" cx="1231.25" cy="-102.41" rx="13.21" ry="13.21"/>
<text xml:space="preserve" text-anchor="middle" x="1231.25" y="-95.39" font-family="monospace" font-size="21.60">memchr</text>
</a>
</g>
</g>
<!-- 29&#45;&gt;31 -->
<g id="edge28" class="edge node0 node0 node35 node29">
<title>29&#45;&gt;31</title>
<g id="a_edge28"><a xlink:title="serde_json &#45;&gt; memchr">
<path fill="none" stroke="#000000" stroke-width="1.92" stroke-opacity="0.623529" d="M1275.97,-210.32C1266.42,-187.49 1251.58,-152.01 1241.64,-128.26"/>
<polygon fill="none" stroke="#000000" stroke-width="1.92" stroke-opacity="0.623529" points="1245.55,-126.73 1237.05,-117.28 1237.8,-129.97 1245.55,-126.73"/>
</a>
</g>
</g>
<!-- 32 -->
<g id="node27" class="node node0 node0 node35 node29 node32">
<title>32</title>
<g id="a_node27"><a xlink:title="ryu v1.0.20&#10;2.69 KiB">
<ellipse fill="#c3dbee" stroke="#000000" stroke-width="1.44" stroke-opacity="0.623529" cx="1328.25" cy="-102.41" rx="8.03" ry="8.03"/>
<text xml:space="preserve" text-anchor="middle" x="1328.25" y="-95.39" font-family="monospace" font-size="21.60">ryu</text>
</a>
</g>
</g>
<!-- 29&#45;&gt;32 -->
<g id="edge29" class="edge node0 node0 node35 node29">
<title>29&#45;&gt;32</title>
<g id="a_edge29"><a xlink:title="serde_json &#45;&gt; ryu">
<path fill="none" stroke="#000000" stroke-width="1.92" stroke-opacity="0.623529" d="M1292.84,-209.73C1300.91,-185.5 1313.56,-147.51 1321.36,-124.11"/>
<polygon fill="none" stroke="#000000" stroke-width="1.92" stroke-opacity="0.623529" points="1325.31,-125.52 1325.12,-112.81 1317.34,-122.87 1325.31,-125.52"/>
</a>
</g>
</g>
<!-- 33&#45;&gt;28 -->
<g id="edge32" class="edge node0 node33">
<title>33&#45;&gt;28</title>
<g id="a_edge32"><a xlink:title="serde_with &#45;&gt; serde_core">
<path fill="none" stroke="#000000" stroke-width="1.92" stroke-opacity="0.623529" d="M1536.22,-379.88C1534.83,-376.23 1490.56,-258.54 1516.25,-169.83 1519.69,-157.94 1525.97,-146.14 1532.64,-135.86"/>
<polygon fill="none" stroke="#000000" stroke-width="1.92" stroke-opacity="0.623529" points="1536,-138.37 1539.44,-126.13 1529.12,-133.56 1536,-138.37"/>
</a>
</g>
</g>
<!-- 35&#45;&gt;27 -->
<g id="edge35" class="edge node0 node35">
<title>35&#45;&gt;27</title>
<g id="a_edge35"><a xlink:title="tinytemplate &#45;&gt; serde">
<path fill="none" stroke="#000000" stroke-width="1.92" stroke-opacity="0.623529" d="M1330.77,-352.27C1355.61,-320.3 1395.31,-269.19 1413.1,-246.29"/>
<polygon fill="none" stroke="#000000" stroke-width="1.92" stroke-opacity="0.623529" points="1416.38,-248.91 1420.42,-236.86 1409.75,-243.76 1416.38,-248.91"/>
</a>
</g>
</g>
<!-- 35&#45;&gt;29 -->
<g id="edge36" class="edge node0 node35">
<title>35&#45;&gt;29</title>
<g id="a_edge36"><a xlink:title="tinytemplate &#45;&gt; serde_json">
<path fill="none" stroke="#000000" stroke-width="1.92" stroke-opacity="0.623529" d="M1303.62,-345.87C1300,-323.9 1295.28,-295.31 1291.53,-272.59"/>
<polygon fill="none" stroke="#000000" stroke-width="1.92" stroke-opacity="0.623529" points="1295.69,-271.99 1289.59,-260.83 1287.4,-273.36 1295.69,-271.99"/>
</a>
</g>
</g>
<!-- 36&#45;&gt;28 -->
<g id="edge38" class="edge node0 node36">
<title>36&#45;&gt;28</title>
<g id="a_edge38"><a xlink:title="toml &#45;&gt; serde_core">
<path fill="none" stroke="#000000" stroke-width="1.92" stroke-opacity="0.623529" d="M1756.93,-338.29C1762.94,-292.28 1765.03,-218.32 1728.25,-169.83 1697.82,-129.71 1639.67,-113.81 1599.93,-107.52"/>
<polygon fill="none" stroke="#000000" stroke-width="1.92" stroke-opacity="0.623529" points="1600.53,-103.36 1588.07,-105.88 1599.38,-111.68 1600.53,-103.36"/>
</a>
</g>
</g>
<!-- 37 -->
<g id="node32" class="node node0 node36 node37">
<title>37</title>
<g id="a_node32"><a xlink:title="serde_spanned v1.0.3&#10;0 B">
<ellipse fill="#c0d9ed" stroke="#000000" stroke-width="1.44" stroke-opacity="0.623529" cx="1876.25" cy="-233.51" rx="0.36" ry="0.36"/>
<text xml:space="preserve" text-anchor="middle" x="1876.25" y="-226.49" font-family="monospace" font-size="21.60">serde_spanned</text>
</a>
</g>
</g>
<!-- 36&#45;&gt;37 -->
<g id="edge39" class="edge node0 node36">
<title>36&#45;&gt;37</title>
<g id="a_edge39"><a xlink:title="toml &#45;&gt; serde_spanned">
<path fill="none" stroke="#000000" stroke-width="1.92" stroke-opacity="0.623529" d="M1777.44,-347.69C1805.78,-315.23 1847.88,-267 1866.64,-245.52"/>
<polygon fill="none" stroke="#000000" stroke-width="1.92" stroke-opacity="0.623529" points="1869.57,-248.55 1874.29,-236.75 1863.24,-243.03 1869.57,-248.55"/>
</a>
</g>
</g>
<!-- 38 -->
<g id="node33" class="node node0 node36 node38">
<title>38</title>
<g id="a_node33"><a xlink:title="toml_datetime v0.7.3&#10;5.74 KiB">
<ellipse fill="#a8cee5" stroke="#000000" stroke-width="1.44" stroke-opacity="0.623529" cx="1622.25" cy="-233.51" rx="13.91" ry="13.91"/>
<text xml:space="preserve" text-anchor="middle" x="1622.25" y="-226.49" font-family="monospace" font-size="21.60">toml_datetime</text>
</a>
</g>
</g>
<!-- 36&#45;&gt;38 -->
<g id="edge41" class="edge node0 node36">
<title>36&#45;&gt;38</title>
<g id="a_edge41"><a xlink:title="toml &#45;&gt; toml_datetime">
<path fill="none" stroke="#000000" stroke-width="1.92" stroke-opacity="0.623529" d="M1721.06,-347.69C1696.42,-319.46 1661.37,-279.32 1640.32,-255.21"/>
<polygon fill="none" stroke="#000000" stroke-width="1.92" stroke-opacity="0.623529" points="1643.68,-252.67 1632.62,-246.39 1637.35,-258.19 1643.68,-252.67"/>
</a>
</g>
</g>
<!-- 39 -->
<g id="node34" class="node node0 node36 node39">
<title>39</title>
<g id="a_node34"><a xlink:title="toml_parser v1.0.4&#10;44.80 KiB">
<ellipse fill="#69acd4" stroke="#000000" stroke-width="1.44" stroke-opacity="0.623529" cx="2116.25" cy="-233.51" rx="39.11" ry="39.11"/>
<text xml:space="preserve" text-anchor="middle" x="2116.25" y="-226.49" font-family="monospace" font-size="21.60">toml_parser</text>
</a>
</g>
</g>
<!-- 36&#45;&gt;39 -->
<g id="edge43" class="edge node0 node36">
<title>36&#45;&gt;39</title>
<g id="a_edge43"><a xlink:title="toml &#45;&gt; toml_parser">
<path fill="none" stroke="#000000" stroke-width="1.92" stroke-opacity="0.623529" d="M1780.69,-350.96C1787.71,-345.7 1795.41,-340.76 1803.25,-337.19 1892.13,-296.8 1928.52,-333.26 2019.25,-297.19 2038.55,-289.52 2058.12,-277.79 2074.57,-266.55"/>
<polygon fill="none" stroke="#000000" stroke-width="1.92" stroke-opacity="0.623529" points="2076.74,-270.15 2084.12,-259.8 2071.89,-263.3 2076.74,-270.15"/>
</a>
</g>
</g>
<!-- 40 -->
<g id="node35" class="node node0 node36 node0 node36 node39 node40">
<title>40</title>
<g id="a_node35"><a xlink:title="winnow v0.7.13&#10;349 B">
<ellipse fill="#d9e8f5" stroke="#000000" stroke-width="1.44" stroke-opacity="0.623529" cx="2059.25" cy="-102.41" rx="1.28" ry="1.28"/>
<text xml:space="preserve" text-anchor="middle" x="2059.25" y="-95.39" font-family="monospace" font-size="21.60">winnow</text>
</a>
</g>
</g>
<!-- 36&#45;&gt;40 -->
<g id="edge45" class="edge node0 node36">
<title>36&#45;&gt;40</title>
<g id="a_edge45"><a xlink:title="toml &#45;&gt; winnow">
<path fill="none" stroke="#000000" stroke-width="1.92" stroke-opacity="0.623529" d="M1781.08,-350.97C1788.02,-345.77 1795.58,-340.85 1803.25,-337.19 1876.83,-302.11 1921.84,-351.92 1982.25,-297.19 2026.42,-257.18 2000.94,-224.69 2024.25,-169.83 2032.45,-150.54 2044.16,-129.28 2051.73,-116.13"/>
<polygon fill="none" stroke="#000000" stroke-width="1.92" stroke-opacity="0.623529" points="2055.22,-118.49 2057.71,-106.02 2047.99,-114.21 2055.22,-118.49"/>
</a>
</g>
</g>
<!-- 37&#45;&gt;28 -->
<g id="edge40" class="edge node0 node36 node37">
<title>37&#45;&gt;28</title>
<g id="a_edge40"><a xlink:title="serde_spanned &#45;&gt; serde_core">
<path fill="none" stroke="#000000" stroke-width="1.92" stroke-opacity="0.623529" d="M1876.21,-232.48C1874.41,-231.27 1816.35,-192.18 1765.25,-169.83 1709.2,-145.32 1641.14,-125.22 1598.75,-113.77"/>
<polygon fill="none" stroke="#000000" stroke-width="1.92" stroke-opacity="0.623529" points="1599.85,-109.72 1587.17,-110.7 1597.69,-117.84 1599.85,-109.72"/>
</a>
</g>
</g>
<!-- 38&#45;&gt;28 -->
<g id="edge42" class="edge node0 node36 node38">
<title>38&#45;&gt;28</title>
<g id="a_edge42"><a xlink:title="toml_datetime &#45;&gt; serde_core">
<path fill="none" stroke="#000000" stroke-width="1.92" stroke-opacity="0.623529" d="M1616.57,-221.06C1607.62,-203 1589.86,-167.17 1576.27,-139.77"/>
<polygon fill="none" stroke="#000000" stroke-width="1.92" stroke-opacity="0.623529" points="1580.19,-138.22 1571.1,-129.33 1572.67,-141.95 1580.19,-138.22"/>
</a>
</g>
</g>
<!-- 39&#45;&gt;40 -->
<g id="edge44" class="edge node0 node36 node39">
<title>39&#45;&gt;40</title>
<g id="a_edge44"><a xlink:title="toml_parser &#45;&gt; winnow">
<path fill="none" stroke="#000000" stroke-width="1.92" stroke-opacity="0.623529" d="M2100.82,-197.58C2089.13,-171.1 2073.7,-136.14 2065.31,-117.14"/>
<polygon fill="none" stroke="#000000" stroke-width="1.92" stroke-opacity="0.623529" points="2069.18,-115.52 2060.5,-106.23 2061.5,-118.91 2069.18,-115.52"/>
</a>
</g>
</g>
</g>
</svg>
