<?xml version="1.0" encoding="UTF-8" standalone="no"?>
<!DOCTYPE svg PUBLIC "-//W3C//DTD SVG 1.1//EN"
 "http://www.w3.org/Graphics/SVG/1.1/DTD/svg11.dtd">
<!-- Generated by graphviz version 13.1.2 (20250808.2320)
 -->
<!-- Pages: 1 -->
<svg width="2081pt" height="712pt"
 viewBox="0.00 0.00 2081.00 712.00" xmlns="http://www.w3.org/2000/svg" xmlns:xlink="http://www.w3.org/1999/xlink">
<style>
.graph:has(.node0:hover) > g:not(.node0) { opacity: 0.5 }
.graph:has(.node1:hover) > g:not(.node1) { opacity: 0.5 }
.graph:has(.node3:hover) > g:not(.node3) { opacity: 0.5 }
.graph:has(.node4:hover) > g:not(.node4) { opacity: 0.5 }
.graph:has(.node5:hover) > g:not(.node5) { opacity: 0.5 }
.graph:has(.node6:hover) > g:not(.node6) { opacity: 0.5 }
.graph:has(.node7:hover) > g:not(.node7) { opacity: 0.5 }
.graph:has(.node8:hover) > g:not(.node8) { opacity: 0.5 }
.graph:has(.node9:hover) > g:not(.node9) { opacity: 0.5 }
.graph:has(.node10:hover) > g:not(.node10) { opacity: 0.5 }
.graph:has(.node11:hover) > g:not(.node11) { opacity: 0.5 }
.graph:has(.node12:hover) > g:not(.node12) { opacity: 0.5 }
.graph:has(.node13:hover) > g:not(.node13) { opacity: 0.5 }
.graph:has(.node14:hover) > g:not(.node14) { opacity: 0.5 }
.graph:has(.node15:hover) > g:not(.node15) { opacity: 0.5 }
.graph:has(.node18:hover) > g:not(.node18) { opacity: 0.5 }
.graph:has(.node19:hover) > g:not(.node19) { opacity: 0.5 }
.graph:has(.node20:hover) > g:not(.node20) { opacity: 0.5 }
.graph:has(.node21:hover) > g:not(.node21) { opacity: 0.5 }
.graph:has(.node23:hover) > g:not(.node23) { opacity: 0.5 }
.graph:has(.node25:hover) > g:not(.node25) { opacity: 0.5 }
.graph:has(.node26:hover) > g:not(.node26) { opacity: 0.5 }
.graph:has(.node27:hover) > g:not(.node27) { opacity: 0.5 }
.graph:has(.node28:hover) > g:not(.node28) { opacity: 0.5 }
.graph:has(.node29:hover) > g:not(.node29) { opacity: 0.5 }
.graph:has(.node31:hover) > g:not(.node31) { opacity: 0.5 }
.graph:has(.node32:hover) > g:not(.node32) { opacity: 0.5 }
.graph:has(.node33:hover) > g:not(.node33) { opacity: 0.5 }
.graph:has(.node34:hover) > g:not(.node34) { opacity: 0.5 }
.graph:has(.node35:hover) > g:not(.node35) { opacity: 0.5 }
.graph:has(.node36:hover) > g:not(.node36) { opacity: 0.5 }
.graph:has(.node37:hover) > g:not(.node37) { opacity: 0.5 }
.graph:has(.node38:hover) > g:not(.node38) { opacity: 0.5 }
.graph:has(.node39:hover) > g:not(.node39) { opacity: 0.5 }
.graph:has(.node40:hover) > g:not(.node40) { opacity: 0.5 }
</style>
<g id="graph0" class="graph" transform="scale(1 1) rotate(0) translate(72 640.35)">
<polygon fill="#000000" stroke="none" points="-72,72 -72,-640.35 2009.25,-640.35 2009.25,72 -72,72"/>
<!-- 0 -->
<g id="node1" class="node node0">
<title>0</title>
<g id="a_node1"><a xlink:title="pugio v0.1.5 (/home/my4ng/Programming/pugio)&#10;117.89 KiB">
<ellipse fill="#94bcf7" stroke="#ffffff" stroke-width="1.2" stroke-opacity="0.623529" cx="882.38" cy="-514.93" rx="53.42" ry="53.42"/>
<text xml:space="preserve" text-anchor="middle" x="882.38" y="-508.7" font-family="monospace" font-size="18.00" fill="#ffffff">pugio</text>
</a>
</g>
</g>
<!-- 1 -->
<g id="node2" class="node node0 node1">
<title>1</title>
<g id="a_node2"><a xlink:title="anyhow v1.0.100&#10;10.54 KiB">
<ellipse fill="#1b445c" stroke="#ffffff" stroke-width="1.2" stroke-opacity="0.623529" cx="194.38" cy="-377.73" rx="20.18" ry="20.18"/>
<text xml:space="preserve" text-anchor="middle" x="194.38" y="-371.5" font-family="monospace" font-size="18.00" fill="#ffffff">anyhow</text>
</a>
</g>
</g>
<!-- 0&#45;&gt;1 -->
<g id="edge1" class="edge node0">
<title>0&#45;&gt;1</title>
<g id="a_edge1"><a xlink:title="pugio &#45;&gt; anyhow">
<path fill="none" stroke="#ffffff" stroke-width="1.6" stroke-opacity="0.623529" d="M829.54,-510C696.35,-499.5 350.04,-468.37 245.38,-421.5 234.65,-416.7 224.39,-408.96 215.93,-401.38"/>
<polygon fill="none" stroke="#ffffff" stroke-width="1.6" stroke-opacity="0.623529" points="218.6,-399.09 208.96,-394.72 213.77,-404.15 218.6,-399.09"/>
</a>
</g>
</g>
<!-- 3 -->
<g id="node3" class="node node0 node3">
<title>3</title>
<g id="a_node3"><a xlink:title="clap v4.5.53&#10;0 B">
<ellipse fill="#4f9de1" stroke="#ffffff" stroke-width="1.2" stroke-opacity="0.623529" cx="286.38" cy="-377.73" rx="0.36" ry="0.36"/>
<text xml:space="preserve" text-anchor="middle" x="286.38" y="-371.5" font-family="monospace" font-size="18.00" fill="#ffffff">clap</text>
</a>
</g>
</g>
<!-- 0&#45;&gt;3 -->
<g id="edge2" class="edge node0">
<title>0&#45;&gt;3</title>
<g id="a_edge2"><a xlink:title="pugio &#45;&gt; clap">
<path fill="none" stroke="#ffffff" stroke-width="1.6" stroke-opacity="0.623529" d="M829.32,-509.47C707.84,-498.59 413.28,-468.06 326.38,-421.5 312.14,-413.88 300.16,-399.24 293.13,-389.23"/>
<polygon fill="none" stroke="#ffffff" stroke-width="1.6" stroke-opacity="0.623529" points="296.09,-387.37 287.74,-380.85 290.2,-391.15 296.09,-387.37"/>
</a>
</g>
</g>
<!-- 7 -->
<g id="node7" class="node node0 node7">
<title>7</title>
<g id="a_node7"><a xlink:title="colorgrad v0.8.0&#10;12.57 KiB">
<ellipse fill="#29698f" stroke="#ffffff" stroke-width="1.2" stroke-opacity="0.623529" cx="395.38" cy="-377.73" rx="22.22" ry="22.22"/>
<text xml:space="preserve" text-anchor="middle" x="395.38" y="-371.5" font-family="monospace" font-size="18.00" fill="#ffffff">colorgrad</text>
</a>
</g>
</g>
<!-- 0&#45;&gt;7 -->
<g id="edge6" class="edge node0">
<title>0&#45;&gt;7</title>
<g id="a_edge6"><a xlink:title="pugio &#45;&gt; colorgrad">
<path fill="none" stroke="#ffffff" stroke-width="1.6" stroke-opacity="0.623529" d="M829.82,-505.52C752.66,-492.34 604.83,-463.86 484.38,-421.5 464.01,-414.34 442.14,-403.88 425.18,-395.09"/>
<polygon fill="none" stroke="#ffffff" stroke-width="1.6" stroke-opacity="0.623529" points="426.91,-392.05 416.44,-390.47 423.64,-398.23 426.91,-392.05"/>
</a>
</g>
</g>
<!-- 11 -->
<g id="node11" class="node node0 node11">
<title>11</title>
<g id="a_node11"><a xlink:title="humansize v2.1.3&#10;1.23 KiB">
<ellipse fill="#132d41" stroke="#ffffff" stroke-width="1.2" stroke-opacity="0.623529" cx="500.38" cy="-99.17" rx="4.18" ry="4.18"/>
<text xml:space="preserve" text-anchor="middle" x="500.38" y="-92.95" font-family="monospace" font-size="18.00" fill="#ffffff">humansize</text>
</a>
</g>
</g>
<!-- 0&#45;&gt;11 -->
<g id="edge11" class="edge node0">
<title>0&#45;&gt;11</title>
<g id="a_edge11"><a xlink:title="pugio &#45;&gt; humansize">
<path fill="none" stroke="#ffffff" stroke-width="1.6" stroke-opacity="0.623529" d="M829.52,-507.96C739.05,-496.58 560.47,-468.61 521.38,-421.5 482.3,-374.42 494.7,-172.9 499.11,-115.49"/>
<polygon fill="none" stroke="#ffffff" stroke-width="1.6" stroke-opacity="0.623529" points="502.59,-115.84 499.91,-105.59 495.61,-115.27 502.59,-115.84"/>
</a>
</g>
</g>
<!-- 12 -->
<g id="node12" class="node node0 node12">
<title>12</title>
<g id="a_node12"><a xlink:title="open v5.3.3&#10;6.16 KiB">
<ellipse fill="#1b425a" stroke="#ffffff" stroke-width="1.2" stroke-opacity="0.623529" cx="562.38" cy="-377.73" rx="14.57" ry="14.57"/>
<text xml:space="preserve" text-anchor="middle" x="562.38" y="-371.5" font-family="monospace" font-size="18.00" fill="#ffffff">open</text>
</a>
</g>
</g>
<!-- 0&#45;&gt;12 -->
<g id="edge13" class="edge node0">
<title>0&#45;&gt;12</title>
<g id="a_edge13"><a xlink:title="pugio &#45;&gt; open">
<path fill="none" stroke="#ffffff" stroke-width="1.6" stroke-opacity="0.623529" d="M829.99,-504.51C771.33,-492.24 675.1,-466.8 603.38,-421.5 593.96,-415.56 585.17,-406.99 578.17,-399.08"/>
<polygon fill="none" stroke="#ffffff" stroke-width="1.6" stroke-opacity="0.623529" points="580.97,-396.97 571.88,-391.52 575.59,-401.45 580.97,-396.97"/>
</a>
</g>
</g>
<!-- 18 -->
<g id="node16" class="node node0 node18">
<title>18</title>
<g id="a_node16"><a xlink:title="parse_size v1.1.0&#10;1.17 KiB">
<ellipse fill="#0d2031" stroke="#ffffff" stroke-width="1.2" stroke-opacity="0.623529" cx="677.38" cy="-377.73" rx="4.01" ry="4.01"/>
<text xml:space="preserve" text-anchor="middle" x="677.38" y="-371.5" font-family="monospace" font-size="18.00" fill="#ffffff">parse_size</text>
</a>
</g>
</g>
<!-- 0&#45;&gt;18 -->
<g id="edge18" class="edge node0">
<title>0&#45;&gt;18</title>
<g id="a_edge18"><a xlink:title="pugio &#45;&gt; parse_size">
<path fill="none" stroke="#ffffff" stroke-width="1.6" stroke-opacity="0.623529" d="M838.4,-484.92C791.27,-453.84 719.33,-406.39 690.24,-387.21"/>
<polygon fill="none" stroke="#ffffff" stroke-width="1.6" stroke-opacity="0.623529" points="692.21,-384.32 681.94,-381.74 688.36,-390.16 692.21,-384.32"/>
</a>
</g>
</g>
<!-- 19 -->
<g id="node17" class="node node0 node19">
<title>19</title>
<g id="a_node17"><a xlink:title="petgraph v0.8.3&#10;5.95 KiB">
<ellipse fill="#1c455d" stroke="#ffffff" stroke-width="1.2" stroke-opacity="0.623529" cx="814.38" cy="-377.73" rx="14.24" ry="14.24"/>
<text xml:space="preserve" text-anchor="middle" x="814.38" y="-371.5" font-family="monospace" font-size="18.00" fill="#ffffff">petgraph</text>
</a>
</g>
</g>
<!-- 0&#45;&gt;19 -->
<g id="edge19" class="edge node0">
<title>0&#45;&gt;19</title>
<g id="a_edge19"><a xlink:title="pugio &#45;&gt; petgraph">
<path fill="none" stroke="#ffffff" stroke-width="1.6" stroke-opacity="0.623529" d="M858.78,-467.02C847.62,-444.84 834.81,-419.36 825.83,-401.49"/>
<polygon fill="none" stroke="#ffffff" stroke-width="1.6" stroke-opacity="0.623529" points="828.99,-400 821.37,-392.64 822.74,-403.14 828.99,-400"/>
</a>
</g>
</g>
<!-- 26 -->
<g id="node22" class="node node0 node26">
<title>26</title>
<g id="a_node22"><a xlink:title="regex_lite v0.1.8&#10;46.25 KiB">
<ellipse fill="#2b6f97" stroke="#ffffff" stroke-width="1.2" stroke-opacity="0.623529" cx="951.38" cy="-377.73" rx="39.57" ry="39.57"/>
<text xml:space="preserve" text-anchor="middle" x="951.38" y="-371.5" font-family="monospace" font-size="18.00" fill="#ffffff">regex_lite</text>
</a>
</g>
</g>
<!-- 0&#45;&gt;26 -->
<g id="edge24" class="edge node0">
<title>0&#45;&gt;26</title>
<g id="a_edge24"><a xlink:title="pugio &#45;&gt; regex_lite">
<path fill="none" stroke="#ffffff" stroke-width="1.6" stroke-opacity="0.623529" d="M906.12,-467.4C913.32,-453.29 921.21,-437.83 928.36,-423.82"/>
<polygon fill="none" stroke="#ffffff" stroke-width="1.6" stroke-opacity="0.623529" points="931.38,-425.61 932.81,-415.11 925.14,-422.43 931.38,-425.61"/>
</a>
</g>
</g>
<!-- 27 -->
<g id="node23" class="node node0 node0 node35 node27">
<title>27</title>
<g id="a_node23"><a xlink:title="serde v1.0.228&#10;318 B">
<ellipse fill="#132d41" stroke="#ffffff" stroke-width="1.2" stroke-opacity="0.623529" cx="1251.38" cy="-230.27" rx="1.17" ry="1.17"/>
<text xml:space="preserve" text-anchor="middle" x="1251.38" y="-224.04" font-family="monospace" font-size="18.00" fill="#ffffff">serde</text>
</a>
</g>
</g>
<!-- 0&#45;&gt;27 -->
<g id="edge25" class="edge node0">
<title>0&#45;&gt;27</title>
<g id="a_edge25"><a xlink:title="pugio &#45;&gt; serde">
<path fill="none" stroke="#ffffff" stroke-width="1.6" stroke-opacity="0.623529" d="M935.02,-507.83C1024.62,-496.3 1200.85,-468.16 1239.38,-421.5 1283.35,-368.25 1263.6,-275.4 1254.8,-242.9"/>
<polygon fill="none" stroke="#ffffff" stroke-width="1.6" stroke-opacity="0.623529" points="1258.27,-242.29 1252.09,-233.68 1251.55,-244.26 1258.27,-242.29"/>
</a>
</g>
</g>
<!-- 29 -->
<g id="node25" class="node node0 node0 node35 node29">
<title>29</title>
<g id="a_node25"><a xlink:title="serde_json v1.0.145&#10;15.99 KiB">
<ellipse fill="#255e7f" stroke="#ffffff" stroke-width="1.2" stroke-opacity="0.623529" cx="1131.38" cy="-230.27" rx="25.16" ry="25.16"/>
<text xml:space="preserve" text-anchor="middle" x="1131.38" y="-224.04" font-family="monospace" font-size="18.00" fill="#ffffff">serde_json</text>
</a>
</g>
</g>
<!-- 0&#45;&gt;29 -->
<g id="edge27" class="edge node0">
<title>0&#45;&gt;29</title>
<g id="a_edge27"><a xlink:title="pugio &#45;&gt; serde_json">
<path fill="none" stroke="#ffffff" stroke-width="1.6" stroke-opacity="0.623529" d="M930.24,-491.49C960.54,-475.4 998.86,-451.33 1025.38,-421.5 1054.18,-389.11 1047.46,-371.92 1068.38,-333.95 1082,-309.22 1098.77,-282.02 1111.59,-261.83"/>
<polygon fill="none" stroke="#ffffff" stroke-width="1.6" stroke-opacity="0.623529" points="1114.51,-263.74 1116.95,-253.43 1108.61,-259.97 1114.51,-263.74"/>
</a>
</g>
</g>
<!-- 33 -->
<g id="node28" class="node node0 node33">
<title>33</title>
<g id="a_node28"><a xlink:title="serde_with v3.16.0&#10;0 B">
<ellipse fill="#122b3f" stroke="#ffffff" stroke-width="1.2" stroke-opacity="0.623529" cx="1355.38" cy="-377.73" rx="0.36" ry="0.36"/>
<text xml:space="preserve" text-anchor="middle" x="1355.38" y="-371.5" font-family="monospace" font-size="18.00" fill="#ffffff">serde_with</text>
</a>
</g>
</g>
<!-- 0&#45;&gt;33 -->
<g id="edge31" class="edge node0">
<title>0&#45;&gt;33</title>
<g id="a_edge31"><a xlink:title="pugio &#45;&gt; serde_with">
<path fill="none" stroke="#ffffff" stroke-width="1.6" stroke-opacity="0.623529" d="M935,-506.16C1011.81,-493.81 1158.33,-466.39 1276.38,-421.5 1302.36,-411.62 1330.46,-394.76 1345.13,-385.43"/>
<polygon fill="none" stroke="#ffffff" stroke-width="1.6" stroke-opacity="0.623529" points="1346.78,-388.54 1353.23,-380.14 1342.94,-382.68 1346.78,-388.54"/>
</a>
</g>
</g>
<!-- 34 -->
<g id="node29" class="node node0 node34">
<title>34</title>
<g id="a_node29"><a xlink:title="strum v0.27.2&#10;63 B">
<ellipse fill="#06111c" stroke="#ffffff" stroke-width="1.2" stroke-opacity="0.623529" cx="1642.38" cy="-377.73" rx="0.36" ry="0.36"/>
<text xml:space="preserve" text-anchor="middle" x="1642.38" y="-371.5" font-family="monospace" font-size="18.00" fill="#ffffff">strum</text>
</a>
</g>
</g>
<!-- 0&#45;&gt;34 -->
<g id="edge33" class="edge node0">
<title>0&#45;&gt;34</title>
<g id="a_edge33"><a xlink:title="pugio &#45;&gt; strum">
<path fill="none" stroke="#ffffff" stroke-width="1.6" stroke-opacity="0.623529" d="M935.59,-511.24C1080.42,-503.26 1478.63,-476.78 1596.38,-421.5 1612.44,-413.96 1626.67,-398.72 1634.91,-388.62"/>
<polygon fill="none" stroke="#ffffff" stroke-width="1.6" stroke-opacity="0.623529" points="1637.62,-390.84 1640.85,-380.75 1632.03,-386.62 1637.62,-390.84"/>
</a>
</g>
</g>
<!-- 35 -->
<g id="node30" class="node node0 node35">
<title>35</title>
<g id="a_node30"><a xlink:title="tinytemplate v1.2.1&#10;35.75 KiB">
<ellipse fill="#2d729c" stroke="#ffffff" stroke-width="1.2" stroke-opacity="0.623529" cx="1153.38" cy="-377.73" rx="35.9" ry="35.9"/>
<text xml:space="preserve" text-anchor="middle" x="1153.38" y="-371.5" font-family="monospace" font-size="18.00" fill="#ffffff">tinytemplate</text>
</a>
</g>
</g>
<!-- 0&#45;&gt;35 -->
<g id="edge34" class="edge node0">
<title>0&#45;&gt;35</title>
<g id="a_edge34"><a xlink:title="pugio &#45;&gt; tinytemplate">
<path fill="none" stroke="#ffffff" stroke-width="1.6" stroke-opacity="0.623529" d="M929.58,-490.38C980.79,-464.83 1061.8,-424.41 1111.03,-399.85"/>
<polygon fill="none" stroke="#ffffff" stroke-width="1.6" stroke-opacity="0.623529" points="1112.37,-403.1 1119.76,-395.5 1109.25,-396.83 1112.37,-403.1"/>
</a>
</g>
</g>
<!-- 36 -->
<g id="node31" class="node node0 node36">
<title>36</title>
<g id="a_node31"><a xlink:title="toml v0.9.8&#10;61.78 KiB">
<ellipse fill="#3d8cc4" stroke="#ffffff" stroke-width="1.2" stroke-opacity="0.623529" cx="1542.38" cy="-377.73" rx="43.78" ry="43.78"/>
<text xml:space="preserve" text-anchor="middle" x="1542.38" y="-371.5" font-family="monospace" font-size="18.00" fill="#ffffff">toml</text>
</a>
</g>
</g>
<!-- 0&#45;&gt;36 -->
<g id="edge37" class="edge node0">
<title>0&#45;&gt;36</title>
<g id="a_edge37"><a xlink:title="pugio &#45;&gt; toml">
<path fill="none" stroke="#ffffff" stroke-width="1.6" stroke-opacity="0.623529" d="M935.15,-508.47C1033.58,-497.53 1251.36,-469.75 1429.38,-421.5 1450,-415.92 1472.1,-408 1491.24,-400.5"/>
<polygon fill="none" stroke="#ffffff" stroke-width="1.6" stroke-opacity="0.623529" points="1492.5,-403.77 1500.48,-396.8 1489.9,-397.27 1492.5,-403.77"/>
</a>
</g>
</g>
<!-- 4 -->
<g id="node4" class="node node0 node3 node4">
<title>4</title>
<g id="a_node4"><a xlink:title="clap_builder v4.5.53&#10;230.96 KiB">
<ellipse fill="#4f9de1" stroke="#ffffff" stroke-width="1.2" stroke-opacity="0.623529" cx="155.38" cy="-230.27" rx="63.68" ry="63.68"/>
<text xml:space="preserve" text-anchor="middle" x="155.38" y="-224.04" font-family="monospace" font-size="18.00" fill="#ffffff">clap_builder</text>
</a>
</g>
</g>
<!-- 3&#45;&gt;4 -->
<g id="edge3" class="edge node0 node3">
<title>3&#45;&gt;4</title>
<g id="a_edge3"><a xlink:title="clap &#45;&gt; clap_builder">
<path fill="none" stroke="#ffffff" stroke-width="1.6" stroke-opacity="0.623529" d="M286.28,-376.62C284.01,-374.1 241.42,-326.81 205.43,-286.85"/>
<polygon fill="none" stroke="#ffffff" stroke-width="1.6" stroke-opacity="0.623529" points="208.08,-284.56 198.78,-279.47 202.87,-289.24 208.08,-284.56"/>
</a>
</g>
</g>
<!-- 5 -->
<g id="node5" class="node node0 node3 node4 node5">
<title>5</title>
<g id="a_node5"><a xlink:title="anstyle v1.0.13&#10;2.06 KiB">
<ellipse fill="#102638" stroke="#ffffff" stroke-width="1.2" stroke-opacity="0.623529" cx="47.38" cy="-99.17" rx="6.5" ry="6.5"/>
<text xml:space="preserve" text-anchor="middle" x="47.38" y="-92.95" font-family="monospace" font-size="18.00" fill="#ffffff">anstyle</text>
</a>
</g>
</g>
<!-- 4&#45;&gt;5 -->
<g id="edge4" class="edge node0 node3 node4">
<title>4&#45;&gt;5</title>
<g id="a_edge4"><a xlink:title="clap_builder &#45;&gt; anstyle">
<path fill="none" stroke="#ffffff" stroke-width="1.6" stroke-opacity="0.623529" d="M115.16,-181.2C95.08,-157.2 72.28,-129.95 58.9,-113.95"/>
<polygon fill="none" stroke="#ffffff" stroke-width="1.6" stroke-opacity="0.623529" points="61.65,-111.79 52.55,-106.36 56.29,-116.28 61.65,-111.79"/>
</a>
</g>
</g>
<!-- 6 -->
<g id="node6" class="node node0 node3 node4 node6">
<title>6</title>
<g id="a_node6"><a xlink:title="clap_lex v0.7.6&#10;1.08 KiB">
<ellipse fill="#0d1f30" stroke="#ffffff" stroke-width="1.2" stroke-opacity="0.623529" cx="167.38" cy="-99.17" rx="3.72" ry="3.72"/>
<text xml:space="preserve" text-anchor="middle" x="167.38" y="-92.95" font-family="monospace" font-size="18.00" fill="#ffffff">clap_lex</text>
</a>
</g>
</g>
<!-- 4&#45;&gt;6 -->
<g id="edge5" class="edge node0 node3 node4">
<title>4&#45;&gt;6</title>
<g id="a_edge5"><a xlink:title="clap_builder &#45;&gt; clap_lex">
<path fill="none" stroke="#ffffff" stroke-width="1.6" stroke-opacity="0.623529" d="M161.16,-166.99C162.98,-147.4 164.83,-127.54 166.03,-114.62"/>
<polygon fill="none" stroke="#ffffff" stroke-width="1.6" stroke-opacity="0.623529" points="169.49,-115.21 166.93,-104.93 162.52,-114.56 169.49,-115.21"/>
</a>
</g>
</g>
<!-- 8 -->
<g id="node8" class="node node0 node7 node8">
<title>8</title>
<g id="a_node8"><a xlink:title="csscolorparser v0.8.0&#10;21.41 KiB">
<ellipse fill="#235a79" stroke="#ffffff" stroke-width="1.2" stroke-opacity="0.623529" cx="381.38" cy="-230.27" rx="28.91" ry="28.91"/>
<text xml:space="preserve" text-anchor="middle" x="381.38" y="-224.04" font-family="monospace" font-size="18.00" fill="#ffffff">csscolorparser</text>
</a>
</g>
</g>
<!-- 7&#45;&gt;8 -->
<g id="edge7" class="edge node0 node7">
<title>7&#45;&gt;8</title>
<g id="a_edge7"><a xlink:title="colorgrad &#45;&gt; csscolorparser">
<path fill="none" stroke="#ffffff" stroke-width="1.6" stroke-opacity="0.623529" d="M393.37,-355.89C391.25,-333.91 387.87,-298.76 385.24,-271.38"/>
<polygon fill="none" stroke="#ffffff" stroke-width="1.6" stroke-opacity="0.623529" points="388.72,-271.07 384.28,-261.45 381.75,-271.74 388.72,-271.07"/>
</a>
</g>
</g>
<!-- 10 -->
<g id="node10" class="node node0 node7 node0 node7 node8 node9 node0 node11 node10">
<title>10</title>
<g id="a_node10"><a xlink:title="libm v0.2.15&#10;7.04 KiB">
<ellipse fill="#183a50" stroke="#ffffff" stroke-width="1.2" stroke-opacity="0.623529" cx="357.38" cy="-15.88" rx="15.88" ry="15.88"/>
<text xml:space="preserve" text-anchor="middle" x="357.38" y="-9.65" font-family="monospace" font-size="18.00" fill="#ffffff">libm</text>
</a>
</g>
</g>
<!-- 7&#45;&gt;10 -->
<g id="edge10" class="edge node0 node7">
<title>7&#45;&gt;10</title>
<g id="a_edge10"><a xlink:title="colorgrad &#45;&gt; libm">
<path fill="none" stroke="#ffffff" stroke-width="1.6" stroke-opacity="0.623529" d="M376.81,-365.74C347.91,-348.19 294.41,-313.8 284.38,-293.95 239.83,-205.82 238.97,-159.96 283.38,-71.76 293.54,-51.56 315.05,-36.93 332.27,-27.88"/>
<polygon fill="none" stroke="#ffffff" stroke-width="1.6" stroke-opacity="0.623529" points="333.67,-31.09 341.14,-23.57 330.61,-24.8 333.67,-31.09"/>
</a>
</g>
</g>
<!-- 9 -->
<g id="node9" class="node node0 node7 node8 node9">
<title>9</title>
<g id="a_node9"><a xlink:title="num_traits v0.2.19&#10;0 B">
<ellipse fill="#10273a" stroke="#ffffff" stroke-width="1.2" stroke-opacity="0.623529" cx="357.38" cy="-99.17" rx="0.36" ry="0.36"/>
<text xml:space="preserve" text-anchor="middle" x="357.38" y="-92.95" font-family="monospace" font-size="18.00" fill="#ffffff">num_traits</text>
</a>
</g>
</g>
<!-- 8&#45;&gt;9 -->
<g id="edge8" class="edge node0 node7 node8">
<title>8&#45;&gt;9</title>
<g id="a_edge8"><a xlink:title="csscolorparser &#45;&gt; num_traits">
<path fill="none" stroke="#ffffff" stroke-width="1.6" stroke-opacity="0.623529" d="M376.29,-201.89C371.14,-174.2 363.42,-132.68 359.63,-112.31"/>
<polygon fill="none" stroke="#ffffff" stroke-width="1.6" stroke-opacity="0.623529" points="363.1,-111.79 357.83,-102.6 356.21,-113.07 363.1,-111.79"/>
</a>
</g>
</g>
<!-- 9&#45;&gt;10 -->
<g id="edge9" class="edge node0 node7 node8 node9">
<title>9&#45;&gt;10</title>
<g id="a_edge9"><a xlink:title="num_traits &#45;&gt; libm">
<path fill="none" stroke="#ffffff" stroke-width="1.6" stroke-opacity="0.623529" d="M357.38,-98.11C357.38,-96.62 357.38,-67.02 357.38,-43.97"/>
<polygon fill="none" stroke="#ffffff" stroke-width="1.6" stroke-opacity="0.623529" points="360.88,-44.17 357.38,-34.17 353.88,-44.17 360.88,-44.17"/>
</a>
</g>
</g>
<!-- 11&#45;&gt;10 -->
<g id="edge12" class="edge node0 node11">
<title>11&#45;&gt;10</title>
<g id="a_edge12"><a xlink:title="humansize &#45;&gt; libm">
<path fill="none" stroke="#ffffff" stroke-width="1.6" stroke-opacity="0.623529" d="M497.39,-96.47C482.62,-88.08 416.7,-50.6 380.82,-30.21"/>
<polygon fill="none" stroke="#ffffff" stroke-width="1.6" stroke-opacity="0.623529" points="382.86,-27.34 372.44,-25.44 379.4,-33.43 382.86,-27.34"/>
</a>
</g>
</g>
<!-- 13 -->
<g id="node13" class="node node0 node12 node13">
<title>13</title>
<g id="a_node13"><a xlink:title="is_wsl v0.4.0&#10;0 B">
<ellipse fill="#132e42" stroke="#ffffff" stroke-width="1.2" stroke-opacity="0.623529" cx="581.38" cy="-230.27" rx="0.36" ry="0.36"/>
<text xml:space="preserve" text-anchor="middle" x="581.38" y="-224.04" font-family="monospace" font-size="18.00" fill="#ffffff">is_wsl</text>
</a>
</g>
</g>
<!-- 12&#45;&gt;13 -->
<g id="edge14" class="edge node0 node12">
<title>12&#45;&gt;13</title>
<g id="a_edge14"><a xlink:title="open &#45;&gt; is_wsl">
<path fill="none" stroke="#ffffff" stroke-width="1.6" stroke-opacity="0.623529" d="M564.13,-363.3C567.8,-335.2 576.25,-270.52 579.78,-243.49"/>
<polygon fill="none" stroke="#ffffff" stroke-width="1.6" stroke-opacity="0.623529" points="583.23,-244.11 581.05,-233.74 576.29,-243.2 583.23,-244.11"/>
</a>
</g>
</g>
<!-- 14 -->
<g id="node14" class="node node0 node12 node13 node14">
<title>14</title>
<g id="a_node14"><a xlink:title="is_docker v0.2.0&#10;0 B">
<ellipse fill="#0f2437" stroke="#ffffff" stroke-width="1.2" stroke-opacity="0.623529" cx="680.38" cy="-99.17" rx="0.36" ry="0.36"/>
<text xml:space="preserve" text-anchor="middle" x="680.38" y="-92.95" font-family="monospace" font-size="18.00" fill="#ffffff">is_docker</text>
</a>
</g>
</g>
<!-- 13&#45;&gt;14 -->
<g id="edge15" class="edge node0 node12 node13">
<title>13&#45;&gt;14</title>
<g id="a_edge15"><a xlink:title="is_wsl &#45;&gt; is_docker">
<path fill="none" stroke="#ffffff" stroke-width="1.6" stroke-opacity="0.623529" d="M581.45,-229.17C583.94,-225.93 650.54,-139.08 673.03,-109.75"/>
<polygon fill="none" stroke="#ffffff" stroke-width="1.6" stroke-opacity="0.623529" points="675.52,-112.25 678.83,-102.18 669.97,-107.99 675.52,-112.25"/>
</a>
</g>
</g>
<!-- 15 -->
<g id="node15" class="node node0 node12 node13 node0 node12 node13 node14 node15">
<title>15</title>
<g id="a_node15"><a xlink:title="once_cell v1.21.3&#10;3.68 KiB">
<ellipse fill="#132e42" stroke="#ffffff" stroke-width="1.2" stroke-opacity="0.623529" cx="635.38" cy="-15.88" rx="10.21" ry="10.21"/>
<text xml:space="preserve" text-anchor="middle" x="635.38" y="-9.65" font-family="monospace" font-size="18.00" fill="#ffffff">once_cell</text>
</a>
</g>
</g>
<!-- 13&#45;&gt;15 -->
<g id="edge17" class="edge node0 node12 node13">
<title>13&#45;&gt;15</title>
<g id="a_edge17"><a xlink:title="is_wsl &#45;&gt; once_cell">
<path fill="none" stroke="#ffffff" stroke-width="1.6" stroke-opacity="0.623529" d="M581.38,-229.2C581.66,-226.48 590.63,-138.77 611.38,-71.76 615.18,-59.47 620.91,-46.24 625.82,-35.85"/>
<polygon fill="none" stroke="#ffffff" stroke-width="1.6" stroke-opacity="0.623529" points="628.89,-37.54 630.15,-27.02 622.6,-34.46 628.89,-37.54"/>
</a>
</g>
</g>
<!-- 14&#45;&gt;15 -->
<g id="edge16" class="edge node0 node12 node13 node14">
<title>14&#45;&gt;15</title>
<g id="a_edge16"><a xlink:title="is_docker &#45;&gt; once_cell">
<path fill="none" stroke="#ffffff" stroke-width="1.6" stroke-opacity="0.623529" d="M680.34,-98.11C679.41,-96.43 658.84,-59.27 645.85,-35.8"/>
<polygon fill="none" stroke="#ffffff" stroke-width="1.6" stroke-opacity="0.623529" points="648.97,-34.2 641.06,-27.15 642.84,-37.59 648.97,-34.2"/>
</a>
</g>
</g>
<!-- 20 -->
<g id="node18" class="node node0 node19 node20">
<title>20</title>
<g id="a_node18"><a xlink:title="fixedbitset v0.5.7&#10;147 B">
<ellipse fill="#081420" stroke="#ffffff" stroke-width="1.2" stroke-opacity="0.623529" cx="839.38" cy="-230.27" rx="0.55" ry="0.55"/>
<text xml:space="preserve" text-anchor="middle" x="839.38" y="-224.04" font-family="monospace" font-size="18.00" fill="#ffffff">fixedbitset</text>
</a>
</g>
</g>
<!-- 19&#45;&gt;20 -->
<g id="edge20" class="edge node0 node19">
<title>19&#45;&gt;20</title>
<g id="a_edge20"><a xlink:title="petgraph &#45;&gt; fixedbitset">
<path fill="none" stroke="#ffffff" stroke-width="1.6" stroke-opacity="0.623529" d="M816.59,-363.82C821.39,-335.89 832.68,-270.22 837.32,-243.2"/>
<polygon fill="none" stroke="#ffffff" stroke-width="1.6" stroke-opacity="0.623529" points="840.71,-244.17 838.95,-233.73 833.81,-242.99 840.71,-244.17"/>
</a>
</g>
</g>
<!-- 21 -->
<g id="node19" class="node node0 node19 node21">
<title>21</title>
<g id="a_node19"><a xlink:title="hashbrown v0.15.5&#10;2.48 KiB">
<ellipse fill="#11283b" stroke="#ffffff" stroke-width="1.2" stroke-opacity="0.623529" cx="988.38" cy="-230.27" rx="7.55" ry="7.55"/>
<text xml:space="preserve" text-anchor="middle" x="988.38" y="-224.04" font-family="monospace" font-size="18.00" fill="#ffffff">hashbrown</text>
</a>
</g>
</g>
<!-- 19&#45;&gt;21 -->
<g id="edge21" class="edge node0 node19">
<title>19&#45;&gt;21</title>
<g id="a_edge21"><a xlink:title="petgraph &#45;&gt; hashbrown">
<path fill="none" stroke="#ffffff" stroke-width="1.6" stroke-opacity="0.623529" d="M825,-368.74C844.18,-354.24 885.71,-322.45 919.38,-293.95 939.06,-277.28 960.98,-257.07 974.72,-244.19"/>
<polygon fill="none" stroke="#ffffff" stroke-width="1.6" stroke-opacity="0.623529" points="976.82,-247.02 981.7,-237.61 972.02,-241.93 976.82,-247.02"/>
</a>
</g>
</g>
<!-- 23 -->
<g id="node20" class="node node0 node19 node23">
<title>23</title>
<g id="a_node20"><a xlink:title="indexmap v2.12.1&#10;0 B">
<ellipse fill="#11283b" stroke="#ffffff" stroke-width="1.2" stroke-opacity="0.623529" cx="696.38" cy="-230.27" rx="0.36" ry="0.36"/>
<text xml:space="preserve" text-anchor="middle" x="696.38" y="-224.04" font-family="monospace" font-size="18.00" fill="#ffffff">indexmap</text>
</a>
</g>
</g>
<!-- 19&#45;&gt;23 -->
<g id="edge22" class="edge node0 node19">
<title>19&#45;&gt;23</title>
<g id="a_edge22"><a xlink:title="petgraph &#45;&gt; indexmap">
<path fill="none" stroke="#ffffff" stroke-width="1.6" stroke-opacity="0.623529" d="M806.26,-366.73C784.53,-339.94 725.21,-266.81 704.02,-240.69"/>
<polygon fill="none" stroke="#ffffff" stroke-width="1.6" stroke-opacity="0.623529" points="706.98,-238.78 697.96,-233.22 701.54,-243.19 706.98,-238.78"/>
</a>
</g>
</g>
<!-- 25 -->
<g id="node21" class="node node0 node19 node23 node25">
<title>25</title>
<g id="a_node21"><a xlink:title="hashbrown v0.16.1&#10;2.48 KiB">
<ellipse fill="#11283b" stroke="#ffffff" stroke-width="1.2" stroke-opacity="0.623529" cx="817.38" cy="-99.17" rx="7.55" ry="7.55"/>
<text xml:space="preserve" text-anchor="middle" x="817.38" y="-92.95" font-family="monospace" font-size="18.00" fill="#ffffff">hashbrown</text>
</a>
</g>
</g>
<!-- 23&#45;&gt;25 -->
<g id="edge23" class="edge node0 node19 node23">
<title>23&#45;&gt;25</title>
<g id="a_edge23"><a xlink:title="indexmap &#45;&gt; hashbrown">
<path fill="none" stroke="#ffffff" stroke-width="1.6" stroke-opacity="0.623529" d="M696.46,-229.17C699.38,-226.06 774.38,-146.05 804.77,-113.63"/>
<polygon fill="none" stroke="#ffffff" stroke-width="1.6" stroke-opacity="0.623529" points="806.98,-116.39 811.26,-106.7 801.87,-111.6 806.98,-116.39"/>
</a>
</g>
</g>
<!-- 28 -->
<g id="node24" class="node node0 node33 node0 node0 node35 node27 node0 node0 node35 node29 node0 node36 node0 node36 node37 node0 node36 node38 node28">
<title>28</title>
<g id="a_node24"><a xlink:title="serde_core v1.0.228&#10;19.10 KiB">
<ellipse fill="#215471" stroke="#ffffff" stroke-width="1.2" stroke-opacity="0.623529" cx="1342.38" cy="-99.17" rx="27.41" ry="27.41"/>
<text xml:space="preserve" text-anchor="middle" x="1342.38" y="-92.95" font-family="monospace" font-size="18.00" fill="#ffffff">serde_core</text>
</a>
</g>
</g>
<!-- 27&#45;&gt;28 -->
<g id="edge26" class="edge node0 node0 node35 node27">
<title>27&#45;&gt;28</title>
<g id="a_edge26"><a xlink:title="serde &#45;&gt; serde_core">
<path fill="none" stroke="#ffffff" stroke-width="1.6" stroke-opacity="0.623529" d="M1251.44,-229.17C1253.3,-226.54 1293.85,-169.02 1320.16,-131.68"/>
<polygon fill="none" stroke="#ffffff" stroke-width="1.6" stroke-opacity="0.623529" points="1322.87,-133.92 1325.77,-123.73 1317.15,-129.88 1322.87,-133.92"/>
</a>
</g>
</g>
<!-- 29&#45;&gt;28 -->
<g id="edge30" class="edge node0 node0 node35 node29">
<title>29&#45;&gt;28</title>
<g id="a_edge30"><a xlink:title="serde_json &#45;&gt; serde_core">
<path fill="none" stroke="#ffffff" stroke-width="1.6" stroke-opacity="0.623529" d="M1148.62,-212.47C1163.02,-199.01 1184.49,-180.18 1205.38,-166.59 1237.65,-145.58 1277.56,-126.97 1305.96,-114.84"/>
<polygon fill="none" stroke="#ffffff" stroke-width="1.6" stroke-opacity="0.623529" points="1307.27,-118.08 1315.14,-110.98 1304.56,-111.63 1307.27,-118.08"/>
</a>
</g>
</g>
<!-- 31 -->
<g id="node26" class="node node0 node0 node35 node29 node31">
<title>31</title>
<g id="a_node26"><a xlink:title="memchr v2.7.6&#10;5.31 KiB">
<ellipse fill="#163449" stroke="#ffffff" stroke-width="1.2" stroke-opacity="0.623529" cx="1107.38" cy="-99.17" rx="13.21" ry="13.21"/>
<text xml:space="preserve" text-anchor="middle" x="1107.38" y="-92.95" font-family="monospace" font-size="18.00" fill="#ffffff">memchr</text>
</a>
</g>
</g>
<!-- 29&#45;&gt;31 -->
<g id="edge28" class="edge node0 node0 node35 node29">
<title>29&#45;&gt;31</title>
<g id="a_edge28"><a xlink:title="serde_json &#45;&gt; memchr">
<path fill="none" stroke="#ffffff" stroke-width="1.6" stroke-opacity="0.623529" d="M1126.97,-205.59C1122.67,-182.47 1116.17,-147.46 1111.84,-124.21"/>
<polygon fill="none" stroke="#ffffff" stroke-width="1.6" stroke-opacity="0.623529" points="1115.3,-123.64 1110.03,-114.44 1108.42,-124.92 1115.3,-123.64"/>
</a>
</g>
</g>
<!-- 32 -->
<g id="node27" class="node node0 node0 node35 node29 node32">
<title>32</title>
<g id="a_node27"><a xlink:title="ryu v1.0.20&#10;2.69 KiB">
<ellipse fill="#11293c" stroke="#ffffff" stroke-width="1.2" stroke-opacity="0.623529" cx="1194.38" cy="-99.17" rx="8.03" ry="8.03"/>
<text xml:space="preserve" text-anchor="middle" x="1194.38" y="-92.95" font-family="monospace" font-size="18.00" fill="#ffffff">ryu</text>
</a>
</g>
</g>
<!-- 29&#45;&gt;32 -->
<g id="edge29" class="edge node0 node0 node35 node29">
<title>29&#45;&gt;32</title>
<g id="a_edge29"><a xlink:title="serde_json &#45;&gt; ryu">
<path fill="none" stroke="#ffffff" stroke-width="1.6" stroke-opacity="0.623529" d="M1141.92,-207.66C1154.28,-182.34 1174.5,-140.89 1185.89,-117.55"/>
<polygon fill="none" stroke="#ffffff" stroke-width="1.6" stroke-opacity="0.623529" points="1189.03,-119.11 1190.27,-108.59 1182.73,-116.04 1189.03,-119.11"/>
</a>
</g>
</g>
<!-- 33&#45;&gt;28 -->
<g id="edge32" class="edge node0 node33">
<title>33&#45;&gt;28</title>
<g id="a_edge32"><a xlink:title="serde_with &#45;&gt; serde_core">
<path fill="none" stroke="#ffffff" stroke-width="1.6" stroke-opacity="0.623529" d="M1355.34,-376.6C1354.61,-373.89 1342.84,-330.08 1339.38,-293.95 1333.98,-237.6 1338.1,-223.18 1339.38,-166.59 1339.58,-157.57 1339.94,-147.86 1340.34,-138.74"/>
<polygon fill="none" stroke="#ffffff" stroke-width="1.6" stroke-opacity="0.623529" points="1343.83,-138.92 1340.81,-128.76 1336.84,-138.59 1343.83,-138.92"/>
</a>
</g>
</g>
<!-- 35&#45;&gt;27 -->
<g id="edge35" class="edge node0 node35">
<title>35&#45;&gt;27</title>
<g id="a_edge35"><a xlink:title="tinytemplate &#45;&gt; serde">
<path fill="none" stroke="#ffffff" stroke-width="1.6" stroke-opacity="0.623529" d="M1172.74,-347.99C1194.81,-315.23 1229.74,-263.38 1244.46,-241.53"/>
<polygon fill="none" stroke="#ffffff" stroke-width="1.6" stroke-opacity="0.623529" points="1247.3,-243.58 1249.99,-233.33 1241.5,-239.67 1247.3,-243.58"/>
</a>
</g>
</g>
<!-- 35&#45;&gt;29 -->
<g id="edge36" class="edge node0 node35">
<title>35&#45;&gt;29</title>
<g id="a_edge36"><a xlink:title="tinytemplate &#45;&gt; serde_json">
<path fill="none" stroke="#ffffff" stroke-width="1.6" stroke-opacity="0.623529" d="M1148.16,-342.26C1144.73,-319.57 1140.25,-289.95 1136.78,-267.01"/>
<polygon fill="none" stroke="#ffffff" stroke-width="1.6" stroke-opacity="0.623529" points="1140.29,-266.8 1135.33,-257.44 1133.37,-267.85 1140.29,-266.8"/>
</a>
</g>
</g>
<!-- 36&#45;&gt;28 -->
<g id="edge38" class="edge node0 node36">
<title>36&#45;&gt;28</title>
<g id="a_edge38"><a xlink:title="toml &#45;&gt; serde_core">
<path fill="none" stroke="#ffffff" stroke-width="1.6" stroke-opacity="0.623529" d="M1550.21,-334.93C1556.36,-288.82 1558.57,-214.76 1521.38,-166.59 1487.96,-123.32 1423.3,-108.23 1381.53,-102.98"/>
<polygon fill="none" stroke="#ffffff" stroke-width="1.6" stroke-opacity="0.623529" points="1382.09,-99.52 1371.76,-101.91 1381.32,-106.48 1382.09,-99.52"/>
</a>
</g>
</g>
<!-- 37 -->
<g id="node32" class="node node0 node36 node37">
<title>37</title>
<g id="a_node32"><a xlink:title="serde_spanned v1.0.3&#10;0 B">
<ellipse fill="#122b3f" stroke="#ffffff" stroke-width="1.2" stroke-opacity="0.623529" cx="1654.38" cy="-230.27" rx="0.36" ry="0.36"/>
<text xml:space="preserve" text-anchor="middle" x="1654.38" y="-224.04" font-family="monospace" font-size="18.00" fill="#ffffff">serde_spanned</text>
</a>
</g>
</g>
<!-- 36&#45;&gt;37 -->
<g id="edge39" class="edge node0 node36">
<title>36&#45;&gt;37</title>
<g id="a_edge39"><a xlink:title="toml &#45;&gt; serde_spanned">
<path fill="none" stroke="#ffffff" stroke-width="1.6" stroke-opacity="0.623529" d="M1568.35,-342.99C1593.8,-309.94 1630.98,-261.65 1646.8,-241.11"/>
<polygon fill="none" stroke="#ffffff" stroke-width="1.6" stroke-opacity="0.623529" points="1649.53,-243.3 1652.86,-233.24 1643.99,-239.03 1649.53,-243.3"/>
</a>
</g>
</g>
<!-- 38 -->
<g id="node33" class="node node0 node36 node38">
<title>38</title>
<g id="a_node33"><a xlink:title="toml_datetime v0.7.3&#10;5.74 KiB">
<ellipse fill="#1a4057" stroke="#ffffff" stroke-width="1.2" stroke-opacity="0.623529" cx="1430.38" cy="-230.27" rx="13.91" ry="13.91"/>
<text xml:space="preserve" text-anchor="middle" x="1430.38" y="-224.04" font-family="monospace" font-size="18.00" fill="#ffffff">toml_datetime</text>
</a>
</g>
</g>
<!-- 36&#45;&gt;38 -->
<g id="edge41" class="edge node0 node36">
<title>36&#45;&gt;38</title>
<g id="a_edge41"><a xlink:title="toml &#45;&gt; toml_datetime">
<path fill="none" stroke="#ffffff" stroke-width="1.6" stroke-opacity="0.623529" d="M1516.4,-342.99C1494.43,-314.46 1463.71,-274.57 1445.55,-250.97"/>
<polygon fill="none" stroke="#ffffff" stroke-width="1.6" stroke-opacity="0.623529" points="1448.51,-249.09 1439.64,-243.3 1442.97,-253.36 1448.51,-249.09"/>
</a>
</g>
</g>
<!-- 39 -->
<g id="node34" class="node node0 node36 node39">
<title>39</title>
<g id="a_node34"><a xlink:title="toml_parser v1.0.4&#10;44.80 KiB">
<ellipse fill="#2b6e96" stroke="#ffffff" stroke-width="1.2" stroke-opacity="0.623529" cx="1867.38" cy="-230.27" rx="39.11" ry="39.11"/>
<text xml:space="preserve" text-anchor="middle" x="1867.38" y="-224.04" font-family="monospace" font-size="18.00" fill="#ffffff">toml_parser</text>
</a>
</g>
</g>
<!-- 36&#45;&gt;39 -->
<g id="edge43" class="edge node0 node36">
<title>36&#45;&gt;39</title>
<g id="a_edge43"><a xlink:title="toml &#45;&gt; toml_parser">
<path fill="none" stroke="#ffffff" stroke-width="1.6" stroke-opacity="0.623529" d="M1574.19,-347.67C1581.12,-342.48 1588.7,-337.57 1596.38,-333.95 1672.85,-297.87 1705.29,-328.71 1782.38,-293.95 1798.92,-286.49 1815.38,-275.43 1829.34,-264.67"/>
<polygon fill="none" stroke="#ffffff" stroke-width="1.6" stroke-opacity="0.623529" points="1831.5,-267.42 1837.14,-258.45 1827.14,-261.94 1831.5,-267.42"/>
</a>
</g>
</g>
<!-- 40 -->
<g id="node35" class="node node0 node36 node0 node36 node39 node40">
<title>40</title>
<g id="a_node35"><a xlink:title="winnow v0.7.13&#10;349 B">
<ellipse fill="#0a1826" stroke="#ffffff" stroke-width="1.2" stroke-opacity="0.623529" cx="1816.38" cy="-99.17" rx="1.28" ry="1.28"/>
<text xml:space="preserve" text-anchor="middle" x="1816.38" y="-92.95" font-family="monospace" font-size="18.00" fill="#ffffff">winnow</text>
</a>
</g>
</g>
<!-- 36&#45;&gt;40 -->
<g id="edge45" class="edge node0 node36">
<title>36&#45;&gt;40</title>
<g id="a_edge45"><a xlink:title="toml &#45;&gt; winnow">
<path fill="none" stroke="#ffffff" stroke-width="1.6" stroke-opacity="0.623529" d="M1574.33,-347.98C1581.26,-342.76 1588.79,-337.77 1596.38,-333.95 1657.63,-303.13 1695.55,-341.05 1745.38,-293.95 1788.69,-253.01 1766.09,-222.26 1787.38,-166.59 1794.95,-146.78 1805.12,-124.26 1811.19,-111.19"/>
<polygon fill="none" stroke="#ffffff" stroke-width="1.6" stroke-opacity="0.623529" points="1814.2,-113.01 1815.29,-102.47 1807.87,-110.02 1814.2,-113.01"/>
</a>
</g>
</g>
<!-- 37&#45;&gt;28 -->
<g id="edge40" class="edge node0 node36 node37">
<title>37&#45;&gt;28</title>
<g id="a_edge40"><a xlink:title="serde_spanned &#45;&gt; serde_core">
<path fill="none" stroke="#ffffff" stroke-width="1.6" stroke-opacity="0.623529" d="M1654.23,-229.15C1651.26,-226.72 1603.07,-187.54 1558.38,-166.59 1498.92,-138.71 1424.88,-118.9 1380.74,-108.52"/>
<polygon fill="none" stroke="#ffffff" stroke-width="1.6" stroke-opacity="0.623529" points="1381.74,-105.16 1371.21,-106.33 1380.17,-111.98 1381.74,-105.16"/>
</a>
</g>
</g>
<!-- 38&#45;&gt;28 -->
<g id="edge42" class="edge node0 node36 node38">
<title>38&#45;&gt;28</title>
<g id="a_edge42"><a xlink:title="toml_datetime &#45;&gt; serde_core">
<path fill="none" stroke="#ffffff" stroke-width="1.6" stroke-opacity="0.623529" d="M1423.17,-218.7C1410.43,-200.01 1383.45,-160.43 1364.17,-132.15"/>
<polygon fill="none" stroke="#ffffff" stroke-width="1.6" stroke-opacity="0.623529" points="1367.1,-130.22 1358.57,-123.93 1361.31,-134.17 1367.1,-130.22"/>
</a>
</g>
</g>
<!-- 39&#45;&gt;40 -->
<g id="edge44" class="edge node0 node36 node39">
<title>39&#45;&gt;40</title>
<g id="a_edge44"><a xlink:title="toml_parser &#45;&gt; winnow">
<path fill="none" stroke="#ffffff" stroke-width="1.6" stroke-opacity="0.623529" d="M1853.44,-193.99C1842.58,-166.51 1828.18,-130.05 1820.94,-111.72"/>
<polygon fill="none" stroke="#ffffff" stroke-width="1.6" stroke-opacity="0.623529" points="1824.26,-110.6 1817.33,-102.58 1817.75,-113.17 1824.26,-110.6"/>
</a>
</g>
</g>
</g>
</svg>
