<?xml version="1.0" encoding="UTF-8" standalone="no"?>
<!DOCTYPE svg PUBLIC "-//W3C//DTD SVG 1.1//EN"
 "http://www.w3.org/Graphics/SVG/1.1/DTD/svg11.dtd">
<!-- Generated by graphviz version 13.1.2 (20250808.2320)
 -->
<!-- Pages: 1 -->
<svg width="1035pt" height="996pt"
 viewBox="0.00 0.00 1035.00 996.00" xmlns="http://www.w3.org/2000/svg" xmlns:xlink="http://www.w3.org/1999/xlink">
<g id="graph0" class="graph" transform="scale(1 1) rotate(0) translate(72 924.31)">
<polygon fill="#000000" stroke="none" points="-72,72 -72,-924.31 962.65,-924.31 962.65,72 -72,72"/>
<!-- 2 -->
<g id="node1" class="node">
<title>2</title>
<g id="a_node1"><a xlink:title="bstr v1.12.0&#10;27.02 KiB">
<ellipse fill="#141425" stroke="#ffffff" stroke-width="0.9" stroke-opacity="0.623529" cx="270.95" cy="-408.67" rx="32.02" ry="32.02"/>
<text xml:space="preserve" text-anchor="middle" x="270.95" y="-403.42" font-family="monospace" font-size="15.00" fill="#ffffff">bstr</text>
</a>
</g>
</g>
<!-- 3 -->
<g id="node2" class="node">
<title>3</title>
<g id="a_node2"><a xlink:title="memchr v2.7.6&#10;20.91 KiB">
<ellipse fill="#030204" stroke="#ffffff" stroke-width="0.9" stroke-opacity="0.623529" cx="489.95" cy="-63.76" rx="28.59" ry="28.59"/>
<text xml:space="preserve" text-anchor="middle" x="489.95" y="-58.51" font-family="monospace" font-size="15.00" fill="#ffffff">memchr</text>
</a>
</g>
</g>
<!-- 2&#45;&gt;3 -->
<g id="edge1" class="edge">
<title>2&#45;&gt;3</title>
<g id="a_edge1"><a xlink:title="bstr &#45;&gt; memchr">
<path fill="none" stroke="#ffffff" stroke-width="1.2" stroke-opacity="0.623529" d="M294.36,-387.29C311.22,-371.8 333.75,-349.36 349.95,-326.64 393.02,-266.24 389.74,-242.82 424.95,-177.52 439.88,-149.83 457.79,-118.91 471.03,-96.46"/>
<polygon fill="none" stroke="#ffffff" stroke-width="1.2" stroke-opacity="0.623529" points="473.27,-98.17 474.93,-89.86 468.45,-95.32 473.27,-98.17"/>
</a>
</g>
</g>
<!-- 4 -->
<g id="node3" class="node">
<title>4</title>
<g id="a_node3"><a xlink:title="regex_automata v0.4.13&#10;467.22 KiB">
<ellipse fill="#11101d" stroke="#ffffff" stroke-width="0.9" stroke-opacity="0.623529" cx="262.95" cy="-252.08" rx="74.56" ry="74.56"/>
<text xml:space="preserve" text-anchor="middle" x="262.95" y="-246.83" font-family="monospace" font-size="15.00" fill="#ffffff">regex_automata</text>
</a>
</g>
</g>
<!-- 2&#45;&gt;4 -->
<g id="edge2" class="edge">
<title>2&#45;&gt;4</title>
<g id="a_edge2"><a xlink:title="bstr &#45;&gt; regex_automata">
<path fill="none" stroke="#ffffff" stroke-width="1.2" stroke-opacity="0.623529" d="M269.35,-376.76C268.73,-364.83 267.99,-350.57 267.24,-336.03"/>
<polygon fill="none" stroke="#ffffff" stroke-width="1.2" stroke-opacity="0.623529" points="270.05,-336.13 266.84,-328.28 264.46,-336.42 270.05,-336.13"/>
</a>
</g>
</g>
<!-- 4&#45;&gt;3 -->
<g id="edge3" class="edge">
<title>4&#45;&gt;3</title>
<g id="a_edge3"><a xlink:title="regex_automata &#45;&gt; memchr">
<path fill="none" stroke="#ffffff" stroke-width="1.2" stroke-opacity="0.623529" d="M319.94,-204.3C364.93,-167.37 425.84,-117.38 461.22,-88.34"/>
<polygon fill="none" stroke="#ffffff" stroke-width="1.2" stroke-opacity="0.623529" points="462.55,-90.87 466.96,-83.63 459,-86.54 462.55,-90.87"/>
</a>
</g>
</g>
<!-- 6 -->
<g id="node4" class="node">
<title>6</title>
<g id="a_node4"><a xlink:title="regex_syntax v0.8.8&#10;232.14 KiB">
<ellipse fill="#030204" stroke="#ffffff" stroke-width="0.9" stroke-opacity="0.623529" cx="149.95" cy="-63.76" rx="63.76" ry="63.76"/>
<text xml:space="preserve" text-anchor="middle" x="149.95" y="-58.51" font-family="monospace" font-size="15.00" fill="#ffffff">regex_syntax</text>
</a>
</g>
</g>
<!-- 4&#45;&gt;6 -->
<g id="edge4" class="edge">
<title>4&#45;&gt;6</title>
<g id="a_edge4"><a xlink:title="regex_automata &#45;&gt; regex_syntax">
<path fill="none" stroke="#ffffff" stroke-width="1.2" stroke-opacity="0.623529" d="M224.85,-188.26C212.79,-168.39 199.49,-146.44 187.47,-126.64"/>
<polygon fill="none" stroke="#ffffff" stroke-width="1.2" stroke-opacity="0.623529" points="189.9,-125.23 183.35,-119.84 185.11,-128.13 189.9,-125.23"/>
</a>
</g>
</g>
<!-- 7 -->
<g id="node5" class="node">
<title>7</title>
<g id="a_node5"><a xlink:title="grep v0.4.1 (/home/my4ng/Programming/ripgrep/crates/grep)&#10;0 B">
<ellipse fill="#c182ff" stroke="#ffffff" stroke-width="0.9" stroke-opacity="0.623529" cx="523.95" cy="-839.31" rx="0.36" ry="0.36"/>
<text xml:space="preserve" text-anchor="middle" x="523.95" y="-834.06" font-family="monospace" font-size="15.00" fill="#ffffff">grep</text>
</a>
</g>
</g>
<!-- 8 -->
<g id="node6" class="node">
<title>8</title>
<g id="a_node6"><a xlink:title="grep_cli v0.1.12 (/home/my4ng/Programming/ripgrep/crates/cli)&#10;24.62 KiB">
<ellipse fill="#3a3766" stroke="#ffffff" stroke-width="0.9" stroke-opacity="0.623529" cx="327.95" cy="-719.23" rx="30.77" ry="30.77"/>
<text xml:space="preserve" text-anchor="middle" x="327.95" y="-713.98" font-family="monospace" font-size="15.00" fill="#ffffff">grep_cli</text>
</a>
</g>
</g>
<!-- 7&#45;&gt;8 -->
<g id="edge5" class="edge">
<title>7&#45;&gt;8</title>
<g id="a_edge5"><a xlink:title="grep &#45;&gt; grep_cli">
<path fill="none" stroke="#ffffff" stroke-width="1.2" stroke-opacity="0.623529" d="M523.81,-838.23C519.47,-835.61 416.97,-773.86 362.02,-740.76"/>
<polygon fill="none" stroke="#ffffff" stroke-width="1.2" stroke-opacity="0.623529" points="363.49,-738.37 355.19,-736.64 360.6,-743.17 363.49,-738.37"/>
</a>
</g>
</g>
<!-- 13 -->
<g id="node9" class="node">
<title>13</title>
<g id="a_node9"><a xlink:title="grep_matcher v0.1.8 (/home/my4ng/Programming/ripgrep/crates/matcher)&#10;821 B">
<ellipse fill="#0a080f" stroke="#ffffff" stroke-width="0.9" stroke-opacity="0.623529" cx="589.95" cy="-408.67" rx="2.86" ry="2.86"/>
<text xml:space="preserve" text-anchor="middle" x="589.95" y="-403.42" font-family="monospace" font-size="15.00" fill="#ffffff">grep_matcher</text>
</a>
</g>
</g>
<!-- 7&#45;&gt;13 -->
<g id="edge12" class="edge">
<title>7&#45;&gt;13</title>
<g id="a_edge12"><a xlink:title="grep &#45;&gt; grep_matcher">
<path fill="none" stroke="#ffffff" stroke-width="1.2" stroke-opacity="0.623529" d="M524.1,-838.24C527.26,-836.77 578.07,-812.64 598.95,-776.31 662.47,-665.75 652.41,-615.42 625.95,-490.69 620.14,-463.33 604.44,-434 595.82,-419.27"/>
<polygon fill="none" stroke="#ffffff" stroke-width="1.2" stroke-opacity="0.623529" points="598.37,-418.07 591.83,-412.68 593.58,-420.98 598.37,-418.07"/>
</a>
</g>
</g>
<!-- 14 -->
<g id="node10" class="node">
<title>14</title>
<g id="a_node10"><a xlink:title="grep_printer v0.3.1 (/home/my4ng/Programming/ripgrep/crates/printer)&#10;150.06 KiB">
<ellipse fill="#47427d" stroke="#ffffff" stroke-width="0.9" stroke-opacity="0.623529" cx="523.95" cy="-719.23" rx="57.08" ry="57.08"/>
<text xml:space="preserve" text-anchor="middle" x="523.95" y="-713.98" font-family="monospace" font-size="15.00" fill="#ffffff">grep_printer</text>
</a>
</g>
</g>
<!-- 7&#45;&gt;14 -->
<g id="edge14" class="edge">
<title>7&#45;&gt;14</title>
<g id="a_edge14"><a xlink:title="grep &#45;&gt; grep_printer">
<path fill="none" stroke="#ffffff" stroke-width="1.2" stroke-opacity="0.623529" d="M523.95,-838.23C523.95,-836.6 523.95,-812.13 523.95,-785.89"/>
<polygon fill="none" stroke="#ffffff" stroke-width="1.2" stroke-opacity="0.623529" points="526.75,-786 523.95,-778 521.15,-786 526.75,-786"/>
</a>
</g>
</g>
<!-- 15 -->
<g id="node11" class="node">
<title>15</title>
<g id="a_node11"><a xlink:title="grep_searcher v0.1.16 (/home/my4ng/Programming/ripgrep/crates/searcher)&#10;190.51 KiB">
<ellipse fill="#2b2a4e" stroke="#ffffff" stroke-width="0.9" stroke-opacity="0.623529" cx="783.95" cy="-551.42" rx="60.73" ry="60.73"/>
<text xml:space="preserve" text-anchor="middle" x="783.95" y="-546.17" font-family="monospace" font-size="15.00" fill="#ffffff">grep_searcher</text>
</a>
</g>
</g>
<!-- 7&#45;&gt;15 -->
<g id="edge33" class="edge">
<title>7&#45;&gt;15</title>
<g id="a_edge33"><a xlink:title="grep &#45;&gt; grep_searcher">
<path fill="none" stroke="#ffffff" stroke-width="1.2" stroke-opacity="0.623529" d="M524.03,-838.31C527.53,-838.15 640.11,-832.75 697.95,-776.31 740.5,-734.78 762.34,-669.92 773.33,-620.68"/>
<polygon fill="none" stroke="#ffffff" stroke-width="1.2" stroke-opacity="0.623529" points="776.01,-621.55 774.95,-613.14 770.54,-620.38 776.01,-621.55"/>
</a>
</g>
</g>
<!-- 25 -->
<g id="node16" class="node">
<title>25</title>
<g id="a_node16"><a xlink:title="grep_regex v0.1.14 (/home/my4ng/Programming/ripgrep/crates/regex)&#10;51.96 KiB">
<ellipse fill="#272647" stroke="#ffffff" stroke-width="0.9" stroke-opacity="0.623529" cx="173.95" cy="-551.42" rx="41.25" ry="41.25"/>
<text xml:space="preserve" text-anchor="middle" x="173.95" y="-546.17" font-family="monospace" font-size="15.00" fill="#ffffff">grep_regex</text>
</a>
</g>
</g>
<!-- 7&#45;&gt;25 -->
<g id="edge28" class="edge">
<title>7&#45;&gt;25</title>
<g id="a_edge28"><a xlink:title="grep &#45;&gt; grep_regex">
<path fill="none" stroke="#ffffff" stroke-width="1.2" stroke-opacity="0.623529" d="M523.83,-838.32C518.82,-838.69 358.03,-849.83 270.95,-776.31 218.04,-731.64 193.15,-652.73 182.07,-601.52"/>
<polygon fill="none" stroke="#ffffff" stroke-width="1.2" stroke-opacity="0.623529" points="184.82,-601.03 180.46,-593.76 179.34,-602.16 184.82,-601.03"/>
</a>
</g>
</g>
<!-- 8&#45;&gt;2 -->
<g id="edge6" class="edge">
<title>8&#45;&gt;2</title>
<g id="a_edge6"><a xlink:title="grep_cli &#45;&gt; bstr">
<path fill="none" stroke="#ffffff" stroke-width="1.2" stroke-opacity="0.623529" d="M316.37,-690.83C307.95,-669.71 297,-639.57 290.95,-612.15 278.76,-556.86 273.99,-491.43 272.13,-450.23"/>
<polygon fill="none" stroke="#ffffff" stroke-width="1.2" stroke-opacity="0.623529" points="274.93,-450.24 271.8,-442.37 269.34,-450.48 274.93,-450.24"/>
</a>
</g>
</g>
<!-- 9 -->
<g id="node7" class="node">
<title>9</title>
<g id="a_node7"><a xlink:title="globset v0.4.18 (/home/my4ng/Programming/ripgrep/crates/globset)&#10;81.89 KiB">
<ellipse fill="#272647" stroke="#ffffff" stroke-width="0.9" stroke-opacity="0.623529" cx="47.95" cy="-551.42" rx="47.95" ry="47.95"/>
<text xml:space="preserve" text-anchor="middle" x="47.95" y="-546.17" font-family="monospace" font-size="15.00" fill="#ffffff">globset</text>
</a>
</g>
</g>
<!-- 8&#45;&gt;9 -->
<g id="edge7" class="edge">
<title>8&#45;&gt;9</title>
<g id="a_edge7"><a xlink:title="grep_cli &#45;&gt; globset">
<path fill="none" stroke="#ffffff" stroke-width="1.2" stroke-opacity="0.623529" d="M299.57,-708.08C256.02,-691.74 171.1,-656.87 107.95,-612.15 100.39,-606.79 92.92,-600.46 85.95,-593.95"/>
<polygon fill="none" stroke="#ffffff" stroke-width="1.2" stroke-opacity="0.623529" points="88.17,-592.2 80.47,-588.67 84.29,-596.24 88.17,-592.2"/>
</a>
</g>
</g>
<!-- 12 -->
<g id="node8" class="node">
<title>12</title>
<g id="a_node8"><a xlink:title="termcolor v1.4.1&#10;12.81 KiB">
<ellipse fill="#030204" stroke="#ffffff" stroke-width="0.9" stroke-opacity="0.623529" cx="351.95" cy="-551.42" rx="22.45" ry="22.45"/>
<text xml:space="preserve" text-anchor="middle" x="351.95" y="-546.17" font-family="monospace" font-size="15.00" fill="#ffffff">termcolor</text>
</a>
</g>
</g>
<!-- 8&#45;&gt;12 -->
<g id="edge11" class="edge">
<title>8&#45;&gt;12</title>
<g id="a_edge11"><a xlink:title="grep_cli &#45;&gt; termcolor">
<path fill="none" stroke="#ffffff" stroke-width="1.2" stroke-opacity="0.623529" d="M332.18,-688.97C336.49,-659.23 343.13,-613.36 347.5,-583.12"/>
<polygon fill="none" stroke="#ffffff" stroke-width="1.2" stroke-opacity="0.623529" points="350.26,-583.62 348.63,-575.3 344.72,-582.82 350.26,-583.62"/>
</a>
</g>
</g>
<!-- 9&#45;&gt;2 -->
<g id="edge8" class="edge">
<title>9&#45;&gt;2</title>
<g id="a_edge8"><a xlink:title="globset &#45;&gt; bstr">
<path fill="none" stroke="#ffffff" stroke-width="1.2" stroke-opacity="0.623529" d="M79.22,-515.51C88.01,-506.79 97.91,-497.89 107.95,-490.69 147.43,-462.37 198.29,-438.84 232.61,-424.56"/>
<polygon fill="none" stroke="#ffffff" stroke-width="1.2" stroke-opacity="0.623529" points="233.38,-427.28 239.72,-421.65 231.25,-422.09 233.38,-427.28"/>
</a>
</g>
</g>
<!-- 9&#45;&gt;4 -->
<g id="edge9" class="edge">
<title>9&#45;&gt;4</title>
<g id="a_edge9"><a xlink:title="globset &#45;&gt; regex_automata">
<path fill="none" stroke="#ffffff" stroke-width="1.2" stroke-opacity="0.623529" d="M75.4,-512.46C110.34,-464.14 171.31,-379.82 214.23,-320.46"/>
<polygon fill="none" stroke="#ffffff" stroke-width="1.2" stroke-opacity="0.623529" points="216.41,-322.22 218.83,-314.1 211.87,-318.94 216.41,-322.22"/>
</a>
</g>
</g>
<!-- 9&#45;&gt;6 -->
<g id="edge10" class="edge">
<title>9&#45;&gt;6</title>
<g id="a_edge10"><a xlink:title="globset &#45;&gt; regex_syntax">
<path fill="none" stroke="#ffffff" stroke-width="1.2" stroke-opacity="0.623529" d="M57.54,-504.73C75.39,-419.75 113.8,-236.85 135.05,-135.68"/>
<polygon fill="none" stroke="#ffffff" stroke-width="1.2" stroke-opacity="0.623529" points="137.78,-136.33 136.68,-127.93 132.3,-135.18 137.78,-136.33"/>
</a>
</g>
</g>
<!-- 13&#45;&gt;3 -->
<g id="edge13" class="edge">
<title>13&#45;&gt;3</title>
<g id="a_edge13"><a xlink:title="grep_matcher &#45;&gt; memchr">
<path fill="none" stroke="#ffffff" stroke-width="1.2" stroke-opacity="0.623529" d="M589.94,-406.15C589.85,-391.23 588.1,-268.97 555.95,-177.52 545.41,-147.54 526.64,-116.6 511.8,-94.73"/>
<polygon fill="none" stroke="#ffffff" stroke-width="1.2" stroke-opacity="0.623529" points="514.21,-93.3 507.36,-88.31 509.61,-96.49 514.21,-93.3"/>
</a>
</g>
</g>
<!-- 14&#45;&gt;2 -->
<g id="edge15" class="edge">
<title>14&#45;&gt;2</title>
<g id="a_edge15"><a xlink:title="grep_printer &#45;&gt; bstr">
<path fill="none" stroke="#ffffff" stroke-width="1.2" stroke-opacity="0.623529" d="M498.69,-668.13C489.85,-650.47 479.89,-630.46 470.95,-612.15 444.69,-558.4 453.67,-534.5 412.95,-490.69 384.1,-459.66 340.62,-437.27 309.37,-423.99"/>
<polygon fill="none" stroke="#ffffff" stroke-width="1.2" stroke-opacity="0.623529" points="310.65,-421.49 302.18,-421.02 308.51,-426.67 310.65,-421.49"/>
</a>
</g>
</g>
<!-- 14&#45;&gt;12 -->
<g id="edge27" class="edge">
<title>14&#45;&gt;12</title>
<g id="a_edge27"><a xlink:title="grep_printer &#45;&gt; termcolor">
<path fill="none" stroke="#ffffff" stroke-width="1.2" stroke-opacity="0.623529" d="M483.62,-679.35C449.53,-646.49 401.95,-600.63 374.31,-573.97"/>
<polygon fill="none" stroke="#ffffff" stroke-width="1.2" stroke-opacity="0.623529" points="376.41,-572.11 368.7,-568.57 372.52,-576.14 376.41,-572.11"/>
</a>
</g>
</g>
<!-- 14&#45;&gt;13 -->
<g id="edge16" class="edge">
<title>14&#45;&gt;13</title>
<g id="a_edge16"><a xlink:title="grep_printer &#45;&gt; grep_matcher">
<path fill="none" stroke="#ffffff" stroke-width="1.2" stroke-opacity="0.623529" d="M563.06,-677.89C578.32,-659.4 594.04,-636.26 601.95,-612.15 624.91,-542.15 602.33,-451.36 593.31,-420.48"/>
<polygon fill="none" stroke="#ffffff" stroke-width="1.2" stroke-opacity="0.623529" points="596.06,-419.91 591.04,-413.08 590.71,-421.55 596.06,-419.91"/>
</a>
</g>
</g>
<!-- 14&#45;&gt;15 -->
<g id="edge17" class="edge">
<title>14&#45;&gt;15</title>
<g id="a_edge17"><a xlink:title="grep_printer &#45;&gt; grep_searcher">
<path fill="none" stroke="#ffffff" stroke-width="1.2" stroke-opacity="0.623529" d="M571.33,-688.01C614.58,-660.43 678.66,-619.56 725.16,-589.91"/>
<polygon fill="none" stroke="#ffffff" stroke-width="1.2" stroke-opacity="0.623529" points="726.56,-592.33 731.8,-585.67 723.55,-587.61 726.56,-592.33"/>
</a>
</g>
</g>
<!-- 20 -->
<g id="node14" class="node">
<title>20</title>
<g id="a_node14"><a xlink:title="serde v1.0.228&#10;0 B">
<ellipse fill="#0a080f" stroke="#ffffff" stroke-width="0.9" stroke-opacity="0.623529" cx="558.95" cy="-551.42" rx="0.36" ry="0.36"/>
<text xml:space="preserve" text-anchor="middle" x="558.95" y="-546.17" font-family="monospace" font-size="15.00" fill="#ffffff">serde</text>
</a>
</g>
</g>
<!-- 14&#45;&gt;20 -->
<g id="edge24" class="edge">
<title>14&#45;&gt;20</title>
<g id="a_edge24"><a xlink:title="grep_printer &#45;&gt; serde">
<path fill="none" stroke="#ffffff" stroke-width="1.2" stroke-opacity="0.623529" d="M535.5,-663.48C543.31,-626.52 552.89,-581.09 556.97,-561.8"/>
<polygon fill="none" stroke="#ffffff" stroke-width="1.2" stroke-opacity="0.623529" points="559.65,-562.65 558.56,-554.24 554.17,-561.49 559.65,-562.65"/>
</a>
</g>
</g>
<!-- 22 -->
<g id="node15" class="node">
<title>22</title>
<g id="a_node15"><a xlink:title="serde_json v1.0.145&#10;10.96 KiB">
<ellipse fill="#11101d" stroke="#ffffff" stroke-width="0.9" stroke-opacity="0.623529" cx="489.95" cy="-252.08" rx="20.62" ry="20.62"/>
<text xml:space="preserve" text-anchor="middle" x="489.95" y="-246.83" font-family="monospace" font-size="15.00" fill="#ffffff">serde_json</text>
</a>
</g>
</g>
<!-- 14&#45;&gt;22 -->
<g id="edge25" class="edge">
<title>14&#45;&gt;22</title>
<g id="a_edge25"><a xlink:title="grep_printer &#45;&gt; serde_json">
<path fill="none" stroke="#ffffff" stroke-width="1.2" stroke-opacity="0.623529" d="M519.7,-662.35C518.48,-646.16 517.15,-628.45 515.95,-612.15 506.89,-489.59 496.41,-343.47 492.03,-282.29"/>
<polygon fill="none" stroke="#ffffff" stroke-width="1.2" stroke-opacity="0.623529" points="494.83,-282.14 491.47,-274.36 489.24,-282.53 494.83,-282.14"/>
</a>
</g>
</g>
<!-- 15&#45;&gt;2 -->
<g id="edge18" class="edge">
<title>15&#45;&gt;2</title>
<g id="a_edge18"><a xlink:title="grep_searcher &#45;&gt; bstr">
<path fill="none" stroke="#ffffff" stroke-width="1.2" stroke-opacity="0.623529" d="M727.32,-530.59C691.58,-518.38 644.31,-502.81 601.95,-490.69 498.01,-460.96 373.82,-432.39 311.23,-418.47"/>
<polygon fill="none" stroke="#ffffff" stroke-width="1.2" stroke-opacity="0.623529" points="311.92,-415.76 303.5,-416.76 310.71,-421.23 311.92,-415.76"/>
</a>
</g>
</g>
<!-- 15&#45;&gt;3 -->
<g id="edge23" class="edge">
<title>15&#45;&gt;3</title>
<g id="a_edge23"><a xlink:title="grep_searcher &#45;&gt; memchr">
<path fill="none" stroke="#ffffff" stroke-width="1.2" stroke-opacity="0.623529" d="M830.55,-513.03C850.76,-493.82 872.22,-468.59 882.95,-440.69 916.54,-353.3 823.17,-186.75 813.95,-177.52 734.08,-97.55 594.6,-74.18 527.76,-67.44"/>
<polygon fill="none" stroke="#ffffff" stroke-width="1.2" stroke-opacity="0.623529" points="528.09,-64.66 519.87,-66.7 527.57,-70.23 528.09,-64.66"/>
</a>
</g>
</g>
<!-- 15&#45;&gt;13 -->
<g id="edge22" class="edge">
<title>15&#45;&gt;13</title>
<g id="a_edge22"><a xlink:title="grep_searcher &#45;&gt; grep_matcher">
<path fill="none" stroke="#ffffff" stroke-width="1.2" stroke-opacity="0.623529" d="M735.49,-515.26C689.35,-481.79 623.46,-433.98 599.29,-416.45"/>
<polygon fill="none" stroke="#ffffff" stroke-width="1.2" stroke-opacity="0.623529" points="601.09,-414.29 592.97,-411.86 597.8,-418.83 601.09,-414.29"/>
</a>
</g>
</g>
<!-- 16 -->
<g id="node12" class="node">
<title>16</title>
<g id="a_node12"><a xlink:title="encoding_rs v0.8.35&#10;32.26 KiB">
<ellipse fill="#0a080f" stroke="#ffffff" stroke-width="0.9" stroke-opacity="0.623529" cx="743.95" cy="-252.08" rx="34.46" ry="34.46"/>
<text xml:space="preserve" text-anchor="middle" x="743.95" y="-246.83" font-family="monospace" font-size="15.00" fill="#ffffff">encoding_rs</text>
</a>
</g>
</g>
<!-- 15&#45;&gt;16 -->
<g id="edge19" class="edge">
<title>15&#45;&gt;16</title>
<g id="a_edge19"><a xlink:title="grep_searcher &#45;&gt; encoding_rs">
<path fill="none" stroke="#ffffff" stroke-width="1.2" stroke-opacity="0.623529" d="M746.89,-503.48C734.51,-484.99 722.27,-462.89 715.95,-440.69 701.75,-390.84 715.59,-331.38 728.36,-292.96"/>
<polygon fill="none" stroke="#ffffff" stroke-width="1.2" stroke-opacity="0.623529" points="730.85,-294.34 730.81,-285.86 725.56,-292.51 730.85,-294.34"/>
</a>
</g>
</g>
<!-- 18 -->
<g id="node13" class="node">
<title>18</title>
<g id="a_node13"><a xlink:title="encoding_rs_io v0.1.7&#10;12.02 KiB">
<ellipse fill="#0d0b15" stroke="#ffffff" stroke-width="0.9" stroke-opacity="0.623529" cx="798.95" cy="-408.67" rx="21.69" ry="21.69"/>
<text xml:space="preserve" text-anchor="middle" x="798.95" y="-403.42" font-family="monospace" font-size="15.00" fill="#ffffff">encoding_rs_io</text>
</a>
</g>
</g>
<!-- 15&#45;&gt;18 -->
<g id="edge20" class="edge">
<title>15&#45;&gt;18</title>
<g id="a_edge20"><a xlink:title="grep_searcher &#45;&gt; encoding_rs_io">
<path fill="none" stroke="#ffffff" stroke-width="1.2" stroke-opacity="0.623529" d="M790.27,-491.13C792.15,-473.43 794.14,-454.77 795.74,-439.78"/>
<polygon fill="none" stroke="#ffffff" stroke-width="1.2" stroke-opacity="0.623529" points="798.52,-440.1 796.58,-431.85 792.95,-439.51 798.52,-440.1"/>
</a>
</g>
</g>
<!-- 18&#45;&gt;16 -->
<g id="edge21" class="edge">
<title>18&#45;&gt;16</title>
<g id="a_edge21"><a xlink:title="encoding_rs_io &#45;&gt; encoding_rs">
<path fill="none" stroke="#ffffff" stroke-width="1.2" stroke-opacity="0.623529" d="M792.09,-388.4C783.69,-364.78 769.23,-324.13 758.34,-293.53"/>
<polygon fill="none" stroke="#ffffff" stroke-width="1.2" stroke-opacity="0.623529" points="761.01,-292.7 755.7,-286.1 755.74,-294.58 761.01,-292.7"/>
</a>
</g>
</g>
<!-- 22&#45;&gt;3 -->
<g id="edge26" class="edge">
<title>22&#45;&gt;3</title>
<g id="a_edge26"><a xlink:title="serde_json &#45;&gt; memchr">
<path fill="none" stroke="#ffffff" stroke-width="1.2" stroke-opacity="0.623529" d="M489.95,-231.49C489.95,-200.74 489.95,-140.63 489.95,-101.61"/>
<polygon fill="none" stroke="#ffffff" stroke-width="1.2" stroke-opacity="0.623529" points="492.75,-102 489.95,-94 487.15,-102 492.75,-102"/>
</a>
</g>
</g>
<!-- 25&#45;&gt;2 -->
<g id="edge29" class="edge">
<title>25&#45;&gt;2</title>
<g id="a_edge29"><a xlink:title="grep_regex &#45;&gt; bstr">
<path fill="none" stroke="#ffffff" stroke-width="1.2" stroke-opacity="0.623529" d="M196.69,-517.42C212.15,-494.98 232.53,-465.41 248.03,-442.92"/>
<polygon fill="none" stroke="#ffffff" stroke-width="1.2" stroke-opacity="0.623529" points="250.23,-444.66 252.47,-436.48 245.62,-441.48 250.23,-444.66"/>
</a>
</g>
</g>
<!-- 25&#45;&gt;4 -->
<g id="edge31" class="edge">
<title>25&#45;&gt;4</title>
<g id="a_edge31"><a xlink:title="grep_regex &#45;&gt; regex_automata">
<path fill="none" stroke="#ffffff" stroke-width="1.2" stroke-opacity="0.623529" d="M185.41,-512.11C195.94,-476.9 211.99,-423.25 225.95,-376.64 230.23,-362.34 234.79,-347.11 239.19,-332.4"/>
<polygon fill="none" stroke="#ffffff" stroke-width="1.2" stroke-opacity="0.623529" points="241.78,-333.53 241.39,-325.07 236.41,-331.93 241.78,-333.53"/>
</a>
</g>
</g>
<!-- 25&#45;&gt;6 -->
<g id="edge32" class="edge">
<title>25&#45;&gt;6</title>
<g id="a_edge32"><a xlink:title="grep_regex &#45;&gt; regex_syntax">
<path fill="none" stroke="#ffffff" stroke-width="1.2" stroke-opacity="0.623529" d="M171.96,-510.26C167.91,-428.25 158.63,-240.54 153.51,-136.87"/>
<polygon fill="none" stroke="#ffffff" stroke-width="1.2" stroke-opacity="0.623529" points="156.31,-136.77 153.12,-128.91 150.72,-137.04 156.31,-136.77"/>
</a>
</g>
</g>
<!-- 25&#45;&gt;13 -->
<g id="edge30" class="edge">
<title>25&#45;&gt;13</title>
<g id="a_edge30"><a xlink:title="grep_regex &#45;&gt; grep_matcher">
<path fill="none" stroke="#ffffff" stroke-width="1.2" stroke-opacity="0.623529" d="M209.17,-530.01C231.95,-517.42 262.54,-501.65 290.95,-490.69 399.39,-448.84 537.84,-419.9 578.34,-411.91"/>
<polygon fill="none" stroke="#ffffff" stroke-width="1.2" stroke-opacity="0.623529" points="578.65,-414.7 585.97,-410.42 577.58,-409.2 578.65,-414.7"/>
</a>
</g>
</g>
</g>
</svg>
