<?xml version="1.0" encoding="UTF-8" standalone="no"?>
<!DOCTYPE svg PUBLIC "-//W3C//DTD SVG 1.1//EN"
 "http://www.w3.org/Graphics/SVG/1.1/DTD/svg11.dtd">
<!-- Generated by graphviz version 13.1.2 (20250808.2320)
 -->
<!-- Pages: 1 -->
<svg width="1123pt" height="1182pt"
 viewBox="0.00 0.00 1123.00 1182.00" xmlns="http://www.w3.org/2000/svg" xmlns:xlink="http://www.w3.org/1999/xlink">
<style>
.graph:has(.node3:hover) > g:not(.node3) { opacity: 0.5 }
.graph:has(.node4:hover) > g:not(.node4) { opacity: 0.5 }
.graph:has(.node5:hover) > g:not(.node5) { opacity: 0.5 }
.graph:has(.node7:hover) > g:not(.node7) { opacity: 0.5 }
.graph:has(.node8:hover) > g:not(.node8) { opacity: 0.5 }
.graph:has(.node9:hover) > g:not(.node9) { opacity: 0.5 }
.graph:has(.node10:hover) > g:not(.node10) { opacity: 0.5 }
.graph:has(.node13:hover) > g:not(.node13) { opacity: 0.5 }
.graph:has(.node14:hover) > g:not(.node14) { opacity: 0.5 }
.graph:has(.node15:hover) > g:not(.node15) { opacity: 0.5 }
.graph:has(.node16:hover) > g:not(.node16) { opacity: 0.5 }
.graph:has(.node17:hover) > g:not(.node17) { opacity: 0.5 }
.graph:has(.node19:hover) > g:not(.node19) { opacity: 0.5 }
.graph:has(.node21:hover) > g:not(.node21) { opacity: 0.5 }
.graph:has(.node23:hover) > g:not(.node23) { opacity: 0.5 }
.graph:has(.node26:hover) > g:not(.node26) { opacity: 0.5 }
</style>
<g id="graph0" class="graph" transform="scale(1 1) rotate(0) translate(72 1110.05)">
<polygon fill="#000000" stroke="none" points="-72,72 -72,-1110.05 1050.88,-1110.05 1050.88,72 -72,72"/>
<!-- 3 -->
<g id="node1" class="node node3 node5 node7 node4 node4">
<title>3</title>
<g id="a_node1"><a xlink:title="bstr v1.12.0&#10;27.02 KiB&#10;alloc,default(std,unicode),std(alloc),unicode">
<ellipse fill="#383561" stroke="#ffffff" stroke-width="0.9" cx="265" cy="-551.17" rx="32.02" ry="32.02"/>
<text xml:space="preserve" text-anchor="middle" x="265" y="-545.92" font-family="monospace" font-size="15.00" fill="#ffffff">bstr</text>
</a>
</g>
</g>
<!-- 4 -->
<g id="node2" class="node node4">
<title>4</title>
<g id="a_node2"><a xlink:title="memchr v2.7.6&#10;20.91 KiB&#10;alloc,default,std">
<ellipse fill="#030104" stroke="#ffffff" stroke-width="0.9" cx="583" cy="-63.76" rx="28.59" ry="28.59"/>
<text xml:space="preserve" text-anchor="middle" x="583" y="-58.51" font-family="monospace" font-size="15.00" fill="#ffffff">memchr</text>
</a>
</g>
</g>
<!-- 3&#45;&gt;4 -->
<g id="edge1" class="edge node4">
<title>3&#45;&gt;4</title>
<g id="a_edge1"><a xlink:title="bstr &#45;&gt; memchr">
<path fill="none" stroke="#ffffff" stroke-width="1.2" stroke-opacity="0.623529" d="M283.2,-525.3C317.45,-478.24 393.4,-372.63 453,-280.77 495.09,-215.9 541,-137.69 565.41,-95.45"/>
<polygon fill="none" stroke="#ffffff" stroke-width="1.2" stroke-opacity="0.623529" points="567.19,-96.56 568.37,-90.31 563.56,-94.46 567.19,-96.56"/>
</a>
</g>
<g id="a_edge1&#45;label"><a xlink:title="bstr &#45;&gt; memchr">
<text xml:space="preserve" text-anchor="middle" x="477.87" y="-383.89" font-family="monospace" font-size="11.25" fill="#ffffff">alloc(alloc),</text>
<text xml:space="preserve" text-anchor="middle" x="477.87" y="-369.64" font-family="monospace" font-size="11.25" fill="#ffffff">std(std)</text>
</a>
</g>
</g>
<!-- 5 -->
<g id="node3" class="node node5 node7 node4">
<title>5</title>
<g id="a_node3"><a xlink:title="regex_automata v0.4.13&#10;467.22 KiB&#10;alloc,default(dfa,unicode),dfa(dfa&#45;build,dfa&#45;onepass),dfa&#45;build,dfa&#45;onepass,dfa&#45;search,hybrid(alloc,nfa&#45;thompson),meta(nfa&#45;pikevm,syntax),nfa(nfa&#45;backtrack),nfa&#45;backtrack,nfa&#45;pikevm,nfa&#45;thompson,perf(perf&#45;inline,perf&#45;literal),perf&#45;inline,perf&#45;literal(perf&#45;literal&#45;multisubstring,perf&#45;literal&#45;substring),perf&#45;literal&#45;multisubstring,perf&#45;literal&#45;substring,std,syntax,unicode(unicode&#45;age,unicode&#45;bool,unicode&#45;case,unicode&#45;gencat,unicode&#45;perl,unicode&#45;script,unicode&#45;segment,unicode&#45;word&#45;boundary),unicode&#45;age,unicode&#45;bool,unicode&#45;case,unicode&#45;gencat,unicode&#45;perl,unicode&#45;script,unicode&#45;segment,unicode&#45;word&#45;boundary">
<ellipse fill="#2e2d55" stroke="#ffffff" stroke-width="0.9" cx="222" cy="-380.33" rx="74.56" ry="74.56"/>
<text xml:space="preserve" text-anchor="middle" x="222" y="-375.08" font-family="monospace" font-size="15.00" fill="#ffffff">regex_automata</text>
</a>
</g>
</g>
<!-- 3&#45;&gt;5 -->
<g id="edge2" class="edge node5 node7 node4">
<title>3&#45;&gt;5</title>
<g id="a_edge2"><a xlink:title="bstr &#45;&gt; regex_automata">
<path fill="none" stroke="#ffffff" stroke-width="1.2" stroke-opacity="0.623529" d="M257.41,-520.37C253.12,-503.52 247.53,-481.58 242.07,-460.12"/>
<polygon fill="none" stroke="#ffffff" stroke-width="1.2" stroke-opacity="0.623529" points="244.11,-459.62 240.59,-454.32 240.04,-460.66 244.11,-459.62"/>
</a>
</g>
</g>
<!-- 5&#45;&gt;4 -->
<g id="edge3" class="edge node4">
<title>5&#45;&gt;4</title>
<g id="a_edge3"><a xlink:title="regex_automata &#45;&gt; memchr">
<path fill="none" stroke="#ffffff" stroke-width="1.2" stroke-opacity="0.623529" d="M289.32,-348.73C317.99,-332.44 349.29,-309.73 369,-280.77 401.82,-232.54 360.66,-198.16 397,-152.52 435,-104.79 505.14,-81.68 547.58,-71.59"/>
<polygon fill="none" stroke="#ffffff" stroke-width="1.2" stroke-opacity="0.623529" points="548.02,-73.64 553.4,-70.26 547.08,-69.55 548.02,-73.64"/>
</a>
</g>
<g id="a_edge3&#45;label"><a xlink:title="regex_automata &#45;&gt; memchr">
<text xml:space="preserve" text-anchor="middle" x="424" y="-213.08" font-family="monospace" font-size="11.25" fill="#ffffff">std(std)</text>
</a>
</g>
</g>
<!-- 7 -->
<g id="node4" class="node node7">
<title>7</title>
<g id="a_node4"><a xlink:title="regex_syntax v0.8.8&#10;232.14 KiB&#10;default,std,unicode,unicode&#45;age,unicode&#45;bool,unicode&#45;case,unicode&#45;gencat,unicode&#45;perl,unicode&#45;script,unicode&#45;segment">
<ellipse fill="#030104" stroke="#ffffff" stroke-width="0.9" cx="109" cy="-63.76" rx="63.76" ry="63.76"/>
<text xml:space="preserve" text-anchor="middle" x="109" y="-58.51" font-family="monospace" font-size="15.00" fill="#ffffff">regex_syntax</text>
</a>
</g>
</g>
<!-- 5&#45;&gt;7 -->
<g id="edge4" class="edge node7">
<title>5&#45;&gt;7</title>
<g id="a_edge4"><a xlink:title="regex_automata &#45;&gt; regex_syntax">
<path fill="none" stroke="#ffffff" stroke-width="1.2" stroke-opacity="0.623529" d="M174.94,-322.7C165.86,-309.56 157.24,-295.19 151,-280.77 145.17,-267.28 131.18,-192 120.94,-134.06"/>
<polygon fill="none" stroke="#ffffff" stroke-width="1.2" stroke-opacity="0.623529" points="123.01,-133.7 119.9,-128.15 118.87,-134.43 123.01,-133.7"/>
</a>
</g>
<g id="a_edge4&#45;label"><a xlink:title="regex_automata &#45;&gt; regex_syntax">
<text xml:space="preserve" text-anchor="middle" x="259" y="-270.08" font-family="monospace" font-size="11.25" fill="#ffffff">std(std),</text>
<text xml:space="preserve" text-anchor="middle" x="259" y="-255.83" font-family="monospace" font-size="11.25" fill="#ffffff">unicode(unicode),</text>
<text xml:space="preserve" text-anchor="middle" x="259" y="-241.58" font-family="monospace" font-size="11.25" fill="#ffffff">unicode&#45;age(unicode&#45;age),</text>
<text xml:space="preserve" text-anchor="middle" x="259" y="-227.33" font-family="monospace" font-size="11.25" fill="#ffffff">unicode&#45;bool(unicode&#45;bool),</text>
<text xml:space="preserve" text-anchor="middle" x="259" y="-213.08" font-family="monospace" font-size="11.25" fill="#ffffff">unicode&#45;case(unicode&#45;case),</text>
<text xml:space="preserve" text-anchor="middle" x="259" y="-198.83" font-family="monospace" font-size="11.25" fill="#ffffff">unicode&#45;gencat(unicode&#45;gencat),</text>
<text xml:space="preserve" text-anchor="middle" x="259" y="-184.58" font-family="monospace" font-size="11.25" fill="#ffffff">unicode&#45;perl(unicode&#45;perl),</text>
<text xml:space="preserve" text-anchor="middle" x="259" y="-170.33" font-family="monospace" font-size="11.25" fill="#ffffff">unicode&#45;script(unicode&#45;script),</text>
<text xml:space="preserve" text-anchor="middle" x="259" y="-156.08" font-family="monospace" font-size="11.25" fill="#ffffff">unicode&#45;segment(unicode&#45;segment)</text>
</a>
</g>
</g>
<!-- 8 -->
<g id="node5" class="node node8 node26 node14 node4 node7 node5 node7 node4 node3 node5 node7 node4 node4 node16 node19 node17 node17 node14 node4 node4 node3 node5 node7 node4 node4 node15 node23 node4 node21 node16 node19 node17 node17 node14 node4 node4 node3 node5 node7 node4 node4 node14 node4 node13 node3 node5 node7 node4 node4 node14 node4 node9 node13 node10 node7 node5 node7 node4 node3 node5 node7 node4 node4 node3 node5 node7 node4 node4">
<title>8</title>
<g id="a_node5"><a xlink:title="grep v0.4.1 (/home/my4ng/Programming/ripgrep/crates/grep)&#10;0 B&#10;default">
<ellipse fill="#c082fe" stroke="#ffffff" stroke-width="0.9" cx="327" cy="-1025.05" rx="0.36" ry="0.36"/>
<text xml:space="preserve" text-anchor="middle" x="327" y="-1019.8" font-family="monospace" font-size="15.00" fill="#ffffff">grep</text>
</a>
</g>
</g>
<!-- 9 -->
<g id="node6" class="node node9 node13 node10 node7 node5 node7 node4 node3 node5 node7 node4 node4 node3 node5 node7 node4 node4">
<title>9</title>
<g id="a_node6"><a xlink:title="grep_cli v0.1.12 (/home/my4ng/Programming/ripgrep/crates/cli)&#10;24.62 KiB&#10;default">
<ellipse fill="#6956a2" stroke="#ffffff" stroke-width="0.9" cx="245" cy="-903.97" rx="30.77" ry="30.77"/>
<text xml:space="preserve" text-anchor="middle" x="245" y="-898.72" font-family="monospace" font-size="15.00" fill="#ffffff">grep_cli</text>
</a>
</g>
</g>
<!-- 8&#45;&gt;9 -->
<g id="edge5" class="edge node9 node13 node10 node7 node5 node7 node4 node3 node5 node7 node4 node4 node3 node5 node7 node4 node4">
<title>8&#45;&gt;9</title>
<g id="a_edge5"><a xlink:title="grep &#45;&gt; grep_cli">
<path fill="none" stroke="#ffffff" stroke-width="1.2" stroke-opacity="0.623529" d="M326.94,-1023.97C325.3,-1021.58 289.93,-970.22 266.2,-935.76"/>
<polygon fill="none" stroke="#ffffff" stroke-width="1.2" stroke-opacity="0.623529" points="268.08,-934.78 262.95,-931.03 264.62,-937.17 268.08,-934.78"/>
</a>
</g>
</g>
<!-- 14 -->
<g id="node9" class="node node14 node4">
<title>14</title>
<g id="a_node9"><a xlink:title="grep_matcher v0.1.8 (/home/my4ng/Programming/ripgrep/crates/matcher)&#10;821 B&#10;default">
<ellipse fill="#1c1d35" stroke="#ffffff" stroke-width="0.9" cx="534" cy="-551.17" rx="2.86" ry="2.86"/>
<text xml:space="preserve" text-anchor="middle" x="534" y="-545.92" font-family="monospace" font-size="15.00" fill="#ffffff">grep_matcher</text>
</a>
</g>
</g>
<!-- 8&#45;&gt;14 -->
<g id="edge12" class="edge node14 node4">
<title>8&#45;&gt;14</title>
<g id="a_edge12"><a xlink:title="grep &#45;&gt; grep_matcher">
<path fill="none" stroke="#ffffff" stroke-width="1.2" stroke-opacity="0.623529" d="M326.95,-1023.9C325.07,-1017.36 265.49,-807.04 342,-674.43 384.78,-600.29 492.63,-564.08 524.8,-554.69"/>
<polygon fill="none" stroke="#ffffff" stroke-width="1.2" stroke-opacity="0.623529" points="525.02,-556.81 530.23,-553.18 523.89,-552.77 525.02,-556.81"/>
</a>
</g>
</g>
<!-- 15 -->
<g id="node10" class="node node15 node23 node4 node21 node16 node19 node17 node17 node14 node4 node4 node3 node5 node7 node4 node4 node14 node4 node13 node3 node5 node7 node4 node4">
<title>15</title>
<g id="a_node10"><a xlink:title="grep_printer v0.3.1 (/home/my4ng/Programming/ripgrep/crates/printer)&#10;150.06 KiB&#10;default(serde),serde">
<ellipse fill="#7d5fb6" stroke="#ffffff" stroke-width="0.9" cx="541" cy="-903.97" rx="57.08" ry="57.08"/>
<text xml:space="preserve" text-anchor="middle" x="541" y="-898.72" font-family="monospace" font-size="15.00" fill="#ffffff">grep_printer</text>
</a>
</g>
</g>
<!-- 8&#45;&gt;15 -->
<g id="edge14" class="edge node15 node23 node4 node21 node16 node19 node17 node17 node14 node4 node4 node3 node5 node7 node4 node4 node14 node4 node13 node3 node5 node7 node4 node4">
<title>8&#45;&gt;15</title>
<g id="a_edge14"><a xlink:title="grep &#45;&gt; grep_printer">
<path fill="none" stroke="#ffffff" stroke-width="1.2" stroke-opacity="0.623529" d="M327.16,-1023.97C331.43,-1021.59 423.09,-970.58 485.01,-936.13"/>
<polygon fill="none" stroke="#ffffff" stroke-width="1.2" stroke-opacity="0.623529" points="485.84,-938.07 490.07,-933.31 483.8,-934.4 485.84,-938.07"/>
</a>
</g>
</g>
<!-- 16 -->
<g id="node11" class="node node16 node19 node17 node17 node14 node4 node4 node3 node5 node7 node4 node4">
<title>16</title>
<g id="a_node11"><a xlink:title="grep_searcher v0.1.16 (/home/my4ng/Programming/ripgrep/crates/searcher)&#10;190.51 KiB&#10;default">
<ellipse fill="#52498b" stroke="#ffffff" stroke-width="0.9" cx="732" cy="-735.16" rx="60.73" ry="60.73"/>
<text xml:space="preserve" text-anchor="middle" x="732" y="-729.91" font-family="monospace" font-size="15.00" fill="#ffffff">grep_searcher</text>
</a>
</g>
</g>
<!-- 8&#45;&gt;16 -->
<g id="edge28" class="edge node16 node19 node17 node17 node14 node4 node4 node3 node5 node7 node4 node4">
<title>8&#45;&gt;16</title>
<g id="a_edge28"><a xlink:title="grep &#45;&gt; grep_searcher">
<path fill="none" stroke="#ffffff" stroke-width="1.2" stroke-opacity="0.623529" d="M327.04,-1024.05C330.69,-1023.69 564.26,-1000.76 616,-961.05 667.65,-921.41 698.38,-852.29 715.09,-801.11"/>
<polygon fill="none" stroke="#ffffff" stroke-width="1.2" stroke-opacity="0.623529" points="717.08,-801.78 716.91,-795.43 713.08,-800.5 717.08,-801.78"/>
</a>
</g>
</g>
<!-- 26 -->
<g id="node16" class="node node26 node14 node4 node7 node5 node7 node4 node3 node5 node7 node4 node4">
<title>26</title>
<g id="a_node16"><a xlink:title="grep_regex v0.1.14 (/home/my4ng/Programming/ripgrep/crates/regex)&#10;51.96 KiB&#10;default">
<ellipse fill="#4e4784" stroke="#ffffff" stroke-width="0.9" cx="53" cy="-735.16" rx="41.25" ry="41.25"/>
<text xml:space="preserve" text-anchor="middle" x="53" y="-729.91" font-family="monospace" font-size="15.00" fill="#ffffff">grep_regex</text>
</a>
</g>
</g>
<!-- 8&#45;&gt;26 -->
<g id="edge29" class="edge node26 node14 node4 node7 node5 node7 node4 node3 node5 node7 node4 node4">
<title>8&#45;&gt;26</title>
<g id="a_edge29"><a xlink:title="grep &#45;&gt; grep_regex">
<path fill="none" stroke="#ffffff" stroke-width="1.2" stroke-opacity="0.623529" d="M326.94,-1024.04C324.27,-1023.48 238.56,-1005.19 189,-961.05 132.17,-910.44 91.66,-830.31 70.33,-780.61"/>
<polygon fill="none" stroke="#ffffff" stroke-width="1.2" stroke-opacity="0.623529" points="72.3,-779.89 68.03,-775.18 68.43,-781.52 72.3,-779.89"/>
</a>
</g>
</g>
<!-- 9&#45;&gt;3 -->
<g id="edge6" class="edge node3 node5 node7 node4 node4">
<title>9&#45;&gt;3</title>
<g id="a_edge6"><a xlink:title="grep_cli &#45;&gt; bstr">
<path fill="none" stroke="#ffffff" stroke-width="1.2" stroke-opacity="0.623529" d="M246.69,-873.36C250.3,-809.93 258.8,-660.97 262.82,-590.46"/>
<polygon fill="none" stroke="#ffffff" stroke-width="1.2" stroke-opacity="0.623529" points="264.89,-590.99 263.13,-584.88 260.7,-590.75 264.89,-590.99"/>
</a>
</g>
</g>
<!-- 10 -->
<g id="node7" class="node node10 node7 node5 node7 node4 node3 node5 node7 node4 node4">
<title>10</title>
<g id="a_node7"><a xlink:title="globset v0.4.18 (/home/my4ng/Programming/ripgrep/crates/globset)&#10;81.89 KiB&#10;default(log),log">
<ellipse fill="#4e4784" stroke="#ffffff" stroke-width="0.9" cx="179" cy="-735.16" rx="47.95" ry="47.95"/>
<text xml:space="preserve" text-anchor="middle" x="179" y="-729.91" font-family="monospace" font-size="15.00" fill="#ffffff">globset</text>
</a>
</g>
</g>
<!-- 9&#45;&gt;10 -->
<g id="edge7" class="edge node10 node7 node5 node7 node4 node3 node5 node7 node4 node4">
<title>9&#45;&gt;10</title>
<g id="a_edge7"><a xlink:title="grep_cli &#45;&gt; globset">
<path fill="none" stroke="#ffffff" stroke-width="1.2" stroke-opacity="0.623529" d="M234.1,-875.43C224.62,-851.45 210.62,-816.09 199.11,-787"/>
<polygon fill="none" stroke="#ffffff" stroke-width="1.2" stroke-opacity="0.623529" points="201.07,-786.24 196.91,-781.44 197.17,-787.79 201.07,-786.24"/>
</a>
</g>
</g>
<!-- 13 -->
<g id="node8" class="node node13">
<title>13</title>
<g id="a_node8"><a xlink:title="termcolor v1.4.1&#10;12.81 KiB&#10;default">
<ellipse fill="#030104" stroke="#ffffff" stroke-width="0.9" cx="403" cy="-735.16" rx="22.45" ry="22.45"/>
<text xml:space="preserve" text-anchor="middle" x="403" y="-729.91" font-family="monospace" font-size="15.00" fill="#ffffff">termcolor</text>
</a>
</g>
</g>
<!-- 9&#45;&gt;13 -->
<g id="edge11" class="edge node13">
<title>9&#45;&gt;13</title>
<g id="a_edge11"><a xlink:title="grep_cli &#45;&gt; termcolor">
<path fill="none" stroke="#ffffff" stroke-width="1.2" stroke-opacity="0.623529" d="M265.33,-881.51C295.78,-849.36 352.85,-789.11 383.06,-757.21"/>
<polygon fill="none" stroke="#ffffff" stroke-width="1.2" stroke-opacity="0.623529" points="384.53,-758.72 387.13,-752.92 381.48,-755.83 384.53,-758.72"/>
</a>
</g>
</g>
<!-- 10&#45;&gt;3 -->
<g id="edge8" class="edge node3 node5 node7 node4 node4">
<title>10&#45;&gt;3</title>
<g id="a_edge8"><a xlink:title="globset &#45;&gt; bstr">
<path fill="none" stroke="#ffffff" stroke-width="1.2" stroke-opacity="0.623529" d="M198.95,-691.95C213.97,-660.16 234.32,-617.1 248.44,-587.2"/>
<polygon fill="none" stroke="#ffffff" stroke-width="1.2" stroke-opacity="0.623529" points="250.27,-588.24 250.94,-581.92 246.48,-586.45 250.27,-588.24"/>
</a>
</g>
</g>
<!-- 10&#45;&gt;5 -->
<g id="edge9" class="edge node5 node7 node4">
<title>10&#45;&gt;5</title>
<g id="a_edge9"><a xlink:title="globset &#45;&gt; regex_automata">
<path fill="none" stroke="#ffffff" stroke-width="1.2" stroke-opacity="0.623529" d="M184.67,-687.67C191.66,-630.26 203.68,-531.65 212.19,-461.83"/>
<polygon fill="none" stroke="#ffffff" stroke-width="1.2" stroke-opacity="0.623529" points="214.24,-462.33 212.89,-456.12 210.07,-461.82 214.24,-462.33"/>
</a>
</g>
</g>
<!-- 10&#45;&gt;7 -->
<g id="edge10" class="edge node7">
<title>10&#45;&gt;7</title>
<g id="a_edge10"><a xlink:title="globset &#45;&gt; regex_syntax">
<path fill="none" stroke="#ffffff" stroke-width="1.2" stroke-opacity="0.623529" d="M170.49,-688.37C160.54,-633.19 144.25,-537.57 135,-454.89 122.52,-343.3 115.31,-213.04 111.77,-134.82"/>
<polygon fill="none" stroke="#ffffff" stroke-width="1.2" stroke-opacity="0.623529" points="113.89,-135.13 111.52,-129.23 109.69,-135.32 113.89,-135.13"/>
</a>
</g>
</g>
<!-- 14&#45;&gt;4 -->
<g id="edge13" class="edge node4">
<title>14&#45;&gt;4</title>
<g id="a_edge13"><a xlink:title="grep_matcher &#45;&gt; memchr">
<path fill="none" stroke="#ffffff" stroke-width="1.2" stroke-opacity="0.623529" d="M534.39,-548.36C536.44,-538.78 546.06,-492.88 551,-454.89 567.95,-324.46 577.56,-168.26 581.24,-99.8"/>
<polygon fill="none" stroke="#ffffff" stroke-width="1.2" stroke-opacity="0.623529" points="583.32,-100.2 581.54,-94.1 579.13,-99.98 583.32,-100.2"/>
</a>
</g>
</g>
<!-- 15&#45;&gt;3 -->
<g id="edge15" class="edge node3 node5 node7 node4 node4">
<title>15&#45;&gt;3</title>
<g id="a_edge15"><a xlink:title="grep_printer &#45;&gt; bstr">
<path fill="none" stroke="#ffffff" stroke-width="1.2" stroke-opacity="0.623529" d="M533.29,-847.55C524,-797.8 504.29,-725.04 464,-674.43 420.7,-620.04 346.13,-583.67 301.61,-565.57"/>
<polygon fill="none" stroke="#ffffff" stroke-width="1.2" stroke-opacity="0.623529" points="302.5,-563.66 296.15,-563.39 300.94,-567.56 302.5,-563.66"/>
</a>
</g>
</g>
<!-- 15&#45;&gt;13 -->
<g id="edge16" class="edge node13">
<title>15&#45;&gt;13</title>
<g id="a_edge16"><a xlink:title="grep_printer &#45;&gt; termcolor">
<path fill="none" stroke="#ffffff" stroke-width="1.2" stroke-opacity="0.623529" d="M503.97,-860.75C493.23,-848.32 481.55,-834.64 471,-821.89 453.63,-800.9 434.39,-776.53 420.82,-759.15"/>
<polygon fill="none" stroke="#ffffff" stroke-width="1.2" stroke-opacity="0.623529" points="422.55,-757.96 417.2,-754.51 419.23,-760.54 422.55,-757.96"/>
</a>
</g>
</g>
<!-- 15&#45;&gt;14 -->
<g id="edge17" class="edge node14 node4">
<title>15&#45;&gt;14</title>
<g id="a_edge17"><a xlink:title="grep_printer &#45;&gt; grep_matcher">
<path fill="none" stroke="#ffffff" stroke-width="1.2" stroke-opacity="0.623529" d="M539.88,-847C538.16,-760.87 534.99,-601.58 534.19,-561.5"/>
<polygon fill="none" stroke="#ffffff" stroke-width="1.2" stroke-opacity="0.623529" points="536.29,-561.65 534.07,-555.69 532.09,-561.73 536.29,-561.65"/>
</a>
</g>
</g>
<!-- 15&#45;&gt;16 -->
<g id="edge18" class="edge node16 node19 node17 node17 node14 node4 node4 node3 node5 node7 node4 node4">
<title>15&#45;&gt;16</title>
<g id="a_edge18"><a xlink:title="grep_printer &#45;&gt; grep_searcher">
<path fill="none" stroke="#ffffff" stroke-width="1.2" stroke-opacity="0.623529" d="M583.39,-865.95C612.36,-840.65 650.89,-807 681.46,-780.3"/>
<polygon fill="none" stroke="#ffffff" stroke-width="1.2" stroke-opacity="0.623529" points="682.56,-782.13 685.7,-776.6 679.8,-778.96 682.56,-782.13"/>
</a>
</g>
</g>
<!-- 21 -->
<g id="node14" class="node node21">
<title>21</title>
<g id="a_node14"><a xlink:title="serde v1.0.228&#10;0 B&#10;default(std),std">
<ellipse fill="#1c1d35" stroke="#ffffff" stroke-width="0.9" cx="610" cy="-735.16" rx="0.36" ry="0.36"/>
<text xml:space="preserve" text-anchor="middle" x="610" y="-729.91" font-family="monospace" font-size="15.00" fill="#ffffff">serde</text>
</a>
</g>
</g>
<!-- 15&#45;&gt;21 -->
<g id="edge25" class="edge node21">
<title>15&#45;&gt;21</title>
<g id="a_edge25"><a xlink:title="grep_printer &#45;&gt; serde">
<path fill="none" stroke="#ffffff" stroke-width="1.2" stroke-opacity="0.623529" d="M562.45,-851.11C578.65,-811.94 599.35,-761.9 606.99,-743.43"/>
<polygon fill="none" stroke="#ffffff" stroke-width="1.2" stroke-opacity="0.623529" points="608.93,-744.23 609.29,-737.89 605.05,-742.63 608.93,-744.23"/>
</a>
</g>
</g>
<!-- 23 -->
<g id="node15" class="node node23 node4">
<title>23</title>
<g id="a_node15"><a xlink:title="serde_json v1.0.145&#10;10.96 KiB&#10;default(std),std">
<ellipse fill="#2e2d55" stroke="#ffffff" stroke-width="0.9" cx="923" cy="-628.81" rx="20.62" ry="20.62"/>
<text xml:space="preserve" text-anchor="middle" x="923" y="-623.56" font-family="monospace" font-size="15.00" fill="#ffffff">serde_json</text>
</a>
</g>
</g>
<!-- 15&#45;&gt;23 -->
<g id="edge26" class="edge node23 node4">
<title>15&#45;&gt;23</title>
<g id="a_edge26"><a xlink:title="grep_printer &#45;&gt; serde_json">
<path fill="none" stroke="#ffffff" stroke-width="1.2" stroke-opacity="0.623529" d="M596.39,-891.31C654.73,-876.83 746.86,-847.49 811,-795.89 859.77,-756.65 895.33,-690.48 912.14,-654.66"/>
<polygon fill="none" stroke="#ffffff" stroke-width="1.2" stroke-opacity="0.623529" points="913.89,-655.89 914.49,-649.56 910.07,-654.13 913.89,-655.89"/>
</a>
</g>
</g>
<!-- 16&#45;&gt;3 -->
<g id="edge19" class="edge node3 node5 node7 node4 node4">
<title>16&#45;&gt;3</title>
<g id="a_edge19"><a xlink:title="grep_searcher &#45;&gt; bstr">
<path fill="none" stroke="#ffffff" stroke-width="1.2" stroke-opacity="0.623529" d="M685.83,-695.94C675.39,-688.25 664.11,-680.64 653,-674.43 626.35,-659.53 616.83,-662 589,-649.43 552.54,-632.97 546.57,-621.94 509,-608.19 438.68,-582.45 352.5,-565.99 303.65,-557.97"/>
<polygon fill="none" stroke="#ffffff" stroke-width="1.2" stroke-opacity="0.623529" points="304.2,-555.93 297.94,-557.04 303.52,-560.07 304.2,-555.93"/>
</a>
</g>
</g>
<!-- 16&#45;&gt;4 -->
<g id="edge20" class="edge node4">
<title>16&#45;&gt;4</title>
<g id="a_edge20"><a xlink:title="grep_searcher &#45;&gt; memchr">
<path fill="none" stroke="#ffffff" stroke-width="1.2" stroke-opacity="0.623529" d="M702.52,-682.26C687.59,-653.83 670.47,-617.49 660,-583.19 645.84,-536.81 601.87,-208.21 587.56,-99.55"/>
<polygon fill="none" stroke="#ffffff" stroke-width="1.2" stroke-opacity="0.623529" points="589.64,-99.29 586.78,-93.61 585.48,-99.84 589.64,-99.29"/>
</a>
</g>
</g>
<!-- 16&#45;&gt;14 -->
<g id="edge21" class="edge node14 node4">
<title>16&#45;&gt;14</title>
<g id="a_edge21"><a xlink:title="grep_searcher &#45;&gt; grep_matcher">
<path fill="none" stroke="#ffffff" stroke-width="1.2" stroke-opacity="0.623529" d="M684.3,-698.1C653.91,-675.12 620.19,-649.62 620,-649.43 602.85,-632.99 601.64,-626.07 586,-608.19 570.1,-590.01 550.52,-569.37 540.54,-558.95"/>
<polygon fill="none" stroke="#ffffff" stroke-width="1.2" stroke-opacity="0.623529" points="542.25,-557.7 536.58,-554.83 539.22,-560.61 542.25,-557.7"/>
</a>
</g>
</g>
<!-- 17 -->
<g id="node12" class="node node17">
<title>17</title>
<g id="a_node12"><a xlink:title="encoding_rs v0.8.35&#10;32.26 KiB&#10;alloc,default(alloc)">
<ellipse fill="#1c1d35" stroke="#ffffff" stroke-width="0.9" cx="806" cy="-380.33" rx="34.46" ry="34.46"/>
<text xml:space="preserve" text-anchor="middle" x="806" y="-375.08" font-family="monospace" font-size="15.00" fill="#ffffff">encoding_rs</text>
</a>
</g>
</g>
<!-- 16&#45;&gt;17 -->
<g id="edge22" class="edge node17">
<title>16&#45;&gt;17</title>
<g id="a_edge22"><a xlink:title="grep_searcher &#45;&gt; encoding_rs">
<path fill="none" stroke="#ffffff" stroke-width="1.2" stroke-opacity="0.623529" d="M770.52,-688.23C791.71,-659.9 815.89,-621.72 827,-583.19 842.86,-528.21 830.15,-461.76 818.73,-420.51"/>
<polygon fill="none" stroke="#ffffff" stroke-width="1.2" stroke-opacity="0.623529" points="820.78,-420.05 817.12,-414.86 816.74,-421.2 820.78,-420.05"/>
</a>
</g>
</g>
<!-- 19 -->
<g id="node13" class="node node19 node17">
<title>19</title>
<g id="a_node13"><a xlink:title="encoding_rs_io v0.1.7&#10;12.02 KiB&#10;default">
<ellipse fill="#242442" stroke="#ffffff" stroke-width="0.9" cx="743" cy="-551.17" rx="21.69" ry="21.69"/>
<text xml:space="preserve" text-anchor="middle" x="743" y="-545.92" font-family="monospace" font-size="15.00" fill="#ffffff">encoding_rs_io</text>
</a>
</g>
</g>
<!-- 16&#45;&gt;19 -->
<g id="edge23" class="edge node19 node17">
<title>16&#45;&gt;19</title>
<g id="a_edge23"><a xlink:title="grep_searcher &#45;&gt; encoding_rs_io">
<path fill="none" stroke="#ffffff" stroke-width="1.2" stroke-opacity="0.623529" d="M735.6,-674.57C737.52,-642.76 739.8,-605.13 741.31,-580.07"/>
<polygon fill="none" stroke="#ffffff" stroke-width="1.2" stroke-opacity="0.623529" points="743.4,-580.32 741.67,-574.21 739.21,-580.07 743.4,-580.32"/>
</a>
</g>
</g>
<!-- 19&#45;&gt;17 -->
<g id="edge24" class="edge node17">
<title>19&#45;&gt;17</title>
<g id="a_edge24"><a xlink:title="encoding_rs_io &#45;&gt; encoding_rs">
<path fill="none" stroke="#ffffff" stroke-width="1.2" stroke-opacity="0.623529" d="M750.23,-530.8C760.31,-503.79 778.79,-454.24 791.71,-419.62"/>
<polygon fill="none" stroke="#ffffff" stroke-width="1.2" stroke-opacity="0.623529" points="793.61,-420.53 793.74,-414.18 789.68,-419.07 793.61,-420.53"/>
</a>
</g>
</g>
<!-- 23&#45;&gt;4 -->
<g id="edge27" class="edge node4">
<title>23&#45;&gt;4</title>
<g id="a_edge27"><a xlink:title="serde_json &#45;&gt; memchr">
<path fill="none" stroke="#ffffff" stroke-width="1.2" stroke-opacity="0.623529" d="M924.78,-608.51C928.71,-556.04 933.61,-407.88 876,-305.77 813.05,-194.19 676.62,-113.04 614.7,-80.48"/>
<polygon fill="none" stroke="#ffffff" stroke-width="1.2" stroke-opacity="0.623529" points="615.79,-78.68 609.5,-77.78 613.85,-82.41 615.79,-78.68"/>
</a>
</g>
<g id="a_edge27&#45;label"><a xlink:title="serde_json &#45;&gt; memchr">
<text xml:space="preserve" text-anchor="middle" x="951.88" y="-483.46" font-family="monospace" font-size="11.25" fill="#ffffff">std(std)</text>
</a>
</g>
</g>
<!-- 26&#45;&gt;3 -->
<g id="edge30" class="edge node3 node5 node7 node4 node4">
<title>26&#45;&gt;3</title>
<g id="a_edge30"><a xlink:title="grep_regex &#45;&gt; bstr">
<path fill="none" stroke="#ffffff" stroke-width="1.2" stroke-opacity="0.623529" d="M58.99,-694.62C65.11,-667 77.26,-631.11 101,-608.19 135.05,-575.31 189.18,-561.69 225.85,-556.07"/>
<polygon fill="none" stroke="#ffffff" stroke-width="1.2" stroke-opacity="0.623529" points="225.96,-558.17 231.6,-555.24 225.37,-554.01 225.96,-558.17"/>
</a>
</g>
</g>
<!-- 26&#45;&gt;5 -->
<g id="edge31" class="edge node5 node7 node4">
<title>26&#45;&gt;5</title>
<g id="a_edge31"><a xlink:title="grep_regex &#45;&gt; regex_automata">
<path fill="none" stroke="#ffffff" stroke-width="1.2" stroke-opacity="0.623529" d="M53.78,-694.16C55.39,-668.81 59.56,-635.74 70,-608.19 93.1,-547.22 135.25,-486.28 169.32,-442.94"/>
<polygon fill="none" stroke="#ffffff" stroke-width="1.2" stroke-opacity="0.623529" points="170.86,-444.38 172.94,-438.37 167.57,-441.77 170.86,-444.38"/>
</a>
</g>
</g>
<!-- 26&#45;&gt;7 -->
<g id="edge32" class="edge node7">
<title>26&#45;&gt;7</title>
<g id="a_edge32"><a xlink:title="grep_regex &#45;&gt; regex_syntax">
<path fill="none" stroke="#ffffff" stroke-width="1.2" stroke-opacity="0.623529" d="M52.17,-694.15C51.87,-669.38 51.84,-636.93 53,-608.19 61.23,-405.17 60.22,-353.51 90,-152.52 90.94,-146.2 92.06,-139.66 93.29,-133.12"/>
<polygon fill="none" stroke="#ffffff" stroke-width="1.2" stroke-opacity="0.623529" points="95.34,-133.54 94.42,-127.25 91.22,-132.75 95.34,-133.54"/>
</a>
</g>
</g>
<!-- 26&#45;&gt;14 -->
<g id="edge33" class="edge node14 node4">
<title>26&#45;&gt;14</title>
<g id="a_edge33"><a xlink:title="grep_regex &#45;&gt; grep_matcher">
<path fill="none" stroke="#ffffff" stroke-width="1.2" stroke-opacity="0.623529" d="M80.65,-704.82C91.8,-694.2 105.26,-682.78 119,-674.43 263.74,-586.51 475.43,-558.62 523.87,-553.22"/>
<polygon fill="none" stroke="#ffffff" stroke-width="1.2" stroke-opacity="0.623529" points="523.94,-555.32 529.68,-552.6 523.49,-551.15 523.94,-555.32"/>
</a>
</g>
</g>
</g>
</svg>
