<?xml version="1.0" encoding="UTF-8" standalone="no"?>
<!DOCTYPE svg PUBLIC "-//W3C//DTD SVG 1.1//EN"
 "http://www.w3.org/Graphics/SVG/1.1/DTD/svg11.dtd">
<!-- Generated by graphviz version 13.1.2 (20250808.2320)
 -->
<!-- Pages: 1 -->
<svg width="2515pt" height="902pt"
 viewBox="0.00 0.00 2515.00 902.00" xmlns="http://www.w3.org/2000/svg" xmlns:xlink="http://www.w3.org/1999/xlink">
<g id="graph0" class="graph" transform="scale(1 1) rotate(0) translate(72 830.22)">
<polygon fill="#000000" stroke="none" points="-72,72 -72,-830.22 2443.36,-830.22 2443.36,72 -72,72"/>
<!-- 0 -->
<g id="node1" class="node">
<title>0</title>
<g id="a_node1"><a xlink:title="hyperfine v1.20.0 (/home/my4ng/Programming/hyperfine)&#10;202.97 KiB">
<ellipse fill="#ff98a5" stroke="#ffffff" stroke-width="1.2" stroke-opacity="0.623529" cx="1096" cy="-685.84" rx="61.7" ry="61.7"/>
<text xml:space="preserve" text-anchor="middle" x="1096" y="-690.49" font-family="monospace" font-size="18.00" fill="#ffffff">hyperfine</text>
<text xml:space="preserve" text-anchor="middle" x="1096" y="-668.74" font-family="monospace" font-size="18.00" fill="#ffffff">606.84 KiB</text>
</a>
</g>
</g>
<!-- 1 -->
<g id="node2" class="node">
<title>1</title>
<g id="a_node2"><a xlink:title="anyhow v1.0.100&#10;13.15 KiB">
<ellipse fill="#8f2203" stroke="#ffffff" stroke-width="1.2" stroke-opacity="0.623529" cx="450" cy="-523.07" rx="22.76" ry="22.76"/>
<text xml:space="preserve" text-anchor="middle" x="450" y="-527.72" font-family="monospace" font-size="18.00" fill="#ffffff">anyhow</text>
<text xml:space="preserve" text-anchor="middle" x="450" y="-505.97" font-family="monospace" font-size="18.00" fill="#ffffff">13.15 KiB</text>
</a>
</g>
</g>
<!-- 0&#45;&gt;1 -->
<g id="edge1" class="edge">
<title>0&#45;&gt;1</title>
<g id="a_edge1"><a xlink:title="hyperfine &#45;&gt; anyhow">
<path fill="none" stroke="#ffffff" stroke-width="1.6" stroke-opacity="0.623529" d="M1035.16,-678.05C928.37,-664.82 701.42,-630.79 521,-563.45 506.39,-558 491.16,-549.91 478.56,-542.47"/>
<polygon fill="none" stroke="#ffffff" stroke-width="1.6" stroke-opacity="0.623529" points="480.68,-539.67 470.32,-537.45 477.04,-545.64 480.68,-539.67"/>
</a>
</g>
</g>
<!-- 2 -->
<g id="node3" class="node">
<title>2</title>
<g id="a_node3"><a xlink:title="clap v4.5.52&#10;0 B">
<ellipse fill="#e94347" stroke="#ffffff" stroke-width="1.2" stroke-opacity="0.623529" cx="598" cy="-523.07" rx="0.36" ry="0.36"/>
<text xml:space="preserve" text-anchor="middle" x="598" y="-527.72" font-family="monospace" font-size="18.00" fill="#ffffff">clap</text>
<text xml:space="preserve" text-anchor="middle" x="598" y="-505.97" font-family="monospace" font-size="18.00" fill="#ffffff">245.05 KiB</text>
</a>
</g>
</g>
<!-- 0&#45;&gt;2 -->
<g id="edge2" class="edge">
<title>0&#45;&gt;2</title>
<g id="a_edge2"><a xlink:title="hyperfine &#45;&gt; clap">
<path fill="none" stroke="#ffffff" stroke-width="1.6" stroke-opacity="0.623529" d="M1036.05,-671.56C953.1,-652.3 799.36,-613.38 674,-563.45 649.66,-553.75 622.8,-538.73 608.43,-530.32"/>
<polygon fill="none" stroke="#ffffff" stroke-width="1.6" stroke-opacity="0.623529" points="610.57,-527.52 600.2,-525.39 606.97,-533.53 610.57,-527.52"/>
</a>
</g>
</g>
<!-- 17 -->
<g id="node9" class="node">
<title>17</title>
<g id="a_node9"><a xlink:title="colored v2.2.0&#10;8.62 KiB">
<ellipse fill="#812103" stroke="#ffffff" stroke-width="1.2" stroke-opacity="0.623529" cx="740" cy="-523.07" rx="17.97" ry="17.97"/>
<text xml:space="preserve" text-anchor="middle" x="740" y="-527.72" font-family="monospace" font-size="18.00" fill="#ffffff">colored</text>
<text xml:space="preserve" text-anchor="middle" x="740" y="-505.97" font-family="monospace" font-size="18.00" fill="#ffffff">8.62 KiB</text>
</a>
</g>
</g>
<!-- 0&#45;&gt;17 -->
<g id="edge9" class="edge">
<title>0&#45;&gt;17</title>
<g id="a_edge9"><a xlink:title="hyperfine &#45;&gt; colored">
<path fill="none" stroke="#ffffff" stroke-width="1.6" stroke-opacity="0.623529" d="M1038.52,-663.55C979.22,-640.95 884.58,-603.09 806,-563.45 791.95,-556.36 776.85,-547.45 764.63,-539.9"/>
<polygon fill="none" stroke="#ffffff" stroke-width="1.6" stroke-opacity="0.623529" points="766.73,-537.08 756.4,-534.72 763,-543.01 766.73,-537.08"/>
</a>
</g>
</g>
<!-- 19 -->
<g id="node10" class="node">
<title>19</title>
<g id="a_node10"><a xlink:title="csv v1.4.0&#10;4.83 KiB">
<ellipse fill="#812103" stroke="#ffffff" stroke-width="1.2" stroke-opacity="0.623529" cx="1167" cy="-523.07" rx="12.39" ry="12.39"/>
<text xml:space="preserve" text-anchor="middle" x="1167" y="-527.72" font-family="monospace" font-size="18.00" fill="#ffffff">csv</text>
<text xml:space="preserve" text-anchor="middle" x="1167" y="-505.97" font-family="monospace" font-size="18.00" fill="#ffffff">8.68 KiB</text>
</a>
</g>
</g>
<!-- 0&#45;&gt;19 -->
<g id="edge10" class="edge">
<title>0&#45;&gt;19</title>
<g id="a_edge10"><a xlink:title="hyperfine &#45;&gt; csv">
<path fill="none" stroke="#ffffff" stroke-width="1.6" stroke-opacity="0.623529" d="M1120.43,-629.51C1133.18,-600.64 1148.05,-566.98 1157.49,-545.6"/>
<polygon fill="none" stroke="#ffffff" stroke-width="1.6" stroke-opacity="0.623529" points="1160.67,-547.08 1161.5,-536.51 1154.26,-544.25 1160.67,-547.08"/>
</a>
</g>
</g>
<!-- 25 -->
<g id="node14" class="node">
<title>25</title>
<g id="a_node14"><a xlink:title="indicatif v0.17.4&#10;48.93 KiB">
<ellipse fill="#c7220d" stroke="#ffffff" stroke-width="1.2" stroke-opacity="0.623529" cx="877" cy="-523.07" rx="40.38" ry="40.38"/>
<text xml:space="preserve" text-anchor="middle" x="877" y="-527.72" font-family="monospace" font-size="18.00" fill="#ffffff">indicatif</text>
<text xml:space="preserve" text-anchor="middle" x="877" y="-505.97" font-family="monospace" font-size="18.00" fill="#ffffff">68.54 KiB</text>
</a>
</g>
</g>
<!-- 0&#45;&gt;25 -->
<g id="edge14" class="edge">
<title>0&#45;&gt;25</title>
<g id="a_edge14"><a xlink:title="hyperfine &#45;&gt; indicatif">
<path fill="none" stroke="#ffffff" stroke-width="1.6" stroke-opacity="0.623529" d="M1046.85,-648.76C1008.35,-620.49 955.37,-581.6 918.87,-554.81"/>
<polygon fill="none" stroke="#ffffff" stroke-width="1.6" stroke-opacity="0.623529" points="921.12,-552.12 910.99,-549.02 916.98,-557.76 921.12,-552.12"/>
</a>
</g>
</g>
<!-- 35 -->
<g id="node20" class="node">
<title>35</title>
<g id="a_node20"><a xlink:title="rand v0.8.5&#10;3.83 KiB">
<ellipse fill="#962303" stroke="#ffffff" stroke-width="1.2" stroke-opacity="0.623529" cx="1304" cy="-523.07" rx="10.51" ry="10.51"/>
<text xml:space="preserve" text-anchor="middle" x="1304" y="-527.72" font-family="monospace" font-size="18.00" fill="#ffffff">rand</text>
<text xml:space="preserve" text-anchor="middle" x="1304" y="-505.97" font-family="monospace" font-size="18.00" fill="#ffffff">16.18 KiB</text>
</a>
</g>
</g>
<!-- 0&#45;&gt;35 -->
<g id="edge20" class="edge">
<title>0&#45;&gt;35</title>
<g id="a_edge20"><a xlink:title="hyperfine &#45;&gt; rand">
<path fill="none" stroke="#ffffff" stroke-width="1.6" stroke-opacity="0.623529" d="M1139.38,-642.52C1150.1,-632.66 1161.74,-622.43 1173,-613.45 1211.27,-582.93 1259.56,-551.7 1285.5,-535.46"/>
<polygon fill="none" stroke="#ffffff" stroke-width="1.6" stroke-opacity="0.623529" points="1287.02,-538.63 1293.67,-530.38 1283.33,-532.69 1287.02,-538.63"/>
</a>
</g>
</g>
<!-- 41 -->
<g id="node24" class="node">
<title>41</title>
<g id="a_node24"><a xlink:title="rust_decimal v1.39.0&#10;9.95 KiB">
<ellipse fill="#862203" stroke="#ffffff" stroke-width="1.2" stroke-opacity="0.623529" cx="1463" cy="-523.07" rx="19.53" ry="19.53"/>
<text xml:space="preserve" text-anchor="middle" x="1463" y="-527.72" font-family="monospace" font-size="18.00" fill="#ffffff">rust_decimal</text>
<text xml:space="preserve" text-anchor="middle" x="1463" y="-505.97" font-family="monospace" font-size="18.00" fill="#ffffff">10.05 KiB</text>
</a>
</g>
</g>
<!-- 0&#45;&gt;41 -->
<g id="edge25" class="edge">
<title>0&#45;&gt;41</title>
<g id="a_edge25"><a xlink:title="hyperfine &#45;&gt; rust_decimal">
<path fill="none" stroke="#ffffff" stroke-width="1.6" stroke-opacity="0.623529" d="M1136.95,-639.83C1147.84,-629.95 1160.17,-620.38 1173,-613.45 1254.38,-569.5 1287.55,-593.57 1375,-563.45 1395.7,-556.32 1418.22,-546.19 1435.3,-537.99"/>
<polygon fill="none" stroke="#ffffff" stroke-width="1.6" stroke-opacity="0.623529" points="1436.54,-541.28 1443.99,-533.75 1433.47,-535 1436.54,-541.28"/>
</a>
</g>
</g>
<!-- 45 -->
<g id="node26" class="node">
<title>45</title>
<g id="a_node26"><a xlink:title="serde_json v1.0.145&#10;3.04 KiB">
<ellipse fill="#731f03" stroke="#ffffff" stroke-width="1.2" stroke-opacity="0.623529" cx="1025" cy="-523.07" rx="8.83" ry="8.83"/>
<text xml:space="preserve" text-anchor="middle" x="1025" y="-527.72" font-family="monospace" font-size="18.00" fill="#ffffff">serde_json</text>
<text xml:space="preserve" text-anchor="middle" x="1025" y="-505.97" font-family="monospace" font-size="18.00" fill="#ffffff">5.34 KiB</text>
</a>
</g>
</g>
<!-- 0&#45;&gt;45 -->
<g id="edge27" class="edge">
<title>0&#45;&gt;45</title>
<g id="a_edge27"><a xlink:title="hyperfine &#45;&gt; serde_json">
<path fill="none" stroke="#ffffff" stroke-width="1.6" stroke-opacity="0.623529" d="M1071.57,-629.51C1058.15,-599.12 1042.38,-563.43 1033.07,-542.33"/>
<polygon fill="none" stroke="#ffffff" stroke-width="1.6" stroke-opacity="0.623529" points="1036.4,-541.22 1029.16,-533.48 1030,-544.04 1036.4,-541.22"/>
</a>
</g>
</g>
<!-- 46 -->
<g id="node27" class="node">
<title>46</title>
<g id="a_node27"><a xlink:title="shell_words v1.1.0&#10;2.59 KiB">
<ellipse fill="#601c03" stroke="#ffffff" stroke-width="1.2" stroke-opacity="0.623529" cx="1633" cy="-523.07" rx="7.8" ry="7.8"/>
<text xml:space="preserve" text-anchor="middle" x="1633" y="-527.72" font-family="monospace" font-size="18.00" fill="#ffffff">shell_words</text>
<text xml:space="preserve" text-anchor="middle" x="1633" y="-505.97" font-family="monospace" font-size="18.00" fill="#ffffff">2.59 KiB</text>
</a>
</g>
</g>
<!-- 0&#45;&gt;46 -->
<g id="edge30" class="edge">
<title>0&#45;&gt;46</title>
<g id="a_edge30"><a xlink:title="hyperfine &#45;&gt; shell_words">
<path fill="none" stroke="#ffffff" stroke-width="1.6" stroke-opacity="0.623529" d="M1136.02,-639.17C1147.02,-629.19 1159.64,-619.73 1173,-613.45 1326.35,-541.34 1388.59,-611.84 1551,-563.45 1574.88,-556.33 1600.47,-543.03 1616.6,-533.87"/>
<polygon fill="none" stroke="#ffffff" stroke-width="1.6" stroke-opacity="0.623529" points="1617.94,-537.14 1624.8,-529.07 1614.41,-531.1 1617.94,-537.14"/>
</a>
</g>
</g>
<!-- 47 -->
<g id="node28" class="node">
<title>47</title>
<g id="a_node28"><a xlink:title="statistical v1.0.0&#10;1022 B">
<ellipse fill="#a62304" stroke="#ffffff" stroke-width="1.2" stroke-opacity="0.623529" cx="1798" cy="-523.07" rx="3.48" ry="3.48"/>
<text xml:space="preserve" text-anchor="middle" x="1798" y="-527.72" font-family="monospace" font-size="18.00" fill="#ffffff">statistical</text>
<text xml:space="preserve" text-anchor="middle" x="1798" y="-505.97" font-family="monospace" font-size="18.00" fill="#ffffff">25.68 KiB</text>
</a>
</g>
</g>
<!-- 0&#45;&gt;47 -->
<g id="edge31" class="edge">
<title>0&#45;&gt;47</title>
<g id="a_edge31"><a xlink:title="hyperfine &#45;&gt; statistical">
<path fill="none" stroke="#ffffff" stroke-width="1.6" stroke-opacity="0.623529" d="M1135.85,-638.8C1146.86,-628.82 1159.52,-619.47 1173,-613.45 1393.91,-514.85 1481.69,-627.39 1715,-563.45 1741.41,-556.21 1769.73,-540.97 1785.52,-531.71"/>
<polygon fill="none" stroke="#ffffff" stroke-width="1.6" stroke-opacity="0.623529" points="1787,-534.91 1793.73,-526.73 1783.37,-528.92 1787,-534.91"/>
</a>
</g>
</g>
<!-- 3 -->
<g id="node4" class="node">
<title>3</title>
<g id="a_node4"><a xlink:title="clap_builder v4.5.52&#10;237.25 KiB">
<ellipse fill="#e94347" stroke="#ffffff" stroke-width="1.2" stroke-opacity="0.623529" cx="235" cy="-368.59" rx="64.09" ry="64.09"/>
<text xml:space="preserve" text-anchor="middle" x="235" y="-373.24" font-family="monospace" font-size="18.00" fill="#ffffff">clap_builder</text>
<text xml:space="preserve" text-anchor="middle" x="235" y="-351.49" font-family="monospace" font-size="18.00" fill="#ffffff">245.05 KiB</text>
</a>
</g>
</g>
<!-- 2&#45;&gt;3 -->
<g id="edge3" class="edge">
<title>2&#45;&gt;3</title>
<g id="a_edge3"><a xlink:title="clap &#45;&gt; clap_builder">
<path fill="none" stroke="#ffffff" stroke-width="1.6" stroke-opacity="0.623529" d="M597.88,-522C595.38,-520.61 554.93,-498.03 521,-482.69 448.93,-450.1 364.51,-417.36 306.16,-395.56"/>
<polygon fill="none" stroke="#ffffff" stroke-width="1.6" stroke-opacity="0.623529" points="307.71,-392.4 297.12,-392.19 305.27,-398.96 307.71,-392.4"/>
</a>
</g>
</g>
<!-- 4 -->
<g id="node5" class="node">
<title>4</title>
<g id="a_node5"><a xlink:title="anstream v0.6.21&#10;2.58 KiB">
<ellipse fill="#671d03" stroke="#ffffff" stroke-width="1.2" stroke-opacity="0.623529" cx="53" cy="-228.75" rx="7.79" ry="7.79"/>
<text xml:space="preserve" text-anchor="middle" x="53" y="-233.4" font-family="monospace" font-size="18.00" fill="#ffffff">anstream</text>
<text xml:space="preserve" text-anchor="middle" x="53" y="-211.65" font-family="monospace" font-size="18.00" fill="#ffffff">3.38 KiB</text>
</a>
</g>
</g>
<!-- 3&#45;&gt;4 -->
<g id="edge4" class="edge">
<title>3&#45;&gt;4</title>
<g id="a_edge4"><a xlink:title="clap_builder &#45;&gt; anstream">
<path fill="none" stroke="#ffffff" stroke-width="1.6" stroke-opacity="0.623529" d="M184.79,-329.56C145.55,-299.85 93.56,-260.47 68.21,-241.27"/>
<polygon fill="none" stroke="#ffffff" stroke-width="1.6" stroke-opacity="0.623529" points="70.59,-238.68 60.51,-235.44 66.37,-244.26 70.59,-238.68"/>
</a>
</g>
</g>
<!-- 5 -->
<g id="node6" class="node">
<title>5</title>
<g id="a_node6"><a xlink:title="anstyle v1.0.13&#10;1.59 KiB">
<ellipse fill="#551a02" stroke="#ffffff" stroke-width="1.2" stroke-opacity="0.623529" cx="99" cy="-127.25" rx="5.24" ry="5.24"/>
<text xml:space="preserve" text-anchor="middle" x="99" y="-131.9" font-family="monospace" font-size="18.00" fill="#ffffff">anstyle</text>
<text xml:space="preserve" text-anchor="middle" x="99" y="-110.15" font-family="monospace" font-size="18.00" fill="#ffffff">1.59 KiB</text>
</a>
</g>
</g>
<!-- 3&#45;&gt;5 -->
<g id="edge6" class="edge">
<title>3&#45;&gt;5</title>
<g id="a_edge6"><a xlink:title="clap_builder &#45;&gt; anstyle">
<path fill="none" stroke="#ffffff" stroke-width="1.6" stroke-opacity="0.623529" d="M203.03,-313.37C192.15,-294.76 179.96,-273.77 169,-254.5 146,-214.07 119.56,-165.91 106.76,-142.48"/>
<polygon fill="none" stroke="#ffffff" stroke-width="1.6" stroke-opacity="0.623529" points="109.94,-141.01 102.08,-133.91 103.8,-144.36 109.94,-141.01"/>
</a>
</g>
</g>
<!-- 11 -->
<g id="node7" class="node">
<title>11</title>
<g id="a_node7"><a xlink:title="clap_lex v0.7.6&#10;716 B">
<ellipse fill="#451602" stroke="#ffffff" stroke-width="1.2" stroke-opacity="0.623529" cx="235" cy="-228.75" rx="2.52" ry="2.52"/>
<text xml:space="preserve" text-anchor="middle" x="235" y="-233.4" font-family="monospace" font-size="18.00" fill="#ffffff">clap_lex</text>
<text xml:space="preserve" text-anchor="middle" x="235" y="-211.65" font-family="monospace" font-size="18.00" fill="#ffffff">716 B</text>
</a>
</g>
</g>
<!-- 3&#45;&gt;11 -->
<g id="edge7" class="edge">
<title>3&#45;&gt;11</title>
<g id="a_edge7"><a xlink:title="clap_builder &#45;&gt; clap_lex">
<path fill="none" stroke="#ffffff" stroke-width="1.6" stroke-opacity="0.623529" d="M235,-304.72C235,-281.7 235,-257.78 235,-243.32"/>
<polygon fill="none" stroke="#ffffff" stroke-width="1.6" stroke-opacity="0.623529" points="238.5,-243.5 235,-233.5 231.5,-243.5 238.5,-243.5"/>
</a>
</g>
</g>
<!-- 12 -->
<g id="node8" class="node">
<title>12</title>
<g id="a_node8"><a xlink:title="strsim v0.11.1&#10;2.92 KiB">
<ellipse fill="#631d03" stroke="#ffffff" stroke-width="1.2" stroke-opacity="0.623529" cx="366" cy="-228.75" rx="8.57" ry="8.57"/>
<text xml:space="preserve" text-anchor="middle" x="366" y="-233.4" font-family="monospace" font-size="18.00" fill="#ffffff">strsim</text>
<text xml:space="preserve" text-anchor="middle" x="366" y="-211.65" font-family="monospace" font-size="18.00" fill="#ffffff">2.92 KiB</text>
</a>
</g>
</g>
<!-- 3&#45;&gt;12 -->
<g id="edge8" class="edge">
<title>3&#45;&gt;12</title>
<g id="a_edge8"><a xlink:title="clap_builder &#45;&gt; strsim">
<path fill="none" stroke="#ffffff" stroke-width="1.6" stroke-opacity="0.623529" d="M278.62,-321.69C304.26,-294.72 334.94,-262.43 352.28,-244.18"/>
<polygon fill="none" stroke="#ffffff" stroke-width="1.6" stroke-opacity="0.623529" points="354.79,-246.62 359.14,-236.96 349.72,-241.8 354.79,-246.62"/>
</a>
</g>
</g>
<!-- 4&#45;&gt;5 -->
<g id="edge5" class="edge">
<title>4&#45;&gt;5</title>
<g id="a_edge5"><a xlink:title="anstream &#45;&gt; anstyle">
<path fill="none" stroke="#ffffff" stroke-width="1.6" stroke-opacity="0.623529" d="M55.88,-221.53C63.04,-206.02 81.85,-165.34 92.1,-143.18"/>
<polygon fill="none" stroke="#ffffff" stroke-width="1.6" stroke-opacity="0.623529" points="95.16,-144.9 96.18,-134.35 88.81,-141.96 95.16,-144.9"/>
</a>
</g>
</g>
<!-- 20 -->
<g id="node11" class="node">
<title>20</title>
<g id="a_node11"><a xlink:title="csv_core v0.1.13&#10;1.53 KiB">
<ellipse fill="#5f1c03" stroke="#ffffff" stroke-width="1.2" stroke-opacity="0.623529" cx="1218" cy="-368.59" rx="5.07" ry="5.07"/>
<text xml:space="preserve" text-anchor="middle" x="1218" y="-373.24" font-family="monospace" font-size="18.00" fill="#ffffff">csv_core</text>
<text xml:space="preserve" text-anchor="middle" x="1218" y="-351.49" font-family="monospace" font-size="18.00" fill="#ffffff">2.50 KiB</text>
</a>
</g>
</g>
<!-- 19&#45;&gt;20 -->
<g id="edge11" class="edge">
<title>19&#45;&gt;20</title>
<g id="a_edge11"><a xlink:title="csv &#45;&gt; csv_core">
<path fill="none" stroke="#ffffff" stroke-width="1.6" stroke-opacity="0.623529" d="M1170.51,-511.59C1179.33,-485.22 1202.47,-416.02 1212.84,-385.01"/>
<polygon fill="none" stroke="#ffffff" stroke-width="1.6" stroke-opacity="0.623529" points="1216.08,-386.36 1215.93,-375.77 1209.44,-384.14 1216.08,-386.36"/>
</a>
</g>
</g>
<!-- 23 -->
<g id="node13" class="node">
<title>23</title>
<g id="a_node13"><a xlink:title="ryu v1.0.20&#10;2.69 KiB">
<ellipse fill="#611c03" stroke="#ffffff" stroke-width="1.2" stroke-opacity="0.623529" cx="1087" cy="-368.59" rx="8.03" ry="8.03"/>
<text xml:space="preserve" text-anchor="middle" x="1087" y="-373.24" font-family="monospace" font-size="18.00" fill="#ffffff">ryu</text>
<text xml:space="preserve" text-anchor="middle" x="1087" y="-351.49" font-family="monospace" font-size="18.00" fill="#ffffff">2.69 KiB</text>
</a>
</g>
</g>
<!-- 19&#45;&gt;23 -->
<g id="edge13" class="edge">
<title>19&#45;&gt;23</title>
<g id="a_edge13"><a xlink:title="csv &#45;&gt; ryu">
<path fill="none" stroke="#ffffff" stroke-width="1.6" stroke-opacity="0.623529" d="M1161.75,-512.06C1148.31,-486.45 1112.54,-418.26 1095.83,-386.42"/>
<polygon fill="none" stroke="#ffffff" stroke-width="1.6" stroke-opacity="0.623529" points="1099.15,-385.22 1091.4,-377.99 1092.95,-388.47 1099.15,-385.22"/>
</a>
</g>
</g>
<!-- 21 -->
<g id="node12" class="node">
<title>21</title>
<g id="a_node12"><a xlink:title="memchr v2.7.6&#10;1.93 KiB">
<ellipse fill="#591b03" stroke="#ffffff" stroke-width="1.2" stroke-opacity="0.623529" cx="1107" cy="-228.75" rx="6.17" ry="6.17"/>
<text xml:space="preserve" text-anchor="middle" x="1107" y="-233.4" font-family="monospace" font-size="18.00" fill="#ffffff">memchr</text>
<text xml:space="preserve" text-anchor="middle" x="1107" y="-211.65" font-family="monospace" font-size="18.00" fill="#ffffff">1.93 KiB</text>
</a>
</g>
</g>
<!-- 20&#45;&gt;21 -->
<g id="edge12" class="edge">
<title>20&#45;&gt;21</title>
<g id="a_edge12"><a xlink:title="csv_core &#45;&gt; memchr">
<path fill="none" stroke="#ffffff" stroke-width="1.6" stroke-opacity="0.623529" d="M1215.68,-364.72C1203.15,-349.15 1143.13,-274.62 1118.05,-243.48"/>
<polygon fill="none" stroke="#ffffff" stroke-width="1.6" stroke-opacity="0.623529" points="1120.84,-241.36 1111.84,-235.76 1115.39,-245.75 1120.84,-241.36"/>
</a>
</g>
</g>
<!-- 26 -->
<g id="node15" class="node">
<title>26</title>
<g id="a_node15"><a xlink:title="console v0.15.11&#10;16.87 KiB">
<ellipse fill="#9b2303" stroke="#ffffff" stroke-width="1.2" stroke-opacity="0.623529" cx="525" cy="-368.59" rx="25.83" ry="25.83"/>
<text xml:space="preserve" text-anchor="middle" x="525" y="-373.24" font-family="monospace" font-size="18.00" fill="#ffffff">console</text>
<text xml:space="preserve" text-anchor="middle" x="525" y="-351.49" font-family="monospace" font-size="18.00" fill="#ffffff">18.64 KiB</text>
</a>
</g>
</g>
<!-- 25&#45;&gt;26 -->
<g id="edge15" class="edge">
<title>25&#45;&gt;26</title>
<g id="a_edge15"><a xlink:title="indicatif &#45;&gt; console">
<path fill="none" stroke="#ffffff" stroke-width="1.6" stroke-opacity="0.623529" d="M843.47,-501.32C831.63,-494.66 818.03,-487.71 805,-482.69 715.87,-448.36 680.69,-476.85 596,-432.69 578.82,-423.73 562.46,-409.71 549.78,-397.15"/>
<polygon fill="none" stroke="#ffffff" stroke-width="1.6" stroke-opacity="0.623529" points="552.4,-394.83 542.92,-390.1 547.38,-399.71 552.4,-394.83"/>
</a>
</g>
</g>
<!-- 30 -->
<g id="node18" class="node">
<title>30</title>
<g id="a_node18"><a xlink:title="number_prefix v0.4.0&#10;135 B">
<ellipse fill="#2f0f01" stroke="#ffffff" stroke-width="1.2" stroke-opacity="0.623529" cx="690" cy="-368.59" rx="0.51" ry="0.51"/>
<text xml:space="preserve" text-anchor="middle" x="690" y="-373.24" font-family="monospace" font-size="18.00" fill="#ffffff">number_prefix</text>
<text xml:space="preserve" text-anchor="middle" x="690" y="-351.49" font-family="monospace" font-size="18.00" fill="#ffffff">135 B</text>
</a>
</g>
</g>
<!-- 25&#45;&gt;30 -->
<g id="edge18" class="edge">
<title>25&#45;&gt;30</title>
<g id="a_edge18"><a xlink:title="indicatif &#45;&gt; number_prefix">
<path fill="none" stroke="#ffffff" stroke-width="1.6" stroke-opacity="0.623529" d="M846.54,-497.23C803.34,-462.01 726.55,-399.4 699.64,-377.45"/>
<polygon fill="none" stroke="#ffffff" stroke-width="1.6" stroke-opacity="0.623529" points="701.91,-374.79 691.95,-371.19 697.49,-380.22 701.91,-374.79"/>
</a>
</g>
</g>
<!-- 32 -->
<g id="node19" class="node">
<title>32</title>
<g id="a_node19"><a xlink:title="unicode_width v0.1.14&#10;850 B">
<ellipse fill="#481602" stroke="#ffffff" stroke-width="1.2" stroke-opacity="0.623529" cx="877" cy="-368.59" rx="2.95" ry="2.95"/>
<text xml:space="preserve" text-anchor="middle" x="877" y="-373.24" font-family="monospace" font-size="18.00" fill="#ffffff">unicode_width</text>
<text xml:space="preserve" text-anchor="middle" x="877" y="-351.49" font-family="monospace" font-size="18.00" fill="#ffffff">850 B</text>
</a>
</g>
</g>
<!-- 25&#45;&gt;32 -->
<g id="edge19" class="edge">
<title>25&#45;&gt;32</title>
<g id="a_edge19"><a xlink:title="indicatif &#45;&gt; unicode_width">
<path fill="none" stroke="#ffffff" stroke-width="1.6" stroke-opacity="0.623529" d="M877,-482.8C877,-450.34 877,-406.07 877,-383.73"/>
<polygon fill="none" stroke="#ffffff" stroke-width="1.6" stroke-opacity="0.623529" points="880.5,-383.74 877,-373.74 873.5,-383.74 880.5,-383.74"/>
</a>
</g>
</g>
<!-- 28 -->
<g id="node16" class="node">
<title>28</title>
<g id="a_node16"><a xlink:title="once_cell v1.21.3&#10;968 B">
<ellipse fill="#4a1702" stroke="#ffffff" stroke-width="1.2" stroke-opacity="0.623529" cx="690" cy="-228.75" rx="3.32" ry="3.32"/>
<text xml:space="preserve" text-anchor="middle" x="690" y="-233.4" font-family="monospace" font-size="18.00" fill="#ffffff">once_cell</text>
<text xml:space="preserve" text-anchor="middle" x="690" y="-211.65" font-family="monospace" font-size="18.00" fill="#ffffff">968 B</text>
</a>
</g>
</g>
<!-- 26&#45;&gt;28 -->
<g id="edge16" class="edge">
<title>26&#45;&gt;28</title>
<g id="a_edge16"><a xlink:title="console &#45;&gt; once_cell">
<path fill="none" stroke="#ffffff" stroke-width="1.6" stroke-opacity="0.623529" d="M543.44,-350.71C557.63,-337.84 577.83,-319.78 596,-304.5 625.14,-280 660.53,-252.43 678.43,-238.62"/>
<polygon fill="none" stroke="#ffffff" stroke-width="1.6" stroke-opacity="0.623529" points="680.46,-241.48 686.26,-232.61 676.19,-235.93 680.46,-241.48"/>
</a>
</g>
</g>
<!-- 29 -->
<g id="node17" class="node">
<title>29</title>
<g id="a_node17"><a xlink:title="unicode_width v0.2.2&#10;850 B">
<ellipse fill="#481602" stroke="#ffffff" stroke-width="1.2" stroke-opacity="0.623529" cx="525" cy="-228.75" rx="2.95" ry="2.95"/>
<text xml:space="preserve" text-anchor="middle" x="525" y="-233.4" font-family="monospace" font-size="18.00" fill="#ffffff">unicode_width</text>
<text xml:space="preserve" text-anchor="middle" x="525" y="-211.65" font-family="monospace" font-size="18.00" fill="#ffffff">850 B</text>
</a>
</g>
</g>
<!-- 26&#45;&gt;29 -->
<g id="edge17" class="edge">
<title>26&#45;&gt;29</title>
<g id="a_edge17"><a xlink:title="console &#45;&gt; unicode_width">
<path fill="none" stroke="#ffffff" stroke-width="1.6" stroke-opacity="0.623529" d="M525,-342.95C525,-314.04 525,-267.09 525,-243.79"/>
<polygon fill="none" stroke="#ffffff" stroke-width="1.6" stroke-opacity="0.623529" points="528.5,-244.02 525,-234.02 521.5,-244.02 528.5,-244.02"/>
</a>
</g>
</g>
<!-- 36 -->
<g id="node21" class="node">
<title>36</title>
<g id="a_node21"><a xlink:title="rand_chacha v0.3.1&#10;7.52 KiB">
<ellipse fill="#862203" stroke="#ffffff" stroke-width="1.2" stroke-opacity="0.623529" cx="1366" cy="-368.59" rx="16.54" ry="16.54"/>
<text xml:space="preserve" text-anchor="middle" x="1366" y="-373.24" font-family="monospace" font-size="18.00" fill="#ffffff">rand_chacha</text>
<text xml:space="preserve" text-anchor="middle" x="1366" y="-351.49" font-family="monospace" font-size="18.00" fill="#ffffff">9.93 KiB</text>
</a>
</g>
</g>
<!-- 35&#45;&gt;36 -->
<g id="edge21" class="edge">
<title>35&#45;&gt;36</title>
<g id="a_edge21"><a xlink:title="rand &#45;&gt; rand_chacha">
<path fill="none" stroke="#ffffff" stroke-width="1.6" stroke-opacity="0.623529" d="M1307.51,-513.43C1316.68,-490.89 1341.6,-429.61 1355.78,-394.74"/>
<polygon fill="none" stroke="#ffffff" stroke-width="1.6" stroke-opacity="0.623529" points="1358.86,-396.44 1359.39,-385.86 1352.38,-393.8 1358.86,-396.44"/>
</a>
</g>
</g>
<!-- 39 -->
<g id="node22" class="node">
<title>39</title>
<g id="a_node22"><a xlink:title="rand_core v0.6.4&#10;2.00 KiB">
<ellipse fill="#701f03" stroke="#ffffff" stroke-width="1.2" stroke-opacity="0.623529" cx="1376" cy="-228.75" rx="6.35" ry="6.35"/>
<text xml:space="preserve" text-anchor="middle" x="1376" y="-233.4" font-family="monospace" font-size="18.00" fill="#ffffff">rand_core</text>
<text xml:space="preserve" text-anchor="middle" x="1376" y="-211.65" font-family="monospace" font-size="18.00" fill="#ffffff">4.83 KiB</text>
</a>
</g>
</g>
<!-- 35&#45;&gt;39 -->
<g id="edge24" class="edge">
<title>35&#45;&gt;39</title>
<g id="a_edge24"><a xlink:title="rand &#45;&gt; rand_core">
<path fill="none" stroke="#ffffff" stroke-width="1.6" stroke-opacity="0.623529" d="M1312.47,-517.45C1342.17,-501.16 1440.24,-446.64 1448,-432.69 1475.7,-382.9 1469.31,-357.34 1448,-304.5 1436.5,-275.99 1408.35,-252.28 1390.85,-239.63"/>
<polygon fill="none" stroke="#ffffff" stroke-width="1.6" stroke-opacity="0.623529" points="1392.99,-236.86 1382.77,-234.09 1389.03,-242.63 1392.99,-236.86"/>
</a>
</g>
</g>
<!-- 36&#45;&gt;39 -->
<g id="edge22" class="edge">
<title>36&#45;&gt;39</title>
<g id="a_edge22"><a xlink:title="rand_chacha &#45;&gt; rand_core">
<path fill="none" stroke="#ffffff" stroke-width="1.6" stroke-opacity="0.623529" d="M1367.11,-352.32C1368.98,-326.53 1372.75,-274.52 1374.73,-247.29"/>
<polygon fill="none" stroke="#ffffff" stroke-width="1.6" stroke-opacity="0.623529" points="1378.21,-247.67 1375.44,-237.45 1371.23,-247.17 1378.21,-247.67"/>
</a>
</g>
</g>
<!-- 40 -->
<g id="node23" class="node">
<title>40</title>
<g id="a_node23"><a xlink:title="getrandom v0.2.16&#10;2.82 KiB">
<ellipse fill="#621d03" stroke="#ffffff" stroke-width="1.2" stroke-opacity="0.623529" cx="1376" cy="-127.25" rx="8.35" ry="8.35"/>
<text xml:space="preserve" text-anchor="middle" x="1376" y="-131.9" font-family="monospace" font-size="18.00" fill="#ffffff">getrandom</text>
<text xml:space="preserve" text-anchor="middle" x="1376" y="-110.15" font-family="monospace" font-size="18.00" fill="#ffffff">2.82 KiB</text>
</a>
</g>
</g>
<!-- 39&#45;&gt;40 -->
<g id="edge23" class="edge">
<title>39&#45;&gt;40</title>
<g id="a_edge23"><a xlink:title="rand_core &#45;&gt; getrandom">
<path fill="none" stroke="#ffffff" stroke-width="1.6" stroke-opacity="0.623529" d="M1376,-222.4C1376,-208.56 1376,-171.04 1376,-147.76"/>
<polygon fill="none" stroke="#ffffff" stroke-width="1.6" stroke-opacity="0.623529" points="1379.5,-147.86 1376,-137.86 1372.5,-147.86 1379.5,-147.86"/>
</a>
</g>
</g>
<!-- 42 -->
<g id="node25" class="node">
<title>42</title>
<g id="a_node25"><a xlink:title="arrayvec v0.7.6&#10;99 B">
<ellipse fill="#2c0e01" stroke="#ffffff" stroke-width="1.2" stroke-opacity="0.623529" cx="1565" cy="-368.59" rx="0.37" ry="0.37"/>
<text xml:space="preserve" text-anchor="middle" x="1565" y="-373.24" font-family="monospace" font-size="18.00" fill="#ffffff">arrayvec</text>
<text xml:space="preserve" text-anchor="middle" x="1565" y="-351.49" font-family="monospace" font-size="18.00" fill="#ffffff">99 B</text>
</a>
</g>
</g>
<!-- 41&#45;&gt;42 -->
<g id="edge26" class="edge">
<title>41&#45;&gt;42</title>
<g id="a_edge26"><a xlink:title="rust_decimal &#45;&gt; arrayvec">
<path fill="none" stroke="#ffffff" stroke-width="1.6" stroke-opacity="0.623529" d="M1473.34,-506.61C1494.18,-475.46 1540.72,-405.88 1558.2,-379.76"/>
<polygon fill="none" stroke="#ffffff" stroke-width="1.6" stroke-opacity="0.623529" points="1560.95,-381.94 1563.61,-371.68 1555.14,-378.04 1560.95,-381.94"/>
</a>
</g>
</g>
<!-- 45&#45;&gt;21 -->
<g id="edge28" class="edge">
<title>45&#45;&gt;21</title>
<g id="a_edge28"><a xlink:title="serde_json &#45;&gt; memchr">
<path fill="none" stroke="#ffffff" stroke-width="1.6" stroke-opacity="0.623529" d="M1022.74,-514.86C1014.26,-486.45 986.53,-380.13 1021,-304.5 1035.47,-272.75 1070.83,-249.27 1091.42,-237.73"/>
<polygon fill="none" stroke="#ffffff" stroke-width="1.6" stroke-opacity="0.623529" points="1092.89,-240.91 1100.09,-233.15 1089.61,-234.72 1092.89,-240.91"/>
</a>
</g>
</g>
<!-- 45&#45;&gt;23 -->
<g id="edge29" class="edge">
<title>45&#45;&gt;23</title>
<g id="a_edge29"><a xlink:title="serde_json &#45;&gt; ryu">
<path fill="none" stroke="#ffffff" stroke-width="1.6" stroke-opacity="0.623529" d="M1027.83,-515.12C1037.03,-492.49 1066.33,-420.44 1079.93,-386.98"/>
<polygon fill="none" stroke="#ffffff" stroke-width="1.6" stroke-opacity="0.623529" points="1083,-388.72 1083.52,-378.14 1076.52,-386.09 1083,-388.72"/>
</a>
</g>
</g>
<!-- 54 -->
<g id="node29" class="node">
<title>54</title>
<g id="a_node29"><a xlink:title="rand v0.6.5&#10;3.83 KiB">
<ellipse fill="#a42304" stroke="#ffffff" stroke-width="1.2" stroke-opacity="0.623529" cx="1798" cy="-368.59" rx="10.51" ry="10.51"/>
<text xml:space="preserve" text-anchor="middle" x="1798" y="-373.24" font-family="monospace" font-size="18.00" fill="#ffffff">rand</text>
<text xml:space="preserve" text-anchor="middle" x="1798" y="-351.49" font-family="monospace" font-size="18.00" fill="#ffffff">24.69 KiB</text>
</a>
</g>
</g>
<!-- 47&#45;&gt;54 -->
<g id="edge32" class="edge">
<title>47&#45;&gt;54</title>
<g id="a_edge32"><a xlink:title="statistical &#45;&gt; rand">
<path fill="none" stroke="#ffffff" stroke-width="1.6" stroke-opacity="0.623529" d="M1798,-519.91C1798,-506.08 1798,-429.16 1798,-391.03"/>
<polygon fill="none" stroke="#ffffff" stroke-width="1.6" stroke-opacity="0.623529" points="1801.5,-391.15 1798,-381.15 1794.5,-391.15 1801.5,-391.15"/>
</a>
</g>
</g>
<!-- 55 -->
<g id="node30" class="node">
<title>55</title>
<g id="a_node30"><a xlink:title="rand_chacha v0.1.1&#10;7.52 KiB">
<ellipse fill="#7f2103" stroke="#ffffff" stroke-width="1.2" stroke-opacity="0.623529" cx="1793" cy="-228.75" rx="16.54" ry="16.54"/>
<text xml:space="preserve" text-anchor="middle" x="1793" y="-233.4" font-family="monospace" font-size="18.00" fill="#ffffff">rand_chacha</text>
<text xml:space="preserve" text-anchor="middle" x="1793" y="-211.65" font-family="monospace" font-size="18.00" fill="#ffffff">8.12 KiB</text>
</a>
</g>
</g>
<!-- 54&#45;&gt;55 -->
<g id="edge33" class="edge">
<title>54&#45;&gt;55</title>
<g id="a_edge33"><a xlink:title="rand &#45;&gt; rand_chacha">
<path fill="none" stroke="#ffffff" stroke-width="1.6" stroke-opacity="0.623529" d="M1797.66,-358.12C1796.91,-337.58 1795.12,-288.27 1793.99,-257.1"/>
<polygon fill="none" stroke="#ffffff" stroke-width="1.6" stroke-opacity="0.623529" points="1797.5,-257.27 1793.64,-247.4 1790.51,-257.52 1797.5,-257.27"/>
</a>
</g>
</g>
<!-- 57 -->
<g id="node32" class="node">
<title>57</title>
<g id="a_node32"><a xlink:title="rand_core v0.4.2&#10;2.00 KiB">
<ellipse fill="#5a1b03" stroke="#ffffff" stroke-width="1.2" stroke-opacity="0.623529" cx="1828" cy="-25.75" rx="6.35" ry="6.35"/>
<text xml:space="preserve" text-anchor="middle" x="1828" y="-30.4" font-family="monospace" font-size="18.00" fill="#ffffff">rand_core</text>
<text xml:space="preserve" text-anchor="middle" x="1828" y="-8.65" font-family="monospace" font-size="18.00" fill="#ffffff">2.00 KiB</text>
</a>
</g>
</g>
<!-- 54&#45;&gt;57 -->
<g id="edge36" class="edge">
<title>54&#45;&gt;57</title>
<g id="a_edge36"><a xlink:title="rand &#45;&gt; rand_core">
<path fill="none" stroke="#ffffff" stroke-width="1.6" stroke-opacity="0.623529" d="M1808.31,-367.17C1877.65,-364.07 2275.22,-342.57 2347,-254.5 2490.53,-78.39 1952.96,-34.69 1846.14,-27.81"/>
<polygon fill="none" stroke="#ffffff" stroke-width="1.6" stroke-opacity="0.623529" points="1846.45,-24.32 1836.25,-27.21 1846.02,-31.31 1846.45,-24.32"/>
</a>
</g>
</g>
<!-- 58 -->
<g id="node33" class="node">
<title>58</title>
<g id="a_node33"><a xlink:title="rand_hc v0.1.0&#10;5.68 KiB">
<ellipse fill="#782003" stroke="#ffffff" stroke-width="1.2" stroke-opacity="0.623529" cx="1941" cy="-228.75" rx="13.82" ry="13.82"/>
<text xml:space="preserve" text-anchor="middle" x="1941" y="-233.4" font-family="monospace" font-size="18.00" fill="#ffffff">rand_hc</text>
<text xml:space="preserve" text-anchor="middle" x="1941" y="-211.65" font-family="monospace" font-size="18.00" fill="#ffffff">6.29 KiB</text>
</a>
</g>
</g>
<!-- 54&#45;&gt;58 -->
<g id="edge37" class="edge">
<title>54&#45;&gt;58</title>
<g id="a_edge37"><a xlink:title="rand &#45;&gt; rand_hc">
<path fill="none" stroke="#ffffff" stroke-width="1.6" stroke-opacity="0.623529" d="M1804.9,-360.95C1826.13,-340.48 1891.01,-277.94 1922.91,-247.19"/>
<polygon fill="none" stroke="#ffffff" stroke-width="1.6" stroke-opacity="0.623529" points="1925.15,-249.89 1929.92,-240.43 1920.29,-244.85 1925.15,-249.89"/>
</a>
</g>
</g>
<!-- 59 -->
<g id="node34" class="node">
<title>59</title>
<g id="a_node34"><a xlink:title="rand_isaac v0.1.1&#10;0 B">
<ellipse fill="#421502" stroke="#ffffff" stroke-width="1.2" stroke-opacity="0.623529" cx="2083" cy="-228.75" rx="0.36" ry="0.36"/>
<text xml:space="preserve" text-anchor="middle" x="2083" y="-233.4" font-family="monospace" font-size="18.00" fill="#ffffff">rand_isaac</text>
<text xml:space="preserve" text-anchor="middle" x="2083" y="-211.65" font-family="monospace" font-size="18.00" fill="#ffffff">615 B</text>
</a>
</g>
</g>
<!-- 54&#45;&gt;59 -->
<g id="edge39" class="edge">
<title>54&#45;&gt;59</title>
<g id="a_edge39"><a xlink:title="rand &#45;&gt; rand_isaac">
<path fill="none" stroke="#ffffff" stroke-width="1.6" stroke-opacity="0.623529" d="M1806.84,-363.32C1848.55,-343.14 2025.56,-257.53 2071.87,-235.13"/>
<polygon fill="none" stroke="#ffffff" stroke-width="1.6" stroke-opacity="0.623529" points="2073.18,-238.39 2080.65,-230.88 2070.13,-232.09 2073.18,-238.39"/>
</a>
</g>
</g>
<!-- 60 -->
<g id="node35" class="node">
<title>60</title>
<g id="a_node35"><a xlink:title="rand_jitter v0.1.4&#10;1.42 KiB">
<ellipse fill="#581a03" stroke="#ffffff" stroke-width="1.2" stroke-opacity="0.623529" cx="1549" cy="-127.25" rx="4.75" ry="4.75"/>
<text xml:space="preserve" text-anchor="middle" x="1549" y="-131.9" font-family="monospace" font-size="18.00" fill="#ffffff">rand_jitter</text>
<text xml:space="preserve" text-anchor="middle" x="1549" y="-110.15" font-family="monospace" font-size="18.00" fill="#ffffff">1.82 KiB</text>
</a>
</g>
</g>
<!-- 54&#45;&gt;60 -->
<g id="edge41" class="edge">
<title>54&#45;&gt;60</title>
<g id="a_edge41"><a xlink:title="rand &#45;&gt; rand_jitter">
<path fill="none" stroke="#ffffff" stroke-width="1.6" stroke-opacity="0.623529" d="M1791.08,-360.94C1756.69,-327.88 1604.06,-181.17 1560.59,-139.39"/>
<polygon fill="none" stroke="#ffffff" stroke-width="1.6" stroke-opacity="0.623529" points="1563.25,-137.09 1553.61,-132.68 1558.4,-142.14 1563.25,-137.09"/>
</a>
</g>
</g>
<!-- 61 -->
<g id="node36" class="node">
<title>61</title>
<g id="a_node36"><a xlink:title="rand_os v0.1.3&#10;2.22 KiB">
<ellipse fill="#601c03" stroke="#ffffff" stroke-width="1.2" stroke-opacity="0.623529" cx="1697" cy="-127.25" rx="6.91" ry="6.91"/>
<text xml:space="preserve" text-anchor="middle" x="1697" y="-131.9" font-family="monospace" font-size="18.00" fill="#ffffff">rand_os</text>
<text xml:space="preserve" text-anchor="middle" x="1697" y="-110.15" font-family="monospace" font-size="18.00" fill="#ffffff">2.62 KiB</text>
</a>
</g>
</g>
<!-- 54&#45;&gt;61 -->
<g id="edge43" class="edge">
<title>54&#45;&gt;61</title>
<g id="a_edge43"><a xlink:title="rand &#45;&gt; rand_os">
<path fill="none" stroke="#ffffff" stroke-width="1.6" stroke-opacity="0.623529" d="M1790.16,-362.14C1769.95,-347.52 1716.33,-305.17 1697,-254.5 1683.02,-217.87 1688.58,-170.78 1693.2,-145.74"/>
<polygon fill="none" stroke="#ffffff" stroke-width="1.6" stroke-opacity="0.623529" points="1696.58,-146.66 1695.16,-136.16 1689.72,-145.25 1696.58,-146.66"/>
</a>
</g>
</g>
<!-- 62 -->
<g id="node37" class="node">
<title>62</title>
<g id="a_node37"><a xlink:title="rand_pcg v0.1.2&#10;0 B">
<ellipse fill="#3c1302" stroke="#ffffff" stroke-width="1.2" stroke-opacity="0.623529" cx="1828" cy="-127.25" rx="0.36" ry="0.36"/>
<text xml:space="preserve" text-anchor="middle" x="1828" y="-131.9" font-family="monospace" font-size="18.00" fill="#ffffff">rand_pcg</text>
<text xml:space="preserve" text-anchor="middle" x="1828" y="-110.15" font-family="monospace" font-size="18.00" fill="#ffffff">410 B</text>
</a>
</g>
</g>
<!-- 54&#45;&gt;62 -->
<g id="edge45" class="edge">
<title>54&#45;&gt;62</title>
<g id="a_edge45"><a xlink:title="rand &#45;&gt; rand_pcg">
<path fill="none" stroke="#ffffff" stroke-width="1.6" stroke-opacity="0.623529" d="M1790.21,-361.58C1763.24,-340.01 1677.3,-264.51 1711,-203 1733.91,-161.17 1791.3,-139.35 1816.18,-131.59"/>
<polygon fill="none" stroke="#ffffff" stroke-width="1.6" stroke-opacity="0.623529" points="1816.94,-135.02 1825.61,-128.92 1815.03,-128.28 1816.94,-135.02"/>
</a>
</g>
</g>
<!-- 63 -->
<g id="node38" class="node">
<title>63</title>
<g id="a_node38"><a xlink:title="rand_xorshift v0.1.1&#10;0 B">
<ellipse fill="#421502" stroke="#ffffff" stroke-width="1.2" stroke-opacity="0.623529" cx="2253" cy="-228.75" rx="0.36" ry="0.36"/>
<text xml:space="preserve" text-anchor="middle" x="2253" y="-233.4" font-family="monospace" font-size="18.00" fill="#ffffff">rand_xorshift</text>
<text xml:space="preserve" text-anchor="middle" x="2253" y="-211.65" font-family="monospace" font-size="18.00" fill="#ffffff">615 B</text>
</a>
</g>
</g>
<!-- 54&#45;&gt;63 -->
<g id="edge47" class="edge">
<title>54&#45;&gt;63</title>
<g id="a_edge47"><a xlink:title="rand &#45;&gt; rand_xorshift">
<path fill="none" stroke="#ffffff" stroke-width="1.6" stroke-opacity="0.623529" d="M1807.5,-364.72C1866,-346.99 2176.84,-252.82 2241.29,-233.3"/>
<polygon fill="none" stroke="#ffffff" stroke-width="1.6" stroke-opacity="0.623529" points="2242.06,-236.72 2250.61,-230.47 2240.03,-230.02 2242.06,-236.72"/>
</a>
</g>
</g>
<!-- 56 -->
<g id="node31" class="node">
<title>56</title>
<g id="a_node31"><a xlink:title="rand_core v0.3.1&#10;2.00 KiB">
<ellipse fill="#5e1c03" stroke="#ffffff" stroke-width="1.2" stroke-opacity="0.623529" cx="1965" cy="-127.25" rx="6.35" ry="6.35"/>
<text xml:space="preserve" text-anchor="middle" x="1965" y="-131.9" font-family="monospace" font-size="18.00" fill="#ffffff">rand_core</text>
<text xml:space="preserve" text-anchor="middle" x="1965" y="-110.15" font-family="monospace" font-size="18.00" fill="#ffffff">2.41 KiB</text>
</a>
</g>
</g>
<!-- 55&#45;&gt;56 -->
<g id="edge34" class="edge">
<title>55&#45;&gt;56</title>
<g id="a_edge34"><a xlink:title="rand_chacha &#45;&gt; rand_core">
<path fill="none" stroke="#ffffff" stroke-width="1.6" stroke-opacity="0.623529" d="M1806.78,-219.78C1838.45,-201.46 1916.23,-156.46 1949.5,-137.22"/>
<polygon fill="none" stroke="#ffffff" stroke-width="1.6" stroke-opacity="0.623529" points="1951.18,-140.29 1958.08,-132.25 1947.68,-134.23 1951.18,-140.29"/>
</a>
</g>
</g>
<!-- 56&#45;&gt;57 -->
<g id="edge35" class="edge">
<title>56&#45;&gt;57</title>
<g id="a_edge35"><a xlink:title="rand_core &#45;&gt; rand_core">
<path fill="none" stroke="#ffffff" stroke-width="1.6" stroke-opacity="0.623529" d="M1960.44,-122.94C1942,-109.54 1872.44,-59.03 1842.19,-37.06"/>
<polygon fill="none" stroke="#ffffff" stroke-width="1.6" stroke-opacity="0.623529" points="1844.54,-34.44 1834.4,-31.4 1840.43,-40.1 1844.54,-34.44"/>
</a>
</g>
</g>
<!-- 58&#45;&gt;56 -->
<g id="edge38" class="edge">
<title>58&#45;&gt;56</title>
<g id="a_edge38"><a xlink:title="rand_hc &#45;&gt; rand_core">
<path fill="none" stroke="#ffffff" stroke-width="1.6" stroke-opacity="0.623529" d="M1943.94,-215.55C1948.21,-197.84 1956.14,-164.97 1960.96,-145"/>
<polygon fill="none" stroke="#ffffff" stroke-width="1.6" stroke-opacity="0.623529" points="1964.31,-146.05 1963.25,-135.5 1957.5,-144.4 1964.31,-146.05"/>
</a>
</g>
</g>
<!-- 59&#45;&gt;56 -->
<g id="edge40" class="edge">
<title>59&#45;&gt;56</title>
<g id="a_edge40"><a xlink:title="rand_isaac &#45;&gt; rand_core">
<path fill="none" stroke="#ffffff" stroke-width="1.6" stroke-opacity="0.623529" d="M2082.91,-227.68C2080.11,-225.31 2008.82,-165.2 1978.47,-139.61"/>
<polygon fill="none" stroke="#ffffff" stroke-width="1.6" stroke-opacity="0.623529" points="1980.83,-137.02 1970.93,-133.25 1976.31,-142.37 1980.83,-137.02"/>
</a>
</g>
</g>
<!-- 60&#45;&gt;57 -->
<g id="edge42" class="edge">
<title>60&#45;&gt;57</title>
<g id="a_edge42"><a xlink:title="rand_jitter &#45;&gt; rand_core">
<path fill="none" stroke="#ffffff" stroke-width="1.6" stroke-opacity="0.623529" d="M1552.94,-124.84C1581.4,-114.7 1755.74,-52.52 1811.13,-32.77"/>
<polygon fill="none" stroke="#ffffff" stroke-width="1.6" stroke-opacity="0.623529" points="1811.96,-36.19 1820.2,-29.53 1809.61,-29.59 1811.96,-36.19"/>
</a>
</g>
</g>
<!-- 61&#45;&gt;57 -->
<g id="edge44" class="edge">
<title>61&#45;&gt;57</title>
<g id="a_edge44"><a xlink:title="rand_os &#45;&gt; rand_core">
<path fill="none" stroke="#ffffff" stroke-width="1.6" stroke-opacity="0.623529" d="M1701.98,-122.47C1720.38,-108.49 1785.01,-59.4 1813.88,-37.47"/>
<polygon fill="none" stroke="#ffffff" stroke-width="1.6" stroke-opacity="0.623529" points="1815.79,-40.42 1821.64,-31.58 1811.56,-34.84 1815.79,-40.42"/>
</a>
</g>
</g>
<!-- 62&#45;&gt;57 -->
<g id="edge46" class="edge">
<title>62&#45;&gt;57</title>
<g id="a_edge46"><a xlink:title="rand_pcg &#45;&gt; rand_core">
<path fill="none" stroke="#ffffff" stroke-width="1.6" stroke-opacity="0.623529" d="M1828,-126.18C1828,-123.98 1828,-72.22 1828,-44.28"/>
<polygon fill="none" stroke="#ffffff" stroke-width="1.6" stroke-opacity="0.623529" points="1831.5,-44.36 1828,-34.36 1824.5,-44.36 1831.5,-44.36"/>
</a>
</g>
</g>
<!-- 63&#45;&gt;56 -->
<g id="edge48" class="edge">
<title>63&#45;&gt;56</title>
<g id="a_edge48"><a xlink:title="rand_xorshift &#45;&gt; rand_core">
<path fill="none" stroke="#ffffff" stroke-width="1.6" stroke-opacity="0.623529" d="M2252.95,-227.73C2249.17,-226.43 2042.99,-155.19 1981.89,-134.08"/>
<polygon fill="none" stroke="#ffffff" stroke-width="1.6" stroke-opacity="0.623529" points="1983.3,-130.87 1972.7,-130.91 1981.01,-137.48 1983.3,-130.87"/>
</a>
</g>
</g>
<!-- 65 -->
<g id="node39" class="node">
<title>65</title>
<g id="a_node39"><a xlink:title="std &#10;406.04 KiB">
<ellipse fill="#f46a72" stroke="#ffffff" stroke-width="1.2" stroke-opacity="0.623529" cx="1258" cy="-685.84" rx="72.39" ry="72.39"/>
<text xml:space="preserve" text-anchor="middle" x="1258" y="-690.49" font-family="monospace" font-size="18.00" fill="#ffffff">std</text>
<text xml:space="preserve" text-anchor="middle" x="1258" y="-668.74" font-family="monospace" font-size="18.00" fill="#ffffff">406.04 KiB</text>
</a>
</g>
</g>
</g>
</svg>
