<?xml version="1.0" encoding="UTF-8" standalone="no"?>
<!DOCTYPE svg PUBLIC "-//W3C//DTD SVG 1.1//EN"
 "http://www.w3.org/Graphics/SVG/1.1/DTD/svg11.dtd">
<!-- Generated by graphviz version 13.1.2 (20250808.2320)
 -->
<!-- Pages: 1 -->
<svg width="1272pt" height="615pt"
 viewBox="0.00 0.00 1272.00 615.00" xmlns="http://www.w3.org/2000/svg" xmlns:xlink="http://www.w3.org/1999/xlink">
<g id="graph0" class="graph" transform="scale(1 1) rotate(0) translate(72 543.19)">
<polygon fill="#000000" stroke="none" points="-72,72 -72,-543.19 1200,-543.19 1200,72 -72,72"/>
<!-- 0 -->
<g id="node1" class="node">
<title>0</title>
<g id="a_node1"><a xlink:title="hyperfine v1.20.0 (/home/my4ng/Programming/hyperfine)&#10;202.97 KiB">
<ellipse fill="#ff98a5" stroke="#ffffff" stroke-width="0.9" stroke-opacity="0.623529" cx="593.5" cy="-398.8" rx="61.7" ry="61.7"/>
<text xml:space="preserve" text-anchor="middle" x="593.5" y="-402.55" font-family="monospace" font-size="15.00" fill="#ffffff">hyperfine</text>
<text xml:space="preserve" text-anchor="middle" x="593.5" y="-384.55" font-family="monospace" font-size="15.00" fill="#ffffff">606.84 KiB</text>
</a>
</g>
</g>
<!-- 1 -->
<g id="node2" class="node">
<title>1</title>
<g id="a_node2"><a xlink:title="anyhow v1.0.100&#10;13.15 KiB">
<ellipse fill="#8f2203" stroke="#ffffff" stroke-width="0.9" stroke-opacity="0.623529" cx="169.5" cy="-236.04" rx="22.76" ry="22.76"/>
<text xml:space="preserve" text-anchor="middle" x="169.5" y="-239.79" font-family="monospace" font-size="15.00" fill="#ffffff">anyhow</text>
<text xml:space="preserve" text-anchor="middle" x="169.5" y="-221.79" font-family="monospace" font-size="15.00" fill="#ffffff">13.15 KiB</text>
</a>
</g>
</g>
<!-- 0&#45;&gt;1 -->
<g id="edge1" class="edge">
<title>0&#45;&gt;1</title>
<g id="a_edge1"><a xlink:title="hyperfine &#45;&gt; anyhow">
<path fill="none" stroke="#ffffff" stroke-width="1.2" stroke-opacity="0.623529" d="M534.12,-382.67C460.97,-362.96 333.83,-325.18 231.5,-276.41 219.02,-270.47 206,-262.5 195.13,-255.29"/>
<polygon fill="none" stroke="#ffffff" stroke-width="1.2" stroke-opacity="0.623529" points="196.97,-253.16 188.78,-250.98 193.83,-257.79 196.97,-253.16"/>
</a>
</g>
</g>
<!-- 17 -->
<g id="node3" class="node">
<title>17</title>
<g id="a_node3"><a xlink:title="colored v2.2.0&#10;8.62 KiB">
<ellipse fill="#812103" stroke="#ffffff" stroke-width="0.9" stroke-opacity="0.623529" cx="287.5" cy="-236.04" rx="17.97" ry="17.97"/>
<text xml:space="preserve" text-anchor="middle" x="287.5" y="-239.79" font-family="monospace" font-size="15.00" fill="#ffffff">colored</text>
<text xml:space="preserve" text-anchor="middle" x="287.5" y="-221.79" font-family="monospace" font-size="15.00" fill="#ffffff">8.62 KiB</text>
</a>
</g>
</g>
<!-- 0&#45;&gt;17 -->
<g id="edge2" class="edge">
<title>0&#45;&gt;17</title>
<g id="a_edge2"><a xlink:title="hyperfine &#45;&gt; colored">
<path fill="none" stroke="#ffffff" stroke-width="1.2" stroke-opacity="0.623529" d="M537.36,-373.37C486.06,-350.37 408.64,-313.92 344.5,-276.41 332.37,-269.32 319.45,-260.51 308.98,-253.02"/>
<polygon fill="none" stroke="#ffffff" stroke-width="1.2" stroke-opacity="0.623529" points="310.76,-250.85 302.64,-248.42 307.47,-255.38 310.76,-250.85"/>
</a>
</g>
</g>
<!-- 19 -->
<g id="node4" class="node">
<title>19</title>
<g id="a_node4"><a xlink:title="csv v1.4.0&#10;4.83 KiB">
<ellipse fill="#812103" stroke="#ffffff" stroke-width="0.9" stroke-opacity="0.623529" cx="654.5" cy="-236.04" rx="12.39" ry="12.39"/>
<text xml:space="preserve" text-anchor="middle" x="654.5" y="-239.79" font-family="monospace" font-size="15.00" fill="#ffffff">csv</text>
<text xml:space="preserve" text-anchor="middle" x="654.5" y="-221.79" font-family="monospace" font-size="15.00" fill="#ffffff">8.68 KiB</text>
</a>
</g>
</g>
<!-- 0&#45;&gt;19 -->
<g id="edge3" class="edge">
<title>0&#45;&gt;19</title>
<g id="a_edge3"><a xlink:title="hyperfine &#45;&gt; csv">
<path fill="none" stroke="#ffffff" stroke-width="1.2" stroke-opacity="0.623529" d="M615.01,-341.12C626.15,-311.76 639.05,-277.75 646.99,-256.82"/>
<polygon fill="none" stroke="#ffffff" stroke-width="1.2" stroke-opacity="0.623529" points="649.6,-257.84 649.82,-249.37 644.36,-255.85 649.6,-257.84"/>
</a>
</g>
</g>
<!-- 25 -->
<g id="node8" class="node">
<title>25</title>
<g id="a_node8"><a xlink:title="indicatif v0.17.4&#10;48.93 KiB">
<ellipse fill="#c7220d" stroke="#ffffff" stroke-width="0.9" stroke-opacity="0.623529" cx="405.5" cy="-236.04" rx="40.38" ry="40.38"/>
<text xml:space="preserve" text-anchor="middle" x="405.5" y="-239.79" font-family="monospace" font-size="15.00" fill="#ffffff">indicatif</text>
<text xml:space="preserve" text-anchor="middle" x="405.5" y="-221.79" font-family="monospace" font-size="15.00" fill="#ffffff">68.54 KiB</text>
</a>
</g>
</g>
<!-- 0&#45;&gt;25 -->
<g id="edge7" class="edge">
<title>0&#45;&gt;25</title>
<g id="a_edge7"><a xlink:title="hyperfine &#45;&gt; indicatif">
<path fill="none" stroke="#ffffff" stroke-width="1.2" stroke-opacity="0.623529" d="M547.51,-358.47C515.34,-330.97 472.92,-294.69 442.84,-268.97"/>
<polygon fill="none" stroke="#ffffff" stroke-width="1.2" stroke-opacity="0.623529" points="444.76,-266.92 436.86,-263.85 441.12,-271.18 444.76,-266.92"/>
</a>
</g>
</g>
<!-- 41 -->
<g id="node14" class="node">
<title>41</title>
<g id="a_node14"><a xlink:title="rust_decimal v1.39.0&#10;9.95 KiB">
<ellipse fill="#862203" stroke="#ffffff" stroke-width="0.9" stroke-opacity="0.623529" cx="785.5" cy="-236.04" rx="19.53" ry="19.53"/>
<text xml:space="preserve" text-anchor="middle" x="785.5" y="-239.79" font-family="monospace" font-size="15.00" fill="#ffffff">rust_decimal</text>
<text xml:space="preserve" text-anchor="middle" x="785.5" y="-221.79" font-family="monospace" font-size="15.00" fill="#ffffff">10.05 KiB</text>
</a>
</g>
</g>
<!-- 0&#45;&gt;41 -->
<g id="edge13" class="edge">
<title>0&#45;&gt;41</title>
<g id="a_edge13"><a xlink:title="hyperfine &#45;&gt; rust_decimal">
<path fill="none" stroke="#ffffff" stroke-width="1.2" stroke-opacity="0.623529" d="M636.52,-354.64C646.48,-345.11 657.19,-335.24 667.5,-326.41 699.11,-299.36 737.94,-270.77 762.21,-253.42"/>
<polygon fill="none" stroke="#ffffff" stroke-width="1.2" stroke-opacity="0.623529" points="763.78,-255.74 768.67,-248.82 760.53,-251.18 763.78,-255.74"/>
</a>
</g>
</g>
<!-- 45 -->
<g id="node16" class="node">
<title>45</title>
<g id="a_node16"><a xlink:title="serde_json v1.0.145&#10;3.04 KiB">
<ellipse fill="#731f03" stroke="#ffffff" stroke-width="0.9" stroke-opacity="0.623529" cx="532.5" cy="-236.04" rx="8.83" ry="8.83"/>
<text xml:space="preserve" text-anchor="middle" x="532.5" y="-239.79" font-family="monospace" font-size="15.00" fill="#ffffff">serde_json</text>
<text xml:space="preserve" text-anchor="middle" x="532.5" y="-221.79" font-family="monospace" font-size="15.00" fill="#ffffff">5.34 KiB</text>
</a>
</g>
</g>
<!-- 0&#45;&gt;45 -->
<g id="edge15" class="edge">
<title>0&#45;&gt;45</title>
<g id="a_edge15"><a xlink:title="hyperfine &#45;&gt; serde_json">
<path fill="none" stroke="#ffffff" stroke-width="1.2" stroke-opacity="0.623529" d="M571.99,-341.12C560.19,-310.02 546.42,-273.72 538.65,-253.25"/>
<polygon fill="none" stroke="#ffffff" stroke-width="1.2" stroke-opacity="0.623529" points="541.28,-252.28 535.82,-245.8 536.05,-254.27 541.28,-252.28"/>
</a>
</g>
</g>
<!-- 46 -->
<g id="node17" class="node">
<title>46</title>
<g id="a_node17"><a xlink:title="shell_words v1.1.0&#10;2.59 KiB">
<ellipse fill="#601c03" stroke="#ffffff" stroke-width="0.9" stroke-opacity="0.623529" cx="930.5" cy="-236.04" rx="7.8" ry="7.8"/>
<text xml:space="preserve" text-anchor="middle" x="930.5" y="-239.79" font-family="monospace" font-size="15.00" fill="#ffffff">shell_words</text>
<text xml:space="preserve" text-anchor="middle" x="930.5" y="-221.79" font-family="monospace" font-size="15.00" fill="#ffffff">2.59 KiB</text>
</a>
</g>
</g>
<!-- 0&#45;&gt;46 -->
<g id="edge18" class="edge">
<title>0&#45;&gt;46</title>
<g id="a_edge18"><a xlink:title="hyperfine &#45;&gt; shell_words">
<path fill="none" stroke="#ffffff" stroke-width="1.2" stroke-opacity="0.623529" d="M633.46,-352.12C643.74,-342.5 655.35,-333.22 667.5,-326.41 744.81,-283.12 778.31,-309.53 860.5,-276.41 880.89,-268.2 902.71,-255.17 916.47,-246.37"/>
<polygon fill="none" stroke="#ffffff" stroke-width="1.2" stroke-opacity="0.623529" points="917.9,-248.78 923.07,-242.06 914.84,-244.09 917.9,-248.78"/>
</a>
</g>
</g>
<!-- 47 -->
<g id="node18" class="node">
<title>47</title>
<g id="a_node18"><a xlink:title="statistical v1.0.0&#10;1022 B">
<ellipse fill="#a62304" stroke="#ffffff" stroke-width="0.9" stroke-opacity="0.623529" cx="1070.5" cy="-236.04" rx="3.48" ry="3.48"/>
<text xml:space="preserve" text-anchor="middle" x="1070.5" y="-239.79" font-family="monospace" font-size="15.00" fill="#ffffff">statistical</text>
<text xml:space="preserve" text-anchor="middle" x="1070.5" y="-221.79" font-family="monospace" font-size="15.00" fill="#ffffff">25.68 KiB</text>
</a>
</g>
</g>
<!-- 0&#45;&gt;47 -->
<g id="edge19" class="edge">
<title>0&#45;&gt;47</title>
<g id="a_edge19"><a xlink:title="hyperfine &#45;&gt; statistical">
<path fill="none" stroke="#ffffff" stroke-width="1.2" stroke-opacity="0.623529" d="M632.57,-351.56C642.96,-341.84 654.85,-332.65 667.5,-326.41 801.72,-260.21 858.95,-325.01 1000.5,-276.41 1023.39,-268.55 1047.43,-253.25 1060.53,-244.21"/>
<polygon fill="none" stroke="#ffffff" stroke-width="1.2" stroke-opacity="0.623529" points="1062.08,-246.53 1066.98,-239.61 1058.84,-241.97 1062.08,-246.53"/>
</a>
</g>
</g>
<!-- 20 -->
<g id="node5" class="node">
<title>20</title>
<g id="a_node5"><a xlink:title="csv_core v0.1.13&#10;1.53 KiB">
<ellipse fill="#5f1c03" stroke="#ffffff" stroke-width="0.9" stroke-opacity="0.623529" cx="716.5" cy="-119.83" rx="5.07" ry="5.07"/>
<text xml:space="preserve" text-anchor="middle" x="716.5" y="-123.58" font-family="monospace" font-size="15.00" fill="#ffffff">csv_core</text>
<text xml:space="preserve" text-anchor="middle" x="716.5" y="-105.58" font-family="monospace" font-size="15.00" fill="#ffffff">2.50 KiB</text>
</a>
</g>
</g>
<!-- 19&#45;&gt;20 -->
<g id="edge4" class="edge">
<title>19&#45;&gt;20</title>
<g id="a_edge4"><a xlink:title="csv &#45;&gt; csv_core">
<path fill="none" stroke="#ffffff" stroke-width="1.2" stroke-opacity="0.623529" d="M659.79,-225.3C671.11,-204.44 697.69,-155.48 710.01,-132.78"/>
<polygon fill="none" stroke="#ffffff" stroke-width="1.2" stroke-opacity="0.623529" points="712.46,-134.15 713.81,-125.78 707.53,-131.48 712.46,-134.15"/>
</a>
</g>
</g>
<!-- 23 -->
<g id="node7" class="node">
<title>23</title>
<g id="a_node7"><a xlink:title="ryu v1.0.20&#10;2.69 KiB">
<ellipse fill="#611c03" stroke="#ffffff" stroke-width="0.9" stroke-opacity="0.623529" cx="603.5" cy="-119.83" rx="8.03" ry="8.03"/>
<text xml:space="preserve" text-anchor="middle" x="603.5" y="-123.58" font-family="monospace" font-size="15.00" fill="#ffffff">ryu</text>
<text xml:space="preserve" text-anchor="middle" x="603.5" y="-105.58" font-family="monospace" font-size="15.00" fill="#ffffff">2.69 KiB</text>
</a>
</g>
</g>
<!-- 19&#45;&gt;23 -->
<g id="edge6" class="edge">
<title>19&#45;&gt;23</title>
<g id="a_edge6"><a xlink:title="csv &#45;&gt; ryu">
<path fill="none" stroke="#ffffff" stroke-width="1.2" stroke-opacity="0.623529" d="M649.97,-224.9C640.97,-204.74 620.78,-159.53 610.22,-135.89"/>
<polygon fill="none" stroke="#ffffff" stroke-width="1.2" stroke-opacity="0.623529" points="612.91,-135.03 607.09,-128.87 607.8,-137.31 612.91,-135.03"/>
</a>
</g>
</g>
<!-- 21 -->
<g id="node6" class="node">
<title>21</title>
<g id="a_node6"><a xlink:title="memchr v2.7.6&#10;1.93 KiB">
<ellipse fill="#591b03" stroke="#ffffff" stroke-width="0.9" stroke-opacity="0.623529" cx="618.5" cy="-22" rx="6.17" ry="6.17"/>
<text xml:space="preserve" text-anchor="middle" x="618.5" y="-25.75" font-family="monospace" font-size="15.00" fill="#ffffff">memchr</text>
<text xml:space="preserve" text-anchor="middle" x="618.5" y="-7.75" font-family="monospace" font-size="15.00" fill="#ffffff">1.93 KiB</text>
</a>
</g>
</g>
<!-- 20&#45;&gt;21 -->
<g id="edge5" class="edge">
<title>20&#45;&gt;21</title>
<g id="a_edge5"><a xlink:title="csv_core &#45;&gt; memchr">
<path fill="none" stroke="#ffffff" stroke-width="1.2" stroke-opacity="0.623529" d="M713.67,-116.06C701.26,-103.93 651.25,-55.03 629.12,-33.39"/>
<polygon fill="none" stroke="#ffffff" stroke-width="1.2" stroke-opacity="0.623529" points="631.33,-31.63 623.65,-28.04 627.41,-35.63 631.33,-31.63"/>
</a>
</g>
</g>
<!-- 26 -->
<g id="node9" class="node">
<title>26</title>
<g id="a_node9"><a xlink:title="console v0.15.11&#10;16.87 KiB">
<ellipse fill="#9b2303" stroke="#ffffff" stroke-width="0.9" stroke-opacity="0.623529" cx="118.5" cy="-119.83" rx="25.83" ry="25.83"/>
<text xml:space="preserve" text-anchor="middle" x="118.5" y="-123.58" font-family="monospace" font-size="15.00" fill="#ffffff">console</text>
<text xml:space="preserve" text-anchor="middle" x="118.5" y="-105.58" font-family="monospace" font-size="15.00" fill="#ffffff">18.64 KiB</text>
</a>
</g>
</g>
<!-- 25&#45;&gt;26 -->
<g id="edge8" class="edge">
<title>25&#45;&gt;26</title>
<g id="a_edge8"><a xlink:title="indicatif &#45;&gt; console">
<path fill="none" stroke="#ffffff" stroke-width="1.2" stroke-opacity="0.623529" d="M373.22,-211.82C364.21,-206.01 354.22,-200.16 344.5,-195.66 274.97,-163.45 251.73,-171.24 179.5,-145.66 170.04,-142.31 159.9,-138.34 150.66,-134.56"/>
<polygon fill="none" stroke="#ffffff" stroke-width="1.2" stroke-opacity="0.623529" points="151.91,-132.05 143.45,-131.58 149.77,-137.23 151.91,-132.05"/>
</a>
</g>
</g>
<!-- 30 -->
<g id="node12" class="node">
<title>30</title>
<g id="a_node12"><a xlink:title="number_prefix v0.4.0&#10;135 B">
<ellipse fill="#2f0f01" stroke="#ffffff" stroke-width="0.9" stroke-opacity="0.623529" cx="258.5" cy="-119.83" rx="0.51" ry="0.51"/>
<text xml:space="preserve" text-anchor="middle" x="258.5" y="-123.58" font-family="monospace" font-size="15.00" fill="#ffffff">number_prefix</text>
<text xml:space="preserve" text-anchor="middle" x="258.5" y="-105.58" font-family="monospace" font-size="15.00" fill="#ffffff">135 B</text>
</a>
</g>
</g>
<!-- 25&#45;&gt;30 -->
<g id="edge11" class="edge">
<title>25&#45;&gt;30</title>
<g id="a_edge11"><a xlink:title="indicatif &#45;&gt; number_prefix">
<path fill="none" stroke="#ffffff" stroke-width="1.2" stroke-opacity="0.623529" d="M374.33,-210.81C339.65,-183.87 285.9,-142.12 266.13,-126.76"/>
<polygon fill="none" stroke="#ffffff" stroke-width="1.2" stroke-opacity="0.623529" points="268.02,-124.68 259.99,-121.98 264.59,-129.1 268.02,-124.68"/>
</a>
</g>
</g>
<!-- 32 -->
<g id="node13" class="node">
<title>32</title>
<g id="a_node13"><a xlink:title="unicode_width v0.1.14&#10;850 B">
<ellipse fill="#481602" stroke="#ffffff" stroke-width="0.9" stroke-opacity="0.623529" cx="416.5" cy="-119.83" rx="2.95" ry="2.95"/>
<text xml:space="preserve" text-anchor="middle" x="416.5" y="-123.58" font-family="monospace" font-size="15.00" fill="#ffffff">unicode_width</text>
<text xml:space="preserve" text-anchor="middle" x="416.5" y="-105.58" font-family="monospace" font-size="15.00" fill="#ffffff">850 B</text>
</a>
</g>
</g>
<!-- 25&#45;&gt;32 -->
<g id="edge12" class="edge">
<title>25&#45;&gt;32</title>
<g id="a_edge12"><a xlink:title="indicatif &#45;&gt; unicode_width">
<path fill="none" stroke="#ffffff" stroke-width="1.2" stroke-opacity="0.623529" d="M409.25,-196.05C411.41,-173.66 413.97,-147.12 415.39,-132.31"/>
<polygon fill="none" stroke="#ffffff" stroke-width="1.2" stroke-opacity="0.623529" points="418.17,-132.74 416.15,-124.51 412.59,-132.21 418.17,-132.74"/>
</a>
</g>
</g>
<!-- 28 -->
<g id="node10" class="node">
<title>28</title>
<g id="a_node10"><a xlink:title="once_cell v1.21.3&#10;968 B">
<ellipse fill="#4a1702" stroke="#ffffff" stroke-width="0.9" stroke-opacity="0.623529" cx="48.5" cy="-22" rx="3.32" ry="3.32"/>
<text xml:space="preserve" text-anchor="middle" x="48.5" y="-25.75" font-family="monospace" font-size="15.00" fill="#ffffff">once_cell</text>
<text xml:space="preserve" text-anchor="middle" x="48.5" y="-7.75" font-family="monospace" font-size="15.00" fill="#ffffff">968 B</text>
</a>
</g>
</g>
<!-- 26&#45;&gt;28 -->
<g id="edge9" class="edge">
<title>26&#45;&gt;28</title>
<g id="a_edge9"><a xlink:title="console &#45;&gt; once_cell">
<path fill="none" stroke="#ffffff" stroke-width="1.2" stroke-opacity="0.623529" d="M104,-98.97C89.16,-78.66 66.73,-47.96 55.47,-32.55"/>
<polygon fill="none" stroke="#ffffff" stroke-width="1.2" stroke-opacity="0.623529" points="57.74,-30.91 50.76,-26.1 53.22,-34.21 57.74,-30.91"/>
</a>
</g>
</g>
<!-- 29 -->
<g id="node11" class="node">
<title>29</title>
<g id="a_node11"><a xlink:title="unicode_width v0.2.2&#10;850 B">
<ellipse fill="#481602" stroke="#ffffff" stroke-width="0.9" stroke-opacity="0.623529" cx="188.5" cy="-22" rx="2.95" ry="2.95"/>
<text xml:space="preserve" text-anchor="middle" x="188.5" y="-25.75" font-family="monospace" font-size="15.00" fill="#ffffff">unicode_width</text>
<text xml:space="preserve" text-anchor="middle" x="188.5" y="-7.75" font-family="monospace" font-size="15.00" fill="#ffffff">850 B</text>
</a>
</g>
</g>
<!-- 26&#45;&gt;29 -->
<g id="edge10" class="edge">
<title>26&#45;&gt;29</title>
<g id="a_edge10"><a xlink:title="console &#45;&gt; unicode_width">
<path fill="none" stroke="#ffffff" stroke-width="1.2" stroke-opacity="0.623529" d="M133,-98.97C147.84,-78.66 170.27,-47.96 181.53,-32.55"/>
<polygon fill="none" stroke="#ffffff" stroke-width="1.2" stroke-opacity="0.623529" points="183.78,-34.21 186.24,-26.1 179.26,-30.91 183.78,-34.21"/>
</a>
</g>
</g>
<!-- 42 -->
<g id="node15" class="node">
<title>42</title>
<g id="a_node15"><a xlink:title="arrayvec v0.7.6&#10;99 B">
<ellipse fill="#2c0e01" stroke="#ffffff" stroke-width="0.9" stroke-opacity="0.623529" cx="829.5" cy="-119.83" rx="0.37" ry="0.37"/>
<text xml:space="preserve" text-anchor="middle" x="829.5" y="-123.58" font-family="monospace" font-size="15.00" fill="#ffffff">arrayvec</text>
<text xml:space="preserve" text-anchor="middle" x="829.5" y="-105.58" font-family="monospace" font-size="15.00" fill="#ffffff">99 B</text>
</a>
</g>
</g>
<!-- 41&#45;&gt;42 -->
<g id="edge14" class="edge">
<title>41&#45;&gt;42</title>
<g id="a_edge14"><a xlink:title="rust_decimal &#45;&gt; arrayvec">
<path fill="none" stroke="#ffffff" stroke-width="1.2" stroke-opacity="0.623529" d="M792.18,-217.69C801.65,-193.12 818.63,-149.05 825.96,-130.01"/>
<polygon fill="none" stroke="#ffffff" stroke-width="1.2" stroke-opacity="0.623529" points="828.57,-131.04 828.83,-122.57 823.34,-129.03 828.57,-131.04"/>
</a>
</g>
</g>
<!-- 45&#45;&gt;21 -->
<g id="edge16" class="edge">
<title>45&#45;&gt;21</title>
<g id="a_edge16"><a xlink:title="serde_json &#45;&gt; memchr">
<path fill="none" stroke="#ffffff" stroke-width="1.2" stroke-opacity="0.623529" d="M531.62,-227.53C529.4,-205.67 525.21,-140.66 547.5,-94 560.81,-66.13 589.71,-42.83 606.24,-31.12"/>
<polygon fill="none" stroke="#ffffff" stroke-width="1.2" stroke-opacity="0.623529" points="607.44,-33.69 612.47,-26.88 604.29,-29.06 607.44,-33.69"/>
</a>
</g>
</g>
<!-- 45&#45;&gt;23 -->
<g id="edge17" class="edge">
<title>45&#45;&gt;23</title>
<g id="a_edge17"><a xlink:title="serde_json &#45;&gt; ryu">
<path fill="none" stroke="#ffffff" stroke-width="1.2" stroke-opacity="0.623529" d="M536.52,-228.57C547.71,-210.58 579.38,-159.63 594.82,-134.79"/>
<polygon fill="none" stroke="#ffffff" stroke-width="1.2" stroke-opacity="0.623529" points="597.06,-136.49 598.91,-128.21 592.31,-133.53 597.06,-136.49"/>
</a>
</g>
</g>
<!-- 65 -->
<g id="node19" class="node">
<title>65</title>
<g id="a_node19"><a xlink:title="std &#10;406.04 KiB">
<ellipse fill="#f46a72" stroke="#ffffff" stroke-width="0.9" stroke-opacity="0.623529" cx="752.5" cy="-398.8" rx="72.39" ry="72.39"/>
<text xml:space="preserve" text-anchor="middle" x="752.5" y="-402.55" font-family="monospace" font-size="15.00" fill="#ffffff">std</text>
<text xml:space="preserve" text-anchor="middle" x="752.5" y="-384.55" font-family="monospace" font-size="15.00" fill="#ffffff">406.04 KiB</text>
</a>
</g>
</g>
</g>
</svg>
