<?xml version="1.0" encoding="UTF-8" standalone="no"?>
<!DOCTYPE svg PUBLIC "-//W3C//DTD SVG 1.1//EN"
 "http://www.w3.org/Graphics/SVG/1.1/DTD/svg11.dtd">
<!-- Generated by graphviz version 13.1.2 (20250808.2320)
 -->
<!-- Pages: 1 -->
<svg width="1382pt" height="711pt"
 viewBox="0.00 0.00 1382.00 711.00" xmlns="http://www.w3.org/2000/svg" xmlns:xlink="http://www.w3.org/1999/xlink">
<g id="graph0" class="graph" transform="scale(1 1) rotate(0) translate(72 638.73)">
<polygon fill="white" stroke="none" points="-72,72 -72,-638.73 1309.5,-638.73 1309.5,72 -72,72"/>
<!-- 0 -->
<g id="node1" class="node">
<title>0</title>
<g id="a_node1"><a xlink:title="pugio v0.1.3 (/home/my4ng/Programming/pugio)&#10;101.48 KiB">
<ellipse fill="#08306b" stroke="#000000" stroke-width="0.9" stroke-opacity="0.623529" cx="653.5" cy="-515.57" rx="51.16" ry="51.16"/>
<text xml:space="preserve" text-anchor="middle" x="653.5" y="-510.32" font-family="monospace" font-size="15.00">pugio</text>
</a>
</g>
</g>
<!-- 1 -->
<g id="node2" class="node">
<title>1</title>
<g id="a_node2"><a xlink:title="anyhow v1.0.100&#10;8.43 KiB">
<ellipse fill="#a2cbe3" stroke="#000000" stroke-width="0.9" stroke-opacity="0.623529" cx="212.5" cy="-374.84" rx="17.73" ry="17.73"/>
<text xml:space="preserve" text-anchor="middle" x="212.5" y="-369.59" font-family="monospace" font-size="15.00">anyhow</text>
</a>
</g>
</g>
<!-- 0&#45;&gt;1 -->
<g id="edge1" class="edge">
<title>0&#45;&gt;1</title>
<g id="a_edge1"><a xlink:title="pugio &#45;&gt; anyhow">
<path fill="none" stroke="#000000" stroke-width="1.2" stroke-opacity="0.623529" d="M603.03,-508.69C525.83,-498.21 375.3,-471.74 260.5,-414.41 249.96,-409.14 239.59,-401.26 231.21,-393.99"/>
<polygon fill="none" stroke="#000000" stroke-width="1.2" stroke-opacity="0.623529" points="233.28,-392.08 225.46,-388.79 229.52,-396.24 233.28,-392.08"/>
</a>
</g>
</g>
<!-- 3 -->
<g id="node3" class="node">
<title>3</title>
<g id="a_node3"><a xlink:title="clap v4.5.53&#10;0 B">
<ellipse fill="#145fa6" stroke="#000000" stroke-width="0.9" stroke-opacity="0.623529" cx="298.5" cy="-374.84" rx="0.36" ry="0.36"/>
<text xml:space="preserve" text-anchor="middle" x="298.5" y="-369.59" font-family="monospace" font-size="15.00">clap</text>
</a>
</g>
</g>
<!-- 0&#45;&gt;3 -->
<g id="edge2" class="edge">
<title>0&#45;&gt;3</title>
<g id="a_edge2"><a xlink:title="pugio &#45;&gt; clap">
<path fill="none" stroke="#000000" stroke-width="1.2" stroke-opacity="0.623529" d="M603.39,-506.26C538.4,-493.85 423.22,-466.18 337.5,-414.41 323.92,-406.2 311.49,-392.34 304.48,-383.66"/>
<polygon fill="none" stroke="#000000" stroke-width="1.2" stroke-opacity="0.623529" points="306.74,-382.01 299.66,-377.36 302.29,-385.41 306.74,-382.01"/>
</a>
</g>
</g>
<!-- 7 -->
<g id="node7" class="node">
<title>7</title>
<g id="a_node7"><a xlink:title="colorgrad v0.8.0&#10;12.57 KiB">
<ellipse fill="#64a8d2" stroke="#000000" stroke-width="0.9" stroke-opacity="0.623529" cx="398.5" cy="-374.84" rx="22.22" ry="22.22"/>
<text xml:space="preserve" text-anchor="middle" x="398.5" y="-369.59" font-family="monospace" font-size="15.00">colorgrad</text>
</a>
</g>
</g>
<!-- 0&#45;&gt;7 -->
<g id="edge6" class="edge">
<title>0&#45;&gt;7</title>
<g id="a_edge6"><a xlink:title="pugio &#45;&gt; colorgrad">
<path fill="none" stroke="#000000" stroke-width="1.2" stroke-opacity="0.623529" d="M608.75,-490.99C570.77,-470.88 514.88,-441.08 466.5,-414.41 452.88,-406.9 437.84,-398.39 425.37,-391.27"/>
<polygon fill="none" stroke="#000000" stroke-width="1.2" stroke-opacity="0.623529" points="427.1,-389.04 418.77,-387.5 424.32,-393.9 427.1,-389.04"/>
</a>
</g>
</g>
<!-- 11 -->
<g id="node11" class="node">
<title>11</title>
<g id="a_node11"><a xlink:title="humansize v2.1.3&#10;1.23 KiB">
<ellipse fill="#b8d6ea" stroke="#000000" stroke-width="0.9" stroke-opacity="0.623529" cx="485.5" cy="-221.72" rx="4.18" ry="4.18"/>
<text xml:space="preserve" text-anchor="middle" x="485.5" y="-216.47" font-family="monospace" font-size="15.00">humansize</text>
</a>
</g>
</g>
<!-- 0&#45;&gt;11 -->
<g id="edge11" class="edge">
<title>0&#45;&gt;11</title>
<g id="a_edge11"><a xlink:title="pugio &#45;&gt; humansize">
<path fill="none" stroke="#000000" stroke-width="1.2" stroke-opacity="0.623529" d="M606.99,-494.28C574.7,-477.65 533.65,-450.9 511.5,-414.41 475.65,-355.35 480.63,-267.43 483.97,-235.17"/>
<polygon fill="none" stroke="#000000" stroke-width="1.2" stroke-opacity="0.623529" points="486.71,-235.78 484.86,-227.51 481.15,-235.13 486.71,-235.78"/>
</a>
</g>
</g>
<!-- 12 -->
<g id="node12" class="node">
<title>12</title>
<g id="a_node12"><a xlink:title="open v5.3.3&#10;332 B">
<ellipse fill="#b6d4e9" stroke="#000000" stroke-width="0.9" stroke-opacity="0.623529" cx="549.5" cy="-374.84" rx="1.22" ry="1.22"/>
<text xml:space="preserve" text-anchor="middle" x="549.5" y="-369.59" font-family="monospace" font-size="15.00">open</text>
</a>
</g>
</g>
<!-- 0&#45;&gt;12 -->
<g id="edge13" class="edge">
<title>0&#45;&gt;12</title>
<g id="a_edge13"><a xlink:title="pugio &#45;&gt; open">
<path fill="none" stroke="#000000" stroke-width="1.2" stroke-opacity="0.623529" d="M623.42,-474.44C599.59,-442.66 568.25,-400.85 555.39,-383.7"/>
<polygon fill="none" stroke="#000000" stroke-width="1.2" stroke-opacity="0.623529" points="557.75,-382.18 550.71,-377.46 553.27,-385.54 557.75,-382.18"/>
</a>
</g>
</g>
<!-- 18 -->
<g id="node16" class="node">
<title>18</title>
<g id="a_node16"><a xlink:title="parse_size v1.1.0&#10;1.17 KiB">
<ellipse fill="#cbdff1" stroke="#000000" stroke-width="0.9" stroke-opacity="0.623529" cx="653.5" cy="-374.84" rx="4.01" ry="4.01"/>
<text xml:space="preserve" text-anchor="middle" x="653.5" y="-369.59" font-family="monospace" font-size="15.00">parse_size</text>
</a>
</g>
</g>
<!-- 0&#45;&gt;18 -->
<g id="edge18" class="edge">
<title>0&#45;&gt;18</title>
<g id="a_edge18"><a xlink:title="pugio &#45;&gt; parse_size">
<path fill="none" stroke="#000000" stroke-width="1.2" stroke-opacity="0.623529" d="M653.5,-464.48C653.5,-437.14 653.5,-405.45 653.5,-388.34"/>
<polygon fill="none" stroke="#000000" stroke-width="1.2" stroke-opacity="0.623529" points="656.3,-388.4 653.5,-380.4 650.7,-388.4 656.3,-388.4"/>
</a>
</g>
</g>
<!-- 19 -->
<g id="node17" class="node">
<title>19</title>
<g id="a_node17"><a xlink:title="petgraph v0.8.3&#10;5.95 KiB">
<ellipse fill="#92c3df" stroke="#000000" stroke-width="0.9" stroke-opacity="0.623529" cx="775.5" cy="-374.84" rx="14.24" ry="14.24"/>
<text xml:space="preserve" text-anchor="middle" x="775.5" y="-369.59" font-family="monospace" font-size="15.00">petgraph</text>
</a>
</g>
</g>
<!-- 0&#45;&gt;19 -->
<g id="edge19" class="edge">
<title>0&#45;&gt;19</title>
<g id="a_edge19"><a xlink:title="pugio &#45;&gt; petgraph">
<path fill="none" stroke="#000000" stroke-width="1.2" stroke-opacity="0.623529" d="M686.51,-477.02C710.54,-449.7 741.97,-413.97 760.32,-393.1"/>
<polygon fill="none" stroke="#000000" stroke-width="1.2" stroke-opacity="0.623529" points="762.3,-395.09 765.48,-387.24 758.09,-391.39 762.3,-395.09"/>
</a>
</g>
</g>
<!-- 26 -->
<g id="node22" class="node">
<title>26</title>
<g id="a_node22"><a xlink:title="regex_lite v0.1.8&#10;46.25 KiB">
<ellipse fill="#5ba3d0" stroke="#000000" stroke-width="0.9" stroke-opacity="0.623529" cx="897.5" cy="-374.84" rx="39.57" ry="39.57"/>
<text xml:space="preserve" text-anchor="middle" x="897.5" y="-369.59" font-family="monospace" font-size="15.00">regex_lite</text>
</a>
</g>
</g>
<!-- 0&#45;&gt;26 -->
<g id="edge24" class="edge">
<title>0&#45;&gt;26</title>
<g id="a_edge24"><a xlink:title="pugio &#45;&gt; regex_lite">
<path fill="none" stroke="#000000" stroke-width="1.2" stroke-opacity="0.623529" d="M697.81,-490.18C734.14,-470.09 786.84,-440.72 832.5,-414.41 840.1,-410.03 848.16,-405.31 855.92,-400.72"/>
<polygon fill="none" stroke="#000000" stroke-width="1.2" stroke-opacity="0.623529" points="857.18,-403.23 862.63,-396.75 854.32,-398.41 857.18,-403.23"/>
</a>
</g>
</g>
<!-- 29 -->
<g id="node23" class="node">
<title>29</title>
<g id="a_node23"><a xlink:title="serde_json v1.0.145&#10;15.99 KiB">
<ellipse fill="#79b6d9" stroke="#000000" stroke-width="0.9" stroke-opacity="0.623529" cx="1123.5" cy="-221.72" rx="25.16" ry="25.16"/>
<text xml:space="preserve" text-anchor="middle" x="1123.5" y="-216.47" font-family="monospace" font-size="15.00">serde_json</text>
</a>
</g>
</g>
<!-- 0&#45;&gt;29 -->
<g id="edge25" class="edge">
<title>0&#45;&gt;29</title>
<g id="a_edge25"><a xlink:title="pugio &#45;&gt; serde_json">
<path fill="none" stroke="#000000" stroke-width="1.2" stroke-opacity="0.623529" d="M703.96,-508.87C769.64,-499.24 885.25,-474.56 963.5,-414.41 996.67,-388.9 988.49,-368.04 1014.5,-335.27 1040.9,-302.01 1075.63,-267.47 1098.72,-245.57"/>
<polygon fill="none" stroke="#000000" stroke-width="1.2" stroke-opacity="0.623529" points="1100.55,-247.69 1104.46,-240.16 1096.72,-243.61 1100.55,-247.69"/>
</a>
</g>
</g>
<!-- 33 -->
<g id="node26" class="node">
<title>33</title>
<g id="a_node26"><a xlink:title="strum v0.27.2&#10;63 B">
<ellipse fill="#e2eef8" stroke="#000000" stroke-width="0.9" stroke-opacity="0.623529" cx="1057.5" cy="-374.84" rx="0.36" ry="0.36"/>
<text xml:space="preserve" text-anchor="middle" x="1057.5" y="-369.59" font-family="monospace" font-size="15.00">strum</text>
</a>
</g>
</g>
<!-- 0&#45;&gt;33 -->
<g id="edge28" class="edge">
<title>0&#45;&gt;33</title>
<g id="a_edge28"><a xlink:title="pugio &#45;&gt; strum">
<path fill="none" stroke="#000000" stroke-width="1.2" stroke-opacity="0.623529" d="M703.78,-506.57C774.47,-493.98 905.95,-465.53 1007.5,-414.41 1024.57,-405.81 1041.59,-391.03 1050.7,-382.48"/>
<polygon fill="none" stroke="#000000" stroke-width="1.2" stroke-opacity="0.623529" points="1052.36,-384.77 1056.13,-377.18 1048.45,-380.77 1052.36,-384.77"/>
</a>
</g>
</g>
<!-- 34 -->
<g id="node27" class="node">
<title>34</title>
<g id="a_node27"><a xlink:title="tinytemplate v1.2.1&#10;35.75 KiB">
<ellipse fill="#5aa2cf" stroke="#000000" stroke-width="0.9" stroke-opacity="0.623529" cx="1175.5" cy="-374.84" rx="35.9" ry="35.9"/>
<text xml:space="preserve" text-anchor="middle" x="1175.5" y="-369.59" font-family="monospace" font-size="15.00">tinytemplate</text>
</a>
</g>
</g>
<!-- 0&#45;&gt;34 -->
<g id="edge29" class="edge">
<title>0&#45;&gt;34</title>
<g id="a_edge29"><a xlink:title="pugio &#45;&gt; tinytemplate">
<path fill="none" stroke="#000000" stroke-width="1.2" stroke-opacity="0.623529" d="M703.95,-507.55C788.01,-494.92 961.24,-464.88 1100.5,-414.41 1112.68,-409.99 1125.39,-404.03 1136.82,-398.1"/>
<polygon fill="none" stroke="#000000" stroke-width="1.2" stroke-opacity="0.623529" points="1137.92,-400.69 1143.67,-394.46 1135.3,-395.74 1137.92,-400.69"/>
</a>
</g>
</g>
<!-- 4 -->
<g id="node4" class="node">
<title>4</title>
<g id="a_node4"><a xlink:title="clap_builder v4.5.53&#10;228.99 KiB">
<ellipse fill="#145fa6" stroke="#000000" stroke-width="0.9" stroke-opacity="0.623529" cx="129.5" cy="-221.72" rx="63.55" ry="63.55"/>
<text xml:space="preserve" text-anchor="middle" x="129.5" y="-216.47" font-family="monospace" font-size="15.00">clap_builder</text>
</a>
</g>
</g>
<!-- 3&#45;&gt;4 -->
<g id="edge3" class="edge">
<title>3&#45;&gt;4</title>
<g id="a_edge3"><a xlink:title="clap &#45;&gt; clap_builder">
<path fill="none" stroke="#000000" stroke-width="1.2" stroke-opacity="0.623529" d="M298.44,-373.78C297.23,-372.46 277.54,-351.18 260.5,-335.27 236.37,-312.74 208.76,-288.76 185.14,-268.76"/>
<polygon fill="none" stroke="#000000" stroke-width="1.2" stroke-opacity="0.623529" points="187.25,-266.88 179.33,-263.86 183.63,-271.16 187.25,-266.88"/>
</a>
</g>
</g>
<!-- 5 -->
<g id="node5" class="node">
<title>5</title>
<g id="a_node5"><a xlink:title="anstyle v1.0.13&#10;2.06 KiB">
<ellipse fill="#c3dbee" stroke="#000000" stroke-width="0.9" stroke-opacity="0.623529" cx="39.5" cy="-94.96" rx="6.5" ry="6.5"/>
<text xml:space="preserve" text-anchor="middle" x="39.5" y="-89.71" font-family="monospace" font-size="15.00">anstyle</text>
</a>
</g>
</g>
<!-- 4&#45;&gt;5 -->
<g id="edge4" class="edge">
<title>4&#45;&gt;5</title>
<g id="a_edge4"><a xlink:title="clap_builder &#45;&gt; anstyle">
<path fill="none" stroke="#000000" stroke-width="1.2" stroke-opacity="0.623529" d="M92.89,-169.98C76.61,-147.4 58.8,-122.71 48.42,-108.32"/>
<polygon fill="none" stroke="#000000" stroke-width="1.2" stroke-opacity="0.623529" points="50.77,-106.8 43.82,-101.95 46.23,-110.08 50.77,-106.8"/>
</a>
</g>
</g>
<!-- 6 -->
<g id="node6" class="node">
<title>6</title>
<g id="a_node6"><a xlink:title="clap_lex v0.7.6&#10;1.08 KiB">
<ellipse fill="#ccdff1" stroke="#000000" stroke-width="0.9" stroke-opacity="0.623529" cx="148.5" cy="-94.96" rx="3.72" ry="3.72"/>
<text xml:space="preserve" text-anchor="middle" x="148.5" y="-89.71" font-family="monospace" font-size="15.00">clap_lex</text>
</a>
</g>
</g>
<!-- 4&#45;&gt;6 -->
<g id="edge5" class="edge">
<title>4&#45;&gt;6</title>
<g id="a_edge5"><a xlink:title="clap_builder &#45;&gt; clap_lex">
<path fill="none" stroke="#000000" stroke-width="1.2" stroke-opacity="0.623529" d="M138.89,-159.07C141.83,-139.76 144.79,-120.34 146.63,-108.25"/>
<polygon fill="none" stroke="#000000" stroke-width="1.2" stroke-opacity="0.623529" points="149.39,-108.74 147.82,-100.4 143.85,-107.89 149.39,-108.74"/>
</a>
</g>
</g>
<!-- 8 -->
<g id="node8" class="node">
<title>8</title>
<g id="a_node8"><a xlink:title="csscolorparser v0.8.0&#10;21.41 KiB">
<ellipse fill="#7ab6d9" stroke="#000000" stroke-width="0.9" stroke-opacity="0.623529" cx="289.5" cy="-221.72" rx="28.91" ry="28.91"/>
<text xml:space="preserve" text-anchor="middle" x="289.5" y="-216.47" font-family="monospace" font-size="15.00">csscolorparser</text>
</a>
</g>
</g>
<!-- 7&#45;&gt;8 -->
<g id="edge7" class="edge">
<title>7&#45;&gt;8</title>
<g id="a_edge7"><a xlink:title="colorgrad &#45;&gt; csscolorparser">
<path fill="none" stroke="#000000" stroke-width="1.2" stroke-opacity="0.623529" d="M386,-356.5C367.88,-331.38 334.04,-284.47 311.64,-253.42"/>
<polygon fill="none" stroke="#000000" stroke-width="1.2" stroke-opacity="0.623529" points="313.94,-251.82 306.99,-246.97 309.4,-255.1 313.94,-251.82"/>
</a>
</g>
</g>
<!-- 10 -->
<g id="node10" class="node">
<title>10</title>
<g id="a_node10"><a xlink:title="libm v0.2.15&#10;7.04 KiB">
<ellipse fill="#a7cee5" stroke="#000000" stroke-width="0.9" stroke-opacity="0.623529" cx="398.5" cy="-15.88" rx="15.88" ry="15.88"/>
<text xml:space="preserve" text-anchor="middle" x="398.5" y="-10.63" font-family="monospace" font-size="15.00">libm</text>
</a>
</g>
</g>
<!-- 7&#45;&gt;10 -->
<g id="edge10" class="edge">
<title>7&#45;&gt;10</title>
<g id="a_edge10"><a xlink:title="colorgrad &#45;&gt; libm">
<path fill="none" stroke="#000000" stroke-width="1.2" stroke-opacity="0.623529" d="M398.5,-352.84C398.5,-290.57 398.5,-107.12 398.5,-40.99"/>
<polygon fill="none" stroke="#000000" stroke-width="1.2" stroke-opacity="0.623529" points="401.3,-41.23 398.5,-33.23 395.7,-41.23 401.3,-41.23"/>
</a>
</g>
</g>
<!-- 9 -->
<g id="node9" class="node">
<title>9</title>
<g id="a_node9"><a xlink:title="num_traits v0.2.19&#10;0 B">
<ellipse fill="#c1d9ed" stroke="#000000" stroke-width="0.9" stroke-opacity="0.623529" cx="298.5" cy="-94.96" rx="0.36" ry="0.36"/>
<text xml:space="preserve" text-anchor="middle" x="298.5" y="-89.71" font-family="monospace" font-size="15.00">num_traits</text>
</a>
</g>
</g>
<!-- 8&#45;&gt;9 -->
<g id="edge8" class="edge">
<title>8&#45;&gt;9</title>
<g id="a_edge8"><a xlink:title="csscolorparser &#45;&gt; num_traits">
<path fill="none" stroke="#000000" stroke-width="1.2" stroke-opacity="0.623529" d="M291.5,-193.03C293.5,-165.33 296.46,-124.25 297.8,-105.69"/>
<polygon fill="none" stroke="#000000" stroke-width="1.2" stroke-opacity="0.623529" points="300.58,-106 298.37,-97.82 295,-105.6 300.58,-106"/>
</a>
</g>
</g>
<!-- 9&#45;&gt;10 -->
<g id="edge9" class="edge">
<title>9&#45;&gt;10</title>
<g id="a_edge9"><a xlink:title="num_traits &#45;&gt; libm">
<path fill="none" stroke="#000000" stroke-width="1.2" stroke-opacity="0.623529" d="M298.57,-93.91C300.73,-92.25 350.34,-54 378.83,-32.04"/>
<polygon fill="none" stroke="#000000" stroke-width="1.2" stroke-opacity="0.623529" points="380.52,-34.27 385.15,-27.17 377.1,-29.84 380.52,-34.27"/>
</a>
</g>
</g>
<!-- 11&#45;&gt;10 -->
<g id="edge12" class="edge">
<title>11&#45;&gt;10</title>
<g id="a_edge12"><a xlink:title="humansize &#45;&gt; libm">
<path fill="none" stroke="#000000" stroke-width="1.2" stroke-opacity="0.623529" d="M484.27,-217.84C476.04,-198.56 428.68,-87.59 408.07,-39.31"/>
<polygon fill="none" stroke="#000000" stroke-width="1.2" stroke-opacity="0.623529" points="410.76,-38.46 405.04,-32.2 405.61,-40.66 410.76,-38.46"/>
</a>
</g>
</g>
<!-- 13 -->
<g id="node13" class="node">
<title>13</title>
<g id="a_node13"><a xlink:title="is_wsl v0.4.0&#10;0 B">
<ellipse fill="#b8d5ea" stroke="#000000" stroke-width="0.9" stroke-opacity="0.623529" cx="594.5" cy="-221.72" rx="0.36" ry="0.36"/>
<text xml:space="preserve" text-anchor="middle" x="594.5" y="-216.47" font-family="monospace" font-size="15.00">is_wsl</text>
</a>
</g>
</g>
<!-- 12&#45;&gt;13 -->
<g id="edge14" class="edge">
<title>12&#45;&gt;13</title>
<g id="a_edge14"><a xlink:title="open &#45;&gt; is_wsl">
<path fill="none" stroke="#000000" stroke-width="1.2" stroke-opacity="0.623529" d="M549.53,-373.73C550.69,-369.86 582.07,-264.47 591.71,-232.09"/>
<polygon fill="none" stroke="#000000" stroke-width="1.2" stroke-opacity="0.623529" points="594.35,-233.03 593.95,-224.57 588.98,-231.44 594.35,-233.03"/>
</a>
</g>
</g>
<!-- 14 -->
<g id="node14" class="node">
<title>14</title>
<g id="a_node14"><a xlink:title="is_docker v0.2.0&#10;0 B">
<ellipse fill="#c5dbee" stroke="#000000" stroke-width="0.9" stroke-opacity="0.623529" cx="574.5" cy="-94.96" rx="0.36" ry="0.36"/>
<text xml:space="preserve" text-anchor="middle" x="574.5" y="-89.71" font-family="monospace" font-size="15.00">is_docker</text>
</a>
</g>
</g>
<!-- 13&#45;&gt;14 -->
<g id="edge15" class="edge">
<title>13&#45;&gt;14</title>
<g id="a_edge15"><a xlink:title="is_wsl &#45;&gt; is_docker">
<path fill="none" stroke="#000000" stroke-width="1.2" stroke-opacity="0.623529" d="M594.49,-220.63C593.98,-217.51 580.65,-134.34 576.05,-105.61"/>
<polygon fill="none" stroke="#000000" stroke-width="1.2" stroke-opacity="0.623529" points="578.83,-105.3 574.8,-97.84 573.3,-106.19 578.83,-105.3"/>
</a>
</g>
</g>
<!-- 15 -->
<g id="node15" class="node">
<title>15</title>
<g id="a_node15"><a xlink:title="once_cell v1.21.3&#10;3.68 KiB">
<ellipse fill="#b8d5ea" stroke="#000000" stroke-width="0.9" stroke-opacity="0.623529" cx="617.5" cy="-15.88" rx="10.21" ry="10.21"/>
<text xml:space="preserve" text-anchor="middle" x="617.5" y="-10.63" font-family="monospace" font-size="15.00">once_cell</text>
</a>
</g>
</g>
<!-- 13&#45;&gt;15 -->
<g id="edge17" class="edge">
<title>13&#45;&gt;15</title>
<g id="a_edge17"><a xlink:title="is_wsl &#45;&gt; once_cell">
<path fill="none" stroke="#000000" stroke-width="1.2" stroke-opacity="0.623529" d="M594.54,-220.67C596.04,-218.38 644.05,-144.57 635.5,-81.76 633.29,-65.49 628.08,-47.54 623.84,-34.66"/>
<polygon fill="none" stroke="#000000" stroke-width="1.2" stroke-opacity="0.623529" points="626.54,-33.91 621.3,-27.25 621.24,-35.73 626.54,-33.91"/>
</a>
</g>
</g>
<!-- 14&#45;&gt;15 -->
<g id="edge16" class="edge">
<title>14&#45;&gt;15</title>
<g id="a_edge16"><a xlink:title="is_docker &#45;&gt; once_cell">
<path fill="none" stroke="#000000" stroke-width="1.2" stroke-opacity="0.623529" d="M574.53,-93.91C575.44,-92.28 595.97,-55.47 608.32,-33.34"/>
<polygon fill="none" stroke="#000000" stroke-width="1.2" stroke-opacity="0.623529" points="610.69,-34.83 612.15,-26.48 605.8,-32.1 610.69,-34.83"/>
</a>
</g>
</g>
<!-- 20 -->
<g id="node18" class="node">
<title>20</title>
<g id="a_node18"><a xlink:title="fixedbitset v0.5.7&#10;147 B">
<ellipse fill="#ddeaf7" stroke="#000000" stroke-width="0.9" stroke-opacity="0.623529" cx="712.5" cy="-221.72" rx="0.55" ry="0.55"/>
<text xml:space="preserve" text-anchor="middle" x="712.5" y="-216.47" font-family="monospace" font-size="15.00">fixedbitset</text>
</a>
</g>
</g>
<!-- 19&#45;&gt;20 -->
<g id="edge20" class="edge">
<title>19&#45;&gt;20</title>
<g id="a_edge20"><a xlink:title="petgraph &#45;&gt; fixedbitset">
<path fill="none" stroke="#000000" stroke-width="1.2" stroke-opacity="0.623529" d="M770.45,-361.73C758.21,-332.36 727.15,-257.85 716.3,-231.85"/>
<polygon fill="none" stroke="#000000" stroke-width="1.2" stroke-opacity="0.623529" points="718.89,-230.78 713.23,-224.47 713.72,-232.93 718.89,-230.78"/>
</a>
</g>
</g>
<!-- 21 -->
<g id="node19" class="node">
<title>21</title>
<g id="a_node19"><a xlink:title="hashbrown v0.15.5&#10;3.57 KiB">
<ellipse fill="#b8d6ea" stroke="#000000" stroke-width="0.9" stroke-opacity="0.623529" cx="843.5" cy="-221.72" rx="9.97" ry="9.97"/>
<text xml:space="preserve" text-anchor="middle" x="843.5" y="-216.47" font-family="monospace" font-size="15.00">hashbrown</text>
</a>
</g>
</g>
<!-- 19&#45;&gt;21 -->
<g id="edge21" class="edge">
<title>19&#45;&gt;21</title>
<g id="a_edge21"><a xlink:title="petgraph &#45;&gt; hashbrown">
<path fill="none" stroke="#000000" stroke-width="1.2" stroke-opacity="0.623529" d="M780.95,-361.73C793.06,-334.81 822.25,-269.96 836.04,-239.3"/>
<polygon fill="none" stroke="#000000" stroke-width="1.2" stroke-opacity="0.623529" points="838.46,-240.74 839.19,-232.3 833.35,-238.45 838.46,-240.74"/>
</a>
</g>
</g>
<!-- 23 -->
<g id="node20" class="node">
<title>23</title>
<g id="a_node20"><a xlink:title="indexmap v2.12.1&#10;0 B">
<ellipse fill="#b8d6ea" stroke="#000000" stroke-width="0.9" stroke-opacity="0.623529" cx="961.5" cy="-221.72" rx="0.36" ry="0.36"/>
<text xml:space="preserve" text-anchor="middle" x="961.5" y="-216.47" font-family="monospace" font-size="15.00">indexmap</text>
</a>
</g>
</g>
<!-- 19&#45;&gt;23 -->
<g id="edge22" class="edge">
<title>19&#45;&gt;23</title>
<g id="a_edge22"><a xlink:title="petgraph &#45;&gt; indexmap">
<path fill="none" stroke="#000000" stroke-width="1.2" stroke-opacity="0.623529" d="M786.41,-366.45C816.55,-346.02 899.15,-289.93 904.5,-285.27 925.1,-267.32 945.86,-242.43 955.67,-230.17"/>
<polygon fill="none" stroke="#000000" stroke-width="1.2" stroke-opacity="0.623529" points="957.57,-232.28 960.3,-224.26 953.16,-228.83 957.57,-232.28"/>
</a>
</g>
</g>
<!-- 25 -->
<g id="node21" class="node">
<title>25</title>
<g id="a_node21"><a xlink:title="hashbrown v0.16.1&#10;3.57 KiB">
<ellipse fill="#b8d6ea" stroke="#000000" stroke-width="0.9" stroke-opacity="0.623529" cx="961.5" cy="-94.96" rx="9.97" ry="9.97"/>
<text xml:space="preserve" text-anchor="middle" x="961.5" y="-89.71" font-family="monospace" font-size="15.00">hashbrown</text>
</a>
</g>
</g>
<!-- 23&#45;&gt;25 -->
<g id="edge23" class="edge">
<title>23&#45;&gt;25</title>
<g id="a_edge23"><a xlink:title="indexmap &#45;&gt; hashbrown">
<path fill="none" stroke="#000000" stroke-width="1.2" stroke-opacity="0.623529" d="M961.5,-220.63C961.5,-217.78 961.5,-148.3 961.5,-114.33"/>
<polygon fill="none" stroke="#000000" stroke-width="1.2" stroke-opacity="0.623529" points="964.3,-114.49 961.5,-106.49 958.7,-114.49 964.3,-114.49"/>
</a>
</g>
</g>
<!-- 31 -->
<g id="node24" class="node">
<title>31</title>
<g id="a_node24"><a xlink:title="memchr v2.7.6&#10;5.31 KiB">
<ellipse fill="#afd1e7" stroke="#000000" stroke-width="0.9" stroke-opacity="0.623529" cx="1081.5" cy="-94.96" rx="13.21" ry="13.21"/>
<text xml:space="preserve" text-anchor="middle" x="1081.5" y="-89.71" font-family="monospace" font-size="15.00">memchr</text>
</a>
</g>
</g>
<!-- 29&#45;&gt;31 -->
<g id="edge26" class="edge">
<title>29&#45;&gt;31</title>
<g id="a_edge26"><a xlink:title="serde_json &#45;&gt; memchr">
<path fill="none" stroke="#000000" stroke-width="1.2" stroke-opacity="0.623529" d="M1115.8,-197.84C1107.99,-174.66 1096.03,-139.12 1088.49,-116.73"/>
<polygon fill="none" stroke="#000000" stroke-width="1.2" stroke-opacity="0.623529" points="1091.15,-115.87 1085.95,-109.18 1085.85,-117.65 1091.15,-115.87"/>
</a>
</g>
</g>
<!-- 32 -->
<g id="node25" class="node">
<title>32</title>
<g id="a_node25"><a xlink:title="ryu v1.0.20&#10;2.69 KiB">
<ellipse fill="#bed8ec" stroke="#000000" stroke-width="0.9" stroke-opacity="0.623529" cx="1163.5" cy="-94.96" rx="8.03" ry="8.03"/>
<text xml:space="preserve" text-anchor="middle" x="1163.5" y="-89.71" font-family="monospace" font-size="15.00">ryu</text>
</a>
</g>
</g>
<!-- 29&#45;&gt;32 -->
<g id="edge27" class="edge">
<title>29&#45;&gt;32</title>
<g id="a_edge27"><a xlink:title="serde_json &#45;&gt; ryu">
<path fill="none" stroke="#000000" stroke-width="1.2" stroke-opacity="0.623529" d="M1130.84,-197.84C1138.86,-172.81 1151.51,-133.37 1158.47,-111.64"/>
<polygon fill="none" stroke="#000000" stroke-width="1.2" stroke-opacity="0.623529" points="1161.06,-112.73 1160.84,-104.26 1155.73,-111.02 1161.06,-112.73"/>
</a>
</g>
</g>
<!-- 34&#45;&gt;29 -->
<g id="edge30" class="edge">
<title>34&#45;&gt;29</title>
<g id="a_edge30"><a xlink:title="tinytemplate &#45;&gt; serde_json">
<path fill="none" stroke="#000000" stroke-width="1.2" stroke-opacity="0.623529" d="M1164.22,-341.05C1155.37,-315.34 1143.13,-279.78 1134.39,-254.37"/>
<polygon fill="none" stroke="#000000" stroke-width="1.2" stroke-opacity="0.623529" points="1137.07,-253.54 1131.82,-246.89 1131.77,-255.36 1137.07,-253.54"/>
</a>
</g>
</g>
</g>
</svg>
