<?xml version="1.0" encoding="UTF-8" standalone="no"?>
<!DOCTYPE svg PUBLIC "-//W3C//DTD SVG 1.1//EN"
 "http://www.w3.org/Graphics/SVG/1.1/DTD/svg11.dtd">
<!-- Generated by graphviz version 13.1.2 (20250808.2320)
 -->
<!-- Pages: 1 -->
<svg width="1324pt" height="678pt"
 viewBox="0.00 0.00 1324.00 678.00" xmlns="http://www.w3.org/2000/svg" xmlns:xlink="http://www.w3.org/1999/xlink">
<g id="graph0" class="graph" transform="scale(1 1) rotate(0) translate(72 605.61)">
<polygon fill="white" stroke="none" points="-72,72 -72,-605.61 1251.5,-605.61 1251.5,72 -72,72"/>
<!-- 0 -->
<g id="node1" class="node">
<title>0</title>
<g id="a_node1"><a xlink:title="pugio v0.1.1 (/home/my4ng/Programming/pugio)&#10;55.14 KiB">
<ellipse fill="#08306b" stroke="#000000" stroke-width="0.9" stroke-opacity="0.623529" cx="560.5" cy="-491.5" rx="42.11" ry="42.11"/>
<text xml:space="preserve" text-anchor="middle" x="560.5" y="-486.25" font-family="monospace" font-size="15.00">pugio</text>
</a>
</g>
</g>
<!-- 1 -->
<g id="node2" class="node">
<title>1</title>
<g id="a_node2"><a xlink:title="anyhow v1.0.100&#10;9.58 KiB">
<ellipse fill="#9cc8e1" stroke="#000000" stroke-width="0.9" stroke-opacity="0.623529" cx="214.5" cy="-373.63" rx="19.11" ry="19.11"/>
<text xml:space="preserve" text-anchor="middle" x="214.5" y="-368.38" font-family="monospace" font-size="15.00">anyhow</text>
</a>
</g>
</g>
<!-- 0&#45;&gt;1 -->
<g id="edge1" class="edge">
<title>0&#45;&gt;1</title>
<g id="a_edge1"><a xlink:title="pugio &#45;&gt; anyhow">
<path fill="none" stroke="#000000" stroke-width="1.2" stroke-opacity="0.623529" d="M520.18,-480.64C462.15,-465.89 352.2,-435.89 262.5,-399.39 254.63,-396.18 246.33,-392.15 238.87,-388.27"/>
<polygon fill="none" stroke="#000000" stroke-width="1.2" stroke-opacity="0.623529" points="240.57,-386.01 232.2,-384.71 237.94,-390.95 240.57,-386.01"/>
</a>
</g>
</g>
<!-- 2 -->
<g id="node3" class="node">
<title>2</title>
<g id="a_node3"><a xlink:title="clap v4.5.53&#10;0 B">
<ellipse fill="#0a4a90" stroke="#000000" stroke-width="0.9" stroke-opacity="0.623529" cx="300.5" cy="-373.63" rx="0.36" ry="0.36"/>
<text xml:space="preserve" text-anchor="middle" x="300.5" y="-368.38" font-family="monospace" font-size="15.00">clap</text>
</a>
</g>
</g>
<!-- 0&#45;&gt;2 -->
<g id="edge2" class="edge">
<title>0&#45;&gt;2</title>
<g id="a_edge2"><a xlink:title="pugio &#45;&gt; clap">
<path fill="none" stroke="#000000" stroke-width="1.2" stroke-opacity="0.623529" d="M521.25,-476.69C476.33,-460.34 401.03,-431.29 339.5,-399.39 328.33,-393.59 316.2,-385.6 308.48,-380.28"/>
<polygon fill="none" stroke="#000000" stroke-width="1.2" stroke-opacity="0.623529" points="310.19,-378.06 302.04,-375.72 306.95,-382.63 310.19,-378.06"/>
</a>
</g>
</g>
<!-- 6 -->
<g id="node7" class="node">
<title>6</title>
<g id="a_node7"><a xlink:title="colorgrad v0.8.0&#10;15.28 KiB">
<ellipse fill="#5aa2cf" stroke="#000000" stroke-width="0.9" stroke-opacity="0.623529" cx="400.5" cy="-373.63" rx="24.59" ry="24.59"/>
<text xml:space="preserve" text-anchor="middle" x="400.5" y="-368.38" font-family="monospace" font-size="15.00">colorgrad</text>
</a>
</g>
</g>
<!-- 0&#45;&gt;6 -->
<g id="edge6" class="edge">
<title>0&#45;&gt;6</title>
<g id="a_edge6"><a xlink:title="pugio &#45;&gt; colorgrad">
<path fill="none" stroke="#000000" stroke-width="1.2" stroke-opacity="0.623529" d="M526.96,-466.21C497.27,-444.71 454.51,-413.74 427.12,-393.9"/>
<polygon fill="none" stroke="#000000" stroke-width="1.2" stroke-opacity="0.623529" points="429.07,-391.86 420.95,-389.44 425.79,-396.4 429.07,-391.86"/>
</a>
</g>
</g>
<!-- 10 -->
<g id="node11" class="node">
<title>10</title>
<g id="a_node11"><a xlink:title="humansize v2.1.3&#10;1.23 KiB">
<ellipse fill="#b5d4e9" stroke="#000000" stroke-width="0.9" stroke-opacity="0.623529" cx="487.5" cy="-98.32" rx="4.18" ry="4.18"/>
<text xml:space="preserve" text-anchor="middle" x="487.5" y="-93.07" font-family="monospace" font-size="15.00">humansize</text>
</a>
</g>
</g>
<!-- 0&#45;&gt;10 -->
<g id="edge11" class="edge">
<title>0&#45;&gt;10</title>
<g id="a_edge11"><a xlink:title="pugio &#45;&gt; humansize">
<path fill="none" stroke="#000000" stroke-width="1.2" stroke-opacity="0.623529" d="M542.37,-453.64C535.09,-437.37 527.31,-417.79 522.5,-399.39 494.08,-290.63 488.71,-153.65 487.72,-111.94"/>
<polygon fill="none" stroke="#000000" stroke-width="1.2" stroke-opacity="0.623529" points="490.52,-112.1 487.57,-104.16 484.93,-112.21 490.52,-112.1"/>
</a>
</g>
</g>
<!-- 11 -->
<g id="node12" class="node">
<title>11</title>
<g id="a_node12"><a xlink:title="open v5.3.3&#10;2.47 KiB">
<ellipse fill="#9cc8e1" stroke="#000000" stroke-width="0.9" stroke-opacity="0.623529" cx="560.5" cy="-373.63" rx="7.52" ry="7.52"/>
<text xml:space="preserve" text-anchor="middle" x="560.5" y="-368.38" font-family="monospace" font-size="15.00">open</text>
</a>
</g>
</g>
<!-- 0&#45;&gt;11 -->
<g id="edge13" class="edge">
<title>0&#45;&gt;11</title>
<g id="a_edge13"><a xlink:title="pugio &#45;&gt; open">
<path fill="none" stroke="#000000" stroke-width="1.2" stroke-opacity="0.623529" d="M560.5,-449.65C560.5,-429.29 560.5,-405.85 560.5,-390.66"/>
<polygon fill="none" stroke="#000000" stroke-width="1.2" stroke-opacity="0.623529" points="563.3,-390.66 560.5,-382.66 557.7,-390.66 563.3,-390.66"/>
</a>
</g>
</g>
<!-- 17 -->
<g id="node17" class="node">
<title>17</title>
<g id="a_node17"><a xlink:title="parse_size v1.1.0&#10;1.16 KiB">
<ellipse fill="#cadff0" stroke="#000000" stroke-width="0.9" stroke-opacity="0.623529" cx="664.5" cy="-373.63" rx="3.99" ry="3.99"/>
<text xml:space="preserve" text-anchor="middle" x="664.5" y="-368.38" font-family="monospace" font-size="15.00">parse_size</text>
</a>
</g>
</g>
<!-- 0&#45;&gt;17 -->
<g id="edge19" class="edge">
<title>0&#45;&gt;17</title>
<g id="a_edge19"><a xlink:title="pugio &#45;&gt; parse_size">
<path fill="none" stroke="#000000" stroke-width="1.2" stroke-opacity="0.623529" d="M588.1,-459.75C610.84,-434.41 641.65,-400.09 656.21,-383.86"/>
<polygon fill="none" stroke="#000000" stroke-width="1.2" stroke-opacity="0.623529" points="658.01,-386.05 661.27,-378.23 653.84,-382.31 658.01,-386.05"/>
</a>
</g>
</g>
<!-- 18 -->
<g id="node18" class="node">
<title>18</title>
<g id="a_node18"><a xlink:title="petgraph v0.8.3&#10;6.40 KiB">
<ellipse fill="#88bedc" stroke="#000000" stroke-width="0.9" stroke-opacity="0.623529" cx="791.5" cy="-373.63" rx="14.94" ry="14.94"/>
<text xml:space="preserve" text-anchor="middle" x="791.5" y="-368.38" font-family="monospace" font-size="15.00">petgraph</text>
</a>
</g>
</g>
<!-- 0&#45;&gt;18 -->
<g id="edge20" class="edge">
<title>0&#45;&gt;18</title>
<g id="a_edge20"><a xlink:title="pugio &#45;&gt; petgraph">
<path fill="none" stroke="#000000" stroke-width="1.2" stroke-opacity="0.623529" d="M597.61,-471.88C646.5,-447.36 730.84,-405.05 770.16,-385.33"/>
<polygon fill="none" stroke="#000000" stroke-width="1.2" stroke-opacity="0.623529" points="771.19,-387.94 777.09,-381.85 768.68,-382.94 771.19,-387.94"/>
</a>
</g>
</g>
<!-- 25 -->
<g id="node23" class="node">
<title>25</title>
<g id="a_node23"><a xlink:title="serde_json v1.0.145&#10;16.78 KiB">
<ellipse fill="#7bb6d9" stroke="#000000" stroke-width="0.9" stroke-opacity="0.623529" cx="913.5" cy="-373.63" rx="25.76" ry="25.76"/>
<text xml:space="preserve" text-anchor="middle" x="913.5" y="-368.38" font-family="monospace" font-size="15.00">serde_json</text>
</a>
</g>
</g>
<!-- 0&#45;&gt;25 -->
<g id="edge25" class="edge">
<title>0&#45;&gt;25</title>
<g id="a_edge25"><a xlink:title="pugio &#45;&gt; serde_json">
<path fill="none" stroke="#000000" stroke-width="1.2" stroke-opacity="0.623529" d="M600.34,-478.69C656.13,-461.97 760.59,-430 848.5,-399.39 859.15,-395.68 870.68,-391.38 881.04,-387.41"/>
<polygon fill="none" stroke="#000000" stroke-width="1.2" stroke-opacity="0.623529" points="882,-390.04 888.46,-384.55 879.99,-384.82 882,-390.04"/>
</a>
</g>
</g>
<!-- 30 -->
<g id="node25" class="node">
<title>30</title>
<g id="a_node25"><a xlink:title="strum v0.27.2&#10;59 B">
<ellipse fill="#e2eef8" stroke="#000000" stroke-width="0.9" stroke-opacity="0.623529" cx="1022.5" cy="-373.63" rx="0.36" ry="0.36"/>
<text xml:space="preserve" text-anchor="middle" x="1022.5" y="-368.38" font-family="monospace" font-size="15.00">strum</text>
</a>
</g>
</g>
<!-- 0&#45;&gt;30 -->
<g id="edge27" class="edge">
<title>0&#45;&gt;30</title>
<g id="a_edge27"><a xlink:title="pugio &#45;&gt; strum">
<path fill="none" stroke="#000000" stroke-width="1.2" stroke-opacity="0.623529" d="M602.16,-485.76C678.9,-476.1 846.85,-450.57 979.5,-399.39 992.42,-394.4 1006.08,-385.91 1014.45,-380.28"/>
<polygon fill="none" stroke="#000000" stroke-width="1.2" stroke-opacity="0.623529" points="1016.01,-382.61 1020.95,-375.72 1012.79,-378.02 1016.01,-382.61"/>
</a>
</g>
</g>
<!-- 3 -->
<g id="node4" class="node">
<title>3</title>
<g id="a_node4"><a xlink:title="clap_builder v4.5.53&#10;311.11 KiB">
<ellipse fill="#0a4a90" stroke="#000000" stroke-width="0.9" stroke-opacity="0.623529" cx="127.5" cy="-229.6" rx="68.27" ry="68.27"/>
<text xml:space="preserve" text-anchor="middle" x="127.5" y="-224.35" font-family="monospace" font-size="15.00">clap_builder</text>
</a>
</g>
</g>
<!-- 2&#45;&gt;3 -->
<g id="edge3" class="edge">
<title>2&#45;&gt;3</title>
<g id="a_edge3"><a xlink:title="clap &#45;&gt; clap_builder">
<path fill="none" stroke="#000000" stroke-width="1.2" stroke-opacity="0.623529" d="M300.35,-372.51C297.26,-370.07 247.18,-330.49 207.5,-297.87 200.56,-292.16 193.32,-286.15 186.14,-280.16"/>
<polygon fill="none" stroke="#000000" stroke-width="1.2" stroke-opacity="0.623529" points="188.33,-278.34 180.39,-275.35 184.74,-282.63 188.33,-278.34"/>
</a>
</g>
</g>
<!-- 4 -->
<g id="node5" class="node">
<title>4</title>
<g id="a_node5"><a xlink:title="anstyle v1.0.13&#10;2.10 KiB">
<ellipse fill="#c1daed" stroke="#000000" stroke-width="0.9" stroke-opacity="0.623529" cx="39.5" cy="-98.32" rx="6.61" ry="6.61"/>
<text xml:space="preserve" text-anchor="middle" x="39.5" y="-93.07" font-family="monospace" font-size="15.00">anstyle</text>
</a>
</g>
</g>
<!-- 3&#45;&gt;4 -->
<g id="edge4" class="edge">
<title>3&#45;&gt;4</title>
<g id="a_edge4"><a xlink:title="clap_builder &#45;&gt; anstyle">
<path fill="none" stroke="#000000" stroke-width="1.2" stroke-opacity="0.623529" d="M89.67,-173.02C74.08,-150.12 57.43,-125.67 47.77,-111.48"/>
<polygon fill="none" stroke="#000000" stroke-width="1.2" stroke-opacity="0.623529" points="50.35,-110.29 43.54,-105.26 45.73,-113.45 50.35,-110.29"/>
</a>
</g>
</g>
<!-- 5 -->
<g id="node6" class="node">
<title>5</title>
<g id="a_node6"><a xlink:title="clap_lex v0.7.6&#10;3.94 KiB">
<ellipse fill="#b5d4e9" stroke="#000000" stroke-width="0.9" stroke-opacity="0.623529" cx="148.5" cy="-98.32" rx="10.72" ry="10.72"/>
<text xml:space="preserve" text-anchor="middle" x="148.5" y="-93.07" font-family="monospace" font-size="15.00">clap_lex</text>
</a>
</g>
</g>
<!-- 3&#45;&gt;5 -->
<g id="edge5" class="edge">
<title>3&#45;&gt;5</title>
<g id="a_edge5"><a xlink:title="clap_builder &#45;&gt; clap_lex">
<path fill="none" stroke="#000000" stroke-width="1.2" stroke-opacity="0.623529" d="M138.25,-162.45C140.87,-146.27 143.48,-130.23 145.41,-118.37"/>
<polygon fill="none" stroke="#000000" stroke-width="1.2" stroke-opacity="0.623529" points="148.16,-118.9 146.68,-110.55 142.63,-118 148.16,-118.9"/>
</a>
</g>
</g>
<!-- 7 -->
<g id="node8" class="node">
<title>7</title>
<g id="a_node8"><a xlink:title="csscolorparser v0.8.0&#10;24.18 KiB">
<ellipse fill="#72b1d7" stroke="#000000" stroke-width="0.9" stroke-opacity="0.623529" cx="291.5" cy="-229.6" rx="30.53" ry="30.53"/>
<text xml:space="preserve" text-anchor="middle" x="291.5" y="-224.35" font-family="monospace" font-size="15.00">csscolorparser</text>
</a>
</g>
</g>
<!-- 6&#45;&gt;7 -->
<g id="edge7" class="edge">
<title>6&#45;&gt;7</title>
<g id="a_edge7"><a xlink:title="colorgrad &#45;&gt; csscolorparser">
<path fill="none" stroke="#000000" stroke-width="1.2" stroke-opacity="0.623529" d="M386.03,-353.77C367.92,-330.18 336.69,-289.48 315.1,-261.35"/>
<polygon fill="none" stroke="#000000" stroke-width="1.2" stroke-opacity="0.623529" points="317.49,-259.86 310.4,-255.22 313.05,-263.27 317.49,-259.86"/>
</a>
</g>
</g>
<!-- 9 -->
<g id="node10" class="node">
<title>9</title>
<g id="a_node10"><a xlink:title="libm v0.2.15&#10;8.38 KiB">
<ellipse fill="#a0cae3" stroke="#000000" stroke-width="0.9" stroke-opacity="0.623529" cx="400.5" cy="-17.66" rx="17.66" ry="17.66"/>
<text xml:space="preserve" text-anchor="middle" x="400.5" y="-12.41" font-family="monospace" font-size="15.00">libm</text>
</a>
</g>
</g>
<!-- 6&#45;&gt;9 -->
<g id="edge10" class="edge">
<title>6&#45;&gt;9</title>
<g id="a_edge10"><a xlink:title="colorgrad &#45;&gt; libm">
<path fill="none" stroke="#000000" stroke-width="1.2" stroke-opacity="0.623529" d="M400.5,-349.13C400.5,-285.66 400.5,-111.13 400.5,-44.75"/>
<polygon fill="none" stroke="#000000" stroke-width="1.2" stroke-opacity="0.623529" points="403.3,-44.88 400.5,-36.88 397.7,-44.88 403.3,-44.88"/>
</a>
</g>
</g>
<!-- 8 -->
<g id="node9" class="node">
<title>8</title>
<g id="a_node9"><a xlink:title="num_traits v0.2.19&#10;0 B">
<ellipse fill="#bcd7ec" stroke="#000000" stroke-width="0.9" stroke-opacity="0.623529" cx="300.5" cy="-98.32" rx="0.36" ry="0.36"/>
<text xml:space="preserve" text-anchor="middle" x="300.5" y="-93.07" font-family="monospace" font-size="15.00">num_traits</text>
</a>
</g>
</g>
<!-- 7&#45;&gt;8 -->
<g id="edge8" class="edge">
<title>7&#45;&gt;8</title>
<g id="a_edge8"><a xlink:title="csscolorparser &#45;&gt; num_traits">
<path fill="none" stroke="#000000" stroke-width="1.2" stroke-opacity="0.623529" d="M293.54,-199.26C295.55,-170.37 298.51,-127.9 299.83,-109.01"/>
<polygon fill="none" stroke="#000000" stroke-width="1.2" stroke-opacity="0.623529" points="302.61,-109.36 300.37,-101.18 297.02,-108.97 302.61,-109.36"/>
</a>
</g>
</g>
<!-- 8&#45;&gt;9 -->
<g id="edge9" class="edge">
<title>8&#45;&gt;9</title>
<g id="a_edge9"><a xlink:title="num_traits &#45;&gt; libm">
<path fill="none" stroke="#000000" stroke-width="1.2" stroke-opacity="0.623529" d="M300.57,-97.27C302.7,-95.59 351.28,-57.38 379.9,-34.86"/>
<polygon fill="none" stroke="#000000" stroke-width="1.2" stroke-opacity="0.623529" points="381.41,-37.24 385.97,-30.09 377.95,-32.84 381.41,-37.24"/>
</a>
</g>
</g>
<!-- 10&#45;&gt;9 -->
<g id="edge12" class="edge">
<title>10&#45;&gt;9</title>
<g id="a_edge12"><a xlink:title="humansize &#45;&gt; libm">
<path fill="none" stroke="#000000" stroke-width="1.2" stroke-opacity="0.623529" d="M484.99,-95.06C475.62,-86.58 442.1,-56.27 420.2,-36.48"/>
<polygon fill="none" stroke="#000000" stroke-width="1.2" stroke-opacity="0.623529" points="422.16,-34.47 414.35,-31.18 418.4,-38.62 422.16,-34.47"/>
</a>
</g>
</g>
<!-- 12 -->
<g id="node13" class="node">
<title>12</title>
<g id="a_node13"><a xlink:title="is_wsl v0.4.0&#10;3.12 KiB">
<ellipse fill="#aed0e7" stroke="#000000" stroke-width="0.9" stroke-opacity="0.623529" cx="560.5" cy="-229.6" rx="9.02" ry="9.02"/>
<text xml:space="preserve" text-anchor="middle" x="560.5" y="-224.35" font-family="monospace" font-size="15.00">is_wsl</text>
</a>
</g>
</g>
<!-- 11&#45;&gt;12 -->
<g id="edge14" class="edge">
<title>11&#45;&gt;12</title>
<g id="a_edge14"><a xlink:title="open &#45;&gt; is_wsl">
<path fill="none" stroke="#000000" stroke-width="1.2" stroke-opacity="0.623529" d="M560.5,-366.15C560.5,-345.38 560.5,-279.87 560.5,-248.15"/>
<polygon fill="none" stroke="#000000" stroke-width="1.2" stroke-opacity="0.623529" points="563.3,-248.29 560.5,-240.29 557.7,-248.29 563.3,-248.29"/>
</a>
</g>
</g>
<!-- 16 -->
<g id="node16" class="node">
<title>16</title>
<g id="a_node16"><a xlink:title="pathdiff v0.2.3&#10;1.72 KiB">
<ellipse fill="#c5dcee" stroke="#000000" stroke-width="0.9" stroke-opacity="0.623529" cx="664.5" cy="-229.6" rx="5.59" ry="5.59"/>
<text xml:space="preserve" text-anchor="middle" x="664.5" y="-224.35" font-family="monospace" font-size="15.00">pathdiff</text>
</a>
</g>
</g>
<!-- 11&#45;&gt;16 -->
<g id="edge18" class="edge">
<title>11&#45;&gt;16</title>
<g id="a_edge18"><a xlink:title="open &#45;&gt; pathdiff">
<path fill="none" stroke="#000000" stroke-width="1.2" stroke-opacity="0.623529" d="M564.45,-367.23C579.72,-346.38 635.06,-270.8 656.21,-241.92"/>
<polygon fill="none" stroke="#000000" stroke-width="1.2" stroke-opacity="0.623529" points="658.24,-243.89 660.71,-235.78 653.72,-240.58 658.24,-243.89"/>
</a>
</g>
</g>
<!-- 13 -->
<g id="node14" class="node">
<title>13</title>
<g id="a_node14"><a xlink:title="is_docker v0.2.0&#10;39 B">
<ellipse fill="#cbdff1" stroke="#000000" stroke-width="0.9" stroke-opacity="0.623529" cx="609.5" cy="-98.32" rx="0.36" ry="0.36"/>
<text xml:space="preserve" text-anchor="middle" x="609.5" y="-93.07" font-family="monospace" font-size="15.00">is_docker</text>
</a>
</g>
</g>
<!-- 12&#45;&gt;13 -->
<g id="edge15" class="edge">
<title>12&#45;&gt;13</title>
<g id="a_edge15"><a xlink:title="is_wsl &#45;&gt; is_docker">
<path fill="none" stroke="#000000" stroke-width="1.2" stroke-opacity="0.623529" d="M563.27,-221.27C571.68,-199.09 596.88,-132.63 606.08,-108.34"/>
<polygon fill="none" stroke="#000000" stroke-width="1.2" stroke-opacity="0.623529" points="608.61,-109.56 608.83,-101.09 603.38,-107.58 608.61,-109.56"/>
</a>
</g>
</g>
<!-- 14 -->
<g id="node15" class="node">
<title>14</title>
<g id="a_node15"><a xlink:title="once_cell v1.21.3&#10;2.16 KiB">
<ellipse fill="#c1daed" stroke="#000000" stroke-width="0.9" stroke-opacity="0.623529" cx="652.5" cy="-17.66" rx="6.75" ry="6.75"/>
<text xml:space="preserve" text-anchor="middle" x="652.5" y="-12.41" font-family="monospace" font-size="15.00">once_cell</text>
</a>
</g>
</g>
<!-- 12&#45;&gt;14 -->
<g id="edge17" class="edge">
<title>12&#45;&gt;14</title>
<g id="a_edge17"><a xlink:title="is_wsl &#45;&gt; once_cell">
<path fill="none" stroke="#000000" stroke-width="1.2" stroke-opacity="0.623529" d="M564.46,-221.84C572.05,-209.19 589.6,-181.37 608.5,-161.32 632.78,-135.57 655.23,-143.26 670.5,-111.32 683.03,-85.13 669.59,-50.8 660.13,-32.15"/>
<polygon fill="none" stroke="#000000" stroke-width="1.2" stroke-opacity="0.623529" points="662.61,-30.85 656.34,-25.15 657.69,-33.52 662.61,-30.85"/>
</a>
</g>
</g>
<!-- 13&#45;&gt;14 -->
<g id="edge16" class="edge">
<title>13&#45;&gt;14</title>
<g id="a_edge16"><a xlink:title="is_docker &#45;&gt; once_cell">
<path fill="none" stroke="#000000" stroke-width="1.2" stroke-opacity="0.623529" d="M609.53,-97.27C610.48,-95.52 633.05,-54.25 645.09,-32.23"/>
<polygon fill="none" stroke="#000000" stroke-width="1.2" stroke-opacity="0.623529" points="647.51,-33.63 648.89,-25.27 642.6,-30.94 647.51,-33.63"/>
</a>
</g>
</g>
<!-- 19 -->
<g id="node19" class="node">
<title>19</title>
<g id="a_node19"><a xlink:title="fixedbitset v0.5.7&#10;196 B">
<ellipse fill="#dbe9f6" stroke="#000000" stroke-width="0.9" stroke-opacity="0.623529" cx="791.5" cy="-229.6" rx="0.73" ry="0.73"/>
<text xml:space="preserve" text-anchor="middle" x="791.5" y="-224.35" font-family="monospace" font-size="15.00">fixedbitset</text>
</a>
</g>
</g>
<!-- 18&#45;&gt;19 -->
<g id="edge21" class="edge">
<title>18&#45;&gt;19</title>
<g id="a_edge21"><a xlink:title="petgraph &#45;&gt; fixedbitset">
<path fill="none" stroke="#000000" stroke-width="1.2" stroke-opacity="0.623529" d="M791.5,-358.75C791.5,-330.03 791.5,-264.7 791.5,-240.16"/>
<polygon fill="none" stroke="#000000" stroke-width="1.2" stroke-opacity="0.623529" points="794.3,-240.48 791.5,-232.48 788.7,-240.48 794.3,-240.48"/>
</a>
</g>
</g>
<!-- 20 -->
<g id="node20" class="node">
<title>20</title>
<g id="a_node20"><a xlink:title="hashbrown v0.15.5&#10;4.77 KiB">
<ellipse fill="#b0d2e8" stroke="#000000" stroke-width="0.9" stroke-opacity="0.623529" cx="922.5" cy="-229.6" rx="12.28" ry="12.28"/>
<text xml:space="preserve" text-anchor="middle" x="922.5" y="-224.35" font-family="monospace" font-size="15.00">hashbrown</text>
</a>
</g>
</g>
<!-- 18&#45;&gt;20 -->
<g id="edge22" class="edge">
<title>18&#45;&gt;20</title>
<g id="a_edge22"><a xlink:title="petgraph &#45;&gt; hashbrown">
<path fill="none" stroke="#000000" stroke-width="1.2" stroke-opacity="0.623529" d="M801.06,-362.52C814.59,-348.19 840.05,-321.14 861.5,-297.87 877.75,-280.23 896.23,-259.79 908.55,-246.12"/>
<polygon fill="none" stroke="#000000" stroke-width="1.2" stroke-opacity="0.623529" points="910.55,-248.09 913.81,-240.27 906.38,-244.34 910.55,-248.09"/>
</a>
</g>
</g>
<!-- 22 -->
<g id="node21" class="node">
<title>22</title>
<g id="a_node21"><a xlink:title="indexmap v2.12.0&#10;0 B">
<ellipse fill="#b0d2e8" stroke="#000000" stroke-width="0.9" stroke-opacity="0.623529" cx="1040.5" cy="-229.6" rx="0.36" ry="0.36"/>
<text xml:space="preserve" text-anchor="middle" x="1040.5" y="-224.35" font-family="monospace" font-size="15.00">indexmap</text>
</a>
</g>
</g>
<!-- 18&#45;&gt;22 -->
<g id="edge23" class="edge">
<title>18&#45;&gt;22</title>
<g id="a_edge23"><a xlink:title="petgraph &#45;&gt; indexmap">
<path fill="none" stroke="#000000" stroke-width="1.2" stroke-opacity="0.623529" d="M804.54,-366.72C816.04,-361.56 833.28,-353.98 848.5,-347.87 907.87,-324 931.1,-334.59 983.5,-297.87 1007.06,-281.35 1026.75,-252.83 1035.55,-238.83"/>
<polygon fill="none" stroke="#000000" stroke-width="1.2" stroke-opacity="0.623529" points="1037.77,-240.58 1039.49,-232.28 1032.97,-237.69 1037.77,-240.58"/>
</a>
</g>
</g>
<!-- 24 -->
<g id="node22" class="node">
<title>24</title>
<g id="a_node22"><a xlink:title="hashbrown v0.16.0&#10;4.77 KiB">
<ellipse fill="#b0d2e8" stroke="#000000" stroke-width="0.9" stroke-opacity="0.623529" cx="1040.5" cy="-98.32" rx="12.28" ry="12.28"/>
<text xml:space="preserve" text-anchor="middle" x="1040.5" y="-93.07" font-family="monospace" font-size="15.00">hashbrown</text>
</a>
</g>
</g>
<!-- 22&#45;&gt;24 -->
<g id="edge24" class="edge">
<title>22&#45;&gt;24</title>
<g id="a_edge24"><a xlink:title="indexmap &#45;&gt; hashbrown">
<path fill="none" stroke="#000000" stroke-width="1.2" stroke-opacity="0.623529" d="M1040.5,-228.5C1040.5,-225.59 1040.5,-155.68 1040.5,-119.95"/>
<polygon fill="none" stroke="#000000" stroke-width="1.2" stroke-opacity="0.623529" points="1043.3,-120.28 1040.5,-112.28 1037.7,-120.28 1043.3,-120.28"/>
</a>
</g>
</g>
<!-- 27 -->
<g id="node24" class="node">
<title>27</title>
<g id="a_node24"><a xlink:title="memchr v2.7.6&#10;5.31 KiB">
<ellipse fill="#aed0e7" stroke="#000000" stroke-width="0.9" stroke-opacity="0.623529" cx="1144.5" cy="-229.6" rx="13.21" ry="13.21"/>
<text xml:space="preserve" text-anchor="middle" x="1144.5" y="-224.35" font-family="monospace" font-size="15.00">memchr</text>
</a>
</g>
</g>
<!-- 25&#45;&gt;27 -->
<g id="edge26" class="edge">
<title>25&#45;&gt;27</title>
<g id="a_edge26"><a xlink:title="serde_json &#45;&gt; memchr">
<path fill="none" stroke="#000000" stroke-width="1.2" stroke-opacity="0.623529" d="M936.89,-363.53C984.94,-344.79 1090.85,-303.17 1097.5,-297.87 1113.73,-284.92 1126.72,-264.91 1134.89,-250.07"/>
<polygon fill="none" stroke="#000000" stroke-width="1.2" stroke-opacity="0.623529" points="1137.25,-251.61 1138.5,-243.22 1132.29,-249 1137.25,-251.61"/>
</a>
</g>
</g>
</g>
</svg>
