<?xml version="1.0" encoding="UTF-8" standalone="no"?>
<!DOCTYPE svg PUBLIC "-//W3C//DTD SVG 1.1//EN"
 "http://www.w3.org/Graphics/SVG/1.1/DTD/svg11.dtd">
<!-- Generated by graphviz version 13.1.2 (20250808.2320)
 -->
<!-- Pages: 1 -->
<svg width="1499pt" height="673pt"
 viewBox="0.00 0.00 1499.00 673.00" xmlns="http://www.w3.org/2000/svg" xmlns:xlink="http://www.w3.org/1999/xlink">
<g id="graph0" class="graph" transform="scale(1 1) rotate(0) translate(72 600.64)">
<polygon fill="white" stroke="none" points="-72,72 -72,-600.64 1426.88,-600.64 1426.88,72 -72,72"/>
<!-- 0 -->
<g id="node1" class="node">
<title>0</title>
<g id="a_node1"><a xlink:title="pugio v0.1.3 (/home/my4ng/Programming/pugio)&#10;88.93 KiB">
<ellipse fill="#08306b" stroke="#000000" stroke-width="1.08" stroke-opacity="0.623529" cx="711.38" cy="-479.46" rx="49.18" ry="49.18"/>
<text xml:space="preserve" text-anchor="middle" x="711.38" y="-473.24" font-family="monospace" font-size="18.00">pugio</text>
</a>
</g>
</g>
<!-- 1 -->
<g id="node2" class="node">
<title>1</title>
<g id="a_node2"><a xlink:title="anyhow v1.0.100&#10;8.43 KiB">
<ellipse fill="#a2cbe3" stroke="#000000" stroke-width="1.08" stroke-opacity="0.623529" cx="243.38" cy="-350.72" rx="17.73" ry="17.73"/>
<text xml:space="preserve" text-anchor="middle" x="243.38" y="-344.49" font-family="monospace" font-size="18.00">anyhow</text>
</a>
</g>
</g>
<!-- 0&#45;&gt;1 -->
<g id="edge1" class="edge">
<title>0&#45;&gt;1</title>
<g id="a_edge1"><a xlink:title="pugio &#45;&gt; anyhow">
<path fill="none" stroke="#000000" stroke-width="1.44" stroke-opacity="0.623529" d="M662.51,-474.89C582.56,-467.58 420.22,-446.57 295.38,-390.28 284.39,-385.33 273.48,-377.76 264.52,-370.64"/>
<polygon fill="none" stroke="#000000" stroke-width="1.44" stroke-opacity="0.623529" points="266.84,-368.19 257.31,-364.62 262.53,-373.35 266.84,-368.19"/>
</a>
</g>
</g>
<!-- 3 -->
<g id="node3" class="node">
<title>3</title>
<g id="a_node3"><a xlink:title="clap v4.5.53&#10;0 B">
<ellipse fill="#115ba2" stroke="#000000" stroke-width="1.08" stroke-opacity="0.623529" cx="335.38" cy="-350.72" rx="0.36" ry="0.36"/>
<text xml:space="preserve" text-anchor="middle" x="335.38" y="-344.49" font-family="monospace" font-size="18.00">clap</text>
</a>
</g>
</g>
<!-- 0&#45;&gt;3 -->
<g id="edge2" class="edge">
<title>0&#45;&gt;3</title>
<g id="a_edge2"><a xlink:title="pugio &#45;&gt; clap">
<path fill="none" stroke="#000000" stroke-width="1.44" stroke-opacity="0.623529" d="M662.58,-473.5C594.49,-464.9 468.83,-442.79 375.38,-390.28 362.01,-382.78 349.83,-369.73 342.51,-360.92"/>
<polygon fill="none" stroke="#000000" stroke-width="1.44" stroke-opacity="0.623529" points="345.31,-359.04 336.76,-353.51 340,-363.16 345.31,-359.04"/>
</a>
</g>
</g>
<!-- 7 -->
<g id="node7" class="node">
<title>7</title>
<g id="a_node7"><a xlink:title="colorgrad v0.8.0&#10;12.57 KiB">
<ellipse fill="#64a9d3" stroke="#000000" stroke-width="1.08" stroke-opacity="0.623529" cx="444.38" cy="-350.72" rx="22.22" ry="22.22"/>
<text xml:space="preserve" text-anchor="middle" x="444.38" y="-344.49" font-family="monospace" font-size="18.00">colorgrad</text>
</a>
</g>
</g>
<!-- 0&#45;&gt;7 -->
<g id="edge6" class="edge">
<title>0&#45;&gt;7</title>
<g id="a_edge6"><a xlink:title="pugio &#45;&gt; colorgrad">
<path fill="none" stroke="#000000" stroke-width="1.44" stroke-opacity="0.623529" d="M666.99,-458.97C627.68,-441.52 568.85,-414.95 518.38,-390.28 503.48,-383.01 487.12,-374.53 473.58,-367.38"/>
<polygon fill="none" stroke="#000000" stroke-width="1.44" stroke-opacity="0.623529" points="475.38,-364.54 465.33,-363 472.23,-370.47 475.38,-364.54"/>
</a>
</g>
</g>
<!-- 11 -->
<g id="node11" class="node">
<title>11</title>
<g id="a_node11"><a xlink:title="humansize v2.1.3&#10;1.23 KiB">
<ellipse fill="#b9d6ea" stroke="#000000" stroke-width="1.08" stroke-opacity="0.623529" cx="534.38" cy="-206.33" rx="4.18" ry="4.18"/>
<text xml:space="preserve" text-anchor="middle" x="534.38" y="-200.1" font-family="monospace" font-size="18.00">humansize</text>
</a>
</g>
</g>
<!-- 0&#45;&gt;11 -->
<g id="edge11" class="edge">
<title>0&#45;&gt;11</title>
<g id="a_edge11"><a xlink:title="pugio &#45;&gt; humansize">
<path fill="none" stroke="#000000" stroke-width="1.44" stroke-opacity="0.623529" d="M664.71,-464.73C628.94,-451.64 581.57,-428.19 556.38,-390.28 520.9,-336.91 527.47,-255.04 532.01,-221.95"/>
<polygon fill="none" stroke="#000000" stroke-width="1.44" stroke-opacity="0.623529" points="535.31,-222.62 533.46,-212.61 528.67,-221.59 535.31,-222.62"/>
</a>
</g>
</g>
<!-- 12 -->
<g id="node12" class="node">
<title>12</title>
<g id="a_node12"><a xlink:title="open v5.3.3&#10;332 B">
<ellipse fill="#b6d4ea" stroke="#000000" stroke-width="1.08" stroke-opacity="0.623529" cx="596.38" cy="-350.72" rx="1.22" ry="1.22"/>
<text xml:space="preserve" text-anchor="middle" x="596.38" y="-344.49" font-family="monospace" font-size="18.00">open</text>
</a>
</g>
</g>
<!-- 0&#45;&gt;12 -->
<g id="edge13" class="edge">
<title>0&#45;&gt;12</title>
<g id="a_edge13"><a xlink:title="pugio &#45;&gt; open">
<path fill="none" stroke="#000000" stroke-width="1.44" stroke-opacity="0.623529" d="M679.04,-442.82C653.42,-414.59 619.51,-377.21 604.32,-360.48"/>
<polygon fill="none" stroke="#000000" stroke-width="1.44" stroke-opacity="0.623529" points="606.92,-358.34 597.98,-353.49 601.94,-362.85 606.92,-358.34"/>
</a>
</g>
</g>
<!-- 18 -->
<g id="node16" class="node">
<title>18</title>
<g id="a_node16"><a xlink:title="parse_size v1.1.0&#10;1.17 KiB">
<ellipse fill="#cbdff1" stroke="#000000" stroke-width="1.08" stroke-opacity="0.623529" cx="711.38" cy="-350.72" rx="4.01" ry="4.01"/>
<text xml:space="preserve" text-anchor="middle" x="711.38" y="-344.49" font-family="monospace" font-size="18.00">parse_size</text>
</a>
</g>
</g>
<!-- 0&#45;&gt;18 -->
<g id="edge18" class="edge">
<title>0&#45;&gt;18</title>
<g id="a_edge18"><a xlink:title="pugio &#45;&gt; parse_size">
<path fill="none" stroke="#000000" stroke-width="1.44" stroke-opacity="0.623529" d="M711.38,-430.55C711.38,-407.6 711.38,-381.77 711.38,-366.12"/>
<polygon fill="none" stroke="#000000" stroke-width="1.44" stroke-opacity="0.623529" points="714.74,-366.45 711.38,-356.85 708.02,-366.45 714.74,-366.45"/>
</a>
</g>
</g>
<!-- 19 -->
<g id="node17" class="node">
<title>19</title>
<g id="a_node17"><a xlink:title="petgraph v0.8.3&#10;5.95 KiB">
<ellipse fill="#93c3df" stroke="#000000" stroke-width="1.08" stroke-opacity="0.623529" cx="848.38" cy="-350.72" rx="14.24" ry="14.24"/>
<text xml:space="preserve" text-anchor="middle" x="848.38" y="-344.49" font-family="monospace" font-size="18.00">petgraph</text>
</a>
</g>
</g>
<!-- 0&#45;&gt;19 -->
<g id="edge19" class="edge">
<title>0&#45;&gt;19</title>
<g id="a_edge19"><a xlink:title="pugio &#45;&gt; petgraph">
<path fill="none" stroke="#000000" stroke-width="1.44" stroke-opacity="0.623529" d="M746.66,-445.82C773.31,-421.16 808.83,-388.3 830.07,-368.65"/>
<polygon fill="none" stroke="#000000" stroke-width="1.44" stroke-opacity="0.623529" points="832.12,-371.33 836.89,-362.35 827.56,-366.4 832.12,-371.33"/>
</a>
</g>
</g>
<!-- 26 -->
<g id="node22" class="node">
<title>26</title>
<g id="a_node22"><a xlink:title="regex_lite v0.1.8&#10;46.25 KiB">
<ellipse fill="#5ca3d0" stroke="#000000" stroke-width="1.08" stroke-opacity="0.623529" cx="985.38" cy="-350.72" rx="39.57" ry="39.57"/>
<text xml:space="preserve" text-anchor="middle" x="985.38" y="-344.49" font-family="monospace" font-size="18.00">regex_lite</text>
</a>
</g>
</g>
<!-- 0&#45;&gt;26 -->
<g id="edge24" class="edge">
<title>0&#45;&gt;26</title>
<g id="a_edge24"><a xlink:title="pugio &#45;&gt; regex_lite">
<path fill="none" stroke="#000000" stroke-width="1.44" stroke-opacity="0.623529" d="M756.24,-459.68C797.02,-442.36 858.7,-415.59 911.38,-390.28 920.96,-385.68 931.14,-380.54 940.78,-375.55"/>
<polygon fill="none" stroke="#000000" stroke-width="1.44" stroke-opacity="0.623529" points="942.08,-378.66 949.04,-371.25 938.98,-372.71 942.08,-378.66"/>
</a>
</g>
</g>
<!-- 29 -->
<g id="node23" class="node">
<title>29</title>
<g id="a_node23"><a xlink:title="serde_json v1.0.145&#10;15.99 KiB">
<ellipse fill="#7ab6d9" stroke="#000000" stroke-width="1.08" stroke-opacity="0.623529" cx="1240.38" cy="-206.33" rx="25.16" ry="25.16"/>
<text xml:space="preserve" text-anchor="middle" x="1240.38" y="-200.1" font-family="monospace" font-size="18.00">serde_json</text>
</a>
</g>
</g>
<!-- 0&#45;&gt;29 -->
<g id="edge25" class="edge">
<title>0&#45;&gt;29</title>
<g id="a_edge25"><a xlink:title="pugio &#45;&gt; serde_json">
<path fill="none" stroke="#000000" stroke-width="1.44" stroke-opacity="0.623529" d="M760.33,-478.14C833.04,-475.22 970.52,-460.04 1059.38,-390.28 1090.7,-365.7 1075.46,-341.38 1101.38,-311.15 1132.59,-274.74 1178.74,-243.45 1209.18,-225.01"/>
<polygon fill="none" stroke="#000000" stroke-width="1.44" stroke-opacity="0.623529" points="1210.83,-227.94 1217.37,-220.15 1207.4,-222.16 1210.83,-227.94"/>
</a>
</g>
</g>
<!-- 33 -->
<g id="node26" class="node">
<title>33</title>
<g id="a_node26"><a xlink:title="strum v0.27.2&#10;63 B">
<ellipse fill="#e2eef8" stroke="#000000" stroke-width="1.08" stroke-opacity="0.623529" cx="1147.38" cy="-350.72" rx="0.36" ry="0.36"/>
<text xml:space="preserve" text-anchor="middle" x="1147.38" y="-344.49" font-family="monospace" font-size="18.00">strum</text>
</a>
</g>
</g>
<!-- 0&#45;&gt;33 -->
<g id="edge28" class="edge">
<title>0&#45;&gt;33</title>
<g id="a_edge28"><a xlink:title="pugio &#45;&gt; strum">
<path fill="none" stroke="#000000" stroke-width="1.44" stroke-opacity="0.623529" d="M760,-473.94C835.18,-465.53 982.8,-443.24 1096.38,-390.28 1112.94,-382.56 1129.3,-368.81 1138.86,-359.99"/>
<polygon fill="none" stroke="#000000" stroke-width="1.44" stroke-opacity="0.623529" points="1141.19,-362.41 1145.74,-353.31 1136.51,-357.59 1141.19,-362.41"/>
</a>
</g>
</g>
<!-- 34 -->
<g id="node27" class="node">
<title>34</title>
<g id="a_node27"><a xlink:title="tinytemplate v1.2.1&#10;35.75 KiB">
<ellipse fill="#5ba2cf" stroke="#000000" stroke-width="1.08" stroke-opacity="0.623529" cx="1279.38" cy="-350.72" rx="35.9" ry="35.9"/>
<text xml:space="preserve" text-anchor="middle" x="1279.38" y="-344.49" font-family="monospace" font-size="18.00">tinytemplate</text>
</a>
</g>
</g>
<!-- 0&#45;&gt;34 -->
<g id="edge29" class="edge">
<title>0&#45;&gt;34</title>
<g id="a_edge29"><a xlink:title="pugio &#45;&gt; tinytemplate">
<path fill="none" stroke="#000000" stroke-width="1.44" stroke-opacity="0.623529" d="M759.84,-473.51C847.78,-463.65 1038.82,-438.31 1193.38,-390.28 1208.17,-385.69 1223.79,-379.21 1237.59,-372.88"/>
<polygon fill="none" stroke="#000000" stroke-width="1.44" stroke-opacity="0.623529" points="1239,-375.93 1246.25,-368.8 1236.14,-369.85 1239,-375.93"/>
</a>
</g>
</g>
<!-- 4 -->
<g id="node4" class="node">
<title>4</title>
<g id="a_node4"><a xlink:title="clap_builder v4.5.53&#10;248.73 KiB">
<ellipse fill="#115ba2" stroke="#000000" stroke-width="1.08" stroke-opacity="0.623529" cx="144.38" cy="-206.33" rx="64.82" ry="64.82"/>
<text xml:space="preserve" text-anchor="middle" x="144.38" y="-200.1" font-family="monospace" font-size="18.00">clap_builder</text>
</a>
</g>
</g>
<!-- 3&#45;&gt;4 -->
<g id="edge3" class="edge">
<title>3&#45;&gt;4</title>
<g id="a_edge3"><a xlink:title="clap &#45;&gt; clap_builder">
<path fill="none" stroke="#000000" stroke-width="1.44" stroke-opacity="0.623529" d="M335.32,-349.65C334.1,-348.26 314.33,-325.74 295.38,-311.15 268.19,-290.23 257.79,-290.36 229.38,-271.15 221.16,-265.59 212.64,-259.55 204.31,-253.48"/>
<polygon fill="none" stroke="#000000" stroke-width="1.44" stroke-opacity="0.623529" points="206.5,-250.92 196.77,-247.93 202.51,-256.33 206.5,-250.92"/>
</a>
</g>
</g>
<!-- 5 -->
<g id="node5" class="node">
<title>5</title>
<g id="a_node5"><a xlink:title="anstyle v1.0.13&#10;2.06 KiB">
<ellipse fill="#c3dbee" stroke="#000000" stroke-width="1.08" stroke-opacity="0.623529" cx="47.38" cy="-86.63" rx="6.5" ry="6.5"/>
<text xml:space="preserve" text-anchor="middle" x="47.38" y="-80.41" font-family="monospace" font-size="18.00">anstyle</text>
</a>
</g>
</g>
<!-- 4&#45;&gt;5 -->
<g id="edge4" class="edge">
<title>4&#45;&gt;5</title>
<g id="a_edge4"><a xlink:title="clap_builder &#45;&gt; anstyle">
<path fill="none" stroke="#000000" stroke-width="1.44" stroke-opacity="0.623529" d="M103.8,-156.1C87.09,-135.82 69.08,-113.97 58.02,-100.55"/>
<polygon fill="none" stroke="#000000" stroke-width="1.44" stroke-opacity="0.623529" points="60.88,-98.73 52.18,-93.46 55.69,-103 60.88,-98.73"/>
</a>
</g>
</g>
<!-- 6 -->
<g id="node6" class="node">
<title>6</title>
<g id="a_node6"><a xlink:title="clap_lex v0.7.6&#10;1.08 KiB">
<ellipse fill="#cce0f1" stroke="#000000" stroke-width="1.08" stroke-opacity="0.623529" cx="167.38" cy="-86.63" rx="3.72" ry="3.72"/>
<text xml:space="preserve" text-anchor="middle" x="167.38" y="-80.41" font-family="monospace" font-size="18.00">clap_lex</text>
</a>
</g>
</g>
<!-- 4&#45;&gt;6 -->
<g id="edge5" class="edge">
<title>4&#45;&gt;6</title>
<g id="a_edge5"><a xlink:title="clap_builder &#45;&gt; clap_lex">
<path fill="none" stroke="#000000" stroke-width="1.44" stroke-opacity="0.623529" d="M156.62,-142.69C159.65,-127.17 162.61,-112 164.66,-101.53"/>
<polygon fill="none" stroke="#000000" stroke-width="1.44" stroke-opacity="0.623529" points="167.89,-102.51 166.43,-92.44 161.3,-101.22 167.89,-102.51"/>
</a>
</g>
</g>
<!-- 8 -->
<g id="node8" class="node">
<title>8</title>
<g id="a_node8"><a xlink:title="csscolorparser v0.8.0&#10;21.41 KiB">
<ellipse fill="#7bb6d9" stroke="#000000" stroke-width="1.08" stroke-opacity="0.623529" cx="326.38" cy="-206.33" rx="28.91" ry="28.91"/>
<text xml:space="preserve" text-anchor="middle" x="326.38" y="-200.1" font-family="monospace" font-size="18.00">csscolorparser</text>
</a>
</g>
</g>
<!-- 7&#45;&gt;8 -->
<g id="edge7" class="edge">
<title>7&#45;&gt;8</title>
<g id="a_edge7"><a xlink:title="colorgrad &#45;&gt; csscolorparser">
<path fill="none" stroke="#000000" stroke-width="1.44" stroke-opacity="0.623529" d="M430.84,-333.38C411.5,-310.05 375.63,-266.77 351.39,-237.51"/>
<polygon fill="none" stroke="#000000" stroke-width="1.44" stroke-opacity="0.623529" points="354.06,-235.47 345.35,-230.22 348.89,-239.76 354.06,-235.47"/>
</a>
</g>
</g>
<!-- 10 -->
<g id="node10" class="node">
<title>10</title>
<g id="a_node10"><a xlink:title="libm v0.2.15&#10;7.04 KiB">
<ellipse fill="#a8cee5" stroke="#000000" stroke-width="1.08" stroke-opacity="0.623529" cx="444.38" cy="-15.88" rx="15.88" ry="15.88"/>
<text xml:space="preserve" text-anchor="middle" x="444.38" y="-9.65" font-family="monospace" font-size="18.00">libm</text>
</a>
</g>
</g>
<!-- 7&#45;&gt;10 -->
<g id="edge10" class="edge">
<title>7&#45;&gt;10</title>
<g id="a_edge10"><a xlink:title="colorgrad &#45;&gt; libm">
<path fill="none" stroke="#000000" stroke-width="1.44" stroke-opacity="0.623529" d="M444.38,-328.64C444.38,-270.37 444.38,-107.13 444.38,-43.11"/>
<polygon fill="none" stroke="#000000" stroke-width="1.44" stroke-opacity="0.623529" points="447.74,-43.47 444.38,-33.87 441.02,-43.47 447.74,-43.47"/>
</a>
</g>
</g>
<!-- 9 -->
<g id="node9" class="node">
<title>9</title>
<g id="a_node9"><a xlink:title="num_traits v0.2.19&#10;0 B">
<ellipse fill="#c1daed" stroke="#000000" stroke-width="1.08" stroke-opacity="0.623529" cx="338.38" cy="-86.63" rx="0.36" ry="0.36"/>
<text xml:space="preserve" text-anchor="middle" x="338.38" y="-80.41" font-family="monospace" font-size="18.00">num_traits</text>
</a>
</g>
</g>
<!-- 8&#45;&gt;9 -->
<g id="edge8" class="edge">
<title>8&#45;&gt;9</title>
<g id="a_edge8"><a xlink:title="csscolorparser &#45;&gt; num_traits">
<path fill="none" stroke="#000000" stroke-width="1.44" stroke-opacity="0.623529" d="M329.19,-177.73C331.73,-152.85 335.33,-117.47 337.18,-99.34"/>
<polygon fill="none" stroke="#000000" stroke-width="1.44" stroke-opacity="0.623529" points="340.51,-99.85 338.14,-89.96 333.82,-99.17 340.51,-99.85"/>
</a>
</g>
</g>
<!-- 9&#45;&gt;10 -->
<g id="edge9" class="edge">
<title>9&#45;&gt;10</title>
<g id="a_edge9"><a xlink:title="num_traits &#45;&gt; libm">
<path fill="none" stroke="#000000" stroke-width="1.44" stroke-opacity="0.623529" d="M338.45,-85.58C340.7,-84.13 391.54,-51.15 421.95,-31.42"/>
<polygon fill="none" stroke="#000000" stroke-width="1.44" stroke-opacity="0.623529" points="423.69,-34.3 429.92,-26.26 420.04,-28.66 423.69,-34.3"/>
</a>
</g>
</g>
<!-- 11&#45;&gt;10 -->
<g id="edge12" class="edge">
<title>11&#45;&gt;10</title>
<g id="a_edge12"><a xlink:title="humansize &#45;&gt; libm">
<path fill="none" stroke="#000000" stroke-width="1.44" stroke-opacity="0.623529" d="M533.1,-202.66C524.79,-185.26 477.88,-87.04 455.83,-40.87"/>
<polygon fill="none" stroke="#000000" stroke-width="1.44" stroke-opacity="0.623529" points="458.91,-39.51 451.74,-32.3 452.84,-42.41 458.91,-39.51"/>
</a>
</g>
</g>
<!-- 13 -->
<g id="node13" class="node">
<title>13</title>
<g id="a_node13"><a xlink:title="is_wsl v0.4.0&#10;0 B">
<ellipse fill="#b8d5ea" stroke="#000000" stroke-width="1.08" stroke-opacity="0.623529" cx="654.38" cy="-206.33" rx="0.36" ry="0.36"/>
<text xml:space="preserve" text-anchor="middle" x="654.38" y="-200.1" font-family="monospace" font-size="18.00">is_wsl</text>
</a>
</g>
</g>
<!-- 12&#45;&gt;13 -->
<g id="edge14" class="edge">
<title>12&#45;&gt;13</title>
<g id="a_edge14"><a xlink:title="open &#45;&gt; is_wsl">
<path fill="none" stroke="#000000" stroke-width="1.44" stroke-opacity="0.623529" d="M596.42,-349.61C597.88,-346.03 636.89,-250.25 650.07,-217.89"/>
<polygon fill="none" stroke="#000000" stroke-width="1.44" stroke-opacity="0.623529" points="653,-219.6 653.51,-209.45 646.78,-217.07 653,-219.6"/>
</a>
</g>
</g>
<!-- 14 -->
<g id="node14" class="node">
<title>14</title>
<g id="a_node14"><a xlink:title="is_docker v0.2.0&#10;0 B">
<ellipse fill="#c5dcee" stroke="#000000" stroke-width="1.08" stroke-opacity="0.623529" cx="627.38" cy="-86.63" rx="0.36" ry="0.36"/>
<text xml:space="preserve" text-anchor="middle" x="627.38" y="-80.41" font-family="monospace" font-size="18.00">is_docker</text>
</a>
</g>
</g>
<!-- 13&#45;&gt;14 -->
<g id="edge15" class="edge">
<title>13&#45;&gt;14</title>
<g id="a_edge15"><a xlink:title="is_wsl &#45;&gt; is_docker">
<path fill="none" stroke="#000000" stroke-width="1.44" stroke-opacity="0.623529" d="M654.36,-205.24C653.7,-202.38 636.67,-128.16 630.01,-99.12"/>
<polygon fill="none" stroke="#000000" stroke-width="1.44" stroke-opacity="0.623529" points="633.3,-98.44 627.88,-89.84 626.75,-99.95 633.3,-98.44"/>
</a>
</g>
</g>
<!-- 15 -->
<g id="node15" class="node">
<title>15</title>
<g id="a_node15"><a xlink:title="once_cell v1.21.3&#10;3.68 KiB">
<ellipse fill="#b8d5ea" stroke="#000000" stroke-width="1.08" stroke-opacity="0.623529" cx="672.38" cy="-15.88" rx="10.21" ry="10.21"/>
<text xml:space="preserve" text-anchor="middle" x="672.38" y="-9.65" font-family="monospace" font-size="18.00">once_cell</text>
</a>
</g>
</g>
<!-- 13&#45;&gt;15 -->
<g id="edge17" class="edge">
<title>13&#45;&gt;15</title>
<g id="a_edge17"><a xlink:title="is_wsl &#45;&gt; once_cell">
<path fill="none" stroke="#000000" stroke-width="1.44" stroke-opacity="0.623529" d="M654.47,-205.17C656.38,-201.9 687.16,-148.84 696.38,-101.51 698.9,-88.53 699.08,-84.7 696.38,-71.76 693.68,-58.89 687.8,-45.35 682.53,-34.93"/>
<polygon fill="none" stroke="#000000" stroke-width="1.44" stroke-opacity="0.623529" points="685.57,-33.5 678.08,-26.63 679.65,-36.68 685.57,-33.5"/>
</a>
</g>
</g>
<!-- 14&#45;&gt;15 -->
<g id="edge16" class="edge">
<title>14&#45;&gt;15</title>
<g id="a_edge16"><a xlink:title="is_docker &#45;&gt; once_cell">
<path fill="none" stroke="#000000" stroke-width="1.44" stroke-opacity="0.623529" d="M627.41,-85.58C628.31,-84.2 647.95,-54.2 660.97,-34.31"/>
<polygon fill="none" stroke="#000000" stroke-width="1.44" stroke-opacity="0.623529" points="663.72,-36.24 666.17,-26.36 658.1,-32.56 663.72,-36.24"/>
</a>
</g>
</g>
<!-- 20 -->
<g id="node18" class="node">
<title>20</title>
<g id="a_node18"><a xlink:title="fixedbitset v0.5.7&#10;147 B">
<ellipse fill="#ddeaf7" stroke="#000000" stroke-width="1.08" stroke-opacity="0.623529" cx="786.38" cy="-206.33" rx="0.55" ry="0.55"/>
<text xml:space="preserve" text-anchor="middle" x="786.38" y="-200.1" font-family="monospace" font-size="18.00">fixedbitset</text>
</a>
</g>
</g>
<!-- 19&#45;&gt;20 -->
<g id="edge20" class="edge">
<title>19&#45;&gt;20</title>
<g id="a_edge20"><a xlink:title="petgraph &#45;&gt; fixedbitset">
<path fill="none" stroke="#000000" stroke-width="1.44" stroke-opacity="0.623529" d="M843.09,-337.58C831.15,-310.17 802.29,-243.87 791,-217.96"/>
<polygon fill="none" stroke="#000000" stroke-width="1.44" stroke-opacity="0.623529" points="794.19,-216.86 787.28,-209.4 788.03,-219.54 794.19,-216.86"/>
</a>
</g>
</g>
<!-- 21 -->
<g id="node19" class="node">
<title>21</title>
<g id="a_node19"><a xlink:title="hashbrown v0.15.5&#10;3.57 KiB">
<ellipse fill="#b9d6ea" stroke="#000000" stroke-width="1.08" stroke-opacity="0.623529" cx="935.38" cy="-206.33" rx="9.97" ry="9.97"/>
<text xml:space="preserve" text-anchor="middle" x="935.38" y="-200.1" font-family="monospace" font-size="18.00">hashbrown</text>
</a>
</g>
</g>
<!-- 19&#45;&gt;21 -->
<g id="edge21" class="edge">
<title>19&#45;&gt;21</title>
<g id="a_edge21"><a xlink:title="petgraph &#45;&gt; hashbrown">
<path fill="none" stroke="#000000" stroke-width="1.44" stroke-opacity="0.623529" d="M855.2,-338.54C870.33,-313.78 906.78,-254.13 924.85,-224.56"/>
<polygon fill="none" stroke="#000000" stroke-width="1.44" stroke-opacity="0.623529" points="927.52,-226.63 929.66,-216.69 921.78,-223.13 927.52,-226.63"/>
</a>
</g>
</g>
<!-- 23 -->
<g id="node20" class="node">
<title>23</title>
<g id="a_node20"><a xlink:title="indexmap v2.12.1&#10;0 B">
<ellipse fill="#b9d6ea" stroke="#000000" stroke-width="1.08" stroke-opacity="0.623529" cx="1067.38" cy="-206.33" rx="0.36" ry="0.36"/>
<text xml:space="preserve" text-anchor="middle" x="1067.38" y="-200.1" font-family="monospace" font-size="18.00">indexmap</text>
</a>
</g>
</g>
<!-- 19&#45;&gt;23 -->
<g id="edge22" class="edge">
<title>19&#45;&gt;23</title>
<g id="a_edge22"><a xlink:title="petgraph &#45;&gt; indexmap">
<path fill="none" stroke="#000000" stroke-width="1.44" stroke-opacity="0.623529" d="M859.7,-342.1C872.1,-333.93 892.7,-320.82 911.38,-311.15 951.33,-290.46 967.21,-296.52 1004.38,-271.15 1027.54,-255.33 1049.31,-230.16 1060.17,-216.64"/>
<polygon fill="none" stroke="#000000" stroke-width="1.44" stroke-opacity="0.623529" points="1062.73,-218.82 1065.95,-209.17 1057.42,-214.7 1062.73,-218.82"/>
</a>
</g>
</g>
<!-- 25 -->
<g id="node21" class="node">
<title>25</title>
<g id="a_node21"><a xlink:title="hashbrown v0.16.1&#10;3.57 KiB">
<ellipse fill="#b9d6ea" stroke="#000000" stroke-width="1.08" stroke-opacity="0.623529" cx="1067.38" cy="-86.63" rx="9.97" ry="9.97"/>
<text xml:space="preserve" text-anchor="middle" x="1067.38" y="-80.41" font-family="monospace" font-size="18.00">hashbrown</text>
</a>
</g>
</g>
<!-- 23&#45;&gt;25 -->
<g id="edge23" class="edge">
<title>23&#45;&gt;25</title>
<g id="a_edge23"><a xlink:title="indexmap &#45;&gt; hashbrown">
<path fill="none" stroke="#000000" stroke-width="1.44" stroke-opacity="0.623529" d="M1067.38,-205.24C1067.38,-202.64 1067.38,-140.98 1067.38,-108.01"/>
<polygon fill="none" stroke="#000000" stroke-width="1.44" stroke-opacity="0.623529" points="1070.74,-108.38 1067.38,-98.78 1064.02,-108.38 1070.74,-108.38"/>
</a>
</g>
</g>
<!-- 31 -->
<g id="node24" class="node">
<title>31</title>
<g id="a_node24"><a xlink:title="memchr v2.7.6&#10;5.31 KiB">
<ellipse fill="#b0d1e7" stroke="#000000" stroke-width="1.08" stroke-opacity="0.623529" cx="1189.38" cy="-86.63" rx="13.21" ry="13.21"/>
<text xml:space="preserve" text-anchor="middle" x="1189.38" y="-80.41" font-family="monospace" font-size="18.00">memchr</text>
</a>
</g>
</g>
<!-- 29&#45;&gt;31 -->
<g id="edge26" class="edge">
<title>29&#45;&gt;31</title>
<g id="a_edge26"><a xlink:title="serde_json &#45;&gt; memchr">
<path fill="none" stroke="#000000" stroke-width="1.44" stroke-opacity="0.623529" d="M1230.78,-183.19C1221.62,-162.05 1207.9,-130.39 1198.8,-109.38"/>
<polygon fill="none" stroke="#000000" stroke-width="1.44" stroke-opacity="0.623529" points="1201.92,-108.14 1195.02,-100.67 1195.76,-110.81 1201.92,-108.14"/>
</a>
</g>
</g>
<!-- 32 -->
<g id="node25" class="node">
<title>32</title>
<g id="a_node25"><a xlink:title="ryu v1.0.20&#10;2.69 KiB">
<ellipse fill="#bed8ec" stroke="#000000" stroke-width="1.08" stroke-opacity="0.623529" cx="1276.38" cy="-86.63" rx="8.03" ry="8.03"/>
<text xml:space="preserve" text-anchor="middle" x="1276.38" y="-80.41" font-family="monospace" font-size="18.00">ryu</text>
</a>
</g>
</g>
<!-- 29&#45;&gt;32 -->
<g id="edge27" class="edge">
<title>29&#45;&gt;32</title>
<g id="a_edge27"><a xlink:title="serde_json &#45;&gt; ryu">
<path fill="none" stroke="#000000" stroke-width="1.44" stroke-opacity="0.623529" d="M1247.4,-182.36C1254.28,-159.86 1264.62,-126.05 1270.91,-105.5"/>
<polygon fill="none" stroke="#000000" stroke-width="1.44" stroke-opacity="0.623529" points="1274.08,-106.64 1273.67,-96.47 1267.65,-104.67 1274.08,-106.64"/>
</a>
</g>
</g>
<!-- 34&#45;&gt;29 -->
<g id="edge30" class="edge">
<title>34&#45;&gt;29</title>
<g id="a_edge30"><a xlink:title="tinytemplate &#45;&gt; serde_json">
<path fill="none" stroke="#000000" stroke-width="1.44" stroke-opacity="0.623529" d="M1270.23,-316.33C1264.06,-293.79 1255.93,-264.13 1249.72,-241.44"/>
<polygon fill="none" stroke="#000000" stroke-width="1.44" stroke-opacity="0.623529" points="1253.02,-240.76 1247.24,-232.39 1246.53,-242.53 1253.02,-240.76"/>
</a>
</g>
</g>
</g>
</svg>
