<?xml version="1.0" encoding="UTF-8" standalone="no"?>
<!DOCTYPE svg PUBLIC "-//W3C//DTD SVG 1.1//EN"
 "http://www.w3.org/Graphics/SVG/1.1/DTD/svg11.dtd">
<!-- Generated by graphviz version 13.1.2 (20250808.2320)
 -->
<!-- Pages: 1 -->
<svg width="1184pt" height="674pt"
 viewBox="0.00 0.00 1184.00 674.00" xmlns="http://www.w3.org/2000/svg" xmlns:xlink="http://www.w3.org/1999/xlink">
<g id="graph0" class="graph" transform="scale(1 1) rotate(0) translate(72 602.16)">
<polygon fill="white" stroke="none" points="-72,72 -72,-602.16 1111.5,-602.16 1111.5,72 -72,72"/>
<!-- 0 -->
<g id="node1" class="node">
<title>0</title>
<g id="a_node1"><a xlink:title="49.58 KiB">
<ellipse fill="#08306b" stroke="#000000" stroke-width="0.9" stroke-opacity="0.623529" cx="487.5" cy="-489.59" rx="40.57" ry="40.57"/>
<text xml:space="preserve" text-anchor="middle" x="487.5" y="-484.34" font-family="monospace" font-size="15.00">pugio</text>
</a>
</g>
</g>
<!-- 1 -->
<g id="node2" class="node">
<title>1</title>
<g id="a_node2"><a xlink:title="7.09 KiB">
<ellipse fill="#a5cce4" stroke="#000000" stroke-width="0.9" stroke-opacity="0.623529" cx="214.5" cy="-373.29" rx="15.94" ry="15.94"/>
<text xml:space="preserve" text-anchor="middle" x="214.5" y="-368.04" font-family="monospace" font-size="15.00">anyhow</text>
</a>
</g>
</g>
<!-- 0&#45;&gt;1 -->
<g id="edge1" class="edge">
<title>0&#45;&gt;1</title>
<g id="a_edge1"><a xlink:title="pugio &#45;&gt; anyhow">
<path fill="none" stroke="#000000" stroke-width="1.2" stroke-opacity="0.623529" d="M449.79,-475.06C404.5,-458.48 326.5,-428.9 261.5,-399.02 253.19,-395.2 244.26,-390.63 236.45,-386.46"/>
<polygon fill="none" stroke="#000000" stroke-width="1.2" stroke-opacity="0.623529" points="237.85,-384.03 229.48,-382.68 235.18,-388.96 237.85,-384.03"/>
</a>
</g>
</g>
<!-- 2 -->
<g id="node3" class="node">
<title>2</title>
<g id="a_node3"><a xlink:title="0 B">
<ellipse fill="#0a498e" stroke="#000000" stroke-width="0.9" stroke-opacity="0.623529" cx="300.5" cy="-373.29" rx="0.36" ry="0.36"/>
<text xml:space="preserve" text-anchor="middle" x="300.5" y="-368.04" font-family="monospace" font-size="15.00">clap</text>
</a>
</g>
</g>
<!-- 0&#45;&gt;2 -->
<g id="edge2" class="edge">
<title>0&#45;&gt;2</title>
<g id="a_edge2"><a xlink:title="pugio &#45;&gt; clap">
<path fill="none" stroke="#000000" stroke-width="1.2" stroke-opacity="0.623529" d="M453.28,-468.16C423.21,-450.13 378.31,-423.06 339.5,-399.02 328.8,-392.39 316.57,-384.6 308.7,-379.55"/>
<polygon fill="none" stroke="#000000" stroke-width="1.2" stroke-opacity="0.623529" points="310.33,-377.28 302.09,-375.31 307.31,-381.99 310.33,-377.28"/>
</a>
</g>
</g>
<!-- 6 -->
<g id="node7" class="node">
<title>6</title>
<g id="a_node7"><a xlink:title="15.28 KiB">
<ellipse fill="#59a1ce" stroke="#000000" stroke-width="0.9" stroke-opacity="0.623529" cx="400.5" cy="-373.29" rx="24.59" ry="24.59"/>
<text xml:space="preserve" text-anchor="middle" x="400.5" y="-368.04" font-family="monospace" font-size="15.00">colorgrad</text>
</a>
</g>
</g>
<!-- 0&#45;&gt;6 -->
<g id="edge6" class="edge">
<title>0&#45;&gt;6</title>
<g id="a_edge6"><a xlink:title="pugio &#45;&gt; colorgrad">
<path fill="none" stroke="#000000" stroke-width="1.2" stroke-opacity="0.623529" d="M463.5,-457.05C450.1,-439.45 433.59,-417.76 420.83,-401"/>
<polygon fill="none" stroke="#000000" stroke-width="1.2" stroke-opacity="0.623529" points="423.07,-399.32 416,-394.65 418.62,-402.71 423.07,-399.32"/>
</a>
</g>
</g>
<!-- 10 -->
<g id="node11" class="node">
<title>10</title>
<g id="a_node11"><a xlink:title="1.23 KiB">
<ellipse fill="#b4d3e9" stroke="#000000" stroke-width="0.9" stroke-opacity="0.623529" cx="487.5" cy="-98.32" rx="4.18" ry="4.18"/>
<text xml:space="preserve" text-anchor="middle" x="487.5" y="-93.07" font-family="monospace" font-size="15.00">humansize</text>
</a>
</g>
</g>
<!-- 0&#45;&gt;10 -->
<g id="edge11" class="edge">
<title>0&#45;&gt;10</title>
<g id="a_edge11"><a xlink:title="pugio &#45;&gt; humansize">
<path fill="none" stroke="#000000" stroke-width="1.2" stroke-opacity="0.623529" d="M487.5,-449.12C487.5,-363.41 487.5,-163.78 487.5,-111.85"/>
<polygon fill="none" stroke="#000000" stroke-width="1.2" stroke-opacity="0.623529" points="490.3,-111.98 487.5,-103.98 484.7,-111.98 490.3,-111.98"/>
</a>
</g>
</g>
<!-- 11 -->
<g id="node12" class="node">
<title>11</title>
<g id="a_node12"><a xlink:title="2.40 KiB">
<ellipse fill="#9bc8e1" stroke="#000000" stroke-width="0.9" stroke-opacity="0.623529" cx="560.5" cy="-373.29" rx="7.35" ry="7.35"/>
<text xml:space="preserve" text-anchor="middle" x="560.5" y="-368.04" font-family="monospace" font-size="15.00">open</text>
</a>
</g>
</g>
<!-- 0&#45;&gt;11 -->
<g id="edge13" class="edge">
<title>0&#45;&gt;11</title>
<g id="a_edge13"><a xlink:title="pugio &#45;&gt; open">
<path fill="none" stroke="#000000" stroke-width="1.2" stroke-opacity="0.623529" d="M508.81,-455.22C523.16,-432.75 541.33,-404.3 551.86,-387.81"/>
<polygon fill="none" stroke="#000000" stroke-width="1.2" stroke-opacity="0.623529" points="554.17,-389.4 556.12,-381.15 549.45,-386.39 554.17,-389.4"/>
</a>
</g>
</g>
<!-- 17 -->
<g id="node17" class="node">
<title>17</title>
<g id="a_node17"><a xlink:title="5.36 KiB">
<ellipse fill="#8abfdd" stroke="#000000" stroke-width="0.9" stroke-opacity="0.623529" cx="782.5" cy="-373.29" rx="13.3" ry="13.3"/>
<text xml:space="preserve" text-anchor="middle" x="782.5" y="-368.04" font-family="monospace" font-size="15.00">petgraph</text>
</a>
</g>
</g>
<!-- 0&#45;&gt;17 -->
<g id="edge19" class="edge">
<title>0&#45;&gt;17</title>
<g id="a_edge19"><a xlink:title="pugio &#45;&gt; petgraph">
<path fill="none" stroke="#000000" stroke-width="1.2" stroke-opacity="0.623529" d="M524.86,-474.11C587.52,-449.83 711.79,-401.68 761.36,-382.48"/>
<polygon fill="none" stroke="#000000" stroke-width="1.2" stroke-opacity="0.623529" points="762.36,-385.09 768.81,-379.59 760.34,-379.87 762.36,-385.09"/>
</a>
</g>
</g>
<!-- 24 -->
<g id="node21" class="node">
<title>24</title>
<g id="a_node21"><a xlink:title="16.75 KiB">
<ellipse fill="#79b6d9" stroke="#000000" stroke-width="0.9" stroke-opacity="0.623529" cx="954.5" cy="-373.29" rx="25.73" ry="25.73"/>
<text xml:space="preserve" text-anchor="middle" x="954.5" y="-368.04" font-family="monospace" font-size="15.00">serde_json</text>
</a>
</g>
</g>
<!-- 0&#45;&gt;24 -->
<g id="edge23" class="edge">
<title>0&#45;&gt;24</title>
<g id="a_edge23"><a xlink:title="pugio &#45;&gt; serde_json">
<path fill="none" stroke="#000000" stroke-width="1.2" stroke-opacity="0.623529" d="M526.51,-479.04C616.24,-457.08 836.01,-403.29 920.58,-382.59"/>
<polygon fill="none" stroke="#000000" stroke-width="1.2" stroke-opacity="0.623529" points="921.1,-385.34 928.2,-380.72 919.77,-379.9 921.1,-385.34"/>
</a>
</g>
</g>
<!-- 3 -->
<g id="node4" class="node">
<title>3</title>
<g id="a_node4"><a xlink:title="307.95 KiB">
<ellipse fill="#0a498e" stroke="#000000" stroke-width="0.9" stroke-opacity="0.623529" cx="127.5" cy="-229.44" rx="68.11" ry="68.11"/>
<text xml:space="preserve" text-anchor="middle" x="127.5" y="-224.19" font-family="monospace" font-size="15.00">clap_builder</text>
</a>
</g>
</g>
<!-- 2&#45;&gt;3 -->
<g id="edge3" class="edge">
<title>2&#45;&gt;3</title>
<g id="a_edge3"><a xlink:title="clap &#45;&gt; clap_builder">
<path fill="none" stroke="#000000" stroke-width="1.2" stroke-opacity="0.623529" d="M300.35,-372.17C297.26,-369.72 247.2,-330.15 207.5,-297.55 200.56,-291.86 193.32,-285.85 186.15,-279.88"/>
<polygon fill="none" stroke="#000000" stroke-width="1.2" stroke-opacity="0.623529" points="188.34,-278.06 180.4,-275.08 184.75,-282.36 188.34,-278.06"/>
</a>
</g>
</g>
<!-- 4 -->
<g id="node5" class="node">
<title>4</title>
<g id="a_node5"><a xlink:title="2.10 KiB">
<ellipse fill="#c1daed" stroke="#000000" stroke-width="0.9" stroke-opacity="0.623529" cx="39.5" cy="-98.32" rx="6.61" ry="6.61"/>
<text xml:space="preserve" text-anchor="middle" x="39.5" y="-93.07" font-family="monospace" font-size="15.00">anstyle</text>
</a>
</g>
</g>
<!-- 3&#45;&gt;4 -->
<g id="edge4" class="edge">
<title>3&#45;&gt;4</title>
<g id="a_edge4"><a xlink:title="clap_builder &#45;&gt; anstyle">
<path fill="none" stroke="#000000" stroke-width="1.2" stroke-opacity="0.623529" d="M89.67,-172.93C74.23,-150.28 57.76,-126.11 48.06,-111.88"/>
<polygon fill="none" stroke="#000000" stroke-width="1.2" stroke-opacity="0.623529" points="50.59,-110.62 43.77,-105.58 45.96,-113.77 50.59,-110.62"/>
</a>
</g>
</g>
<!-- 5 -->
<g id="node6" class="node">
<title>5</title>
<g id="a_node6"><a xlink:title="3.94 KiB">
<ellipse fill="#b4d4e9" stroke="#000000" stroke-width="0.9" stroke-opacity="0.623529" cx="148.5" cy="-98.32" rx="10.72" ry="10.72"/>
<text xml:space="preserve" text-anchor="middle" x="148.5" y="-93.07" font-family="monospace" font-size="15.00">clap_lex</text>
</a>
</g>
</g>
<!-- 3&#45;&gt;5 -->
<g id="edge5" class="edge">
<title>3&#45;&gt;5</title>
<g id="a_edge5"><a xlink:title="clap_builder &#45;&gt; clap_lex">
<path fill="none" stroke="#000000" stroke-width="1.2" stroke-opacity="0.623529" d="M138.25,-162.37C140.87,-146.22 143.48,-130.19 145.41,-118.34"/>
<polygon fill="none" stroke="#000000" stroke-width="1.2" stroke-opacity="0.623529" points="148.16,-118.89 146.68,-110.54 142.63,-117.99 148.16,-118.89"/>
</a>
</g>
</g>
<!-- 7 -->
<g id="node8" class="node">
<title>7</title>
<g id="a_node8"><a xlink:title="24.18 KiB">
<ellipse fill="#70b0d6" stroke="#000000" stroke-width="0.9" stroke-opacity="0.623529" cx="291.5" cy="-229.44" rx="30.53" ry="30.53"/>
<text xml:space="preserve" text-anchor="middle" x="291.5" y="-224.19" font-family="monospace" font-size="15.00">csscolorparser</text>
</a>
</g>
</g>
<!-- 6&#45;&gt;7 -->
<g id="edge7" class="edge">
<title>6&#45;&gt;7</title>
<g id="a_edge7"><a xlink:title="colorgrad &#45;&gt; csscolorparser">
<path fill="none" stroke="#000000" stroke-width="1.2" stroke-opacity="0.623529" d="M386.03,-353.45C367.92,-329.89 336.69,-289.24 315.1,-261.16"/>
<polygon fill="none" stroke="#000000" stroke-width="1.2" stroke-opacity="0.623529" points="317.49,-259.67 310.4,-255.03 313.05,-263.08 317.49,-259.67"/>
</a>
</g>
</g>
<!-- 9 -->
<g id="node10" class="node">
<title>9</title>
<g id="a_node10"><a xlink:title="8.38 KiB">
<ellipse fill="#9fcae2" stroke="#000000" stroke-width="0.9" stroke-opacity="0.623529" cx="400.5" cy="-17.66" rx="17.66" ry="17.66"/>
<text xml:space="preserve" text-anchor="middle" x="400.5" y="-12.41" font-family="monospace" font-size="15.00">libm</text>
</a>
</g>
</g>
<!-- 6&#45;&gt;9 -->
<g id="edge10" class="edge">
<title>6&#45;&gt;9</title>
<g id="a_edge10"><a xlink:title="colorgrad &#45;&gt; libm">
<path fill="none" stroke="#000000" stroke-width="1.2" stroke-opacity="0.623529" d="M400.5,-348.81C400.5,-285.41 400.5,-111.05 400.5,-44.73"/>
<polygon fill="none" stroke="#000000" stroke-width="1.2" stroke-opacity="0.623529" points="403.3,-44.86 400.5,-36.86 397.7,-44.86 403.3,-44.86"/>
</a>
</g>
</g>
<!-- 8 -->
<g id="node9" class="node">
<title>8</title>
<g id="a_node9"><a xlink:title="0 B">
<ellipse fill="#bcd7eb" stroke="#000000" stroke-width="0.9" stroke-opacity="0.623529" cx="300.5" cy="-98.32" rx="0.36" ry="0.36"/>
<text xml:space="preserve" text-anchor="middle" x="300.5" y="-93.07" font-family="monospace" font-size="15.00">num_traits</text>
</a>
</g>
</g>
<!-- 7&#45;&gt;8 -->
<g id="edge8" class="edge">
<title>7&#45;&gt;8</title>
<g id="a_edge8"><a xlink:title="csscolorparser &#45;&gt; num_traits">
<path fill="none" stroke="#000000" stroke-width="1.2" stroke-opacity="0.623529" d="M293.54,-199.14C295.55,-170.28 298.51,-127.87 299.83,-109"/>
<polygon fill="none" stroke="#000000" stroke-width="1.2" stroke-opacity="0.623529" points="302.61,-109.36 300.37,-101.18 297.02,-108.97 302.61,-109.36"/>
</a>
</g>
</g>
<!-- 8&#45;&gt;9 -->
<g id="edge9" class="edge">
<title>8&#45;&gt;9</title>
<g id="a_edge9"><a xlink:title="num_traits &#45;&gt; libm">
<path fill="none" stroke="#000000" stroke-width="1.2" stroke-opacity="0.623529" d="M300.57,-97.27C302.7,-95.59 351.28,-57.38 379.9,-34.86"/>
<polygon fill="none" stroke="#000000" stroke-width="1.2" stroke-opacity="0.623529" points="381.41,-37.24 385.97,-30.09 377.95,-32.84 381.41,-37.24"/>
</a>
</g>
</g>
<!-- 10&#45;&gt;9 -->
<g id="edge12" class="edge">
<title>10&#45;&gt;9</title>
<g id="a_edge12"><a xlink:title="humansize &#45;&gt; libm">
<path fill="none" stroke="#000000" stroke-width="1.2" stroke-opacity="0.623529" d="M484.99,-95.06C475.62,-86.58 442.1,-56.27 420.2,-36.48"/>
<polygon fill="none" stroke="#000000" stroke-width="1.2" stroke-opacity="0.623529" points="422.16,-34.47 414.35,-31.18 418.4,-38.62 422.16,-34.47"/>
</a>
</g>
</g>
<!-- 12 -->
<g id="node13" class="node">
<title>12</title>
<g id="a_node13"><a xlink:title="3.12 KiB">
<ellipse fill="#add0e6" stroke="#000000" stroke-width="0.9" stroke-opacity="0.623529" cx="560.5" cy="-229.44" rx="9.02" ry="9.02"/>
<text xml:space="preserve" text-anchor="middle" x="560.5" y="-224.19" font-family="monospace" font-size="15.00">is_wsl</text>
</a>
</g>
</g>
<!-- 11&#45;&gt;12 -->
<g id="edge14" class="edge">
<title>11&#45;&gt;12</title>
<g id="a_edge14"><a xlink:title="open &#45;&gt; is_wsl">
<path fill="none" stroke="#000000" stroke-width="1.2" stroke-opacity="0.623529" d="M560.5,-366.19C560.5,-345.89 560.5,-280.04 560.5,-248.12"/>
<polygon fill="none" stroke="#000000" stroke-width="1.2" stroke-opacity="0.623529" points="563.3,-248.18 560.5,-240.18 557.7,-248.18 563.3,-248.18"/>
</a>
</g>
</g>
<!-- 16 -->
<g id="node16" class="node">
<title>16</title>
<g id="a_node16"><a xlink:title="1.72 KiB">
<ellipse fill="#c4dbee" stroke="#000000" stroke-width="0.9" stroke-opacity="0.623529" cx="664.5" cy="-229.44" rx="5.59" ry="5.59"/>
<text xml:space="preserve" text-anchor="middle" x="664.5" y="-224.19" font-family="monospace" font-size="15.00">pathdiff</text>
</a>
</g>
</g>
<!-- 11&#45;&gt;16 -->
<g id="edge18" class="edge">
<title>11&#45;&gt;16</title>
<g id="a_edge18"><a xlink:title="open &#45;&gt; pathdiff">
<path fill="none" stroke="#000000" stroke-width="1.2" stroke-opacity="0.623529" d="M564.2,-367.24C579.09,-346.93 634.83,-270.91 656.14,-241.84"/>
<polygon fill="none" stroke="#000000" stroke-width="1.2" stroke-opacity="0.623529" points="658.21,-243.75 660.68,-235.65 653.69,-240.44 658.21,-243.75"/>
</a>
</g>
</g>
<!-- 13 -->
<g id="node14" class="node">
<title>13</title>
<g id="a_node14"><a xlink:title="39 B">
<ellipse fill="#cadff0" stroke="#000000" stroke-width="0.9" stroke-opacity="0.623529" cx="609.5" cy="-98.32" rx="0.36" ry="0.36"/>
<text xml:space="preserve" text-anchor="middle" x="609.5" y="-93.07" font-family="monospace" font-size="15.00">is_docker</text>
</a>
</g>
</g>
<!-- 12&#45;&gt;13 -->
<g id="edge15" class="edge">
<title>12&#45;&gt;13</title>
<g id="a_edge15"><a xlink:title="is_wsl &#45;&gt; is_docker">
<path fill="none" stroke="#000000" stroke-width="1.2" stroke-opacity="0.623529" d="M563.27,-221.13C571.68,-198.97 596.88,-132.59 606.08,-108.33"/>
<polygon fill="none" stroke="#000000" stroke-width="1.2" stroke-opacity="0.623529" points="608.61,-109.56 608.83,-101.09 603.37,-107.58 608.61,-109.56"/>
</a>
</g>
</g>
<!-- 14 -->
<g id="node15" class="node">
<title>14</title>
<g id="a_node15"><a xlink:title="2.16 KiB">
<ellipse fill="#c0d9ed" stroke="#000000" stroke-width="0.9" stroke-opacity="0.623529" cx="652.5" cy="-17.66" rx="6.75" ry="6.75"/>
<text xml:space="preserve" text-anchor="middle" x="652.5" y="-12.41" font-family="monospace" font-size="15.00">once_cell</text>
</a>
</g>
</g>
<!-- 12&#45;&gt;14 -->
<g id="edge17" class="edge">
<title>12&#45;&gt;14</title>
<g id="a_edge17"><a xlink:title="is_wsl &#45;&gt; once_cell">
<path fill="none" stroke="#000000" stroke-width="1.2" stroke-opacity="0.623529" d="M564.46,-221.7C572.06,-209.08 589.62,-181.33 608.5,-161.32 632.8,-135.58 655.23,-143.26 670.5,-111.32 683.03,-85.13 669.59,-50.8 660.13,-32.15"/>
<polygon fill="none" stroke="#000000" stroke-width="1.2" stroke-opacity="0.623529" points="662.61,-30.85 656.34,-25.15 657.69,-33.52 662.61,-30.85"/>
</a>
</g>
</g>
<!-- 13&#45;&gt;14 -->
<g id="edge16" class="edge">
<title>13&#45;&gt;14</title>
<g id="a_edge16"><a xlink:title="is_docker &#45;&gt; once_cell">
<path fill="none" stroke="#000000" stroke-width="1.2" stroke-opacity="0.623529" d="M609.53,-97.27C610.48,-95.52 633.05,-54.25 645.09,-32.23"/>
<polygon fill="none" stroke="#000000" stroke-width="1.2" stroke-opacity="0.623529" points="647.51,-33.63 648.89,-25.27 642.6,-30.94 647.51,-33.63"/>
</a>
</g>
</g>
<!-- 19 -->
<g id="node18" class="node">
<title>19</title>
<g id="a_node18"><a xlink:title="4.77 KiB">
<ellipse fill="#b0d1e7" stroke="#000000" stroke-width="0.9" stroke-opacity="0.623529" cx="782.5" cy="-229.44" rx="12.28" ry="12.28"/>
<text xml:space="preserve" text-anchor="middle" x="782.5" y="-224.19" font-family="monospace" font-size="15.00">hashbrown</text>
</a>
</g>
</g>
<!-- 17&#45;&gt;19 -->
<g id="edge20" class="edge">
<title>17&#45;&gt;19</title>
<g id="a_edge20"><a xlink:title="petgraph &#45;&gt; hashbrown">
<path fill="none" stroke="#000000" stroke-width="1.2" stroke-opacity="0.623529" d="M782.5,-360.19C782.5,-335.98 782.5,-281.3 782.5,-251.23"/>
<polygon fill="none" stroke="#000000" stroke-width="1.2" stroke-opacity="0.623529" points="785.3,-251.53 782.5,-243.53 779.7,-251.53 785.3,-251.53"/>
</a>
</g>
</g>
<!-- 21 -->
<g id="node19" class="node">
<title>21</title>
<g id="a_node19"><a xlink:title="0 B">
<ellipse fill="#b0d1e7" stroke="#000000" stroke-width="0.9" stroke-opacity="0.623529" cx="900.5" cy="-229.44" rx="0.36" ry="0.36"/>
<text xml:space="preserve" text-anchor="middle" x="900.5" y="-224.19" font-family="monospace" font-size="15.00">indexmap</text>
</a>
</g>
</g>
<!-- 17&#45;&gt;21 -->
<g id="edge21" class="edge">
<title>17&#45;&gt;21</title>
<g id="a_edge21"><a xlink:title="petgraph &#45;&gt; indexmap">
<path fill="none" stroke="#000000" stroke-width="1.2" stroke-opacity="0.623529" d="M790.24,-362.98C812.15,-336.65 874.26,-261.98 894.23,-237.97"/>
<polygon fill="none" stroke="#000000" stroke-width="1.2" stroke-opacity="0.623529" points="896.31,-239.85 899.28,-231.91 892.01,-236.27 896.31,-239.85"/>
</a>
</g>
</g>
<!-- 23 -->
<g id="node20" class="node">
<title>23</title>
<g id="a_node20"><a xlink:title="4.77 KiB">
<ellipse fill="#b0d1e7" stroke="#000000" stroke-width="0.9" stroke-opacity="0.623529" cx="900.5" cy="-98.32" rx="12.28" ry="12.28"/>
<text xml:space="preserve" text-anchor="middle" x="900.5" y="-93.07" font-family="monospace" font-size="15.00">hashbrown</text>
</a>
</g>
</g>
<!-- 21&#45;&gt;23 -->
<g id="edge22" class="edge">
<title>21&#45;&gt;23</title>
<g id="a_edge22"><a xlink:title="indexmap &#45;&gt; hashbrown">
<path fill="none" stroke="#000000" stroke-width="1.2" stroke-opacity="0.623529" d="M900.5,-228.34C900.5,-225.44 900.5,-155.62 900.5,-119.93"/>
<polygon fill="none" stroke="#000000" stroke-width="1.2" stroke-opacity="0.623529" points="903.3,-120.27 900.5,-112.27 897.7,-120.27 903.3,-120.27"/>
</a>
</g>
</g>
<!-- 26 -->
<g id="node22" class="node">
<title>26</title>
<g id="a_node22"><a xlink:title="5.31 KiB">
<ellipse fill="#add0e6" stroke="#000000" stroke-width="0.9" stroke-opacity="0.623529" cx="1004.5" cy="-229.44" rx="13.21" ry="13.21"/>
<text xml:space="preserve" text-anchor="middle" x="1004.5" y="-224.19" font-family="monospace" font-size="15.00">memchr</text>
</a>
</g>
</g>
<!-- 24&#45;&gt;26 -->
<g id="edge24" class="edge">
<title>24&#45;&gt;26</title>
<g id="a_edge24"><a xlink:title="serde_json &#45;&gt; memchr">
<path fill="none" stroke="#000000" stroke-width="1.2" stroke-opacity="0.623529" d="M962.64,-349.18C972.26,-321.89 988.11,-276.93 997.3,-250.86"/>
<polygon fill="none" stroke="#000000" stroke-width="1.2" stroke-opacity="0.623529" points="999.85,-252.07 999.86,-243.59 994.56,-250.2 999.85,-252.07"/>
</a>
</g>
</g>
</g>
</svg>
