<?xml version="1.0" encoding="UTF-8" standalone="no"?>
<!DOCTYPE svg PUBLIC "-//W3C//DTD SVG 1.1//EN"
 "http://www.w3.org/Graphics/SVG/1.1/DTD/svg11.dtd">
<!-- Generated by graphviz version 13.1.2 (20250808.2320)
 -->
<!-- Pages: 1 -->
<svg width="1184pt" height="680pt"
 viewBox="0.00 0.00 1184.00 680.00" xmlns="http://www.w3.org/2000/svg" xmlns:xlink="http://www.w3.org/1999/xlink">
<g id="graph0" class="graph" transform="scale(1 1) rotate(0) translate(72 607.64)">
<polygon fill="white" stroke="none" points="-72,72 -72,-607.64 1111.5,-607.64 1111.5,72 -72,72"/>
<!-- 0 -->
<g id="node1" class="node">
<title>0</title>
<g id="a_node1"><a xlink:title="51.63 KiB">
<ellipse fill="#08306b" stroke="#000000" stroke-width="0.9" stroke-opacity="0.623529" cx="520.5" cy="-494.49" rx="41.16" ry="41.16"/>
<text xml:space="preserve" text-anchor="middle" x="520.5" y="-489.24" font-family="monospace" font-size="15.00">pugio</text>
</a>
</g>
</g>
<!-- 1 -->
<g id="node2" class="node">
<title>1</title>
<g id="a_node2"><a xlink:title="9.45 KiB">
<ellipse fill="#9cc8e1" stroke="#000000" stroke-width="0.9" stroke-opacity="0.623529" cx="214.5" cy="-377.83" rx="18.96" ry="18.96"/>
<text xml:space="preserve" text-anchor="middle" x="214.5" y="-372.58" font-family="monospace" font-size="15.00">anyhow</text>
</a>
</g>
</g>
<!-- 0&#45;&gt;1 -->
<g id="edge1" class="edge">
<title>0&#45;&gt;1</title>
<g id="a_edge1"><a xlink:title="pugio &#45;&gt; anyhow">
<path fill="none" stroke="#000000" stroke-width="1.2" stroke-opacity="0.623529" d="M481.65,-481.91C430.4,-466.2 337.77,-436.28 261.5,-403.33 254.02,-400.1 246.08,-396.17 238.91,-392.41"/>
<polygon fill="none" stroke="#000000" stroke-width="1.2" stroke-opacity="0.623529" points="240.29,-389.97 231.92,-388.67 237.65,-394.91 240.29,-389.97"/>
</a>
</g>
</g>
<!-- 2 -->
<g id="node3" class="node">
<title>2</title>
<g id="a_node3"><a xlink:title="0 B">
<ellipse fill="#0a4a90" stroke="#000000" stroke-width="0.9" stroke-opacity="0.623529" cx="300.5" cy="-377.83" rx="0.36" ry="0.36"/>
<text xml:space="preserve" text-anchor="middle" x="300.5" y="-372.58" font-family="monospace" font-size="15.00">clap</text>
</a>
</g>
</g>
<!-- 0&#45;&gt;2 -->
<g id="edge2" class="edge">
<title>0&#45;&gt;2</title>
<g id="a_edge2"><a xlink:title="pugio &#45;&gt; clap">
<path fill="none" stroke="#000000" stroke-width="1.2" stroke-opacity="0.623529" d="M483.55,-476.4C446.57,-458.99 388.33,-430.74 339.5,-403.33 328.56,-397.19 316.37,-389.37 308.58,-384.23"/>
<polygon fill="none" stroke="#000000" stroke-width="1.2" stroke-opacity="0.623529" points="310.28,-382 302.07,-379.88 307.16,-386.65 310.28,-382"/>
</a>
</g>
</g>
<!-- 6 -->
<g id="node7" class="node">
<title>6</title>
<g id="a_node7"><a xlink:title="15.28 KiB">
<ellipse fill="#5aa2cf" stroke="#000000" stroke-width="0.9" stroke-opacity="0.623529" cx="400.5" cy="-377.83" rx="24.59" ry="24.59"/>
<text xml:space="preserve" text-anchor="middle" x="400.5" y="-372.58" font-family="monospace" font-size="15.00">colorgrad</text>
</a>
</g>
</g>
<!-- 0&#45;&gt;6 -->
<g id="edge6" class="edge">
<title>0&#45;&gt;6</title>
<g id="a_edge6"><a xlink:title="pugio &#45;&gt; colorgrad">
<path fill="none" stroke="#000000" stroke-width="1.2" stroke-opacity="0.623529" d="M491.45,-465.73C470.91,-446.1 443.7,-420.1 424.41,-401.67"/>
<polygon fill="none" stroke="#000000" stroke-width="1.2" stroke-opacity="0.623529" points="426.47,-399.76 418.75,-396.26 422.6,-403.81 426.47,-399.76"/>
</a>
</g>
</g>
<!-- 10 -->
<g id="node11" class="node">
<title>10</title>
<g id="a_node11"><a xlink:title="1.23 KiB">
<ellipse fill="#b4d4e9" stroke="#000000" stroke-width="0.9" stroke-opacity="0.623529" cx="487.5" cy="-100.58" rx="4.18" ry="4.18"/>
<text xml:space="preserve" text-anchor="middle" x="487.5" y="-95.33" font-family="monospace" font-size="15.00">humansize</text>
</a>
</g>
</g>
<!-- 0&#45;&gt;10 -->
<g id="edge11" class="edge">
<title>0&#45;&gt;10</title>
<g id="a_edge11"><a xlink:title="pugio &#45;&gt; humansize">
<path fill="none" stroke="#000000" stroke-width="1.2" stroke-opacity="0.623529" d="M517.15,-453.75C509.89,-367.46 492.96,-166.47 488.56,-114.19"/>
<polygon fill="none" stroke="#000000" stroke-width="1.2" stroke-opacity="0.623529" points="491.35,-113.99 487.89,-106.25 485.77,-114.46 491.35,-113.99"/>
</a>
</g>
</g>
<!-- 11 -->
<g id="node12" class="node">
<title>11</title>
<g id="a_node12"><a xlink:title="2.47 KiB">
<ellipse fill="#9cc8e1" stroke="#000000" stroke-width="0.9" stroke-opacity="0.623529" cx="554.5" cy="-377.83" rx="7.52" ry="7.52"/>
<text xml:space="preserve" text-anchor="middle" x="554.5" y="-372.58" font-family="monospace" font-size="15.00">open</text>
</a>
</g>
</g>
<!-- 0&#45;&gt;11 -->
<g id="edge13" class="edge">
<title>0&#45;&gt;11</title>
<g id="a_edge13"><a xlink:title="pugio &#45;&gt; open">
<path fill="none" stroke="#000000" stroke-width="1.2" stroke-opacity="0.623529" d="M531.92,-454.99C538.12,-434.06 545.45,-409.35 550.03,-393.89"/>
<polygon fill="none" stroke="#000000" stroke-width="1.2" stroke-opacity="0.623529" points="552.62,-395.02 552.21,-386.56 547.25,-393.43 552.62,-395.02"/>
</a>
</g>
</g>
<!-- 17 -->
<g id="node17" class="node">
<title>17</title>
<g id="a_node17"><a xlink:title="1.16 KiB">
<ellipse fill="#cadef0" stroke="#000000" stroke-width="0.9" stroke-opacity="0.623529" cx="658.5" cy="-377.83" rx="3.99" ry="3.99"/>
<text xml:space="preserve" text-anchor="middle" x="658.5" y="-372.58" font-family="monospace" font-size="15.00">parse_size</text>
</a>
</g>
</g>
<!-- 0&#45;&gt;17 -->
<g id="edge19" class="edge">
<title>0&#45;&gt;17</title>
<g id="a_edge19"><a xlink:title="pugio &#45;&gt; parse_size">
<path fill="none" stroke="#000000" stroke-width="1.2" stroke-opacity="0.623529" d="M551.47,-467.75C582.61,-441.88 628.78,-403.52 648.73,-386.94"/>
<polygon fill="none" stroke="#000000" stroke-width="1.2" stroke-opacity="0.623529" points="650.48,-389.13 654.84,-381.87 646.9,-384.82 650.48,-389.13"/>
</a>
</g>
</g>
<!-- 18 -->
<g id="node18" class="node">
<title>18</title>
<g id="a_node18"><a xlink:title="5.79 KiB">
<ellipse fill="#80bada" stroke="#000000" stroke-width="0.9" stroke-opacity="0.623529" cx="782.5" cy="-377.83" rx="14" ry="14"/>
<text xml:space="preserve" text-anchor="middle" x="782.5" y="-372.58" font-family="monospace" font-size="15.00">petgraph</text>
</a>
</g>
</g>
<!-- 0&#45;&gt;18 -->
<g id="edge20" class="edge">
<title>0&#45;&gt;18</title>
<g id="a_edge20"><a xlink:title="pugio &#45;&gt; petgraph">
<path fill="none" stroke="#000000" stroke-width="1.2" stroke-opacity="0.623529" d="M557.76,-477.18C613.57,-452.76 717.04,-407.48 761.4,-388.06"/>
<polygon fill="none" stroke="#000000" stroke-width="1.2" stroke-opacity="0.623529" points="762.3,-390.72 768.51,-384.95 760.06,-385.59 762.3,-390.72"/>
</a>
</g>
</g>
<!-- 25 -->
<g id="node22" class="node">
<title>25</title>
<g id="a_node22"><a xlink:title="16.44 KiB">
<ellipse fill="#7bb6d9" stroke="#000000" stroke-width="0.9" stroke-opacity="0.623529" cx="954.5" cy="-377.83" rx="25.5" ry="25.5"/>
<text xml:space="preserve" text-anchor="middle" x="954.5" y="-372.58" font-family="monospace" font-size="15.00">serde_json</text>
</a>
</g>
</g>
<!-- 0&#45;&gt;25 -->
<g id="edge24" class="edge">
<title>0&#45;&gt;25</title>
<g id="a_edge24"><a xlink:title="pugio &#45;&gt; serde_json">
<path fill="none" stroke="#000000" stroke-width="1.2" stroke-opacity="0.623529" d="M559.78,-483.11C644.22,-460.8 841.78,-408.61 920.88,-387.71"/>
<polygon fill="none" stroke="#000000" stroke-width="1.2" stroke-opacity="0.623529" points="921.59,-390.42 928.6,-385.67 920.15,-385 921.59,-390.42"/>
</a>
</g>
</g>
<!-- 3 -->
<g id="node4" class="node">
<title>3</title>
<g id="a_node4"><a xlink:title="310.56 KiB">
<ellipse fill="#0a4a90" stroke="#000000" stroke-width="0.9" stroke-opacity="0.623529" cx="127.5" cy="-234.08" rx="68.24" ry="68.24"/>
<text xml:space="preserve" text-anchor="middle" x="127.5" y="-228.83" font-family="monospace" font-size="15.00">clap_builder</text>
</a>
</g>
</g>
<!-- 2&#45;&gt;3 -->
<g id="edge3" class="edge">
<title>2&#45;&gt;3</title>
<g id="a_edge3"><a xlink:title="clap &#45;&gt; clap_builder">
<path fill="none" stroke="#000000" stroke-width="1.2" stroke-opacity="0.623529" d="M300.35,-376.71C297.26,-374.28 247.16,-334.87 207.5,-302.32 200.56,-296.63 193.31,-290.62 186.13,-284.63"/>
<polygon fill="none" stroke="#000000" stroke-width="1.2" stroke-opacity="0.623529" points="188.32,-282.81 180.39,-279.83 184.73,-287.11 188.32,-282.81"/>
</a>
</g>
</g>
<!-- 4 -->
<g id="node5" class="node">
<title>4</title>
<g id="a_node5"><a xlink:title="2.10 KiB">
<ellipse fill="#c1daed" stroke="#000000" stroke-width="0.9" stroke-opacity="0.623529" cx="39.5" cy="-100.58" rx="6.61" ry="6.61"/>
<text xml:space="preserve" text-anchor="middle" x="39.5" y="-95.33" font-family="monospace" font-size="15.00">anstyle</text>
</a>
</g>
</g>
<!-- 3&#45;&gt;4 -->
<g id="edge4" class="edge">
<title>3&#45;&gt;4</title>
<g id="a_edge4"><a xlink:title="clap_builder &#45;&gt; anstyle">
<path fill="none" stroke="#000000" stroke-width="1.2" stroke-opacity="0.623529" d="M90.18,-177.31C74.5,-153.88 57.66,-128.73 47.88,-114.11"/>
<polygon fill="none" stroke="#000000" stroke-width="1.2" stroke-opacity="0.623529" points="50.34,-112.75 43.57,-107.66 45.69,-115.87 50.34,-112.75"/>
</a>
</g>
</g>
<!-- 5 -->
<g id="node6" class="node">
<title>5</title>
<g id="a_node6"><a xlink:title="2.60 KiB">
<ellipse fill="#bed8ec" stroke="#000000" stroke-width="0.9" stroke-opacity="0.623529" cx="148.5" cy="-100.58" rx="7.84" ry="7.84"/>
<text xml:space="preserve" text-anchor="middle" x="148.5" y="-95.33" font-family="monospace" font-size="15.00">clap_lex</text>
</a>
</g>
</g>
<!-- 3&#45;&gt;5 -->
<g id="edge5" class="edge">
<title>3&#45;&gt;5</title>
<g id="a_edge5"><a xlink:title="clap_builder &#45;&gt; clap_lex">
<path fill="none" stroke="#000000" stroke-width="1.2" stroke-opacity="0.623529" d="M138.06,-166.95C141,-148.54 143.93,-130.18 145.94,-117.63"/>
<polygon fill="none" stroke="#000000" stroke-width="1.2" stroke-opacity="0.623529" points="148.65,-118.37 147.15,-110.03 143.12,-117.49 148.65,-118.37"/>
</a>
</g>
</g>
<!-- 7 -->
<g id="node8" class="node">
<title>7</title>
<g id="a_node8"><a xlink:title="24.18 KiB">
<ellipse fill="#71b1d6" stroke="#000000" stroke-width="0.9" stroke-opacity="0.623529" cx="291.5" cy="-234.08" rx="30.53" ry="30.53"/>
<text xml:space="preserve" text-anchor="middle" x="291.5" y="-228.83" font-family="monospace" font-size="15.00">csscolorparser</text>
</a>
</g>
</g>
<!-- 6&#45;&gt;7 -->
<g id="edge7" class="edge">
<title>6&#45;&gt;7</title>
<g id="a_edge7"><a xlink:title="colorgrad &#45;&gt; csscolorparser">
<path fill="none" stroke="#000000" stroke-width="1.2" stroke-opacity="0.623529" d="M386.03,-358C367.92,-334.46 336.69,-293.84 315.1,-265.78"/>
<polygon fill="none" stroke="#000000" stroke-width="1.2" stroke-opacity="0.623529" points="317.5,-264.29 310.4,-259.66 313.06,-267.71 317.5,-264.29"/>
</a>
</g>
</g>
<!-- 9 -->
<g id="node10" class="node">
<title>9</title>
<g id="a_node10"><a xlink:title="8.38 KiB">
<ellipse fill="#a0cae3" stroke="#000000" stroke-width="0.9" stroke-opacity="0.623529" cx="400.5" cy="-17.66" rx="17.66" ry="17.66"/>
<text xml:space="preserve" text-anchor="middle" x="400.5" y="-12.41" font-family="monospace" font-size="15.00">libm</text>
</a>
</g>
</g>
<!-- 6&#45;&gt;9 -->
<g id="edge10" class="edge">
<title>6&#45;&gt;9</title>
<g id="a_edge10"><a xlink:title="colorgrad &#45;&gt; libm">
<path fill="none" stroke="#000000" stroke-width="1.2" stroke-opacity="0.623529" d="M400.5,-353.33C400.5,-289.23 400.5,-111.7 400.5,-44.71"/>
<polygon fill="none" stroke="#000000" stroke-width="1.2" stroke-opacity="0.623529" points="403.3,-45.11 400.5,-37.11 397.7,-45.11 403.3,-45.11"/>
</a>
</g>
</g>
<!-- 8 -->
<g id="node9" class="node">
<title>8</title>
<g id="a_node9"><a xlink:title="0 B">
<ellipse fill="#bcd7ec" stroke="#000000" stroke-width="0.9" stroke-opacity="0.623529" cx="300.5" cy="-100.58" rx="0.36" ry="0.36"/>
<text xml:space="preserve" text-anchor="middle" x="300.5" y="-95.33" font-family="monospace" font-size="15.00">num_traits</text>
</a>
</g>
</g>
<!-- 7&#45;&gt;8 -->
<g id="edge8" class="edge">
<title>7&#45;&gt;8</title>
<g id="a_edge8"><a xlink:title="csscolorparser &#45;&gt; num_traits">
<path fill="none" stroke="#000000" stroke-width="1.2" stroke-opacity="0.623529" d="M293.5,-203.9C295.52,-174.4 298.52,-130.51 299.84,-111.24"/>
<polygon fill="none" stroke="#000000" stroke-width="1.2" stroke-opacity="0.623529" points="302.62,-111.61 300.37,-103.44 297.03,-111.23 302.62,-111.61"/>
</a>
</g>
</g>
<!-- 8&#45;&gt;9 -->
<g id="edge9" class="edge">
<title>8&#45;&gt;9</title>
<g id="a_edge9"><a xlink:title="num_traits &#45;&gt; libm">
<path fill="none" stroke="#000000" stroke-width="1.2" stroke-opacity="0.623529" d="M300.57,-99.52C302.7,-97.8 351.28,-58.49 379.9,-35.33"/>
<polygon fill="none" stroke="#000000" stroke-width="1.2" stroke-opacity="0.623529" points="381.53,-37.62 385.98,-30.41 378,-33.27 381.53,-37.62"/>
</a>
</g>
</g>
<!-- 10&#45;&gt;9 -->
<g id="edge12" class="edge">
<title>10&#45;&gt;9</title>
<g id="a_edge12"><a xlink:title="humansize &#45;&gt; libm">
<path fill="none" stroke="#000000" stroke-width="1.2" stroke-opacity="0.623529" d="M484.99,-97.25C475.57,-88.48 441.74,-57.02 419.85,-36.66"/>
<polygon fill="none" stroke="#000000" stroke-width="1.2" stroke-opacity="0.623529" points="421.76,-34.62 414,-31.22 417.95,-38.72 421.76,-34.62"/>
</a>
</g>
</g>
<!-- 12 -->
<g id="node13" class="node">
<title>12</title>
<g id="a_node13"><a xlink:title="3.12 KiB">
<ellipse fill="#add0e7" stroke="#000000" stroke-width="0.9" stroke-opacity="0.623529" cx="560.5" cy="-234.08" rx="9.02" ry="9.02"/>
<text xml:space="preserve" text-anchor="middle" x="560.5" y="-228.83" font-family="monospace" font-size="15.00">is_wsl</text>
</a>
</g>
</g>
<!-- 11&#45;&gt;12 -->
<g id="edge14" class="edge">
<title>11&#45;&gt;12</title>
<g id="a_edge14"><a xlink:title="open &#45;&gt; is_wsl">
<path fill="none" stroke="#000000" stroke-width="1.2" stroke-opacity="0.623529" d="M554.77,-370.37C555.65,-349.63 558.42,-284.26 559.76,-252.6"/>
<polygon fill="none" stroke="#000000" stroke-width="1.2" stroke-opacity="0.623529" points="562.55,-252.86 560.09,-244.75 556.95,-252.63 562.55,-252.86"/>
</a>
</g>
</g>
<!-- 16 -->
<g id="node16" class="node">
<title>16</title>
<g id="a_node16"><a xlink:title="1.72 KiB">
<ellipse fill="#c5dbee" stroke="#000000" stroke-width="0.9" stroke-opacity="0.623529" cx="664.5" cy="-234.08" rx="5.59" ry="5.59"/>
<text xml:space="preserve" text-anchor="middle" x="664.5" y="-228.83" font-family="monospace" font-size="15.00">pathdiff</text>
</a>
</g>
</g>
<!-- 11&#45;&gt;16 -->
<g id="edge18" class="edge">
<title>11&#45;&gt;16</title>
<g id="a_edge18"><a xlink:title="open &#45;&gt; pathdiff">
<path fill="none" stroke="#000000" stroke-width="1.2" stroke-opacity="0.623529" d="M558.41,-371.78C574.16,-351.49 633.11,-275.52 655.66,-246.48"/>
<polygon fill="none" stroke="#000000" stroke-width="1.2" stroke-opacity="0.623529" points="657.79,-248.29 660.48,-240.26 653.37,-244.86 657.79,-248.29"/>
</a>
</g>
</g>
<!-- 13 -->
<g id="node14" class="node">
<title>13</title>
<g id="a_node14"><a xlink:title="39 B">
<ellipse fill="#cbdff0" stroke="#000000" stroke-width="0.9" stroke-opacity="0.623529" cx="609.5" cy="-100.58" rx="0.36" ry="0.36"/>
<text xml:space="preserve" text-anchor="middle" x="609.5" y="-95.33" font-family="monospace" font-size="15.00">is_docker</text>
</a>
</g>
</g>
<!-- 12&#45;&gt;13 -->
<g id="edge15" class="edge">
<title>12&#45;&gt;13</title>
<g id="a_edge15"><a xlink:title="is_wsl &#45;&gt; is_docker">
<path fill="none" stroke="#000000" stroke-width="1.2" stroke-opacity="0.623529" d="M563.27,-225.63C571.68,-203.06 596.88,-135.46 606.08,-110.75"/>
<polygon fill="none" stroke="#000000" stroke-width="1.2" stroke-opacity="0.623529" points="608.67,-111.83 608.84,-103.35 603.42,-109.87 608.67,-111.83"/>
</a>
</g>
</g>
<!-- 14 -->
<g id="node15" class="node">
<title>14</title>
<g id="a_node15"><a xlink:title="2.16 KiB">
<ellipse fill="#c1daed" stroke="#000000" stroke-width="0.9" stroke-opacity="0.623529" cx="652.5" cy="-17.66" rx="6.75" ry="6.75"/>
<text xml:space="preserve" text-anchor="middle" x="652.5" y="-12.41" font-family="monospace" font-size="15.00">once_cell</text>
</a>
</g>
</g>
<!-- 12&#45;&gt;14 -->
<g id="edge17" class="edge">
<title>12&#45;&gt;14</title>
<g id="a_edge17"><a xlink:title="is_wsl &#45;&gt; once_cell">
<path fill="none" stroke="#000000" stroke-width="1.2" stroke-opacity="0.623529" d="M564.46,-226.33C572.05,-213.68 589.61,-185.87 608.5,-165.84 632.79,-140.08 655.23,-147.77 670.5,-115.84 683.8,-88.02 669.56,-51.37 659.89,-32"/>
<polygon fill="none" stroke="#000000" stroke-width="1.2" stroke-opacity="0.623529" points="662.38,-30.73 656.16,-24.98 657.44,-33.36 662.38,-30.73"/>
</a>
</g>
</g>
<!-- 13&#45;&gt;14 -->
<g id="edge16" class="edge">
<title>13&#45;&gt;14</title>
<g id="a_edge16"><a xlink:title="is_docker &#45;&gt; once_cell">
<path fill="none" stroke="#000000" stroke-width="1.2" stroke-opacity="0.623529" d="M609.53,-99.52C610.49,-97.72 633.25,-54.89 645.25,-32.31"/>
<polygon fill="none" stroke="#000000" stroke-width="1.2" stroke-opacity="0.623529" points="647.63,-33.8 648.91,-25.42 642.68,-31.17 647.63,-33.8"/>
</a>
</g>
</g>
<!-- 20 -->
<g id="node19" class="node">
<title>20</title>
<g id="a_node19"><a xlink:title="6.61 KiB">
<ellipse fill="#a7cee5" stroke="#000000" stroke-width="0.9" stroke-opacity="0.623529" cx="782.5" cy="-234.08" rx="15.26" ry="15.26"/>
<text xml:space="preserve" text-anchor="middle" x="782.5" y="-228.83" font-family="monospace" font-size="15.00">hashbrown</text>
</a>
</g>
</g>
<!-- 18&#45;&gt;20 -->
<g id="edge21" class="edge">
<title>18&#45;&gt;20</title>
<g id="a_edge21"><a xlink:title="petgraph &#45;&gt; hashbrown">
<path fill="none" stroke="#000000" stroke-width="1.2" stroke-opacity="0.623529" d="M782.5,-364.25C782.5,-340.61 782.5,-289.22 782.5,-258.86"/>
<polygon fill="none" stroke="#000000" stroke-width="1.2" stroke-opacity="0.623529" points="785.3,-258.9 782.5,-250.9 779.7,-258.9 785.3,-258.9"/>
</a>
</g>
</g>
<!-- 22 -->
<g id="node20" class="node">
<title>22</title>
<g id="a_node20"><a xlink:title="0 B">
<ellipse fill="#a7cee5" stroke="#000000" stroke-width="0.9" stroke-opacity="0.623529" cx="900.5" cy="-234.08" rx="0.36" ry="0.36"/>
<text xml:space="preserve" text-anchor="middle" x="900.5" y="-228.83" font-family="monospace" font-size="15.00">indexmap</text>
</a>
</g>
</g>
<!-- 18&#45;&gt;22 -->
<g id="edge22" class="edge">
<title>18&#45;&gt;22</title>
<g id="a_edge22"><a xlink:title="petgraph &#45;&gt; indexmap">
<path fill="none" stroke="#000000" stroke-width="1.2" stroke-opacity="0.623529" d="M790.61,-367.08C812.86,-340.36 874.49,-266.33 894.29,-242.54"/>
<polygon fill="none" stroke="#000000" stroke-width="1.2" stroke-opacity="0.623529" points="896.31,-244.49 899.28,-236.55 892.01,-240.91 896.31,-244.49"/>
</a>
</g>
</g>
<!-- 24 -->
<g id="node21" class="node">
<title>24</title>
<g id="a_node21"><a xlink:title="6.61 KiB">
<ellipse fill="#a7cee5" stroke="#000000" stroke-width="0.9" stroke-opacity="0.623529" cx="900.5" cy="-100.58" rx="15.26" ry="15.26"/>
<text xml:space="preserve" text-anchor="middle" x="900.5" y="-95.33" font-family="monospace" font-size="15.00">hashbrown</text>
</a>
</g>
</g>
<!-- 22&#45;&gt;24 -->
<g id="edge23" class="edge">
<title>22&#45;&gt;24</title>
<g id="a_edge23"><a xlink:title="indexmap &#45;&gt; hashbrown">
<path fill="none" stroke="#000000" stroke-width="1.2" stroke-opacity="0.623529" d="M900.5,-232.99C900.5,-230.1 900.5,-162.36 900.5,-125.3"/>
<polygon fill="none" stroke="#000000" stroke-width="1.2" stroke-opacity="0.623529" points="903.3,-125.56 900.5,-117.56 897.7,-125.56 903.3,-125.56"/>
</a>
</g>
</g>
<!-- 27 -->
<g id="node23" class="node">
<title>27</title>
<g id="a_node23"><a xlink:title="5.31 KiB">
<ellipse fill="#aed0e7" stroke="#000000" stroke-width="0.9" stroke-opacity="0.623529" cx="1004.5" cy="-234.08" rx="13.21" ry="13.21"/>
<text xml:space="preserve" text-anchor="middle" x="1004.5" y="-228.83" font-family="monospace" font-size="15.00">memchr</text>
</a>
</g>
</g>
<!-- 25&#45;&gt;27 -->
<g id="edge25" class="edge">
<title>25&#45;&gt;27</title>
<g id="a_edge25"><a xlink:title="serde_json &#45;&gt; memchr">
<path fill="none" stroke="#000000" stroke-width="1.2" stroke-opacity="0.623529" d="M962.64,-353.74C972.26,-326.47 988.11,-281.54 997.3,-255.49"/>
<polygon fill="none" stroke="#000000" stroke-width="1.2" stroke-opacity="0.623529" points="999.84,-256.7 999.86,-248.22 994.56,-254.84 999.84,-256.7"/>
</a>
</g>
</g>
</g>
</svg>
